<?xml version="1.0" encoding="UTF-8" standalone="no"?>
<!DOCTYPE svg PUBLIC "-//W3C//DTD SVG 1.1//EN"
 "http://www.w3.org/Graphics/SVG/1.1/DTD/svg11.dtd">
<!-- Generated by graphviz version 8.0.5 (20230430.1635)
 -->
<!-- Title: src/utils/array_utils.hpp Pages: 1 -->
<svg width="260pt" height="96pt"
 viewBox="0.00 0.00 260.25 96.00" xmlns="http://www.w3.org/2000/svg" xmlns:xlink="http://www.w3.org/1999/xlink">
<g id="graph0" class="graph" transform="scale(1 1) rotate(0) translate(4 92)">
<title>src/utils/array_utils.hpp</title>
<!-- Node1 -->
<g id="Node000001" class="node">
<title>Node1</title>
<g id="a_Node000001"><a xlink:title="Файл, в котором определено пространство имён array_utils.">
<polygon fill="#999999" stroke="#666666" points="186.5,-88 69.25,-88 69.25,-68 186.5,-68 186.5,-88"/>
<text text-anchor="middle" x="127.88" y="-74.5" font-family="Helvetica,sans-Serif" font-size="10.00">src/utils/array_utils.hpp</text>
</a>
</g>
</g>
<!-- Node2 -->
<g id="Node000002" class="node">
<title>Node2</title>
<g id="a_Node000002"><a xlink:href="keysight__m9807a_8cpp.html" target="_top" xlink:title="Файл исходного кода, в котором реализованы методы для класа KeysightM9807A.">
<polygon fill="white" stroke="#666666" points="121.75,-32 0,-32 0,0 121.75,0 121.75,-32"/>
<text text-anchor="start" x="8" y="-18.5" font-family="Helvetica,sans-Serif" font-size="10.00">src/devices/vna/keysight</text>
<text text-anchor="middle" x="60.88" y="-6.5" font-family="Helvetica,sans-Serif" font-size="10.00">_m9807a.cpp</text>
</a>
</g>
</g>
<!-- Node1&#45;&gt;Node2 -->
<g id="edge1_Node000001_Node000002" class="edge">
<title>Node1&#45;&gt;Node2</title>
<g id="a_edge1_Node000001_Node000002"><a xlink:title=" ">
<path fill="none" stroke="#63b8ff" d="M109.46,-60.51C99.65,-51.72 87.66,-40.98 78.04,-32.37"/>
<polygon fill="#63b8ff" stroke="#63b8ff" points="106.62,-62.56 116.41,-66.62 111.29,-57.35 106.62,-62.56"/>
</a>
</g>
</g>
<!-- Node3 -->
<g id="Node000003" class="node">
<title>Node3</title>
<g id="a_Node000003"><a xlink:href="task__manager_8cpp.html" target="_top" xlink:title="Файл исходного кода, в котором реализованы методы для класа TaskManager.">
<polygon fill="white" stroke="#666666" points="252.25,-26 139.5,-26 139.5,-6 252.25,-6 252.25,-26"/>
<text text-anchor="middle" x="195.88" y="-12.5" font-family="Helvetica,sans-Serif" font-size="10.00">src/task_manager.cpp</text>
</a>
</g>
</g>
<!-- Node1&#45;&gt;Node3 -->
<g id="edge2_Node000001_Node000003" class="edge">
<title>Node1&#45;&gt;Node3</title>
<g id="a_edge2_Node000001_Node000003"><a xlink:title=" ">
<path fill="none" stroke="#63b8ff" d="M146.52,-60.55C159.1,-49.45 175.22,-35.23 185.55,-26.11"/>
<polygon fill="#63b8ff" stroke="#63b8ff" points="144.68,-57.38 139.5,-66.62 149.31,-62.63 144.68,-57.38"/>
</a>
</g>
</g>
</g>
</svg>
