<?xml version="1.0" encoding="UTF-8" standalone="no"?>
<!DOCTYPE svg PUBLIC "-//W3C//DTD SVG 1.1//EN"
 "http://www.w3.org/Graphics/SVG/1.1/DTD/svg11.dtd">
<!-- Generated by graphviz version 8.0.5 (20230430.1635)
 -->
<!-- Title: TesartRbd::move Pages: 1 -->
<svg width="246pt" height="204pt"
 viewBox="0.00 0.00 246.25 204.00" xmlns="http://www.w3.org/2000/svg" xmlns:xlink="http://www.w3.org/1999/xlink">

<svg id="main" version="1.1" xmlns="http://www.w3.org/2000/svg" xmlns:xlink="http://www.w3.org/1999/xlink" xml:space="preserve" onload="init(evt)">
<style type="text/css"><![CDATA[
.node, .edge {opacity: 0.7;}
.node.selected, .edge.selected {opacity: 1;}
.edge:hover path { stroke: red; }
.edge:hover polygon { stroke: red; fill: red; }
]]></style>
<script type="application/ecmascript" xlink:href="svg.min.js"/>
<svg id="graph" class="graph">
<g id="graph0" class="graph" transform="scale(1 1) rotate(0) translate(4 200)">
<title>TesartRbd::move</title>
<!-- Node1 -->
<g id="Node000001" class="node">
<title>Node1</title>
<g id="a_Node000001"><a xlink:title=" ">
<polygon fill="#999999" stroke="#666666" points="238.25,-96 149.5,-96 149.5,-76 238.25,-76 238.25,-96"/>
<text text-anchor="middle" x="193.88" y="-82.5" font-family="Helvetica,sans-Serif" font-size="10.00">TesartRbd::move</text>
</a>
</g>
</g>
<!-- Node2 -->
<g id="Node000002" class="node">
<title>Node2</title>
<g id="a_Node000002"><a xlink:href="class_tesart_rbd.html#a3d5ce486456ebdac4128023e4c307903" target="_top" xlink:title=" ">
<polygon fill="white" stroke="#666666" points="107.88,-196 5.62,-196 5.62,-164 107.88,-164 107.88,-196"/>
<text text-anchor="start" x="13.62" y="-182.5" font-family="Helvetica,sans-Serif" font-size="10.00">TesartRbd::move_to</text>
<text text-anchor="middle" x="56.75" y="-170.5" font-family="Helvetica,sans-Serif" font-size="10.00">_start_angle</text>
</a>
</g>
</g>
<!-- Node1&#45;&gt;Node2 -->
<g id="edge1_Node000001_Node000002" class="edge">
<title>Node1&#45;&gt;Node2</title>
<g id="a_edge1_Node000001_Node000002"><a xlink:title=" ">
<path fill="none" stroke="#63b8ff" d="M175.25,-104.05C159.92,-119.05 136.61,-140.23 113.5,-155 108.67,-158.08 103.4,-160.98 98.09,-163.63"/>
<polygon fill="#63b8ff" stroke="#63b8ff" points="177.27,-106.98 181.89,-97.44 172.33,-102.02 177.27,-106.98"/>
</a>
</g>
</g>
<!-- Node3 -->
<g id="Node000003" class="node">
<title>Node3</title>
<g id="a_Node000003"><a xlink:href="class_tesart_rbd.html#a55d5b271d03db8d05abea14ea52be540" target="_top" xlink:title=" ">
<polygon fill="white" stroke="#666666" points="107.88,-146 5.62,-146 5.62,-114 107.88,-114 107.88,-146"/>
<text text-anchor="start" x="13.62" y="-132.5" font-family="Helvetica,sans-Serif" font-size="10.00">TesartRbd::move_to</text>
<text text-anchor="middle" x="56.75" y="-120.5" font-family="Helvetica,sans-Serif" font-size="10.00">_stop_angle</text>
</a>
</g>
</g>
<!-- Node1&#45;&gt;Node3 -->
<g id="edge2_Node000001_Node000003" class="edge">
<title>Node1&#45;&gt;Node3</title>
<g id="a_edge2_Node000001_Node000003"><a xlink:title=" ">
<path fill="none" stroke="#63b8ff" d="M150.5,-99.8C137.11,-104.16 122.19,-109.02 108.3,-113.54"/>
<polygon fill="#63b8ff" stroke="#63b8ff" points="151.43,-102.85 159.85,-96.43 149.26,-96.2 151.43,-102.85"/>
</a>
</g>
</g>
<!-- Node4 -->
<g id="Node000004" class="node">
<title>Node4</title>
<g id="a_Node000004"><a xlink:href="class_tesart_rbd.html#aa064f5779459c676b41d3c22f8202bc8" target="_top" xlink:title=" ">
<polygon fill="white" stroke="#666666" points="113.5,-96 0,-96 0,-76 113.5,-76 113.5,-96"/>
<text text-anchor="middle" x="56.75" y="-82.5" font-family="Helvetica,sans-Serif" font-size="10.00">TesartRbd::next_angle</text>
</a>
</g>
</g>
<!-- Node1&#45;&gt;Node4 -->
<g id="edge3_Node000001_Node000004" class="edge">
<title>Node1&#45;&gt;Node4</title>
<g id="a_edge3_Node000001_Node000004"><a xlink:title=" ">
<path fill="none" stroke="#63b8ff" d="M138.21,-86C130.14,-86 121.82,-86 113.73,-86"/>
<polygon fill="#63b8ff" stroke="#63b8ff" points="138,-89.5 148,-86 138,-82.5 138,-89.5"/>
</a>
</g>
</g>
<!-- Node5 -->
<g id="Node000005" class="node">
<title>Node5</title>
<g id="a_Node000005"><a xlink:href="class_tesart_rbd.html#a33a877f951cb3096020d9cb8ab406c63" target="_top" xlink:title=" ">
<polygon fill="white" stroke="#666666" points="112.75,-58 0.75,-58 0.75,-38 112.75,-38 112.75,-58"/>
<text text-anchor="middle" x="56.75" y="-44.5" font-family="Helvetica,sans-Serif" font-size="10.00">TesartRbd::prev_angle</text>
</a>
</g>
</g>
<!-- Node1&#45;&gt;Node5 -->
<g id="edge4_Node000001_Node000005" class="edge">
<title>Node1&#45;&gt;Node5</title>
<g id="a_edge4_Node000001_Node000005"><a xlink:title=" ">
<path fill="none" stroke="#63b8ff" d="M145.06,-72.55C128.59,-67.92 110.4,-62.81 94.91,-58.45"/>
<polygon fill="#63b8ff" stroke="#63b8ff" points="144.02,-76.18 154.59,-75.52 145.91,-69.44 144.02,-76.18"/>
</a>
</g>
</g>
<!-- Node6 -->
<g id="Node000006" class="node">
<title>Node6</title>
<g id="a_Node000006"><a xlink:href="class_tesart_rbd.html#a0d830bf286416fb259ca84edd583bce3" target="_top" xlink:title=" ">
<polygon fill="white" stroke="#666666" points="110.88,-20 2.62,-20 2.62,0 110.88,0 110.88,-20"/>
<text text-anchor="middle" x="56.75" y="-6.5" font-family="Helvetica,sans-Serif" font-size="10.00">TesartRbd::set_angle</text>
</a>
</g>
</g>
<!-- Node1&#45;&gt;Node6 -->
<g id="edge5_Node000001_Node000006" class="edge">
<title>Node1&#45;&gt;Node6</title>
<g id="a_edge5_Node000001_Node000006"><a xlink:title=" ">
<path fill="none" stroke="#63b8ff" d="M172.72,-68.97C157.29,-56.58 135.06,-40.1 113.5,-29 107.23,-25.77 100.29,-22.9 93.49,-20.43"/>
<polygon fill="#63b8ff" stroke="#63b8ff" points="170.01,-72.09 179.96,-75.71 174.44,-66.67 170.01,-72.09"/>
</a>
</g>
</g>
</g>
</svg>
</svg>

<style type='text/css'>
<![CDATA[
[data-mouse-over-selected='false'] { opacity: 0.7; }
[data-mouse-over-selected='true']  { opacity: 1.0; }
]]>
</style>
<script type="application/ecmascript"><![CDATA[
document.addEventListener('DOMContentLoaded', (event) => {
  highlightEdges();
  highlightAdjacentNodes();
});
]]></script>
</svg>
