<?xml version="1.0" encoding="UTF-8" standalone="no"?>
<!DOCTYPE svg PUBLIC "-//W3C//DTD SVG 1.1//EN"
 "http://www.w3.org/Graphics/SVG/1.1/DTD/svg11.dtd">
<!-- Generated by graphviz version 8.0.5 (20230430.1635)
 -->
<!-- Title: VisaDevice::err Pages: 1 -->
<!--zoomable 608 -->

<svg id="main" version="1.1" xmlns="http://www.w3.org/2000/svg" xmlns:xlink="http://www.w3.org/1999/xlink" xml:space="preserve" onload="init(evt)">
<style type="text/css"><![CDATA[
.node, .edge {opacity: 0.7;}
.node.selected, .edge.selected {opacity: 1;}
.edge:hover path { stroke: red; }
.edge:hover polygon { stroke: red; fill: red; }
]]></style>

<defs>
  <circle id="rim" cx="0" cy="0" r="7"/>
  <circle id="rim2" cx="0" cy="0" r="3.5"/>
  <g id="zoomPlus">
    <use xlink:href="#rim" fill="#404040"><set attributeName="fill" to="#808080" begin="zoomplus.mouseover" end="zoomplus.mouseout"/></use>
    <path d="M-4,0h8M0,-4v8" fill="none" stroke="white" stroke-width="1.5" pointer-events="none"/>
  </g>
  <g id="zoomMin">
    <use xlink:href="#rim" fill="#404040"><set attributeName="fill" to="#808080" begin="zoomminus.mouseover" end="zoomminus.mouseout"/></use>
    <path d="M-4,0h8" fill="none" stroke="white" stroke-width="1.5" pointer-events="none"/>
  </g>
  <g id="arrowUp" transform="translate(30 24)">
    <use xlink:href="#rim"/>
    <path pointer-events="none" fill="none" stroke="white" stroke-width="1.5" d="M0,-3.0v7 M-2.5,-0.5L0,-3.0L2.5,-0.5"/>
  </g>
  <g id="arrowRight" transform="rotate(90) translate(36 -43)">
    <use xlink:href="#rim"/>
    <path pointer-events="none" fill="none" stroke="white" stroke-width="1.5" d="M0,-3.0v7 M-2.5,-0.5L0,-3.0L2.5,-0.5"/>
  </g>
  <g id="arrowDown" transform="rotate(180) translate(-30 -48)">
    <use xlink:href="#rim"/>
    <path pointer-events="none" fill="none" stroke="white" stroke-width="1.5" d="M0,-3.0v7 M-2.5,-0.5L0,-3.0L2.5,-0.5"/>
  </g>
  <g id="arrowLeft" transform="rotate(270) translate(-36 17)">
    <use xlink:href="#rim"/>
    <path pointer-events="none" fill="none" stroke="white" stroke-width="1.5" d="M0,-3.0v7 M-2.5,-0.5L0,-3.0L2.5,-0.5"/>
  </g>
  <g id="resetDef">
    <use xlink:href="#rim2" fill="#404040"><set attributeName="fill" to="#808080" begin="reset.mouseover" end="reset.mouseout"/></use>
  </g>
</defs>
<script type="application/ecmascript">
var viewWidth = 427;
var viewHeight = 608;
var sectionId = 'dynsection-17';
</script>
<script type="application/ecmascript" xlink:href="svg.min.js"/>
<svg id="graph" class="graph">
<g id="viewport">
<title>VisaDevice::err</title>
<!-- Node1 -->
<g id="Node000001" class="node">
<title>Node1</title>
<g id="a_Node000001"><a xlink:title="Отправляет команду &quot;SYSTEM:ERROR?&quot; на подключенное устройство и считывает сведения об ошибках,...">
<polygon fill="#999999" stroke="#666666" points="418.5,-329 337.25,-329 337.25,-309 418.5,-309 418.5,-329"/>
<text text-anchor="middle" x="377.88" y="-315.5" font-family="Helvetica,sans-Serif" font-size="10.00">VisaDevice::err</text>
</a>
</g>
</g>
<!-- Node2 -->
<g id="Node000002" class="node">
<title>Node2</title>
<g id="a_Node000002"><a xlink:href="class_visa_device.html#aa8ab94835c465376d5b775478b3b04bf" target="_top" xlink:title="Отправка данных на прибор и чтение ответа от прибора. Также, проверяется наличие ошибок на приборе.">
<polygon fill="white" stroke="#666666" points="290,-474 182.5,-474 182.5,-454 290,-454 290,-474"/>
<text text-anchor="middle" x="236.25" y="-460.5" font-family="Helvetica,sans-Serif" font-size="10.00">VisaDevice::send_err</text>
</a>
</g>
</g>
<!-- Node1&#45;&gt;Node2 -->
<g id="edge1_Node000001_Node000002" class="edge">
<title>Node1&#45;&gt;Node2</title>
<g id="a_edge1_Node000001_Node000002"><a xlink:title=" ">
<path fill="none" stroke="#63b8ff" d="M359.31,-337.25C329.66,-368.03 270.66,-429.31 247.2,-453.67"/>
<polygon fill="#63b8ff" stroke="#63b8ff" points="361.42,-340.06 365.83,-330.43 356.38,-335.2 361.42,-340.06"/>
</a>
</g>
</g>
<!-- Node4 -->
<g id="Node000004" class="node">
<title>Node4</title>
<g id="a_Node000004"><a xlink:href="class_visa_device.html#a069e154c5f48779dfd908146db9e66ed" target="_top" xlink:title="Отправка данных на прибор и чтение ответа от прибора. Также, ожидается завершение выполнения действий...">
<polygon fill="white" stroke="#666666" points="301.25,-310 171.25,-310 171.25,-290 301.25,-290 301.25,-310"/>
<text text-anchor="middle" x="236.25" y="-296.5" font-family="Helvetica,sans-Serif" font-size="10.00">VisaDevice::send_wait_err</text>
</a>
</g>
</g>
<!-- Node1&#45;&gt;Node4 -->
<g id="edge3_Node000001_Node000004" class="edge">
<title>Node1&#45;&gt;Node4</title>
<g id="a_edge3_Node000001_Node000004"><a xlink:title=" ">
<path fill="none" stroke="#63b8ff" d="M326.2,-312.1C318.18,-311.01 309.8,-309.87 301.52,-308.75"/>
<polygon fill="#63b8ff" stroke="#63b8ff" points="325.48,-315.67 335.86,-313.56 326.43,-308.74 325.48,-315.67"/>
</a>
</g>
</g>
<!-- Node3 -->
<g id="Node000003" class="node">
<title>Node3</title>
<g id="a_Node000003"><a xlink:href="class_visa_device.html#a743747ee232e8ff9723d25539852f94d" target="_top" xlink:title="Отправка данных на прибор и чтение ответа от прибора. Также, проверяется наличие ошибок на приборе.">
<polygon fill="white" stroke="#666666" points="121.38,-600 13.88,-600 13.88,-580 121.38,-580 121.38,-600"/>
<text text-anchor="middle" x="67.62" y="-586.5" font-family="Helvetica,sans-Serif" font-size="10.00">VisaDevice::send_err</text>
</a>
</g>
</g>
<!-- Node2&#45;&gt;Node3 -->
<g id="edge2_Node000002_Node000003" class="edge">
<title>Node2&#45;&gt;Node3</title>
<g id="a_edge2_Node000002_Node000003"><a xlink:title=" ">
<path fill="none" stroke="#63b8ff" d="M222.41,-483.16C205.31,-507.19 172.82,-548.05 135.25,-571 129.71,-574.39 123.54,-577.19 117.25,-579.51"/>
<polygon fill="#63b8ff" stroke="#63b8ff" points="225.75,-485.48 228.57,-475.27 220,-481.49 225.75,-485.48"/>
</a>
</g>
</g>
<!-- Node5 -->
<g id="Node000005" class="node">
<title>Node5</title>
<g id="a_Node000005"><a xlink:href="class_keysight_m9807_a.html#a85c78a42ccfda3bb9b69cb60b79358f4" target="_top" xlink:title="Настройка ВАЦ для измерения">
<polygon fill="white" stroke="#666666" points="135.25,-562 0,-562 0,-542 135.25,-542 135.25,-562"/>
<text text-anchor="middle" x="67.62" y="-548.5" font-family="Helvetica,sans-Serif" font-size="10.00">KeysightM9807A::configure</text>
</a>
</g>
</g>
<!-- Node4&#45;&gt;Node5 -->
<g id="edge4_Node000004_Node000005" class="edge">
<title>Node4&#45;&gt;Node5</title>
<g id="a_edge4_Node000004_Node000005"><a xlink:title=" ">
<path fill="none" stroke="#63b8ff" d="M226.27,-319.89C213.72,-347.76 190.35,-400.07 171.25,-445 154.72,-483.89 166.74,-504.82 135.25,-533 131.4,-536.45 126.96,-539.28 122.24,-541.59"/>
<polygon fill="#63b8ff" stroke="#63b8ff" points="229.73,-321.71 230.65,-311.15 223.35,-318.83 229.73,-321.71"/>
</a>
</g>
</g>
<!-- Node6 -->
<g id="Node000006" class="node">
<title>Node6</title>
<g id="a_Node000006"><a xlink:href="class_keysight_m9807_a.html#ad492f043e51d3e760209af6d59fe7829" target="_top" xlink:title="Создание необходимых трасс, в зависимости от того, используется ли внешний генератор">
<polygon fill="white" stroke="#666666" points="129.25,-524 6,-524 6,-492 129.25,-492 129.25,-524"/>
<text text-anchor="start" x="14" y="-510.5" font-family="Helvetica,sans-Serif" font-size="10.00">KeysightM9807A::create</text>
<text text-anchor="middle" x="67.62" y="-498.5" font-family="Helvetica,sans-Serif" font-size="10.00">_traces</text>
</a>
</g>
</g>
<!-- Node4&#45;&gt;Node6 -->
<g id="edge5_Node000004_Node000006" class="edge">
<title>Node4&#45;&gt;Node6</title>
<g id="a_edge5_Node000004_Node000006"><a xlink:title=" ">
<path fill="none" stroke="#63b8ff" d="M229.32,-320.51C217.5,-357.93 187.53,-437.62 135.25,-483 131.52,-486.24 127.33,-489.08 122.91,-491.56"/>
<polygon fill="#63b8ff" stroke="#63b8ff" points="232.86,-321.92 232.41,-311.33 226.16,-319.88 232.86,-321.92"/>
</a>
</g>
</g>
<!-- Node7 -->
<g id="Node000007" class="node">
<title>Node7</title>
<g id="a_Node000007"><a xlink:href="class_keysight_m9807_a.html#ae9df428776abd1cc65fa24e57fb713e1" target="_top" xlink:title="Запуск измерения">
<polygon fill="white" stroke="#666666" points="122.12,-474 13.12,-474 13.12,-454 122.12,-454 122.12,-474"/>
<text text-anchor="middle" x="67.62" y="-460.5" font-family="Helvetica,sans-Serif" font-size="10.00">KeysightM9807A::init</text>
</a>
</g>
</g>
<!-- Node4&#45;&gt;Node7 -->
<g id="edge6_Node000004_Node000007" class="edge">
<title>Node4&#45;&gt;Node7</title>
<g id="a_edge6_Node000004_Node000007"><a xlink:title=" ">
<path fill="none" stroke="#63b8ff" d="M226.88,-320.03C212.72,-351.46 181.03,-412.15 135.25,-445 130.46,-448.44 125.07,-451.25 119.47,-453.56"/>
<polygon fill="#63b8ff" stroke="#63b8ff" points="230.37,-321.8 231.15,-311.23 223.95,-319 230.37,-321.8"/>
</a>
</g>
</g>
<!-- Node8 -->
<g id="Node000008" class="node">
<title>Node8</title>
<g id="a_Node000008"><a xlink:href="class_keysight_m9807_a.html#ad48b95d00b8a2ecee1e95dc300d25203" target="_top" xlink:title="Инициализация канала для измерений">
<polygon fill="white" stroke="#666666" points="122.12,-436 13.12,-436 13.12,-404 122.12,-404 122.12,-436"/>
<text text-anchor="start" x="21.12" y="-422.5" font-family="Helvetica,sans-Serif" font-size="10.00">KeysightM9807A::init</text>
<text text-anchor="middle" x="67.62" y="-410.5" font-family="Helvetica,sans-Serif" font-size="10.00">_channel</text>
</a>
</g>
</g>
<!-- Node4&#45;&gt;Node8 -->
<g id="edge7_Node000004_Node000008" class="edge">
<title>Node4&#45;&gt;Node8</title>
<g id="a_edge7_Node000004_Node000008"><a xlink:title=" ">
<path fill="none" stroke="#63b8ff" d="M220.01,-318.39C201.76,-339.41 169.35,-373.65 135.25,-395 130.22,-398.15 124.74,-400.99 119.15,-403.54"/>
<polygon fill="#63b8ff" stroke="#63b8ff" points="223.11,-321.15 226.93,-311.27 217.78,-316.61 223.11,-321.15"/>
</a>
</g>
</g>
<!-- Node9 -->
<g id="Node000009" class="node">
<title>Node9</title>
<g id="a_Node000009"><a xlink:href="class_keysight_m9807_a.html#ad4dc40466fecabae451e88d763692076" target="_top" xlink:title="Отключает все порты">
<polygon fill="white" stroke="#666666" points="125.88,-386 9.38,-386 9.38,-366 125.88,-366 125.88,-386"/>
<text text-anchor="middle" x="67.62" y="-372.5" font-family="Helvetica,sans-Serif" font-size="10.00">KeysightM9807A::rf_off</text>
</a>
</g>
</g>
<!-- Node4&#45;&gt;Node9 -->
<g id="edge8_Node000004_Node000009" class="edge">
<title>Node4&#45;&gt;Node9</title>
<g id="a_edge8_Node000004_Node000009"><a xlink:title=" ">
<path fill="none" stroke="#63b8ff" d="M210.74,-316.19C191,-328.68 162.2,-345.67 135.25,-357 127.6,-360.22 119.23,-363.08 111.09,-365.55"/>
<polygon fill="#63b8ff" stroke="#63b8ff" points="212.39,-318.65 218.92,-310.3 208.61,-312.76 212.39,-318.65"/>
</a>
</g>
</g>
<!-- Node10 -->
<g id="Node000010" class="node">
<title>Node10</title>
<g id="a_Node000010"><a xlink:href="class_keysight_m9807_a.html#a861c82a08c49f54dd245db73d87181c8" target="_top" xlink:title="Отключает выбранный порт">
<polygon fill="white" stroke="#666666" points="125.88,-348 9.38,-348 9.38,-328 125.88,-328 125.88,-348"/>
<text text-anchor="middle" x="67.62" y="-334.5" font-family="Helvetica,sans-Serif" font-size="10.00">KeysightM9807A::rf_off</text>
</a>
</g>
</g>
<!-- Node4&#45;&gt;Node10 -->
<g id="edge9_Node000004_Node000010" class="edge">
<title>Node4&#45;&gt;Node10</title>
<g id="a_edge9_Node000004_Node000010"><a xlink:title=" ">
<path fill="none" stroke="#63b8ff" d="M178.6,-312.92C157.69,-317.69 134.28,-323.03 114.45,-327.55"/>
<polygon fill="#63b8ff" stroke="#63b8ff" points="179.31,-316.12 188.28,-310.48 177.75,-309.3 179.31,-316.12"/>
</a>
</g>
</g>
<!-- Node11 -->
<g id="Node000011" class="node">
<title>Node11</title>
<g id="a_Node000011"><a xlink:href="class_keysight_m9807_a.html#adf9e166699c89ec3c7f53fae5ec81b0c" target="_top" xlink:title="Включает все порты">
<polygon fill="white" stroke="#666666" points="126.25,-310 9,-310 9,-290 126.25,-290 126.25,-310"/>
<text text-anchor="middle" x="67.62" y="-296.5" font-family="Helvetica,sans-Serif" font-size="10.00">KeysightM9807A::rf_on</text>
</a>
</g>
</g>
<!-- Node4&#45;&gt;Node11 -->
<g id="edge10_Node000004_Node000011" class="edge">
<title>Node4&#45;&gt;Node11</title>
<g id="a_edge10_Node000004_Node000011"><a xlink:title=" ">
<path fill="none" stroke="#63b8ff" d="M160.13,-300C148.89,-300 137.44,-300 126.62,-300"/>
<polygon fill="#63b8ff" stroke="#63b8ff" points="159.83,-303.5 169.83,-300 159.83,-296.5 159.83,-303.5"/>
</a>
</g>
</g>
<!-- Node12 -->
<g id="Node000012" class="node">
<title>Node12</title>
<g id="a_Node000012"><a xlink:href="class_keysight_m9807_a.html#ac6105e309ba2f11a360797e19d34a592" target="_top" xlink:title="Включает выбранный порт">
<polygon fill="white" stroke="#666666" points="126.25,-272 9,-272 9,-252 126.25,-252 126.25,-272"/>
<text text-anchor="middle" x="67.62" y="-258.5" font-family="Helvetica,sans-Serif" font-size="10.00">KeysightM9807A::rf_on</text>
</a>
</g>
</g>
<!-- Node4&#45;&gt;Node12 -->
<g id="edge11_Node000004_Node000012" class="edge">
<title>Node4&#45;&gt;Node12</title>
<g id="a_edge11_Node000004_Node000012"><a xlink:title=" ">
<path fill="none" stroke="#63b8ff" d="M178.6,-287.08C157.69,-282.31 134.28,-276.97 114.45,-272.45"/>
<polygon fill="#63b8ff" stroke="#63b8ff" points="177.75,-290.7 188.28,-289.52 179.31,-283.88 177.75,-290.7"/>
</a>
</g>
</g>
<!-- Node13 -->
<g id="Node000013" class="node">
<title>Node13</title>
<g id="a_Node000013"><a xlink:href="class_visa_device.html#ab95d81d2e1ebab67621ac7aac769bc64" target="_top" xlink:title="Отправка данных на прибор и чтение ответа от прибора. Также, ожидается завершение выполнения действий...">
<polygon fill="white" stroke="#666666" points="132.62,-234 2.62,-234 2.62,-214 132.62,-214 132.62,-234"/>
<text text-anchor="middle" x="67.62" y="-220.5" font-family="Helvetica,sans-Serif" font-size="10.00">VisaDevice::send_wait_err</text>
</a>
</g>
</g>
<!-- Node4&#45;&gt;Node13 -->
<g id="edge12_Node000004_Node000013" class="edge">
<title>Node4&#45;&gt;Node13</title>
<g id="a_edge12_Node000004_Node000013"><a xlink:title=" ">
<path fill="none" stroke="#63b8ff" d="M210.74,-283.81C191,-271.32 162.2,-254.33 135.25,-243 127.6,-239.78 119.23,-236.92 111.09,-234.45"/>
<polygon fill="#63b8ff" stroke="#63b8ff" points="208.61,-287.24 218.92,-289.7 212.39,-281.35 208.61,-287.24"/>
</a>
</g>
</g>
<!-- Node14 -->
<g id="Node000014" class="node">
<title>Node14</title>
<g id="a_Node000014"><a xlink:href="class_keysight_m9807_a.html#a752f62baec908e4e421a95b3c75422fc" target="_top" xlink:title="Установка определённого значения частоты">
<polygon fill="white" stroke="#666666" points="133,-196 2.25,-196 2.25,-176 133,-176 133,-196"/>
<text text-anchor="middle" x="67.62" y="-182.5" font-family="Helvetica,sans-Serif" font-size="10.00">KeysightM9807A::set_freq</text>
</a>
</g>
</g>
<!-- Node4&#45;&gt;Node14 -->
<g id="edge13_Node000004_Node000014" class="edge">
<title>Node4&#45;&gt;Node14</title>
<g id="a_edge13_Node000004_Node000014"><a xlink:title=" ">
<path fill="none" stroke="#63b8ff" d="M220.59,-281.45C202.67,-259.99 170.37,-225.05 135.25,-205 129.3,-201.6 122.69,-198.77 116.02,-196.43"/>
<polygon fill="#63b8ff" stroke="#63b8ff" points="218.32,-283.2 227.35,-288.73 223.74,-278.77 218.32,-283.2"/>
</a>
</g>
</g>
<!-- Node15 -->
<g id="Node000015" class="node">
<title>Node15</title>
<g id="a_Node000015"><a xlink:href="class_keysight_m9807_a.html#a2b1761a2a4b4dc696a74590c2cb028de" target="_top" xlink:title="Установка частотного диапазона">
<polygon fill="white" stroke="#666666" points="122.5,-158 12.75,-158 12.75,-126 122.5,-126 122.5,-158"/>
<text text-anchor="start" x="20.75" y="-144.5" font-family="Helvetica,sans-Serif" font-size="10.00">KeysightM9807A::set</text>
<text text-anchor="middle" x="67.62" y="-132.5" font-family="Helvetica,sans-Serif" font-size="10.00">_freq_range</text>
</a>
</g>
</g>
<!-- Node4&#45;&gt;Node15 -->
<g id="edge14_Node000004_Node000015" class="edge">
<title>Node4&#45;&gt;Node15</title>
<g id="a_edge14_Node000004_Node000015"><a xlink:title=" ">
<path fill="none" stroke="#63b8ff" d="M225.26,-280.41C209.69,-251.72 177.06,-198.3 135.25,-167 130.9,-163.74 126.07,-160.87 121.07,-158.34"/>
<polygon fill="#63b8ff" stroke="#63b8ff" points="222.44,-281.57 230.2,-288.78 228.63,-278.3 222.44,-281.57"/>
</a>
</g>
</g>
<!-- Node16 -->
<g id="Node000016" class="node">
<title>Node16</title>
<g id="a_Node000016"><a xlink:href="class_keysight_m9807_a.html#a148ac915640756d3ef0c33d92c1b1205" target="_top" xlink:title="Установка положений переключателей в определённые позиции">
<polygon fill="white" stroke="#666666" points="134.5,-108 0.75,-108 0.75,-88 134.5,-88 134.5,-108"/>
<text text-anchor="middle" x="67.62" y="-94.5" font-family="Helvetica,sans-Serif" font-size="10.00">KeysightM9807A::set_path</text>
</a>
</g>
</g>
<!-- Node4&#45;&gt;Node16 -->
<g id="edge15_Node000004_Node000016" class="edge">
<title>Node4&#45;&gt;Node16</title>
<g id="a_edge15_Node000004_Node000016"><a xlink:title=" ">
<path fill="none" stroke="#63b8ff" d="M229.83,-279.62C218.69,-241.74 189.59,-160.43 135.25,-117 130.93,-113.55 126.01,-110.72 120.84,-108.41"/>
<polygon fill="#63b8ff" stroke="#63b8ff" points="226.64,-280.21 232.72,-288.89 233.38,-278.31 226.64,-280.21"/>
</a>
</g>
</g>
<!-- Node17 -->
<g id="Node000017" class="node">
<title>Node17</title>
<g id="a_Node000017"><a xlink:href="class_keysight_m9807_a.html#ab3a0a48c7e439fab722d902479ff78eb" target="_top" xlink:title="Установка требуемой мощности зондирующего порта">
<polygon fill="white" stroke="#666666" points="122.5,-70 12.75,-70 12.75,-38 122.5,-38 122.5,-70"/>
<text text-anchor="start" x="20.75" y="-56.5" font-family="Helvetica,sans-Serif" font-size="10.00">KeysightM9807A::set</text>
<text text-anchor="middle" x="67.62" y="-44.5" font-family="Helvetica,sans-Serif" font-size="10.00">_power</text>
</a>
</g>
</g>
<!-- Node4&#45;&gt;Node17 -->
<g id="edge16_Node000004_Node000017" class="edge">
<title>Node4&#45;&gt;Node17</title>
<g id="a_edge16_Node000004_Node000017"><a xlink:title=" ">
<path fill="none" stroke="#63b8ff" d="M231.35,-278.91C222.26,-235.52 195.67,-135.56 135.25,-79 131.55,-75.54 127.33,-72.54 122.85,-69.96"/>
<polygon fill="#63b8ff" stroke="#63b8ff" points="228.08,-279.44 233.46,-288.57 234.95,-278.08 228.08,-279.44"/>
</a>
</g>
</g>
<!-- Node18 -->
<g id="Node000018" class="node">
<title>Node18</title>
<g id="a_Node000018"><a xlink:href="class_keysight_m9807_a.html#a83a1f840e34e3ecb56c319649725efb8" target="_top" xlink:title="Перевод триггера в режим single.">
<polygon fill="white" stroke="#666666" points="129.25,-20 6,-20 6,0 129.25,0 129.25,-20"/>
<text text-anchor="middle" x="67.62" y="-6.5" font-family="Helvetica,sans-Serif" font-size="10.00">KeysightM9807A::trigger</text>
</a>
</g>
</g>
<!-- Node4&#45;&gt;Node18 -->
<g id="edge17_Node000004_Node000018" class="edge">
<title>Node4&#45;&gt;Node18</title>
<g id="a_edge17_Node000004_Node000018"><a xlink:title=" ">
<path fill="none" stroke="#63b8ff" d="M233.75,-278.7C229,-227.78 209.83,-98.14 135.25,-29 131.55,-25.57 127.26,-22.75 122.69,-20.43"/>
<polygon fill="#63b8ff" stroke="#63b8ff" points="230.34,-278.93 234.65,-288.61 237.32,-278.35 230.34,-278.93"/>
</a>
</g>
</g>
</g>
</svg>

<g id="navigator" transform="translate(0 0)" fill="#404254">
  <rect fill="#f2f5e9" fill-opacity="0.5" stroke="#606060" stroke-width=".5" x="0" y="0" width="60" height="60"/>
  <use id="zoomplus" xlink:href="#zoomPlus" x="17" y="9" onmousedown="handleZoom(evt,'in')"/>
  <use id="zoomminus" xlink:href="#zoomMin" x="42" y="9" onmousedown="handleZoom(evt,'out')"/>
  <use id="reset" xlink:href="#resetDef" x="30" y="36" onmousedown="handleReset()"/>
   <use id="arrowup" xlink:href="#arrowUp" x="0" y="0" onmousedown="handlePan(0,-1)"/>
  <use id="arrowright" xlink:href="#arrowRight" x="0" y="0" onmousedown="handlePan(1,0)"/>
  <use id="arrowdown" xlink:href="#arrowDown" x="0" y="0" onmousedown="handlePan(0,1)"/>
  <use id="arrowleft" xlink:href="#arrowLeft" x="0" y="0" onmousedown="handlePan(-1,0)"/>
</g>
<svg viewBox="0 0 15 15" width="100%" height="30px" preserveAspectRatio="xMaxYMin meet">
 <g id="arrow_out" transform="scale(0.3 0.3)">
  <a xlink:href="class_visa_device_aba4642c194cffe2135a133e23960ab63_icgraph_org.svg" target="_base">
   <rect id="button" ry="5" rx="5" y="6" x="6" height="38" width="38"
        fill="#f2f5e9" fill-opacity="0.5" stroke="#606060" stroke-width="1.0"/>
   <path id="arrow"
     d="M 11.500037,31.436501 C 11.940474,20.09759 22.043105,11.32322 32.158766,21.979434 L 37.068811,17.246167 C 37.068811,17.246167 37.088388,32 37.088388,32 L 22.160133,31.978069 C 22.160133,31.978069 26.997745,27.140456 26.997745,27.140456 C 18.528582,18.264221 13.291696,25.230495 11.500037,31.436501 z"
     style="fill:#404040;"/>
  </a>
 </g>
</svg>

<style type='text/css'>
<![CDATA[
[data-mouse-over-selected='false'] { opacity: 0.7; }
[data-mouse-over-selected='true']  { opacity: 1.0; }
]]>
</style>
<script type="application/ecmascript"><![CDATA[
document.addEventListener('DOMContentLoaded', (event) => {
  highlightEdges();
  highlightAdjacentNodes();
});
]]></script>
</svg>
