<?xml version="1.0" encoding="UTF-8" standalone="no"?>
<!DOCTYPE svg PUBLIC "-//W3C//DTD SVG 1.1//EN"
 "http://www.w3.org/Graphics/SVG/1.1/DTD/svg11.dtd">
<!-- Generated by graphviz version 8.0.5 (20230430.1635)
 -->
<!-- Title: TesartRbd::next_angle Pages: 1 -->
<!--zoomable 142 -->

<svg id="main" version="1.1" xmlns="http://www.w3.org/2000/svg" xmlns:xlink="http://www.w3.org/1999/xlink" xml:space="preserve" onload="init(evt)">
<style type="text/css"><![CDATA[
.node, .edge {opacity: 0.7;}
.node.selected, .edge.selected {opacity: 1;}
.edge:hover path { stroke: red; }
.edge:hover polygon { stroke: red; fill: red; }
]]></style>

<defs>
  <circle id="rim" cx="0" cy="0" r="7"/>
  <circle id="rim2" cx="0" cy="0" r="3.5"/>
  <g id="zoomPlus">
    <use xlink:href="#rim" fill="#404040"><set attributeName="fill" to="#808080" begin="zoomplus.mouseover" end="zoomplus.mouseout"/></use>
    <path d="M-4,0h8M0,-4v8" fill="none" stroke="white" stroke-width="1.5" pointer-events="none"/>
  </g>
  <g id="zoomMin">
    <use xlink:href="#rim" fill="#404040"><set attributeName="fill" to="#808080" begin="zoomminus.mouseover" end="zoomminus.mouseout"/></use>
    <path d="M-4,0h8" fill="none" stroke="white" stroke-width="1.5" pointer-events="none"/>
  </g>
  <g id="arrowUp" transform="translate(30 24)">
    <use xlink:href="#rim"/>
    <path pointer-events="none" fill="none" stroke="white" stroke-width="1.5" d="M0,-3.0v7 M-2.5,-0.5L0,-3.0L2.5,-0.5"/>
  </g>
  <g id="arrowRight" transform="rotate(90) translate(36 -43)">
    <use xlink:href="#rim"/>
    <path pointer-events="none" fill="none" stroke="white" stroke-width="1.5" d="M0,-3.0v7 M-2.5,-0.5L0,-3.0L2.5,-0.5"/>
  </g>
  <g id="arrowDown" transform="rotate(180) translate(-30 -48)">
    <use xlink:href="#rim"/>
    <path pointer-events="none" fill="none" stroke="white" stroke-width="1.5" d="M0,-3.0v7 M-2.5,-0.5L0,-3.0L2.5,-0.5"/>
  </g>
  <g id="arrowLeft" transform="rotate(270) translate(-36 17)">
    <use xlink:href="#rim"/>
    <path pointer-events="none" fill="none" stroke="white" stroke-width="1.5" d="M0,-3.0v7 M-2.5,-0.5L0,-3.0L2.5,-0.5"/>
  </g>
  <g id="resetDef">
    <use xlink:href="#rim2" fill="#404040"><set attributeName="fill" to="#808080" begin="reset.mouseover" end="reset.mouseout"/></use>
  </g>
</defs>
<script type="application/ecmascript">
var viewWidth = 505;
var viewHeight = 142;
var sectionId = 'dynsection-11';
</script>
<script type="application/ecmascript" xlink:href="svg.min.js"/>
<svg id="graph" class="graph">
<g id="viewport">
<title>TesartRbd::next_angle</title>
<!-- Node1 -->
<g id="Node000001" class="node">
<title>Node1</title>
<g id="a_Node000001"><a xlink:title="Переход к следующей угловой точке">
<polygon fill="#999999" stroke="#666666" points="113.5,-77 0,-77 0,-57 113.5,-57 113.5,-77"/>
<text text-anchor="middle" x="56.75" y="-63.5" font-family="Helvetica,sans-Serif" font-size="10.00">TesartRbd::next_angle</text>
</a>
</g>
</g>
<!-- Node2 -->
<g id="Node000002" class="node">
<title>Node2</title>
<g id="a_Node000002"><a xlink:href="class_tesart_rbd.html#a1317670f51c7e529ca5960e69b7563a7" target="_top" xlink:title="Поворачивает ось до тех пор, пока она не достигнет требуемого угла">
<polygon fill="white" stroke="#666666" points="238.25,-77 149.5,-77 149.5,-57 238.25,-57 238.25,-77"/>
<text text-anchor="middle" x="193.88" y="-63.5" font-family="Helvetica,sans-Serif" font-size="10.00">TesartRbd::move</text>
</a>
</g>
</g>
<!-- Node1&#45;&gt;Node2 -->
<g id="edge1_Node000001_Node000002" class="edge">
<title>Node1&#45;&gt;Node2</title>
<g id="a_edge1_Node000001_Node000002"><a xlink:title=" ">
<path fill="none" stroke="#63b8ff" d="M113.88,-67C121.96,-67 130.26,-67 138.3,-67"/>
<polygon fill="#63b8ff" stroke="#63b8ff" points="138.07,-70.5 148.07,-67 138.07,-63.5 138.07,-70.5"/>
</a>
</g>
</g>
<!-- Node3 -->
<g id="Node000003" class="node">
<title>Node3</title>
<g id="a_Node000003"><a xlink:href="class_logger.html#af7709105c2708359b7b082218f4cc3e1" target="_top" xlink:title="Метод, осуществляющий логирование">
<polygon fill="white" stroke="#666666" points="338.25,-77 274.25,-77 274.25,-57 338.25,-57 338.25,-77"/>
<text text-anchor="middle" x="306.25" y="-63.5" font-family="Helvetica,sans-Serif" font-size="10.00">Logger::log</text>
</a>
</g>
</g>
<!-- Node2&#45;&gt;Node3 -->
<g id="edge2_Node000002_Node000003" class="edge">
<title>Node2&#45;&gt;Node3</title>
<g id="a_edge2_Node000002_Node000003"><a xlink:title=" ">
<path fill="none" stroke="#63b8ff" d="M238.5,-67C246.53,-67 254.89,-67 262.88,-67"/>
<polygon fill="#63b8ff" stroke="#63b8ff" points="262.85,-70.5 272.85,-67 262.85,-63.5 262.85,-70.5"/>
</a>
</g>
</g>
<!-- Node4 -->
<g id="Node000004" class="node">
<title>Node4</title>
<g id="a_Node000004"><a xlink:href="logger_8hpp.html#a49284b7befa8e31f81e01ee8f3735dd0" target="_top" xlink:title="Функция, которая снимает значение текущего времени и конвертирует его в строку с заданным шаблоном.">
<polygon fill="white" stroke="#666666" points="479.88,-134 391.12,-134 391.12,-114 479.88,-114 479.88,-134"/>
<text text-anchor="middle" x="435.5" y="-120.5" font-family="Helvetica,sans-Serif" font-size="10.00">get_current_time</text>
</a>
</g>
</g>
<!-- Node3&#45;&gt;Node4 -->
<g id="edge3_Node000003_Node000004" class="edge">
<title>Node3&#45;&gt;Node4</title>
<g id="a_edge3_Node000003_Node000004"><a xlink:title=" ">
<path fill="none" stroke="#63b8ff" d="M323.27,-77.36C336.55,-85.63 356.1,-97.1 374.25,-105 378.32,-106.77 382.61,-108.46 386.95,-110.05"/>
<polygon fill="#63b8ff" stroke="#63b8ff" points="385.49,-113.59 396.09,-113.55 387.78,-106.97 385.49,-113.59"/>
</a>
</g>
</g>
<!-- Node5 -->
<g id="Node000005" class="node">
<title>Node5</title>
<g id="a_Node000005"><a xlink:href="class_logger.html#a6edb7b263f080d417b82a537ed50fee4" target="_top" xlink:title="Возвращает тег в зависимости от уровня логирования и от назначения тега.">
<polygon fill="white" stroke="#666666" points="477.25,-96 393.75,-96 393.75,-76 477.25,-76 477.25,-96"/>
<text text-anchor="middle" x="435.5" y="-82.5" font-family="Helvetica,sans-Serif" font-size="10.00">Logger::get_tag</text>
</a>
</g>
</g>
<!-- Node3&#45;&gt;Node5 -->
<g id="edge4_Node000003_Node000005" class="edge">
<title>Node3&#45;&gt;Node5</title>
<g id="a_edge4_Node000003_Node000005"><a xlink:title=" ">
<path fill="none" stroke="#63b8ff" d="M338.71,-71.7C351.97,-73.68 367.77,-76.04 382.67,-78.26"/>
<polygon fill="#63b8ff" stroke="#63b8ff" points="381.91,-81.84 392.32,-79.85 382.94,-74.91 381.91,-81.84"/>
</a>
</g>
</g>
<!-- Node6 -->
<g id="Node000006" class="node">
<title>Node6</title>
<g id="a_Node000006"><a xlink:href="class_logger.html#a4825613142ebb093bf8fa26f21f7f3fc" target="_top" xlink:title="Метод, который выводит сообщение в консоль.">
<polygon fill="white" stroke="#666666" points="496.75,-58 374.25,-58 374.25,-38 496.75,-38 496.75,-58"/>
<text text-anchor="middle" x="435.5" y="-44.5" font-family="Helvetica,sans-Serif" font-size="10.00">Logger::print_to_console</text>
</a>
</g>
</g>
<!-- Node3&#45;&gt;Node6 -->
<g id="edge5_Node000003_Node000006" class="edge">
<title>Node3&#45;&gt;Node6</title>
<g id="a_edge5_Node000003_Node000006"><a xlink:title=" ">
<path fill="none" stroke="#63b8ff" d="M338.71,-62.3C346.21,-61.18 354.52,-59.94 363.03,-58.67"/>
<polygon fill="#63b8ff" stroke="#63b8ff" points="363.48,-61.99 372.85,-57.06 362.44,-55.07 363.48,-61.99"/>
</a>
</g>
</g>
<!-- Node7 -->
<g id="Node000007" class="node">
<title>Node7</title>
<g id="a_Node000007"><a xlink:href="class_logger.html#a999bb33f7cf079cb98f32fae6016a2f3" target="_top" xlink:title="Метод, который записывает сообщение в файл.">
<polygon fill="white" stroke="#666666" points="485.88,-20 385.12,-20 385.12,0 485.88,0 485.88,-20"/>
<text text-anchor="middle" x="435.5" y="-6.5" font-family="Helvetica,sans-Serif" font-size="10.00">Logger::print_to_file</text>
</a>
</g>
</g>
<!-- Node3&#45;&gt;Node7 -->
<g id="edge6_Node000003_Node000007" class="edge">
<title>Node3&#45;&gt;Node7</title>
<g id="a_edge6_Node000003_Node000007"><a xlink:title=" ">
<path fill="none" stroke="#63b8ff" d="M323.27,-56.64C336.55,-48.37 356.1,-36.9 374.25,-29 378.32,-27.23 382.61,-25.54 386.95,-23.95"/>
<polygon fill="#63b8ff" stroke="#63b8ff" points="387.78,-27.03 396.09,-20.45 385.49,-20.41 387.78,-27.03"/>
</a>
</g>
</g>
</g>
</svg>

<g id="navigator" transform="translate(0 0)" fill="#404254">
  <rect fill="#f2f5e9" fill-opacity="0.5" stroke="#606060" stroke-width=".5" x="0" y="0" width="60" height="60"/>
  <use id="zoomplus" xlink:href="#zoomPlus" x="17" y="9" onmousedown="handleZoom(evt,'in')"/>
  <use id="zoomminus" xlink:href="#zoomMin" x="42" y="9" onmousedown="handleZoom(evt,'out')"/>
  <use id="reset" xlink:href="#resetDef" x="30" y="36" onmousedown="handleReset()"/>
   <use id="arrowup" xlink:href="#arrowUp" x="0" y="0" onmousedown="handlePan(0,-1)"/>
  <use id="arrowright" xlink:href="#arrowRight" x="0" y="0" onmousedown="handlePan(1,0)"/>
  <use id="arrowdown" xlink:href="#arrowDown" x="0" y="0" onmousedown="handlePan(0,1)"/>
  <use id="arrowleft" xlink:href="#arrowLeft" x="0" y="0" onmousedown="handlePan(-1,0)"/>
</g>
<svg viewBox="0 0 15 15" width="100%" height="30px" preserveAspectRatio="xMaxYMin meet">
 <g id="arrow_out" transform="scale(0.3 0.3)">
  <a xlink:href="class_tesart_rbd_aa064f5779459c676b41d3c22f8202bc8_cgraph_org.svg" target="_base">
   <rect id="button" ry="5" rx="5" y="6" x="6" height="38" width="38"
        fill="#f2f5e9" fill-opacity="0.5" stroke="#606060" stroke-width="1.0"/>
   <path id="arrow"
     d="M 11.500037,31.436501 C 11.940474,20.09759 22.043105,11.32322 32.158766,21.979434 L 37.068811,17.246167 C 37.068811,17.246167 37.088388,32 37.088388,32 L 22.160133,31.978069 C 22.160133,31.978069 26.997745,27.140456 26.997745,27.140456 C 18.528582,18.264221 13.291696,25.230495 11.500037,31.436501 z"
     style="fill:#404040;"/>
  </a>
 </g>
</svg>

<style type='text/css'>
<![CDATA[
[data-mouse-over-selected='false'] { opacity: 0.7; }
[data-mouse-over-selected='true']  { opacity: 1.0; }
]]>
</style>
<script type="application/ecmascript"><![CDATA[
document.addEventListener('DOMContentLoaded', (event) => {
  highlightEdges();
  highlightAdjacentNodes();
});
]]></script>
</svg>
