<?xml version="1.0" encoding="UTF-8" standalone="no"?>
<!DOCTYPE svg PUBLIC "-//W3C//DTD SVG 1.1//EN"
 "http://www.w3.org/Graphics/SVG/1.1/DTD/svg11.dtd">
<!-- Generated by graphviz version 8.0.5 (20230430.1635)
 -->
<!-- Title: DeviceSet::get_freq_list Pages: 1 -->
<svg width="289pt" height="104pt"
 viewBox="0.00 0.00 289.00 104.00" xmlns="http://www.w3.org/2000/svg" xmlns:xlink="http://www.w3.org/1999/xlink">
<g id="graph0" class="graph" transform="scale(1 1) rotate(0) translate(4 100)">
<title>DeviceSet::get_freq_list</title>
<!-- Node1 -->
<g id="Node000001" class="node">
<title>Node1</title>
<g id="a_Node000001"><a xlink:title="Получает вектор частотных точек">
<polygon fill="#999999" stroke="#666666" points="118,-58 0,-58 0,-38 118,-38 118,-58"/>
<text text-anchor="middle" x="59" y="-44.5" font-family="Helvetica,sans-Serif" font-size="10.00">DeviceSet::get_freq_list</text>
</a>
</g>
</g>
<!-- Node2 -->
<g id="Node000002" class="node">
<title>Node2</title>
<g id="a_Node000002"><a xlink:href="class_vna_device.html#a596313270ef036ba566dd7975008b1d5" target="_top" xlink:title=" ">
<polygon fill="white" stroke="#666666" points="280.62,-96 154.38,-96 154.38,-76 280.62,-76 280.62,-96"/>
<text text-anchor="middle" x="217.5" y="-82.5" font-family="Helvetica,sans-Serif" font-size="10.00">VnaDevice::get_freq_step</text>
</a>
</g>
</g>
<!-- Node1&#45;&gt;Node2 -->
<g id="edge1_Node000001_Node000002" class="edge">
<title>Node1&#45;&gt;Node2</title>
<g id="a_edge1_Node000001_Node000002"><a xlink:title=" ">
<path fill="none" stroke="#63b8ff" d="M103.18,-58.48C121.65,-62.97 143.41,-68.25 162.9,-72.99"/>
<polygon fill="#63b8ff" stroke="#63b8ff" points="161.92,-76.59 172.46,-75.55 163.57,-69.79 161.92,-76.59"/>
</a>
</g>
</g>
<!-- Node3 -->
<g id="Node000003" class="node">
<title>Node3</title>
<g id="a_Node000003"><a xlink:href="class_vna_device.html#afdeaa8974791094f16a034695d9f7035" target="_top" xlink:title=" ">
<polygon fill="white" stroke="#666666" points="273.88,-58 161.12,-58 161.12,-38 273.88,-38 273.88,-58"/>
<text text-anchor="middle" x="217.5" y="-44.5" font-family="Helvetica,sans-Serif" font-size="10.00">VnaDevice::get_points</text>
</a>
</g>
</g>
<!-- Node1&#45;&gt;Node3 -->
<g id="edge2_Node000001_Node000003" class="edge">
<title>Node1&#45;&gt;Node3</title>
<g id="a_edge2_Node000001_Node000003"><a xlink:title=" ">
<path fill="none" stroke="#63b8ff" d="M118.27,-48C128.59,-48 139.41,-48 149.94,-48"/>
<polygon fill="#63b8ff" stroke="#63b8ff" points="149.77,-51.5 159.77,-48 149.77,-44.5 149.77,-51.5"/>
</a>
</g>
</g>
<!-- Node4 -->
<g id="Node000004" class="node">
<title>Node4</title>
<g id="a_Node000004"><a xlink:href="class_vna_device.html#a8fe6434c79a0188c98fce52d152aef76" target="_top" xlink:title=" ">
<polygon fill="white" stroke="#666666" points="281,-20 154,-20 154,0 281,0 281,-20"/>
<text text-anchor="middle" x="217.5" y="-6.5" font-family="Helvetica,sans-Serif" font-size="10.00">VnaDevice::get_start_freq</text>
</a>
</g>
</g>
<!-- Node1&#45;&gt;Node4 -->
<g id="edge3_Node000001_Node000004" class="edge">
<title>Node1&#45;&gt;Node4</title>
<g id="a_edge3_Node000001_Node000004"><a xlink:title=" ">
<path fill="none" stroke="#63b8ff" d="M103.18,-37.52C121.65,-33.03 143.41,-27.75 162.9,-23.01"/>
<polygon fill="#63b8ff" stroke="#63b8ff" points="163.57,-26.21 172.46,-20.45 161.92,-19.41 163.57,-26.21"/>
</a>
</g>
</g>
</g>
</svg>
