<?xml version="1.0" encoding="UTF-8" standalone="no"?>
<!DOCTYPE svg PUBLIC "-//W3C//DTD SVG 1.1//EN"
 "http://www.w3.org/Graphics/SVG/1.1/DTD/svg11.dtd">
<!-- Generated by graphviz version 8.0.5 (20230430.1635)
 -->
<!-- Title: DemoRbd::move Pages: 1 -->
<svg width="257pt" height="166pt"
 viewBox="0.00 0.00 256.75 166.00" xmlns="http://www.w3.org/2000/svg" xmlns:xlink="http://www.w3.org/1999/xlink">

<svg id="main" version="1.1" xmlns="http://www.w3.org/2000/svg" xmlns:xlink="http://www.w3.org/1999/xlink" xml:space="preserve" onload="init(evt)">
<style type="text/css"><![CDATA[
.node, .edge {opacity: 0.7;}
.node.selected, .edge.selected {opacity: 1;}
.edge:hover path { stroke: red; }
.edge:hover polygon { stroke: red; fill: red; }
]]></style>
<script type="application/ecmascript" xlink:href="svg.min.js"/>
<svg id="graph" class="graph">
<g id="graph0" class="graph" transform="scale(1 1) rotate(0) translate(4 162)">
<title>DemoRbd::move</title>
<!-- Node1 -->
<g id="Node000001" class="node">
<title>Node1</title>
<g id="a_Node000001"><a xlink:title="Поворачивает ось до тех пор, пока она не достигнет требуемого угла">
<polygon fill="#999999" stroke="#666666" points="248.75,-80 161.5,-80 161.5,-60 248.75,-60 248.75,-80"/>
<text text-anchor="middle" x="205.12" y="-66.5" font-family="Helvetica,sans-Serif" font-size="10.00">DemoRbd::move</text>
</a>
</g>
</g>
<!-- Node2 -->
<g id="Node000002" class="node">
<title>Node2</title>
<g id="a_Node000002"><a xlink:href="class_demo_rbd.html#a2c2176de45b1497b493d584efd9e54b6" target="_top" xlink:title="Устанавливает угловую точку, соответствующую началу диапазона.">
<polygon fill="white" stroke="#666666" points="125.5,-158 0,-158 0,-126 125.5,-126 125.5,-158"/>
<text text-anchor="start" x="8" y="-144.5" font-family="Helvetica,sans-Serif" font-size="10.00">DemoRbd::move_to_start</text>
<text text-anchor="middle" x="62.75" y="-132.5" font-family="Helvetica,sans-Serif" font-size="10.00">_angle</text>
</a>
</g>
</g>
<!-- Node1&#45;&gt;Node2 -->
<g id="edge1_Node000001_Node000002" class="edge">
<title>Node1&#45;&gt;Node2</title>
<g id="a_edge1_Node000001_Node000002"><a xlink:title=" ">
<path fill="none" stroke="#63b8ff" d="M179.05,-86.34C163.88,-95.89 143.95,-107.82 125.5,-117 119.49,-119.99 113.04,-122.91 106.65,-125.63"/>
<polygon fill="#63b8ff" stroke="#63b8ff" points="180.72,-88.79 187.27,-80.47 176.96,-82.89 180.72,-88.79"/>
</a>
</g>
</g>
<!-- Node3 -->
<g id="Node000003" class="node">
<title>Node3</title>
<g id="a_Node000003"><a xlink:href="class_demo_rbd.html#aa9309c7ac6c5c1fc062759688bc74dbf" target="_top" xlink:title="Устанавливает угловую точку, соответствующую концу диапазона.">
<polygon fill="white" stroke="#666666" points="125.12,-108 0.38,-108 0.38,-76 125.12,-76 125.12,-108"/>
<text text-anchor="start" x="8.38" y="-94.5" font-family="Helvetica,sans-Serif" font-size="10.00">DemoRbd::move_to_stop</text>
<text text-anchor="middle" x="62.75" y="-82.5" font-family="Helvetica,sans-Serif" font-size="10.00">_angle</text>
</a>
</g>
</g>
<!-- Node1&#45;&gt;Node3 -->
<g id="edge2_Node000001_Node000003" class="edge">
<title>Node1&#45;&gt;Node3</title>
<g id="a_edge2_Node000001_Node000003"><a xlink:title=" ">
<path fill="none" stroke="#63b8ff" d="M150.38,-78.42C142.24,-79.7 133.78,-81.02 125.49,-82.32"/>
<polygon fill="#63b8ff" stroke="#63b8ff" points="150.91,-81.73 160.25,-76.72 149.82,-74.81 150.91,-81.73"/>
</a>
</g>
</g>
<!-- Node4 -->
<g id="Node000004" class="node">
<title>Node4</title>
<g id="a_Node000004"><a xlink:href="class_demo_rbd.html#a8d23ad841ef52cad5f615c2763711c77" target="_top" xlink:title="Переход к следующей угловой точке">
<polygon fill="white" stroke="#666666" points="118.75,-58 6.75,-58 6.75,-38 118.75,-38 118.75,-58"/>
<text text-anchor="middle" x="62.75" y="-44.5" font-family="Helvetica,sans-Serif" font-size="10.00">DemoRbd::next_angle</text>
</a>
</g>
</g>
<!-- Node1&#45;&gt;Node4 -->
<g id="edge3_Node000001_Node000004" class="edge">
<title>Node1&#45;&gt;Node4</title>
<g id="a_edge3_Node000001_Node000004"><a xlink:title=" ">
<path fill="none" stroke="#63b8ff" d="M150.69,-61.63C140.34,-60 129.47,-58.3 119.06,-56.67"/>
<polygon fill="#63b8ff" stroke="#63b8ff" points="149.82,-65.19 160.25,-63.28 150.91,-58.27 149.82,-65.19"/>
</a>
</g>
</g>
<!-- Node5 -->
<g id="Node000005" class="node">
<title>Node5</title>
<g id="a_Node000005"><a xlink:href="class_demo_rbd.html#a53c1fb6562ee74614651db5e59966640" target="_top" xlink:title="Поворачивает ось ОПУ на требуемый угол">
<polygon fill="white" stroke="#666666" points="116.12,-20 9.38,-20 9.38,0 116.12,0 116.12,-20"/>
<text text-anchor="middle" x="62.75" y="-6.5" font-family="Helvetica,sans-Serif" font-size="10.00">DemoRbd::set_angle</text>
</a>
</g>
</g>
<!-- Node1&#45;&gt;Node5 -->
<g id="edge4_Node000001_Node000005" class="edge">
<title>Node1&#45;&gt;Node5</title>
<g id="a_edge4_Node000001_Node000005"><a xlink:title=" ">
<path fill="none" stroke="#63b8ff" d="M176.87,-54.22C162,-46.02 143.09,-36.22 125.5,-29 117.93,-25.89 109.65,-23.01 101.69,-20.48"/>
<polygon fill="#63b8ff" stroke="#63b8ff" points="175.02,-57.76 185.46,-59.6 178.45,-51.65 175.02,-57.76"/>
</a>
</g>
</g>
</g>
</svg>
</svg>

<style type='text/css'>
<![CDATA[
[data-mouse-over-selected='false'] { opacity: 0.7; }
[data-mouse-over-selected='true']  { opacity: 1.0; }
]]>
</style>
<script type="application/ecmascript"><![CDATA[
document.addEventListener('DOMContentLoaded', (event) => {
  highlightEdges();
  highlightAdjacentNodes();
});
]]></script>
</svg>
