<?xml version="1.0" encoding="UTF-8" standalone="no"?>
<!DOCTYPE svg PUBLIC "-//W3C//DTD SVG 1.1//EN"
 "http://www.w3.org/Graphics/SVG/1.1/DTD/svg11.dtd">
<!-- Generated by graphviz version 8.0.5 (20230430.1635)
 -->
<!-- Title: KeysightGen::rf_on Pages: 1 -->
<svg width="749pt" height="142pt"
 viewBox="0.00 0.00 749.00 142.00" xmlns="http://www.w3.org/2000/svg" xmlns:xlink="http://www.w3.org/1999/xlink">
<g id="graph0" class="graph" transform="scale(1 1) rotate(0) translate(4 138)">
<title>KeysightGen::rf_on</title>
<!-- Node1 -->
<g id="Node000001" class="node">
<title>Node1</title>
<g id="a_Node000001"><a xlink:title=" ">
<polygon fill="#999999" stroke="#666666" points="99.25,-58 0,-58 0,-38 99.25,-38 99.25,-58"/>
<text text-anchor="middle" x="49.62" y="-44.5" font-family="Helvetica,sans-Serif" font-size="10.00">KeysightGen::rf_on</text>
</a>
</g>
</g>
<!-- Node2 -->
<g id="Node000002" class="node">
<title>Node2</title>
<g id="a_Node000002"><a xlink:href="class_visa_device.html#ad659ba652605f5c983958400fde8c808" target="_top" xlink:title="Отправка данных на прибор и чтение ответа от прибора.">
<polygon fill="white" stroke="#666666" points="226.25,-58 135.25,-58 135.25,-38 226.25,-38 226.25,-58"/>
<text text-anchor="middle" x="180.75" y="-44.5" font-family="Helvetica,sans-Serif" font-size="10.00">VisaDevice::send</text>
</a>
</g>
</g>
<!-- Node1&#45;&gt;Node2 -->
<g id="edge1_Node000001_Node000002" class="edge">
<title>Node1&#45;&gt;Node2</title>
<g id="a_edge1_Node000001_Node000002"><a xlink:title=" ">
<path fill="none" stroke="#63b8ff" d="M99.44,-48C107.59,-48 116.09,-48 124.38,-48"/>
<polygon fill="#63b8ff" stroke="#63b8ff" points="124.11,-51.5 134.11,-48 124.11,-44.5 124.11,-51.5"/>
</a>
</g>
</g>
<!-- Node3 -->
<g id="Node000003" class="node">
<title>Node3</title>
<g id="a_Node000003"><a xlink:href="class_logger.html#af7709105c2708359b7b082218f4cc3e1" target="_top" xlink:title="Метод, осуществляющий логирование">
<polygon fill="white" stroke="#666666" points="582.5,-77 518.5,-77 518.5,-57 582.5,-57 582.5,-77"/>
<text text-anchor="middle" x="550.5" y="-63.5" font-family="Helvetica,sans-Serif" font-size="10.00">Logger::log</text>
</a>
</g>
</g>
<!-- Node2&#45;&gt;Node3 -->
<g id="edge2_Node000002_Node000003" class="edge">
<title>Node2&#45;&gt;Node3</title>
<g id="a_edge2_Node000002_Node000003"><a xlink:title=" ">
<path fill="none" stroke="#63b8ff" d="M213.58,-58.39C228.26,-62.85 246,-67.76 262.25,-71 358.48,-90.16 385.32,-99.51 482.5,-86 491.27,-84.78 500.5,-82.7 509.22,-80.36"/>
<polygon fill="#63b8ff" stroke="#63b8ff" points="509.88,-83.53 518.53,-77.41 507.95,-76.8 509.88,-83.53"/>
</a>
</g>
</g>
<!-- Node8 -->
<g id="Node000008" class="node">
<title>Node8</title>
<g id="a_Node000008"><a xlink:href="class_visa_device.html#aa807192fd9a8c3e6efc458f78de5e73e" target="_top" xlink:title="Метод, совмещающий в себе методы write() и read().">
<polygon fill="white" stroke="#666666" points="356.25,-39 262.25,-39 262.25,-19 356.25,-19 356.25,-39"/>
<text text-anchor="middle" x="309.25" y="-25.5" font-family="Helvetica,sans-Serif" font-size="10.00">VisaDevice::query</text>
</a>
</g>
</g>
<!-- Node2&#45;&gt;Node8 -->
<g id="edge7_Node000002_Node000008" class="edge">
<title>Node2&#45;&gt;Node8</title>
<g id="a_edge7_Node000002_Node000008"><a xlink:title=" ">
<path fill="none" stroke="#63b8ff" d="M226.71,-41.25C234.7,-40.05 243.13,-38.78 251.41,-37.54"/>
<polygon fill="#63b8ff" stroke="#63b8ff" points="251.79,-40.87 261.16,-35.92 250.75,-33.95 251.79,-40.87"/>
</a>
</g>
</g>
<!-- Node9 -->
<g id="Node000009" class="node">
<title>Node9</title>
<g id="a_Node000009"><a xlink:href="class_visa_device.html#aca08d9dbb0469f1143668a485e4adfe2" target="_top" xlink:title="Метод, позволяющий считать данные с устройства">
<polygon fill="white" stroke="#666666" points="481.75,-77 393,-77 393,-57 481.75,-57 481.75,-77"/>
<text text-anchor="middle" x="437.38" y="-63.5" font-family="Helvetica,sans-Serif" font-size="10.00">VisaDevice::read</text>
</a>
</g>
</g>
<!-- Node2&#45;&gt;Node9 -->
<g id="edge12_Node000002_Node000009" class="edge">
<title>Node2&#45;&gt;Node9</title>
<g id="a_edge12_Node000002_Node000009"><a xlink:title=" ">
<path fill="none" stroke="#63b8ff" d="M226.69,-51.35C270.04,-54.59 335.72,-59.49 382,-62.94"/>
<polygon fill="#63b8ff" stroke="#63b8ff" points="381.51,-66.49 391.74,-63.74 382.03,-59.51 381.51,-66.49"/>
</a>
</g>
</g>
<!-- Node10 -->
<g id="Node000010" class="node">
<title>Node10</title>
<g id="a_Node000010"><a xlink:href="class_visa_device.html#a29202c3f5e47326386d1d27972e25267" target="_top" xlink:title="Метод, позволяющий отправить команду на устройство">
<polygon fill="white" stroke="#666666" points="482.5,-39 392.25,-39 392.25,-19 482.5,-19 482.5,-39"/>
<text text-anchor="middle" x="437.38" y="-25.5" font-family="Helvetica,sans-Serif" font-size="10.00">VisaDevice::write</text>
</a>
</g>
</g>
<!-- Node2&#45;&gt;Node10 -->
<g id="edge13_Node000002_Node000010" class="edge">
<title>Node2&#45;&gt;Node10</title>
<g id="a_edge13_Node000002_Node000010"><a xlink:title=" ">
<path fill="none" stroke="#63b8ff" d="M198.23,-37.55C213.98,-28.23 238.72,-15.27 262.25,-10 305.41,-0.32 355.74,-7.78 391.15,-16.02"/>
<polygon fill="#63b8ff" stroke="#63b8ff" points="390.1,-19.61 400.64,-18.58 391.76,-12.81 390.1,-19.61"/>
</a>
</g>
</g>
<!-- Node4 -->
<g id="Node000004" class="node">
<title>Node4</title>
<g id="a_Node000004"><a xlink:href="logger_8hpp.html#a49284b7befa8e31f81e01ee8f3735dd0" target="_top" xlink:title="Функция, которая снимает значение текущего времени и конвертирует его в строку с заданным шаблоном.">
<polygon fill="white" stroke="#666666" points="724.12,-134 635.38,-134 635.38,-114 724.12,-114 724.12,-134"/>
<text text-anchor="middle" x="679.75" y="-120.5" font-family="Helvetica,sans-Serif" font-size="10.00">get_current_time</text>
</a>
</g>
</g>
<!-- Node3&#45;&gt;Node4 -->
<g id="edge3_Node000003_Node000004" class="edge">
<title>Node3&#45;&gt;Node4</title>
<g id="a_edge3_Node000003_Node000004"><a xlink:title=" ">
<path fill="none" stroke="#63b8ff" d="M567.52,-77.36C580.8,-85.63 600.35,-97.1 618.5,-105 622.57,-106.77 626.86,-108.46 631.2,-110.05"/>
<polygon fill="#63b8ff" stroke="#63b8ff" points="629.74,-113.59 640.34,-113.55 632.03,-106.97 629.74,-113.59"/>
</a>
</g>
</g>
<!-- Node5 -->
<g id="Node000005" class="node">
<title>Node5</title>
<g id="a_Node000005"><a xlink:href="class_logger.html#a6edb7b263f080d417b82a537ed50fee4" target="_top" xlink:title="Возвращает тег в зависимости от уровня логирования и от назначения тега.">
<polygon fill="white" stroke="#666666" points="721.5,-96 638,-96 638,-76 721.5,-76 721.5,-96"/>
<text text-anchor="middle" x="679.75" y="-82.5" font-family="Helvetica,sans-Serif" font-size="10.00">Logger::get_tag</text>
</a>
</g>
</g>
<!-- Node3&#45;&gt;Node5 -->
<g id="edge4_Node000003_Node000005" class="edge">
<title>Node3&#45;&gt;Node5</title>
<g id="a_edge4_Node000003_Node000005"><a xlink:title=" ">
<path fill="none" stroke="#63b8ff" d="M582.96,-71.7C596.22,-73.68 612.02,-76.04 626.92,-78.26"/>
<polygon fill="#63b8ff" stroke="#63b8ff" points="626.16,-81.84 636.57,-79.85 627.19,-74.91 626.16,-81.84"/>
</a>
</g>
</g>
<!-- Node6 -->
<g id="Node000006" class="node">
<title>Node6</title>
<g id="a_Node000006"><a xlink:href="class_logger.html#a4825613142ebb093bf8fa26f21f7f3fc" target="_top" xlink:title="Метод, который выводит сообщение в консоль.">
<polygon fill="white" stroke="#666666" points="741,-58 618.5,-58 618.5,-38 741,-38 741,-58"/>
<text text-anchor="middle" x="679.75" y="-44.5" font-family="Helvetica,sans-Serif" font-size="10.00">Logger::print_to_console</text>
</a>
</g>
</g>
<!-- Node3&#45;&gt;Node6 -->
<g id="edge5_Node000003_Node000006" class="edge">
<title>Node3&#45;&gt;Node6</title>
<g id="a_edge5_Node000003_Node000006"><a xlink:title=" ">
<path fill="none" stroke="#63b8ff" d="M582.96,-62.3C590.46,-61.18 598.77,-59.94 607.28,-58.67"/>
<polygon fill="#63b8ff" stroke="#63b8ff" points="607.73,-61.99 617.1,-57.06 606.69,-55.07 607.73,-61.99"/>
</a>
</g>
</g>
<!-- Node7 -->
<g id="Node000007" class="node">
<title>Node7</title>
<g id="a_Node000007"><a xlink:href="class_logger.html#a999bb33f7cf079cb98f32fae6016a2f3" target="_top" xlink:title="Метод, который записывает сообщение в файл.">
<polygon fill="white" stroke="#666666" points="730.12,-20 629.38,-20 629.38,0 730.12,0 730.12,-20"/>
<text text-anchor="middle" x="679.75" y="-6.5" font-family="Helvetica,sans-Serif" font-size="10.00">Logger::print_to_file</text>
</a>
</g>
</g>
<!-- Node3&#45;&gt;Node7 -->
<g id="edge6_Node000003_Node000007" class="edge">
<title>Node3&#45;&gt;Node7</title>
<g id="a_edge6_Node000003_Node000007"><a xlink:title=" ">
<path fill="none" stroke="#63b8ff" d="M567.52,-56.64C580.8,-48.37 600.35,-36.9 618.5,-29 622.57,-27.23 626.86,-25.54 631.2,-23.95"/>
<polygon fill="#63b8ff" stroke="#63b8ff" points="632.03,-27.03 640.34,-20.45 629.74,-20.41 632.03,-27.03"/>
</a>
</g>
</g>
<!-- Node8&#45;&gt;Node9 -->
<g id="edge8_Node000008_Node000009" class="edge">
<title>Node8&#45;&gt;Node9</title>
<g id="a_edge8_Node000008_Node000009"><a xlink:title=" ">
<path fill="none" stroke="#63b8ff" d="M345.05,-39.48C359.38,-43.8 376.18,-48.86 391.43,-53.46"/>
<polygon fill="#63b8ff" stroke="#63b8ff" points="390.11,-57.02 400.69,-56.55 392.13,-50.31 390.11,-57.02"/>
</a>
</g>
</g>
<!-- Node8&#45;&gt;Node10 -->
<g id="edge10_Node000008_Node000010" class="edge">
<title>Node8&#45;&gt;Node10</title>
<g id="a_edge10_Node000008_Node000010"><a xlink:title=" ">
<path fill="none" stroke="#63b8ff" d="M356.5,-29C364.42,-29 372.73,-29 380.87,-29"/>
<polygon fill="#63b8ff" stroke="#63b8ff" points="380.81,-32.5 390.81,-29 380.81,-25.5 380.81,-32.5"/>
</a>
</g>
</g>
<!-- Node9&#45;&gt;Node3 -->
<g id="edge9_Node000009_Node000003" class="edge">
<title>Node9&#45;&gt;Node3</title>
<g id="a_edge9_Node000009_Node000003"><a xlink:title=" ">
<path fill="none" stroke="#63b8ff" d="M481.98,-67C490.25,-67 498.9,-67 507.14,-67"/>
<polygon fill="#63b8ff" stroke="#63b8ff" points="507.04,-70.5 517.04,-67 507.04,-63.5 507.04,-70.5"/>
</a>
</g>
</g>
<!-- Node10&#45;&gt;Node3 -->
<g id="edge11_Node000010_Node000003" class="edge">
<title>Node10&#45;&gt;Node3</title>
<g id="a_edge11_Node000010_Node000003"><a xlink:title=" ">
<path fill="none" stroke="#63b8ff" d="M469.03,-39.48C481.3,-43.68 495.61,-48.57 508.73,-53.06"/>
<polygon fill="#63b8ff" stroke="#63b8ff" points="507.35,-56.63 517.94,-56.55 509.61,-50 507.35,-56.63"/>
</a>
</g>
</g>
</g>
</svg>
