<?xml version="1.0" encoding="UTF-8" standalone="no"?>
<!DOCTYPE svg PUBLIC "-//W3C//DTD SVG 1.1//EN"
 "http://www.w3.org/Graphics/SVG/1.1/DTD/svg11.dtd">
<!-- Generated by graphviz version 8.0.5 (20230430.1635)
 -->
<!-- Title: VisaDevice::send Pages: 1 -->
<svg width="620pt" height="599pt"
 viewBox="0.00 0.00 620.25 599.00" xmlns="http://www.w3.org/2000/svg" xmlns:xlink="http://www.w3.org/1999/xlink">
<g id="graph0" class="graph" transform="scale(1 1) rotate(0) translate(4 595)">
<title>VisaDevice::send</title>
<!-- Node1 -->
<g id="Node000001" class="node">
<title>Node1</title>
<g id="a_Node000001"><a xlink:title="Отправка данных на прибор и чтение ответа от прибора.">
<polygon fill="#999999" stroke="#666666" points="612.25,-332 521.25,-332 521.25,-312 612.25,-312 612.25,-332"/>
<text text-anchor="middle" x="566.75" y="-318.5" font-family="Helvetica,sans-Serif" font-size="10.00">VisaDevice::send</text>
</a>
</g>
</g>
<!-- Node2 -->
<g id="Node000002" class="node">
<title>Node2</title>
<g id="a_Node000002"><a xlink:href="class_keysight_m9807_a.html#a0f54d9bad1ad1923606ff767f70de3e1" target="_top" xlink:title="Полный сброс настроек">
<polygon fill="white" stroke="#666666" points="465.38,-591 357.12,-591 357.12,-559 465.38,-559 465.38,-591"/>
<text text-anchor="start" x="365.12" y="-577.5" font-family="Helvetica,sans-Serif" font-size="10.00">KeysightM9807A::full</text>
<text text-anchor="middle" x="411.25" y="-565.5" font-family="Helvetica,sans-Serif" font-size="10.00">_preset</text>
</a>
</g>
</g>
<!-- Node1&#45;&gt;Node2 -->
<g id="edge1_Node000001_Node000002" class="edge">
<title>Node1&#45;&gt;Node2</title>
<g id="a_edge1_Node000001_Node000002"><a xlink:title=" ">
<path fill="none" stroke="#63b8ff" d="M564.28,-343.18C560.07,-387.7 544.13,-491.67 485.25,-550 479.73,-555.47 472.96,-559.74 465.8,-563.08"/>
<polygon fill="#63b8ff" stroke="#63b8ff" points="567.85,-343.54 565.19,-333.29 560.87,-342.96 567.85,-343.54"/>
</a>
</g>
</g>
<!-- Node3 -->
<g id="Node000003" class="node">
<title>Node3</title>
<g id="a_Node000003"><a xlink:href="class_keysight_gen.html#a22afec59890f93fe8ce3800a6ec9a453" target="_top" xlink:title="Получает текущее значение частоты сигнала">
<polygon fill="white" stroke="#666666" points="485.25,-541 337.25,-541 337.25,-521 485.25,-521 485.25,-541"/>
<text text-anchor="middle" x="411.25" y="-527.5" font-family="Helvetica,sans-Serif" font-size="10.00">KeysightGen::get_current_freq</text>
</a>
</g>
</g>
<!-- Node1&#45;&gt;Node3 -->
<g id="edge2_Node000001_Node000003" class="edge">
<title>Node1&#45;&gt;Node3</title>
<g id="a_edge2_Node000001_Node000003"><a xlink:title=" ">
<path fill="none" stroke="#63b8ff" d="M562.99,-342.88C556.68,-382.11 537.47,-466.9 485.25,-512 481.29,-515.42 476.78,-518.24 471.99,-520.56"/>
<polygon fill="#63b8ff" stroke="#63b8ff" points="566.59,-343.46 564.59,-333.06 559.67,-342.44 566.59,-343.46"/>
</a>
</g>
</g>
<!-- Node4 -->
<g id="Node000004" class="node">
<title>Node4</title>
<g id="a_Node000004"><a xlink:href="class_keysight_m9807_a.html#a9a23e8c51407edd1aba3cf734d9ea71b" target="_top" xlink:title="Сбор данных, полученных в результате измерения, для одного порта">
<polygon fill="white" stroke="#666666" points="478.12,-503 344.38,-503 344.38,-483 478.12,-483 478.12,-503"/>
<text text-anchor="middle" x="411.25" y="-489.5" font-family="Helvetica,sans-Serif" font-size="10.00">KeysightM9807A::get_data</text>
</a>
</g>
</g>
<!-- Node1&#45;&gt;Node4 -->
<g id="edge3_Node000001_Node000004" class="edge">
<title>Node1&#45;&gt;Node4</title>
<g id="a_edge3_Node000001_Node000004"><a xlink:title=" ">
<path fill="none" stroke="#63b8ff" d="M559.91,-342.49C549.86,-374.16 526.3,-434.87 485.25,-469 478.27,-474.8 469.85,-479.21 461.25,-482.57"/>
<polygon fill="#63b8ff" stroke="#63b8ff" points="563.46,-343.83 563.01,-333.25 556.76,-341.8 563.46,-343.83"/>
</a>
</g>
</g>
<!-- Node5 -->
<g id="Node000005" class="node">
<title>Node5</title>
<g id="a_Node000005"><a xlink:href="class_keysight_gen.html#a218a478d0600e3fc2985adf86a049435" target="_top" xlink:title="Переход к следующей частотной точке">
<polygon fill="white" stroke="#666666" points="295.25,-505 177.25,-505 177.25,-485 295.25,-485 295.25,-505"/>
<text text-anchor="middle" x="236.25" y="-491.5" font-family="Helvetica,sans-Serif" font-size="10.00">KeysightGen::next_freq</text>
</a>
</g>
</g>
<!-- Node1&#45;&gt;Node5 -->
<g id="edge4_Node000001_Node000005" class="edge">
<title>Node1&#45;&gt;Node5</title>
<g id="a_edge4_Node000001_Node000005"><a xlink:title=" ">
<path fill="none" stroke="#63b8ff" d="M557.04,-342.27C544.84,-368.14 520.19,-412.36 485.25,-436 476.9,-441.65 354.75,-469.16 285.06,-484.54"/>
<polygon fill="#63b8ff" stroke="#63b8ff" points="560.56,-343.97 561.49,-333.42 554.18,-341.09 560.56,-343.97"/>
</a>
</g>
</g>
<!-- Node6 -->
<g id="Node000006" class="node">
<title>Node6</title>
<g id="a_Node000006"><a xlink:href="class_keysight_gen.html#ab60f56567bec59f39cceb9c0b7d7d892" target="_top" xlink:title="Сброс настроек">
<polygon fill="white" stroke="#666666" points="463.88,-351 358.62,-351 358.62,-331 463.88,-331 463.88,-351"/>
<text text-anchor="middle" x="411.25" y="-337.5" font-family="Helvetica,sans-Serif" font-size="10.00">KeysightGen::preset</text>
</a>
</g>
</g>
<!-- Node1&#45;&gt;Node6 -->
<g id="edge5_Node000001_Node000006" class="edge">
<title>Node1&#45;&gt;Node6</title>
<g id="a_edge5_Node000001_Node000006"><a xlink:title=" ">
<path fill="none" stroke="#63b8ff" d="M510.23,-328.87C495.2,-330.73 478.98,-332.74 464.15,-334.58"/>
<polygon fill="#63b8ff" stroke="#63b8ff" points="510.44,-332.25 519.94,-327.55 509.58,-325.3 510.44,-332.25"/>
</a>
</g>
</g>
<!-- Node7 -->
<g id="Node000007" class="node">
<title>Node7</title>
<g id="a_Node000007"><a xlink:href="class_keysight_m9807_a.html#a6048408088bc8fc73c986dd812c86328" target="_top" xlink:title="Сброс настроек">
<polygon fill="white" stroke="#666666" points="472.88,-313 349.62,-313 349.62,-293 472.88,-293 472.88,-313"/>
<text text-anchor="middle" x="411.25" y="-299.5" font-family="Helvetica,sans-Serif" font-size="10.00">KeysightM9807A::preset</text>
</a>
</g>
</g>
<!-- Node1&#45;&gt;Node7 -->
<g id="edge6_Node000001_Node000007" class="edge">
<title>Node1&#45;&gt;Node7</title>
<g id="a_edge6_Node000001_Node000007"><a xlink:title=" ">
<path fill="none" stroke="#63b8ff" d="M510.14,-315.12C498.1,-313.63 485.32,-312.04 473.1,-310.53"/>
<polygon fill="#63b8ff" stroke="#63b8ff" points="509.58,-318.7 519.94,-316.45 510.44,-311.75 509.58,-318.7"/>
</a>
</g>
</g>
<!-- Node8 -->
<g id="Node000008" class="node">
<title>Node8</title>
<g id="a_Node000008"><a xlink:href="class_keysight_gen.html#acb44da0109ba9b90e2e0dd6dcdb552a1" target="_top" xlink:title="Отключает порт">
<polygon fill="white" stroke="#666666" points="460.5,-427 362,-427 362,-407 460.5,-407 460.5,-427"/>
<text text-anchor="middle" x="411.25" y="-413.5" font-family="Helvetica,sans-Serif" font-size="10.00">KeysightGen::rf_off</text>
</a>
</g>
</g>
<!-- Node1&#45;&gt;Node8 -->
<g id="edge7_Node000001_Node000008" class="edge">
<title>Node1&#45;&gt;Node8</title>
<g id="a_edge7_Node000001_Node000008"><a xlink:title=" ">
<path fill="none" stroke="#63b8ff" d="M550.94,-340.57C536.11,-357.94 511.74,-383.33 485.25,-398 477.69,-402.19 469.17,-405.48 460.7,-408.06"/>
<polygon fill="#63b8ff" stroke="#63b8ff" points="554.09,-343.25 557.79,-333.32 548.71,-338.78 554.09,-343.25"/>
</a>
</g>
</g>
<!-- Node12 -->
<g id="Node000012" class="node">
<title>Node12</title>
<g id="a_Node000012"><a xlink:href="class_keysight_gen.html#a27f8ef0b4486e9402d4a2491cef702e7" target="_top" xlink:title="Включает порт">
<polygon fill="white" stroke="#666666" points="460.88,-275 361.62,-275 361.62,-255 460.88,-255 460.88,-275"/>
<text text-anchor="middle" x="411.25" y="-261.5" font-family="Helvetica,sans-Serif" font-size="10.00">KeysightGen::rf_on</text>
</a>
</g>
</g>
<!-- Node1&#45;&gt;Node12 -->
<g id="edge12_Node000001_Node000012" class="edge">
<title>Node1&#45;&gt;Node12</title>
<g id="a_edge12_Node000001_Node000012"><a xlink:title=" ">
<path fill="none" stroke="#63b8ff" d="M536.59,-306.62C521.54,-299.1 502.72,-290.33 485.25,-284 476.51,-280.83 467,-277.96 457.82,-275.46"/>
<polygon fill="#63b8ff" stroke="#63b8ff" points="534.84,-310.17 545.34,-311.58 538.01,-303.93 534.84,-310.17"/>
</a>
</g>
</g>
<!-- Node13 -->
<g id="Node000013" class="node">
<title>Node13</title>
<g id="a_Node000013"><a xlink:href="class_visa_device.html#ae09de9a813b559eedad4587afbc64741" target="_top" xlink:title="Отправка данных на прибор и чтение ответа от прибора.">
<polygon fill="white" stroke="#666666" points="456.75,-237 365.75,-237 365.75,-217 456.75,-217 456.75,-237"/>
<text text-anchor="middle" x="411.25" y="-223.5" font-family="Helvetica,sans-Serif" font-size="10.00">VisaDevice::send</text>
</a>
</g>
</g>
<!-- Node1&#45;&gt;Node13 -->
<g id="edge13_Node000001_Node000013" class="edge">
<title>Node1&#45;&gt;Node13</title>
<g id="a_edge13_Node000001_Node000013"><a xlink:title=" ">
<path fill="none" stroke="#63b8ff" d="M550.94,-303.43C536.11,-286.06 511.74,-260.67 485.25,-246 476.66,-241.24 466.83,-237.64 457.24,-234.93"/>
<polygon fill="#63b8ff" stroke="#63b8ff" points="548.71,-305.22 557.79,-310.68 554.09,-300.75 548.71,-305.22"/>
</a>
</g>
</g>
<!-- Node14 -->
<g id="Node000014" class="node">
<title>Node14</title>
<g id="a_Node000014"><a xlink:href="class_visa_device.html#aa8ab94835c465376d5b775478b3b04bf" target="_top" xlink:title="Отправка данных на прибор и чтение ответа от прибора. Также, проверяется наличие ошибок на приборе.">
<polygon fill="white" stroke="#666666" points="465,-199 357.5,-199 357.5,-179 465,-179 465,-199"/>
<text text-anchor="middle" x="411.25" y="-185.5" font-family="Helvetica,sans-Serif" font-size="10.00">VisaDevice::send_err</text>
</a>
</g>
</g>
<!-- Node1&#45;&gt;Node14 -->
<g id="edge14_Node000001_Node000014" class="edge">
<title>Node1&#45;&gt;Node14</title>
<g id="a_edge14_Node000001_Node000014"><a xlink:title=" ">
<path fill="none" stroke="#63b8ff" d="M556.96,-301.84C544.68,-276.1 519.94,-232.01 485.25,-208 479.22,-203.83 472.33,-200.57 465.26,-198.03"/>
<polygon fill="#63b8ff" stroke="#63b8ff" points="554.1,-303.01 561.45,-310.64 560.47,-300.09 554.1,-303.01"/>
</a>
</g>
</g>
<!-- Node16 -->
<g id="Node000016" class="node">
<title>Node16</title>
<g id="a_Node000016"><a xlink:href="class_visa_device.html#a3744ee1e929d6c05b522693c344c76b3" target="_top" xlink:title="Отправка данных на прибор и чтение ответа от прибора. Также, ожидается завершение выполнения действий...">
<polygon fill="white" stroke="#666666" points="468,-389 354.5,-389 354.5,-369 468,-369 468,-389"/>
<text text-anchor="middle" x="411.25" y="-375.5" font-family="Helvetica,sans-Serif" font-size="10.00">VisaDevice::send_wait</text>
</a>
</g>
</g>
<!-- Node1&#45;&gt;Node16 -->
<g id="edge16_Node000001_Node000016" class="edge">
<title>Node1&#45;&gt;Node16</title>
<g id="a_edge16_Node000001_Node000016"><a xlink:title=" ">
<path fill="none" stroke="#63b8ff" d="M536.59,-337.38C521.54,-344.9 502.72,-353.67 485.25,-360 476.51,-363.17 467,-366.04 457.82,-368.54"/>
<polygon fill="#63b8ff" stroke="#63b8ff" points="538.01,-340.07 545.34,-332.42 534.84,-333.83 538.01,-340.07"/>
</a>
</g>
</g>
<!-- Node34 -->
<g id="Node000034" class="node">
<title>Node34</title>
<g id="a_Node000034"><a xlink:href="class_keysight_gen.html#a6f4ac8651f6a5409ad317480bdce022f" target="_top" xlink:title="Установка требуемой мощности сигнала">
<polygon fill="white" stroke="#666666" points="472.5,-161 350,-161 350,-141 472.5,-141 472.5,-161"/>
<text text-anchor="middle" x="411.25" y="-147.5" font-family="Helvetica,sans-Serif" font-size="10.00">KeysightGen::set_power</text>
</a>
</g>
</g>
<!-- Node1&#45;&gt;Node34 -->
<g id="edge38_Node000001_Node000034" class="edge">
<title>Node1&#45;&gt;Node34</title>
<g id="a_edge38_Node000001_Node000034"><a xlink:title=" ">
<path fill="none" stroke="#63b8ff" d="M560.63,-301.41C551.36,-268.5 528.62,-204.3 485.25,-170 480.94,-166.59 476.07,-163.78 470.96,-161.48"/>
<polygon fill="#63b8ff" stroke="#63b8ff" points="557.4,-301.88 563.36,-310.64 564.17,-300.08 557.4,-301.88"/>
</a>
</g>
</g>
<!-- Node35 -->
<g id="Node000035" class="node">
<title>Node35</title>
<g id="a_Node000035"><a xlink:href="class_tesart_rbd.html#a149160a31d947bef5d67b8bec64c52b2" target="_top" xlink:title="Запрос статуса оси ОПУ по номеру оси по указателю на нужную ось">
<polygon fill="white" stroke="#666666" points="457.88,-123 364.62,-123 364.62,-103 457.88,-103 457.88,-123"/>
<text text-anchor="middle" x="411.25" y="-109.5" font-family="Helvetica,sans-Serif" font-size="10.00">TesartRbd::status</text>
</a>
</g>
</g>
<!-- Node1&#45;&gt;Node35 -->
<g id="edge39_Node000001_Node000035" class="edge">
<title>Node1&#45;&gt;Node35</title>
<g id="a_edge39_Node000001_Node000035"><a xlink:title=" ">
<path fill="none" stroke="#63b8ff" d="M562.99,-301.12C556.68,-261.89 537.47,-177.1 485.25,-132 477.62,-125.41 467.97,-121.06 458.22,-118.21"/>
<polygon fill="#63b8ff" stroke="#63b8ff" points="559.67,-301.56 564.59,-310.94 566.59,-300.54 559.67,-301.56"/>
</a>
</g>
</g>
<!-- Node36 -->
<g id="Node000036" class="node">
<title>Node36</title>
<g id="a_Node000036"><a xlink:href="class_tesart_rbd.html#a592c41abaa2f8d44ffecb17434644d51" target="_top" xlink:title="Конструктор, в который передаётся адрес (или список одресов, разделённых символом &#39;;&#39;)">
<polygon fill="white" stroke="#666666" points="466.5,-85 356,-85 356,-65 466.5,-65 466.5,-85"/>
<text text-anchor="middle" x="411.25" y="-71.5" font-family="Helvetica,sans-Serif" font-size="10.00">TesartRbd::TesartRbd</text>
</a>
</g>
</g>
<!-- Node1&#45;&gt;Node36 -->
<g id="edge40_Node000001_Node000036" class="edge">
<title>Node1&#45;&gt;Node36</title>
<g id="a_edge40_Node000001_Node000036"><a xlink:title=" ">
<path fill="none" stroke="#63b8ff" d="M564.64,-300.76C561.12,-255.72 546.42,-150.19 485.25,-94 479.95,-89.13 473.55,-85.47 466.78,-82.73"/>
<polygon fill="#63b8ff" stroke="#63b8ff" points="561.2,-300.79 565.36,-310.53 568.19,-300.32 561.2,-300.79"/>
</a>
</g>
</g>
<!-- Node8&#45;&gt;Node5 -->
<g id="edge10_Node000008_Node000005" class="edge">
<title>Node8&#45;&gt;Node5</title>
<g id="a_edge10_Node000008_Node000005"><a xlink:title=" ">
<path fill="none" stroke="#63b8ff" d="M357.3,-431.21C350.33,-433.99 343.46,-437.24 337.25,-441 318.16,-452.56 320.5,-464.72 301.25,-476 295.45,-479.4 288.99,-482.23 282.47,-484.58"/>
<polygon fill="#63b8ff" stroke="#63b8ff" points="358.33,-434.2 366.51,-427.47 355.91,-427.62 358.33,-434.2"/>
</a>
</g>
</g>
<!-- Node9 -->
<g id="Node000009" class="node">
<title>Node9</title>
<g id="a_Node000009"><a xlink:href="class_keysight_gen.html#a8bbdbb1eba9f85c5e9efa9bd5df0313f" target="_top" xlink:title="Устанавливает частотную точку, соответствующую началу диапазона.">
<polygon fill="white" stroke="#666666" points="293.38,-467 179.12,-467 179.12,-435 293.38,-435 293.38,-467"/>
<text text-anchor="start" x="187.12" y="-453.5" font-family="Helvetica,sans-Serif" font-size="10.00">KeysightGen::move_to</text>
<text text-anchor="middle" x="236.25" y="-441.5" font-family="Helvetica,sans-Serif" font-size="10.00">_start_freq</text>
</a>
</g>
</g>
<!-- Node8&#45;&gt;Node9 -->
<g id="edge8_Node000008_Node000009" class="edge">
<title>Node8&#45;&gt;Node9</title>
<g id="a_edge8_Node000008_Node000009"><a xlink:title=" ">
<path fill="none" stroke="#63b8ff" d="M350.95,-428.65C332.45,-432.29 312.09,-436.29 293.79,-439.89"/>
<polygon fill="#63b8ff" stroke="#63b8ff" points="351.46,-431.92 360.6,-426.56 350.11,-425.06 351.46,-431.92"/>
</a>
</g>
</g>
<!-- Node10 -->
<g id="Node000010" class="node">
<title>Node10</title>
<g id="a_Node000010"><a xlink:href="class_keysight_gen.html#a7e1a018b3518d03e94504b48ea444b6f" target="_top" xlink:title="Устанавливает частотную точку, соответствующую началу диапазона.">
<polygon fill="white" stroke="#666666" points="293.38,-417 179.12,-417 179.12,-385 293.38,-385 293.38,-417"/>
<text text-anchor="start" x="187.12" y="-403.5" font-family="Helvetica,sans-Serif" font-size="10.00">KeysightGen::move_to</text>
<text text-anchor="middle" x="236.25" y="-391.5" font-family="Helvetica,sans-Serif" font-size="10.00">_stop_freq</text>
</a>
</g>
</g>
<!-- Node8&#45;&gt;Node10 -->
<g id="edge9_Node000008_Node000010" class="edge">
<title>Node8&#45;&gt;Node10</title>
<g id="a_edge9_Node000008_Node000010"><a xlink:title=" ">
<path fill="none" stroke="#63b8ff" d="M350.69,-411.49C332.25,-409.79 312.01,-407.91 293.79,-406.23"/>
<polygon fill="#63b8ff" stroke="#63b8ff" points="350.32,-415.06 360.6,-412.5 350.96,-408.09 350.32,-415.06"/>
</a>
</g>
</g>
<!-- Node11 -->
<g id="Node000011" class="node">
<title>Node11</title>
<g id="a_Node000011"><a xlink:href="class_keysight_gen.html#aa243d66cc8ba6c1d87359f4db4f371ac" target="_top" xlink:title="Переход к предыдущей частотной точке">
<polygon fill="white" stroke="#666666" points="294.5,-367 178,-367 178,-347 294.5,-347 294.5,-367"/>
<text text-anchor="middle" x="236.25" y="-353.5" font-family="Helvetica,sans-Serif" font-size="10.00">KeysightGen::prev_freq</text>
</a>
</g>
</g>
<!-- Node8&#45;&gt;Node11 -->
<g id="edge11_Node000008_Node000011" class="edge">
<title>Node8&#45;&gt;Node11</title>
<g id="a_edge11_Node000008_Node000011"><a xlink:title=" ">
<path fill="none" stroke="#63b8ff" d="M351.79,-403.44C346.81,-401.79 341.9,-399.98 337.25,-398 319.99,-390.67 318.38,-383.62 301.25,-376 293.94,-372.75 285.93,-369.87 278.11,-367.4"/>
<polygon fill="#63b8ff" stroke="#63b8ff" points="350.48,-407 361.06,-406.61 352.54,-400.32 350.48,-407"/>
</a>
</g>
</g>
<!-- Node15 -->
<g id="Node000015" class="node">
<title>Node15</title>
<g id="a_Node000015"><a xlink:href="class_visa_device.html#a743747ee232e8ff9723d25539852f94d" target="_top" xlink:title="Отправка данных на прибор и чтение ответа от прибора. Также, проверяется наличие ошибок на приборе.">
<polygon fill="white" stroke="#666666" points="290,-199 182.5,-199 182.5,-179 290,-179 290,-199"/>
<text text-anchor="middle" x="236.25" y="-185.5" font-family="Helvetica,sans-Serif" font-size="10.00">VisaDevice::send_err</text>
</a>
</g>
</g>
<!-- Node14&#45;&gt;Node15 -->
<g id="edge15_Node000014_Node000015" class="edge">
<title>Node14&#45;&gt;Node15</title>
<g id="a_edge15_Node000014_Node000015"><a xlink:title=" ">
<path fill="none" stroke="#63b8ff" d="M346.45,-189C328.01,-189 308.08,-189 290.37,-189"/>
<polygon fill="#63b8ff" stroke="#63b8ff" points="346.4,-192.5 356.4,-189 346.4,-185.5 346.4,-192.5"/>
</a>
</g>
</g>
<!-- Node16&#45;&gt;Node5 -->
<g id="edge19_Node000016_Node000005" class="edge">
<title>Node16&#45;&gt;Node5</title>
<g id="a_edge19_Node000016_Node000005"><a xlink:title=" ">
<path fill="none" stroke="#63b8ff" d="M344.54,-392.84C341.97,-394.38 339.53,-396.1 337.25,-398 307.96,-422.49 330.12,-451.01 301.25,-476 297.31,-479.41 292.77,-482.21 287.98,-484.51"/>
<polygon fill="#63b8ff" stroke="#63b8ff" points="345.91,-395.56 353.27,-387.95 342.77,-389.31 345.91,-395.56"/>
</a>
</g>
</g>
<!-- Node16&#45;&gt;Node9 -->
<g id="edge17_Node000016_Node000009" class="edge">
<title>Node16&#45;&gt;Node9</title>
<g id="a_edge17_Node000016_Node000009"><a xlink:title=" ">
<path fill="none" stroke="#63b8ff" d="M348.91,-392.97C344.9,-394.49 340.98,-396.16 337.25,-398 319.07,-406.96 318.87,-415.99 301.25,-426 295.86,-429.06 290.01,-431.92 284.13,-434.51"/>
<polygon fill="#63b8ff" stroke="#63b8ff" points="349.7,-396.05 358.02,-389.49 347.43,-389.44 349.7,-396.05"/>
</a>
</g>
</g>
<!-- Node16&#45;&gt;Node10 -->
<g id="edge18_Node000016_Node000010" class="edge">
<title>Node16&#45;&gt;Node10</title>
<g id="a_edge18_Node000016_Node000010"><a xlink:title=" ">
<path fill="none" stroke="#63b8ff" d="M343.46,-387.49C327.04,-389.58 309.61,-391.8 293.73,-393.82"/>
<polygon fill="#63b8ff" stroke="#63b8ff" points="343.6,-390.88 353.08,-386.14 342.72,-383.93 343.6,-390.88"/>
</a>
</g>
</g>
<!-- Node16&#45;&gt;Node11 -->
<g id="edge20_Node000016_Node000011" class="edge">
<title>Node16&#45;&gt;Node11</title>
<g id="a_edge20_Node000016_Node000011"><a xlink:title=" ">
<path fill="none" stroke="#63b8ff" d="M343.22,-370.48C327.28,-368.45 310.4,-366.3 294.92,-364.33"/>
<polygon fill="#63b8ff" stroke="#63b8ff" points="342.72,-374.07 353.08,-371.86 343.6,-367.12 342.72,-374.07"/>
</a>
</g>
</g>
<!-- Node17 -->
<g id="Node000017" class="node">
<title>Node17</title>
<g id="a_Node000017"><a xlink:href="class_visa_device.html#aff290be3fb61e9679a548aafc571985d" target="_top" xlink:title="Отправка данных на прибор и чтение ответа от прибора. Также, ожидается завершение выполнения действий...">
<polygon fill="white" stroke="#666666" points="293,-329 179.5,-329 179.5,-309 293,-309 293,-329"/>
<text text-anchor="middle" x="236.25" y="-315.5" font-family="Helvetica,sans-Serif" font-size="10.00">VisaDevice::send_wait</text>
</a>
</g>
</g>
<!-- Node16&#45;&gt;Node17 -->
<g id="edge21_Node000016_Node000017" class="edge">
<title>Node16&#45;&gt;Node17</title>
<g id="a_edge21_Node000016_Node000017"><a xlink:title=" ">
<path fill="none" stroke="#63b8ff" d="M351.79,-365.44C346.81,-363.79 341.9,-361.98 337.25,-360 319.99,-352.67 318.38,-345.62 301.25,-338 293.94,-334.75 285.93,-331.87 278.11,-329.4"/>
<polygon fill="#63b8ff" stroke="#63b8ff" points="350.48,-369 361.06,-368.61 352.54,-362.32 350.48,-369"/>
</a>
</g>
</g>
<!-- Node18 -->
<g id="Node000018" class="node">
<title>Node18</title>
<g id="a_Node000018"><a xlink:href="class_visa_device.html#a069e154c5f48779dfd908146db9e66ed" target="_top" xlink:title="Отправка данных на прибор и чтение ответа от прибора. Также, ожидается завершение выполнения действий...">
<polygon fill="white" stroke="#666666" points="301.25,-291 171.25,-291 171.25,-271 301.25,-271 301.25,-291"/>
<text text-anchor="middle" x="236.25" y="-277.5" font-family="Helvetica,sans-Serif" font-size="10.00">VisaDevice::send_wait_err</text>
</a>
</g>
</g>
<!-- Node16&#45;&gt;Node18 -->
<g id="edge22_Node000016_Node000018" class="edge">
<title>Node16&#45;&gt;Node18</title>
<g id="a_edge22_Node000016_Node000018"><a xlink:title=" ">
<path fill="none" stroke="#63b8ff" d="M344.63,-364.76C342.05,-363.33 339.58,-361.74 337.25,-360 312.35,-341.37 325.83,-319.05 301.25,-300 296.85,-296.59 291.86,-293.79 286.64,-291.5"/>
<polygon fill="#63b8ff" stroke="#63b8ff" points="342.79,-368.24 353.33,-369.36 345.79,-361.92 342.79,-368.24"/>
</a>
</g>
</g>
<!-- Node33 -->
<g id="Node000033" class="node">
<title>Node33</title>
<g id="a_Node000033"><a xlink:href="class_keysight_gen.html#aada9855525b00c8b30b9f27baa216464" target="_top" xlink:title="Установка определённого значения частоты">
<polygon fill="white" stroke="#666666" points="292.62,-253 179.88,-253 179.88,-233 292.62,-233 292.62,-253"/>
<text text-anchor="middle" x="236.25" y="-239.5" font-family="Helvetica,sans-Serif" font-size="10.00">KeysightGen::set_freq</text>
</a>
</g>
</g>
<!-- Node16&#45;&gt;Node33 -->
<g id="edge37_Node000016_Node000033" class="edge">
<title>Node16&#45;&gt;Node33</title>
<g id="a_edge37_Node000016_Node000033"><a xlink:title=" ">
<path fill="none" stroke="#63b8ff" d="M344.76,-365.65C342.09,-363.98 339.57,-362.1 337.25,-360 302.88,-328.83 335.09,-293.75 301.25,-262 297.62,-258.59 293.4,-255.79 288.89,-253.49"/>
<polygon fill="#63b8ff" stroke="#63b8ff" points="342.81,-369.1 353.3,-370.59 346.03,-362.89 342.81,-369.1"/>
</a>
</g>
</g>
<!-- Node19 -->
<g id="Node000019" class="node">
<title>Node19</title>
<g id="a_Node000019"><a xlink:href="class_keysight_m9807_a.html#a85c78a42ccfda3bb9b69cb60b79358f4" target="_top" xlink:title="Настройка ВАЦ для измерения">
<polygon fill="white" stroke="#666666" points="135.25,-562 0,-562 0,-542 135.25,-542 135.25,-562"/>
<text text-anchor="middle" x="67.62" y="-548.5" font-family="Helvetica,sans-Serif" font-size="10.00">KeysightM9807A::configure</text>
</a>
</g>
</g>
<!-- Node18&#45;&gt;Node19 -->
<g id="edge23_Node000018_Node000019" class="edge">
<title>Node18&#45;&gt;Node19</title>
<g id="a_edge23_Node000018_Node000019"><a xlink:title=" ">
<path fill="none" stroke="#63b8ff" d="M172.98,-298.15C172.39,-298.74 171.81,-299.36 171.25,-300 102.33,-378.93 204.59,-454.44 135.25,-533 132.23,-536.43 128.63,-539.25 124.7,-541.59"/>
<polygon fill="#63b8ff" stroke="#63b8ff" points="174.87,-300.34 180.66,-291.47 170.6,-294.79 174.87,-300.34"/>
</a>
</g>
</g>
<!-- Node20 -->
<g id="Node000020" class="node">
<title>Node20</title>
<g id="a_Node000020"><a xlink:href="class_keysight_m9807_a.html#ad492f043e51d3e760209af6d59fe7829" target="_top" xlink:title="Создание необходимых трасс, в зависимости от того, используется ли внешний генератор">
<polygon fill="white" stroke="#666666" points="129.25,-524 6,-524 6,-492 129.25,-492 129.25,-524"/>
<text text-anchor="start" x="14" y="-510.5" font-family="Helvetica,sans-Serif" font-size="10.00">KeysightM9807A::create</text>
<text text-anchor="middle" x="67.62" y="-498.5" font-family="Helvetica,sans-Serif" font-size="10.00">_traces</text>
</a>
</g>
</g>
<!-- Node18&#45;&gt;Node20 -->
<g id="edge24_Node000018_Node000020" class="edge">
<title>Node18&#45;&gt;Node20</title>
<g id="a_edge24_Node000018_Node000020"><a xlink:title=" ">
<path fill="none" stroke="#63b8ff" d="M173.38,-297.84C172.64,-298.53 171.93,-299.25 171.25,-300 115.47,-361.31 188.84,-419.76 135.25,-483 132.45,-486.3 129.18,-489.16 125.6,-491.65"/>
<polygon fill="#63b8ff" stroke="#63b8ff" points="175.12,-300.17 181.11,-291.43 170.98,-294.52 175.12,-300.17"/>
</a>
</g>
</g>
<!-- Node21 -->
<g id="Node000021" class="node">
<title>Node21</title>
<g id="a_Node000021"><a xlink:href="class_keysight_m9807_a.html#ae9df428776abd1cc65fa24e57fb713e1" target="_top" xlink:title="Запуск измерения">
<polygon fill="white" stroke="#666666" points="122.12,-474 13.12,-474 13.12,-454 122.12,-454 122.12,-474"/>
<text text-anchor="middle" x="67.62" y="-460.5" font-family="Helvetica,sans-Serif" font-size="10.00">KeysightM9807A::init</text>
</a>
</g>
</g>
<!-- Node18&#45;&gt;Node21 -->
<g id="edge25_Node000018_Node000021" class="edge">
<title>Node18&#45;&gt;Node21</title>
<g id="a_edge25_Node000018_Node000021"><a xlink:title=" ">
<path fill="none" stroke="#63b8ff" d="M173.82,-297.54C172.93,-298.32 172.07,-299.14 171.25,-300 125.37,-348 181.39,-397.25 135.25,-445 131.57,-448.81 127.19,-451.87 122.46,-454.32"/>
<polygon fill="#63b8ff" stroke="#63b8ff" points="175.39,-300.01 181.6,-291.42 171.39,-294.27 175.39,-300.01"/>
</a>
</g>
</g>
<!-- Node22 -->
<g id="Node000022" class="node">
<title>Node22</title>
<g id="a_Node000022"><a xlink:href="class_keysight_m9807_a.html#ad48b95d00b8a2ecee1e95dc300d25203" target="_top" xlink:title="Инициализация канала для измерений">
<polygon fill="white" stroke="#666666" points="122.12,-436 13.12,-436 13.12,-404 122.12,-404 122.12,-436"/>
<text text-anchor="start" x="21.12" y="-422.5" font-family="Helvetica,sans-Serif" font-size="10.00">KeysightM9807A::init</text>
<text text-anchor="middle" x="67.62" y="-410.5" font-family="Helvetica,sans-Serif" font-size="10.00">_channel</text>
</a>
</g>
</g>
<!-- Node18&#45;&gt;Node22 -->
<g id="edge26_Node000018_Node000022" class="edge">
<title>Node18&#45;&gt;Node22</title>
<g id="a_edge26_Node000018_Node000022"><a xlink:title=" ">
<path fill="none" stroke="#63b8ff" d="M174.92,-296.93C173.64,-297.89 172.42,-298.92 171.25,-300 138.17,-330.73 167.23,-363.12 135.25,-395 131.49,-398.75 127.11,-401.95 122.43,-404.67"/>
<polygon fill="#63b8ff" stroke="#63b8ff" points="176.28,-299.59 182.96,-291.37 172.61,-293.63 176.28,-299.59"/>
</a>
</g>
</g>
<!-- Node23 -->
<g id="Node000023" class="node">
<title>Node23</title>
<g id="a_Node000023"><a xlink:href="class_keysight_m9807_a.html#ad4dc40466fecabae451e88d763692076" target="_top" xlink:title="Отключает все порты">
<polygon fill="white" stroke="#666666" points="125.88,-386 9.38,-386 9.38,-366 125.88,-366 125.88,-386"/>
<text text-anchor="middle" x="67.62" y="-372.5" font-family="Helvetica,sans-Serif" font-size="10.00">KeysightM9807A::rf_off</text>
</a>
</g>
</g>
<!-- Node18&#45;&gt;Node23 -->
<g id="edge27_Node000018_Node000023" class="edge">
<title>Node18&#45;&gt;Node23</title>
<g id="a_edge27_Node000018_Node000023"><a xlink:title=" ">
<path fill="none" stroke="#63b8ff" d="M176.58,-296.4C174.73,-297.52 172.95,-298.71 171.25,-300 147.36,-318.09 159.24,-339.04 135.25,-357 130.63,-360.46 125.4,-363.29 119.95,-365.61"/>
<polygon fill="#63b8ff" stroke="#63b8ff" points="177.95,-299.12 185.27,-291.45 174.77,-292.88 177.95,-299.12"/>
</a>
</g>
</g>
<!-- Node24 -->
<g id="Node000024" class="node">
<title>Node24</title>
<g id="a_Node000024"><a xlink:href="class_keysight_m9807_a.html#a861c82a08c49f54dd245db73d87181c8" target="_top" xlink:title="Отключает выбранный порт">
<polygon fill="white" stroke="#666666" points="125.88,-348 9.38,-348 9.38,-328 125.88,-328 125.88,-348"/>
<text text-anchor="middle" x="67.62" y="-334.5" font-family="Helvetica,sans-Serif" font-size="10.00">KeysightM9807A::rf_off</text>
</a>
</g>
</g>
<!-- Node18&#45;&gt;Node24 -->
<g id="edge28_Node000018_Node000024" class="edge">
<title>Node18&#45;&gt;Node24</title>
<g id="a_edge28_Node000018_Node000024"><a xlink:title=" ">
<path fill="none" stroke="#63b8ff" d="M185.17,-294.82C180.42,-296.45 175.72,-298.18 171.25,-300 154.5,-306.83 152.04,-312.26 135.25,-319 127.32,-322.18 118.67,-325.06 110.3,-327.56"/>
<polygon fill="#63b8ff" stroke="#63b8ff" points="186.13,-297.87 194.57,-291.45 183.97,-291.21 186.13,-297.87"/>
</a>
</g>
</g>
<!-- Node25 -->
<g id="Node000025" class="node">
<title>Node25</title>
<g id="a_Node000025"><a xlink:href="class_keysight_m9807_a.html#adf9e166699c89ec3c7f53fae5ec81b0c" target="_top" xlink:title="Включает все порты">
<polygon fill="white" stroke="#666666" points="126.25,-310 9,-310 9,-290 126.25,-290 126.25,-310"/>
<text text-anchor="middle" x="67.62" y="-296.5" font-family="Helvetica,sans-Serif" font-size="10.00">KeysightM9807A::rf_on</text>
</a>
</g>
</g>
<!-- Node18&#45;&gt;Node25 -->
<g id="edge29_Node000018_Node000025" class="edge">
<title>Node18&#45;&gt;Node25</title>
<g id="a_edge29_Node000018_Node000025"><a xlink:title=" ">
<path fill="none" stroke="#63b8ff" d="M160.13,-289.57C148.89,-290.85 137.44,-292.15 126.62,-293.39"/>
<polygon fill="#63b8ff" stroke="#63b8ff" points="160.29,-292.96 169.83,-288.35 159.5,-286 160.29,-292.96"/>
</a>
</g>
</g>
<!-- Node26 -->
<g id="Node000026" class="node">
<title>Node26</title>
<g id="a_Node000026"><a xlink:href="class_keysight_m9807_a.html#ac6105e309ba2f11a360797e19d34a592" target="_top" xlink:title="Включает выбранный порт">
<polygon fill="white" stroke="#666666" points="126.25,-272 9,-272 9,-252 126.25,-252 126.25,-272"/>
<text text-anchor="middle" x="67.62" y="-258.5" font-family="Helvetica,sans-Serif" font-size="10.00">KeysightM9807A::rf_on</text>
</a>
</g>
</g>
<!-- Node18&#45;&gt;Node26 -->
<g id="edge30_Node000018_Node000026" class="edge">
<title>Node18&#45;&gt;Node26</title>
<g id="a_edge30_Node000018_Node000026"><a xlink:title=" ">
<path fill="none" stroke="#63b8ff" d="M160.13,-272.43C148.89,-271.15 137.44,-269.85 126.62,-268.61"/>
<polygon fill="#63b8ff" stroke="#63b8ff" points="159.5,-276 169.83,-273.65 160.29,-269.04 159.5,-276"/>
</a>
</g>
</g>
<!-- Node27 -->
<g id="Node000027" class="node">
<title>Node27</title>
<g id="a_Node000027"><a xlink:href="class_visa_device.html#ab95d81d2e1ebab67621ac7aac769bc64" target="_top" xlink:title="Отправка данных на прибор и чтение ответа от прибора. Также, ожидается завершение выполнения действий...">
<polygon fill="white" stroke="#666666" points="132.62,-234 2.62,-234 2.62,-214 132.62,-214 132.62,-234"/>
<text text-anchor="middle" x="67.62" y="-220.5" font-family="Helvetica,sans-Serif" font-size="10.00">VisaDevice::send_wait_err</text>
</a>
</g>
</g>
<!-- Node18&#45;&gt;Node27 -->
<g id="edge31_Node000018_Node000027" class="edge">
<title>Node18&#45;&gt;Node27</title>
<g id="a_edge31_Node000018_Node000027"><a xlink:title=" ">
<path fill="none" stroke="#63b8ff" d="M185.17,-267.18C180.42,-265.55 175.72,-263.82 171.25,-262 154.5,-255.17 152.04,-249.74 135.25,-243 127.32,-239.82 118.67,-236.94 110.3,-234.44"/>
<polygon fill="#63b8ff" stroke="#63b8ff" points="183.97,-270.79 194.57,-270.55 186.13,-264.13 183.97,-270.79"/>
</a>
</g>
</g>
<!-- Node28 -->
<g id="Node000028" class="node">
<title>Node28</title>
<g id="a_Node000028"><a xlink:href="class_keysight_m9807_a.html#a752f62baec908e4e421a95b3c75422fc" target="_top" xlink:title="Установка определённого значения частоты">
<polygon fill="white" stroke="#666666" points="133,-196 2.25,-196 2.25,-176 133,-176 133,-196"/>
<text text-anchor="middle" x="67.62" y="-182.5" font-family="Helvetica,sans-Serif" font-size="10.00">KeysightM9807A::set_freq</text>
</a>
</g>
</g>
<!-- Node18&#45;&gt;Node28 -->
<g id="edge32_Node000018_Node000028" class="edge">
<title>Node18&#45;&gt;Node28</title>
<g id="a_edge32_Node000018_Node000028"><a xlink:title=" ">
<path fill="none" stroke="#63b8ff" d="M176.58,-265.6C174.73,-264.48 172.95,-263.29 171.25,-262 147.36,-243.91 159.24,-222.96 135.25,-205 130.63,-201.54 125.4,-198.71 119.95,-196.39"/>
<polygon fill="#63b8ff" stroke="#63b8ff" points="174.77,-269.12 185.27,-270.55 177.95,-262.88 174.77,-269.12"/>
</a>
</g>
</g>
<!-- Node29 -->
<g id="Node000029" class="node">
<title>Node29</title>
<g id="a_Node000029"><a xlink:href="class_keysight_m9807_a.html#a2b1761a2a4b4dc696a74590c2cb028de" target="_top" xlink:title="Установка частотного диапазона">
<polygon fill="white" stroke="#666666" points="122.5,-158 12.75,-158 12.75,-126 122.5,-126 122.5,-158"/>
<text text-anchor="start" x="20.75" y="-144.5" font-family="Helvetica,sans-Serif" font-size="10.00">KeysightM9807A::set</text>
<text text-anchor="middle" x="67.62" y="-132.5" font-family="Helvetica,sans-Serif" font-size="10.00">_freq_range</text>
</a>
</g>
</g>
<!-- Node18&#45;&gt;Node29 -->
<g id="edge33_Node000018_Node000029" class="edge">
<title>Node18&#45;&gt;Node29</title>
<g id="a_edge33_Node000018_Node000029"><a xlink:title=" ">
<path fill="none" stroke="#63b8ff" d="M174.92,-265.07C173.64,-264.11 172.42,-263.08 171.25,-262 138.17,-231.27 167.23,-198.88 135.25,-167 131.57,-163.34 127.31,-160.2 122.75,-157.52"/>
<polygon fill="#63b8ff" stroke="#63b8ff" points="172.61,-268.37 182.96,-270.63 176.28,-262.41 172.61,-268.37"/>
</a>
</g>
</g>
<!-- Node30 -->
<g id="Node000030" class="node">
<title>Node30</title>
<g id="a_Node000030"><a xlink:href="class_keysight_m9807_a.html#a148ac915640756d3ef0c33d92c1b1205" target="_top" xlink:title="Установка положений переключателей в определённые позиции">
<polygon fill="white" stroke="#666666" points="134.5,-108 0.75,-108 0.75,-88 134.5,-88 134.5,-108"/>
<text text-anchor="middle" x="67.62" y="-94.5" font-family="Helvetica,sans-Serif" font-size="10.00">KeysightM9807A::set_path</text>
</a>
</g>
</g>
<!-- Node18&#45;&gt;Node30 -->
<g id="edge34_Node000018_Node000030" class="edge">
<title>Node18&#45;&gt;Node30</title>
<g id="a_edge34_Node000018_Node000030"><a xlink:title=" ">
<path fill="none" stroke="#63b8ff" d="M173.82,-264.46C172.93,-263.68 172.07,-262.86 171.25,-262 125.37,-214 181.39,-164.75 135.25,-117 131.91,-113.54 127.98,-110.7 123.74,-108.36"/>
<polygon fill="#63b8ff" stroke="#63b8ff" points="171.39,-267.73 181.6,-270.58 175.39,-261.99 171.39,-267.73"/>
</a>
</g>
</g>
<!-- Node31 -->
<g id="Node000031" class="node">
<title>Node31</title>
<g id="a_Node000031"><a xlink:href="class_keysight_m9807_a.html#ab3a0a48c7e439fab722d902479ff78eb" target="_top" xlink:title="Установка требуемой мощности зондирующего порта">
<polygon fill="white" stroke="#666666" points="122.5,-70 12.75,-70 12.75,-38 122.5,-38 122.5,-70"/>
<text text-anchor="start" x="20.75" y="-56.5" font-family="Helvetica,sans-Serif" font-size="10.00">KeysightM9807A::set</text>
<text text-anchor="middle" x="67.62" y="-44.5" font-family="Helvetica,sans-Serif" font-size="10.00">_power</text>
</a>
</g>
</g>
<!-- Node18&#45;&gt;Node31 -->
<g id="edge35_Node000018_Node000031" class="edge">
<title>Node18&#45;&gt;Node31</title>
<g id="a_edge35_Node000018_Node000031"><a xlink:title=" ">
<path fill="none" stroke="#63b8ff" d="M173.38,-264.16C172.64,-263.47 171.93,-262.75 171.25,-262 115.47,-200.69 188.84,-142.24 135.25,-79 131.74,-74.85 127.46,-71.39 122.79,-68.51"/>
<polygon fill="#63b8ff" stroke="#63b8ff" points="170.98,-267.48 181.11,-270.57 175.12,-261.83 170.98,-267.48"/>
</a>
</g>
</g>
<!-- Node32 -->
<g id="Node000032" class="node">
<title>Node32</title>
<g id="a_Node000032"><a xlink:href="class_keysight_m9807_a.html#a83a1f840e34e3ecb56c319649725efb8" target="_top" xlink:title="Перевод триггера в режим manual.">
<polygon fill="white" stroke="#666666" points="129.25,-20 6,-20 6,0 129.25,0 129.25,-20"/>
<text text-anchor="middle" x="67.62" y="-6.5" font-family="Helvetica,sans-Serif" font-size="10.00">KeysightM9807A::trigger</text>
</a>
</g>
</g>
<!-- Node18&#45;&gt;Node32 -->
<g id="edge36_Node000018_Node000032" class="edge">
<title>Node18&#45;&gt;Node32</title>
<g id="a_edge36_Node000018_Node000032"><a xlink:title=" ">
<path fill="none" stroke="#63b8ff" d="M172.98,-263.85C172.39,-263.26 171.81,-262.64 171.25,-262 102.33,-183.07 204.59,-107.56 135.25,-29 132.23,-25.57 128.63,-22.75 124.7,-20.41"/>
<polygon fill="#63b8ff" stroke="#63b8ff" points="170.6,-267.21 180.66,-270.53 174.87,-261.66 170.6,-267.21"/>
</a>
</g>
</g>
</g>
</svg>
