<?xml version="1.0" encoding="UTF-8" standalone="no"?>
<!DOCTYPE svg PUBLIC "-//W3C//DTD SVG 1.1//EN"
 "http://www.w3.org/Graphics/SVG/1.1/DTD/svg11.dtd">
<!-- Generated by graphviz version 8.0.5 (20230430.1635)
 -->
<!-- Title: SocketServer::read_data Pages: 1 -->
<svg width="389pt" height="142pt"
 viewBox="0.00 0.00 389.00 142.00" xmlns="http://www.w3.org/2000/svg" xmlns:xlink="http://www.w3.org/1999/xlink">
<g id="graph0" class="graph" transform="scale(1 1) rotate(0) translate(4 138)">
<title>SocketServer::read_data</title>
<!-- Node1 -->
<g id="Node000001" class="node">
<title>Node1</title>
<g id="a_Node000001"><a xlink:title=" ">
<polygon fill="#999999" stroke="#666666" points="122.5,-77 0,-77 0,-57 122.5,-57 122.5,-77"/>
<text text-anchor="middle" x="61.25" y="-63.5" font-family="Helvetica,sans-Serif" font-size="10.00">SocketServer::read_data</text>
</a>
</g>
</g>
<!-- Node2 -->
<g id="Node000002" class="node">
<title>Node2</title>
<g id="a_Node000002"><a xlink:href="class_logger.html#af7709105c2708359b7b082218f4cc3e1" target="_top" xlink:title="Функция, осуществляющая логирование">
<polygon fill="white" stroke="#666666" points="222.5,-77 158.5,-77 158.5,-57 222.5,-57 222.5,-77"/>
<text text-anchor="middle" x="190.5" y="-63.5" font-family="Helvetica,sans-Serif" font-size="10.00">Logger::log</text>
</a>
</g>
</g>
<!-- Node1&#45;&gt;Node2 -->
<g id="edge1_Node000001_Node000002" class="edge">
<title>Node1&#45;&gt;Node2</title>
<g id="a_edge1_Node000001_Node000002"><a xlink:title=" ">
<path fill="none" stroke="#63b8ff" d="M122.89,-67C131.07,-67 139.3,-67 147.06,-67"/>
<polygon fill="#63b8ff" stroke="#63b8ff" points="147.03,-70.5 157.03,-67 147.03,-63.5 147.03,-70.5"/>
</a>
</g>
</g>
<!-- Node3 -->
<g id="Node000003" class="node">
<title>Node3</title>
<g id="a_Node000003"><a xlink:href="logger_8hpp.html#a49284b7befa8e31f81e01ee8f3735dd0" target="_top" xlink:title="Функция, которая снимает значение текущего времени и конвертирует его в строку с заданным шаблоном.">
<polygon fill="white" stroke="#666666" points="364.12,-134 275.38,-134 275.38,-114 364.12,-114 364.12,-134"/>
<text text-anchor="middle" x="319.75" y="-120.5" font-family="Helvetica,sans-Serif" font-size="10.00">get_current_time</text>
</a>
</g>
</g>
<!-- Node2&#45;&gt;Node3 -->
<g id="edge2_Node000002_Node000003" class="edge">
<title>Node2&#45;&gt;Node3</title>
<g id="a_edge2_Node000002_Node000003"><a xlink:title=" ">
<path fill="none" stroke="#63b8ff" d="M207.52,-77.36C220.8,-85.63 240.35,-97.1 258.5,-105 262.57,-106.77 266.86,-108.46 271.2,-110.05"/>
<polygon fill="#63b8ff" stroke="#63b8ff" points="269.74,-113.59 280.34,-113.55 272.03,-106.97 269.74,-113.59"/>
</a>
</g>
</g>
<!-- Node4 -->
<g id="Node000004" class="node">
<title>Node4</title>
<g id="a_Node000004"><a xlink:href="class_logger.html#a6edb7b263f080d417b82a537ed50fee4" target="_top" xlink:title="Функция, возвращающая тег в зависимости от уровня логирования и от назначения тега.">
<polygon fill="white" stroke="#666666" points="361.5,-96 278,-96 278,-76 361.5,-76 361.5,-96"/>
<text text-anchor="middle" x="319.75" y="-82.5" font-family="Helvetica,sans-Serif" font-size="10.00">Logger::get_tag</text>
</a>
</g>
</g>
<!-- Node2&#45;&gt;Node4 -->
<g id="edge3_Node000002_Node000004" class="edge">
<title>Node2&#45;&gt;Node4</title>
<g id="a_edge3_Node000002_Node000004"><a xlink:title=" ">
<path fill="none" stroke="#63b8ff" d="M222.96,-71.7C236.22,-73.68 252.02,-76.04 266.92,-78.26"/>
<polygon fill="#63b8ff" stroke="#63b8ff" points="266.16,-81.84 276.57,-79.85 267.19,-74.91 266.16,-81.84"/>
</a>
</g>
</g>
<!-- Node5 -->
<g id="Node000005" class="node">
<title>Node5</title>
<g id="a_Node000005"><a xlink:href="class_logger.html#a4825613142ebb093bf8fa26f21f7f3fc" target="_top" xlink:title="Функция, которая выводит сообщение в консоль.">
<polygon fill="white" stroke="#666666" points="381,-58 258.5,-58 258.5,-38 381,-38 381,-58"/>
<text text-anchor="middle" x="319.75" y="-44.5" font-family="Helvetica,sans-Serif" font-size="10.00">Logger::print_to_console</text>
</a>
</g>
</g>
<!-- Node2&#45;&gt;Node5 -->
<g id="edge4_Node000002_Node000005" class="edge">
<title>Node2&#45;&gt;Node5</title>
<g id="a_edge4_Node000002_Node000005"><a xlink:title=" ">
<path fill="none" stroke="#63b8ff" d="M222.96,-62.3C230.46,-61.18 238.77,-59.94 247.28,-58.67"/>
<polygon fill="#63b8ff" stroke="#63b8ff" points="247.73,-61.99 257.1,-57.06 246.69,-55.07 247.73,-61.99"/>
</a>
</g>
</g>
<!-- Node6 -->
<g id="Node000006" class="node">
<title>Node6</title>
<g id="a_Node000006"><a xlink:href="class_logger.html#a999bb33f7cf079cb98f32fae6016a2f3" target="_top" xlink:title="Функция, которая записывает сообщение в файл.">
<polygon fill="white" stroke="#666666" points="370.12,-20 269.38,-20 269.38,0 370.12,0 370.12,-20"/>
<text text-anchor="middle" x="319.75" y="-6.5" font-family="Helvetica,sans-Serif" font-size="10.00">Logger::print_to_file</text>
</a>
</g>
</g>
<!-- Node2&#45;&gt;Node6 -->
<g id="edge5_Node000002_Node000006" class="edge">
<title>Node2&#45;&gt;Node6</title>
<g id="a_edge5_Node000002_Node000006"><a xlink:title=" ">
<path fill="none" stroke="#63b8ff" d="M207.52,-56.64C220.8,-48.37 240.35,-36.9 258.5,-29 262.57,-27.23 266.86,-25.54 271.2,-23.95"/>
<polygon fill="#63b8ff" stroke="#63b8ff" points="272.03,-27.03 280.34,-20.45 269.74,-20.41 272.03,-27.03"/>
</a>
</g>
</g>
</g>
</svg>
