<?xml version="1.0" encoding="UTF-8" standalone="no"?>
<!DOCTYPE svg PUBLIC "-//W3C//DTD SVG 1.1//EN"
 "http://www.w3.org/Graphics/SVG/1.1/DTD/svg11.dtd">
<!-- Generated by graphviz version 8.0.5 (20230430.1635)
 -->
<!-- Title: TaskManager::set_angle_range_task Pages: 1 -->
<!--zoomable 142 -->

<svg id="main" version="1.1" xmlns="http://www.w3.org/2000/svg" xmlns:xlink="http://www.w3.org/1999/xlink" xml:space="preserve" onload="init(evt)">
<style type="text/css"><![CDATA[
.node, .edge {opacity: 0.7;}
.node.selected, .edge.selected {opacity: 1;}
.edge:hover path { stroke: red; }
.edge:hover polygon { stroke: red; fill: red; }
]]></style>

<defs>
  <circle id="rim" cx="0" cy="0" r="7"/>
  <circle id="rim2" cx="0" cy="0" r="3.5"/>
  <g id="zoomPlus">
    <use xlink:href="#rim" fill="#404040"><set attributeName="fill" to="#808080" begin="zoomplus.mouseover" end="zoomplus.mouseout"/></use>
    <path d="M-4,0h8M0,-4v8" fill="none" stroke="white" stroke-width="1.5" pointer-events="none"/>
  </g>
  <g id="zoomMin">
    <use xlink:href="#rim" fill="#404040"><set attributeName="fill" to="#808080" begin="zoomminus.mouseover" end="zoomminus.mouseout"/></use>
    <path d="M-4,0h8" fill="none" stroke="white" stroke-width="1.5" pointer-events="none"/>
  </g>
  <g id="arrowUp" transform="translate(30 24)">
    <use xlink:href="#rim"/>
    <path pointer-events="none" fill="none" stroke="white" stroke-width="1.5" d="M0,-3.0v7 M-2.5,-0.5L0,-3.0L2.5,-0.5"/>
  </g>
  <g id="arrowRight" transform="rotate(90) translate(36 -43)">
    <use xlink:href="#rim"/>
    <path pointer-events="none" fill="none" stroke="white" stroke-width="1.5" d="M0,-3.0v7 M-2.5,-0.5L0,-3.0L2.5,-0.5"/>
  </g>
  <g id="arrowDown" transform="rotate(180) translate(-30 -48)">
    <use xlink:href="#rim"/>
    <path pointer-events="none" fill="none" stroke="white" stroke-width="1.5" d="M0,-3.0v7 M-2.5,-0.5L0,-3.0L2.5,-0.5"/>
  </g>
  <g id="arrowLeft" transform="rotate(270) translate(-36 17)">
    <use xlink:href="#rim"/>
    <path pointer-events="none" fill="none" stroke="white" stroke-width="1.5" d="M0,-3.0v7 M-2.5,-0.5L0,-3.0L2.5,-0.5"/>
  </g>
  <g id="resetDef">
    <use xlink:href="#rim2" fill="#404040"><set attributeName="fill" to="#808080" begin="reset.mouseover" end="reset.mouseout"/></use>
  </g>
</defs>
<script type="application/ecmascript">
var viewWidth = 578;
var viewHeight = 142;
var sectionId = 'dynsection-13';
</script>
<script type="application/ecmascript" xlink:href="svg.min.js"/>
<svg id="graph" class="graph">
<g id="viewport">
<title>TaskManager::set_angle_range_task</title>
<!-- Node1 -->
<g id="Node000001" class="node">
<title>Node1</title>
<g id="a_Node000001"><a xlink:title=" ">
<polygon fill="#999999" stroke="#666666" points="122.5,-83 0,-83 0,-51 122.5,-51 122.5,-83"/>
<text text-anchor="start" x="8" y="-69.5" font-family="Helvetica,sans-Serif" font-size="10.00">TaskManager::set_angle</text>
<text text-anchor="middle" x="61.25" y="-57.5" font-family="Helvetica,sans-Serif" font-size="10.00">_range_task</text>
</a>
</g>
</g>
<!-- Node2 -->
<g id="Node000002" class="node">
<title>Node2</title>
<g id="a_Node000002"><a xlink:href="class_logger.html#af7709105c2708359b7b082218f4cc3e1" target="_top" xlink:title="Метод, осуществляющий логирование">
<polygon fill="white" stroke="#666666" points="388.88,-77 324.88,-77 324.88,-57 388.88,-57 388.88,-77"/>
<text text-anchor="middle" x="356.88" y="-63.5" font-family="Helvetica,sans-Serif" font-size="10.00">Logger::log</text>
</a>
</g>
</g>
<!-- Node1&#45;&gt;Node2 -->
<g id="edge1_Node000001_Node000002" class="edge">
<title>Node1&#45;&gt;Node2</title>
<g id="a_edge1_Node000001_Node000002"><a xlink:title=" ">
<path fill="none" stroke="#63b8ff" d="M122.73,-67C179.7,-67 263.57,-67 313.65,-67"/>
<polygon fill="#63b8ff" stroke="#63b8ff" points="313.41,-70.5 323.41,-67 313.41,-63.5 313.41,-70.5"/>
</a>
</g>
</g>
<!-- Node7 -->
<g id="Node000007" class="node">
<title>Node7</title>
<g id="a_Node000007"><a xlink:href="class_device_set.html#a42484914aabe91a0d030557db440fab0" target="_top" xlink:title="Устанавливает угловую точку, соответствующую началу диапазона.">
<polygon fill="white" stroke="#666666" points="263,-127 161.5,-127 161.5,-95 263,-95 263,-127"/>
<text text-anchor="start" x="169.5" y="-113.5" font-family="Helvetica,sans-Serif" font-size="10.00">DeviceSet::move_to</text>
<text text-anchor="middle" x="212.25" y="-101.5" font-family="Helvetica,sans-Serif" font-size="10.00">_start_angle</text>
</a>
</g>
</g>
<!-- Node1&#45;&gt;Node7 -->
<g id="edge6_Node000001_Node000007" class="edge">
<title>Node1&#45;&gt;Node7</title>
<g id="a_edge6_Node000001_Node000007"><a xlink:title=" ">
<path fill="none" stroke="#63b8ff" d="M117.73,-83.38C128.52,-86.57 139.87,-89.92 150.81,-93.15"/>
<polygon fill="#63b8ff" stroke="#63b8ff" points="149.55,-96.72 160.13,-96.2 151.53,-90.01 149.55,-96.72"/>
</a>
</g>
</g>
<!-- Node9 -->
<g id="Node000009" class="node">
<title>Node9</title>
<g id="a_Node000009"><a xlink:href="class_device_set.html#a9b37373d7b0a7c89cd57eca673df7fad" target="_top" xlink:title="Устанавливает диапазон изменения угла на определённой оси ОПУ">
<polygon fill="white" stroke="#666666" points="266,-39 158.5,-39 158.5,-7 266,-7 266,-39"/>
<text text-anchor="start" x="166.5" y="-25.5" font-family="Helvetica,sans-Serif" font-size="10.00">DeviceSet::set_angle</text>
<text text-anchor="middle" x="212.25" y="-13.5" font-family="Helvetica,sans-Serif" font-size="10.00">_range</text>
</a>
</g>
</g>
<!-- Node1&#45;&gt;Node9 -->
<g id="edge9_Node000001_Node000009" class="edge">
<title>Node1&#45;&gt;Node9</title>
<g id="a_edge9_Node000001_Node000009"><a xlink:title=" ">
<path fill="none" stroke="#63b8ff" d="M117.73,-50.62C127.56,-47.71 137.86,-44.67 147.88,-41.71"/>
<polygon fill="#63b8ff" stroke="#63b8ff" points="148.59,-44.86 157.19,-38.67 146.61,-38.14 148.59,-44.86"/>
</a>
</g>
</g>
<!-- Node3 -->
<g id="Node000003" class="node">
<title>Node3</title>
<g id="a_Node000003"><a xlink:href="logger_8hpp.html#a49284b7befa8e31f81e01ee8f3735dd0" target="_top" xlink:title="Функция, которая снимает значение текущего времени и конвертирует его в строку с заданным шаблоном.">
<polygon fill="white" stroke="#666666" points="553.38,-134 464.62,-134 464.62,-114 553.38,-114 553.38,-134"/>
<text text-anchor="middle" x="509" y="-120.5" font-family="Helvetica,sans-Serif" font-size="10.00">get_current_time</text>
</a>
</g>
</g>
<!-- Node2&#45;&gt;Node3 -->
<g id="edge2_Node000002_Node000003" class="edge">
<title>Node2&#45;&gt;Node3</title>
<g id="a_edge2_Node000002_Node000003"><a xlink:title=" ">
<path fill="none" stroke="#63b8ff" d="M389.23,-77.19C396.69,-79.85 404.57,-82.86 411.75,-86 428.33,-93.25 431.06,-98.03 447.75,-105 452.08,-106.81 456.65,-108.54 461.25,-110.18"/>
<polygon fill="#63b8ff" stroke="#63b8ff" points="459.7,-113.69 470.3,-113.59 461.95,-107.06 459.7,-113.69"/>
</a>
</g>
</g>
<!-- Node4 -->
<g id="Node000004" class="node">
<title>Node4</title>
<g id="a_Node000004"><a xlink:href="class_logger.html#a6edb7b263f080d417b82a537ed50fee4" target="_top" xlink:title="Возвращает тег в зависимости от уровня логирования и от назначения тега.">
<polygon fill="white" stroke="#666666" points="550.75,-96 467.25,-96 467.25,-76 550.75,-76 550.75,-96"/>
<text text-anchor="middle" x="509" y="-82.5" font-family="Helvetica,sans-Serif" font-size="10.00">Logger::get_tag</text>
</a>
</g>
</g>
<!-- Node2&#45;&gt;Node4 -->
<g id="edge3_Node000002_Node000004" class="edge">
<title>Node2&#45;&gt;Node4</title>
<g id="a_edge3_Node000002_Node000004"><a xlink:title=" ">
<path fill="none" stroke="#63b8ff" d="M389.35,-70.98C408.7,-73.43 433.98,-76.63 456.23,-79.45"/>
<polygon fill="#63b8ff" stroke="#63b8ff" points="455.51,-83.01 465.87,-80.79 456.39,-76.07 455.51,-83.01"/>
</a>
</g>
</g>
<!-- Node5 -->
<g id="Node000005" class="node">
<title>Node5</title>
<g id="a_Node000005"><a xlink:href="class_logger.html#a4825613142ebb093bf8fa26f21f7f3fc" target="_top" xlink:title="Метод, который выводит сообщение в консоль.">
<polygon fill="white" stroke="#666666" points="570.25,-58 447.75,-58 447.75,-38 570.25,-38 570.25,-58"/>
<text text-anchor="middle" x="509" y="-44.5" font-family="Helvetica,sans-Serif" font-size="10.00">Logger::print_to_console</text>
</a>
</g>
</g>
<!-- Node2&#45;&gt;Node5 -->
<g id="edge4_Node000002_Node000005" class="edge">
<title>Node2&#45;&gt;Node5</title>
<g id="a_edge4_Node000002_Node000005"><a xlink:title=" ">
<path fill="none" stroke="#63b8ff" d="M389.35,-63.02C403.17,-61.27 420.01,-59.14 436.61,-57.03"/>
<polygon fill="#63b8ff" stroke="#63b8ff" points="436.97,-60.39 446.46,-55.66 436.1,-53.45 436.97,-60.39"/>
</a>
</g>
</g>
<!-- Node6 -->
<g id="Node000006" class="node">
<title>Node6</title>
<g id="a_Node000006"><a xlink:href="class_logger.html#a999bb33f7cf079cb98f32fae6016a2f3" target="_top" xlink:title="Метод, который записывает сообщение в файл.">
<polygon fill="white" stroke="#666666" points="559.38,-20 458.62,-20 458.62,0 559.38,0 559.38,-20"/>
<text text-anchor="middle" x="509" y="-6.5" font-family="Helvetica,sans-Serif" font-size="10.00">Logger::print_to_file</text>
</a>
</g>
</g>
<!-- Node2&#45;&gt;Node6 -->
<g id="edge5_Node000002_Node000006" class="edge">
<title>Node2&#45;&gt;Node6</title>
<g id="a_edge5_Node000002_Node000006"><a xlink:title=" ">
<path fill="none" stroke="#63b8ff" d="M389.23,-56.81C396.69,-54.15 404.57,-51.14 411.75,-48 428.33,-40.75 431.06,-35.97 447.75,-29 452.08,-27.19 456.65,-25.46 461.25,-23.82"/>
<polygon fill="#63b8ff" stroke="#63b8ff" points="461.95,-26.94 470.3,-20.41 459.7,-20.31 461.95,-26.94"/>
</a>
</g>
</g>
<!-- Node7&#45;&gt;Node2 -->
<g id="edge7_Node000007_Node000002" class="edge">
<title>Node7&#45;&gt;Node2</title>
<g id="a_edge7_Node000007_Node000002"><a xlink:title=" ">
<path fill="none" stroke="#63b8ff" d="M263.13,-95.61C279.87,-90.45 298.34,-84.75 314.37,-79.8"/>
<polygon fill="#63b8ff" stroke="#63b8ff" points="314.98,-82.97 323.5,-76.68 312.92,-76.28 314.98,-82.97"/>
</a>
</g>
</g>
<!-- Node8 -->
<g id="Node000008" class="node">
<title>Node8</title>
<g id="a_Node000008"><a xlink:href="class_rbd_device.html#a54fd10b47f6c13d1ff985792799763f0" target="_top" xlink:title="Устанавливает угловую точку, соответствующую началу диапазона.">
<polygon fill="white" stroke="#666666" points="408.75,-127 305,-127 305,-95 408.75,-95 408.75,-127"/>
<text text-anchor="start" x="313" y="-113.5" font-family="Helvetica,sans-Serif" font-size="10.00">RbdDevice::move_to</text>
<text text-anchor="middle" x="356.88" y="-101.5" font-family="Helvetica,sans-Serif" font-size="10.00">_start_angle</text>
</a>
</g>
</g>
<!-- Node7&#45;&gt;Node8 -->
<g id="edge8_Node000007_Node000008" class="edge">
<title>Node7&#45;&gt;Node8</title>
<g id="a_edge8_Node000007_Node000008"><a xlink:title=" ">
<path fill="none" stroke="#63b8ff" d="M263.13,-111C273.04,-111 283.56,-111 293.82,-111"/>
<polygon fill="#63b8ff" stroke="#63b8ff" points="293.81,-114.5 303.81,-111 293.81,-107.5 293.81,-114.5"/>
</a>
</g>
</g>
<!-- Node9&#45;&gt;Node2 -->
<g id="edge10_Node000009_Node000002" class="edge">
<title>Node9&#45;&gt;Node2</title>
<g id="a_edge10_Node000009_Node000002"><a xlink:title=" ">
<path fill="none" stroke="#63b8ff" d="M266.36,-39.38C282.16,-44.26 299.25,-49.53 314.21,-54.15"/>
<polygon fill="#63b8ff" stroke="#63b8ff" points="313.1,-57.77 323.69,-57.38 315.16,-51.09 313.1,-57.77"/>
</a>
</g>
</g>
<!-- Node10 -->
<g id="Node000010" class="node">
<title>Node10</title>
<g id="a_Node000010"><a xlink:href="class_rbd_device.html#a3ce90b05c72560d35522397fa1295c8c" target="_top" xlink:title="Задаёт диапазон изменения угла для определённой оси">
<polygon fill="white" stroke="#666666" points="411.75,-39 302,-39 302,-7 411.75,-7 411.75,-39"/>
<text text-anchor="start" x="310" y="-25.5" font-family="Helvetica,sans-Serif" font-size="10.00">RbdDevice::set_angle</text>
<text text-anchor="middle" x="356.88" y="-13.5" font-family="Helvetica,sans-Serif" font-size="10.00">_range</text>
</a>
</g>
</g>
<!-- Node9&#45;&gt;Node10 -->
<g id="edge11_Node000009_Node000010" class="edge">
<title>Node9&#45;&gt;Node10</title>
<g id="a_edge11_Node000009_Node000010"><a xlink:title=" ">
<path fill="none" stroke="#63b8ff" d="M266.36,-23C274.4,-23 282.77,-23 291.02,-23"/>
<polygon fill="#63b8ff" stroke="#63b8ff" points="290.77,-26.5 300.77,-23 290.77,-19.5 290.77,-26.5"/>
</a>
</g>
</g>
</g>
</svg>

<g id="navigator" transform="translate(0 0)" fill="#404254">
  <rect fill="#f2f5e9" fill-opacity="0.5" stroke="#606060" stroke-width=".5" x="0" y="0" width="60" height="60"/>
  <use id="zoomplus" xlink:href="#zoomPlus" x="17" y="9" onmousedown="handleZoom(evt,'in')"/>
  <use id="zoomminus" xlink:href="#zoomMin" x="42" y="9" onmousedown="handleZoom(evt,'out')"/>
  <use id="reset" xlink:href="#resetDef" x="30" y="36" onmousedown="handleReset()"/>
   <use id="arrowup" xlink:href="#arrowUp" x="0" y="0" onmousedown="handlePan(0,-1)"/>
  <use id="arrowright" xlink:href="#arrowRight" x="0" y="0" onmousedown="handlePan(1,0)"/>
  <use id="arrowdown" xlink:href="#arrowDown" x="0" y="0" onmousedown="handlePan(0,1)"/>
  <use id="arrowleft" xlink:href="#arrowLeft" x="0" y="0" onmousedown="handlePan(-1,0)"/>
</g>
<svg viewBox="0 0 15 15" width="100%" height="30px" preserveAspectRatio="xMaxYMin meet">
 <g id="arrow_out" transform="scale(0.3 0.3)">
  <a xlink:href="class_task_manager_aa9dd8d653be63d6f9834fb96057d50a1_cgraph_org.svg" target="_base">
   <rect id="button" ry="5" rx="5" y="6" x="6" height="38" width="38"
        fill="#f2f5e9" fill-opacity="0.5" stroke="#606060" stroke-width="1.0"/>
   <path id="arrow"
     d="M 11.500037,31.436501 C 11.940474,20.09759 22.043105,11.32322 32.158766,21.979434 L 37.068811,17.246167 C 37.068811,17.246167 37.088388,32 37.088388,32 L 22.160133,31.978069 C 22.160133,31.978069 26.997745,27.140456 26.997745,27.140456 C 18.528582,18.264221 13.291696,25.230495 11.500037,31.436501 z"
     style="fill:#404040;"/>
  </a>
 </g>
</svg>

<style type='text/css'>
<![CDATA[
[data-mouse-over-selected='false'] { opacity: 0.7; }
[data-mouse-over-selected='true']  { opacity: 1.0; }
]]>
</style>
<script type="application/ecmascript"><![CDATA[
document.addEventListener('DOMContentLoaded', (event) => {
  highlightEdges();
  highlightAdjacentNodes();
});
]]></script>
</svg>
