<?xml version="1.0" encoding="UTF-8" standalone="no"?>
<!DOCTYPE svg PUBLIC "-//W3C//DTD SVG 1.1//EN"
 "http://www.w3.org/Graphics/SVG/1.1/DTD/svg11.dtd">
<!-- Generated by graphviz version 8.0.5 (20230430.1635)
 -->
<!-- Title: VisaDevice::send_wait Pages: 1 -->
<svg width="1036pt" height="157pt"
 viewBox="0.00 0.00 1036.00 157.40" xmlns="http://www.w3.org/2000/svg" xmlns:xlink="http://www.w3.org/1999/xlink">
<g id="graph0" class="graph" transform="scale(1 1) rotate(0) translate(4 153.4)">
<title>VisaDevice::send_wait</title>
<!-- Node1 -->
<g id="Node000001" class="node">
<title>Node1</title>
<g id="a_Node000001"><a xlink:title=" ">
<polygon fill="#999999" stroke="#666666" points="113.5,-67 0,-67 0,-47 113.5,-47 113.5,-67"/>
<text text-anchor="middle" x="56.75" y="-53.5" font-family="Helvetica,sans-Serif" font-size="10.00">VisaDevice::send_wait</text>
</a>
</g>
</g>
<!-- Node2 -->
<g id="Node000002" class="node">
<title>Node2</title>
<g id="a_Node000002"><a xlink:href="class_visa_device.html#a3744ee1e929d6c05b522693c344c76b3" target="_top" xlink:title=" ">
<polygon fill="white" stroke="#666666" points="263,-67 149.5,-67 149.5,-47 263,-47 263,-67"/>
<text text-anchor="middle" x="206.25" y="-53.5" font-family="Helvetica,sans-Serif" font-size="10.00">VisaDevice::send_wait</text>
</a>
</g>
</g>
<!-- Node1&#45;&gt;Node2 -->
<g id="edge1_Node000001_Node000002" class="edge">
<title>Node1&#45;&gt;Node2</title>
<g id="a_edge1_Node000001_Node000002"><a xlink:title=" ">
<path fill="none" stroke="#63b8ff" d="M113.93,-57C121.88,-57 130.12,-57 138.25,-57"/>
<polygon fill="#63b8ff" stroke="#63b8ff" points="138.22,-60.5 148.22,-57 138.22,-53.5 138.22,-60.5"/>
</a>
</g>
</g>
<!-- Node3 -->
<g id="Node000003" class="node">
<title>Node3</title>
<g id="a_Node000003"><a xlink:href="class_visa_device.html#ad659ba652605f5c983958400fde8c808" target="_top" xlink:title=" ">
<polygon fill="white" stroke="#666666" points="513.25,-115 422.25,-115 422.25,-95 513.25,-95 513.25,-115"/>
<text text-anchor="middle" x="467.75" y="-101.5" font-family="Helvetica,sans-Serif" font-size="10.00">VisaDevice::send</text>
</a>
</g>
</g>
<!-- Node2&#45;&gt;Node3 -->
<g id="edge2_Node000002_Node000003" class="edge">
<title>Node2&#45;&gt;Node3</title>
<g id="a_edge2_Node000002_Node000003"><a xlink:title=" ">
<path fill="none" stroke="#63b8ff" d="M263.24,-67.36C307.05,-75.46 367.68,-86.67 411.34,-94.75"/>
<polygon fill="#63b8ff" stroke="#63b8ff" points="410.59,-98.36 421.06,-96.73 411.86,-91.47 410.59,-98.36"/>
</a>
</g>
</g>
<!-- Node12 -->
<g id="Node000012" class="node">
<title>Node12</title>
<g id="a_Node000012"><a xlink:href="class_visa_device.html#ab1f5c0b110fca770dbd5be069453ea82" target="_top" xlink:title=" ">
<polygon fill="white" stroke="#666666" points="386.25,-48 299,-48 299,-28 386.25,-28 386.25,-48"/>
<text text-anchor="middle" x="342.62" y="-34.5" font-family="Helvetica,sans-Serif" font-size="10.00">VisaDevice::wait</text>
</a>
</g>
</g>
<!-- Node2&#45;&gt;Node12 -->
<g id="edge15_Node000002_Node000012" class="edge">
<title>Node2&#45;&gt;Node12</title>
<g id="a_edge15_Node000002_Node000012"><a xlink:title=" ">
<path fill="none" stroke="#63b8ff" d="M263.46,-49.05C271.57,-47.91 279.9,-46.73 287.95,-45.59"/>
<polygon fill="#63b8ff" stroke="#63b8ff" points="288.32,-48.93 297.73,-44.07 287.34,-42 288.32,-48.93"/>
</a>
</g>
</g>
<!-- Node4 -->
<g id="Node000004" class="node">
<title>Node4</title>
<g id="a_Node000004"><a xlink:href="class_logger.html#af7709105c2708359b7b082218f4cc3e1" target="_top" xlink:title="Функция, осуществляющая логирование">
<polygon fill="white" stroke="#666666" points="869.5,-77 805.5,-77 805.5,-57 869.5,-57 869.5,-77"/>
<text text-anchor="middle" x="837.5" y="-63.5" font-family="Helvetica,sans-Serif" font-size="10.00">Logger::log</text>
</a>
</g>
</g>
<!-- Node3&#45;&gt;Node4 -->
<g id="edge3_Node000003_Node000004" class="edge">
<title>Node3&#45;&gt;Node4</title>
<g id="a_edge3_Node000003_Node000004"><a xlink:title=" ">
<path fill="none" stroke="#63b8ff" d="M491.08,-115.41C506.92,-122.2 528.91,-130.45 549.25,-134 645.78,-150.86 678.94,-161.43 769.5,-124 789.88,-115.58 808.58,-98.53 821.02,-85.26"/>
<polygon fill="#63b8ff" stroke="#63b8ff" points="823.16,-87.99 827.24,-78.21 817.95,-83.32 823.16,-87.99"/>
</a>
</g>
</g>
<!-- Node9 -->
<g id="Node000009" class="node">
<title>Node9</title>
<g id="a_Node000009"><a xlink:href="class_visa_device.html#aa807192fd9a8c3e6efc458f78de5e73e" target="_top" xlink:title=" ">
<polygon fill="white" stroke="#666666" points="643.25,-77 549.25,-77 549.25,-57 643.25,-57 643.25,-77"/>
<text text-anchor="middle" x="596.25" y="-63.5" font-family="Helvetica,sans-Serif" font-size="10.00">VisaDevice::query</text>
</a>
</g>
</g>
<!-- Node3&#45;&gt;Node9 -->
<g id="edge8_Node000003_Node000009" class="edge">
<title>Node3&#45;&gt;Node9</title>
<g id="a_edge8_Node000003_Node000009"><a xlink:title=" ">
<path fill="none" stroke="#63b8ff" d="M503.65,-94.52C518.03,-90.2 534.88,-85.14 550.17,-80.54"/>
<polygon fill="#63b8ff" stroke="#63b8ff" points="550.89,-83.68 559.46,-77.45 548.88,-76.98 550.89,-83.68"/>
</a>
</g>
</g>
<!-- Node10 -->
<g id="Node000010" class="node">
<title>Node10</title>
<g id="a_Node000010"><a xlink:href="class_visa_device.html#aca08d9dbb0469f1143668a485e4adfe2" target="_top" xlink:title=" ">
<polygon fill="white" stroke="#666666" points="768.75,-115 680,-115 680,-95 768.75,-95 768.75,-115"/>
<text text-anchor="middle" x="724.38" y="-101.5" font-family="Helvetica,sans-Serif" font-size="10.00">VisaDevice::read</text>
</a>
</g>
</g>
<!-- Node3&#45;&gt;Node10 -->
<g id="edge13_Node000003_Node000010" class="edge">
<title>Node3&#45;&gt;Node10</title>
<g id="a_edge13_Node000003_Node000010"><a xlink:title=" ">
<path fill="none" stroke="#63b8ff" d="M513.7,-114.22C525.24,-116.2 537.66,-118 549.25,-119 590.87,-122.59 601.63,-122.61 643.25,-119 651.66,-118.27 660.51,-117.12 669.13,-115.78"/>
<polygon fill="#63b8ff" stroke="#63b8ff" points="669.59,-119.09 678.89,-114.01 668.45,-112.18 669.59,-119.09"/>
</a>
</g>
</g>
<!-- Node11 -->
<g id="Node000011" class="node">
<title>Node11</title>
<g id="a_Node000011"><a xlink:href="class_visa_device.html#a29202c3f5e47326386d1d27972e25267" target="_top" xlink:title=" ">
<polygon fill="white" stroke="#666666" points="769.5,-77 679.25,-77 679.25,-57 769.5,-57 769.5,-77"/>
<text text-anchor="middle" x="724.38" y="-63.5" font-family="Helvetica,sans-Serif" font-size="10.00">VisaDevice::write</text>
</a>
</g>
</g>
<!-- Node3&#45;&gt;Node11 -->
<g id="edge14_Node000003_Node000011" class="edge">
<title>Node3&#45;&gt;Node11</title>
<g id="a_edge14_Node000003_Node000011"><a xlink:title=" ">
<path fill="none" stroke="#63b8ff" d="M513.43,-101.68C548.81,-98.67 599.4,-93.56 643.25,-86 652.98,-84.32 663.28,-82.17 673.15,-79.92"/>
<polygon fill="#63b8ff" stroke="#63b8ff" points="673.7,-83.15 682.64,-77.45 672.1,-76.33 673.7,-83.15"/>
</a>
</g>
</g>
<!-- Node5 -->
<g id="Node000005" class="node">
<title>Node5</title>
<g id="a_Node000005"><a xlink:href="logger_8hpp.html#a49284b7befa8e31f81e01ee8f3735dd0" target="_top" xlink:title="Функция, которая снимает значение текущего времени и конвертирует его в строку с заданным шаблоном.">
<polygon fill="white" stroke="#666666" points="1011.12,-134 922.38,-134 922.38,-114 1011.12,-114 1011.12,-134"/>
<text text-anchor="middle" x="966.75" y="-120.5" font-family="Helvetica,sans-Serif" font-size="10.00">get_current_time</text>
</a>
</g>
</g>
<!-- Node4&#45;&gt;Node5 -->
<g id="edge4_Node000004_Node000005" class="edge">
<title>Node4&#45;&gt;Node5</title>
<g id="a_edge4_Node000004_Node000005"><a xlink:title=" ">
<path fill="none" stroke="#63b8ff" d="M854.52,-77.36C867.8,-85.63 887.35,-97.1 905.5,-105 909.57,-106.77 913.86,-108.46 918.2,-110.05"/>
<polygon fill="#63b8ff" stroke="#63b8ff" points="916.74,-113.59 927.34,-113.55 919.03,-106.97 916.74,-113.59"/>
</a>
</g>
</g>
<!-- Node6 -->
<g id="Node000006" class="node">
<title>Node6</title>
<g id="a_Node000006"><a xlink:href="class_logger.html#a6edb7b263f080d417b82a537ed50fee4" target="_top" xlink:title="Функция, возвращающая тег в зависимости от уровня логирования и от назначения тега.">
<polygon fill="white" stroke="#666666" points="1008.5,-96 925,-96 925,-76 1008.5,-76 1008.5,-96"/>
<text text-anchor="middle" x="966.75" y="-82.5" font-family="Helvetica,sans-Serif" font-size="10.00">Logger::get_tag</text>
</a>
</g>
</g>
<!-- Node4&#45;&gt;Node6 -->
<g id="edge5_Node000004_Node000006" class="edge">
<title>Node4&#45;&gt;Node6</title>
<g id="a_edge5_Node000004_Node000006"><a xlink:title=" ">
<path fill="none" stroke="#63b8ff" d="M869.96,-71.7C883.22,-73.68 899.02,-76.04 913.92,-78.26"/>
<polygon fill="#63b8ff" stroke="#63b8ff" points="913.16,-81.84 923.57,-79.85 914.19,-74.91 913.16,-81.84"/>
</a>
</g>
</g>
<!-- Node7 -->
<g id="Node000007" class="node">
<title>Node7</title>
<g id="a_Node000007"><a xlink:href="class_logger.html#a4825613142ebb093bf8fa26f21f7f3fc" target="_top" xlink:title="Функция, которая выводит сообщение в консоль.">
<polygon fill="white" stroke="#666666" points="1028,-58 905.5,-58 905.5,-38 1028,-38 1028,-58"/>
<text text-anchor="middle" x="966.75" y="-44.5" font-family="Helvetica,sans-Serif" font-size="10.00">Logger::print_to_console</text>
</a>
</g>
</g>
<!-- Node4&#45;&gt;Node7 -->
<g id="edge6_Node000004_Node000007" class="edge">
<title>Node4&#45;&gt;Node7</title>
<g id="a_edge6_Node000004_Node000007"><a xlink:title=" ">
<path fill="none" stroke="#63b8ff" d="M869.96,-62.3C877.46,-61.18 885.77,-59.94 894.28,-58.67"/>
<polygon fill="#63b8ff" stroke="#63b8ff" points="894.73,-61.99 904.1,-57.06 893.69,-55.07 894.73,-61.99"/>
</a>
</g>
</g>
<!-- Node8 -->
<g id="Node000008" class="node">
<title>Node8</title>
<g id="a_Node000008"><a xlink:href="class_logger.html#a999bb33f7cf079cb98f32fae6016a2f3" target="_top" xlink:title="Функция, которая записывает сообщение в файл.">
<polygon fill="white" stroke="#666666" points="1017.12,-20 916.38,-20 916.38,0 1017.12,0 1017.12,-20"/>
<text text-anchor="middle" x="966.75" y="-6.5" font-family="Helvetica,sans-Serif" font-size="10.00">Logger::print_to_file</text>
</a>
</g>
</g>
<!-- Node4&#45;&gt;Node8 -->
<g id="edge7_Node000004_Node000008" class="edge">
<title>Node4&#45;&gt;Node8</title>
<g id="a_edge7_Node000004_Node000008"><a xlink:title=" ">
<path fill="none" stroke="#63b8ff" d="M854.52,-56.64C867.8,-48.37 887.35,-36.9 905.5,-29 909.57,-27.23 913.86,-25.54 918.2,-23.95"/>
<polygon fill="#63b8ff" stroke="#63b8ff" points="919.03,-27.03 927.34,-20.45 916.74,-20.41 919.03,-27.03"/>
</a>
</g>
</g>
<!-- Node9&#45;&gt;Node10 -->
<g id="edge9_Node000009_Node000010" class="edge">
<title>Node9&#45;&gt;Node10</title>
<g id="a_edge9_Node000009_Node000010"><a xlink:title=" ">
<path fill="none" stroke="#63b8ff" d="M632.05,-77.48C646.38,-81.8 663.18,-86.86 678.43,-91.46"/>
<polygon fill="#63b8ff" stroke="#63b8ff" points="677.11,-95.02 687.69,-94.55 679.13,-88.31 677.11,-95.02"/>
</a>
</g>
</g>
<!-- Node9&#45;&gt;Node11 -->
<g id="edge11_Node000009_Node000011" class="edge">
<title>Node9&#45;&gt;Node11</title>
<g id="a_edge11_Node000009_Node000011"><a xlink:title=" ">
<path fill="none" stroke="#63b8ff" d="M643.5,-67C651.42,-67 659.73,-67 667.87,-67"/>
<polygon fill="#63b8ff" stroke="#63b8ff" points="667.81,-70.5 677.81,-67 667.81,-63.5 667.81,-70.5"/>
</a>
</g>
</g>
<!-- Node10&#45;&gt;Node4 -->
<g id="edge10_Node000010_Node000004" class="edge">
<title>Node10&#45;&gt;Node4</title>
<g id="a_edge10_Node000010_Node000004"><a xlink:title=" ">
<path fill="none" stroke="#63b8ff" d="M756.03,-94.52C768.3,-90.32 782.61,-85.43 795.73,-80.94"/>
<polygon fill="#63b8ff" stroke="#63b8ff" points="796.61,-84 804.94,-77.45 794.35,-77.37 796.61,-84"/>
</a>
</g>
</g>
<!-- Node11&#45;&gt;Node4 -->
<g id="edge12_Node000011_Node000004" class="edge">
<title>Node11&#45;&gt;Node4</title>
<g id="a_edge12_Node000011_Node000004"><a xlink:title=" ">
<path fill="none" stroke="#63b8ff" d="M769.93,-67C777.98,-67 786.34,-67 794.32,-67"/>
<polygon fill="#63b8ff" stroke="#63b8ff" points="794.25,-70.5 804.25,-67 794.25,-63.5 794.25,-70.5"/>
</a>
</g>
</g>
<!-- Node12&#45;&gt;Node4 -->
<g id="edge16_Node000012_Node000004" class="edge">
<title>Node12&#45;&gt;Node4</title>
<g id="a_edge16_Node000012_Node000004"><a xlink:title=" ">
<path fill="none" stroke="#63b8ff" d="M378.92,-27.59C392.35,-24.12 407.89,-20.71 422.25,-19 511.84,-8.33 740.19,-26.26 769.5,-34 783.8,-37.77 798.66,-44.74 810.74,-51.3"/>
<polygon fill="#63b8ff" stroke="#63b8ff" points="808.73,-54.75 819.16,-56.63 812.18,-48.66 808.73,-54.75"/>
</a>
</g>
</g>
<!-- Node13 -->
<g id="Node000013" class="node">
<title>Node13</title>
<g id="a_Node000013"><a xlink:href="class_visa_device.html#a70a6c6ace7c5841db420c1e112782a53" target="_top" xlink:title=" ">
<polygon fill="white" stroke="#666666" points="510.62,-48 424.88,-48 424.88,-28 510.62,-28 510.62,-48"/>
<text text-anchor="middle" x="467.75" y="-34.5" font-family="Helvetica,sans-Serif" font-size="10.00">VisaDevice::opc</text>
</a>
</g>
</g>
<!-- Node12&#45;&gt;Node13 -->
<g id="edge17_Node000012_Node000013" class="edge">
<title>Node12&#45;&gt;Node13</title>
<g id="a_edge17_Node000012_Node000013"><a xlink:title=" ">
<path fill="none" stroke="#63b8ff" d="M386.69,-38C395.46,-38 404.79,-38 413.86,-38"/>
<polygon fill="#63b8ff" stroke="#63b8ff" points="413.75,-41.5 423.75,-38 413.75,-34.5 413.75,-41.5"/>
</a>
</g>
</g>
<!-- Node13&#45;&gt;Node4 -->
<g id="edge18_Node000013_Node000004" class="edge">
<title>Node13&#45;&gt;Node4</title>
<g id="a_edge18_Node000013_Node000004"><a xlink:title=" ">
<path fill="none" stroke="#63b8ff" d="M510.89,-36.2C569.34,-34.42 678.14,-33.74 769.5,-48 777.9,-49.31 786.74,-51.33 795.14,-53.58"/>
<polygon fill="#63b8ff" stroke="#63b8ff" points="793.92,-57.15 804.49,-56.51 795.82,-50.42 793.92,-57.15"/>
</a>
</g>
</g>
<!-- Node13&#45;&gt;Node9 -->
<g id="edge19_Node000013_Node000009" class="edge">
<title>Node13&#45;&gt;Node9</title>
<g id="a_edge19_Node000013_Node000009"><a xlink:title=" ">
<path fill="none" stroke="#63b8ff" d="M510.87,-47.66C519.96,-49.74 529.7,-51.97 539.22,-54.16"/>
<polygon fill="#63b8ff" stroke="#63b8ff" points="538.31,-57.77 548.83,-56.59 539.87,-50.94 538.31,-57.77"/>
</a>
</g>
</g>
</g>
</svg>
