<?xml version="1.0" encoding="UTF-8" standalone="no"?>
<!DOCTYPE svg PUBLIC "-//W3C//DTD SVG 1.1//EN"
 "http://www.w3.org/Graphics/SVG/1.1/DTD/svg11.dtd">
<!-- Generated by graphviz version 8.0.5 (20230430.1635)
 -->
<!-- Title: VisaDevice::wait Pages: 1 -->
<svg width="732pt" height="142pt"
 viewBox="0.00 0.00 731.75 142.00" xmlns="http://www.w3.org/2000/svg" xmlns:xlink="http://www.w3.org/1999/xlink">
<g id="graph0" class="graph" transform="scale(1 1) rotate(0) translate(4 138)">
<title>VisaDevice::wait</title>
<!-- Node1 -->
<g id="Node000001" class="node">
<title>Node1</title>
<g id="a_Node000001"><a xlink:title="Ожидание завершения выполнения команды.">
<polygon fill="#999999" stroke="#666666" points="87.25,-115 0,-115 0,-95 87.25,-95 87.25,-115"/>
<text text-anchor="middle" x="43.62" y="-101.5" font-family="Helvetica,sans-Serif" font-size="10.00">VisaDevice::wait</text>
</a>
</g>
</g>
<!-- Node2 -->
<g id="Node000002" class="node">
<title>Node2</title>
<g id="a_Node000002"><a xlink:href="class_logger.html#af7709105c2708359b7b082218f4cc3e1" target="_top" xlink:title="Метод, осуществляющий логирование">
<polygon fill="white" stroke="#666666" points="565.25,-77 501.25,-77 501.25,-57 565.25,-57 565.25,-77"/>
<text text-anchor="middle" x="533.25" y="-63.5" font-family="Helvetica,sans-Serif" font-size="10.00">Logger::log</text>
</a>
</g>
</g>
<!-- Node1&#45;&gt;Node2 -->
<g id="edge1_Node000001_Node000002" class="edge">
<title>Node1&#45;&gt;Node2</title>
<g id="a_edge1_Node000001_Node000002"><a xlink:title=" ">
<path fill="none" stroke="#63b8ff" d="M87.72,-106.72C164.34,-108.96 329.03,-110.11 465.25,-86 473.45,-84.55 482.08,-82.51 490.32,-80.29"/>
<polygon fill="#63b8ff" stroke="#63b8ff" points="491.18,-83.4 499.86,-77.32 489.28,-76.67 491.18,-83.4"/>
</a>
</g>
</g>
<!-- Node7 -->
<g id="Node000007" class="node">
<title>Node7</title>
<g id="a_Node000007"><a xlink:href="class_visa_device.html#a70a6c6ace7c5841db420c1e112782a53" target="_top" xlink:title="Отправляет команду &quot;*OPC?&quot; на подключенное устройство, ожидает ответ и, в зависимости от полученного ...">
<polygon fill="white" stroke="#666666" points="209,-96 123.25,-96 123.25,-76 209,-76 209,-96"/>
<text text-anchor="middle" x="166.12" y="-82.5" font-family="Helvetica,sans-Serif" font-size="10.00">VisaDevice::opc</text>
</a>
</g>
</g>
<!-- Node1&#45;&gt;Node7 -->
<g id="edge6_Node000001_Node000007" class="edge">
<title>Node1&#45;&gt;Node7</title>
<g id="a_edge6_Node000001_Node000007"><a xlink:title=" ">
<path fill="none" stroke="#63b8ff" d="M87.45,-98.25C95.44,-96.99 103.89,-95.66 112.15,-94.35"/>
<polygon fill="#63b8ff" stroke="#63b8ff" points="112.51,-97.68 121.85,-92.67 111.42,-90.77 112.51,-97.68"/>
</a>
</g>
</g>
<!-- Node3 -->
<g id="Node000003" class="node">
<title>Node3</title>
<g id="a_Node000003"><a xlink:href="logger_8hpp.html#a49284b7befa8e31f81e01ee8f3735dd0" target="_top" xlink:title="Функция, которая снимает значение текущего времени и конвертирует его в строку с заданным шаблоном.">
<polygon fill="white" stroke="#666666" points="706.88,-134 618.12,-134 618.12,-114 706.88,-114 706.88,-134"/>
<text text-anchor="middle" x="662.5" y="-120.5" font-family="Helvetica,sans-Serif" font-size="10.00">get_current_time</text>
</a>
</g>
</g>
<!-- Node2&#45;&gt;Node3 -->
<g id="edge2_Node000002_Node000003" class="edge">
<title>Node2&#45;&gt;Node3</title>
<g id="a_edge2_Node000002_Node000003"><a xlink:title=" ">
<path fill="none" stroke="#63b8ff" d="M550.27,-77.36C563.55,-85.63 583.1,-97.1 601.25,-105 605.32,-106.77 609.61,-108.46 613.95,-110.05"/>
<polygon fill="#63b8ff" stroke="#63b8ff" points="612.49,-113.59 623.09,-113.55 614.78,-106.97 612.49,-113.59"/>
</a>
</g>
</g>
<!-- Node4 -->
<g id="Node000004" class="node">
<title>Node4</title>
<g id="a_Node000004"><a xlink:href="class_logger.html#a6edb7b263f080d417b82a537ed50fee4" target="_top" xlink:title="Возвращает тег в зависимости от уровня логирования и от назначения тега.">
<polygon fill="white" stroke="#666666" points="704.25,-96 620.75,-96 620.75,-76 704.25,-76 704.25,-96"/>
<text text-anchor="middle" x="662.5" y="-82.5" font-family="Helvetica,sans-Serif" font-size="10.00">Logger::get_tag</text>
</a>
</g>
</g>
<!-- Node2&#45;&gt;Node4 -->
<g id="edge3_Node000002_Node000004" class="edge">
<title>Node2&#45;&gt;Node4</title>
<g id="a_edge3_Node000002_Node000004"><a xlink:title=" ">
<path fill="none" stroke="#63b8ff" d="M565.71,-71.7C578.97,-73.68 594.77,-76.04 609.67,-78.26"/>
<polygon fill="#63b8ff" stroke="#63b8ff" points="608.91,-81.84 619.32,-79.85 609.94,-74.91 608.91,-81.84"/>
</a>
</g>
</g>
<!-- Node5 -->
<g id="Node000005" class="node">
<title>Node5</title>
<g id="a_Node000005"><a xlink:href="class_logger.html#a4825613142ebb093bf8fa26f21f7f3fc" target="_top" xlink:title="Метод, который выводит сообщение в консоль.">
<polygon fill="white" stroke="#666666" points="723.75,-58 601.25,-58 601.25,-38 723.75,-38 723.75,-58"/>
<text text-anchor="middle" x="662.5" y="-44.5" font-family="Helvetica,sans-Serif" font-size="10.00">Logger::print_to_console</text>
</a>
</g>
</g>
<!-- Node2&#45;&gt;Node5 -->
<g id="edge4_Node000002_Node000005" class="edge">
<title>Node2&#45;&gt;Node5</title>
<g id="a_edge4_Node000002_Node000005"><a xlink:title=" ">
<path fill="none" stroke="#63b8ff" d="M565.71,-62.3C573.21,-61.18 581.52,-59.94 590.03,-58.67"/>
<polygon fill="#63b8ff" stroke="#63b8ff" points="590.48,-61.99 599.85,-57.06 589.44,-55.07 590.48,-61.99"/>
</a>
</g>
</g>
<!-- Node6 -->
<g id="Node000006" class="node">
<title>Node6</title>
<g id="a_Node000006"><a xlink:href="class_logger.html#a999bb33f7cf079cb98f32fae6016a2f3" target="_top" xlink:title="Метод, который записывает сообщение в файл.">
<polygon fill="white" stroke="#666666" points="712.88,-20 612.12,-20 612.12,0 712.88,0 712.88,-20"/>
<text text-anchor="middle" x="662.5" y="-6.5" font-family="Helvetica,sans-Serif" font-size="10.00">Logger::print_to_file</text>
</a>
</g>
</g>
<!-- Node2&#45;&gt;Node6 -->
<g id="edge5_Node000002_Node000006" class="edge">
<title>Node2&#45;&gt;Node6</title>
<g id="a_edge5_Node000002_Node000006"><a xlink:title=" ">
<path fill="none" stroke="#63b8ff" d="M550.27,-56.64C563.55,-48.37 583.1,-36.9 601.25,-29 605.32,-27.23 609.61,-25.54 613.95,-23.95"/>
<polygon fill="#63b8ff" stroke="#63b8ff" points="614.78,-27.03 623.09,-20.45 612.49,-20.41 614.78,-27.03"/>
</a>
</g>
</g>
<!-- Node7&#45;&gt;Node2 -->
<g id="edge7_Node000007_Node000002" class="edge">
<title>Node7&#45;&gt;Node2</title>
<g id="a_edge7_Node000007_Node000002"><a xlink:title=" ">
<path fill="none" stroke="#63b8ff" d="M209.37,-83.8C279.75,-80.14 420.2,-72.83 490.36,-69.18"/>
<polygon fill="#63b8ff" stroke="#63b8ff" points="490.19,-72.64 499.99,-68.63 489.82,-65.65 490.19,-72.64"/>
</a>
</g>
</g>
<!-- Node8 -->
<g id="Node000008" class="node">
<title>Node8</title>
<g id="a_Node000008"><a xlink:href="class_visa_device.html#aa807192fd9a8c3e6efc458f78de5e73e" target="_top" xlink:title="Метод, совмещающий в себе методы write() и read().">
<polygon fill="white" stroke="#666666" points="339,-58 245,-58 245,-38 339,-38 339,-58"/>
<text text-anchor="middle" x="292" y="-44.5" font-family="Helvetica,sans-Serif" font-size="10.00">VisaDevice::query</text>
</a>
</g>
</g>
<!-- Node7&#45;&gt;Node8 -->
<g id="edge8_Node000007_Node000008" class="edge">
<title>Node7&#45;&gt;Node8</title>
<g id="a_edge8_Node000007_Node000008"><a xlink:title=" ">
<path fill="none" stroke="#63b8ff" d="M201.3,-75.52C215.25,-71.24 231.56,-66.23 246.42,-61.67"/>
<polygon fill="#63b8ff" stroke="#63b8ff" points="247.4,-64.73 255.93,-58.45 245.35,-58.04 247.4,-64.73"/>
</a>
</g>
</g>
<!-- Node9 -->
<g id="Node000009" class="node">
<title>Node9</title>
<g id="a_Node000009"><a xlink:href="class_visa_device.html#aca08d9dbb0469f1143668a485e4adfe2" target="_top" xlink:title="Метод, позволяющий считать данные с устройства">
<polygon fill="white" stroke="#666666" points="464.5,-58 375.75,-58 375.75,-38 464.5,-38 464.5,-58"/>
<text text-anchor="middle" x="420.12" y="-44.5" font-family="Helvetica,sans-Serif" font-size="10.00">VisaDevice::read</text>
</a>
</g>
</g>
<!-- Node8&#45;&gt;Node9 -->
<g id="edge9_Node000008_Node000009" class="edge">
<title>Node8&#45;&gt;Node9</title>
<g id="a_edge9_Node000008_Node000009"><a xlink:title=" ">
<path fill="none" stroke="#63b8ff" d="M339.25,-48C347.46,-48 356.08,-48 364.5,-48"/>
<polygon fill="#63b8ff" stroke="#63b8ff" points="364.4,-51.5 374.4,-48 364.4,-44.5 364.4,-51.5"/>
</a>
</g>
</g>
<!-- Node10 -->
<g id="Node000010" class="node">
<title>Node10</title>
<g id="a_Node000010"><a xlink:href="class_visa_device.html#a29202c3f5e47326386d1d27972e25267" target="_top" xlink:title="Метод, позволяющий отправить команду на устройство">
<polygon fill="white" stroke="#666666" points="465.25,-20 375,-20 375,0 465.25,0 465.25,-20"/>
<text text-anchor="middle" x="420.12" y="-6.5" font-family="Helvetica,sans-Serif" font-size="10.00">VisaDevice::write</text>
</a>
</g>
</g>
<!-- Node8&#45;&gt;Node10 -->
<g id="edge11_Node000008_Node000010" class="edge">
<title>Node8&#45;&gt;Node10</title>
<g id="a_edge11_Node000008_Node000010"><a xlink:title=" ">
<path fill="none" stroke="#63b8ff" d="M327.8,-37.52C342.13,-33.2 358.93,-28.14 374.18,-23.54"/>
<polygon fill="#63b8ff" stroke="#63b8ff" points="374.88,-26.69 383.44,-20.45 372.86,-19.98 374.88,-26.69"/>
</a>
</g>
</g>
<!-- Node9&#45;&gt;Node2 -->
<g id="edge10_Node000009_Node000002" class="edge">
<title>Node9&#45;&gt;Node2</title>
<g id="a_edge10_Node000009_Node000002"><a xlink:title=" ">
<path fill="none" stroke="#63b8ff" d="M464.73,-55.45C473.1,-56.89 481.85,-58.38 490.17,-59.81"/>
<polygon fill="#63b8ff" stroke="#63b8ff" points="489.35,-63.39 499.79,-61.62 490.53,-56.49 489.35,-63.39"/>
</a>
</g>
</g>
<!-- Node10&#45;&gt;Node2 -->
<g id="edge12_Node000010_Node000002" class="edge">
<title>Node10&#45;&gt;Node2</title>
<g id="a_edge12_Node000010_Node000002"><a xlink:title=" ">
<path fill="none" stroke="#63b8ff" d="M446.54,-20.38C452.73,-23.06 459.27,-26.03 465.25,-29 478.95,-35.81 493.79,-44.12 506.01,-51.24"/>
<polygon fill="#63b8ff" stroke="#63b8ff" points="503.78,-54.58 514.18,-56.63 507.33,-48.54 503.78,-54.58"/>
</a>
</g>
</g>
</g>
</svg>
