<?xml version="1.0" encoding="UTF-8" standalone="no"?>
<!DOCTYPE svg PUBLIC "-//W3C//DTD SVG 1.1//EN"
 "http://www.w3.org/Graphics/SVG/1.1/DTD/svg11.dtd">
<!-- Generated by graphviz version 8.0.5 (20230430.1635)
 -->
<!-- Title: DeviceSet::set_path Pages: 1 -->
<svg width="411pt" height="142pt"
 viewBox="0.00 0.00 410.75 142.00" xmlns="http://www.w3.org/2000/svg" xmlns:xlink="http://www.w3.org/1999/xlink">
<g id="graph0" class="graph" transform="scale(1 1) rotate(0) translate(4 138)">
<title>DeviceSet::set_path</title>
<!-- Node1 -->
<g id="Node000001" class="node">
<title>Node1</title>
<g id="a_Node000001"><a xlink:title="Переводит переключатели в заданные положения">
<polygon fill="#999999" stroke="#666666" points="103,-58 0,-58 0,-38 103,-38 103,-58"/>
<text text-anchor="middle" x="51.5" y="-44.5" font-family="Helvetica,sans-Serif" font-size="10.00">DeviceSet::set_path</text>
</a>
</g>
</g>
<!-- Node2 -->
<g id="Node000002" class="node">
<title>Node2</title>
<g id="a_Node000002"><a xlink:href="class_logger.html#af7709105c2708359b7b082218f4cc3e1" target="_top" xlink:title="Метод, осуществляющий логирование">
<polygon fill="white" stroke="#666666" points="223.62,-77 159.62,-77 159.62,-57 223.62,-57 223.62,-77"/>
<text text-anchor="middle" x="191.62" y="-63.5" font-family="Helvetica,sans-Serif" font-size="10.00">Logger::log</text>
</a>
</g>
</g>
<!-- Node1&#45;&gt;Node2 -->
<g id="edge1_Node000001_Node000002" class="edge">
<title>Node1&#45;&gt;Node2</title>
<g id="a_edge1_Node000001_Node000002"><a xlink:title=" ">
<path fill="none" stroke="#63b8ff" d="M103.15,-54.97C118.12,-57.03 134.33,-59.26 148.69,-61.23"/>
<polygon fill="#63b8ff" stroke="#63b8ff" points="147.87,-64.79 158.26,-62.68 148.83,-57.85 147.87,-64.79"/>
</a>
</g>
</g>
<!-- Node7 -->
<g id="Node000007" class="node">
<title>Node7</title>
<g id="a_Node000007"><a xlink:href="class_vna_device.html#a0b803a51b1c38828781291cdcae07495" target="_top" xlink:title=" ">
<polygon fill="white" stroke="#666666" points="244.25,-39 139,-39 139,-19 244.25,-19 244.25,-39"/>
<text text-anchor="middle" x="191.62" y="-25.5" font-family="Helvetica,sans-Serif" font-size="10.00">VnaDevice::set_path</text>
</a>
</g>
</g>
<!-- Node1&#45;&gt;Node7 -->
<g id="edge6_Node000001_Node000007" class="edge">
<title>Node1&#45;&gt;Node7</title>
<g id="a_edge6_Node000001_Node000007"><a xlink:title=" ">
<path fill="none" stroke="#63b8ff" d="M103.15,-41.03C111.18,-39.93 119.57,-38.77 127.83,-37.64"/>
<polygon fill="#63b8ff" stroke="#63b8ff" points="128.16,-40.99 137.59,-36.16 127.21,-34.05 128.16,-40.99"/>
</a>
</g>
</g>
<!-- Node3 -->
<g id="Node000003" class="node">
<title>Node3</title>
<g id="a_Node000003"><a xlink:href="logger_8hpp.html#a49284b7befa8e31f81e01ee8f3735dd0" target="_top" xlink:title="Функция, которая снимает значение текущего времени и конвертирует его в строку с заданным шаблоном.">
<polygon fill="white" stroke="#666666" points="385.88,-134 297.12,-134 297.12,-114 385.88,-114 385.88,-134"/>
<text text-anchor="middle" x="341.5" y="-120.5" font-family="Helvetica,sans-Serif" font-size="10.00">get_current_time</text>
</a>
</g>
</g>
<!-- Node2&#45;&gt;Node3 -->
<g id="edge2_Node000002_Node000003" class="edge">
<title>Node2&#45;&gt;Node3</title>
<g id="a_edge2_Node000002_Node000003"><a xlink:title=" ">
<path fill="none" stroke="#63b8ff" d="M215.06,-77.49C232.61,-85.52 257.73,-96.59 280.25,-105 285.01,-106.78 290.02,-108.53 295.03,-110.22"/>
<polygon fill="#63b8ff" stroke="#63b8ff" points="293.65,-113.78 304.25,-113.56 295.83,-107.12 293.65,-113.78"/>
</a>
</g>
</g>
<!-- Node4 -->
<g id="Node000004" class="node">
<title>Node4</title>
<g id="a_Node000004"><a xlink:href="class_logger.html#a6edb7b263f080d417b82a537ed50fee4" target="_top" xlink:title="Возвращает тег в зависимости от уровня логирования и от назначения тега.">
<polygon fill="white" stroke="#666666" points="383.25,-96 299.75,-96 299.75,-76 383.25,-76 383.25,-96"/>
<text text-anchor="middle" x="341.5" y="-82.5" font-family="Helvetica,sans-Serif" font-size="10.00">Logger::get_tag</text>
</a>
</g>
</g>
<!-- Node2&#45;&gt;Node4 -->
<g id="edge3_Node000002_Node000004" class="edge">
<title>Node2&#45;&gt;Node4</title>
<g id="a_edge3_Node000002_Node000004"><a xlink:title=" ">
<path fill="none" stroke="#63b8ff" d="M223.99,-71.03C242.77,-73.44 267.12,-76.57 288.69,-79.34"/>
<polygon fill="#63b8ff" stroke="#63b8ff" points="287.99,-82.91 298.35,-80.71 288.88,-75.97 287.99,-82.91"/>
</a>
</g>
</g>
<!-- Node5 -->
<g id="Node000005" class="node">
<title>Node5</title>
<g id="a_Node000005"><a xlink:href="class_logger.html#a4825613142ebb093bf8fa26f21f7f3fc" target="_top" xlink:title="Метод, который выводит сообщение в консоль.">
<polygon fill="white" stroke="#666666" points="402.75,-58 280.25,-58 280.25,-38 402.75,-38 402.75,-58"/>
<text text-anchor="middle" x="341.5" y="-44.5" font-family="Helvetica,sans-Serif" font-size="10.00">Logger::print_to_console</text>
</a>
</g>
</g>
<!-- Node2&#45;&gt;Node5 -->
<g id="edge4_Node000002_Node000005" class="edge">
<title>Node2&#45;&gt;Node5</title>
<g id="a_edge4_Node000002_Node000005"><a xlink:title=" ">
<path fill="none" stroke="#63b8ff" d="M223.99,-62.97C237.21,-61.27 253.19,-59.22 269.03,-57.18"/>
<polygon fill="#63b8ff" stroke="#63b8ff" points="269.45,-60.53 278.93,-55.78 268.56,-53.59 269.45,-60.53"/>
</a>
</g>
</g>
<!-- Node6 -->
<g id="Node000006" class="node">
<title>Node6</title>
<g id="a_Node000006"><a xlink:href="class_logger.html#a999bb33f7cf079cb98f32fae6016a2f3" target="_top" xlink:title="Метод, который записывает сообщение в файл.">
<polygon fill="white" stroke="#666666" points="391.88,-20 291.12,-20 291.12,0 391.88,0 391.88,-20"/>
<text text-anchor="middle" x="341.5" y="-6.5" font-family="Helvetica,sans-Serif" font-size="10.00">Logger::print_to_file</text>
</a>
</g>
</g>
<!-- Node2&#45;&gt;Node6 -->
<g id="edge5_Node000002_Node000006" class="edge">
<title>Node2&#45;&gt;Node6</title>
<g id="a_edge5_Node000002_Node000006"><a xlink:title=" ">
<path fill="none" stroke="#63b8ff" d="M223.2,-56.51C230.19,-53.9 237.53,-50.99 244.25,-48 260.78,-40.64 263.56,-35.97 280.25,-29 284.58,-27.19 289.15,-25.46 293.75,-23.82"/>
<polygon fill="#63b8ff" stroke="#63b8ff" points="294.45,-26.94 302.8,-20.41 292.2,-20.31 294.45,-26.94"/>
</a>
</g>
</g>
</g>
</svg>
