<?xml version="1.0" encoding="UTF-8" standalone="no"?>
<!DOCTYPE svg PUBLIC "-//W3C//DTD SVG 1.1//EN"
 "http://www.w3.org/Graphics/SVG/1.1/DTD/svg11.dtd">
<!-- Generated by graphviz version 8.0.5 (20230430.1635)
 -->
<!-- Title: KeysightGen::preset Pages: 1 -->
<svg width="755pt" height="142pt"
 viewBox="0.00 0.00 755.00 142.00" xmlns="http://www.w3.org/2000/svg" xmlns:xlink="http://www.w3.org/1999/xlink">
<g id="graph0" class="graph" transform="scale(1 1) rotate(0) translate(4 138)">
<title>KeysightGen::preset</title>
<!-- Node1 -->
<g id="Node000001" class="node">
<title>Node1</title>
<g id="a_Node000001"><a xlink:title=" ">
<polygon fill="#999999" stroke="#666666" points="105.25,-58 0,-58 0,-38 105.25,-38 105.25,-58"/>
<text text-anchor="middle" x="52.62" y="-44.5" font-family="Helvetica,sans-Serif" font-size="10.00">KeysightGen::preset</text>
</a>
</g>
</g>
<!-- Node2 -->
<g id="Node000002" class="node">
<title>Node2</title>
<g id="a_Node000002"><a xlink:href="class_visa_device.html#ad659ba652605f5c983958400fde8c808" target="_top" xlink:title="Отправка данных на прибор и чтение ответа от прибора.">
<polygon fill="white" stroke="#666666" points="232.25,-58 141.25,-58 141.25,-38 232.25,-38 232.25,-58"/>
<text text-anchor="middle" x="186.75" y="-44.5" font-family="Helvetica,sans-Serif" font-size="10.00">VisaDevice::send</text>
</a>
</g>
</g>
<!-- Node1&#45;&gt;Node2 -->
<g id="edge1_Node000001_Node000002" class="edge">
<title>Node1&#45;&gt;Node2</title>
<g id="a_edge1_Node000001_Node000002"><a xlink:title=" ">
<path fill="none" stroke="#63b8ff" d="M105.47,-48C113.52,-48 121.86,-48 130,-48"/>
<polygon fill="#63b8ff" stroke="#63b8ff" points="129.91,-51.5 139.91,-48 129.91,-44.5 129.91,-51.5"/>
</a>
</g>
</g>
<!-- Node3 -->
<g id="Node000003" class="node">
<title>Node3</title>
<g id="a_Node000003"><a xlink:href="class_logger.html#af7709105c2708359b7b082218f4cc3e1" target="_top" xlink:title="Метод, осуществляющий логирование">
<polygon fill="white" stroke="#666666" points="588.5,-77 524.5,-77 524.5,-57 588.5,-57 588.5,-77"/>
<text text-anchor="middle" x="556.5" y="-63.5" font-family="Helvetica,sans-Serif" font-size="10.00">Logger::log</text>
</a>
</g>
</g>
<!-- Node2&#45;&gt;Node3 -->
<g id="edge2_Node000002_Node000003" class="edge">
<title>Node2&#45;&gt;Node3</title>
<g id="a_edge2_Node000002_Node000003"><a xlink:title=" ">
<path fill="none" stroke="#63b8ff" d="M219.58,-58.39C234.26,-62.85 252,-67.76 268.25,-71 364.48,-90.16 391.32,-99.51 488.5,-86 497.27,-84.78 506.5,-82.7 515.22,-80.36"/>
<polygon fill="#63b8ff" stroke="#63b8ff" points="515.88,-83.53 524.53,-77.41 513.95,-76.8 515.88,-83.53"/>
</a>
</g>
</g>
<!-- Node8 -->
<g id="Node000008" class="node">
<title>Node8</title>
<g id="a_Node000008"><a xlink:href="class_visa_device.html#aa807192fd9a8c3e6efc458f78de5e73e" target="_top" xlink:title="Метод, совмещающий в себе методы write() и read().">
<polygon fill="white" stroke="#666666" points="362.25,-39 268.25,-39 268.25,-19 362.25,-19 362.25,-39"/>
<text text-anchor="middle" x="315.25" y="-25.5" font-family="Helvetica,sans-Serif" font-size="10.00">VisaDevice::query</text>
</a>
</g>
</g>
<!-- Node2&#45;&gt;Node8 -->
<g id="edge7_Node000002_Node000008" class="edge">
<title>Node2&#45;&gt;Node8</title>
<g id="a_edge7_Node000002_Node000008"><a xlink:title=" ">
<path fill="none" stroke="#63b8ff" d="M232.71,-41.25C240.7,-40.05 249.13,-38.78 257.41,-37.54"/>
<polygon fill="#63b8ff" stroke="#63b8ff" points="257.79,-40.87 267.16,-35.92 256.75,-33.95 257.79,-40.87"/>
</a>
</g>
</g>
<!-- Node9 -->
<g id="Node000009" class="node">
<title>Node9</title>
<g id="a_Node000009"><a xlink:href="class_visa_device.html#aca08d9dbb0469f1143668a485e4adfe2" target="_top" xlink:title="Метод, позволяющий считать данные с устройства">
<polygon fill="white" stroke="#666666" points="487.75,-77 399,-77 399,-57 487.75,-57 487.75,-77"/>
<text text-anchor="middle" x="443.38" y="-63.5" font-family="Helvetica,sans-Serif" font-size="10.00">VisaDevice::read</text>
</a>
</g>
</g>
<!-- Node2&#45;&gt;Node9 -->
<g id="edge12_Node000002_Node000009" class="edge">
<title>Node2&#45;&gt;Node9</title>
<g id="a_edge12_Node000002_Node000009"><a xlink:title=" ">
<path fill="none" stroke="#63b8ff" d="M232.69,-51.35C276.04,-54.59 341.72,-59.49 388,-62.94"/>
<polygon fill="#63b8ff" stroke="#63b8ff" points="387.51,-66.49 397.74,-63.74 388.03,-59.51 387.51,-66.49"/>
</a>
</g>
</g>
<!-- Node10 -->
<g id="Node000010" class="node">
<title>Node10</title>
<g id="a_Node000010"><a xlink:href="class_visa_device.html#a29202c3f5e47326386d1d27972e25267" target="_top" xlink:title="Метод, позволяющий отправить команду на устройство">
<polygon fill="white" stroke="#666666" points="488.5,-39 398.25,-39 398.25,-19 488.5,-19 488.5,-39"/>
<text text-anchor="middle" x="443.38" y="-25.5" font-family="Helvetica,sans-Serif" font-size="10.00">VisaDevice::write</text>
</a>
</g>
</g>
<!-- Node2&#45;&gt;Node10 -->
<g id="edge13_Node000002_Node000010" class="edge">
<title>Node2&#45;&gt;Node10</title>
<g id="a_edge13_Node000002_Node000010"><a xlink:title=" ">
<path fill="none" stroke="#63b8ff" d="M204.23,-37.55C219.98,-28.23 244.72,-15.27 268.25,-10 311.41,-0.32 361.74,-7.78 397.15,-16.02"/>
<polygon fill="#63b8ff" stroke="#63b8ff" points="396.1,-19.61 406.64,-18.58 397.76,-12.81 396.1,-19.61"/>
</a>
</g>
</g>
<!-- Node4 -->
<g id="Node000004" class="node">
<title>Node4</title>
<g id="a_Node000004"><a xlink:href="logger_8hpp.html#a49284b7befa8e31f81e01ee8f3735dd0" target="_top" xlink:title="Функция, которая снимает значение текущего времени и конвертирует его в строку с заданным шаблоном.">
<polygon fill="white" stroke="#666666" points="730.12,-134 641.38,-134 641.38,-114 730.12,-114 730.12,-134"/>
<text text-anchor="middle" x="685.75" y="-120.5" font-family="Helvetica,sans-Serif" font-size="10.00">get_current_time</text>
</a>
</g>
</g>
<!-- Node3&#45;&gt;Node4 -->
<g id="edge3_Node000003_Node000004" class="edge">
<title>Node3&#45;&gt;Node4</title>
<g id="a_edge3_Node000003_Node000004"><a xlink:title=" ">
<path fill="none" stroke="#63b8ff" d="M573.52,-77.36C586.8,-85.63 606.35,-97.1 624.5,-105 628.57,-106.77 632.86,-108.46 637.2,-110.05"/>
<polygon fill="#63b8ff" stroke="#63b8ff" points="635.74,-113.59 646.34,-113.55 638.03,-106.97 635.74,-113.59"/>
</a>
</g>
</g>
<!-- Node5 -->
<g id="Node000005" class="node">
<title>Node5</title>
<g id="a_Node000005"><a xlink:href="class_logger.html#a6edb7b263f080d417b82a537ed50fee4" target="_top" xlink:title="Возвращает тег в зависимости от уровня логирования и от назначения тега.">
<polygon fill="white" stroke="#666666" points="727.5,-96 644,-96 644,-76 727.5,-76 727.5,-96"/>
<text text-anchor="middle" x="685.75" y="-82.5" font-family="Helvetica,sans-Serif" font-size="10.00">Logger::get_tag</text>
</a>
</g>
</g>
<!-- Node3&#45;&gt;Node5 -->
<g id="edge4_Node000003_Node000005" class="edge">
<title>Node3&#45;&gt;Node5</title>
<g id="a_edge4_Node000003_Node000005"><a xlink:title=" ">
<path fill="none" stroke="#63b8ff" d="M588.96,-71.7C602.22,-73.68 618.02,-76.04 632.92,-78.26"/>
<polygon fill="#63b8ff" stroke="#63b8ff" points="632.16,-81.84 642.57,-79.85 633.19,-74.91 632.16,-81.84"/>
</a>
</g>
</g>
<!-- Node6 -->
<g id="Node000006" class="node">
<title>Node6</title>
<g id="a_Node000006"><a xlink:href="class_logger.html#a4825613142ebb093bf8fa26f21f7f3fc" target="_top" xlink:title="Метод, который выводит сообщение в консоль.">
<polygon fill="white" stroke="#666666" points="747,-58 624.5,-58 624.5,-38 747,-38 747,-58"/>
<text text-anchor="middle" x="685.75" y="-44.5" font-family="Helvetica,sans-Serif" font-size="10.00">Logger::print_to_console</text>
</a>
</g>
</g>
<!-- Node3&#45;&gt;Node6 -->
<g id="edge5_Node000003_Node000006" class="edge">
<title>Node3&#45;&gt;Node6</title>
<g id="a_edge5_Node000003_Node000006"><a xlink:title=" ">
<path fill="none" stroke="#63b8ff" d="M588.96,-62.3C596.46,-61.18 604.77,-59.94 613.28,-58.67"/>
<polygon fill="#63b8ff" stroke="#63b8ff" points="613.73,-61.99 623.1,-57.06 612.69,-55.07 613.73,-61.99"/>
</a>
</g>
</g>
<!-- Node7 -->
<g id="Node000007" class="node">
<title>Node7</title>
<g id="a_Node000007"><a xlink:href="class_logger.html#a999bb33f7cf079cb98f32fae6016a2f3" target="_top" xlink:title="Метод, который записывает сообщение в файл.">
<polygon fill="white" stroke="#666666" points="736.12,-20 635.38,-20 635.38,0 736.12,0 736.12,-20"/>
<text text-anchor="middle" x="685.75" y="-6.5" font-family="Helvetica,sans-Serif" font-size="10.00">Logger::print_to_file</text>
</a>
</g>
</g>
<!-- Node3&#45;&gt;Node7 -->
<g id="edge6_Node000003_Node000007" class="edge">
<title>Node3&#45;&gt;Node7</title>
<g id="a_edge6_Node000003_Node000007"><a xlink:title=" ">
<path fill="none" stroke="#63b8ff" d="M573.52,-56.64C586.8,-48.37 606.35,-36.9 624.5,-29 628.57,-27.23 632.86,-25.54 637.2,-23.95"/>
<polygon fill="#63b8ff" stroke="#63b8ff" points="638.03,-27.03 646.34,-20.45 635.74,-20.41 638.03,-27.03"/>
</a>
</g>
</g>
<!-- Node8&#45;&gt;Node9 -->
<g id="edge8_Node000008_Node000009" class="edge">
<title>Node8&#45;&gt;Node9</title>
<g id="a_edge8_Node000008_Node000009"><a xlink:title=" ">
<path fill="none" stroke="#63b8ff" d="M351.05,-39.48C365.38,-43.8 382.18,-48.86 397.43,-53.46"/>
<polygon fill="#63b8ff" stroke="#63b8ff" points="396.11,-57.02 406.69,-56.55 398.13,-50.31 396.11,-57.02"/>
</a>
</g>
</g>
<!-- Node8&#45;&gt;Node10 -->
<g id="edge10_Node000008_Node000010" class="edge">
<title>Node8&#45;&gt;Node10</title>
<g id="a_edge10_Node000008_Node000010"><a xlink:title=" ">
<path fill="none" stroke="#63b8ff" d="M362.5,-29C370.42,-29 378.73,-29 386.87,-29"/>
<polygon fill="#63b8ff" stroke="#63b8ff" points="386.81,-32.5 396.81,-29 386.81,-25.5 386.81,-32.5"/>
</a>
</g>
</g>
<!-- Node9&#45;&gt;Node3 -->
<g id="edge9_Node000009_Node000003" class="edge">
<title>Node9&#45;&gt;Node3</title>
<g id="a_edge9_Node000009_Node000003"><a xlink:title=" ">
<path fill="none" stroke="#63b8ff" d="M487.98,-67C496.25,-67 504.9,-67 513.14,-67"/>
<polygon fill="#63b8ff" stroke="#63b8ff" points="513.04,-70.5 523.04,-67 513.04,-63.5 513.04,-70.5"/>
</a>
</g>
</g>
<!-- Node10&#45;&gt;Node3 -->
<g id="edge11_Node000010_Node000003" class="edge">
<title>Node10&#45;&gt;Node3</title>
<g id="a_edge11_Node000010_Node000003"><a xlink:title=" ">
<path fill="none" stroke="#63b8ff" d="M475.03,-39.48C487.3,-43.68 501.61,-48.57 514.73,-53.06"/>
<polygon fill="#63b8ff" stroke="#63b8ff" points="513.35,-56.63 523.94,-56.55 515.61,-50 513.35,-56.63"/>
</a>
</g>
</g>
</g>
</svg>
