<?xml version="1.0" encoding="UTF-8" standalone="no"?>
<!DOCTYPE svg PUBLIC "-//W3C//DTD SVG 1.1//EN"
 "http://www.w3.org/Graphics/SVG/1.1/DTD/svg11.dtd">
<!-- Generated by graphviz version 8.0.5 (20230430.1635)
 -->
<!-- Title: DeviceSet::get_current_angles Pages: 1 -->
<svg width="439pt" height="40pt"
 viewBox="0.00 0.00 439.25 40.00" xmlns="http://www.w3.org/2000/svg" xmlns:xlink="http://www.w3.org/1999/xlink">
<g id="graph0" class="graph" transform="scale(1 1) rotate(0) translate(4 36)">
<title>DeviceSet::get_current_angles</title>
<!-- Node1 -->
<g id="Node000001" class="node">
<title>Node1</title>
<g id="a_Node000001"><a xlink:title="Получает список углов, на которые развёрнуты оси ОПУ">
<polygon fill="#999999" stroke="#666666" points="431.25,-32 317,-32 317,0 431.25,0 431.25,-32"/>
<text text-anchor="start" x="325" y="-18.5" font-family="Helvetica,sans-Serif" font-size="10.00">DeviceSet::get_current</text>
<text text-anchor="middle" x="374.12" y="-6.5" font-family="Helvetica,sans-Serif" font-size="10.00">_angles</text>
</a>
</g>
</g>
<!-- Node2 -->
<g id="Node000002" class="node">
<title>Node2</title>
<g id="a_Node000002"><a xlink:href="class_device_set.html#acd9efc5319ee177c97aef57f98469d0d" target="_top" xlink:title="Метод, осуществляющий проведение измерения и получение результатов измерения">
<polygon fill="white" stroke="#666666" points="281,-26 178,-26 178,-6 281,-6 281,-26"/>
<text text-anchor="middle" x="229.5" y="-12.5" font-family="Helvetica,sans-Serif" font-size="10.00">DeviceSet::get_data</text>
</a>
</g>
</g>
<!-- Node1&#45;&gt;Node2 -->
<g id="edge1_Node000001_Node000002" class="edge">
<title>Node1&#45;&gt;Node2</title>
<g id="a_edge1_Node000001_Node000002"><a xlink:title=" ">
<path fill="none" stroke="#63b8ff" d="M305.96,-16C297.69,-16 289.34,-16 281.37,-16"/>
<polygon fill="#63b8ff" stroke="#63b8ff" points="305.76,-19.5 315.76,-16 305.76,-12.5 305.76,-19.5"/>
</a>
</g>
</g>
<!-- Node3 -->
<g id="Node000003" class="node">
<title>Node3</title>
<g id="a_Node000003"><a xlink:href="class_task_manager.html#a7b3231694b87f589a6e4b9a01e67bfe9" target="_top" xlink:title="Метод, обрабатывающий задание на проведение измерения и сбор данных">
<polygon fill="white" stroke="#666666" points="142,-26 0,-26 0,-6 142,-6 142,-26"/>
<text text-anchor="middle" x="71" y="-12.5" font-family="Helvetica,sans-Serif" font-size="10.00">TaskManager::get_data_task</text>
</a>
</g>
</g>
<!-- Node2&#45;&gt;Node3 -->
<g id="edge2_Node000002_Node000003" class="edge">
<title>Node2&#45;&gt;Node3</title>
<g id="a_edge2_Node000002_Node000003"><a xlink:title=" ">
<path fill="none" stroke="#63b8ff" d="M166.93,-16C158.9,-16 150.62,-16 142.46,-16"/>
<polygon fill="#63b8ff" stroke="#63b8ff" points="166.69,-19.5 176.69,-16 166.69,-12.5 166.69,-19.5"/>
</a>
</g>
</g>
</g>
</svg>
