<?xml version="1.0" encoding="UTF-8" standalone="no"?>
<!DOCTYPE svg PUBLIC "-//W3C//DTD SVG 1.1//EN"
 "http://www.w3.org/Graphics/SVG/1.1/DTD/svg11.dtd">
<!-- Generated by graphviz version 8.0.5 (20230430.1635)
 -->
<!-- Title: VisaDevice::idn Pages: 1 -->
<svg width="606pt" height="142pt"
 viewBox="0.00 0.00 605.50 142.00" xmlns="http://www.w3.org/2000/svg" xmlns:xlink="http://www.w3.org/1999/xlink">
<g id="graph0" class="graph" transform="scale(1 1) rotate(0) translate(4 138)">
<title>VisaDevice::idn</title>
<!-- Node1 -->
<g id="Node000001" class="node">
<title>Node1</title>
<g id="a_Node000001"><a xlink:title="Отправляет команду &quot;*IDN?&quot; на подключенное устройство и ожидает ответа">
<polygon fill="#999999" stroke="#666666" points="82.75,-96 0,-96 0,-76 82.75,-76 82.75,-96"/>
<text text-anchor="middle" x="41.38" y="-82.5" font-family="Helvetica,sans-Serif" font-size="10.00">VisaDevice::idn</text>
</a>
</g>
</g>
<!-- Node2 -->
<g id="Node000002" class="node">
<title>Node2</title>
<g id="a_Node000002"><a xlink:href="class_logger.html#af7709105c2708359b7b082218f4cc3e1" target="_top" xlink:title="Метод, осуществляющий логирование">
<polygon fill="white" stroke="#666666" points="439,-77 375,-77 375,-57 439,-57 439,-77"/>
<text text-anchor="middle" x="407" y="-63.5" font-family="Helvetica,sans-Serif" font-size="10.00">Logger::log</text>
</a>
</g>
</g>
<!-- Node1&#45;&gt;Node2 -->
<g id="edge1_Node000001_Node000002" class="edge">
<title>Node1&#45;&gt;Node2</title>
<g id="a_edge1_Node000001_Node000002"><a xlink:title=" ">
<path fill="none" stroke="#63b8ff" d="M82.92,-89.52C140.27,-93.69 248.21,-98.62 339,-86 347.77,-84.78 357,-82.7 365.72,-80.36"/>
<polygon fill="#63b8ff" stroke="#63b8ff" points="366.38,-83.53 375.03,-77.41 364.45,-76.8 366.38,-83.53"/>
</a>
</g>
</g>
<!-- Node7 -->
<g id="Node000007" class="node">
<title>Node7</title>
<g id="a_Node000007"><a xlink:href="class_visa_device.html#aa807192fd9a8c3e6efc458f78de5e73e" target="_top" xlink:title="Метод, совмещающий в себе методы write() и read().">
<polygon fill="white" stroke="#666666" points="212.75,-77 118.75,-77 118.75,-57 212.75,-57 212.75,-77"/>
<text text-anchor="middle" x="165.75" y="-63.5" font-family="Helvetica,sans-Serif" font-size="10.00">VisaDevice::query</text>
</a>
</g>
</g>
<!-- Node1&#45;&gt;Node7 -->
<g id="edge6_Node000001_Node000007" class="edge">
<title>Node1&#45;&gt;Node7</title>
<g id="a_edge6_Node000001_Node000007"><a xlink:title=" ">
<path fill="none" stroke="#63b8ff" d="M83.12,-79.67C90.96,-78.46 99.29,-77.16 107.53,-75.88"/>
<polygon fill="#63b8ff" stroke="#63b8ff" points="107.91,-79.21 117.26,-74.22 106.84,-72.29 107.91,-79.21"/>
</a>
</g>
</g>
<!-- Node3 -->
<g id="Node000003" class="node">
<title>Node3</title>
<g id="a_Node000003"><a xlink:href="logger_8hpp.html#a49284b7befa8e31f81e01ee8f3735dd0" target="_top" xlink:title="Функция, которая снимает значение текущего времени и конвертирует его в строку с заданным шаблоном.">
<polygon fill="white" stroke="#666666" points="580.62,-134 491.88,-134 491.88,-114 580.62,-114 580.62,-134"/>
<text text-anchor="middle" x="536.25" y="-120.5" font-family="Helvetica,sans-Serif" font-size="10.00">get_current_time</text>
</a>
</g>
</g>
<!-- Node2&#45;&gt;Node3 -->
<g id="edge2_Node000002_Node000003" class="edge">
<title>Node2&#45;&gt;Node3</title>
<g id="a_edge2_Node000002_Node000003"><a xlink:title=" ">
<path fill="none" stroke="#63b8ff" d="M424.02,-77.36C437.3,-85.63 456.85,-97.1 475,-105 479.07,-106.77 483.36,-108.46 487.7,-110.05"/>
<polygon fill="#63b8ff" stroke="#63b8ff" points="486.24,-113.59 496.84,-113.55 488.53,-106.97 486.24,-113.59"/>
</a>
</g>
</g>
<!-- Node4 -->
<g id="Node000004" class="node">
<title>Node4</title>
<g id="a_Node000004"><a xlink:href="class_logger.html#a6edb7b263f080d417b82a537ed50fee4" target="_top" xlink:title="Возвращает тег в зависимости от уровня логирования и от назначения тега.">
<polygon fill="white" stroke="#666666" points="578,-96 494.5,-96 494.5,-76 578,-76 578,-96"/>
<text text-anchor="middle" x="536.25" y="-82.5" font-family="Helvetica,sans-Serif" font-size="10.00">Logger::get_tag</text>
</a>
</g>
</g>
<!-- Node2&#45;&gt;Node4 -->
<g id="edge3_Node000002_Node000004" class="edge">
<title>Node2&#45;&gt;Node4</title>
<g id="a_edge3_Node000002_Node000004"><a xlink:title=" ">
<path fill="none" stroke="#63b8ff" d="M439.46,-71.7C452.72,-73.68 468.52,-76.04 483.42,-78.26"/>
<polygon fill="#63b8ff" stroke="#63b8ff" points="482.66,-81.84 493.07,-79.85 483.69,-74.91 482.66,-81.84"/>
</a>
</g>
</g>
<!-- Node5 -->
<g id="Node000005" class="node">
<title>Node5</title>
<g id="a_Node000005"><a xlink:href="class_logger.html#a4825613142ebb093bf8fa26f21f7f3fc" target="_top" xlink:title="Метод, который выводит сообщение в консоль.">
<polygon fill="white" stroke="#666666" points="597.5,-58 475,-58 475,-38 597.5,-38 597.5,-58"/>
<text text-anchor="middle" x="536.25" y="-44.5" font-family="Helvetica,sans-Serif" font-size="10.00">Logger::print_to_console</text>
</a>
</g>
</g>
<!-- Node2&#45;&gt;Node5 -->
<g id="edge4_Node000002_Node000005" class="edge">
<title>Node2&#45;&gt;Node5</title>
<g id="a_edge4_Node000002_Node000005"><a xlink:title=" ">
<path fill="none" stroke="#63b8ff" d="M439.46,-62.3C446.96,-61.18 455.27,-59.94 463.78,-58.67"/>
<polygon fill="#63b8ff" stroke="#63b8ff" points="464.23,-61.99 473.6,-57.06 463.19,-55.07 464.23,-61.99"/>
</a>
</g>
</g>
<!-- Node6 -->
<g id="Node000006" class="node">
<title>Node6</title>
<g id="a_Node000006"><a xlink:href="class_logger.html#a999bb33f7cf079cb98f32fae6016a2f3" target="_top" xlink:title="Метод, который записывает сообщение в файл.">
<polygon fill="white" stroke="#666666" points="586.62,-20 485.88,-20 485.88,0 586.62,0 586.62,-20"/>
<text text-anchor="middle" x="536.25" y="-6.5" font-family="Helvetica,sans-Serif" font-size="10.00">Logger::print_to_file</text>
</a>
</g>
</g>
<!-- Node2&#45;&gt;Node6 -->
<g id="edge5_Node000002_Node000006" class="edge">
<title>Node2&#45;&gt;Node6</title>
<g id="a_edge5_Node000002_Node000006"><a xlink:title=" ">
<path fill="none" stroke="#63b8ff" d="M424.02,-56.64C437.3,-48.37 456.85,-36.9 475,-29 479.07,-27.23 483.36,-25.54 487.7,-23.95"/>
<polygon fill="#63b8ff" stroke="#63b8ff" points="488.53,-27.03 496.84,-20.45 486.24,-20.41 488.53,-27.03"/>
</a>
</g>
</g>
<!-- Node8 -->
<g id="Node000008" class="node">
<title>Node8</title>
<g id="a_Node000008"><a xlink:href="class_visa_device.html#aca08d9dbb0469f1143668a485e4adfe2" target="_top" xlink:title="Метод, позволяющий считать данные с устройства">
<polygon fill="white" stroke="#666666" points="338.25,-77 249.5,-77 249.5,-57 338.25,-57 338.25,-77"/>
<text text-anchor="middle" x="293.88" y="-63.5" font-family="Helvetica,sans-Serif" font-size="10.00">VisaDevice::read</text>
</a>
</g>
</g>
<!-- Node7&#45;&gt;Node8 -->
<g id="edge7_Node000007_Node000008" class="edge">
<title>Node7&#45;&gt;Node8</title>
<g id="a_edge7_Node000007_Node000008"><a xlink:title=" ">
<path fill="none" stroke="#63b8ff" d="M213,-67C221.21,-67 229.83,-67 238.25,-67"/>
<polygon fill="#63b8ff" stroke="#63b8ff" points="238.15,-70.5 248.15,-67 238.15,-63.5 238.15,-70.5"/>
</a>
</g>
</g>
<!-- Node9 -->
<g id="Node000009" class="node">
<title>Node9</title>
<g id="a_Node000009"><a xlink:href="class_visa_device.html#a29202c3f5e47326386d1d27972e25267" target="_top" xlink:title="Метод, позволяющий отправить команду на устройство">
<polygon fill="white" stroke="#666666" points="339,-39 248.75,-39 248.75,-19 339,-19 339,-39"/>
<text text-anchor="middle" x="293.88" y="-25.5" font-family="Helvetica,sans-Serif" font-size="10.00">VisaDevice::write</text>
</a>
</g>
</g>
<!-- Node7&#45;&gt;Node9 -->
<g id="edge9_Node000007_Node000009" class="edge">
<title>Node7&#45;&gt;Node9</title>
<g id="a_edge9_Node000007_Node000009"><a xlink:title=" ">
<path fill="none" stroke="#63b8ff" d="M201.55,-56.52C215.88,-52.2 232.68,-47.14 247.93,-42.54"/>
<polygon fill="#63b8ff" stroke="#63b8ff" points="248.63,-45.69 257.19,-39.45 246.61,-38.98 248.63,-45.69"/>
</a>
</g>
</g>
<!-- Node8&#45;&gt;Node2 -->
<g id="edge8_Node000008_Node000002" class="edge">
<title>Node8&#45;&gt;Node2</title>
<g id="a_edge8_Node000008_Node000002"><a xlink:title=" ">
<path fill="none" stroke="#63b8ff" d="M338.48,-67C346.75,-67 355.4,-67 363.64,-67"/>
<polygon fill="#63b8ff" stroke="#63b8ff" points="363.54,-70.5 373.54,-67 363.54,-63.5 363.54,-70.5"/>
</a>
</g>
</g>
<!-- Node9&#45;&gt;Node2 -->
<g id="edge10_Node000009_Node000002" class="edge">
<title>Node9&#45;&gt;Node2</title>
<g id="a_edge10_Node000009_Node000002"><a xlink:title=" ">
<path fill="none" stroke="#63b8ff" d="M325.53,-39.48C337.8,-43.68 352.11,-48.57 365.23,-53.06"/>
<polygon fill="#63b8ff" stroke="#63b8ff" points="363.85,-56.63 374.44,-56.55 366.11,-50 363.85,-56.63"/>
</a>
</g>
</g>
</g>
</svg>
