<?xml version="1.0" encoding="UTF-8" standalone="no"?>
<!DOCTYPE svg PUBLIC "-//W3C//DTD SVG 1.1//EN"
 "http://www.w3.org/Graphics/SVG/1.1/DTD/svg11.dtd">
<!-- Generated by graphviz version 8.1.0 (20230707.0739)
 -->
<!-- Title: TesartRbd::TesartRbd Pages: 1 -->
<svg width="431pt" height="180pt"
 viewBox="0.00 0.00 431.00 180.00" xmlns="http://www.w3.org/2000/svg" xmlns:xlink="http://www.w3.org/1999/xlink">
<g id="graph0" class="graph" transform="scale(1 1) rotate(0) translate(4 176)">
<title>TesartRbd::TesartRbd</title>
<!-- Node1 -->
<g id="Node000001" class="node">
<title>Node1</title>
<g id="a_Node000001"><a xlink:title="Конструктор, в который передаётся адрес (или список одресов, разделённых символом &#39;;&#39;)">
<polygon fill="#999999" stroke="#666666" points="110.5,-77 0,-77 0,-57 110.5,-57 110.5,-77"/>
<text text-anchor="middle" x="55.25" y="-63.5" font-family="Helvetica,sans-Serif" font-size="10.00">TesartRbd::TesartRbd</text>
</a>
</g>
</g>
<!-- Node2 -->
<g id="Node000002" class="node">
<title>Node2</title>
<g id="a_Node000002"><a xlink:href="class_rbd_device.html#a8ae479426b12f8fcd2a08c84acdc7bb5" target="_top" xlink:title="Метод инициализирующий параметры для требуемого количества осей">
<polygon fill="white" stroke="#666666" points="264.5,-134 146.5,-134 146.5,-114 264.5,-114 264.5,-134"/>
<text text-anchor="middle" x="205.5" y="-120.5" font-family="Helvetica,sans-Serif" font-size="10.00">RbdDevice::init_params</text>
</a>
</g>
</g>
<!-- Node1&#45;&gt;Node2 -->
<g id="edge1_Node000001_Node000002" class="edge">
<title>Node1&#45;&gt;Node2</title>
<g id="a_edge1_Node000001_Node000002"><a xlink:title=" ">
<path fill="none" stroke="#63b8ff" d="M79.41,-77.37C97.52,-85.33 123.41,-96.37 146.5,-105 151.03,-106.69 155.8,-108.39 160.56,-110.03"/>
<polygon fill="#63b8ff" stroke="#63b8ff" points="159.31,-113.64 169.91,-113.51 161.55,-107 159.31,-113.64"/>
</a>
</g>
</g>
<!-- Node3 -->
<g id="Node000003" class="node">
<title>Node3</title>
<g id="a_Node000003"><a xlink:href="class_logger.html#af7709105c2708359b7b082218f4cc3e1" target="_top" xlink:title="Метод, осуществляющий логирование">
<polygon fill="white" stroke="#666666" points="237.5,-96 173.5,-96 173.5,-76 237.5,-76 237.5,-96"/>
<text text-anchor="middle" x="205.5" y="-82.5" font-family="Helvetica,sans-Serif" font-size="10.00">Logger::log</text>
</a>
</g>
</g>
<!-- Node1&#45;&gt;Node3 -->
<g id="edge2_Node000001_Node000003" class="edge">
<title>Node1&#45;&gt;Node3</title>
<g id="a_edge2_Node000001_Node000003"><a xlink:title=" ">
<path fill="none" stroke="#63b8ff" d="M110.61,-73.97C127.8,-76.17 146.52,-78.57 162.69,-80.64"/>
<polygon fill="#63b8ff" stroke="#63b8ff" points="162.06,-84.22 172.42,-82.02 162.95,-77.27 162.06,-84.22"/>
</a>
</g>
</g>
<!-- Node8 -->
<g id="Node000008" class="node">
<title>Node8</title>
<g id="a_Node000008"><a xlink:href="namespacestring__utils.html#a95dbb7f33d4ea2396617ddd7953302d0" target="_top" xlink:title="Деление строки на вектор строк по заданному делителю">
<polygon fill="white" stroke="#666666" points="249.12,-58 161.88,-58 161.88,-38 249.12,-38 249.12,-58"/>
<text text-anchor="middle" x="205.5" y="-44.5" font-family="Helvetica,sans-Serif" font-size="10.00">string_utils::split</text>
</a>
</g>
</g>
<!-- Node1&#45;&gt;Node8 -->
<g id="edge7_Node000001_Node000008" class="edge">
<title>Node1&#45;&gt;Node8</title>
<g id="a_edge7_Node000001_Node000008"><a xlink:title=" ">
<path fill="none" stroke="#63b8ff" d="M110.61,-60.03C123.78,-58.35 137.85,-56.54 150.98,-54.86"/>
<polygon fill="#63b8ff" stroke="#63b8ff" points="151.28,-58.22 160.75,-53.48 150.39,-51.28 151.28,-58.22"/>
</a>
</g>
</g>
<!-- Node9 -->
<g id="Node000009" class="node">
<title>Node9</title>
<g id="a_Node000009"><a xlink:href="class_tesart_rbd.html#a650fde87d6af5531ac225689e1f912f1" target="_top" xlink:title="Запрос статуса оси ОПУ по номеру оси">
<polygon fill="white" stroke="#666666" points="252.12,-20 158.88,-20 158.88,0 252.12,0 252.12,-20"/>
<text text-anchor="middle" x="205.5" y="-6.5" font-family="Helvetica,sans-Serif" font-size="10.00">TesartRbd::status</text>
</a>
</g>
</g>
<!-- Node1&#45;&gt;Node9 -->
<g id="edge8_Node000001_Node000009" class="edge">
<title>Node1&#45;&gt;Node9</title>
<g id="a_edge8_Node000001_Node000009"><a xlink:title=" ">
<path fill="none" stroke="#63b8ff" d="M79.41,-56.63C97.52,-48.67 123.41,-37.63 146.5,-29 151.03,-27.31 155.8,-25.61 160.56,-23.97"/>
<polygon fill="#63b8ff" stroke="#63b8ff" points="161.55,-27 169.91,-20.49 159.31,-20.36 161.55,-27"/>
</a>
</g>
</g>
<!-- Node4 -->
<g id="Node000004" class="node">
<title>Node4</title>
<g id="a_Node000004"><a xlink:href="logger_8hpp.html#a49284b7befa8e31f81e01ee8f3735dd0" target="_top" xlink:title="Функция, которая снимает значение текущего времени и конвертирует его в строку с заданным шаблоном.">
<polygon fill="white" stroke="#666666" points="406.12,-172 317.38,-172 317.38,-152 406.12,-152 406.12,-172"/>
<text text-anchor="middle" x="361.75" y="-158.5" font-family="Helvetica,sans-Serif" font-size="10.00">get_current_time</text>
</a>
</g>
</g>
<!-- Node3&#45;&gt;Node4 -->
<g id="edge3_Node000003_Node000004" class="edge">
<title>Node3&#45;&gt;Node4</title>
<g id="a_edge3_Node000003_Node000004"><a xlink:title=" ">
<path fill="none" stroke="#63b8ff" d="M237.87,-93.17C246.88,-96.04 256.44,-99.9 264.5,-105 284.16,-117.45 280.78,-130.66 300.5,-143 302.94,-144.53 305.52,-145.94 308.18,-147.25"/>
<polygon fill="#63b8ff" stroke="#63b8ff" points="306.49,-150.77 317.06,-151.54 309.27,-144.35 306.49,-150.77"/>
</a>
</g>
</g>
<!-- Node5 -->
<g id="Node000005" class="node">
<title>Node5</title>
<g id="a_Node000005"><a xlink:href="class_logger.html#a6edb7b263f080d417b82a537ed50fee4" target="_top" xlink:title="Возвращает тег в зависимости от уровня логирования и от назначения тега.">
<polygon fill="white" stroke="#666666" points="403.5,-134 320,-134 320,-114 403.5,-114 403.5,-134"/>
<text text-anchor="middle" x="361.75" y="-120.5" font-family="Helvetica,sans-Serif" font-size="10.00">Logger::get_tag</text>
</a>
</g>
</g>
<!-- Node3&#45;&gt;Node5 -->
<g id="edge4_Node000003_Node000005" class="edge">
<title>Node3&#45;&gt;Node5</title>
<g id="a_edge4_Node000003_Node000005"><a xlink:title=" ">
<path fill="none" stroke="#63b8ff" d="M237.71,-93.69C258.17,-98.73 285.41,-105.44 309.06,-111.26"/>
<polygon fill="#63b8ff" stroke="#63b8ff" points="308.08,-114.88 318.63,-113.87 309.76,-108.08 308.08,-114.88"/>
</a>
</g>
</g>
<!-- Node6 -->
<g id="Node000006" class="node">
<title>Node6</title>
<g id="a_Node000006"><a xlink:href="class_logger.html#a4825613142ebb093bf8fa26f21f7f3fc" target="_top" xlink:title="Метод, который выводит сообщение в консоль.">
<polygon fill="white" stroke="#666666" points="423,-96 300.5,-96 300.5,-76 423,-76 423,-96"/>
<text text-anchor="middle" x="361.75" y="-82.5" font-family="Helvetica,sans-Serif" font-size="10.00">Logger::print_to_console</text>
</a>
</g>
</g>
<!-- Node3&#45;&gt;Node6 -->
<g id="edge5_Node000003_Node000006" class="edge">
<title>Node3&#45;&gt;Node6</title>
<g id="a_edge5_Node000003_Node000006"><a xlink:title=" ">
<path fill="none" stroke="#63b8ff" d="M237.71,-86C252.66,-86 271.21,-86 289.35,-86"/>
<polygon fill="#63b8ff" stroke="#63b8ff" points="289.24,-89.5 299.24,-86 289.24,-82.5 289.24,-89.5"/>
</a>
</g>
</g>
<!-- Node7 -->
<g id="Node000007" class="node">
<title>Node7</title>
<g id="a_Node000007"><a xlink:href="class_logger.html#a999bb33f7cf079cb98f32fae6016a2f3" target="_top" xlink:title="Метод, который записывает сообщение в файл.">
<polygon fill="white" stroke="#666666" points="412.12,-58 311.38,-58 311.38,-38 412.12,-38 412.12,-58"/>
<text text-anchor="middle" x="361.75" y="-44.5" font-family="Helvetica,sans-Serif" font-size="10.00">Logger::print_to_file</text>
</a>
</g>
</g>
<!-- Node3&#45;&gt;Node7 -->
<g id="edge6_Node000003_Node000007" class="edge">
<title>Node3&#45;&gt;Node7</title>
<g id="a_edge6_Node000003_Node000007"><a xlink:title=" ">
<path fill="none" stroke="#63b8ff" d="M237.71,-78.31C257.79,-73.36 284.4,-66.81 307.73,-61.06"/>
<polygon fill="#63b8ff" stroke="#63b8ff" points="308.31,-64.28 317.18,-58.49 306.64,-57.48 308.31,-64.28"/>
</a>
</g>
</g>
<!-- Node10 -->
<g id="Node000010" class="node">
<title>Node10</title>
<g id="a_Node000010"><a xlink:href="namespacestring__utils.html#a9fe07494ccc7914840b0d615974bc802" target="_top" xlink:title="Делит строку на две части по требуемому символу и возвращает содержимое правой части">
<polygon fill="white" stroke="#666666" points="406.88,-20 316.62,-20 316.62,0 406.88,0 406.88,-20"/>
<text text-anchor="middle" x="361.75" y="-6.5" font-family="Helvetica,sans-Serif" font-size="10.00">string_utils::lstrip</text>
</a>
</g>
</g>
<!-- Node9&#45;&gt;Node10 -->
<g id="edge9_Node000009_Node000010" class="edge">
<title>Node9&#45;&gt;Node10</title>
<g id="a_edge9_Node000009_Node000010"><a xlink:title=" ">
<path fill="none" stroke="#63b8ff" d="M252.36,-10C269.06,-10 288.1,-10 305.52,-10"/>
<polygon fill="#63b8ff" stroke="#63b8ff" points="305.13,-13.5 315.13,-10 305.13,-6.5 305.13,-13.5"/>
</a>
</g>
</g>
</g>
</svg>
