<?xml version="1.0" encoding="UTF-8" standalone="no"?>
<!DOCTYPE svg PUBLIC "-//W3C//DTD SVG 1.1//EN"
 "http://www.w3.org/Graphics/SVG/1.1/DTD/svg11.dtd">
<!-- Generated by graphviz version 8.0.5 (20230430.1635)
 -->
<!-- Title: VisaDevice::send_wait Pages: 1 -->
<svg width="887pt" height="157pt"
 viewBox="0.00 0.00 886.50 157.40" xmlns="http://www.w3.org/2000/svg" xmlns:xlink="http://www.w3.org/1999/xlink">
<g id="graph0" class="graph" transform="scale(1 1) rotate(0) translate(4 153.4)">
<title>VisaDevice::send_wait</title>
<!-- Node1 -->
<g id="Node000001" class="node">
<title>Node1</title>
<g id="a_Node000001"><a xlink:title=" ">
<polygon fill="#999999" stroke="#666666" points="113.5,-67 0,-67 0,-47 113.5,-47 113.5,-67"/>
<text text-anchor="middle" x="56.75" y="-53.5" font-family="Helvetica,sans-Serif" font-size="10.00">VisaDevice::send_wait</text>
</a>
</g>
</g>
<!-- Node2 -->
<g id="Node000002" class="node">
<title>Node2</title>
<g id="a_Node000002"><a xlink:href="class_visa_device.html#ad659ba652605f5c983958400fde8c808" target="_top" xlink:title=" ">
<polygon fill="white" stroke="#666666" points="363.75,-115 272.75,-115 272.75,-95 363.75,-95 363.75,-115"/>
<text text-anchor="middle" x="318.25" y="-101.5" font-family="Helvetica,sans-Serif" font-size="10.00">VisaDevice::send</text>
</a>
</g>
</g>
<!-- Node1&#45;&gt;Node2 -->
<g id="edge1_Node000001_Node000002" class="edge">
<title>Node1&#45;&gt;Node2</title>
<g id="a_edge1_Node000001_Node000002"><a xlink:title=" ">
<path fill="none" stroke="#63b8ff" d="M113.74,-67.36C157.55,-75.46 218.18,-86.67 261.84,-94.75"/>
<polygon fill="#63b8ff" stroke="#63b8ff" points="261.09,-98.36 271.56,-96.73 262.36,-91.47 261.09,-98.36"/>
</a>
</g>
</g>
<!-- Node11 -->
<g id="Node000011" class="node">
<title>Node11</title>
<g id="a_Node000011"><a xlink:href="class_visa_device.html#ab1f5c0b110fca770dbd5be069453ea82" target="_top" xlink:title=" ">
<polygon fill="white" stroke="#666666" points="236.75,-48 149.5,-48 149.5,-28 236.75,-28 236.75,-48"/>
<text text-anchor="middle" x="193.12" y="-34.5" font-family="Helvetica,sans-Serif" font-size="10.00">VisaDevice::wait</text>
</a>
</g>
</g>
<!-- Node1&#45;&gt;Node11 -->
<g id="edge14_Node000001_Node000011" class="edge">
<title>Node1&#45;&gt;Node11</title>
<g id="a_edge14_Node000001_Node000011"><a xlink:title=" ">
<path fill="none" stroke="#63b8ff" d="M113.96,-49.05C122.07,-47.91 130.4,-46.73 138.45,-45.59"/>
<polygon fill="#63b8ff" stroke="#63b8ff" points="138.82,-48.93 148.23,-44.07 137.84,-42 138.82,-48.93"/>
</a>
</g>
</g>
<!-- Node3 -->
<g id="Node000003" class="node">
<title>Node3</title>
<g id="a_Node000003"><a xlink:href="class_logger.html#af7709105c2708359b7b082218f4cc3e1" target="_top" xlink:title="Функция, осуществляющая логирование">
<polygon fill="white" stroke="#666666" points="720,-77 656,-77 656,-57 720,-57 720,-77"/>
<text text-anchor="middle" x="688" y="-63.5" font-family="Helvetica,sans-Serif" font-size="10.00">Logger::log</text>
</a>
</g>
</g>
<!-- Node2&#45;&gt;Node3 -->
<g id="edge2_Node000002_Node000003" class="edge">
<title>Node2&#45;&gt;Node3</title>
<g id="a_edge2_Node000002_Node000003"><a xlink:title=" ">
<path fill="none" stroke="#63b8ff" d="M341.58,-115.41C357.42,-122.2 379.41,-130.45 399.75,-134 496.28,-150.86 529.44,-161.43 620,-124 640.38,-115.58 659.08,-98.53 671.52,-85.26"/>
<polygon fill="#63b8ff" stroke="#63b8ff" points="673.66,-87.99 677.74,-78.21 668.45,-83.32 673.66,-87.99"/>
</a>
</g>
</g>
<!-- Node8 -->
<g id="Node000008" class="node">
<title>Node8</title>
<g id="a_Node000008"><a xlink:href="class_visa_device.html#aa807192fd9a8c3e6efc458f78de5e73e" target="_top" xlink:title=" ">
<polygon fill="white" stroke="#666666" points="493.75,-77 399.75,-77 399.75,-57 493.75,-57 493.75,-77"/>
<text text-anchor="middle" x="446.75" y="-63.5" font-family="Helvetica,sans-Serif" font-size="10.00">VisaDevice::query</text>
</a>
</g>
</g>
<!-- Node2&#45;&gt;Node8 -->
<g id="edge7_Node000002_Node000008" class="edge">
<title>Node2&#45;&gt;Node8</title>
<g id="a_edge7_Node000002_Node000008"><a xlink:title=" ">
<path fill="none" stroke="#63b8ff" d="M354.15,-94.52C368.53,-90.2 385.38,-85.14 400.67,-80.54"/>
<polygon fill="#63b8ff" stroke="#63b8ff" points="401.39,-83.68 409.96,-77.45 399.38,-76.98 401.39,-83.68"/>
</a>
</g>
</g>
<!-- Node9 -->
<g id="Node000009" class="node">
<title>Node9</title>
<g id="a_Node000009"><a xlink:href="class_visa_device.html#aca08d9dbb0469f1143668a485e4adfe2" target="_top" xlink:title=" ">
<polygon fill="white" stroke="#666666" points="619.25,-115 530.5,-115 530.5,-95 619.25,-95 619.25,-115"/>
<text text-anchor="middle" x="574.88" y="-101.5" font-family="Helvetica,sans-Serif" font-size="10.00">VisaDevice::read</text>
</a>
</g>
</g>
<!-- Node2&#45;&gt;Node9 -->
<g id="edge12_Node000002_Node000009" class="edge">
<title>Node2&#45;&gt;Node9</title>
<g id="a_edge12_Node000002_Node000009"><a xlink:title=" ">
<path fill="none" stroke="#63b8ff" d="M364.2,-114.22C375.74,-116.2 388.16,-118 399.75,-119 441.37,-122.59 452.13,-122.61 493.75,-119 502.16,-118.27 511.01,-117.12 519.63,-115.78"/>
<polygon fill="#63b8ff" stroke="#63b8ff" points="520.09,-119.09 529.39,-114.01 518.95,-112.18 520.09,-119.09"/>
</a>
</g>
</g>
<!-- Node10 -->
<g id="Node000010" class="node">
<title>Node10</title>
<g id="a_Node000010"><a xlink:href="class_visa_device.html#a29202c3f5e47326386d1d27972e25267" target="_top" xlink:title=" ">
<polygon fill="white" stroke="#666666" points="620,-77 529.75,-77 529.75,-57 620,-57 620,-77"/>
<text text-anchor="middle" x="574.88" y="-63.5" font-family="Helvetica,sans-Serif" font-size="10.00">VisaDevice::write</text>
</a>
</g>
</g>
<!-- Node2&#45;&gt;Node10 -->
<g id="edge13_Node000002_Node000010" class="edge">
<title>Node2&#45;&gt;Node10</title>
<g id="a_edge13_Node000002_Node000010"><a xlink:title=" ">
<path fill="none" stroke="#63b8ff" d="M363.93,-101.68C399.31,-98.67 449.9,-93.56 493.75,-86 503.48,-84.32 513.78,-82.17 523.65,-79.92"/>
<polygon fill="#63b8ff" stroke="#63b8ff" points="524.2,-83.15 533.14,-77.45 522.6,-76.33 524.2,-83.15"/>
</a>
</g>
</g>
<!-- Node4 -->
<g id="Node000004" class="node">
<title>Node4</title>
<g id="a_Node000004"><a xlink:href="logger_8hpp.html#a49284b7befa8e31f81e01ee8f3735dd0" target="_top" xlink:title="Функция, которая снимает значение текущего времени и конвертирует его в строку с заданным шаблоном.">
<polygon fill="white" stroke="#666666" points="861.62,-134 772.88,-134 772.88,-114 861.62,-114 861.62,-134"/>
<text text-anchor="middle" x="817.25" y="-120.5" font-family="Helvetica,sans-Serif" font-size="10.00">get_current_time</text>
</a>
</g>
</g>
<!-- Node3&#45;&gt;Node4 -->
<g id="edge3_Node000003_Node000004" class="edge">
<title>Node3&#45;&gt;Node4</title>
<g id="a_edge3_Node000003_Node000004"><a xlink:title=" ">
<path fill="none" stroke="#63b8ff" d="M705.02,-77.36C718.3,-85.63 737.85,-97.1 756,-105 760.07,-106.77 764.36,-108.46 768.7,-110.05"/>
<polygon fill="#63b8ff" stroke="#63b8ff" points="767.24,-113.59 777.84,-113.55 769.53,-106.97 767.24,-113.59"/>
</a>
</g>
</g>
<!-- Node5 -->
<g id="Node000005" class="node">
<title>Node5</title>
<g id="a_Node000005"><a xlink:href="class_logger.html#a6edb7b263f080d417b82a537ed50fee4" target="_top" xlink:title="Функция, возвращающая тег в зависимости от уровня логирования и от назначения тега.">
<polygon fill="white" stroke="#666666" points="859,-96 775.5,-96 775.5,-76 859,-76 859,-96"/>
<text text-anchor="middle" x="817.25" y="-82.5" font-family="Helvetica,sans-Serif" font-size="10.00">Logger::get_tag</text>
</a>
</g>
</g>
<!-- Node3&#45;&gt;Node5 -->
<g id="edge4_Node000003_Node000005" class="edge">
<title>Node3&#45;&gt;Node5</title>
<g id="a_edge4_Node000003_Node000005"><a xlink:title=" ">
<path fill="none" stroke="#63b8ff" d="M720.46,-71.7C733.72,-73.68 749.52,-76.04 764.42,-78.26"/>
<polygon fill="#63b8ff" stroke="#63b8ff" points="763.66,-81.84 774.07,-79.85 764.69,-74.91 763.66,-81.84"/>
</a>
</g>
</g>
<!-- Node6 -->
<g id="Node000006" class="node">
<title>Node6</title>
<g id="a_Node000006"><a xlink:href="class_logger.html#a4825613142ebb093bf8fa26f21f7f3fc" target="_top" xlink:title="Функция, которая выводит сообщение в консоль.">
<polygon fill="white" stroke="#666666" points="878.5,-58 756,-58 756,-38 878.5,-38 878.5,-58"/>
<text text-anchor="middle" x="817.25" y="-44.5" font-family="Helvetica,sans-Serif" font-size="10.00">Logger::print_to_console</text>
</a>
</g>
</g>
<!-- Node3&#45;&gt;Node6 -->
<g id="edge5_Node000003_Node000006" class="edge">
<title>Node3&#45;&gt;Node6</title>
<g id="a_edge5_Node000003_Node000006"><a xlink:title=" ">
<path fill="none" stroke="#63b8ff" d="M720.46,-62.3C727.96,-61.18 736.27,-59.94 744.78,-58.67"/>
<polygon fill="#63b8ff" stroke="#63b8ff" points="745.23,-61.99 754.6,-57.06 744.19,-55.07 745.23,-61.99"/>
</a>
</g>
</g>
<!-- Node7 -->
<g id="Node000007" class="node">
<title>Node7</title>
<g id="a_Node000007"><a xlink:href="class_logger.html#a999bb33f7cf079cb98f32fae6016a2f3" target="_top" xlink:title="Функция, которая записывает сообщение в файл.">
<polygon fill="white" stroke="#666666" points="867.62,-20 766.88,-20 766.88,0 867.62,0 867.62,-20"/>
<text text-anchor="middle" x="817.25" y="-6.5" font-family="Helvetica,sans-Serif" font-size="10.00">Logger::print_to_file</text>
</a>
</g>
</g>
<!-- Node3&#45;&gt;Node7 -->
<g id="edge6_Node000003_Node000007" class="edge">
<title>Node3&#45;&gt;Node7</title>
<g id="a_edge6_Node000003_Node000007"><a xlink:title=" ">
<path fill="none" stroke="#63b8ff" d="M705.02,-56.64C718.3,-48.37 737.85,-36.9 756,-29 760.07,-27.23 764.36,-25.54 768.7,-23.95"/>
<polygon fill="#63b8ff" stroke="#63b8ff" points="769.53,-27.03 777.84,-20.45 767.24,-20.41 769.53,-27.03"/>
</a>
</g>
</g>
<!-- Node8&#45;&gt;Node9 -->
<g id="edge8_Node000008_Node000009" class="edge">
<title>Node8&#45;&gt;Node9</title>
<g id="a_edge8_Node000008_Node000009"><a xlink:title=" ">
<path fill="none" stroke="#63b8ff" d="M482.55,-77.48C496.88,-81.8 513.68,-86.86 528.93,-91.46"/>
<polygon fill="#63b8ff" stroke="#63b8ff" points="527.61,-95.02 538.19,-94.55 529.63,-88.31 527.61,-95.02"/>
</a>
</g>
</g>
<!-- Node8&#45;&gt;Node10 -->
<g id="edge10_Node000008_Node000010" class="edge">
<title>Node8&#45;&gt;Node10</title>
<g id="a_edge10_Node000008_Node000010"><a xlink:title=" ">
<path fill="none" stroke="#63b8ff" d="M494,-67C501.92,-67 510.23,-67 518.37,-67"/>
<polygon fill="#63b8ff" stroke="#63b8ff" points="518.31,-70.5 528.31,-67 518.31,-63.5 518.31,-70.5"/>
</a>
</g>
</g>
<!-- Node9&#45;&gt;Node3 -->
<g id="edge9_Node000009_Node000003" class="edge">
<title>Node9&#45;&gt;Node3</title>
<g id="a_edge9_Node000009_Node000003"><a xlink:title=" ">
<path fill="none" stroke="#63b8ff" d="M606.53,-94.52C618.8,-90.32 633.11,-85.43 646.23,-80.94"/>
<polygon fill="#63b8ff" stroke="#63b8ff" points="647.11,-84 655.44,-77.45 644.85,-77.37 647.11,-84"/>
</a>
</g>
</g>
<!-- Node10&#45;&gt;Node3 -->
<g id="edge11_Node000010_Node000003" class="edge">
<title>Node10&#45;&gt;Node3</title>
<g id="a_edge11_Node000010_Node000003"><a xlink:title=" ">
<path fill="none" stroke="#63b8ff" d="M620.43,-67C628.48,-67 636.84,-67 644.82,-67"/>
<polygon fill="#63b8ff" stroke="#63b8ff" points="644.75,-70.5 654.75,-67 644.75,-63.5 644.75,-70.5"/>
</a>
</g>
</g>
<!-- Node11&#45;&gt;Node3 -->
<g id="edge15_Node000011_Node000003" class="edge">
<title>Node11&#45;&gt;Node3</title>
<g id="a_edge15_Node000011_Node000003"><a xlink:title=" ">
<path fill="none" stroke="#63b8ff" d="M229.42,-27.59C242.85,-24.12 258.39,-20.71 272.75,-19 362.34,-8.33 590.69,-26.26 620,-34 634.3,-37.77 649.16,-44.74 661.24,-51.3"/>
<polygon fill="#63b8ff" stroke="#63b8ff" points="659.23,-54.75 669.66,-56.63 662.68,-48.66 659.23,-54.75"/>
</a>
</g>
</g>
<!-- Node12 -->
<g id="Node000012" class="node">
<title>Node12</title>
<g id="a_Node000012"><a xlink:href="class_visa_device.html#a70a6c6ace7c5841db420c1e112782a53" target="_top" xlink:title=" ">
<polygon fill="white" stroke="#666666" points="361.12,-48 275.38,-48 275.38,-28 361.12,-28 361.12,-48"/>
<text text-anchor="middle" x="318.25" y="-34.5" font-family="Helvetica,sans-Serif" font-size="10.00">VisaDevice::opc</text>
</a>
</g>
</g>
<!-- Node11&#45;&gt;Node12 -->
<g id="edge16_Node000011_Node000012" class="edge">
<title>Node11&#45;&gt;Node12</title>
<g id="a_edge16_Node000011_Node000012"><a xlink:title=" ">
<path fill="none" stroke="#63b8ff" d="M237.19,-38C245.96,-38 255.29,-38 264.36,-38"/>
<polygon fill="#63b8ff" stroke="#63b8ff" points="264.25,-41.5 274.25,-38 264.25,-34.5 264.25,-41.5"/>
</a>
</g>
</g>
<!-- Node12&#45;&gt;Node3 -->
<g id="edge17_Node000012_Node000003" class="edge">
<title>Node12&#45;&gt;Node3</title>
<g id="a_edge17_Node000012_Node000003"><a xlink:title=" ">
<path fill="none" stroke="#63b8ff" d="M361.39,-36.2C419.84,-34.42 528.64,-33.74 620,-48 628.4,-49.31 637.24,-51.33 645.64,-53.58"/>
<polygon fill="#63b8ff" stroke="#63b8ff" points="644.42,-57.15 654.99,-56.51 646.32,-50.42 644.42,-57.15"/>
</a>
</g>
</g>
<!-- Node12&#45;&gt;Node8 -->
<g id="edge18_Node000012_Node000008" class="edge">
<title>Node12&#45;&gt;Node8</title>
<g id="a_edge18_Node000012_Node000008"><a xlink:title=" ">
<path fill="none" stroke="#63b8ff" d="M361.37,-47.66C370.46,-49.74 380.2,-51.97 389.72,-54.16"/>
<polygon fill="#63b8ff" stroke="#63b8ff" points="388.81,-57.77 399.33,-56.59 390.37,-50.94 388.81,-57.77"/>
</a>
</g>
</g>
</g>
</svg>
