<?xml version="1.0" encoding="UTF-8" standalone="no"?>
<!DOCTYPE svg PUBLIC "-//W3C//DTD SVG 1.1//EN"
 "http://www.w3.org/Graphics/SVG/1.1/DTD/svg11.dtd">
<!-- Generated by graphviz version 8.0.5 (20230430.1635)
 -->
<!-- Title: KeysightGen::rf_off Pages: 1 -->
<svg width="748pt" height="142pt"
 viewBox="0.00 0.00 748.25 142.00" xmlns="http://www.w3.org/2000/svg" xmlns:xlink="http://www.w3.org/1999/xlink">
<g id="graph0" class="graph" transform="scale(1 1) rotate(0) translate(4 138)">
<title>KeysightGen::rf_off</title>
<!-- Node1 -->
<g id="Node000001" class="node">
<title>Node1</title>
<g id="a_Node000001"><a xlink:title="Отключает порт">
<polygon fill="#999999" stroke="#666666" points="98.5,-58 0,-58 0,-38 98.5,-38 98.5,-58"/>
<text text-anchor="middle" x="49.25" y="-44.5" font-family="Helvetica,sans-Serif" font-size="10.00">KeysightGen::rf_off</text>
</a>
</g>
</g>
<!-- Node2 -->
<g id="Node000002" class="node">
<title>Node2</title>
<g id="a_Node000002"><a xlink:href="class_visa_device.html#ad659ba652605f5c983958400fde8c808" target="_top" xlink:title="Отправка данных на прибор и чтение ответа от прибора.">
<polygon fill="white" stroke="#666666" points="225.5,-58 134.5,-58 134.5,-38 225.5,-38 225.5,-58"/>
<text text-anchor="middle" x="180" y="-44.5" font-family="Helvetica,sans-Serif" font-size="10.00">VisaDevice::send</text>
</a>
</g>
</g>
<!-- Node1&#45;&gt;Node2 -->
<g id="edge1_Node000001_Node000002" class="edge">
<title>Node1&#45;&gt;Node2</title>
<g id="a_edge1_Node000001_Node000002"><a xlink:title=" ">
<path fill="none" stroke="#63b8ff" d="M98.92,-48C106.86,-48 115.13,-48 123.21,-48"/>
<polygon fill="#63b8ff" stroke="#63b8ff" points="123.07,-51.5 133.07,-48 123.07,-44.5 123.07,-51.5"/>
</a>
</g>
</g>
<!-- Node3 -->
<g id="Node000003" class="node">
<title>Node3</title>
<g id="a_Node000003"><a xlink:href="class_logger.html#af7709105c2708359b7b082218f4cc3e1" target="_top" xlink:title="Метод, осуществляющий логирование">
<polygon fill="white" stroke="#666666" points="581.75,-77 517.75,-77 517.75,-57 581.75,-57 581.75,-77"/>
<text text-anchor="middle" x="549.75" y="-63.5" font-family="Helvetica,sans-Serif" font-size="10.00">Logger::log</text>
</a>
</g>
</g>
<!-- Node2&#45;&gt;Node3 -->
<g id="edge2_Node000002_Node000003" class="edge">
<title>Node2&#45;&gt;Node3</title>
<g id="a_edge2_Node000002_Node000003"><a xlink:title=" ">
<path fill="none" stroke="#63b8ff" d="M212.83,-58.39C227.51,-62.85 245.25,-67.76 261.5,-71 357.73,-90.16 384.57,-99.51 481.75,-86 490.52,-84.78 499.75,-82.7 508.47,-80.36"/>
<polygon fill="#63b8ff" stroke="#63b8ff" points="509.13,-83.53 517.78,-77.41 507.2,-76.8 509.13,-83.53"/>
</a>
</g>
</g>
<!-- Node8 -->
<g id="Node000008" class="node">
<title>Node8</title>
<g id="a_Node000008"><a xlink:href="class_visa_device.html#aa807192fd9a8c3e6efc458f78de5e73e" target="_top" xlink:title="Метод, совмещающий в себе методы write() и read().">
<polygon fill="white" stroke="#666666" points="355.5,-39 261.5,-39 261.5,-19 355.5,-19 355.5,-39"/>
<text text-anchor="middle" x="308.5" y="-25.5" font-family="Helvetica,sans-Serif" font-size="10.00">VisaDevice::query</text>
</a>
</g>
</g>
<!-- Node2&#45;&gt;Node8 -->
<g id="edge7_Node000002_Node000008" class="edge">
<title>Node2&#45;&gt;Node8</title>
<g id="a_edge7_Node000002_Node000008"><a xlink:title=" ">
<path fill="none" stroke="#63b8ff" d="M225.96,-41.25C233.95,-40.05 242.38,-38.78 250.66,-37.54"/>
<polygon fill="#63b8ff" stroke="#63b8ff" points="251.04,-40.87 260.41,-35.92 250,-33.95 251.04,-40.87"/>
</a>
</g>
</g>
<!-- Node9 -->
<g id="Node000009" class="node">
<title>Node9</title>
<g id="a_Node000009"><a xlink:href="class_visa_device.html#aca08d9dbb0469f1143668a485e4adfe2" target="_top" xlink:title="Метод, позволяющий считать данные с устройства">
<polygon fill="white" stroke="#666666" points="481,-77 392.25,-77 392.25,-57 481,-57 481,-77"/>
<text text-anchor="middle" x="436.62" y="-63.5" font-family="Helvetica,sans-Serif" font-size="10.00">VisaDevice::read</text>
</a>
</g>
</g>
<!-- Node2&#45;&gt;Node9 -->
<g id="edge12_Node000002_Node000009" class="edge">
<title>Node2&#45;&gt;Node9</title>
<g id="a_edge12_Node000002_Node000009"><a xlink:title=" ">
<path fill="none" stroke="#63b8ff" d="M225.94,-51.35C269.29,-54.59 334.97,-59.49 381.25,-62.94"/>
<polygon fill="#63b8ff" stroke="#63b8ff" points="380.76,-66.49 390.99,-63.74 381.28,-59.51 380.76,-66.49"/>
</a>
</g>
</g>
<!-- Node10 -->
<g id="Node000010" class="node">
<title>Node10</title>
<g id="a_Node000010"><a xlink:href="class_visa_device.html#a29202c3f5e47326386d1d27972e25267" target="_top" xlink:title="Метод, позволяющий отправить команду на устройство">
<polygon fill="white" stroke="#666666" points="481.75,-39 391.5,-39 391.5,-19 481.75,-19 481.75,-39"/>
<text text-anchor="middle" x="436.62" y="-25.5" font-family="Helvetica,sans-Serif" font-size="10.00">VisaDevice::write</text>
</a>
</g>
</g>
<!-- Node2&#45;&gt;Node10 -->
<g id="edge13_Node000002_Node000010" class="edge">
<title>Node2&#45;&gt;Node10</title>
<g id="a_edge13_Node000002_Node000010"><a xlink:title=" ">
<path fill="none" stroke="#63b8ff" d="M197.48,-37.55C213.23,-28.23 237.97,-15.27 261.5,-10 304.66,-0.32 354.99,-7.78 390.4,-16.02"/>
<polygon fill="#63b8ff" stroke="#63b8ff" points="389.35,-19.61 399.89,-18.58 391.01,-12.81 389.35,-19.61"/>
</a>
</g>
</g>
<!-- Node4 -->
<g id="Node000004" class="node">
<title>Node4</title>
<g id="a_Node000004"><a xlink:href="logger_8hpp.html#a49284b7befa8e31f81e01ee8f3735dd0" target="_top" xlink:title="Функция, которая снимает значение текущего времени и конвертирует его в строку с заданным шаблоном.">
<polygon fill="white" stroke="#666666" points="723.38,-134 634.62,-134 634.62,-114 723.38,-114 723.38,-134"/>
<text text-anchor="middle" x="679" y="-120.5" font-family="Helvetica,sans-Serif" font-size="10.00">get_current_time</text>
</a>
</g>
</g>
<!-- Node3&#45;&gt;Node4 -->
<g id="edge3_Node000003_Node000004" class="edge">
<title>Node3&#45;&gt;Node4</title>
<g id="a_edge3_Node000003_Node000004"><a xlink:title=" ">
<path fill="none" stroke="#63b8ff" d="M566.77,-77.36C580.05,-85.63 599.6,-97.1 617.75,-105 621.82,-106.77 626.11,-108.46 630.45,-110.05"/>
<polygon fill="#63b8ff" stroke="#63b8ff" points="628.99,-113.59 639.59,-113.55 631.28,-106.97 628.99,-113.59"/>
</a>
</g>
</g>
<!-- Node5 -->
<g id="Node000005" class="node">
<title>Node5</title>
<g id="a_Node000005"><a xlink:href="class_logger.html#a6edb7b263f080d417b82a537ed50fee4" target="_top" xlink:title="Возвращает тег в зависимости от уровня логирования и от назначения тега.">
<polygon fill="white" stroke="#666666" points="720.75,-96 637.25,-96 637.25,-76 720.75,-76 720.75,-96"/>
<text text-anchor="middle" x="679" y="-82.5" font-family="Helvetica,sans-Serif" font-size="10.00">Logger::get_tag</text>
</a>
</g>
</g>
<!-- Node3&#45;&gt;Node5 -->
<g id="edge4_Node000003_Node000005" class="edge">
<title>Node3&#45;&gt;Node5</title>
<g id="a_edge4_Node000003_Node000005"><a xlink:title=" ">
<path fill="none" stroke="#63b8ff" d="M582.21,-71.7C595.47,-73.68 611.27,-76.04 626.17,-78.26"/>
<polygon fill="#63b8ff" stroke="#63b8ff" points="625.41,-81.84 635.82,-79.85 626.44,-74.91 625.41,-81.84"/>
</a>
</g>
</g>
<!-- Node6 -->
<g id="Node000006" class="node">
<title>Node6</title>
<g id="a_Node000006"><a xlink:href="class_logger.html#a4825613142ebb093bf8fa26f21f7f3fc" target="_top" xlink:title="Метод, который выводит сообщение в консоль.">
<polygon fill="white" stroke="#666666" points="740.25,-58 617.75,-58 617.75,-38 740.25,-38 740.25,-58"/>
<text text-anchor="middle" x="679" y="-44.5" font-family="Helvetica,sans-Serif" font-size="10.00">Logger::print_to_console</text>
</a>
</g>
</g>
<!-- Node3&#45;&gt;Node6 -->
<g id="edge5_Node000003_Node000006" class="edge">
<title>Node3&#45;&gt;Node6</title>
<g id="a_edge5_Node000003_Node000006"><a xlink:title=" ">
<path fill="none" stroke="#63b8ff" d="M582.21,-62.3C589.71,-61.18 598.02,-59.94 606.53,-58.67"/>
<polygon fill="#63b8ff" stroke="#63b8ff" points="606.98,-61.99 616.35,-57.06 605.94,-55.07 606.98,-61.99"/>
</a>
</g>
</g>
<!-- Node7 -->
<g id="Node000007" class="node">
<title>Node7</title>
<g id="a_Node000007"><a xlink:href="class_logger.html#a999bb33f7cf079cb98f32fae6016a2f3" target="_top" xlink:title="Метод, который записывает сообщение в файл.">
<polygon fill="white" stroke="#666666" points="729.38,-20 628.62,-20 628.62,0 729.38,0 729.38,-20"/>
<text text-anchor="middle" x="679" y="-6.5" font-family="Helvetica,sans-Serif" font-size="10.00">Logger::print_to_file</text>
</a>
</g>
</g>
<!-- Node3&#45;&gt;Node7 -->
<g id="edge6_Node000003_Node000007" class="edge">
<title>Node3&#45;&gt;Node7</title>
<g id="a_edge6_Node000003_Node000007"><a xlink:title=" ">
<path fill="none" stroke="#63b8ff" d="M566.77,-56.64C580.05,-48.37 599.6,-36.9 617.75,-29 621.82,-27.23 626.11,-25.54 630.45,-23.95"/>
<polygon fill="#63b8ff" stroke="#63b8ff" points="631.28,-27.03 639.59,-20.45 628.99,-20.41 631.28,-27.03"/>
</a>
</g>
</g>
<!-- Node8&#45;&gt;Node9 -->
<g id="edge8_Node000008_Node000009" class="edge">
<title>Node8&#45;&gt;Node9</title>
<g id="a_edge8_Node000008_Node000009"><a xlink:title=" ">
<path fill="none" stroke="#63b8ff" d="M344.3,-39.48C358.63,-43.8 375.43,-48.86 390.68,-53.46"/>
<polygon fill="#63b8ff" stroke="#63b8ff" points="389.36,-57.02 399.94,-56.55 391.38,-50.31 389.36,-57.02"/>
</a>
</g>
</g>
<!-- Node8&#45;&gt;Node10 -->
<g id="edge10_Node000008_Node000010" class="edge">
<title>Node8&#45;&gt;Node10</title>
<g id="a_edge10_Node000008_Node000010"><a xlink:title=" ">
<path fill="none" stroke="#63b8ff" d="M355.75,-29C363.67,-29 371.98,-29 380.12,-29"/>
<polygon fill="#63b8ff" stroke="#63b8ff" points="380.06,-32.5 390.06,-29 380.06,-25.5 380.06,-32.5"/>
</a>
</g>
</g>
<!-- Node9&#45;&gt;Node3 -->
<g id="edge9_Node000009_Node000003" class="edge">
<title>Node9&#45;&gt;Node3</title>
<g id="a_edge9_Node000009_Node000003"><a xlink:title=" ">
<path fill="none" stroke="#63b8ff" d="M481.23,-67C489.5,-67 498.15,-67 506.39,-67"/>
<polygon fill="#63b8ff" stroke="#63b8ff" points="506.29,-70.5 516.29,-67 506.29,-63.5 506.29,-70.5"/>
</a>
</g>
</g>
<!-- Node10&#45;&gt;Node3 -->
<g id="edge11_Node000010_Node000003" class="edge">
<title>Node10&#45;&gt;Node3</title>
<g id="a_edge11_Node000010_Node000003"><a xlink:title=" ">
<path fill="none" stroke="#63b8ff" d="M468.28,-39.48C480.55,-43.68 494.86,-48.57 507.98,-53.06"/>
<polygon fill="#63b8ff" stroke="#63b8ff" points="506.6,-56.63 517.19,-56.55 508.86,-50 506.6,-56.63"/>
</a>
</g>
</g>
</g>
</svg>
