<?xml version="1.0" encoding="UTF-8" standalone="no"?>
<!DOCTYPE svg PUBLIC "-//W3C//DTD SVG 1.1//EN"
 "http://www.w3.org/Graphics/SVG/1.1/DTD/svg11.dtd">
<!-- Generated by graphviz version 8.0.5 (20230430.1635)
 -->
<!-- Title: TaskManager::disconnect_task Pages: 1 -->
<svg width="467pt" height="142pt"
 viewBox="0.00 0.00 467.00 142.00" xmlns="http://www.w3.org/2000/svg" xmlns:xlink="http://www.w3.org/1999/xlink">
<g id="graph0" class="graph" transform="scale(1 1) rotate(0) translate(4 138)">
<title>TaskManager::disconnect_task</title>
<!-- Node1 -->
<g id="Node000001" class="node">
<title>Node1</title>
<g id="a_Node000001"><a xlink:title="Метод, обрабатывающий задание на отключение">
<polygon fill="#999999" stroke="#666666" points="151.75,-96 0,-96 0,-76 151.75,-76 151.75,-96"/>
<text text-anchor="middle" x="75.88" y="-82.5" font-family="Helvetica,sans-Serif" font-size="10.00">TaskManager::disconnect_task</text>
</a>
</g>
</g>
<!-- Node2 -->
<g id="Node000002" class="node">
<title>Node2</title>
<g id="a_Node000002"><a xlink:href="class_device_set.html#a6241d8b37639241e2a370c1f7d533995" target="_top" xlink:title="Отключает все устройства и уничтожает созданные объекты">
<polygon fill="white" stroke="#666666" points="300.5,-115 187.75,-115 187.75,-95 300.5,-95 300.5,-115"/>
<text text-anchor="middle" x="244.12" y="-101.5" font-family="Helvetica,sans-Serif" font-size="10.00">DeviceSet::disconnect</text>
</a>
</g>
</g>
<!-- Node1&#45;&gt;Node2 -->
<g id="edge1_Node000001_Node000002" class="edge">
<title>Node1&#45;&gt;Node2</title>
<g id="a_edge1_Node000001_Node000002"><a xlink:title=" ">
<path fill="none" stroke="#63b8ff" d="M152.22,-94.61C160.37,-95.54 168.62,-96.49 176.66,-97.4"/>
<polygon fill="#63b8ff" stroke="#63b8ff" points="176.12,-100.98 186.45,-98.64 176.91,-94.02 176.12,-100.98"/>
</a>
</g>
</g>
<!-- Node3 -->
<g id="Node000003" class="node">
<title>Node3</title>
<g id="a_Node000003"><a xlink:href="class_logger.html#af7709105c2708359b7b082218f4cc3e1" target="_top" xlink:title="Метод, осуществляющий логирование">
<polygon fill="white" stroke="#666666" points="276.12,-77 212.12,-77 212.12,-57 276.12,-57 276.12,-77"/>
<text text-anchor="middle" x="244.12" y="-63.5" font-family="Helvetica,sans-Serif" font-size="10.00">Logger::log</text>
</a>
</g>
</g>
<!-- Node1&#45;&gt;Node3 -->
<g id="edge2_Node000001_Node000003" class="edge">
<title>Node1&#45;&gt;Node3</title>
<g id="a_edge2_Node000001_Node000003"><a xlink:title=" ">
<path fill="none" stroke="#63b8ff" d="M152.22,-77.39C168.92,-75.48 186.05,-73.52 200.87,-71.83"/>
<polygon fill="#63b8ff" stroke="#63b8ff" points="201.17,-75.2 210.71,-70.59 200.38,-68.25 201.17,-75.2"/>
</a>
</g>
</g>
<!-- Node4 -->
<g id="Node000004" class="node">
<title>Node4</title>
<g id="a_Node000004"><a xlink:href="logger_8hpp.html#a49284b7befa8e31f81e01ee8f3735dd0" target="_top" xlink:title="Функция, которая снимает значение текущего времени и конвертирует его в строку с заданным шаблоном.">
<polygon fill="white" stroke="#666666" points="442.12,-134 353.38,-134 353.38,-114 442.12,-114 442.12,-134"/>
<text text-anchor="middle" x="397.75" y="-120.5" font-family="Helvetica,sans-Serif" font-size="10.00">get_current_time</text>
</a>
</g>
</g>
<!-- Node3&#45;&gt;Node4 -->
<g id="edge3_Node000003_Node000004" class="edge">
<title>Node3&#45;&gt;Node4</title>
<g id="a_edge3_Node000003_Node000004"><a xlink:title=" ">
<path fill="none" stroke="#63b8ff" d="M276.49,-76.82C284.42,-79.55 292.85,-82.69 300.5,-86 317.11,-93.18 319.81,-98.03 336.5,-105 340.83,-106.81 345.4,-108.54 350,-110.18"/>
<polygon fill="#63b8ff" stroke="#63b8ff" points="348.45,-113.69 359.05,-113.59 350.7,-107.06 348.45,-113.69"/>
</a>
</g>
</g>
<!-- Node5 -->
<g id="Node000005" class="node">
<title>Node5</title>
<g id="a_Node000005"><a xlink:href="class_logger.html#a6edb7b263f080d417b82a537ed50fee4" target="_top" xlink:title="Возвращает тег в зависимости от уровня логирования и от назначения тега.">
<polygon fill="white" stroke="#666666" points="439.5,-96 356,-96 356,-76 439.5,-76 439.5,-96"/>
<text text-anchor="middle" x="397.75" y="-82.5" font-family="Helvetica,sans-Serif" font-size="10.00">Logger::get_tag</text>
</a>
</g>
</g>
<!-- Node3&#45;&gt;Node5 -->
<g id="edge4_Node000003_Node000005" class="edge">
<title>Node3&#45;&gt;Node5</title>
<g id="a_edge4_Node000003_Node000005"><a xlink:title=" ">
<path fill="none" stroke="#63b8ff" d="M276.54,-70.94C296.22,-73.4 322.06,-76.64 344.74,-79.48"/>
<polygon fill="#63b8ff" stroke="#63b8ff" points="344.22,-83.07 354.58,-80.84 345.09,-76.12 344.22,-83.07"/>
</a>
</g>
</g>
<!-- Node6 -->
<g id="Node000006" class="node">
<title>Node6</title>
<g id="a_Node000006"><a xlink:href="class_logger.html#a4825613142ebb093bf8fa26f21f7f3fc" target="_top" xlink:title="Метод, который выводит сообщение в консоль.">
<polygon fill="white" stroke="#666666" points="459,-58 336.5,-58 336.5,-38 459,-38 459,-58"/>
<text text-anchor="middle" x="397.75" y="-44.5" font-family="Helvetica,sans-Serif" font-size="10.00">Logger::print_to_console</text>
</a>
</g>
</g>
<!-- Node3&#45;&gt;Node6 -->
<g id="edge5_Node000003_Node000006" class="edge">
<title>Node3&#45;&gt;Node6</title>
<g id="a_edge5_Node000003_Node000006"><a xlink:title=" ">
<path fill="none" stroke="#63b8ff" d="M276.54,-63.06C290.84,-61.27 308.38,-59.07 325.61,-56.91"/>
<polygon fill="#63b8ff" stroke="#63b8ff" points="325.77,-60.3 335.26,-55.58 324.9,-53.35 325.77,-60.3"/>
</a>
</g>
</g>
<!-- Node7 -->
<g id="Node000007" class="node">
<title>Node7</title>
<g id="a_Node000007"><a xlink:href="class_logger.html#a999bb33f7cf079cb98f32fae6016a2f3" target="_top" xlink:title="Метод, который записывает сообщение в файл.">
<polygon fill="white" stroke="#666666" points="448.12,-20 347.38,-20 347.38,0 448.12,0 448.12,-20"/>
<text text-anchor="middle" x="397.75" y="-6.5" font-family="Helvetica,sans-Serif" font-size="10.00">Logger::print_to_file</text>
</a>
</g>
</g>
<!-- Node3&#45;&gt;Node7 -->
<g id="edge6_Node000003_Node000007" class="edge">
<title>Node3&#45;&gt;Node7</title>
<g id="a_edge6_Node000003_Node000007"><a xlink:title=" ">
<path fill="none" stroke="#63b8ff" d="M268.56,-56.58C286.89,-48.59 313.1,-37.54 336.5,-29 341.33,-27.24 346.42,-25.48 351.5,-23.79"/>
<polygon fill="#63b8ff" stroke="#63b8ff" points="352.42,-26.85 360.85,-20.43 350.25,-20.19 352.42,-26.85"/>
</a>
</g>
</g>
</g>
</svg>
