<?xml version="1.0" encoding="UTF-8" standalone="no"?>
<!DOCTYPE svg PUBLIC "-//W3C//DTD SVG 1.1//EN"
 "http://www.w3.org/Graphics/SVG/1.1/DTD/svg11.dtd">
<!-- Generated by graphviz version 8.0.5 (20230430.1635)
 -->
<!-- Title: VisaDevice::send_wait_err Pages: 1 -->
<svg width="1053pt" height="251pt"
 viewBox="0.00 0.00 1052.50 250.79" xmlns="http://www.w3.org/2000/svg" xmlns:xlink="http://www.w3.org/1999/xlink">
<g id="graph0" class="graph" transform="scale(1 1) rotate(0) translate(4 246.79)">
<title>VisaDevice::send_wait_err</title>
<!-- Node1 -->
<g id="Node000001" class="node">
<title>Node1</title>
<g id="a_Node000001"><a xlink:title="Отправка данных на прибор и чтение ответа от прибора. Также, ожидается завершение выполнения действий...">
<polygon fill="#999999" stroke="#666666" points="130,-195.79 0,-195.79 0,-175.79 130,-175.79 130,-195.79"/>
<text text-anchor="middle" x="65" y="-182.29" font-family="Helvetica,sans-Serif" font-size="10.00">VisaDevice::send_wait_err</text>
</a>
</g>
</g>
<!-- Node2 -->
<g id="Node000002" class="node">
<title>Node2</title>
<g id="a_Node000002"><a xlink:href="class_visa_device.html#aba4642c194cffe2135a133e23960ab63" target="_top" xlink:title="Отправляет команду &quot;SYSTEM:ERROR?&quot; на подключенное устройство и считывает сведения об ошибках,...">
<polygon fill="white" stroke="#666666" points="524.88,-195.79 443.62,-195.79 443.62,-175.79 524.88,-175.79 524.88,-195.79"/>
<text text-anchor="middle" x="484.25" y="-182.29" font-family="Helvetica,sans-Serif" font-size="10.00">VisaDevice::err</text>
</a>
</g>
</g>
<!-- Node1&#45;&gt;Node2 -->
<g id="edge1_Node000001_Node000002" class="edge">
<title>Node1&#45;&gt;Node2</title>
<g id="a_edge1_Node000001_Node000002"><a xlink:title=" ">
<path fill="none" stroke="#63b8ff" d="M130.28,-185.79C213.4,-185.79 356.49,-185.79 432.44,-185.79"/>
<polygon fill="#63b8ff" stroke="#63b8ff" points="432.14,-189.29 442.14,-185.79 432.14,-182.29 432.14,-189.29"/>
</a>
</g>
</g>
<!-- Node3 -->
<g id="Node000003" class="node">
<title>Node3</title>
<g id="a_Node000003"><a xlink:href="class_logger.html#af7709105c2708359b7b082218f4cc3e1" target="_top" xlink:title="Метод, осуществляющий логирование">
<polygon fill="white" stroke="#666666" points="886,-100.79 822,-100.79 822,-80.79 886,-80.79 886,-100.79"/>
<text text-anchor="middle" x="854" y="-87.29" font-family="Helvetica,sans-Serif" font-size="10.00">Logger::log</text>
</a>
</g>
</g>
<!-- Node1&#45;&gt;Node3 -->
<g id="edge12_Node000001_Node000003" class="edge">
<title>Node1&#45;&gt;Node3</title>
<g id="a_edge12_Node000001_Node000003"><a xlink:title=" ">
<path fill="none" stroke="#63b8ff" d="M98.02,-196.25C151.35,-212.7 262.01,-242.79 358.12,-242.79 358.12,-242.79 358.12,-242.79 613.75,-242.79 696.06,-242.79 719.82,-223.73 786,-174.79 809.66,-157.29 829.61,-129.46 841.43,-110.67"/>
<polygon fill="#63b8ff" stroke="#63b8ff" points="844.93,-112.65 847.13,-102.29 838.95,-109.02 844.93,-112.65"/>
</a>
</g>
</g>
<!-- Node11 -->
<g id="Node000011" class="node">
<title>Node11</title>
<g id="a_Node000011"><a xlink:href="class_visa_device.html#a3744ee1e929d6c05b522693c344c76b3" target="_top" xlink:title="Отправка данных на прибор и чтение ответа от прибора. Также, ожидается завершение выполнения действий...">
<polygon fill="white" stroke="#666666" points="279.5,-119.79 166,-119.79 166,-99.79 279.5,-99.79 279.5,-119.79"/>
<text text-anchor="middle" x="222.75" y="-106.29" font-family="Helvetica,sans-Serif" font-size="10.00">VisaDevice::send_wait</text>
</a>
</g>
</g>
<!-- Node1&#45;&gt;Node11 -->
<g id="edge13_Node000001_Node000011" class="edge">
<title>Node1&#45;&gt;Node11</title>
<g id="a_edge13_Node000001_Node000011"><a xlink:title=" ">
<path fill="none" stroke="#63b8ff" d="M87.33,-175.39C114.13,-162.31 160.3,-139.78 190.94,-124.83"/>
<polygon fill="#63b8ff" stroke="#63b8ff" points="192.23,-127.61 199.68,-120.08 189.16,-121.32 192.23,-127.61"/>
</a>
</g>
</g>
<!-- Node2&#45;&gt;Node3 -->
<g id="edge2_Node000002_Node000003" class="edge">
<title>Node2&#45;&gt;Node3</title>
<g id="a_edge2_Node000002_Node000003"><a xlink:title=" ">
<path fill="none" stroke="#63b8ff" d="M525.12,-187.82C584.59,-189.32 698.85,-186.24 786,-147.79 805.94,-139 824.48,-122.29 836.97,-109.23"/>
<polygon fill="#63b8ff" stroke="#63b8ff" points="839.08,-112.02 843.26,-102.29 833.92,-107.29 839.08,-112.02"/>
</a>
</g>
</g>
<!-- Node8 -->
<g id="Node000008" class="node">
<title>Node8</title>
<g id="a_Node000008"><a xlink:href="class_visa_device.html#aa807192fd9a8c3e6efc458f78de5e73e" target="_top" xlink:title="Метод, совмещающий в себе методы write() и read().">
<polygon fill="white" stroke="#666666" points="659.75,-138.79 565.75,-138.79 565.75,-118.79 659.75,-118.79 659.75,-138.79"/>
<text text-anchor="middle" x="612.75" y="-125.29" font-family="Helvetica,sans-Serif" font-size="10.00">VisaDevice::query</text>
</a>
</g>
</g>
<!-- Node2&#45;&gt;Node8 -->
<g id="edge7_Node000002_Node000008" class="edge">
<title>Node2&#45;&gt;Node8</title>
<g id="a_edge7_Node000002_Node000008"><a xlink:title=" ">
<path fill="none" stroke="#63b8ff" d="M508.45,-175.34C528.16,-166.46 556.67,-153.61 578.75,-143.66"/>
<polygon fill="#63b8ff" stroke="#63b8ff" points="580.02,-146.48 587.7,-139.18 577.14,-140.1 580.02,-146.48"/>
</a>
</g>
</g>
<!-- Node4 -->
<g id="Node000004" class="node">
<title>Node4</title>
<g id="a_Node000004"><a xlink:href="logger_8hpp.html#a49284b7befa8e31f81e01ee8f3735dd0" target="_top" xlink:title="Функция, которая снимает значение текущего времени и конвертирует его в строку с заданным шаблоном.">
<polygon fill="white" stroke="#666666" points="1027.62,-157.79 938.88,-157.79 938.88,-137.79 1027.62,-137.79 1027.62,-157.79"/>
<text text-anchor="middle" x="983.25" y="-144.29" font-family="Helvetica,sans-Serif" font-size="10.00">get_current_time</text>
</a>
</g>
</g>
<!-- Node3&#45;&gt;Node4 -->
<g id="edge3_Node000003_Node000004" class="edge">
<title>Node3&#45;&gt;Node4</title>
<g id="a_edge3_Node000003_Node000004"><a xlink:title=" ">
<path fill="none" stroke="#63b8ff" d="M871.02,-101.16C884.3,-109.43 903.85,-120.89 922,-128.79 926.07,-130.57 930.36,-132.26 934.7,-133.84"/>
<polygon fill="#63b8ff" stroke="#63b8ff" points="933.24,-137.38 943.84,-137.34 935.53,-130.77 933.24,-137.38"/>
</a>
</g>
</g>
<!-- Node5 -->
<g id="Node000005" class="node">
<title>Node5</title>
<g id="a_Node000005"><a xlink:href="class_logger.html#a6edb7b263f080d417b82a537ed50fee4" target="_top" xlink:title="Возвращает тег в зависимости от уровня логирования и от назначения тега.">
<polygon fill="white" stroke="#666666" points="1025,-119.79 941.5,-119.79 941.5,-99.79 1025,-99.79 1025,-119.79"/>
<text text-anchor="middle" x="983.25" y="-106.29" font-family="Helvetica,sans-Serif" font-size="10.00">Logger::get_tag</text>
</a>
</g>
</g>
<!-- Node3&#45;&gt;Node5 -->
<g id="edge4_Node000003_Node000005" class="edge">
<title>Node3&#45;&gt;Node5</title>
<g id="a_edge4_Node000003_Node000005"><a xlink:title=" ">
<path fill="none" stroke="#63b8ff" d="M886.46,-95.49C899.72,-97.47 915.52,-99.83 930.42,-102.06"/>
<polygon fill="#63b8ff" stroke="#63b8ff" points="929.66,-105.63 940.07,-103.65 930.69,-98.71 929.66,-105.63"/>
</a>
</g>
</g>
<!-- Node6 -->
<g id="Node000006" class="node">
<title>Node6</title>
<g id="a_Node000006"><a xlink:href="class_logger.html#a4825613142ebb093bf8fa26f21f7f3fc" target="_top" xlink:title="Метод, который выводит сообщение в консоль.">
<polygon fill="white" stroke="#666666" points="1044.5,-81.79 922,-81.79 922,-61.79 1044.5,-61.79 1044.5,-81.79"/>
<text text-anchor="middle" x="983.25" y="-68.29" font-family="Helvetica,sans-Serif" font-size="10.00">Logger::print_to_console</text>
</a>
</g>
</g>
<!-- Node3&#45;&gt;Node6 -->
<g id="edge5_Node000003_Node000006" class="edge">
<title>Node3&#45;&gt;Node6</title>
<g id="a_edge5_Node000003_Node000006"><a xlink:title=" ">
<path fill="none" stroke="#63b8ff" d="M886.46,-86.1C893.96,-84.98 902.27,-83.74 910.78,-82.47"/>
<polygon fill="#63b8ff" stroke="#63b8ff" points="911.23,-85.79 920.6,-80.85 910.19,-78.87 911.23,-85.79"/>
</a>
</g>
</g>
<!-- Node7 -->
<g id="Node000007" class="node">
<title>Node7</title>
<g id="a_Node000007"><a xlink:href="class_logger.html#a999bb33f7cf079cb98f32fae6016a2f3" target="_top" xlink:title="Метод, который записывает сообщение в файл.">
<polygon fill="white" stroke="#666666" points="1033.62,-43.79 932.88,-43.79 932.88,-23.79 1033.62,-23.79 1033.62,-43.79"/>
<text text-anchor="middle" x="983.25" y="-30.29" font-family="Helvetica,sans-Serif" font-size="10.00">Logger::print_to_file</text>
</a>
</g>
</g>
<!-- Node3&#45;&gt;Node7 -->
<g id="edge6_Node000003_Node000007" class="edge">
<title>Node3&#45;&gt;Node7</title>
<g id="a_edge6_Node000003_Node000007"><a xlink:title=" ">
<path fill="none" stroke="#63b8ff" d="M871.02,-80.43C884.3,-72.16 903.85,-60.7 922,-52.79 926.07,-51.02 930.36,-49.33 934.7,-47.75"/>
<polygon fill="#63b8ff" stroke="#63b8ff" points="935.53,-50.82 943.84,-44.24 933.24,-44.2 935.53,-50.82"/>
</a>
</g>
</g>
<!-- Node9 -->
<g id="Node000009" class="node">
<title>Node9</title>
<g id="a_Node000009"><a xlink:href="class_visa_device.html#aca08d9dbb0469f1143668a485e4adfe2" target="_top" xlink:title="Метод, позволяющий считать данные с устройства">
<polygon fill="white" stroke="#666666" points="785.25,-138.79 696.5,-138.79 696.5,-118.79 785.25,-118.79 785.25,-138.79"/>
<text text-anchor="middle" x="740.88" y="-125.29" font-family="Helvetica,sans-Serif" font-size="10.00">VisaDevice::read</text>
</a>
</g>
</g>
<!-- Node8&#45;&gt;Node9 -->
<g id="edge8_Node000008_Node000009" class="edge">
<title>Node8&#45;&gt;Node9</title>
<g id="a_edge8_Node000008_Node000009"><a xlink:title=" ">
<path fill="none" stroke="#63b8ff" d="M660,-128.79C668.21,-128.79 676.83,-128.79 685.25,-128.79"/>
<polygon fill="#63b8ff" stroke="#63b8ff" points="685.15,-132.29 695.15,-128.79 685.15,-125.29 685.15,-132.29"/>
</a>
</g>
</g>
<!-- Node10 -->
<g id="Node000010" class="node">
<title>Node10</title>
<g id="a_Node000010"><a xlink:href="class_visa_device.html#a29202c3f5e47326386d1d27972e25267" target="_top" xlink:title="Метод, позволяющий отправить команду на устройство">
<polygon fill="white" stroke="#666666" points="786,-100.79 695.75,-100.79 695.75,-80.79 786,-80.79 786,-100.79"/>
<text text-anchor="middle" x="740.88" y="-87.29" font-family="Helvetica,sans-Serif" font-size="10.00">VisaDevice::write</text>
</a>
</g>
</g>
<!-- Node8&#45;&gt;Node10 -->
<g id="edge10_Node000008_Node000010" class="edge">
<title>Node8&#45;&gt;Node10</title>
<g id="a_edge10_Node000008_Node000010"><a xlink:title=" ">
<path fill="none" stroke="#63b8ff" d="M648.55,-118.31C662.88,-113.99 679.68,-108.93 694.93,-104.34"/>
<polygon fill="#63b8ff" stroke="#63b8ff" points="695.63,-107.48 704.19,-101.24 693.61,-100.78 695.63,-107.48"/>
</a>
</g>
</g>
<!-- Node9&#45;&gt;Node3 -->
<g id="edge9_Node000009_Node000003" class="edge">
<title>Node9&#45;&gt;Node3</title>
<g id="a_edge9_Node000009_Node000003"><a xlink:title=" ">
<path fill="none" stroke="#63b8ff" d="M772.53,-118.31C784.8,-114.12 799.11,-109.22 812.23,-104.73"/>
<polygon fill="#63b8ff" stroke="#63b8ff" points="813.11,-107.79 821.44,-101.24 810.85,-101.17 813.11,-107.79"/>
</a>
</g>
</g>
<!-- Node10&#45;&gt;Node3 -->
<g id="edge11_Node000010_Node000003" class="edge">
<title>Node10&#45;&gt;Node3</title>
<g id="a_edge11_Node000010_Node000003"><a xlink:title=" ">
<path fill="none" stroke="#63b8ff" d="M786.43,-90.79C794.48,-90.79 802.84,-90.79 810.82,-90.79"/>
<polygon fill="#63b8ff" stroke="#63b8ff" points="810.75,-94.29 820.75,-90.79 810.75,-87.29 810.75,-94.29"/>
</a>
</g>
</g>
<!-- Node12 -->
<g id="Node000012" class="node">
<title>Node12</title>
<g id="a_Node000012"><a xlink:href="class_visa_device.html#ad659ba652605f5c983958400fde8c808" target="_top" xlink:title="Отправка данных на прибор и чтение ответа от прибора.">
<polygon fill="white" stroke="#666666" points="529.75,-119.79 438.75,-119.79 438.75,-99.79 529.75,-99.79 529.75,-119.79"/>
<text text-anchor="middle" x="484.25" y="-106.29" font-family="Helvetica,sans-Serif" font-size="10.00">VisaDevice::send</text>
</a>
</g>
</g>
<!-- Node11&#45;&gt;Node12 -->
<g id="edge14_Node000011_Node000012" class="edge">
<title>Node11&#45;&gt;Node12</title>
<g id="a_edge14_Node000011_Node000012"><a xlink:title=" ">
<path fill="none" stroke="#63b8ff" d="M279.74,-109.79C323.46,-109.79 383.92,-109.79 427.57,-109.79"/>
<polygon fill="#63b8ff" stroke="#63b8ff" points="427.56,-113.29 437.56,-109.79 427.56,-106.29 427.56,-113.29"/>
</a>
</g>
</g>
<!-- Node13 -->
<g id="Node000013" class="node">
<title>Node13</title>
<g id="a_Node000013"><a xlink:href="class_visa_device.html#ab1f5c0b110fca770dbd5be069453ea82" target="_top" xlink:title="Ожидание завершения выполнения команды.">
<polygon fill="white" stroke="#666666" points="402.75,-43.79 315.5,-43.79 315.5,-23.79 402.75,-23.79 402.75,-43.79"/>
<text text-anchor="middle" x="359.12" y="-30.29" font-family="Helvetica,sans-Serif" font-size="10.00">VisaDevice::wait</text>
</a>
</g>
</g>
<!-- Node11&#45;&gt;Node13 -->
<g id="edge19_Node000011_Node000013" class="edge">
<title>Node11&#45;&gt;Node13</title>
<g id="a_edge19_Node000011_Node000013"><a xlink:title=" ">
<path fill="none" stroke="#63b8ff" d="M242.15,-99.39C264.97,-86.48 304.07,-64.36 330.5,-49.42"/>
<polygon fill="#63b8ff" stroke="#63b8ff" points="331.96,-52.05 338.94,-44.08 328.52,-45.95 331.96,-52.05"/>
</a>
</g>
</g>
<!-- Node12&#45;&gt;Node3 -->
<g id="edge15_Node000012_Node000003" class="edge">
<title>Node12&#45;&gt;Node3</title>
<g id="a_edge15_Node000012_Node000003"><a xlink:title=" ">
<path fill="none" stroke="#63b8ff" d="M520.48,-99.3C576.68,-83.92 690.09,-58.46 786,-71.79 794.77,-73.01 804,-75.09 812.72,-77.43"/>
<polygon fill="#63b8ff" stroke="#63b8ff" points="811.45,-81 822.03,-80.38 813.38,-74.27 811.45,-81"/>
</a>
</g>
</g>
<!-- Node12&#45;&gt;Node8 -->
<g id="edge16_Node000012_Node000008" class="edge">
<title>Node12&#45;&gt;Node8</title>
<g id="a_edge16_Node000012_Node000008"><a xlink:title=" ">
<path fill="none" stroke="#63b8ff" d="M530.21,-116.55C538.2,-117.75 546.63,-119.01 554.91,-120.26"/>
<polygon fill="#63b8ff" stroke="#63b8ff" points="554.25,-123.85 564.66,-121.87 555.29,-116.93 554.25,-123.85"/>
</a>
</g>
</g>
<!-- Node12&#45;&gt;Node9 -->
<g id="edge17_Node000012_Node000009" class="edge">
<title>Node12&#45;&gt;Node9</title>
<g id="a_edge17_Node000012_Node000009"><a xlink:title=" ">
<path fill="none" stroke="#63b8ff" d="M501.73,-120.25C517.48,-129.56 542.22,-142.52 565.75,-147.79 608.91,-157.47 659.24,-150.02 694.65,-141.78"/>
<polygon fill="#63b8ff" stroke="#63b8ff" points="695.26,-144.99 704.14,-139.21 693.6,-138.19 695.26,-144.99"/>
</a>
</g>
</g>
<!-- Node12&#45;&gt;Node10 -->
<g id="edge18_Node000012_Node000010" class="edge">
<title>Node12&#45;&gt;Node10</title>
<g id="a_edge18_Node000012_Node000010"><a xlink:title=" ">
<path fill="none" stroke="#63b8ff" d="M530.19,-106.44C573.27,-103.23 638.42,-98.36 684.66,-94.91"/>
<polygon fill="#63b8ff" stroke="#63b8ff" points="684.68,-98.35 694.39,-94.11 684.16,-91.37 684.68,-98.35"/>
</a>
</g>
</g>
<!-- Node13&#45;&gt;Node3 -->
<g id="edge20_Node000013_Node000003" class="edge">
<title>Node13&#45;&gt;Node3</title>
<g id="a_edge20_Node000013_Node000003"><a xlink:title=" ">
<path fill="none" stroke="#63b8ff" d="M395.42,-23.38C408.85,-19.92 424.39,-16.51 438.75,-14.79 592.5,3.52 641.38,12.51 786,-42.79 804.03,-49.69 821.66,-62.64 834.3,-73.36"/>
<polygon fill="#63b8ff" stroke="#63b8ff" points="831.39,-75.33 841.21,-79.31 836.01,-70.08 831.39,-75.33"/>
</a>
</g>
</g>
<!-- Node14 -->
<g id="Node000014" class="node">
<title>Node14</title>
<g id="a_Node000014"><a xlink:href="class_visa_device.html#a70a6c6ace7c5841db420c1e112782a53" target="_top" xlink:title="Отправляет команду &quot;*OPC?&quot; на подключенное устройство, ожидает ответ и, в зависимости от полученного ...">
<polygon fill="white" stroke="#666666" points="527.12,-43.79 441.38,-43.79 441.38,-23.79 527.12,-23.79 527.12,-43.79"/>
<text text-anchor="middle" x="484.25" y="-30.29" font-family="Helvetica,sans-Serif" font-size="10.00">VisaDevice::opc</text>
</a>
</g>
</g>
<!-- Node13&#45;&gt;Node14 -->
<g id="edge21_Node000013_Node000014" class="edge">
<title>Node13&#45;&gt;Node14</title>
<g id="a_edge21_Node000013_Node000014"><a xlink:title=" ">
<path fill="none" stroke="#63b8ff" d="M403.19,-33.79C411.96,-33.79 421.29,-33.79 430.36,-33.79"/>
<polygon fill="#63b8ff" stroke="#63b8ff" points="430.25,-37.29 440.25,-33.79 430.25,-30.29 430.25,-37.29"/>
</a>
</g>
</g>
<!-- Node14&#45;&gt;Node3 -->
<g id="edge22_Node000014_Node000003" class="edge">
<title>Node14&#45;&gt;Node3</title>
<g id="a_edge22_Node000014_Node000003"><a xlink:title=" ">
<path fill="none" stroke="#63b8ff" d="M527.23,-34.25C585.95,-35.73 695.56,-41.54 786,-63.79 797.9,-66.72 810.49,-71.35 821.49,-75.96"/>
<polygon fill="#63b8ff" stroke="#63b8ff" points="819.93,-79.53 830.49,-80.31 822.72,-73.11 819.93,-79.53"/>
</a>
</g>
</g>
<!-- Node14&#45;&gt;Node8 -->
<g id="edge23_Node000014_Node000008" class="edge">
<title>Node14&#45;&gt;Node8</title>
<g id="a_edge23_Node000014_Node000008"><a xlink:title=" ">
<path fill="none" stroke="#63b8ff" d="M498.79,-43.96C520.45,-60.23 563.14,-92.29 589.39,-112"/>
<polygon fill="#63b8ff" stroke="#63b8ff" points="586.83,-115.21 596.93,-118.41 591.03,-109.61 586.83,-115.21"/>
</a>
</g>
</g>
</g>
</svg>
