<?xml version="1.0" encoding="UTF-8" standalone="no"?>
<!DOCTYPE svg PUBLIC "-//W3C//DTD SVG 1.1//EN"
 "http://www.w3.org/Graphics/SVG/1.1/DTD/svg11.dtd">
<!-- Generated by graphviz version 8.0.5 (20230430.1635)
 -->
<!-- Title: VisaDevice::connect Pages: 1 -->
<svg width="264pt" height="66pt"
 viewBox="0.00 0.00 263.50 66.00" xmlns="http://www.w3.org/2000/svg" xmlns:xlink="http://www.w3.org/1999/xlink">
<g id="graph0" class="graph" transform="scale(1 1) rotate(0) translate(4 62)">
<title>VisaDevice::connect</title>
<!-- Node1 -->
<g id="Node000001" class="node">
<title>Node1</title>
<g id="a_Node000001"><a xlink:title=" ">
<polygon fill="#999999" stroke="#666666" points="255.5,-39 151,-39 151,-19 255.5,-19 255.5,-39"/>
<text text-anchor="middle" x="203.25" y="-25.5" font-family="Helvetica,sans-Serif" font-size="10.00">VisaDevice::connect</text>
</a>
</g>
</g>
<!-- Node2 -->
<g id="Node000002" class="node">
<title>Node2</title>
<g id="a_Node000002"><a xlink:href="class_gen_device.html#ae42dc0c930a6d23322ffbe223d81ab36" target="_top" xlink:title=" ">
<polygon fill="white" stroke="#666666" points="115,-58 0,-58 0,-38 115,-38 115,-58"/>
<text text-anchor="middle" x="57.5" y="-44.5" font-family="Helvetica,sans-Serif" font-size="10.00">GenDevice::GenDevice</text>
</a>
</g>
</g>
<!-- Node1&#45;&gt;Node2 -->
<g id="edge1_Node000001_Node000002" class="edge">
<title>Node1&#45;&gt;Node2</title>
<g id="a_edge1_Node000001_Node000002"><a xlink:title=" ">
<path fill="none" stroke="#63b8ff" d="M140.13,-37.21C131.94,-38.29 123.58,-39.4 115.48,-40.47"/>
<polygon fill="#63b8ff" stroke="#63b8ff" points="140.3,-40.59 149.76,-35.81 139.39,-33.65 140.3,-40.59"/>
</a>
</g>
</g>
<!-- Node3 -->
<g id="Node000003" class="node">
<title>Node3</title>
<g id="a_Node000003"><a xlink:href="class_vna_device.html#ace1217e26e6e8d1b0e5127227730989b" target="_top" xlink:title=" ">
<polygon fill="white" stroke="#666666" points="114.25,-20 0.75,-20 0.75,0 114.25,0 114.25,-20"/>
<text text-anchor="middle" x="57.5" y="-6.5" font-family="Helvetica,sans-Serif" font-size="10.00">VnaDevice::VnaDevice</text>
</a>
</g>
</g>
<!-- Node1&#45;&gt;Node3 -->
<g id="edge2_Node000001_Node000003" class="edge">
<title>Node1&#45;&gt;Node3</title>
<g id="a_edge2_Node000001_Node000003"><a xlink:title=" ">
<path fill="none" stroke="#63b8ff" d="M140.11,-20.79C131.6,-19.66 122.9,-18.51 114.5,-17.4"/>
<polygon fill="#63b8ff" stroke="#63b8ff" points="139.39,-24.35 149.76,-22.19 140.3,-17.41 139.39,-24.35"/>
</a>
</g>
</g>
</g>
</svg>
