<?xml version="1.0" encoding="UTF-8" standalone="no"?>
<!DOCTYPE svg PUBLIC "-//W3C//DTD SVG 1.1//EN"
 "http://www.w3.org/Graphics/SVG/1.1/DTD/svg11.dtd">
<!-- Generated by graphviz version 8.0.5 (20230430.1635)
 -->
<!-- Title: DeviceSet::move_to_start_freq Pages: 1 -->
<svg width="777pt" height="90pt"
 viewBox="0.00 0.00 776.75 90.00" xmlns="http://www.w3.org/2000/svg" xmlns:xlink="http://www.w3.org/1999/xlink">
<g id="graph0" class="graph" transform="scale(1 1) rotate(0) translate(4 86)">
<title>DeviceSet::move_to_start_freq</title>
<!-- Node1 -->
<g id="Node000001" class="node">
<title>Node1</title>
<g id="a_Node000001"><a xlink:title=" ">
<polygon fill="#999999" stroke="#666666" points="768.75,-57 667.25,-57 667.25,-25 768.75,-25 768.75,-57"/>
<text text-anchor="start" x="675.25" y="-43.5" font-family="Helvetica,sans-Serif" font-size="10.00">DeviceSet::move_to</text>
<text text-anchor="middle" x="718" y="-31.5" font-family="Helvetica,sans-Serif" font-size="10.00">_start_freq</text>
</a>
</g>
</g>
<!-- Node2 -->
<g id="Node000002" class="node">
<title>Node2</title>
<g id="a_Node000002"><a xlink:href="class_task_manager.html#ad9d635ee64d44cc34b619f2e3018e9d1" target="_top" xlink:title=" ">
<polygon fill="white" stroke="#666666" points="631.25,-82 516.25,-82 516.25,-50 631.25,-50 631.25,-82"/>
<text text-anchor="start" x="524.25" y="-68.5" font-family="Helvetica,sans-Serif" font-size="10.00">TaskManager::proceed</text>
<text text-anchor="middle" x="573.75" y="-56.5" font-family="Helvetica,sans-Serif" font-size="10.00">_nested_task_list</text>
</a>
</g>
</g>
<!-- Node1&#45;&gt;Node2 -->
<g id="edge1_Node000001_Node000002" class="edge">
<title>Node1&#45;&gt;Node2</title>
<g id="a_edge1_Node000001_Node000002"><a xlink:title=" ">
<path fill="none" stroke="#63b8ff" d="M656.28,-51.67C648.14,-53.1 639.81,-54.57 631.73,-55.99"/>
<polygon fill="#63b8ff" stroke="#63b8ff" points="656.6,-54.99 665.85,-49.81 655.39,-48.1 656.6,-54.99"/>
</a>
</g>
</g>
<!-- Node7 -->
<g id="Node000007" class="node">
<title>Node7</title>
<g id="a_Node000007"><a xlink:href="class_task_manager.html#ac63779261327a9f2b120a6c7dd648110" target="_top" xlink:title=" ">
<polygon fill="white" stroke="#666666" points="631.25,-32 516.25,-32 516.25,0 631.25,0 631.25,-32"/>
<text text-anchor="start" x="524.25" y="-18.5" font-family="Helvetica,sans-Serif" font-size="10.00">TaskManager::set_freq</text>
<text text-anchor="middle" x="573.75" y="-6.5" font-family="Helvetica,sans-Serif" font-size="10.00">_range_task</text>
</a>
</g>
</g>
<!-- Node1&#45;&gt;Node7 -->
<g id="edge6_Node000001_Node000007" class="edge">
<title>Node1&#45;&gt;Node7</title>
<g id="a_edge6_Node000001_Node000007"><a xlink:title=" ">
<path fill="none" stroke="#63b8ff" d="M656.28,-30.33C648.14,-28.9 639.81,-27.43 631.73,-26.01"/>
<polygon fill="#63b8ff" stroke="#63b8ff" points="655.39,-33.9 665.85,-32.19 656.6,-27.01 655.39,-33.9"/>
</a>
</g>
</g>
<!-- Node3 -->
<g id="Node000003" class="node">
<title>Node3</title>
<g id="a_Node000003"><a xlink:href="class_task_manager.html#a4b629612e2a111fdcc964c4eb3f8b1f4" target="_top" xlink:title=" ">
<polygon fill="white" stroke="#666666" points="480.25,-82 365.25,-82 365.25,-50 480.25,-50 480.25,-82"/>
<text text-anchor="start" x="373.25" y="-68.5" font-family="Helvetica,sans-Serif" font-size="10.00">TaskManager::proceed</text>
<text text-anchor="middle" x="422.75" y="-56.5" font-family="Helvetica,sans-Serif" font-size="10.00">_task_list</text>
</a>
</g>
</g>
<!-- Node2&#45;&gt;Node3 -->
<g id="edge2_Node000002_Node000003" class="edge">
<title>Node2&#45;&gt;Node3</title>
<g id="a_edge2_Node000002_Node000003"><a xlink:title=" ">
<path fill="none" stroke="#63b8ff" d="M505.18,-66C496.88,-66 488.46,-66 480.35,-66"/>
<polygon fill="#63b8ff" stroke="#63b8ff" points="504.99,-69.5 514.99,-66 504.99,-62.5 504.99,-69.5"/>
</a>
</g>
</g>
<!-- Node4 -->
<g id="Node000004" class="node">
<title>Node4</title>
<g id="a_Node000004"><a xlink:href="class_task_manager.html#a62720d3b2e70353688122cf2b706b3ce" target="_top" xlink:title=" ">
<polygon fill="white" stroke="#666666" points="329.25,-76 214.25,-76 214.25,-56 329.25,-56 329.25,-76"/>
<text text-anchor="middle" x="271.75" y="-62.5" font-family="Helvetica,sans-Serif" font-size="10.00">TaskManager::proceed</text>
</a>
</g>
</g>
<!-- Node3&#45;&gt;Node4 -->
<g id="edge3_Node000003_Node000004" class="edge">
<title>Node3&#45;&gt;Node4</title>
<g id="a_edge3_Node000003_Node000004"><a xlink:title=" ">
<path fill="none" stroke="#63b8ff" d="M354.18,-66C345.88,-66 337.46,-66 329.35,-66"/>
<polygon fill="#63b8ff" stroke="#63b8ff" points="353.99,-69.5 363.99,-66 353.99,-62.5 353.99,-69.5"/>
</a>
</g>
</g>
<!-- Node5 -->
<g id="Node000005" class="node">
<title>Node5</title>
<g id="a_Node000005"><a xlink:href="main_8cpp.html#a205c0f32d26b6f27c711fa201d02c983" target="_top" xlink:title=" ">
<polygon fill="white" stroke="#666666" points="178.25,-76 73,-76 73,-56 178.25,-56 178.25,-76"/>
<text text-anchor="middle" x="125.62" y="-62.5" font-family="Helvetica,sans-Serif" font-size="10.00">data_server_thread_f</text>
</a>
</g>
</g>
<!-- Node4&#45;&gt;Node5 -->
<g id="edge4_Node000004_Node000005" class="edge">
<title>Node4&#45;&gt;Node5</title>
<g id="a_edge4_Node000004_Node000005"><a xlink:title=" ">
<path fill="none" stroke="#63b8ff" d="M203.03,-66C194.78,-66 186.46,-66 178.49,-66"/>
<polygon fill="#63b8ff" stroke="#63b8ff" points="202.79,-69.5 212.79,-66 202.79,-62.5 202.79,-69.5"/>
</a>
</g>
</g>
<!-- Node6 -->
<g id="Node000006" class="node">
<title>Node6</title>
<g id="a_Node000006"><a xlink:href="main_8cpp.html#a0ddf1224851353fc92bfbff6f499fa97" target="_top" xlink:title=" ">
<polygon fill="white" stroke="#666666" points="37,-76 0,-76 0,-56 37,-56 37,-76"/>
<text text-anchor="middle" x="18.5" y="-62.5" font-family="Helvetica,sans-Serif" font-size="10.00">main</text>
</a>
</g>
</g>
<!-- Node5&#45;&gt;Node6 -->
<g id="edge5_Node000005_Node000006" class="edge">
<title>Node5&#45;&gt;Node6</title>
<g id="a_edge5_Node000005_Node000006"><a xlink:title=" ">
<path fill="none" stroke="#63b8ff" d="M61.91,-66C52.84,-66 44.2,-66 37.1,-66"/>
<polygon fill="#63b8ff" stroke="#63b8ff" points="61.68,-69.5 71.68,-66 61.68,-62.5 61.68,-69.5"/>
</a>
</g>
</g>
</g>
</svg>
