<?xml version="1.0" encoding="UTF-8" standalone="no"?>
<!DOCTYPE svg PUBLIC "-//W3C//DTD SVG 1.1//EN"
 "http://www.w3.org/Graphics/SVG/1.1/DTD/svg11.dtd">
<!-- Generated by graphviz version 8.0.5 (20230430.1635)
 -->
<!-- Title: TaskManager::set_freq_task Pages: 1 -->
<svg width="581pt" height="161pt"
 viewBox="0.00 0.00 580.50 161.00" xmlns="http://www.w3.org/2000/svg" xmlns:xlink="http://www.w3.org/1999/xlink">
<g id="graph0" class="graph" transform="scale(1 1) rotate(0) translate(4 157)">
<title>TaskManager::set_freq_task</title>
<!-- Node1 -->
<g id="Node000001" class="node">
<title>Node1</title>
<g id="a_Node000001"><a xlink:title=" ">
<polygon fill="#999999" stroke="#666666" points="139,-77 0,-77 0,-57 139,-57 139,-77"/>
<text text-anchor="middle" x="69.5" y="-63.5" font-family="Helvetica,sans-Serif" font-size="10.00">TaskManager::set_freq_task</text>
</a>
</g>
</g>
<!-- Node2 -->
<g id="Node000002" class="node">
<title>Node2</title>
<g id="a_Node000002"><a xlink:href="class_logger.html#af7709105c2708359b7b082218f4cc3e1" target="_top" xlink:title="Метод, осуществляющий логирование">
<polygon fill="white" stroke="#666666" points="394.5,-96 330.5,-96 330.5,-76 394.5,-76 394.5,-96"/>
<text text-anchor="middle" x="362.5" y="-82.5" font-family="Helvetica,sans-Serif" font-size="10.00">Logger::log</text>
</a>
</g>
</g>
<!-- Node1&#45;&gt;Node2 -->
<g id="edge1_Node000001_Node000002" class="edge">
<title>Node1&#45;&gt;Node2</title>
<g id="a_edge1_Node000001_Node000002"><a xlink:title=" ">
<path fill="none" stroke="#63b8ff" d="M139.46,-71.5C195.32,-75.15 272.22,-80.17 319.31,-83.25"/>
<polygon fill="#63b8ff" stroke="#63b8ff" points="318.82,-86.79 329.03,-83.95 319.28,-79.8 318.82,-86.79"/>
</a>
</g>
</g>
<!-- Node7 -->
<g id="Node000007" class="node">
<title>Node7</title>
<g id="a_Node000007"><a xlink:href="class_device_set.html#a230a59d041a46d28e1cc4dfaa0d9ab3d" target="_top" xlink:title="Устанавливает требуемое значение частоты зондирующего сигнала">
<polygon fill="white" stroke="#666666" points="275,-58 175,-58 175,-38 275,-38 275,-58"/>
<text text-anchor="middle" x="225" y="-44.5" font-family="Helvetica,sans-Serif" font-size="10.00">DeviceSet::set_freq</text>
</a>
</g>
</g>
<!-- Node1&#45;&gt;Node7 -->
<g id="edge6_Node000001_Node000007" class="edge">
<title>Node1&#45;&gt;Node7</title>
<g id="a_edge6_Node000001_Node000007"><a xlink:title=" ">
<path fill="none" stroke="#63b8ff" d="M139.17,-58.5C147.4,-57.48 155.76,-56.45 163.86,-55.44"/>
<polygon fill="#63b8ff" stroke="#63b8ff" points="164.21,-58.8 173.7,-54.1 163.35,-51.86 164.21,-58.8"/>
</a>
</g>
</g>
<!-- Node3 -->
<g id="Node000003" class="node">
<title>Node3</title>
<g id="a_Node000003"><a xlink:href="logger_8hpp.html#a49284b7befa8e31f81e01ee8f3735dd0" target="_top" xlink:title="Функция, которая снимает значение текущего времени и конвертирует его в строку с заданным шаблоном.">
<polygon fill="white" stroke="#666666" points="555.62,-153 466.88,-153 466.88,-133 555.62,-133 555.62,-153"/>
<text text-anchor="middle" x="511.25" y="-139.5" font-family="Helvetica,sans-Serif" font-size="10.00">get_current_time</text>
</a>
</g>
</g>
<!-- Node2&#45;&gt;Node3 -->
<g id="edge2_Node000002_Node000003" class="edge">
<title>Node2&#45;&gt;Node3</title>
<g id="a_edge2_Node000002_Node000003"><a xlink:title=" ">
<path fill="none" stroke="#63b8ff" d="M385.27,-96.35C402.6,-104.4 427.58,-115.57 450,-124 454.75,-125.79 459.76,-127.55 464.77,-129.24"/>
<polygon fill="#63b8ff" stroke="#63b8ff" points="463.39,-132.8 473.99,-132.58 465.57,-126.15 463.39,-132.8"/>
</a>
</g>
</g>
<!-- Node4 -->
<g id="Node000004" class="node">
<title>Node4</title>
<g id="a_Node000004"><a xlink:href="class_logger.html#a6edb7b263f080d417b82a537ed50fee4" target="_top" xlink:title="Возвращает тег в зависимости от уровня логирования и от назначения тега.">
<polygon fill="white" stroke="#666666" points="553,-115 469.5,-115 469.5,-95 553,-95 553,-115"/>
<text text-anchor="middle" x="511.25" y="-101.5" font-family="Helvetica,sans-Serif" font-size="10.00">Logger::get_tag</text>
</a>
</g>
</g>
<!-- Node2&#45;&gt;Node4 -->
<g id="edge3_Node000002_Node000004" class="edge">
<title>Node2&#45;&gt;Node4</title>
<g id="a_edge3_Node000002_Node000004"><a xlink:title=" ">
<path fill="none" stroke="#63b8ff" d="M394.98,-90.08C413.41,-92.46 437.15,-95.54 458.29,-98.27"/>
<polygon fill="#63b8ff" stroke="#63b8ff" points="457.69,-101.85 468.06,-99.67 458.59,-94.91 457.69,-101.85"/>
</a>
</g>
</g>
<!-- Node5 -->
<g id="Node000005" class="node">
<title>Node5</title>
<g id="a_Node000005"><a xlink:href="class_logger.html#a4825613142ebb093bf8fa26f21f7f3fc" target="_top" xlink:title="Метод, который выводит сообщение в консоль.">
<polygon fill="white" stroke="#666666" points="572.5,-77 450,-77 450,-57 572.5,-57 572.5,-77"/>
<text text-anchor="middle" x="511.25" y="-63.5" font-family="Helvetica,sans-Serif" font-size="10.00">Logger::print_to_console</text>
</a>
</g>
</g>
<!-- Node2&#45;&gt;Node5 -->
<g id="edge4_Node000002_Node000005" class="edge">
<title>Node2&#45;&gt;Node5</title>
<g id="a_edge4_Node000002_Node000005"><a xlink:title=" ">
<path fill="none" stroke="#63b8ff" d="M394.98,-81.92C407.91,-80.25 423.46,-78.24 438.88,-76.24"/>
<polygon fill="#63b8ff" stroke="#63b8ff" points="439.04,-79.62 448.51,-74.86 438.14,-72.68 439.04,-79.62"/>
</a>
</g>
</g>
<!-- Node6 -->
<g id="Node000006" class="node">
<title>Node6</title>
<g id="a_Node000006"><a xlink:href="class_logger.html#a999bb33f7cf079cb98f32fae6016a2f3" target="_top" xlink:title="Метод, который записывает сообщение в файл.">
<polygon fill="white" stroke="#666666" points="561.62,-39 460.88,-39 460.88,-19 561.62,-19 561.62,-39"/>
<text text-anchor="middle" x="511.25" y="-25.5" font-family="Helvetica,sans-Serif" font-size="10.00">Logger::print_to_file</text>
</a>
</g>
</g>
<!-- Node2&#45;&gt;Node6 -->
<g id="edge5_Node000002_Node000006" class="edge">
<title>Node2&#45;&gt;Node6</title>
<g id="a_edge5_Node000002_Node000006"><a xlink:title=" ">
<path fill="none" stroke="#63b8ff" d="M393.13,-75.56C400.05,-72.93 407.34,-70 414,-67 430.5,-59.58 433.31,-54.97 450,-48 454.33,-46.19 458.9,-44.46 463.5,-42.82"/>
<polygon fill="#63b8ff" stroke="#63b8ff" points="464.2,-45.94 472.55,-39.41 461.95,-39.31 464.2,-45.94"/>
</a>
</g>
</g>
<!-- Node7&#45;&gt;Node2 -->
<g id="edge7_Node000007_Node000002" class="edge">
<title>Node7&#45;&gt;Node2</title>
<g id="a_edge7_Node000007_Node000002"><a xlink:title=" ">
<path fill="none" stroke="#63b8ff" d="M263.38,-58.48C280.85,-63.38 301.71,-69.23 319.7,-74.28"/>
<polygon fill="#63b8ff" stroke="#63b8ff" points="318.62,-77.89 329.19,-77.22 320.51,-71.15 318.62,-77.89"/>
</a>
</g>
</g>
<!-- Node8 -->
<g id="Node000008" class="node">
<title>Node8</title>
<g id="a_Node000008"><a xlink:href="class_gen_device.html#a96be6231d276486d30a77fb6f7235994" target="_top" xlink:title=" ">
<polygon fill="white" stroke="#666666" points="414,-58 311,-58 311,-38 414,-38 414,-58"/>
<text text-anchor="middle" x="362.5" y="-44.5" font-family="Helvetica,sans-Serif" font-size="10.00">GenDevice::set_freq</text>
</a>
</g>
</g>
<!-- Node7&#45;&gt;Node8 -->
<g id="edge8_Node000007_Node000008" class="edge">
<title>Node7&#45;&gt;Node8</title>
<g id="a_edge8_Node000007_Node000008"><a xlink:title=" ">
<path fill="none" stroke="#63b8ff" d="M275.3,-48C283.3,-48 291.67,-48 299.91,-48"/>
<polygon fill="#63b8ff" stroke="#63b8ff" points="299.64,-51.5 309.64,-48 299.64,-44.5 299.64,-51.5"/>
</a>
</g>
</g>
<!-- Node9 -->
<g id="Node000009" class="node">
<title>Node9</title>
<g id="a_Node000009"><a xlink:href="class_vna_device.html#a97c03089e22546ff4c832c13a4e2c3a0" target="_top" xlink:title="Установка определённого значения частоты">
<polygon fill="white" stroke="#666666" points="413.62,-20 311.38,-20 311.38,0 413.62,0 413.62,-20"/>
<text text-anchor="middle" x="362.5" y="-6.5" font-family="Helvetica,sans-Serif" font-size="10.00">VnaDevice::set_freq</text>
</a>
</g>
</g>
<!-- Node7&#45;&gt;Node9 -->
<g id="edge9_Node000007_Node000009" class="edge">
<title>Node7&#45;&gt;Node9</title>
<g id="a_edge9_Node000007_Node000009"><a xlink:title=" ">
<path fill="none" stroke="#63b8ff" d="M263.38,-37.52C278.94,-33.15 297.18,-28.04 313.69,-23.41"/>
<polygon fill="#63b8ff" stroke="#63b8ff" points="314.55,-26.52 323.24,-20.45 312.66,-19.78 314.55,-26.52"/>
</a>
</g>
</g>
</g>
</svg>
