<?xml version="1.0" encoding="UTF-8" standalone="no"?>
<!DOCTYPE svg PUBLIC "-//W3C//DTD SVG 1.1//EN"
 "http://www.w3.org/Graphics/SVG/1.1/DTD/svg11.dtd">
<!-- Generated by graphviz version 8.1.0 (20230707.0739)
 -->
<!-- Title: TesartRbd::prev_angle Pages: 1 -->
<svg width="808pt" height="142pt"
 viewBox="0.00 0.00 808.25 142.00" xmlns="http://www.w3.org/2000/svg" xmlns:xlink="http://www.w3.org/1999/xlink">
<g id="graph0" class="graph" transform="scale(1 1) rotate(0) translate(4 138)">
<title>TesartRbd::prev_angle</title>
<!-- Node1 -->
<g id="Node000001" class="node">
<title>Node1</title>
<g id="a_Node000001"><a xlink:title="Переход к предыдущей угловой точке">
<polygon fill="#999999" stroke="#666666" points="112,-58 0,-58 0,-38 112,-38 112,-58"/>
<text text-anchor="middle" x="56" y="-44.5" font-family="Helvetica,sans-Serif" font-size="10.00">TesartRbd::prev_angle</text>
</a>
</g>
</g>
<!-- Node2 -->
<g id="Node000002" class="node">
<title>Node2</title>
<g id="a_Node000002"><a xlink:href="class_tesart_rbd.html#a1317670f51c7e529ca5960e69b7563a7" target="_top" xlink:title="Поворачивает ось до тех пор, пока она не достигнет требуемого угла">
<polygon fill="white" stroke="#666666" points="236.75,-58 148,-58 148,-38 236.75,-38 236.75,-58"/>
<text text-anchor="middle" x="192.38" y="-44.5" font-family="Helvetica,sans-Serif" font-size="10.00">TesartRbd::move</text>
</a>
</g>
</g>
<!-- Node1&#45;&gt;Node2 -->
<g id="edge1_Node000001_Node000002" class="edge">
<title>Node1&#45;&gt;Node2</title>
<g id="a_edge1_Node000001_Node000002"><a xlink:title=" ">
<path fill="none" stroke="#63b8ff" d="M112.43,-48C120.48,-48 128.77,-48 136.8,-48"/>
<polygon fill="#63b8ff" stroke="#63b8ff" points="136.56,-51.5 146.56,-48 136.56,-44.5 136.56,-51.5"/>
</a>
</g>
</g>
<!-- Node3 -->
<g id="Node000003" class="node">
<title>Node3</title>
<g id="a_Node000003"><a xlink:href="class_tesart_rbd.html#a9a7da6f896259d62e9f1b1850371fa5e" target="_top" xlink:title="Метод позволяет проверить, остановлена ли ось">
<polygon fill="white" stroke="#666666" points="386.25,-77 272.75,-77 272.75,-57 386.25,-57 386.25,-77"/>
<text text-anchor="middle" x="329.5" y="-63.5" font-family="Helvetica,sans-Serif" font-size="10.00">TesartRbd::is_stopped</text>
</a>
</g>
</g>
<!-- Node2&#45;&gt;Node3 -->
<g id="edge2_Node000002_Node000003" class="edge">
<title>Node2&#45;&gt;Node3</title>
<g id="a_edge2_Node000002_Node000003"><a xlink:title=" ">
<path fill="none" stroke="#63b8ff" d="M237.25,-54.17C245.07,-55.27 253.38,-56.44 261.67,-57.6"/>
<polygon fill="#63b8ff" stroke="#63b8ff" points="261.13,-61.2 271.52,-59.13 262.11,-54.27 261.13,-61.2"/>
</a>
</g>
</g>
<!-- Node4 -->
<g id="Node000004" class="node">
<title>Node4</title>
<g id="a_Node000004"><a xlink:href="class_logger.html#af7709105c2708359b7b082218f4cc3e1" target="_top" xlink:title="Метод, осуществляющий логирование">
<polygon fill="white" stroke="#666666" points="628.62,-77 564.62,-77 564.62,-57 628.62,-57 628.62,-77"/>
<text text-anchor="middle" x="596.62" y="-63.5" font-family="Helvetica,sans-Serif" font-size="10.00">Logger::log</text>
</a>
</g>
</g>
<!-- Node2&#45;&gt;Node4 -->
<g id="edge11_Node000002_Node000004" class="edge">
<title>Node2&#45;&gt;Node4</title>
<g id="a_edge11_Node000002_Node000004"><a xlink:title=" ">
<path fill="none" stroke="#63b8ff" d="M237.06,-46.87C276.17,-46.14 335.07,-45.68 386.25,-48 444.49,-50.64 511.56,-57.38 553.77,-62.08"/>
<polygon fill="#63b8ff" stroke="#63b8ff" points="553.14,-65.64 563.47,-63.28 553.92,-58.69 553.14,-65.64"/>
</a>
</g>
</g>
<!-- Node3&#45;&gt;Node4 -->
<g id="edge3_Node000003_Node000004" class="edge">
<title>Node3&#45;&gt;Node4</title>
<g id="a_edge3_Node000003_Node000004"><a xlink:title=" ">
<path fill="none" stroke="#63b8ff" d="M386.73,-67C436.61,-67 508.37,-67 553.47,-67"/>
<polygon fill="#63b8ff" stroke="#63b8ff" points="553.33,-70.5 563.33,-67 553.33,-63.5 553.33,-70.5"/>
</a>
</g>
</g>
<!-- Node9 -->
<g id="Node000009" class="node">
<title>Node9</title>
<g id="a_Node000009"><a xlink:href="class_tesart_rbd.html#affbded46e17aa303601ba7ef885107b8" target="_top" xlink:title="Запрос статуса оси ОПУ по номеру оси">
<polygon fill="white" stroke="#666666" points="515.5,-115 422.25,-115 422.25,-95 515.5,-95 515.5,-115"/>
<text text-anchor="middle" x="468.88" y="-101.5" font-family="Helvetica,sans-Serif" font-size="10.00">TesartRbd::status</text>
</a>
</g>
</g>
<!-- Node3&#45;&gt;Node9 -->
<g id="edge8_Node000003_Node000009" class="edge">
<title>Node3&#45;&gt;Node9</title>
<g id="a_edge8_Node000003_Node000009"><a xlink:title=" ">
<path fill="none" stroke="#63b8ff" d="M368.4,-77.48C384.32,-81.89 403.01,-87.06 419.88,-91.72"/>
<polygon fill="#63b8ff" stroke="#63b8ff" points="418.53,-95.26 429.1,-94.55 420.39,-88.51 418.53,-95.26"/>
</a>
</g>
</g>
<!-- Node5 -->
<g id="Node000005" class="node">
<title>Node5</title>
<g id="a_Node000005"><a xlink:href="logger_8hpp.html#a49284b7befa8e31f81e01ee8f3735dd0" target="_top" xlink:title="Функция, которая снимает значение текущего времени и конвертирует его в строку с заданным шаблоном.">
<polygon fill="white" stroke="#666666" points="783.38,-134 694.62,-134 694.62,-114 783.38,-114 783.38,-134"/>
<text text-anchor="middle" x="739" y="-120.5" font-family="Helvetica,sans-Serif" font-size="10.00">get_current_time</text>
</a>
</g>
</g>
<!-- Node4&#45;&gt;Node5 -->
<g id="edge4_Node000004_Node000005" class="edge">
<title>Node4&#45;&gt;Node5</title>
<g id="a_edge4_Node000004_Node000005"><a xlink:title=" ">
<path fill="none" stroke="#63b8ff" d="M622.52,-77.31C628.84,-80.04 635.58,-83.05 641.75,-86 658.07,-93.81 661.06,-98.03 677.75,-105 682.08,-106.81 686.65,-108.54 691.25,-110.18"/>
<polygon fill="#63b8ff" stroke="#63b8ff" points="689.7,-113.69 700.3,-113.59 691.95,-107.06 689.7,-113.69"/>
</a>
</g>
</g>
<!-- Node6 -->
<g id="Node000006" class="node">
<title>Node6</title>
<g id="a_Node000006"><a xlink:href="class_logger.html#a6edb7b263f080d417b82a537ed50fee4" target="_top" xlink:title="Возвращает тег в зависимости от уровня логирования и от назначения тега.">
<polygon fill="white" stroke="#666666" points="780.75,-96 697.25,-96 697.25,-76 780.75,-76 780.75,-96"/>
<text text-anchor="middle" x="739" y="-82.5" font-family="Helvetica,sans-Serif" font-size="10.00">Logger::get_tag</text>
</a>
</g>
</g>
<!-- Node4&#45;&gt;Node6 -->
<g id="edge5_Node000004_Node000006" class="edge">
<title>Node4&#45;&gt;Node6</title>
<g id="a_edge5_Node000004_Node000006"><a xlink:title=" ">
<path fill="none" stroke="#63b8ff" d="M628.78,-71.22C645.6,-73.49 666.81,-76.36 686.06,-78.97"/>
<polygon fill="#63b8ff" stroke="#63b8ff" points="685.43,-82.55 695.81,-80.42 686.37,-75.61 685.43,-82.55"/>
</a>
</g>
</g>
<!-- Node7 -->
<g id="Node000007" class="node">
<title>Node7</title>
<g id="a_Node000007"><a xlink:href="class_logger.html#a4825613142ebb093bf8fa26f21f7f3fc" target="_top" xlink:title="Метод, который выводит сообщение в консоль.">
<polygon fill="white" stroke="#666666" points="800.25,-58 677.75,-58 677.75,-38 800.25,-38 800.25,-58"/>
<text text-anchor="middle" x="739" y="-44.5" font-family="Helvetica,sans-Serif" font-size="10.00">Logger::print_to_console</text>
</a>
</g>
</g>
<!-- Node4&#45;&gt;Node7 -->
<g id="edge6_Node000004_Node000007" class="edge">
<title>Node4&#45;&gt;Node7</title>
<g id="a_edge6_Node000004_Node000007"><a xlink:title=" ">
<path fill="none" stroke="#63b8ff" d="M628.78,-62.78C640.06,-61.26 653.31,-59.46 666.62,-57.66"/>
<polygon fill="#63b8ff" stroke="#63b8ff" points="666.83,-61.03 676.27,-56.22 665.9,-54.09 666.83,-61.03"/>
</a>
</g>
</g>
<!-- Node8 -->
<g id="Node000008" class="node">
<title>Node8</title>
<g id="a_Node000008"><a xlink:href="class_logger.html#a999bb33f7cf079cb98f32fae6016a2f3" target="_top" xlink:title="Метод, который записывает сообщение в файл.">
<polygon fill="white" stroke="#666666" points="789.38,-20 688.62,-20 688.62,0 789.38,0 789.38,-20"/>
<text text-anchor="middle" x="739" y="-6.5" font-family="Helvetica,sans-Serif" font-size="10.00">Logger::print_to_file</text>
</a>
</g>
</g>
<!-- Node4&#45;&gt;Node8 -->
<g id="edge7_Node000004_Node000008" class="edge">
<title>Node4&#45;&gt;Node8</title>
<g id="a_edge7_Node000004_Node000008"><a xlink:title=" ">
<path fill="none" stroke="#63b8ff" d="M617.7,-56.53C633.71,-48.42 656.83,-37.22 677.75,-29 682.24,-27.24 686.96,-25.52 691.7,-23.89"/>
<polygon fill="#63b8ff" stroke="#63b8ff" points="692.65,-26.93 701.04,-20.45 690.44,-20.28 692.65,-26.93"/>
</a>
</g>
</g>
<!-- Node9&#45;&gt;Node4 -->
<g id="edge9_Node000009_Node000004" class="edge">
<title>Node9&#45;&gt;Node4</title>
<g id="a_edge9_Node000009_Node000004"><a xlink:title=" ">
<path fill="none" stroke="#63b8ff" d="M504.57,-94.52C519.96,-89.87 538.18,-84.36 554.27,-79.5"/>
<polygon fill="#63b8ff" stroke="#63b8ff" points="554.92,-82.66 563.48,-76.41 552.89,-75.95 554.92,-82.66"/>
</a>
</g>
</g>
<!-- Node10 -->
<g id="Node000010" class="node">
<title>Node10</title>
<g id="a_Node000010"><a xlink:href="namespacestring__utils.html#a9fe07494ccc7914840b0d615974bc802" target="_top" xlink:title="Делит строку на две части по требуемому символу и возвращает содержимое правой части">
<polygon fill="white" stroke="#666666" points="641.75,-115 551.5,-115 551.5,-95 641.75,-95 641.75,-115"/>
<text text-anchor="middle" x="596.62" y="-101.5" font-family="Helvetica,sans-Serif" font-size="10.00">string_utils::lstrip</text>
</a>
</g>
</g>
<!-- Node9&#45;&gt;Node10 -->
<g id="edge10_Node000009_Node000010" class="edge">
<title>Node9&#45;&gt;Node10</title>
<g id="a_edge10_Node000009_Node000010"><a xlink:title=" ">
<path fill="none" stroke="#63b8ff" d="M515.99,-105C523.89,-105 532.17,-105 540.29,-105"/>
<polygon fill="#63b8ff" stroke="#63b8ff" points="540.2,-108.5 550.2,-105 540.2,-101.5 540.2,-108.5"/>
</a>
</g>
</g>
</g>
</svg>
