<?xml version="1.0" encoding="UTF-8" standalone="no"?>
<!DOCTYPE svg PUBLIC "-//W3C//DTD SVG 1.1//EN"
 "http://www.w3.org/Graphics/SVG/1.1/DTD/svg11.dtd">
<!-- Generated by graphviz version 8.1.0 (20230707.0739)
 -->
<!-- Title: TesartRbd::next_angle Pages: 1 -->
<svg width="810pt" height="142pt"
 viewBox="0.00 0.00 809.75 142.00" xmlns="http://www.w3.org/2000/svg" xmlns:xlink="http://www.w3.org/1999/xlink">
<g id="graph0" class="graph" transform="scale(1 1) rotate(0) translate(4 138)">
<title>TesartRbd::next_angle</title>
<!-- Node1 -->
<g id="Node000001" class="node">
<title>Node1</title>
<g id="a_Node000001"><a xlink:title="Переход к следующей угловой точке">
<polygon fill="#999999" stroke="#666666" points="113.5,-58 0,-58 0,-38 113.5,-38 113.5,-58"/>
<text text-anchor="middle" x="56.75" y="-44.5" font-family="Helvetica,sans-Serif" font-size="10.00">TesartRbd::next_angle</text>
</a>
</g>
</g>
<!-- Node2 -->
<g id="Node000002" class="node">
<title>Node2</title>
<g id="a_Node000002"><a xlink:href="class_tesart_rbd.html#a1317670f51c7e529ca5960e69b7563a7" target="_top" xlink:title="Поворачивает ось до тех пор, пока она не достигнет требуемого угла">
<polygon fill="white" stroke="#666666" points="238.25,-58 149.5,-58 149.5,-38 238.25,-38 238.25,-58"/>
<text text-anchor="middle" x="193.88" y="-44.5" font-family="Helvetica,sans-Serif" font-size="10.00">TesartRbd::move</text>
</a>
</g>
</g>
<!-- Node1&#45;&gt;Node2 -->
<g id="edge1_Node000001_Node000002" class="edge">
<title>Node1&#45;&gt;Node2</title>
<g id="a_edge1_Node000001_Node000002"><a xlink:title=" ">
<path fill="none" stroke="#63b8ff" d="M113.88,-48C121.96,-48 130.26,-48 138.3,-48"/>
<polygon fill="#63b8ff" stroke="#63b8ff" points="138.07,-51.5 148.07,-48 138.07,-44.5 138.07,-51.5"/>
</a>
</g>
</g>
<!-- Node3 -->
<g id="Node000003" class="node">
<title>Node3</title>
<g id="a_Node000003"><a xlink:href="class_tesart_rbd.html#a9a7da6f896259d62e9f1b1850371fa5e" target="_top" xlink:title="Метод позволяет проверить, остановлена ли ось">
<polygon fill="white" stroke="#666666" points="387.75,-77 274.25,-77 274.25,-57 387.75,-57 387.75,-77"/>
<text text-anchor="middle" x="331" y="-63.5" font-family="Helvetica,sans-Serif" font-size="10.00">TesartRbd::is_stopped</text>
</a>
</g>
</g>
<!-- Node2&#45;&gt;Node3 -->
<g id="edge2_Node000002_Node000003" class="edge">
<title>Node2&#45;&gt;Node3</title>
<g id="a_edge2_Node000002_Node000003"><a xlink:title=" ">
<path fill="none" stroke="#63b8ff" d="M238.75,-54.17C246.57,-55.27 254.88,-56.44 263.17,-57.6"/>
<polygon fill="#63b8ff" stroke="#63b8ff" points="262.63,-61.2 273.02,-59.13 263.61,-54.27 262.63,-61.2"/>
</a>
</g>
</g>
<!-- Node4 -->
<g id="Node000004" class="node">
<title>Node4</title>
<g id="a_Node000004"><a xlink:href="class_logger.html#af7709105c2708359b7b082218f4cc3e1" target="_top" xlink:title="Метод, осуществляющий логирование">
<polygon fill="white" stroke="#666666" points="630.12,-77 566.12,-77 566.12,-57 630.12,-57 630.12,-77"/>
<text text-anchor="middle" x="598.12" y="-63.5" font-family="Helvetica,sans-Serif" font-size="10.00">Logger::log</text>
</a>
</g>
</g>
<!-- Node2&#45;&gt;Node4 -->
<g id="edge11_Node000002_Node000004" class="edge">
<title>Node2&#45;&gt;Node4</title>
<g id="a_edge11_Node000002_Node000004"><a xlink:title=" ">
<path fill="none" stroke="#63b8ff" d="M238.56,-46.87C277.67,-46.14 336.57,-45.68 387.75,-48 445.99,-50.64 513.06,-57.38 555.27,-62.08"/>
<polygon fill="#63b8ff" stroke="#63b8ff" points="554.64,-65.64 564.97,-63.28 555.42,-58.69 554.64,-65.64"/>
</a>
</g>
</g>
<!-- Node3&#45;&gt;Node4 -->
<g id="edge3_Node000003_Node000004" class="edge">
<title>Node3&#45;&gt;Node4</title>
<g id="a_edge3_Node000003_Node000004"><a xlink:title=" ">
<path fill="none" stroke="#63b8ff" d="M388.23,-67C438.11,-67 509.87,-67 554.97,-67"/>
<polygon fill="#63b8ff" stroke="#63b8ff" points="554.83,-70.5 564.83,-67 554.83,-63.5 554.83,-70.5"/>
</a>
</g>
</g>
<!-- Node9 -->
<g id="Node000009" class="node">
<title>Node9</title>
<g id="a_Node000009"><a xlink:href="class_tesart_rbd.html#affbded46e17aa303601ba7ef885107b8" target="_top" xlink:title="Запрос статуса оси ОПУ по номеру оси">
<polygon fill="white" stroke="#666666" points="517,-115 423.75,-115 423.75,-95 517,-95 517,-115"/>
<text text-anchor="middle" x="470.38" y="-101.5" font-family="Helvetica,sans-Serif" font-size="10.00">TesartRbd::status</text>
</a>
</g>
</g>
<!-- Node3&#45;&gt;Node9 -->
<g id="edge8_Node000003_Node000009" class="edge">
<title>Node3&#45;&gt;Node9</title>
<g id="a_edge8_Node000003_Node000009"><a xlink:title=" ">
<path fill="none" stroke="#63b8ff" d="M369.9,-77.48C385.82,-81.89 404.51,-87.06 421.38,-91.72"/>
<polygon fill="#63b8ff" stroke="#63b8ff" points="420.03,-95.26 430.6,-94.55 421.89,-88.51 420.03,-95.26"/>
</a>
</g>
</g>
<!-- Node5 -->
<g id="Node000005" class="node">
<title>Node5</title>
<g id="a_Node000005"><a xlink:href="logger_8hpp.html#a49284b7befa8e31f81e01ee8f3735dd0" target="_top" xlink:title="Функция, которая снимает значение текущего времени и конвертирует его в строку с заданным шаблоном.">
<polygon fill="white" stroke="#666666" points="784.88,-134 696.12,-134 696.12,-114 784.88,-114 784.88,-134"/>
<text text-anchor="middle" x="740.5" y="-120.5" font-family="Helvetica,sans-Serif" font-size="10.00">get_current_time</text>
</a>
</g>
</g>
<!-- Node4&#45;&gt;Node5 -->
<g id="edge4_Node000004_Node000005" class="edge">
<title>Node4&#45;&gt;Node5</title>
<g id="a_edge4_Node000004_Node000005"><a xlink:title=" ">
<path fill="none" stroke="#63b8ff" d="M624.02,-77.31C630.34,-80.04 637.08,-83.05 643.25,-86 659.57,-93.81 662.56,-98.03 679.25,-105 683.58,-106.81 688.15,-108.54 692.75,-110.18"/>
<polygon fill="#63b8ff" stroke="#63b8ff" points="691.2,-113.69 701.8,-113.59 693.45,-107.06 691.2,-113.69"/>
</a>
</g>
</g>
<!-- Node6 -->
<g id="Node000006" class="node">
<title>Node6</title>
<g id="a_Node000006"><a xlink:href="class_logger.html#a6edb7b263f080d417b82a537ed50fee4" target="_top" xlink:title="Возвращает тег в зависимости от уровня логирования и от назначения тега.">
<polygon fill="white" stroke="#666666" points="782.25,-96 698.75,-96 698.75,-76 782.25,-76 782.25,-96"/>
<text text-anchor="middle" x="740.5" y="-82.5" font-family="Helvetica,sans-Serif" font-size="10.00">Logger::get_tag</text>
</a>
</g>
</g>
<!-- Node4&#45;&gt;Node6 -->
<g id="edge5_Node000004_Node000006" class="edge">
<title>Node4&#45;&gt;Node6</title>
<g id="a_edge5_Node000004_Node000006"><a xlink:title=" ">
<path fill="none" stroke="#63b8ff" d="M630.28,-71.22C647.1,-73.49 668.31,-76.36 687.56,-78.97"/>
<polygon fill="#63b8ff" stroke="#63b8ff" points="686.93,-82.55 697.31,-80.42 687.87,-75.61 686.93,-82.55"/>
</a>
</g>
</g>
<!-- Node7 -->
<g id="Node000007" class="node">
<title>Node7</title>
<g id="a_Node000007"><a xlink:href="class_logger.html#a4825613142ebb093bf8fa26f21f7f3fc" target="_top" xlink:title="Метод, который выводит сообщение в консоль.">
<polygon fill="white" stroke="#666666" points="801.75,-58 679.25,-58 679.25,-38 801.75,-38 801.75,-58"/>
<text text-anchor="middle" x="740.5" y="-44.5" font-family="Helvetica,sans-Serif" font-size="10.00">Logger::print_to_console</text>
</a>
</g>
</g>
<!-- Node4&#45;&gt;Node7 -->
<g id="edge6_Node000004_Node000007" class="edge">
<title>Node4&#45;&gt;Node7</title>
<g id="a_edge6_Node000004_Node000007"><a xlink:title=" ">
<path fill="none" stroke="#63b8ff" d="M630.28,-62.78C641.56,-61.26 654.81,-59.46 668.12,-57.66"/>
<polygon fill="#63b8ff" stroke="#63b8ff" points="668.33,-61.03 677.77,-56.22 667.4,-54.09 668.33,-61.03"/>
</a>
</g>
</g>
<!-- Node8 -->
<g id="Node000008" class="node">
<title>Node8</title>
<g id="a_Node000008"><a xlink:href="class_logger.html#a999bb33f7cf079cb98f32fae6016a2f3" target="_top" xlink:title="Метод, который записывает сообщение в файл.">
<polygon fill="white" stroke="#666666" points="790.88,-20 690.12,-20 690.12,0 790.88,0 790.88,-20"/>
<text text-anchor="middle" x="740.5" y="-6.5" font-family="Helvetica,sans-Serif" font-size="10.00">Logger::print_to_file</text>
</a>
</g>
</g>
<!-- Node4&#45;&gt;Node8 -->
<g id="edge7_Node000004_Node000008" class="edge">
<title>Node4&#45;&gt;Node8</title>
<g id="a_edge7_Node000004_Node000008"><a xlink:title=" ">
<path fill="none" stroke="#63b8ff" d="M619.2,-56.53C635.21,-48.42 658.33,-37.22 679.25,-29 683.74,-27.24 688.46,-25.52 693.2,-23.89"/>
<polygon fill="#63b8ff" stroke="#63b8ff" points="694.15,-26.93 702.54,-20.45 691.94,-20.28 694.15,-26.93"/>
</a>
</g>
</g>
<!-- Node9&#45;&gt;Node4 -->
<g id="edge9_Node000009_Node000004" class="edge">
<title>Node9&#45;&gt;Node4</title>
<g id="a_edge9_Node000009_Node000004"><a xlink:title=" ">
<path fill="none" stroke="#63b8ff" d="M506.07,-94.52C521.46,-89.87 539.68,-84.36 555.77,-79.5"/>
<polygon fill="#63b8ff" stroke="#63b8ff" points="556.42,-82.66 564.98,-76.41 554.39,-75.95 556.42,-82.66"/>
</a>
</g>
</g>
<!-- Node10 -->
<g id="Node000010" class="node">
<title>Node10</title>
<g id="a_Node000010"><a xlink:href="namespacestring__utils.html#a9fe07494ccc7914840b0d615974bc802" target="_top" xlink:title="Делит строку на две части по требуемому символу и возвращает содержимое правой части">
<polygon fill="white" stroke="#666666" points="643.25,-115 553,-115 553,-95 643.25,-95 643.25,-115"/>
<text text-anchor="middle" x="598.12" y="-101.5" font-family="Helvetica,sans-Serif" font-size="10.00">string_utils::lstrip</text>
</a>
</g>
</g>
<!-- Node9&#45;&gt;Node10 -->
<g id="edge10_Node000009_Node000010" class="edge">
<title>Node9&#45;&gt;Node10</title>
<g id="a_edge10_Node000009_Node000010"><a xlink:title=" ">
<path fill="none" stroke="#63b8ff" d="M517.49,-105C525.39,-105 533.67,-105 541.79,-105"/>
<polygon fill="#63b8ff" stroke="#63b8ff" points="541.7,-108.5 551.7,-105 541.7,-101.5 541.7,-108.5"/>
</a>
</g>
</g>
</g>
</svg>
