<?xml version="1.0" encoding="UTF-8" standalone="no"?>
<!DOCTYPE svg PUBLIC "-//W3C//DTD SVG 1.1//EN"
 "http://www.w3.org/Graphics/SVG/1.1/DTD/svg11.dtd">
<!-- Generated by graphviz version 8.0.5 (20230430.1635)
 -->
<!-- Title: TaskManager::configure_task Pages: 1 -->
<svg width="606pt" height="199pt"
 viewBox="0.00 0.00 606.00 199.00" xmlns="http://www.w3.org/2000/svg" xmlns:xlink="http://www.w3.org/1999/xlink">
<g id="graph0" class="graph" transform="scale(1 1) rotate(0) translate(4 195)">
<title>TaskManager::configure_task</title>
<!-- Node1 -->
<g id="Node000001" class="node">
<title>Node1</title>
<g id="a_Node000001"><a xlink:title=" ">
<polygon fill="#999999" stroke="#666666" points="143.5,-96 0,-96 0,-76 143.5,-76 143.5,-96"/>
<text text-anchor="middle" x="71.75" y="-82.5" font-family="Helvetica,sans-Serif" font-size="10.00">TaskManager::configure_task</text>
</a>
</g>
</g>
<!-- Node2 -->
<g id="Node000002" class="node">
<title>Node2</title>
<g id="a_Node000002"><a xlink:href="class_device_set.html#a0d62de2e486d260f500a81c0e39ec22a" target="_top" xlink:title="Настраивает ВАЦ для требуемого измерения">
<polygon fill="white" stroke="#666666" points="284,-115 179.5,-115 179.5,-95 284,-95 284,-115"/>
<text text-anchor="middle" x="231.75" y="-101.5" font-family="Helvetica,sans-Serif" font-size="10.00">DeviceSet::configure</text>
</a>
</g>
</g>
<!-- Node1&#45;&gt;Node2 -->
<g id="edge1_Node000001_Node000002" class="edge">
<title>Node1&#45;&gt;Node2</title>
<g id="a_edge1_Node000001_Node000002"><a xlink:title=" ">
<path fill="none" stroke="#63b8ff" d="M143.89,-94.56C152.11,-95.54 160.45,-96.55 168.54,-97.52"/>
<polygon fill="#63b8ff" stroke="#63b8ff" points="168.04,-101.1 178.39,-98.82 168.87,-94.15 168.04,-101.1"/>
</a>
</g>
</g>
<!-- Node6 -->
<g id="Node000006" class="node">
<title>Node6</title>
<g id="a_Node000006"><a xlink:href="class_logger.html#af7709105c2708359b7b082218f4cc3e1" target="_top" xlink:title="Метод, осуществляющий логирование">
<polygon fill="white" stroke="#666666" points="411.75,-77 347.75,-77 347.75,-57 411.75,-57 411.75,-77"/>
<text text-anchor="middle" x="379.75" y="-63.5" font-family="Helvetica,sans-Serif" font-size="10.00">Logger::log</text>
</a>
</g>
</g>
<!-- Node1&#45;&gt;Node6 -->
<g id="edge10_Node000001_Node000006" class="edge">
<title>Node1&#45;&gt;Node6</title>
<g id="a_edge10_Node000001_Node000006"><a xlink:title=" ">
<path fill="none" stroke="#63b8ff" d="M143.72,-81.59C203.47,-77.88 286.91,-72.7 336.62,-69.62"/>
<polygon fill="#63b8ff" stroke="#63b8ff" points="336.53,-73.07 346.3,-68.95 336.1,-66.08 336.53,-73.07"/>
</a>
</g>
</g>
<!-- Node3 -->
<g id="Node000003" class="node">
<title>Node3</title>
<g id="a_Node000003"><a xlink:href="class_vna_device.html#a3260fe2b5052c977d9fefc9847dd8dc6" target="_top" xlink:title="Настройка ВАЦ для измерения">
<polygon fill="white" stroke="#666666" points="433.12,-191 326.38,-191 326.38,-171 433.12,-171 433.12,-191"/>
<text text-anchor="middle" x="379.75" y="-177.5" font-family="Helvetica,sans-Serif" font-size="10.00">VnaDevice::configure</text>
</a>
</g>
</g>
<!-- Node2&#45;&gt;Node3 -->
<g id="edge2_Node000002_Node000003" class="edge">
<title>Node2&#45;&gt;Node3</title>
<g id="a_edge2_Node000002_Node000003"><a xlink:title=" ">
<path fill="none" stroke="#63b8ff" d="M246.28,-115.49C262.88,-127.95 292.25,-148.74 320,-162 323.55,-163.69 327.28,-165.29 331.08,-166.79"/>
<polygon fill="#63b8ff" stroke="#63b8ff" points="329.59,-170.34 340.19,-170.5 332.01,-163.77 329.59,-170.34"/>
</a>
</g>
</g>
<!-- Node4 -->
<g id="Node000004" class="node">
<title>Node4</title>
<g id="a_Node000004"><a xlink:href="class_vna_device.html#ac5d1a3a53f046c6839905400d6c3e0b7" target="_top" xlink:title="Полный сброс настроек">
<polygon fill="white" stroke="#666666" points="435.75,-153 323.75,-153 323.75,-133 435.75,-133 435.75,-153"/>
<text text-anchor="middle" x="379.75" y="-139.5" font-family="Helvetica,sans-Serif" font-size="10.00">VnaDevice::full_preset</text>
</a>
</g>
</g>
<!-- Node2&#45;&gt;Node4 -->
<g id="edge3_Node000002_Node000004" class="edge">
<title>Node2&#45;&gt;Node4</title>
<g id="a_edge3_Node000002_Node000004"><a xlink:title=" ">
<path fill="none" stroke="#63b8ff" d="M273.03,-115.48C290.03,-119.91 310,-125.11 327.99,-129.79"/>
<polygon fill="#63b8ff" stroke="#63b8ff" points="327.04,-133.42 337.6,-132.55 328.8,-126.64 327.04,-133.42"/>
</a>
</g>
</g>
<!-- Node5 -->
<g id="Node000005" class="node">
<title>Node5</title>
<g id="a_Node000005"><a xlink:href="class_vna_device.html#a4975b9caaac2bb8889a011aab9f192e2" target="_top" xlink:title="Инициализация канала для измерений">
<polygon fill="white" stroke="#666666" points="439.5,-115 320,-115 320,-95 439.5,-95 439.5,-115"/>
<text text-anchor="middle" x="379.75" y="-101.5" font-family="Helvetica,sans-Serif" font-size="10.00">VnaDevice::init_channel</text>
</a>
</g>
</g>
<!-- Node2&#45;&gt;Node5 -->
<g id="edge4_Node000002_Node000005" class="edge">
<title>Node2&#45;&gt;Node5</title>
<g id="a_edge4_Node000002_Node000005"><a xlink:title=" ">
<path fill="none" stroke="#63b8ff" d="M284.22,-105C292.16,-105 300.47,-105 308.72,-105"/>
<polygon fill="#63b8ff" stroke="#63b8ff" points="308.51,-108.5 318.51,-105 308.51,-101.5 308.51,-108.5"/>
</a>
</g>
</g>
<!-- Node2&#45;&gt;Node6 -->
<g id="edge5_Node000002_Node000006" class="edge">
<title>Node2&#45;&gt;Node6</title>
<g id="a_edge5_Node000002_Node000006"><a xlink:title=" ">
<path fill="none" stroke="#63b8ff" d="M273.03,-94.52C292.92,-89.34 316.9,-83.1 336.98,-77.87"/>
<polygon fill="#63b8ff" stroke="#63b8ff" points="337.6,-81.07 346.39,-75.16 335.83,-74.29 337.6,-81.07"/>
</a>
</g>
</g>
<!-- Node7 -->
<g id="Node000007" class="node">
<title>Node7</title>
<g id="a_Node000007"><a xlink:href="logger_8hpp.html#a49284b7befa8e31f81e01ee8f3735dd0" target="_top" xlink:title="Функция, которая снимает значение текущего времени и конвертирует его в строку с заданным шаблоном.">
<polygon fill="white" stroke="#666666" points="581.12,-134 492.38,-134 492.38,-114 581.12,-114 581.12,-134"/>
<text text-anchor="middle" x="536.75" y="-120.5" font-family="Helvetica,sans-Serif" font-size="10.00">get_current_time</text>
</a>
</g>
</g>
<!-- Node6&#45;&gt;Node7 -->
<g id="edge6_Node000006_Node000007" class="edge">
<title>Node6&#45;&gt;Node7</title>
<g id="a_edge6_Node000006_Node000007"><a xlink:title=" ">
<path fill="none" stroke="#63b8ff" d="M412.22,-76.07C421.15,-78.94 430.81,-82.33 439.5,-86 456.17,-93.03 458.81,-98.03 475.5,-105 479.83,-106.81 484.4,-108.54 489,-110.18"/>
<polygon fill="#63b8ff" stroke="#63b8ff" points="487.45,-113.69 498.05,-113.59 489.7,-107.06 487.45,-113.69"/>
</a>
</g>
</g>
<!-- Node8 -->
<g id="Node000008" class="node">
<title>Node8</title>
<g id="a_Node000008"><a xlink:href="class_logger.html#a6edb7b263f080d417b82a537ed50fee4" target="_top" xlink:title="Возвращает тег в зависимости от уровня логирования и от назначения тега.">
<polygon fill="white" stroke="#666666" points="578.5,-96 495,-96 495,-76 578.5,-76 578.5,-96"/>
<text text-anchor="middle" x="536.75" y="-82.5" font-family="Helvetica,sans-Serif" font-size="10.00">Logger::get_tag</text>
</a>
</g>
</g>
<!-- Node6&#45;&gt;Node8 -->
<g id="edge7_Node000006_Node000008" class="edge">
<title>Node6&#45;&gt;Node8</title>
<g id="a_edge7_Node000006_Node000008"><a xlink:title=" ">
<path fill="none" stroke="#63b8ff" d="M412.12,-70.84C432.75,-73.37 460.25,-76.74 484.07,-79.66"/>
<polygon fill="#63b8ff" stroke="#63b8ff" points="483.37,-83.23 493.72,-80.97 484.22,-76.28 483.37,-83.23"/>
</a>
</g>
</g>
<!-- Node9 -->
<g id="Node000009" class="node">
<title>Node9</title>
<g id="a_Node000009"><a xlink:href="class_logger.html#a4825613142ebb093bf8fa26f21f7f3fc" target="_top" xlink:title="Метод, который выводит сообщение в консоль.">
<polygon fill="white" stroke="#666666" points="598,-58 475.5,-58 475.5,-38 598,-38 598,-58"/>
<text text-anchor="middle" x="536.75" y="-44.5" font-family="Helvetica,sans-Serif" font-size="10.00">Logger::print_to_console</text>
</a>
</g>
</g>
<!-- Node6&#45;&gt;Node9 -->
<g id="edge8_Node000006_Node000009" class="edge">
<title>Node6&#45;&gt;Node9</title>
<g id="a_edge8_Node000006_Node000009"><a xlink:title=" ">
<path fill="none" stroke="#63b8ff" d="M412.12,-63.16C427.28,-61.3 446.14,-58.98 464.52,-56.73"/>
<polygon fill="#63b8ff" stroke="#63b8ff" points="464.76,-60.11 474.26,-55.41 463.91,-53.16 464.76,-60.11"/>
</a>
</g>
</g>
<!-- Node10 -->
<g id="Node000010" class="node">
<title>Node10</title>
<g id="a_Node000010"><a xlink:href="class_logger.html#a999bb33f7cf079cb98f32fae6016a2f3" target="_top" xlink:title="Метод, который записывает сообщение в файл.">
<polygon fill="white" stroke="#666666" points="587.12,-20 486.38,-20 486.38,0 587.12,0 587.12,-20"/>
<text text-anchor="middle" x="536.75" y="-6.5" font-family="Helvetica,sans-Serif" font-size="10.00">Logger::print_to_file</text>
</a>
</g>
</g>
<!-- Node6&#45;&gt;Node10 -->
<g id="edge9_Node000006_Node000010" class="edge">
<title>Node6&#45;&gt;Node10</title>
<g id="a_edge9_Node000006_Node000010"><a xlink:title=" ">
<path fill="none" stroke="#63b8ff" d="M405.09,-56.64C424.12,-48.7 451.3,-37.65 475.5,-29 480.53,-27.2 485.84,-25.4 491.12,-23.66"/>
<polygon fill="#63b8ff" stroke="#63b8ff" points="491.75,-26.81 500.19,-20.4 489.6,-20.15 491.75,-26.81"/>
</a>
</g>
</g>
</g>
</svg>
