<?xml version="1.0" encoding="UTF-8" standalone="no"?>
<!DOCTYPE svg PUBLIC "-//W3C//DTD SVG 1.1//EN"
 "http://www.w3.org/Graphics/SVG/1.1/DTD/svg11.dtd">
<!-- Generated by graphviz version 8.0.5 (20230430.1635)
 -->
<!-- Title: VisaDevice::send Pages: 1 -->
<svg width="614pt" height="142pt"
 viewBox="0.00 0.00 613.75 142.00" xmlns="http://www.w3.org/2000/svg" xmlns:xlink="http://www.w3.org/1999/xlink">
<g id="graph0" class="graph" transform="scale(1 1) rotate(0) translate(4 138)">
<title>VisaDevice::send</title>
<!-- Node1 -->
<g id="Node000001" class="node">
<title>Node1</title>
<g id="a_Node000001"><a xlink:title=" ">
<polygon fill="#999999" stroke="#666666" points="91,-58 0,-58 0,-38 91,-38 91,-58"/>
<text text-anchor="middle" x="45.5" y="-44.5" font-family="Helvetica,sans-Serif" font-size="10.00">VisaDevice::send</text>
</a>
</g>
</g>
<!-- Node2 -->
<g id="Node000002" class="node">
<title>Node2</title>
<g id="a_Node000002"><a xlink:href="class_logger.html#af7709105c2708359b7b082218f4cc3e1" target="_top" xlink:title="Функция, осуществляющая логирование">
<polygon fill="white" stroke="#666666" points="447.25,-77 383.25,-77 383.25,-57 447.25,-57 447.25,-77"/>
<text text-anchor="middle" x="415.25" y="-63.5" font-family="Helvetica,sans-Serif" font-size="10.00">Logger::log</text>
</a>
</g>
</g>
<!-- Node1&#45;&gt;Node2 -->
<g id="edge1_Node000001_Node000002" class="edge">
<title>Node1&#45;&gt;Node2</title>
<g id="a_edge1_Node000001_Node000002"><a xlink:title=" ">
<path fill="none" stroke="#63b8ff" d="M78.33,-58.39C93.01,-62.85 110.75,-67.76 127,-71 223.23,-90.16 250.07,-99.51 347.25,-86 356.02,-84.78 365.25,-82.7 373.97,-80.36"/>
<polygon fill="#63b8ff" stroke="#63b8ff" points="374.63,-83.53 383.28,-77.41 372.7,-76.8 374.63,-83.53"/>
</a>
</g>
</g>
<!-- Node7 -->
<g id="Node000007" class="node">
<title>Node7</title>
<g id="a_Node000007"><a xlink:href="class_visa_device.html#aa807192fd9a8c3e6efc458f78de5e73e" target="_top" xlink:title=" ">
<polygon fill="white" stroke="#666666" points="221,-39 127,-39 127,-19 221,-19 221,-39"/>
<text text-anchor="middle" x="174" y="-25.5" font-family="Helvetica,sans-Serif" font-size="10.00">VisaDevice::query</text>
</a>
</g>
</g>
<!-- Node1&#45;&gt;Node7 -->
<g id="edge6_Node000001_Node000007" class="edge">
<title>Node1&#45;&gt;Node7</title>
<g id="a_edge6_Node000001_Node000007"><a xlink:title=" ">
<path fill="none" stroke="#63b8ff" d="M91.46,-41.25C99.45,-40.05 107.88,-38.78 116.16,-37.54"/>
<polygon fill="#63b8ff" stroke="#63b8ff" points="116.54,-40.87 125.91,-35.92 115.5,-33.95 116.54,-40.87"/>
</a>
</g>
</g>
<!-- Node8 -->
<g id="Node000008" class="node">
<title>Node8</title>
<g id="a_Node000008"><a xlink:href="class_visa_device.html#aca08d9dbb0469f1143668a485e4adfe2" target="_top" xlink:title=" ">
<polygon fill="white" stroke="#666666" points="346.5,-77 257.75,-77 257.75,-57 346.5,-57 346.5,-77"/>
<text text-anchor="middle" x="302.12" y="-63.5" font-family="Helvetica,sans-Serif" font-size="10.00">VisaDevice::read</text>
</a>
</g>
</g>
<!-- Node1&#45;&gt;Node8 -->
<g id="edge11_Node000001_Node000008" class="edge">
<title>Node1&#45;&gt;Node8</title>
<g id="a_edge11_Node000001_Node000008"><a xlink:title=" ">
<path fill="none" stroke="#63b8ff" d="M91.44,-51.35C134.79,-54.59 200.47,-59.49 246.75,-62.94"/>
<polygon fill="#63b8ff" stroke="#63b8ff" points="246.26,-66.49 256.49,-63.74 246.78,-59.51 246.26,-66.49"/>
</a>
</g>
</g>
<!-- Node9 -->
<g id="Node000009" class="node">
<title>Node9</title>
<g id="a_Node000009"><a xlink:href="class_visa_device.html#a29202c3f5e47326386d1d27972e25267" target="_top" xlink:title=" ">
<polygon fill="white" stroke="#666666" points="347.25,-39 257,-39 257,-19 347.25,-19 347.25,-39"/>
<text text-anchor="middle" x="302.12" y="-25.5" font-family="Helvetica,sans-Serif" font-size="10.00">VisaDevice::write</text>
</a>
</g>
</g>
<!-- Node1&#45;&gt;Node9 -->
<g id="edge12_Node000001_Node000009" class="edge">
<title>Node1&#45;&gt;Node9</title>
<g id="a_edge12_Node000001_Node000009"><a xlink:title=" ">
<path fill="none" stroke="#63b8ff" d="M62.98,-37.55C78.73,-28.23 103.47,-15.27 127,-10 170.16,-0.32 220.49,-7.78 255.9,-16.02"/>
<polygon fill="#63b8ff" stroke="#63b8ff" points="254.85,-19.61 265.39,-18.58 256.51,-12.81 254.85,-19.61"/>
</a>
</g>
</g>
<!-- Node3 -->
<g id="Node000003" class="node">
<title>Node3</title>
<g id="a_Node000003"><a xlink:href="logger_8hpp.html#a49284b7befa8e31f81e01ee8f3735dd0" target="_top" xlink:title="Функция, которая снимает значение текущего времени и конвертирует его в строку с заданным шаблоном.">
<polygon fill="white" stroke="#666666" points="588.88,-134 500.12,-134 500.12,-114 588.88,-114 588.88,-134"/>
<text text-anchor="middle" x="544.5" y="-120.5" font-family="Helvetica,sans-Serif" font-size="10.00">get_current_time</text>
</a>
</g>
</g>
<!-- Node2&#45;&gt;Node3 -->
<g id="edge2_Node000002_Node000003" class="edge">
<title>Node2&#45;&gt;Node3</title>
<g id="a_edge2_Node000002_Node000003"><a xlink:title=" ">
<path fill="none" stroke="#63b8ff" d="M432.27,-77.36C445.55,-85.63 465.1,-97.1 483.25,-105 487.32,-106.77 491.61,-108.46 495.95,-110.05"/>
<polygon fill="#63b8ff" stroke="#63b8ff" points="494.49,-113.59 505.09,-113.55 496.78,-106.97 494.49,-113.59"/>
</a>
</g>
</g>
<!-- Node4 -->
<g id="Node000004" class="node">
<title>Node4</title>
<g id="a_Node000004"><a xlink:href="class_logger.html#a6edb7b263f080d417b82a537ed50fee4" target="_top" xlink:title="Функция, возвращающая тег в зависимости от уровня логирования и от назначения тега.">
<polygon fill="white" stroke="#666666" points="586.25,-96 502.75,-96 502.75,-76 586.25,-76 586.25,-96"/>
<text text-anchor="middle" x="544.5" y="-82.5" font-family="Helvetica,sans-Serif" font-size="10.00">Logger::get_tag</text>
</a>
</g>
</g>
<!-- Node2&#45;&gt;Node4 -->
<g id="edge3_Node000002_Node000004" class="edge">
<title>Node2&#45;&gt;Node4</title>
<g id="a_edge3_Node000002_Node000004"><a xlink:title=" ">
<path fill="none" stroke="#63b8ff" d="M447.71,-71.7C460.97,-73.68 476.77,-76.04 491.67,-78.26"/>
<polygon fill="#63b8ff" stroke="#63b8ff" points="490.91,-81.84 501.32,-79.85 491.94,-74.91 490.91,-81.84"/>
</a>
</g>
</g>
<!-- Node5 -->
<g id="Node000005" class="node">
<title>Node5</title>
<g id="a_Node000005"><a xlink:href="class_logger.html#a4825613142ebb093bf8fa26f21f7f3fc" target="_top" xlink:title="Функция, которая выводит сообщение в консоль.">
<polygon fill="white" stroke="#666666" points="605.75,-58 483.25,-58 483.25,-38 605.75,-38 605.75,-58"/>
<text text-anchor="middle" x="544.5" y="-44.5" font-family="Helvetica,sans-Serif" font-size="10.00">Logger::print_to_console</text>
</a>
</g>
</g>
<!-- Node2&#45;&gt;Node5 -->
<g id="edge4_Node000002_Node000005" class="edge">
<title>Node2&#45;&gt;Node5</title>
<g id="a_edge4_Node000002_Node000005"><a xlink:title=" ">
<path fill="none" stroke="#63b8ff" d="M447.71,-62.3C455.21,-61.18 463.52,-59.94 472.03,-58.67"/>
<polygon fill="#63b8ff" stroke="#63b8ff" points="472.48,-61.99 481.85,-57.06 471.44,-55.07 472.48,-61.99"/>
</a>
</g>
</g>
<!-- Node6 -->
<g id="Node000006" class="node">
<title>Node6</title>
<g id="a_Node000006"><a xlink:href="class_logger.html#a999bb33f7cf079cb98f32fae6016a2f3" target="_top" xlink:title="Функция, которая записывает сообщение в файл.">
<polygon fill="white" stroke="#666666" points="594.88,-20 494.12,-20 494.12,0 594.88,0 594.88,-20"/>
<text text-anchor="middle" x="544.5" y="-6.5" font-family="Helvetica,sans-Serif" font-size="10.00">Logger::print_to_file</text>
</a>
</g>
</g>
<!-- Node2&#45;&gt;Node6 -->
<g id="edge5_Node000002_Node000006" class="edge">
<title>Node2&#45;&gt;Node6</title>
<g id="a_edge5_Node000002_Node000006"><a xlink:title=" ">
<path fill="none" stroke="#63b8ff" d="M432.27,-56.64C445.55,-48.37 465.1,-36.9 483.25,-29 487.32,-27.23 491.61,-25.54 495.95,-23.95"/>
<polygon fill="#63b8ff" stroke="#63b8ff" points="496.78,-27.03 505.09,-20.45 494.49,-20.41 496.78,-27.03"/>
</a>
</g>
</g>
<!-- Node7&#45;&gt;Node8 -->
<g id="edge7_Node000007_Node000008" class="edge">
<title>Node7&#45;&gt;Node8</title>
<g id="a_edge7_Node000007_Node000008"><a xlink:title=" ">
<path fill="none" stroke="#63b8ff" d="M209.8,-39.48C224.13,-43.8 240.93,-48.86 256.18,-53.46"/>
<polygon fill="#63b8ff" stroke="#63b8ff" points="254.86,-57.02 265.44,-56.55 256.88,-50.31 254.86,-57.02"/>
</a>
</g>
</g>
<!-- Node7&#45;&gt;Node9 -->
<g id="edge9_Node000007_Node000009" class="edge">
<title>Node7&#45;&gt;Node9</title>
<g id="a_edge9_Node000007_Node000009"><a xlink:title=" ">
<path fill="none" stroke="#63b8ff" d="M221.25,-29C229.17,-29 237.48,-29 245.62,-29"/>
<polygon fill="#63b8ff" stroke="#63b8ff" points="245.56,-32.5 255.56,-29 245.56,-25.5 245.56,-32.5"/>
</a>
</g>
</g>
<!-- Node8&#45;&gt;Node2 -->
<g id="edge8_Node000008_Node000002" class="edge">
<title>Node8&#45;&gt;Node2</title>
<g id="a_edge8_Node000008_Node000002"><a xlink:title=" ">
<path fill="none" stroke="#63b8ff" d="M346.73,-67C355,-67 363.65,-67 371.89,-67"/>
<polygon fill="#63b8ff" stroke="#63b8ff" points="371.79,-70.5 381.79,-67 371.79,-63.5 371.79,-70.5"/>
</a>
</g>
</g>
<!-- Node9&#45;&gt;Node2 -->
<g id="edge10_Node000009_Node000002" class="edge">
<title>Node9&#45;&gt;Node2</title>
<g id="a_edge10_Node000009_Node000002"><a xlink:title=" ">
<path fill="none" stroke="#63b8ff" d="M333.78,-39.48C346.05,-43.68 360.36,-48.57 373.48,-53.06"/>
<polygon fill="#63b8ff" stroke="#63b8ff" points="372.1,-56.63 382.69,-56.55 374.36,-50 372.1,-56.63"/>
</a>
</g>
</g>
</g>
</svg>
