<?xml version="1.0" encoding="UTF-8" standalone="no"?>
<!DOCTYPE svg PUBLIC "-//W3C//DTD SVG 1.1//EN"
 "http://www.w3.org/Graphics/SVG/1.1/DTD/svg11.dtd">
<!-- Generated by graphviz version 8.0.5 (20230430.1635)
 -->
<!-- Title: DeviceSet::set_freq_range Pages: 1 -->
<svg width="406pt" height="185pt"
 viewBox="0.00 0.00 405.50 185.00" xmlns="http://www.w3.org/2000/svg" xmlns:xlink="http://www.w3.org/1999/xlink">

<svg id="main" version="1.1" xmlns="http://www.w3.org/2000/svg" xmlns:xlink="http://www.w3.org/1999/xlink" xml:space="preserve" onload="init(evt)">
<style type="text/css"><![CDATA[
.node, .edge {opacity: 0.7;}
.node.selected, .edge.selected {opacity: 1;}
.edge:hover path { stroke: red; }
.edge:hover polygon { stroke: red; fill: red; }
]]></style>
<script type="application/ecmascript" xlink:href="svg.min.js"/>
<svg id="graph" class="graph">
<g id="graph0" class="graph" transform="scale(1 1) rotate(0) translate(4 181)">
<title>DeviceSet::set_freq_range</title>
<!-- Node1 -->
<g id="Node000001" class="node">
<title>Node1</title>
<g id="a_Node000001"><a xlink:title="Устанавливает диапазон изменения частоты зондирующего сигнала">
<polygon fill="#999999" stroke="#666666" points="100,-82 0,-82 0,-50 100,-50 100,-82"/>
<text text-anchor="start" x="8" y="-68.5" font-family="Helvetica,sans-Serif" font-size="10.00">DeviceSet::set_freq</text>
<text text-anchor="middle" x="50" y="-56.5" font-family="Helvetica,sans-Serif" font-size="10.00">_range</text>
</a>
</g>
</g>
<!-- Node2 -->
<g id="Node000002" class="node">
<title>Node2</title>
<g id="a_Node000002"><a xlink:href="class_logger.html#af7709105c2708359b7b082218f4cc3e1" target="_top" xlink:title="Метод, осуществляющий логирование">
<polygon fill="white" stroke="#666666" points="219.5,-120 155.5,-120 155.5,-100 219.5,-100 219.5,-120"/>
<text text-anchor="middle" x="187.5" y="-106.5" font-family="Helvetica,sans-Serif" font-size="10.00">Logger::log</text>
</a>
</g>
</g>
<!-- Node1&#45;&gt;Node2 -->
<g id="edge1_Node000001_Node000002" class="edge">
<title>Node1&#45;&gt;Node2</title>
<g id="a_edge1_Node000001_Node000002"><a xlink:title=" ">
<path fill="none" stroke="#63b8ff" d="M100.3,-82.01C114.89,-86.75 130.72,-91.89 144.79,-96.45"/>
<polygon fill="#63b8ff" stroke="#63b8ff" points="143.55,-100.06 154.15,-99.82 145.72,-93.4 143.55,-100.06"/>
</a>
</g>
</g>
<!-- Node7 -->
<g id="Node000007" class="node">
<title>Node7</title>
<g id="a_Node000007"><a xlink:href="class_gen_device.html#a05df7e221e3b5d04d5bd23a21eecdab1" target="_top" xlink:title="Установка частотного диапазона">
<polygon fill="white" stroke="#666666" points="239,-82 136,-82 136,-50 239,-50 239,-82"/>
<text text-anchor="start" x="144" y="-68.5" font-family="Helvetica,sans-Serif" font-size="10.00">GenDevice::set_freq</text>
<text text-anchor="middle" x="187.5" y="-56.5" font-family="Helvetica,sans-Serif" font-size="10.00">_range</text>
</a>
</g>
</g>
<!-- Node1&#45;&gt;Node7 -->
<g id="edge6_Node000001_Node000007" class="edge">
<title>Node1&#45;&gt;Node7</title>
<g id="a_edge6_Node000001_Node000007"><a xlink:title=" ">
<path fill="none" stroke="#63b8ff" d="M100.3,-66C108.3,-66 116.67,-66 124.91,-66"/>
<polygon fill="#63b8ff" stroke="#63b8ff" points="124.64,-69.5 134.64,-66 124.64,-62.5 124.64,-69.5"/>
</a>
</g>
</g>
<!-- Node8 -->
<g id="Node000008" class="node">
<title>Node8</title>
<g id="a_Node000008"><a xlink:href="class_vna_device.html#a52deab981a9100b5ac1ca46cc10a9aac" target="_top" xlink:title="Установка частотного диапазона">
<polygon fill="white" stroke="#666666" points="238.62,-32 136.38,-32 136.38,0 238.62,0 238.62,-32"/>
<text text-anchor="start" x="144.38" y="-18.5" font-family="Helvetica,sans-Serif" font-size="10.00">VnaDevice::set_freq</text>
<text text-anchor="middle" x="187.5" y="-6.5" font-family="Helvetica,sans-Serif" font-size="10.00">_range</text>
</a>
</g>
</g>
<!-- Node1&#45;&gt;Node8 -->
<g id="edge7_Node000001_Node000008" class="edge">
<title>Node1&#45;&gt;Node8</title>
<g id="a_edge7_Node000001_Node000008"><a xlink:title=" ">
<path fill="none" stroke="#63b8ff" d="M95.37,-49.63C107.07,-45.31 119.82,-40.6 131.99,-36.11"/>
<polygon fill="#63b8ff" stroke="#63b8ff" points="132.86,-39.15 141.03,-32.41 130.44,-32.59 132.86,-39.15"/>
</a>
</g>
</g>
<!-- Node3 -->
<g id="Node000003" class="node">
<title>Node3</title>
<g id="a_Node000003"><a xlink:href="logger_8hpp.html#a49284b7befa8e31f81e01ee8f3735dd0" target="_top" xlink:title="Функция, которая снимает значение текущего времени и конвертирует его в строку с заданным шаблоном.">
<polygon fill="white" stroke="#666666" points="380.62,-177 291.88,-177 291.88,-157 380.62,-157 380.62,-177"/>
<text text-anchor="middle" x="336.25" y="-163.5" font-family="Helvetica,sans-Serif" font-size="10.00">get_current_time</text>
</a>
</g>
</g>
<!-- Node2&#45;&gt;Node3 -->
<g id="edge2_Node000002_Node000003" class="edge">
<title>Node2&#45;&gt;Node3</title>
<g id="a_edge2_Node000002_Node000003"><a xlink:title=" ">
<path fill="none" stroke="#63b8ff" d="M210.27,-120.35C227.6,-128.4 252.58,-139.57 275,-148 279.75,-149.79 284.76,-151.55 289.77,-153.24"/>
<polygon fill="#63b8ff" stroke="#63b8ff" points="288.39,-156.8 298.99,-156.58 290.57,-150.15 288.39,-156.8"/>
</a>
</g>
</g>
<!-- Node4 -->
<g id="Node000004" class="node">
<title>Node4</title>
<g id="a_Node000004"><a xlink:href="class_logger.html#a6edb7b263f080d417b82a537ed50fee4" target="_top" xlink:title="Возвращает тег в зависимости от уровня логирования и от назначения тега.">
<polygon fill="white" stroke="#666666" points="378,-139 294.5,-139 294.5,-119 378,-119 378,-139"/>
<text text-anchor="middle" x="336.25" y="-125.5" font-family="Helvetica,sans-Serif" font-size="10.00">Logger::get_tag</text>
</a>
</g>
</g>
<!-- Node2&#45;&gt;Node4 -->
<g id="edge3_Node000002_Node000004" class="edge">
<title>Node2&#45;&gt;Node4</title>
<g id="a_edge3_Node000002_Node000004"><a xlink:title=" ">
<path fill="none" stroke="#63b8ff" d="M219.98,-114.08C238.41,-116.46 262.15,-119.54 283.29,-122.27"/>
<polygon fill="#63b8ff" stroke="#63b8ff" points="282.69,-125.85 293.06,-123.67 283.59,-118.91 282.69,-125.85"/>
</a>
</g>
</g>
<!-- Node5 -->
<g id="Node000005" class="node">
<title>Node5</title>
<g id="a_Node000005"><a xlink:href="class_logger.html#a4825613142ebb093bf8fa26f21f7f3fc" target="_top" xlink:title="Метод, который выводит сообщение в консоль.">
<polygon fill="white" stroke="#666666" points="397.5,-101 275,-101 275,-81 397.5,-81 397.5,-101"/>
<text text-anchor="middle" x="336.25" y="-87.5" font-family="Helvetica,sans-Serif" font-size="10.00">Logger::print_to_console</text>
</a>
</g>
</g>
<!-- Node2&#45;&gt;Node5 -->
<g id="edge4_Node000002_Node000005" class="edge">
<title>Node2&#45;&gt;Node5</title>
<g id="a_edge4_Node000002_Node000005"><a xlink:title=" ">
<path fill="none" stroke="#63b8ff" d="M219.98,-105.92C232.91,-104.25 248.46,-102.24 263.88,-100.24"/>
<polygon fill="#63b8ff" stroke="#63b8ff" points="264.04,-103.62 273.51,-98.86 263.14,-96.68 264.04,-103.62"/>
</a>
</g>
</g>
<!-- Node6 -->
<g id="Node000006" class="node">
<title>Node6</title>
<g id="a_Node000006"><a xlink:href="class_logger.html#a999bb33f7cf079cb98f32fae6016a2f3" target="_top" xlink:title="Метод, который записывает сообщение в файл.">
<polygon fill="white" stroke="#666666" points="386.62,-63 285.88,-63 285.88,-43 386.62,-43 386.62,-63"/>
<text text-anchor="middle" x="336.25" y="-49.5" font-family="Helvetica,sans-Serif" font-size="10.00">Logger::print_to_file</text>
</a>
</g>
</g>
<!-- Node2&#45;&gt;Node6 -->
<g id="edge5_Node000002_Node000006" class="edge">
<title>Node2&#45;&gt;Node6</title>
<g id="a_edge5_Node000002_Node000006"><a xlink:title=" ">
<path fill="none" stroke="#63b8ff" d="M218.13,-99.56C225.05,-96.93 232.34,-94 239,-91 255.5,-83.58 258.31,-78.97 275,-72 279.33,-70.19 283.9,-68.46 288.5,-66.82"/>
<polygon fill="#63b8ff" stroke="#63b8ff" points="289.2,-69.94 297.55,-63.41 286.95,-63.31 289.2,-69.94"/>
</a>
</g>
</g>
</g>
</svg>
</svg>

<style type='text/css'>
<![CDATA[
[data-mouse-over-selected='false'] { opacity: 0.7; }
[data-mouse-over-selected='true']  { opacity: 1.0; }
]]>
</style>
<script type="application/ecmascript"><![CDATA[
document.addEventListener('DOMContentLoaded', (event) => {
  highlightEdges();
  highlightAdjacentNodes();
});
]]></script>
</svg>
