<?xml version="1.0" encoding="UTF-8" standalone="no"?>
<!DOCTYPE svg PUBLIC "-//W3C//DTD SVG 1.1//EN"
 "http://www.w3.org/Graphics/SVG/1.1/DTD/svg11.dtd">
<!-- Generated by graphviz version 8.1.0 (20230707.0739)
 -->
<!-- Title: TesartRbd::move Pages: 1 -->
<svg width="660pt" height="142pt"
 viewBox="0.00 0.00 660.25 142.00" xmlns="http://www.w3.org/2000/svg" xmlns:xlink="http://www.w3.org/1999/xlink">
<g id="graph0" class="graph" transform="scale(1 1) rotate(0) translate(4 138)">
<title>TesartRbd::move</title>
<!-- Node1 -->
<g id="Node000001" class="node">
<title>Node1</title>
<g id="a_Node000001"><a xlink:title="Поворачивает ось до тех пор, пока она не достигнет требуемого угла">
<polygon fill="#999999" stroke="#666666" points="88.75,-58 0,-58 0,-38 88.75,-38 88.75,-58"/>
<text text-anchor="middle" x="44.38" y="-44.5" font-family="Helvetica,sans-Serif" font-size="10.00">TesartRbd::move</text>
</a>
</g>
</g>
<!-- Node2 -->
<g id="Node000002" class="node">
<title>Node2</title>
<g id="a_Node000002"><a xlink:href="class_tesart_rbd.html#a9a7da6f896259d62e9f1b1850371fa5e" target="_top" xlink:title="Метод позволяет проверить, остановлена ли ось">
<polygon fill="white" stroke="#666666" points="238.25,-77 124.75,-77 124.75,-57 238.25,-57 238.25,-77"/>
<text text-anchor="middle" x="181.5" y="-63.5" font-family="Helvetica,sans-Serif" font-size="10.00">TesartRbd::is_stopped</text>
</a>
</g>
</g>
<!-- Node1&#45;&gt;Node2 -->
<g id="edge1_Node000001_Node000002" class="edge">
<title>Node1&#45;&gt;Node2</title>
<g id="a_edge1_Node000001_Node000002"><a xlink:title=" ">
<path fill="none" stroke="#63b8ff" d="M89.25,-54.17C97.07,-55.27 105.38,-56.44 113.67,-57.6"/>
<polygon fill="#63b8ff" stroke="#63b8ff" points="113.13,-61.2 123.52,-59.13 114.11,-54.27 113.13,-61.2"/>
</a>
</g>
</g>
<!-- Node3 -->
<g id="Node000003" class="node">
<title>Node3</title>
<g id="a_Node000003"><a xlink:href="class_logger.html#af7709105c2708359b7b082218f4cc3e1" target="_top" xlink:title="Метод, осуществляющий логирование">
<polygon fill="white" stroke="#666666" points="480.62,-77 416.62,-77 416.62,-57 480.62,-57 480.62,-77"/>
<text text-anchor="middle" x="448.62" y="-63.5" font-family="Helvetica,sans-Serif" font-size="10.00">Logger::log</text>
</a>
</g>
</g>
<!-- Node1&#45;&gt;Node3 -->
<g id="edge10_Node000001_Node000003" class="edge">
<title>Node1&#45;&gt;Node3</title>
<g id="a_edge10_Node000001_Node000003"><a xlink:title=" ">
<path fill="none" stroke="#63b8ff" d="M89.06,-46.87C128.17,-46.14 187.07,-45.68 238.25,-48 296.49,-50.64 363.56,-57.38 405.77,-62.08"/>
<polygon fill="#63b8ff" stroke="#63b8ff" points="405.14,-65.64 415.47,-63.28 405.92,-58.69 405.14,-65.64"/>
</a>
</g>
</g>
<!-- Node2&#45;&gt;Node3 -->
<g id="edge2_Node000002_Node000003" class="edge">
<title>Node2&#45;&gt;Node3</title>
<g id="a_edge2_Node000002_Node000003"><a xlink:title=" ">
<path fill="none" stroke="#63b8ff" d="M238.73,-67C288.61,-67 360.37,-67 405.47,-67"/>
<polygon fill="#63b8ff" stroke="#63b8ff" points="405.33,-70.5 415.33,-67 405.33,-63.5 405.33,-70.5"/>
</a>
</g>
</g>
<!-- Node8 -->
<g id="Node000008" class="node">
<title>Node8</title>
<g id="a_Node000008"><a xlink:href="class_tesart_rbd.html#affbded46e17aa303601ba7ef885107b8" target="_top" xlink:title="Запрос статуса оси ОПУ по номеру оси">
<polygon fill="white" stroke="#666666" points="367.5,-115 274.25,-115 274.25,-95 367.5,-95 367.5,-115"/>
<text text-anchor="middle" x="320.88" y="-101.5" font-family="Helvetica,sans-Serif" font-size="10.00">TesartRbd::status</text>
</a>
</g>
</g>
<!-- Node2&#45;&gt;Node8 -->
<g id="edge7_Node000002_Node000008" class="edge">
<title>Node2&#45;&gt;Node8</title>
<g id="a_edge7_Node000002_Node000008"><a xlink:title=" ">
<path fill="none" stroke="#63b8ff" d="M220.4,-77.48C236.32,-81.89 255.01,-87.06 271.88,-91.72"/>
<polygon fill="#63b8ff" stroke="#63b8ff" points="270.53,-95.26 281.1,-94.55 272.39,-88.51 270.53,-95.26"/>
</a>
</g>
</g>
<!-- Node4 -->
<g id="Node000004" class="node">
<title>Node4</title>
<g id="a_Node000004"><a xlink:href="logger_8hpp.html#a49284b7befa8e31f81e01ee8f3735dd0" target="_top" xlink:title="Функция, которая снимает значение текущего времени и конвертирует его в строку с заданным шаблоном.">
<polygon fill="white" stroke="#666666" points="635.38,-134 546.62,-134 546.62,-114 635.38,-114 635.38,-134"/>
<text text-anchor="middle" x="591" y="-120.5" font-family="Helvetica,sans-Serif" font-size="10.00">get_current_time</text>
</a>
</g>
</g>
<!-- Node3&#45;&gt;Node4 -->
<g id="edge3_Node000003_Node000004" class="edge">
<title>Node3&#45;&gt;Node4</title>
<g id="a_edge3_Node000003_Node000004"><a xlink:title=" ">
<path fill="none" stroke="#63b8ff" d="M474.52,-77.31C480.84,-80.04 487.58,-83.05 493.75,-86 510.07,-93.81 513.06,-98.03 529.75,-105 534.08,-106.81 538.65,-108.54 543.25,-110.18"/>
<polygon fill="#63b8ff" stroke="#63b8ff" points="541.7,-113.69 552.3,-113.59 543.95,-107.06 541.7,-113.69"/>
</a>
</g>
</g>
<!-- Node5 -->
<g id="Node000005" class="node">
<title>Node5</title>
<g id="a_Node000005"><a xlink:href="class_logger.html#a6edb7b263f080d417b82a537ed50fee4" target="_top" xlink:title="Возвращает тег в зависимости от уровня логирования и от назначения тега.">
<polygon fill="white" stroke="#666666" points="632.75,-96 549.25,-96 549.25,-76 632.75,-76 632.75,-96"/>
<text text-anchor="middle" x="591" y="-82.5" font-family="Helvetica,sans-Serif" font-size="10.00">Logger::get_tag</text>
</a>
</g>
</g>
<!-- Node3&#45;&gt;Node5 -->
<g id="edge4_Node000003_Node000005" class="edge">
<title>Node3&#45;&gt;Node5</title>
<g id="a_edge4_Node000003_Node000005"><a xlink:title=" ">
<path fill="none" stroke="#63b8ff" d="M480.78,-71.22C497.6,-73.49 518.81,-76.36 538.06,-78.97"/>
<polygon fill="#63b8ff" stroke="#63b8ff" points="537.43,-82.55 547.81,-80.42 538.37,-75.61 537.43,-82.55"/>
</a>
</g>
</g>
<!-- Node6 -->
<g id="Node000006" class="node">
<title>Node6</title>
<g id="a_Node000006"><a xlink:href="class_logger.html#a4825613142ebb093bf8fa26f21f7f3fc" target="_top" xlink:title="Метод, который выводит сообщение в консоль.">
<polygon fill="white" stroke="#666666" points="652.25,-58 529.75,-58 529.75,-38 652.25,-38 652.25,-58"/>
<text text-anchor="middle" x="591" y="-44.5" font-family="Helvetica,sans-Serif" font-size="10.00">Logger::print_to_console</text>
</a>
</g>
</g>
<!-- Node3&#45;&gt;Node6 -->
<g id="edge5_Node000003_Node000006" class="edge">
<title>Node3&#45;&gt;Node6</title>
<g id="a_edge5_Node000003_Node000006"><a xlink:title=" ">
<path fill="none" stroke="#63b8ff" d="M480.78,-62.78C492.06,-61.26 505.31,-59.46 518.62,-57.66"/>
<polygon fill="#63b8ff" stroke="#63b8ff" points="518.83,-61.03 528.27,-56.22 517.9,-54.09 518.83,-61.03"/>
</a>
</g>
</g>
<!-- Node7 -->
<g id="Node000007" class="node">
<title>Node7</title>
<g id="a_Node000007"><a xlink:href="class_logger.html#a999bb33f7cf079cb98f32fae6016a2f3" target="_top" xlink:title="Метод, который записывает сообщение в файл.">
<polygon fill="white" stroke="#666666" points="641.38,-20 540.62,-20 540.62,0 641.38,0 641.38,-20"/>
<text text-anchor="middle" x="591" y="-6.5" font-family="Helvetica,sans-Serif" font-size="10.00">Logger::print_to_file</text>
</a>
</g>
</g>
<!-- Node3&#45;&gt;Node7 -->
<g id="edge6_Node000003_Node000007" class="edge">
<title>Node3&#45;&gt;Node7</title>
<g id="a_edge6_Node000003_Node000007"><a xlink:title=" ">
<path fill="none" stroke="#63b8ff" d="M469.7,-56.53C485.71,-48.42 508.83,-37.22 529.75,-29 534.24,-27.24 538.96,-25.52 543.7,-23.89"/>
<polygon fill="#63b8ff" stroke="#63b8ff" points="544.65,-26.93 553.04,-20.45 542.44,-20.28 544.65,-26.93"/>
</a>
</g>
</g>
<!-- Node8&#45;&gt;Node3 -->
<g id="edge8_Node000008_Node000003" class="edge">
<title>Node8&#45;&gt;Node3</title>
<g id="a_edge8_Node000008_Node000003"><a xlink:title=" ">
<path fill="none" stroke="#63b8ff" d="M356.57,-94.52C371.96,-89.87 390.18,-84.36 406.27,-79.5"/>
<polygon fill="#63b8ff" stroke="#63b8ff" points="406.92,-82.66 415.48,-76.41 404.89,-75.95 406.92,-82.66"/>
</a>
</g>
</g>
<!-- Node9 -->
<g id="Node000009" class="node">
<title>Node9</title>
<g id="a_Node000009"><a xlink:href="namespacestring__utils.html#a9fe07494ccc7914840b0d615974bc802" target="_top" xlink:title="Делит строку на две части по требуемому символу и возвращает содержимое правой части">
<polygon fill="white" stroke="#666666" points="493.75,-115 403.5,-115 403.5,-95 493.75,-95 493.75,-115"/>
<text text-anchor="middle" x="448.62" y="-101.5" font-family="Helvetica,sans-Serif" font-size="10.00">string_utils::lstrip</text>
</a>
</g>
</g>
<!-- Node8&#45;&gt;Node9 -->
<g id="edge9_Node000008_Node000009" class="edge">
<title>Node8&#45;&gt;Node9</title>
<g id="a_edge9_Node000008_Node000009"><a xlink:title=" ">
<path fill="none" stroke="#63b8ff" d="M367.99,-105C375.89,-105 384.17,-105 392.29,-105"/>
<polygon fill="#63b8ff" stroke="#63b8ff" points="392.2,-108.5 402.2,-105 392.2,-101.5 392.2,-108.5"/>
</a>
</g>
</g>
</g>
</svg>
