<?xml version="1.0" encoding="UTF-8" standalone="no"?>
<!DOCTYPE svg PUBLIC "-//W3C//DTD SVG 1.1//EN"
 "http://www.w3.org/Graphics/SVG/1.1/DTD/svg11.dtd">
<!-- Generated by graphviz version 8.0.5 (20230430.1635)
 -->
<!-- Title: TesartRbd::status Pages: 1 -->
<svg width="372pt" height="66pt"
 viewBox="0.00 0.00 371.75 66.00" xmlns="http://www.w3.org/2000/svg" xmlns:xlink="http://www.w3.org/1999/xlink">
<g id="graph0" class="graph" transform="scale(1 1) rotate(0) translate(4 62)">
<title>TesartRbd::status</title>
<!-- Node1 -->
<g id="Node000001" class="node">
<title>Node1</title>
<g id="a_Node000001"><a xlink:title=" ">
<polygon fill="#999999" stroke="#666666" points="363.75,-39 270.5,-39 270.5,-19 363.75,-19 363.75,-39"/>
<text text-anchor="middle" x="317.12" y="-25.5" font-family="Helvetica,sans-Serif" font-size="10.00">TesartRbd::status</text>
</a>
</g>
</g>
<!-- Node2 -->
<g id="Node000002" class="node">
<title>Node2</title>
<g id="a_Node000002"><a xlink:href="class_tesart_rbd.html#a9a7da6f896259d62e9f1b1850371fa5e" target="_top" xlink:title=" ">
<polygon fill="white" stroke="#666666" points="234.5,-58 121,-58 121,-38 234.5,-38 234.5,-58"/>
<text text-anchor="middle" x="177.75" y="-44.5" font-family="Helvetica,sans-Serif" font-size="10.00">TesartRbd::is_stopped</text>
</a>
</g>
</g>
<!-- Node1&#45;&gt;Node2 -->
<g id="edge1_Node000001_Node000002" class="edge">
<title>Node1&#45;&gt;Node2</title>
<g id="a_edge1_Node000001_Node000002"><a xlink:title=" ">
<path fill="none" stroke="#63b8ff" d="M259.74,-36.8C251.51,-37.94 243.03,-39.11 234.81,-40.25"/>
<polygon fill="#63b8ff" stroke="#63b8ff" points="259.95,-40.16 269.38,-35.33 259,-33.23 259.95,-40.16"/>
</a>
</g>
</g>
<!-- Node4 -->
<g id="Node000004" class="node">
<title>Node4</title>
<g id="a_Node000004"><a xlink:href="class_tesart_rbd.html#a592c41abaa2f8d44ffecb17434644d51" target="_top" xlink:title=" ">
<polygon fill="white" stroke="#666666" points="233,-20 122.5,-20 122.5,0 233,0 233,-20"/>
<text text-anchor="middle" x="177.75" y="-6.5" font-family="Helvetica,sans-Serif" font-size="10.00">TesartRbd::TesartRbd</text>
</a>
</g>
</g>
<!-- Node1&#45;&gt;Node4 -->
<g id="edge3_Node000001_Node000004" class="edge">
<title>Node1&#45;&gt;Node4</title>
<g id="a_edge3_Node000001_Node000004"><a xlink:title=" ">
<path fill="none" stroke="#63b8ff" d="M259.59,-21.18C250.92,-19.98 241.98,-18.75 233.35,-17.55"/>
<polygon fill="#63b8ff" stroke="#63b8ff" points="259,-24.77 269.38,-22.67 259.95,-17.84 259,-24.77"/>
</a>
</g>
</g>
<!-- Node3 -->
<g id="Node000003" class="node">
<title>Node3</title>
<g id="a_Node000003"><a xlink:href="class_tesart_rbd.html#abd28c6d7c0d3ccbc76cae094ab825317" target="_top" xlink:title=" ">
<polygon fill="white" stroke="#666666" points="85,-58 0,-58 0,-38 85,-38 85,-58"/>
<text text-anchor="middle" x="42.5" y="-44.5" font-family="Helvetica,sans-Serif" font-size="10.00">TesartRbd::stop</text>
</a>
</g>
</g>
<!-- Node2&#45;&gt;Node3 -->
<g id="edge2_Node000002_Node000003" class="edge">
<title>Node2&#45;&gt;Node3</title>
<g id="a_edge2_Node000002_Node000003"><a xlink:title=" ">
<path fill="none" stroke="#63b8ff" d="M109.75,-48C101.45,-48 93.16,-48 85.39,-48"/>
<polygon fill="#63b8ff" stroke="#63b8ff" points="109.63,-51.5 119.63,-48 109.63,-44.5 109.63,-51.5"/>
</a>
</g>
</g>
</g>
</svg>
