<?xml version="1.0" encoding="UTF-8" standalone="no"?>
<!DOCTYPE svg PUBLIC "-//W3C//DTD SVG 1.1//EN"
 "http://www.w3.org/Graphics/SVG/1.1/DTD/svg11.dtd">
<!-- Generated by graphviz version 8.0.5 (20230430.1635)
 -->
<!-- Title: VnaDevice Pages: 1 -->
<!--zoomable 1005 -->

<svg id="main" version="1.1" xmlns="http://www.w3.org/2000/svg" xmlns:xlink="http://www.w3.org/1999/xlink" xml:space="preserve" onload="init(evt)">
<style type="text/css"><![CDATA[
.node, .edge {opacity: 0.7;}
.node.selected, .edge.selected {opacity: 1;}
.edge:hover path { stroke: red; }
.edge:hover polygon { stroke: red; fill: red; }
]]></style>

<defs>
  <circle id="rim" cx="0" cy="0" r="7"/>
  <circle id="rim2" cx="0" cy="0" r="3.5"/>
  <g id="zoomPlus">
    <use xlink:href="#rim" fill="#404040"><set attributeName="fill" to="#808080" begin="zoomplus.mouseover" end="zoomplus.mouseout"/></use>
    <path d="M-4,0h8M0,-4v8" fill="none" stroke="white" stroke-width="1.5" pointer-events="none"/>
  </g>
  <g id="zoomMin">
    <use xlink:href="#rim" fill="#404040"><set attributeName="fill" to="#808080" begin="zoomminus.mouseover" end="zoomminus.mouseout"/></use>
    <path d="M-4,0h8" fill="none" stroke="white" stroke-width="1.5" pointer-events="none"/>
  </g>
  <g id="arrowUp" transform="translate(30 24)">
    <use xlink:href="#rim"/>
    <path pointer-events="none" fill="none" stroke="white" stroke-width="1.5" d="M0,-3.0v7 M-2.5,-0.5L0,-3.0L2.5,-0.5"/>
  </g>
  <g id="arrowRight" transform="rotate(90) translate(36 -43)">
    <use xlink:href="#rim"/>
    <path pointer-events="none" fill="none" stroke="white" stroke-width="1.5" d="M0,-3.0v7 M-2.5,-0.5L0,-3.0L2.5,-0.5"/>
  </g>
  <g id="arrowDown" transform="rotate(180) translate(-30 -48)">
    <use xlink:href="#rim"/>
    <path pointer-events="none" fill="none" stroke="white" stroke-width="1.5" d="M0,-3.0v7 M-2.5,-0.5L0,-3.0L2.5,-0.5"/>
  </g>
  <g id="arrowLeft" transform="rotate(270) translate(-36 17)">
    <use xlink:href="#rim"/>
    <path pointer-events="none" fill="none" stroke="white" stroke-width="1.5" d="M0,-3.0v7 M-2.5,-0.5L0,-3.0L2.5,-0.5"/>
  </g>
  <g id="resetDef">
    <use xlink:href="#rim2" fill="#404040"><set attributeName="fill" to="#808080" begin="reset.mouseover" end="reset.mouseout"/></use>
  </g>
</defs>
<script type="application/ecmascript">
var viewWidth = 149;
var viewHeight = 1005;
var sectionId = 'dynsection-1';
</script>
<script type="application/ecmascript" xlink:href="svg.min.js"/>
<svg id="graph" class="graph">
<g id="viewport">
<title>VnaDevice</title>
<!-- Node1 -->
<g id="Node000001" class="node">
<title>Node1</title>
<g id="a_Node000001"><a xlink:title=" ">
<polygon fill="#999999" stroke="none" points="141,-444 0,-444 0,0 141,0 141,-444"/>
<text text-anchor="start" x="47.62" y="-430.5" font-family="Helvetica,sans-Serif" font-size="10.00">VnaDevice</text>
<text text-anchor="start" x="4.38" y="-414.5" font-family="Helvetica,sans-Serif" font-size="10.00">#</text>
<text text-anchor="start" x="14" y="-414.5" font-family="Helvetica,sans-Serif" font-size="10.00">double start_freq</text>
<text text-anchor="start" x="4.38" y="-398.5" font-family="Helvetica,sans-Serif" font-size="10.00">#</text>
<text text-anchor="start" x="14" y="-398.5" font-family="Helvetica,sans-Serif" font-size="10.00">double stop_freq</text>
<text text-anchor="start" x="4.38" y="-382.5" font-family="Helvetica,sans-Serif" font-size="10.00">#</text>
<text text-anchor="start" x="14" y="-382.5" font-family="Helvetica,sans-Serif" font-size="10.00">float rbw</text>
<text text-anchor="start" x="4.38" y="-366.5" font-family="Helvetica,sans-Serif" font-size="10.00">#</text>
<text text-anchor="start" x="14" y="-366.5" font-family="Helvetica,sans-Serif" font-size="10.00">int points</text>
<text text-anchor="start" x="4.38" y="-350.5" font-family="Helvetica,sans-Serif" font-size="10.00">#</text>
<text text-anchor="start" x="14" y="-350.5" font-family="Helvetica,sans-Serif" font-size="10.00">double freq_step</text>
<text text-anchor="start" x="4.38" y="-334.5" font-family="Helvetica,sans-Serif" font-size="10.00">#</text>
<text text-anchor="start" x="14" y="-334.5" font-family="Helvetica,sans-Serif" font-size="10.00">float power</text>
<text text-anchor="start" x="4.38" y="-318.5" font-family="Helvetica,sans-Serif" font-size="10.00">#</text>
<text text-anchor="start" x="14" y="-318.5" font-family="Helvetica,sans-Serif" font-size="10.00">int source_port</text>
<text text-anchor="start" x="4.38" y="-302.5" font-family="Helvetica,sans-Serif" font-size="10.00">#</text>
<text text-anchor="start" x="14" y="-302.5" font-family="Helvetica,sans-Serif" font-size="10.00">int meas_type</text>
<text text-anchor="start" x="4" y="-286.5" font-family="Helvetica,sans-Serif" font-size="10.00">+</text>
<text text-anchor="start" x="14" y="-286.5" font-family="Helvetica,sans-Serif" font-size="10.00">VnaDevice()=default</text>
<text text-anchor="start" x="4" y="-270.5" font-family="Helvetica,sans-Serif" font-size="10.00">+</text>
<text text-anchor="start" x="14" y="-270.5" font-family="Helvetica,sans-Serif" font-size="10.00">VnaDevice(std::string</text>
<text text-anchor="start" x="14" y="-258.5" font-family="Helvetica,sans-Serif" font-size="10.00"> device_address)</text>
<text text-anchor="start" x="4" y="-242.5" font-family="Helvetica,sans-Serif" font-size="10.00">+</text>
<text text-anchor="start" x="14" y="-242.5" font-family="Helvetica,sans-Serif" font-size="10.00">virtual void preset()</text>
<text text-anchor="start" x="4" y="-226.5" font-family="Helvetica,sans-Serif" font-size="10.00">+</text>
<text text-anchor="start" x="14" y="-226.5" font-family="Helvetica,sans-Serif" font-size="10.00">virtual void full_preset()</text>
<text text-anchor="start" x="4" y="-210.5" font-family="Helvetica,sans-Serif" font-size="10.00">+</text>
<text text-anchor="start" x="14" y="-210.5" font-family="Helvetica,sans-Serif" font-size="10.00">virtual void init_channel()</text>
<text text-anchor="start" x="4" y="-194.5" font-family="Helvetica,sans-Serif" font-size="10.00">+</text>
<text text-anchor="start" x="14" y="-194.5" font-family="Helvetica,sans-Serif" font-size="10.00">virtual void configure</text>
<text text-anchor="start" x="14" y="-182.5" font-family="Helvetica,sans-Serif" font-size="10.00">(int meas_type, float</text>
<text text-anchor="start" x="14" y="-170.5" font-family="Helvetica,sans-Serif" font-size="10.00"> rbw, int source_port)</text>
<text text-anchor="start" x="4" y="-154.5" font-family="Helvetica,sans-Serif" font-size="10.00">+</text>
<text text-anchor="start" x="14" y="-154.5" font-family="Helvetica,sans-Serif" font-size="10.00">virtual void create</text>
<text text-anchor="start" x="14" y="-142.5" font-family="Helvetica,sans-Serif" font-size="10.00">_traces(std::vector</text>
<text text-anchor="start" x="14" y="-130.5" font-family="Helvetica,sans-Serif" font-size="10.00">&lt; int &gt; port_list, bool</text>
<text text-anchor="start" x="14" y="-118.5" font-family="Helvetica,sans-Serif" font-size="10.00"> external)</text>
<text text-anchor="start" x="4" y="-102.5" font-family="Helvetica,sans-Serif" font-size="10.00">+</text>
<text text-anchor="start" x="14" y="-102.5" font-family="Helvetica,sans-Serif" font-size="10.00">virtual void set_power</text>
<text text-anchor="start" x="14" y="-90.5" font-family="Helvetica,sans-Serif" font-size="10.00">(float power)</text>
<text text-anchor="start" x="4" y="-74.5" font-family="Helvetica,sans-Serif" font-size="10.00">+</text>
<text text-anchor="start" x="14" y="-74.5" font-family="Helvetica,sans-Serif" font-size="10.00">virtual void set_freq</text>
<text text-anchor="start" x="14" y="-62.5" font-family="Helvetica,sans-Serif" font-size="10.00">_range(double start_freq,</text>
<text text-anchor="start" x="14" y="-50.5" font-family="Helvetica,sans-Serif" font-size="10.00"> double stop_freq, int points)</text>
<text text-anchor="start" x="4" y="-34.5" font-family="Helvetica,sans-Serif" font-size="10.00">+</text>
<text text-anchor="start" x="14" y="-34.5" font-family="Helvetica,sans-Serif" font-size="10.00">virtual void set_freq</text>
<text text-anchor="start" x="14" y="-22.5" font-family="Helvetica,sans-Serif" font-size="10.00">(double freq)</text>
<text text-anchor="start" x="14" y="-6.5" font-family="Helvetica,sans-Serif" font-size="10.00">и 13 больше...</text>
<polygon fill="#666666" stroke="#666666" points="0,-426 0,-426 141,-426 141,-426 0,-426"/>
<polygon fill="#666666" stroke="#666666" points="0,-298 0,-298 12,-298 12,-298 0,-298"/>
<polygon fill="#666666" stroke="#666666" points="12,-298 12,-298 141,-298 141,-298 12,-298"/>
<polygon fill="none" stroke="#666666" points="0,0 0,-444 141,-444 141,0 0,0"/>
</a>
</g>
</g>
<!-- Node2 -->
<g id="Node000002" class="node">
<title>Node2</title>
<g id="a_Node000002"><a xlink:href="class_visa_device.html" target="_top" xlink:title=" ">
<polygon fill="white" stroke="none" points="126.5,-865 14.5,-865 14.5,-481 126.5,-481 126.5,-865"/>
<text text-anchor="start" x="46.5" y="-851.5" font-family="Helvetica,sans-Serif" font-size="10.00">VisaDevice</text>
<text text-anchor="start" x="18.88" y="-835.5" font-family="Helvetica,sans-Serif" font-size="10.00">#</text>
<text text-anchor="start" x="28.5" y="-835.5" font-family="Helvetica,sans-Serif" font-size="10.00">bool connected</text>
<text text-anchor="start" x="20" y="-819.5" font-family="Helvetica,sans-Serif" font-size="10.00">&#45;</text>
<text text-anchor="start" x="28.5" y="-819.5" font-family="Helvetica,sans-Serif" font-size="10.00">ViSession resource</text>
<text text-anchor="start" x="28.5" y="-807.5" font-family="Helvetica,sans-Serif" font-size="10.00">_manager</text>
<text text-anchor="start" x="20" y="-791.5" font-family="Helvetica,sans-Serif" font-size="10.00">&#45;</text>
<text text-anchor="start" x="28.5" y="-791.5" font-family="Helvetica,sans-Serif" font-size="10.00">ViSession device</text>
<text text-anchor="start" x="20" y="-775.5" font-family="Helvetica,sans-Serif" font-size="10.00">&#45;</text>
<text text-anchor="start" x="28.5" y="-775.5" font-family="Helvetica,sans-Serif" font-size="10.00">ViStatus status</text>
<text text-anchor="start" x="20" y="-759.5" font-family="Helvetica,sans-Serif" font-size="10.00">&#45;</text>
<text text-anchor="start" x="28.5" y="-759.5" font-family="Helvetica,sans-Serif" font-size="10.00">ViPUInt32 ret_count</text>
<text text-anchor="start" x="18.5" y="-743.5" font-family="Helvetica,sans-Serif" font-size="10.00">+</text>
<text text-anchor="start" x="28.5" y="-743.5" font-family="Helvetica,sans-Serif" font-size="10.00">VisaDevice()=default</text>
<text text-anchor="start" x="18.5" y="-727.5" font-family="Helvetica,sans-Serif" font-size="10.00">+</text>
<text text-anchor="start" x="28.5" y="-727.5" font-family="Helvetica,sans-Serif" font-size="10.00">VisaDevice(std::string</text>
<text text-anchor="start" x="28.5" y="-715.5" font-family="Helvetica,sans-Serif" font-size="10.00"> device_address)</text>
<text text-anchor="start" x="18.5" y="-699.5" font-family="Helvetica,sans-Serif" font-size="10.00">+</text>
<text text-anchor="start" x="28.5" y="-699.5" font-family="Helvetica,sans-Serif" font-size="10.00">~VisaDevice()</text>
<text text-anchor="start" x="18.5" y="-683.5" font-family="Helvetica,sans-Serif" font-size="10.00">+</text>
<text text-anchor="start" x="28.5" y="-683.5" font-family="Helvetica,sans-Serif" font-size="10.00">virtual void connect()</text>
<text text-anchor="start" x="18.5" y="-667.5" font-family="Helvetica,sans-Serif" font-size="10.00">+</text>
<text text-anchor="start" x="28.5" y="-667.5" font-family="Helvetica,sans-Serif" font-size="10.00">bool is_connected()</text>
<text text-anchor="start" x="28.5" y="-655.5" font-family="Helvetica,sans-Serif" font-size="10.00"> const</text>
<text text-anchor="start" x="18.5" y="-639.5" font-family="Helvetica,sans-Serif" font-size="10.00">+</text>
<text text-anchor="start" x="28.5" y="-639.5" font-family="Helvetica,sans-Serif" font-size="10.00">void clear() const</text>
<text text-anchor="start" x="18.5" y="-623.5" font-family="Helvetica,sans-Serif" font-size="10.00">+</text>
<text text-anchor="start" x="28.5" y="-623.5" font-family="Helvetica,sans-Serif" font-size="10.00">std::string idn()</text>
<text text-anchor="start" x="18.5" y="-607.5" font-family="Helvetica,sans-Serif" font-size="10.00">+</text>
<text text-anchor="start" x="28.5" y="-607.5" font-family="Helvetica,sans-Serif" font-size="10.00">int opc()</text>
<text text-anchor="start" x="18.5" y="-591.5" font-family="Helvetica,sans-Serif" font-size="10.00">+</text>
<text text-anchor="start" x="28.5" y="-591.5" font-family="Helvetica,sans-Serif" font-size="10.00">int err()</text>
<text text-anchor="start" x="18.5" y="-575.5" font-family="Helvetica,sans-Serif" font-size="10.00">+</text>
<text text-anchor="start" x="28.5" y="-575.5" font-family="Helvetica,sans-Serif" font-size="10.00">void wait()</text>
<text text-anchor="start" x="28.5" y="-559.5" font-family="Helvetica,sans-Serif" font-size="10.00">и 8 больше...</text>
<text text-anchor="start" x="20" y="-543.5" font-family="Helvetica,sans-Serif" font-size="10.00">&#45;</text>
<text text-anchor="start" x="28.5" y="-543.5" font-family="Helvetica,sans-Serif" font-size="10.00">int write(std::string</text>
<text text-anchor="start" x="28.5" y="-531.5" font-family="Helvetica,sans-Serif" font-size="10.00"> command)</text>
<text text-anchor="start" x="20" y="-515.5" font-family="Helvetica,sans-Serif" font-size="10.00">&#45;</text>
<text text-anchor="start" x="28.5" y="-515.5" font-family="Helvetica,sans-Serif" font-size="10.00">std::string read()</text>
<text text-anchor="start" x="20" y="-499.5" font-family="Helvetica,sans-Serif" font-size="10.00">&#45;</text>
<text text-anchor="start" x="28.5" y="-499.5" font-family="Helvetica,sans-Serif" font-size="10.00">std::string query(std</text>
<text text-anchor="start" x="28.5" y="-487.5" font-family="Helvetica,sans-Serif" font-size="10.00">::string command)</text>
<polygon fill="#666666" stroke="#666666" points="14.5,-847 14.5,-847 126.5,-847 126.5,-847 14.5,-847"/>
<polygon fill="#666666" stroke="#666666" points="14.5,-755 14.5,-755 26.5,-755 26.5,-755 14.5,-755"/>
<polygon fill="#666666" stroke="#666666" points="26.5,-755 26.5,-755 126.5,-755 126.5,-755 26.5,-755"/>
<polygon fill="none" stroke="#666666" points="14.5,-481 14.5,-865 126.5,-865 126.5,-481 14.5,-481"/>
</a>
</g>
</g>
<!-- Node2&#45;&gt;Node1 -->
<g id="edge1_Node000001_Node000002" class="edge">
<title>Node2&#45;&gt;Node1</title>
<g id="a_edge1_Node000001_Node000002"><a xlink:title=" ">
<path fill="none" stroke="#63b8ff" d="M70.5,-470.46C70.5,-461.58 70.5,-452.65 70.5,-443.73"/>
<polygon fill="none" stroke="#63b8ff" points="67,-470.26 70.5,-480.26 74,-470.26 67,-470.26"/>
</a>
</g>
</g>
<!-- Node3 -->
<g id="Node000003" class="node">
<title>Node3</title>
<g id="a_Node000003"><a xlink:href="structvisa__config.html" target="_top" xlink:title=" ">
<polygon fill="white" stroke="none" points="120,-997 21,-997 21,-913 120,-913 120,-997"/>
<text text-anchor="start" x="46.88" y="-983.5" font-family="Helvetica,sans-Serif" font-size="10.00">visa_config</text>
<text text-anchor="start" x="25" y="-967.5" font-family="Helvetica,sans-Serif" font-size="10.00">+</text>
<text text-anchor="start" x="35" y="-967.5" font-family="Helvetica,sans-Serif" font-size="10.00">std::string address</text>
<text text-anchor="start" x="25" y="-951.5" font-family="Helvetica,sans-Serif" font-size="10.00">+</text>
<text text-anchor="start" x="35" y="-951.5" font-family="Helvetica,sans-Serif" font-size="10.00">int timeout</text>
<text text-anchor="start" x="25" y="-935.5" font-family="Helvetica,sans-Serif" font-size="10.00">+</text>
<text text-anchor="start" x="35" y="-935.5" font-family="Helvetica,sans-Serif" font-size="10.00">char termination</text>
<text text-anchor="start" x="69" y="-919.5" font-family="Helvetica,sans-Serif" font-size="10.00"> </text>
<polygon fill="#666666" stroke="#666666" points="21,-979 21,-979 120,-979 120,-979 21,-979"/>
<polygon fill="#666666" stroke="#666666" points="21,-931 21,-931 33,-931 33,-931 21,-931"/>
<polygon fill="#666666" stroke="#666666" points="33,-931 33,-931 120,-931 120,-931 33,-931"/>
<polygon fill="none" stroke="#666666" points="21,-913 21,-997 120,-997 120,-913 21,-913"/>
</a>
</g>
</g>
<!-- Node3&#45;&gt;Node2 -->
<g id="edge2_Node000002_Node000003" class="edge">
<title>Node3&#45;&gt;Node2</title>
<g id="a_edge2_Node000002_Node000003"><a xlink:title=" ">
<path fill="none" stroke="#63b8ff" d="M70.5,-913.29C70.5,-902.71 70.5,-890.58 70.5,-877.51"/>
<polygon fill="none" stroke="#63b8ff" points="70.5,-877.62 66.5,-871.62 70.5,-865.62 74.5,-871.62 70.5,-877.62"/>
</a>
</g>
<text text-anchor="middle" x="102.38" y="-885.5" font-family="Helvetica,sans-Serif" font-size="10.00" fill="grey"> &#45;device_config</text>
</g>
</g>
</svg>

<g id="navigator" transform="translate(0 0)" fill="#404254">
  <rect fill="#f2f5e9" fill-opacity="0.5" stroke="#606060" stroke-width=".5" x="0" y="0" width="60" height="60"/>
  <use id="zoomplus" xlink:href="#zoomPlus" x="17" y="9" onmousedown="handleZoom(evt,'in')"/>
  <use id="zoomminus" xlink:href="#zoomMin" x="42" y="9" onmousedown="handleZoom(evt,'out')"/>
  <use id="reset" xlink:href="#resetDef" x="30" y="36" onmousedown="handleReset()"/>
   <use id="arrowup" xlink:href="#arrowUp" x="0" y="0" onmousedown="handlePan(0,-1)"/>
  <use id="arrowright" xlink:href="#arrowRight" x="0" y="0" onmousedown="handlePan(1,0)"/>
  <use id="arrowdown" xlink:href="#arrowDown" x="0" y="0" onmousedown="handlePan(0,1)"/>
  <use id="arrowleft" xlink:href="#arrowLeft" x="0" y="0" onmousedown="handlePan(-1,0)"/>
</g>
<svg viewBox="0 0 15 15" width="100%" height="30px" preserveAspectRatio="xMaxYMin meet">
 <g id="arrow_out" transform="scale(0.3 0.3)">
  <a xlink:href="class_vna_device__coll__graph_org.svg" target="_base">
   <rect id="button" ry="5" rx="5" y="6" x="6" height="38" width="38"
        fill="#f2f5e9" fill-opacity="0.5" stroke="#606060" stroke-width="1.0"/>
   <path id="arrow"
     d="M 11.500037,31.436501 C 11.940474,20.09759 22.043105,11.32322 32.158766,21.979434 L 37.068811,17.246167 C 37.068811,17.246167 37.088388,32 37.088388,32 L 22.160133,31.978069 C 22.160133,31.978069 26.997745,27.140456 26.997745,27.140456 C 18.528582,18.264221 13.291696,25.230495 11.500037,31.436501 z"
     style="fill:#404040;"/>
  </a>
 </g>
</svg>

<style type='text/css'>
<![CDATA[
[data-mouse-over-selected='false'] { opacity: 0.7; }
[data-mouse-over-selected='true']  { opacity: 1.0; }
]]>
</style>
<script type="application/ecmascript"><![CDATA[
document.addEventListener('DOMContentLoaded', (event) => {
  highlightEdges();
  highlightAdjacentNodes();
});
]]></script>
</svg>
