<?xml version="1.0" encoding="UTF-8" standalone="no"?>
<!DOCTYPE svg PUBLIC "-//W3C//DTD SVG 1.1//EN"
 "http://www.w3.org/Graphics/SVG/1.1/DTD/svg11.dtd">
<!-- Generated by graphviz version 8.0.5 (20230430.1635)
 -->
<!-- Title: KeysightM9807A::set_path Pages: 1 -->
<!--zoomable 251 -->

<svg id="main" version="1.1" xmlns="http://www.w3.org/2000/svg" xmlns:xlink="http://www.w3.org/1999/xlink" xml:space="preserve" onload="init(evt)">
<style type="text/css"><![CDATA[
.node, .edge {opacity: 0.7;}
.node.selected, .edge.selected {opacity: 1;}
.edge:hover path { stroke: red; }
.edge:hover polygon { stroke: red; fill: red; }
]]></style>

<defs>
  <circle id="rim" cx="0" cy="0" r="7"/>
  <circle id="rim2" cx="0" cy="0" r="3.5"/>
  <g id="zoomPlus">
    <use xlink:href="#rim" fill="#404040"><set attributeName="fill" to="#808080" begin="zoomplus.mouseover" end="zoomplus.mouseout"/></use>
    <path d="M-4,0h8M0,-4v8" fill="none" stroke="white" stroke-width="1.5" pointer-events="none"/>
  </g>
  <g id="zoomMin">
    <use xlink:href="#rim" fill="#404040"><set attributeName="fill" to="#808080" begin="zoomminus.mouseover" end="zoomminus.mouseout"/></use>
    <path d="M-4,0h8" fill="none" stroke="white" stroke-width="1.5" pointer-events="none"/>
  </g>
  <g id="arrowUp" transform="translate(30 24)">
    <use xlink:href="#rim"/>
    <path pointer-events="none" fill="none" stroke="white" stroke-width="1.5" d="M0,-3.0v7 M-2.5,-0.5L0,-3.0L2.5,-0.5"/>
  </g>
  <g id="arrowRight" transform="rotate(90) translate(36 -43)">
    <use xlink:href="#rim"/>
    <path pointer-events="none" fill="none" stroke="white" stroke-width="1.5" d="M0,-3.0v7 M-2.5,-0.5L0,-3.0L2.5,-0.5"/>
  </g>
  <g id="arrowDown" transform="rotate(180) translate(-30 -48)">
    <use xlink:href="#rim"/>
    <path pointer-events="none" fill="none" stroke="white" stroke-width="1.5" d="M0,-3.0v7 M-2.5,-0.5L0,-3.0L2.5,-0.5"/>
  </g>
  <g id="arrowLeft" transform="rotate(270) translate(-36 17)">
    <use xlink:href="#rim"/>
    <path pointer-events="none" fill="none" stroke="white" stroke-width="1.5" d="M0,-3.0v7 M-2.5,-0.5L0,-3.0L2.5,-0.5"/>
  </g>
  <g id="resetDef">
    <use xlink:href="#rim2" fill="#404040"><set attributeName="fill" to="#808080" begin="reset.mouseover" end="reset.mouseout"/></use>
  </g>
</defs>
<script type="application/ecmascript">
var viewWidth = 1222;
var viewHeight = 251;
var sectionId = 'dynsection-10';
</script>
<script type="application/ecmascript" xlink:href="svg.min.js"/>
<svg id="graph" class="graph">
<g id="viewport">
<title>KeysightM9807A::set_path</title>
<!-- Node1 -->
<g id="Node000001" class="node">
<title>Node1</title>
<g id="a_Node000001"><a xlink:title=" ">
<polygon fill="#999999" stroke="#666666" points="133.75,-195.79 0,-195.79 0,-175.79 133.75,-175.79 133.75,-195.79"/>
<text text-anchor="middle" x="66.88" y="-182.29" font-family="Helvetica,sans-Serif" font-size="10.00">KeysightM9807A::set_path</text>
</a>
</g>
</g>
<!-- Node2 -->
<g id="Node000002" class="node">
<title>Node2</title>
<g id="a_Node000002"><a xlink:href="class_visa_device.html#a069e154c5f48779dfd908146db9e66ed" target="_top" xlink:title=" ">
<polygon fill="white" stroke="#666666" points="299.75,-195.79 169.75,-195.79 169.75,-175.79 299.75,-175.79 299.75,-195.79"/>
<text text-anchor="middle" x="234.75" y="-182.29" font-family="Helvetica,sans-Serif" font-size="10.00">VisaDevice::send_wait_err</text>
</a>
</g>
</g>
<!-- Node1&#45;&gt;Node2 -->
<g id="edge1_Node000001_Node000002" class="edge">
<title>Node1&#45;&gt;Node2</title>
<g id="a_edge1_Node000001_Node000002"><a xlink:title=" ">
<path fill="none" stroke="#63b8ff" d="M133.91,-185.79C142.01,-185.79 150.34,-185.79 158.57,-185.79"/>
<polygon fill="#63b8ff" stroke="#63b8ff" points="158.29,-189.29 168.29,-185.79 158.29,-182.29 158.29,-189.29"/>
</a>
</g>
</g>
<!-- Node3 -->
<g id="Node000003" class="node">
<title>Node3</title>
<g id="a_Node000003"><a xlink:href="class_visa_device.html#aba4642c194cffe2135a133e23960ab63" target="_top" xlink:title=" ">
<polygon fill="white" stroke="#666666" points="694.62,-195.79 613.38,-195.79 613.38,-175.79 694.62,-175.79 694.62,-195.79"/>
<text text-anchor="middle" x="654" y="-182.29" font-family="Helvetica,sans-Serif" font-size="10.00">VisaDevice::err</text>
</a>
</g>
</g>
<!-- Node2&#45;&gt;Node3 -->
<g id="edge2_Node000002_Node000003" class="edge">
<title>Node2&#45;&gt;Node3</title>
<g id="a_edge2_Node000002_Node000003"><a xlink:title=" ">
<path fill="none" stroke="#63b8ff" d="M300.03,-185.79C383.15,-185.79 526.24,-185.79 602.19,-185.79"/>
<polygon fill="#63b8ff" stroke="#63b8ff" points="601.89,-189.29 611.89,-185.79 601.89,-182.29 601.89,-189.29"/>
</a>
</g>
</g>
<!-- Node4 -->
<g id="Node000004" class="node">
<title>Node4</title>
<g id="a_Node000004"><a xlink:href="class_logger.html#af7709105c2708359b7b082218f4cc3e1" target="_top" xlink:title="Функция, осуществляющая логирование">
<polygon fill="white" stroke="#666666" points="1055.75,-100.79 991.75,-100.79 991.75,-80.79 1055.75,-80.79 1055.75,-100.79"/>
<text text-anchor="middle" x="1023.75" y="-87.29" font-family="Helvetica,sans-Serif" font-size="10.00">Logger::log</text>
</a>
</g>
</g>
<!-- Node2&#45;&gt;Node4 -->
<g id="edge13_Node000002_Node000004" class="edge">
<title>Node2&#45;&gt;Node4</title>
<g id="a_edge13_Node000002_Node000004"><a xlink:title=" ">
<path fill="none" stroke="#63b8ff" d="M267.77,-196.25C321.1,-212.7 431.76,-242.79 527.88,-242.79 527.88,-242.79 527.88,-242.79 783.5,-242.79 865.81,-242.79 889.57,-223.73 955.75,-174.79 979.41,-157.29 999.36,-129.46 1011.18,-110.67"/>
<polygon fill="#63b8ff" stroke="#63b8ff" points="1014.68,-112.65 1016.88,-102.29 1008.7,-109.02 1014.68,-112.65"/>
</a>
</g>
</g>
<!-- Node12 -->
<g id="Node000012" class="node">
<title>Node12</title>
<g id="a_Node000012"><a xlink:href="class_visa_device.html#a3744ee1e929d6c05b522693c344c76b3" target="_top" xlink:title=" ">
<polygon fill="white" stroke="#666666" points="449.25,-119.79 335.75,-119.79 335.75,-99.79 449.25,-99.79 449.25,-119.79"/>
<text text-anchor="middle" x="392.5" y="-106.29" font-family="Helvetica,sans-Serif" font-size="10.00">VisaDevice::send_wait</text>
</a>
</g>
</g>
<!-- Node2&#45;&gt;Node12 -->
<g id="edge14_Node000002_Node000012" class="edge">
<title>Node2&#45;&gt;Node12</title>
<g id="a_edge14_Node000002_Node000012"><a xlink:title=" ">
<path fill="none" stroke="#63b8ff" d="M257.08,-175.39C283.88,-162.31 330.05,-139.78 360.69,-124.83"/>
<polygon fill="#63b8ff" stroke="#63b8ff" points="361.98,-127.61 369.43,-120.08 358.91,-121.32 361.98,-127.61"/>
</a>
</g>
</g>
<!-- Node3&#45;&gt;Node4 -->
<g id="edge3_Node000003_Node000004" class="edge">
<title>Node3&#45;&gt;Node4</title>
<g id="a_edge3_Node000003_Node000004"><a xlink:title=" ">
<path fill="none" stroke="#63b8ff" d="M694.87,-187.82C754.34,-189.32 868.6,-186.24 955.75,-147.79 975.69,-139 994.23,-122.29 1006.72,-109.23"/>
<polygon fill="#63b8ff" stroke="#63b8ff" points="1008.83,-112.02 1013.01,-102.29 1003.67,-107.29 1008.83,-112.02"/>
</a>
</g>
</g>
<!-- Node9 -->
<g id="Node000009" class="node">
<title>Node9</title>
<g id="a_Node000009"><a xlink:href="class_visa_device.html#aa807192fd9a8c3e6efc458f78de5e73e" target="_top" xlink:title=" ">
<polygon fill="white" stroke="#666666" points="829.5,-138.79 735.5,-138.79 735.5,-118.79 829.5,-118.79 829.5,-138.79"/>
<text text-anchor="middle" x="782.5" y="-125.29" font-family="Helvetica,sans-Serif" font-size="10.00">VisaDevice::query</text>
</a>
</g>
</g>
<!-- Node3&#45;&gt;Node9 -->
<g id="edge8_Node000003_Node000009" class="edge">
<title>Node3&#45;&gt;Node9</title>
<g id="a_edge8_Node000003_Node000009"><a xlink:title=" ">
<path fill="none" stroke="#63b8ff" d="M678.2,-175.34C697.91,-166.46 726.42,-153.61 748.5,-143.66"/>
<polygon fill="#63b8ff" stroke="#63b8ff" points="749.77,-146.48 757.45,-139.18 746.89,-140.1 749.77,-146.48"/>
</a>
</g>
</g>
<!-- Node5 -->
<g id="Node000005" class="node">
<title>Node5</title>
<g id="a_Node000005"><a xlink:href="logger_8hpp.html#a49284b7befa8e31f81e01ee8f3735dd0" target="_top" xlink:title="Функция, которая снимает значение текущего времени и конвертирует его в строку с заданным шаблоном.">
<polygon fill="white" stroke="#666666" points="1197.38,-157.79 1108.62,-157.79 1108.62,-137.79 1197.38,-137.79 1197.38,-157.79"/>
<text text-anchor="middle" x="1153" y="-144.29" font-family="Helvetica,sans-Serif" font-size="10.00">get_current_time</text>
</a>
</g>
</g>
<!-- Node4&#45;&gt;Node5 -->
<g id="edge4_Node000004_Node000005" class="edge">
<title>Node4&#45;&gt;Node5</title>
<g id="a_edge4_Node000004_Node000005"><a xlink:title=" ">
<path fill="none" stroke="#63b8ff" d="M1040.77,-101.16C1054.05,-109.43 1073.6,-120.89 1091.75,-128.79 1095.82,-130.57 1100.11,-132.26 1104.45,-133.84"/>
<polygon fill="#63b8ff" stroke="#63b8ff" points="1102.99,-137.38 1113.59,-137.34 1105.28,-130.77 1102.99,-137.38"/>
</a>
</g>
</g>
<!-- Node6 -->
<g id="Node000006" class="node">
<title>Node6</title>
<g id="a_Node000006"><a xlink:href="class_logger.html#a6edb7b263f080d417b82a537ed50fee4" target="_top" xlink:title="Функция, возвращающая тег в зависимости от уровня логирования и от назначения тега.">
<polygon fill="white" stroke="#666666" points="1194.75,-119.79 1111.25,-119.79 1111.25,-99.79 1194.75,-99.79 1194.75,-119.79"/>
<text text-anchor="middle" x="1153" y="-106.29" font-family="Helvetica,sans-Serif" font-size="10.00">Logger::get_tag</text>
</a>
</g>
</g>
<!-- Node4&#45;&gt;Node6 -->
<g id="edge5_Node000004_Node000006" class="edge">
<title>Node4&#45;&gt;Node6</title>
<g id="a_edge5_Node000004_Node000006"><a xlink:title=" ">
<path fill="none" stroke="#63b8ff" d="M1056.21,-95.49C1069.47,-97.47 1085.27,-99.83 1100.17,-102.06"/>
<polygon fill="#63b8ff" stroke="#63b8ff" points="1099.41,-105.63 1109.82,-103.65 1100.44,-98.71 1099.41,-105.63"/>
</a>
</g>
</g>
<!-- Node7 -->
<g id="Node000007" class="node">
<title>Node7</title>
<g id="a_Node000007"><a xlink:href="class_logger.html#a4825613142ebb093bf8fa26f21f7f3fc" target="_top" xlink:title="Функция, которая выводит сообщение в консоль.">
<polygon fill="white" stroke="#666666" points="1214.25,-81.79 1091.75,-81.79 1091.75,-61.79 1214.25,-61.79 1214.25,-81.79"/>
<text text-anchor="middle" x="1153" y="-68.29" font-family="Helvetica,sans-Serif" font-size="10.00">Logger::print_to_console</text>
</a>
</g>
</g>
<!-- Node4&#45;&gt;Node7 -->
<g id="edge6_Node000004_Node000007" class="edge">
<title>Node4&#45;&gt;Node7</title>
<g id="a_edge6_Node000004_Node000007"><a xlink:title=" ">
<path fill="none" stroke="#63b8ff" d="M1056.21,-86.1C1063.71,-84.98 1072.02,-83.74 1080.53,-82.47"/>
<polygon fill="#63b8ff" stroke="#63b8ff" points="1080.98,-85.79 1090.35,-80.85 1079.94,-78.87 1080.98,-85.79"/>
</a>
</g>
</g>
<!-- Node8 -->
<g id="Node000008" class="node">
<title>Node8</title>
<g id="a_Node000008"><a xlink:href="class_logger.html#a999bb33f7cf079cb98f32fae6016a2f3" target="_top" xlink:title="Функция, которая записывает сообщение в файл.">
<polygon fill="white" stroke="#666666" points="1203.38,-43.79 1102.62,-43.79 1102.62,-23.79 1203.38,-23.79 1203.38,-43.79"/>
<text text-anchor="middle" x="1153" y="-30.29" font-family="Helvetica,sans-Serif" font-size="10.00">Logger::print_to_file</text>
</a>
</g>
</g>
<!-- Node4&#45;&gt;Node8 -->
<g id="edge7_Node000004_Node000008" class="edge">
<title>Node4&#45;&gt;Node8</title>
<g id="a_edge7_Node000004_Node000008"><a xlink:title=" ">
<path fill="none" stroke="#63b8ff" d="M1040.77,-80.43C1054.05,-72.16 1073.6,-60.7 1091.75,-52.79 1095.82,-51.02 1100.11,-49.33 1104.45,-47.75"/>
<polygon fill="#63b8ff" stroke="#63b8ff" points="1105.28,-50.82 1113.59,-44.24 1102.99,-44.2 1105.28,-50.82"/>
</a>
</g>
</g>
<!-- Node10 -->
<g id="Node000010" class="node">
<title>Node10</title>
<g id="a_Node000010"><a xlink:href="class_visa_device.html#aca08d9dbb0469f1143668a485e4adfe2" target="_top" xlink:title=" ">
<polygon fill="white" stroke="#666666" points="955,-138.79 866.25,-138.79 866.25,-118.79 955,-118.79 955,-138.79"/>
<text text-anchor="middle" x="910.62" y="-125.29" font-family="Helvetica,sans-Serif" font-size="10.00">VisaDevice::read</text>
</a>
</g>
</g>
<!-- Node9&#45;&gt;Node10 -->
<g id="edge9_Node000009_Node000010" class="edge">
<title>Node9&#45;&gt;Node10</title>
<g id="a_edge9_Node000009_Node000010"><a xlink:title=" ">
<path fill="none" stroke="#63b8ff" d="M829.75,-128.79C837.96,-128.79 846.58,-128.79 855,-128.79"/>
<polygon fill="#63b8ff" stroke="#63b8ff" points="854.9,-132.29 864.9,-128.79 854.9,-125.29 854.9,-132.29"/>
</a>
</g>
</g>
<!-- Node11 -->
<g id="Node000011" class="node">
<title>Node11</title>
<g id="a_Node000011"><a xlink:href="class_visa_device.html#a29202c3f5e47326386d1d27972e25267" target="_top" xlink:title=" ">
<polygon fill="white" stroke="#666666" points="955.75,-100.79 865.5,-100.79 865.5,-80.79 955.75,-80.79 955.75,-100.79"/>
<text text-anchor="middle" x="910.62" y="-87.29" font-family="Helvetica,sans-Serif" font-size="10.00">VisaDevice::write</text>
</a>
</g>
</g>
<!-- Node9&#45;&gt;Node11 -->
<g id="edge11_Node000009_Node000011" class="edge">
<title>Node9&#45;&gt;Node11</title>
<g id="a_edge11_Node000009_Node000011"><a xlink:title=" ">
<path fill="none" stroke="#63b8ff" d="M818.3,-118.31C832.63,-113.99 849.43,-108.93 864.68,-104.34"/>
<polygon fill="#63b8ff" stroke="#63b8ff" points="865.38,-107.48 873.94,-101.24 863.36,-100.78 865.38,-107.48"/>
</a>
</g>
</g>
<!-- Node10&#45;&gt;Node4 -->
<g id="edge10_Node000010_Node000004" class="edge">
<title>Node10&#45;&gt;Node4</title>
<g id="a_edge10_Node000010_Node000004"><a xlink:title=" ">
<path fill="none" stroke="#63b8ff" d="M942.28,-118.31C954.55,-114.12 968.86,-109.22 981.98,-104.73"/>
<polygon fill="#63b8ff" stroke="#63b8ff" points="982.86,-107.79 991.19,-101.24 980.6,-101.17 982.86,-107.79"/>
</a>
</g>
</g>
<!-- Node11&#45;&gt;Node4 -->
<g id="edge12_Node000011_Node000004" class="edge">
<title>Node11&#45;&gt;Node4</title>
<g id="a_edge12_Node000011_Node000004"><a xlink:title=" ">
<path fill="none" stroke="#63b8ff" d="M956.18,-90.79C964.23,-90.79 972.59,-90.79 980.57,-90.79"/>
<polygon fill="#63b8ff" stroke="#63b8ff" points="980.5,-94.29 990.5,-90.79 980.5,-87.29 980.5,-94.29"/>
</a>
</g>
</g>
<!-- Node13 -->
<g id="Node000013" class="node">
<title>Node13</title>
<g id="a_Node000013"><a xlink:href="class_visa_device.html#ad659ba652605f5c983958400fde8c808" target="_top" xlink:title=" ">
<polygon fill="white" stroke="#666666" points="699.5,-119.79 608.5,-119.79 608.5,-99.79 699.5,-99.79 699.5,-119.79"/>
<text text-anchor="middle" x="654" y="-106.29" font-family="Helvetica,sans-Serif" font-size="10.00">VisaDevice::send</text>
</a>
</g>
</g>
<!-- Node12&#45;&gt;Node13 -->
<g id="edge15_Node000012_Node000013" class="edge">
<title>Node12&#45;&gt;Node13</title>
<g id="a_edge15_Node000012_Node000013"><a xlink:title=" ">
<path fill="none" stroke="#63b8ff" d="M449.49,-109.79C493.21,-109.79 553.67,-109.79 597.32,-109.79"/>
<polygon fill="#63b8ff" stroke="#63b8ff" points="597.31,-113.29 607.31,-109.79 597.31,-106.29 597.31,-113.29"/>
</a>
</g>
</g>
<!-- Node14 -->
<g id="Node000014" class="node">
<title>Node14</title>
<g id="a_Node000014"><a xlink:href="class_visa_device.html#ab1f5c0b110fca770dbd5be069453ea82" target="_top" xlink:title=" ">
<polygon fill="white" stroke="#666666" points="572.5,-43.79 485.25,-43.79 485.25,-23.79 572.5,-23.79 572.5,-43.79"/>
<text text-anchor="middle" x="528.88" y="-30.29" font-family="Helvetica,sans-Serif" font-size="10.00">VisaDevice::wait</text>
</a>
</g>
</g>
<!-- Node12&#45;&gt;Node14 -->
<g id="edge20_Node000012_Node000014" class="edge">
<title>Node12&#45;&gt;Node14</title>
<g id="a_edge20_Node000012_Node000014"><a xlink:title=" ">
<path fill="none" stroke="#63b8ff" d="M411.9,-99.39C434.72,-86.48 473.82,-64.36 500.25,-49.42"/>
<polygon fill="#63b8ff" stroke="#63b8ff" points="501.71,-52.05 508.69,-44.08 498.27,-45.95 501.71,-52.05"/>
</a>
</g>
</g>
<!-- Node13&#45;&gt;Node4 -->
<g id="edge16_Node000013_Node000004" class="edge">
<title>Node13&#45;&gt;Node4</title>
<g id="a_edge16_Node000013_Node000004"><a xlink:title=" ">
<path fill="none" stroke="#63b8ff" d="M690.23,-99.3C746.43,-83.92 859.84,-58.46 955.75,-71.79 964.52,-73.01 973.75,-75.09 982.47,-77.43"/>
<polygon fill="#63b8ff" stroke="#63b8ff" points="981.2,-81 991.78,-80.38 983.13,-74.27 981.2,-81"/>
</a>
</g>
</g>
<!-- Node13&#45;&gt;Node9 -->
<g id="edge17_Node000013_Node000009" class="edge">
<title>Node13&#45;&gt;Node9</title>
<g id="a_edge17_Node000013_Node000009"><a xlink:title=" ">
<path fill="none" stroke="#63b8ff" d="M699.96,-116.55C707.95,-117.75 716.38,-119.01 724.66,-120.26"/>
<polygon fill="#63b8ff" stroke="#63b8ff" points="724,-123.85 734.41,-121.87 725.04,-116.93 724,-123.85"/>
</a>
</g>
</g>
<!-- Node13&#45;&gt;Node10 -->
<g id="edge18_Node000013_Node000010" class="edge">
<title>Node13&#45;&gt;Node10</title>
<g id="a_edge18_Node000013_Node000010"><a xlink:title=" ">
<path fill="none" stroke="#63b8ff" d="M671.48,-120.25C687.23,-129.56 711.97,-142.52 735.5,-147.79 778.66,-157.47 828.99,-150.02 864.4,-141.78"/>
<polygon fill="#63b8ff" stroke="#63b8ff" points="865.01,-144.99 873.89,-139.21 863.35,-138.19 865.01,-144.99"/>
</a>
</g>
</g>
<!-- Node13&#45;&gt;Node11 -->
<g id="edge19_Node000013_Node000011" class="edge">
<title>Node13&#45;&gt;Node11</title>
<g id="a_edge19_Node000013_Node000011"><a xlink:title=" ">
<path fill="none" stroke="#63b8ff" d="M699.94,-106.44C743.02,-103.23 808.17,-98.36 854.41,-94.91"/>
<polygon fill="#63b8ff" stroke="#63b8ff" points="854.43,-98.35 864.14,-94.11 853.91,-91.37 854.43,-98.35"/>
</a>
</g>
</g>
<!-- Node14&#45;&gt;Node4 -->
<g id="edge21_Node000014_Node000004" class="edge">
<title>Node14&#45;&gt;Node4</title>
<g id="a_edge21_Node000014_Node000004"><a xlink:title=" ">
<path fill="none" stroke="#63b8ff" d="M565.17,-23.38C578.6,-19.92 594.14,-16.51 608.5,-14.79 762.25,3.52 811.13,12.51 955.75,-42.79 973.78,-49.69 991.41,-62.64 1004.05,-73.36"/>
<polygon fill="#63b8ff" stroke="#63b8ff" points="1001.14,-75.33 1010.96,-79.31 1005.76,-70.08 1001.14,-75.33"/>
</a>
</g>
</g>
<!-- Node15 -->
<g id="Node000015" class="node">
<title>Node15</title>
<g id="a_Node000015"><a xlink:href="class_visa_device.html#a70a6c6ace7c5841db420c1e112782a53" target="_top" xlink:title=" ">
<polygon fill="white" stroke="#666666" points="696.88,-43.79 611.12,-43.79 611.12,-23.79 696.88,-23.79 696.88,-43.79"/>
<text text-anchor="middle" x="654" y="-30.29" font-family="Helvetica,sans-Serif" font-size="10.00">VisaDevice::opc</text>
</a>
</g>
</g>
<!-- Node14&#45;&gt;Node15 -->
<g id="edge22_Node000014_Node000015" class="edge">
<title>Node14&#45;&gt;Node15</title>
<g id="a_edge22_Node000014_Node000015"><a xlink:title=" ">
<path fill="none" stroke="#63b8ff" d="M572.94,-33.79C581.71,-33.79 591.04,-33.79 600.11,-33.79"/>
<polygon fill="#63b8ff" stroke="#63b8ff" points="600,-37.29 610,-33.79 600,-30.29 600,-37.29"/>
</a>
</g>
</g>
<!-- Node15&#45;&gt;Node4 -->
<g id="edge23_Node000015_Node000004" class="edge">
<title>Node15&#45;&gt;Node4</title>
<g id="a_edge23_Node000015_Node000004"><a xlink:title=" ">
<path fill="none" stroke="#63b8ff" d="M696.98,-34.25C755.7,-35.73 865.31,-41.54 955.75,-63.79 967.65,-66.72 980.24,-71.35 991.24,-75.96"/>
<polygon fill="#63b8ff" stroke="#63b8ff" points="989.68,-79.53 1000.24,-80.31 992.47,-73.11 989.68,-79.53"/>
</a>
</g>
</g>
<!-- Node15&#45;&gt;Node9 -->
<g id="edge24_Node000015_Node000009" class="edge">
<title>Node15&#45;&gt;Node9</title>
<g id="a_edge24_Node000015_Node000009"><a xlink:title=" ">
<path fill="none" stroke="#63b8ff" d="M668.54,-43.96C690.2,-60.23 732.89,-92.29 759.14,-112"/>
<polygon fill="#63b8ff" stroke="#63b8ff" points="756.58,-115.21 766.68,-118.41 760.78,-109.61 756.58,-115.21"/>
</a>
</g>
</g>
</g>
</svg>

<g id="navigator" transform="translate(0 0)" fill="#404254">
  <rect fill="#f2f5e9" fill-opacity="0.5" stroke="#606060" stroke-width=".5" x="0" y="0" width="60" height="60"/>
  <use id="zoomplus" xlink:href="#zoomPlus" x="17" y="9" onmousedown="handleZoom(evt,'in')"/>
  <use id="zoomminus" xlink:href="#zoomMin" x="42" y="9" onmousedown="handleZoom(evt,'out')"/>
  <use id="reset" xlink:href="#resetDef" x="30" y="36" onmousedown="handleReset()"/>
   <use id="arrowup" xlink:href="#arrowUp" x="0" y="0" onmousedown="handlePan(0,-1)"/>
  <use id="arrowright" xlink:href="#arrowRight" x="0" y="0" onmousedown="handlePan(1,0)"/>
  <use id="arrowdown" xlink:href="#arrowDown" x="0" y="0" onmousedown="handlePan(0,1)"/>
  <use id="arrowleft" xlink:href="#arrowLeft" x="0" y="0" onmousedown="handlePan(-1,0)"/>
</g>
<svg viewBox="0 0 15 15" width="100%" height="30px" preserveAspectRatio="xMaxYMin meet">
 <g id="arrow_out" transform="scale(0.3 0.3)">
  <a xlink:href="class_keysight_m9807_a_a148ac915640756d3ef0c33d92c1b1205_cgraph_org.svg" target="_base">
   <rect id="button" ry="5" rx="5" y="6" x="6" height="38" width="38"
        fill="#f2f5e9" fill-opacity="0.5" stroke="#606060" stroke-width="1.0"/>
   <path id="arrow"
     d="M 11.500037,31.436501 C 11.940474,20.09759 22.043105,11.32322 32.158766,21.979434 L 37.068811,17.246167 C 37.068811,17.246167 37.088388,32 37.088388,32 L 22.160133,31.978069 C 22.160133,31.978069 26.997745,27.140456 26.997745,27.140456 C 18.528582,18.264221 13.291696,25.230495 11.500037,31.436501 z"
     style="fill:#404040;"/>
  </a>
 </g>
</svg>

<style type='text/css'>
<![CDATA[
[data-mouse-over-selected='false'] { opacity: 0.7; }
[data-mouse-over-selected='true']  { opacity: 1.0; }
]]>
</style>
<script type="application/ecmascript"><![CDATA[
document.addEventListener('DOMContentLoaded', (event) => {
  highlightEdges();
  highlightAdjacentNodes();
});
]]></script>
</svg>
