<?xml version="1.0" encoding="UTF-8" standalone="no"?>
<!DOCTYPE svg PUBLIC "-//W3C//DTD SVG 1.1//EN"
 "http://www.w3.org/Graphics/SVG/1.1/DTD/svg11.dtd">
<!-- Generated by graphviz version 8.0.5 (20230430.1635)
 -->
<!-- Title: DeviceSet::move_to_start_angle Pages: 1 -->
<svg width="408pt" height="142pt"
 viewBox="0.00 0.00 407.75 142.00" xmlns="http://www.w3.org/2000/svg" xmlns:xlink="http://www.w3.org/1999/xlink">
<g id="graph0" class="graph" transform="scale(1 1) rotate(0) translate(4 138)">
<title>DeviceSet::move_to_start_angle</title>
<!-- Node1 -->
<g id="Node000001" class="node">
<title>Node1</title>
<g id="a_Node000001"><a xlink:title=" ">
<polygon fill="#999999" stroke="#666666" points="101.5,-61 0,-61 0,-29 101.5,-29 101.5,-61"/>
<text text-anchor="start" x="8" y="-47.5" font-family="Helvetica,sans-Serif" font-size="10.00">DeviceSet::move_to</text>
<text text-anchor="middle" x="50.75" y="-35.5" font-family="Helvetica,sans-Serif" font-size="10.00">_start_angle</text>
</a>
</g>
</g>
<!-- Node2 -->
<g id="Node000002" class="node">
<title>Node2</title>
<g id="a_Node000002"><a xlink:href="class_logger.html#af7709105c2708359b7b082218f4cc3e1" target="_top" xlink:title="Функция, осуществляющая логирование">
<polygon fill="white" stroke="#666666" points="221.38,-77 157.38,-77 157.38,-57 221.38,-57 221.38,-77"/>
<text text-anchor="middle" x="189.38" y="-63.5" font-family="Helvetica,sans-Serif" font-size="10.00">Logger::log</text>
</a>
</g>
</g>
<!-- Node1&#45;&gt;Node2 -->
<g id="edge1_Node000001_Node000002" class="edge">
<title>Node1&#45;&gt;Node2</title>
<g id="a_edge1_Node000001_Node000002"><a xlink:title=" ">
<path fill="none" stroke="#63b8ff" d="M101.85,-53.07C116.39,-55.41 132.12,-57.94 146.13,-60.2"/>
<polygon fill="#63b8ff" stroke="#63b8ff" points="145.51,-63.8 155.94,-61.94 146.63,-56.89 145.51,-63.8"/>
</a>
</g>
</g>
<!-- Node7 -->
<g id="Node000007" class="node">
<title>Node7</title>
<g id="a_Node000007"><a xlink:href="class_rbd_device.html#a54fd10b47f6c13d1ff985792799763f0" target="_top" xlink:title=" ">
<polygon fill="white" stroke="#666666" points="241.25,-39 137.5,-39 137.5,-7 241.25,-7 241.25,-39"/>
<text text-anchor="start" x="145.5" y="-25.5" font-family="Helvetica,sans-Serif" font-size="10.00">RbdDevice::move_to</text>
<text text-anchor="middle" x="189.38" y="-13.5" font-family="Helvetica,sans-Serif" font-size="10.00">_start_angle</text>
</a>
</g>
</g>
<!-- Node1&#45;&gt;Node7 -->
<g id="edge6_Node000001_Node000007" class="edge">
<title>Node1&#45;&gt;Node7</title>
<g id="a_edge6_Node000001_Node000007"><a xlink:title=" ">
<path fill="none" stroke="#63b8ff" d="M101.85,-36.93C109.9,-35.64 118.31,-34.28 126.59,-32.95"/>
<polygon fill="#63b8ff" stroke="#63b8ff" points="127.05,-36.26 136.37,-31.21 125.94,-29.35 127.05,-36.26"/>
</a>
</g>
</g>
<!-- Node3 -->
<g id="Node000003" class="node">
<title>Node3</title>
<g id="a_Node000003"><a xlink:href="logger_8hpp.html#a49284b7befa8e31f81e01ee8f3735dd0" target="_top" xlink:title="Функция, которая снимает значение текущего времени и конвертирует его в строку с заданным шаблоном.">
<polygon fill="white" stroke="#666666" points="382.88,-134 294.12,-134 294.12,-114 382.88,-114 382.88,-134"/>
<text text-anchor="middle" x="338.5" y="-120.5" font-family="Helvetica,sans-Serif" font-size="10.00">get_current_time</text>
</a>
</g>
</g>
<!-- Node2&#45;&gt;Node3 -->
<g id="edge2_Node000002_Node000003" class="edge">
<title>Node2&#45;&gt;Node3</title>
<g id="a_edge2_Node000002_Node000003"><a xlink:title=" ">
<path fill="none" stroke="#63b8ff" d="M212.25,-77.34C229.65,-85.39 254.75,-96.56 277.25,-105 282.01,-106.78 287.01,-108.54 292.02,-110.23"/>
<polygon fill="#63b8ff" stroke="#63b8ff" points="290.65,-113.79 301.24,-113.58 292.82,-107.14 290.65,-113.79"/>
</a>
</g>
</g>
<!-- Node4 -->
<g id="Node000004" class="node">
<title>Node4</title>
<g id="a_Node000004"><a xlink:href="class_logger.html#a6edb7b263f080d417b82a537ed50fee4" target="_top" xlink:title="Функция, возвращающая тег в зависимости от уровня логирования и от назначения тега.">
<polygon fill="white" stroke="#666666" points="380.25,-96 296.75,-96 296.75,-76 380.25,-76 380.25,-96"/>
<text text-anchor="middle" x="338.5" y="-82.5" font-family="Helvetica,sans-Serif" font-size="10.00">Logger::get_tag</text>
</a>
</g>
</g>
<!-- Node2&#45;&gt;Node4 -->
<g id="edge3_Node000002_Node000004" class="edge">
<title>Node2&#45;&gt;Node4</title>
<g id="a_edge3_Node000002_Node000004"><a xlink:title=" ">
<path fill="none" stroke="#63b8ff" d="M221.58,-71.03C240.11,-73.42 264.08,-76.52 285.41,-79.27"/>
<polygon fill="#63b8ff" stroke="#63b8ff" points="284.92,-82.87 295.29,-80.68 285.82,-75.93 284.92,-82.87"/>
</a>
</g>
</g>
<!-- Node5 -->
<g id="Node000005" class="node">
<title>Node5</title>
<g id="a_Node000005"><a xlink:href="class_logger.html#a4825613142ebb093bf8fa26f21f7f3fc" target="_top" xlink:title="Функция, которая выводит сообщение в консоль.">
<polygon fill="white" stroke="#666666" points="399.75,-58 277.25,-58 277.25,-38 399.75,-38 399.75,-58"/>
<text text-anchor="middle" x="338.5" y="-44.5" font-family="Helvetica,sans-Serif" font-size="10.00">Logger::print_to_console</text>
</a>
</g>
</g>
<!-- Node2&#45;&gt;Node5 -->
<g id="edge4_Node000002_Node000005" class="edge">
<title>Node2&#45;&gt;Node5</title>
<g id="a_edge4_Node000002_Node000005"><a xlink:title=" ">
<path fill="none" stroke="#63b8ff" d="M221.58,-62.97C234.67,-61.28 250.47,-59.24 266.14,-57.22"/>
<polygon fill="#63b8ff" stroke="#63b8ff" points="266.47,-60.57 275.94,-55.82 265.57,-53.63 266.47,-60.57"/>
</a>
</g>
</g>
<!-- Node6 -->
<g id="Node000006" class="node">
<title>Node6</title>
<g id="a_Node000006"><a xlink:href="class_logger.html#a999bb33f7cf079cb98f32fae6016a2f3" target="_top" xlink:title="Функция, которая записывает сообщение в файл.">
<polygon fill="white" stroke="#666666" points="388.88,-20 288.12,-20 288.12,0 388.88,0 388.88,-20"/>
<text text-anchor="middle" x="338.5" y="-6.5" font-family="Helvetica,sans-Serif" font-size="10.00">Logger::print_to_file</text>
</a>
</g>
</g>
<!-- Node2&#45;&gt;Node6 -->
<g id="edge5_Node000002_Node000006" class="edge">
<title>Node2&#45;&gt;Node6</title>
<g id="a_edge5_Node000002_Node000006"><a xlink:title=" ">
<path fill="none" stroke="#63b8ff" d="M220.23,-56.58C227.2,-53.95 234.54,-51.01 241.25,-48 257.76,-40.6 260.56,-35.97 277.25,-29 281.58,-27.19 286.15,-25.46 290.75,-23.82"/>
<polygon fill="#63b8ff" stroke="#63b8ff" points="291.45,-26.94 299.8,-20.41 289.2,-20.31 291.45,-26.94"/>
</a>
</g>
</g>
</g>
</svg>
