<?xml version="1.0" encoding="UTF-8" standalone="no"?>
<!DOCTYPE svg PUBLIC "-//W3C//DTD SVG 1.1//EN"
 "http://www.w3.org/Graphics/SVG/1.1/DTD/svg11.dtd">
<!-- Generated by graphviz version 8.0.5 (20230430.1635)
 -->
<!-- Title: KeysightM9807A::rf_off Pages: 1 -->
<!--zoomable 251 -->

<svg id="main" version="1.1" xmlns="http://www.w3.org/2000/svg" xmlns:xlink="http://www.w3.org/1999/xlink" xml:space="preserve" onload="init(evt)">
<style type="text/css"><![CDATA[
.node, .edge {opacity: 0.7;}
.node.selected, .edge.selected {opacity: 1;}
.edge:hover path { stroke: red; }
.edge:hover polygon { stroke: red; fill: red; }
]]></style>

<defs>
  <circle id="rim" cx="0" cy="0" r="7"/>
  <circle id="rim2" cx="0" cy="0" r="3.5"/>
  <g id="zoomPlus">
    <use xlink:href="#rim" fill="#404040"><set attributeName="fill" to="#808080" begin="zoomplus.mouseover" end="zoomplus.mouseout"/></use>
    <path d="M-4,0h8M0,-4v8" fill="none" stroke="white" stroke-width="1.5" pointer-events="none"/>
  </g>
  <g id="zoomMin">
    <use xlink:href="#rim" fill="#404040"><set attributeName="fill" to="#808080" begin="zoomminus.mouseover" end="zoomminus.mouseout"/></use>
    <path d="M-4,0h8" fill="none" stroke="white" stroke-width="1.5" pointer-events="none"/>
  </g>
  <g id="arrowUp" transform="translate(30 24)">
    <use xlink:href="#rim"/>
    <path pointer-events="none" fill="none" stroke="white" stroke-width="1.5" d="M0,-3.0v7 M-2.5,-0.5L0,-3.0L2.5,-0.5"/>
  </g>
  <g id="arrowRight" transform="rotate(90) translate(36 -43)">
    <use xlink:href="#rim"/>
    <path pointer-events="none" fill="none" stroke="white" stroke-width="1.5" d="M0,-3.0v7 M-2.5,-0.5L0,-3.0L2.5,-0.5"/>
  </g>
  <g id="arrowDown" transform="rotate(180) translate(-30 -48)">
    <use xlink:href="#rim"/>
    <path pointer-events="none" fill="none" stroke="white" stroke-width="1.5" d="M0,-3.0v7 M-2.5,-0.5L0,-3.0L2.5,-0.5"/>
  </g>
  <g id="arrowLeft" transform="rotate(270) translate(-36 17)">
    <use xlink:href="#rim"/>
    <path pointer-events="none" fill="none" stroke="white" stroke-width="1.5" d="M0,-3.0v7 M-2.5,-0.5L0,-3.0L2.5,-0.5"/>
  </g>
  <g id="resetDef">
    <use xlink:href="#rim2" fill="#404040"><set attributeName="fill" to="#808080" begin="reset.mouseover" end="reset.mouseout"/></use>
  </g>
</defs>
<script type="application/ecmascript">
var viewWidth = 1205;
var viewHeight = 251;
var sectionId = 'dynsection-11';
</script>
<script type="application/ecmascript" xlink:href="svg.min.js"/>
<svg id="graph" class="graph">
<g id="viewport">
<title>KeysightM9807A::rf_off</title>
<!-- Node1 -->
<g id="Node000001" class="node">
<title>Node1</title>
<g id="a_Node000001"><a xlink:title=" ">
<polygon fill="#999999" stroke="#666666" points="116.5,-195.79 0,-195.79 0,-175.79 116.5,-175.79 116.5,-195.79"/>
<text text-anchor="middle" x="58.25" y="-182.29" font-family="Helvetica,sans-Serif" font-size="10.00">KeysightM9807A::rf_off</text>
</a>
</g>
</g>
<!-- Node2 -->
<g id="Node000002" class="node">
<title>Node2</title>
<g id="a_Node000002"><a xlink:href="class_visa_device.html#a069e154c5f48779dfd908146db9e66ed" target="_top" xlink:title=" ">
<polygon fill="white" stroke="#666666" points="282.5,-195.79 152.5,-195.79 152.5,-175.79 282.5,-175.79 282.5,-195.79"/>
<text text-anchor="middle" x="217.5" y="-182.29" font-family="Helvetica,sans-Serif" font-size="10.00">VisaDevice::send_wait_err</text>
</a>
</g>
</g>
<!-- Node1&#45;&gt;Node2 -->
<g id="edge1_Node000001_Node000002" class="edge">
<title>Node1&#45;&gt;Node2</title>
<g id="a_edge1_Node000001_Node000002"><a xlink:title=" ">
<path fill="none" stroke="#63b8ff" d="M116.91,-185.79C124.9,-185.79 133.19,-185.79 141.43,-185.79"/>
<polygon fill="#63b8ff" stroke="#63b8ff" points="141.21,-189.29 151.21,-185.79 141.21,-182.29 141.21,-189.29"/>
</a>
</g>
</g>
<!-- Node3 -->
<g id="Node000003" class="node">
<title>Node3</title>
<g id="a_Node000003"><a xlink:href="class_visa_device.html#aba4642c194cffe2135a133e23960ab63" target="_top" xlink:title=" ">
<polygon fill="white" stroke="#666666" points="677.38,-195.79 596.12,-195.79 596.12,-175.79 677.38,-175.79 677.38,-195.79"/>
<text text-anchor="middle" x="636.75" y="-182.29" font-family="Helvetica,sans-Serif" font-size="10.00">VisaDevice::err</text>
</a>
</g>
</g>
<!-- Node2&#45;&gt;Node3 -->
<g id="edge2_Node000002_Node000003" class="edge">
<title>Node2&#45;&gt;Node3</title>
<g id="a_edge2_Node000002_Node000003"><a xlink:title=" ">
<path fill="none" stroke="#63b8ff" d="M282.78,-185.79C365.9,-185.79 508.99,-185.79 584.94,-185.79"/>
<polygon fill="#63b8ff" stroke="#63b8ff" points="584.64,-189.29 594.64,-185.79 584.64,-182.29 584.64,-189.29"/>
</a>
</g>
</g>
<!-- Node4 -->
<g id="Node000004" class="node">
<title>Node4</title>
<g id="a_Node000004"><a xlink:href="class_logger.html#af7709105c2708359b7b082218f4cc3e1" target="_top" xlink:title="Функция, осуществляющая логирование">
<polygon fill="white" stroke="#666666" points="1038.5,-100.79 974.5,-100.79 974.5,-80.79 1038.5,-80.79 1038.5,-100.79"/>
<text text-anchor="middle" x="1006.5" y="-87.29" font-family="Helvetica,sans-Serif" font-size="10.00">Logger::log</text>
</a>
</g>
</g>
<!-- Node2&#45;&gt;Node4 -->
<g id="edge13_Node000002_Node000004" class="edge">
<title>Node2&#45;&gt;Node4</title>
<g id="a_edge13_Node000002_Node000004"><a xlink:title=" ">
<path fill="none" stroke="#63b8ff" d="M250.52,-196.25C303.85,-212.7 414.51,-242.79 510.62,-242.79 510.62,-242.79 510.62,-242.79 766.25,-242.79 848.56,-242.79 872.32,-223.73 938.5,-174.79 962.16,-157.29 982.11,-129.46 993.93,-110.67"/>
<polygon fill="#63b8ff" stroke="#63b8ff" points="997.43,-112.65 999.63,-102.29 991.45,-109.02 997.43,-112.65"/>
</a>
</g>
</g>
<!-- Node12 -->
<g id="Node000012" class="node">
<title>Node12</title>
<g id="a_Node000012"><a xlink:href="class_visa_device.html#a3744ee1e929d6c05b522693c344c76b3" target="_top" xlink:title=" ">
<polygon fill="white" stroke="#666666" points="432,-119.79 318.5,-119.79 318.5,-99.79 432,-99.79 432,-119.79"/>
<text text-anchor="middle" x="375.25" y="-106.29" font-family="Helvetica,sans-Serif" font-size="10.00">VisaDevice::send_wait</text>
</a>
</g>
</g>
<!-- Node2&#45;&gt;Node12 -->
<g id="edge14_Node000002_Node000012" class="edge">
<title>Node2&#45;&gt;Node12</title>
<g id="a_edge14_Node000002_Node000012"><a xlink:title=" ">
<path fill="none" stroke="#63b8ff" d="M239.83,-175.39C266.63,-162.31 312.8,-139.78 343.44,-124.83"/>
<polygon fill="#63b8ff" stroke="#63b8ff" points="344.73,-127.61 352.18,-120.08 341.66,-121.32 344.73,-127.61"/>
</a>
</g>
</g>
<!-- Node3&#45;&gt;Node4 -->
<g id="edge3_Node000003_Node000004" class="edge">
<title>Node3&#45;&gt;Node4</title>
<g id="a_edge3_Node000003_Node000004"><a xlink:title=" ">
<path fill="none" stroke="#63b8ff" d="M677.62,-187.82C737.09,-189.32 851.35,-186.24 938.5,-147.79 958.44,-139 976.98,-122.29 989.47,-109.23"/>
<polygon fill="#63b8ff" stroke="#63b8ff" points="991.58,-112.02 995.76,-102.29 986.42,-107.29 991.58,-112.02"/>
</a>
</g>
</g>
<!-- Node9 -->
<g id="Node000009" class="node">
<title>Node9</title>
<g id="a_Node000009"><a xlink:href="class_visa_device.html#aa807192fd9a8c3e6efc458f78de5e73e" target="_top" xlink:title=" ">
<polygon fill="white" stroke="#666666" points="812.25,-138.79 718.25,-138.79 718.25,-118.79 812.25,-118.79 812.25,-138.79"/>
<text text-anchor="middle" x="765.25" y="-125.29" font-family="Helvetica,sans-Serif" font-size="10.00">VisaDevice::query</text>
</a>
</g>
</g>
<!-- Node3&#45;&gt;Node9 -->
<g id="edge8_Node000003_Node000009" class="edge">
<title>Node3&#45;&gt;Node9</title>
<g id="a_edge8_Node000003_Node000009"><a xlink:title=" ">
<path fill="none" stroke="#63b8ff" d="M660.95,-175.34C680.66,-166.46 709.17,-153.61 731.25,-143.66"/>
<polygon fill="#63b8ff" stroke="#63b8ff" points="732.52,-146.48 740.2,-139.18 729.64,-140.1 732.52,-146.48"/>
</a>
</g>
</g>
<!-- Node5 -->
<g id="Node000005" class="node">
<title>Node5</title>
<g id="a_Node000005"><a xlink:href="logger_8hpp.html#a49284b7befa8e31f81e01ee8f3735dd0" target="_top" xlink:title="Функция, которая снимает значение текущего времени и конвертирует его в строку с заданным шаблоном.">
<polygon fill="white" stroke="#666666" points="1180.12,-157.79 1091.38,-157.79 1091.38,-137.79 1180.12,-137.79 1180.12,-157.79"/>
<text text-anchor="middle" x="1135.75" y="-144.29" font-family="Helvetica,sans-Serif" font-size="10.00">get_current_time</text>
</a>
</g>
</g>
<!-- Node4&#45;&gt;Node5 -->
<g id="edge4_Node000004_Node000005" class="edge">
<title>Node4&#45;&gt;Node5</title>
<g id="a_edge4_Node000004_Node000005"><a xlink:title=" ">
<path fill="none" stroke="#63b8ff" d="M1023.52,-101.16C1036.8,-109.43 1056.35,-120.89 1074.5,-128.79 1078.57,-130.57 1082.86,-132.26 1087.2,-133.84"/>
<polygon fill="#63b8ff" stroke="#63b8ff" points="1085.74,-137.38 1096.34,-137.34 1088.03,-130.77 1085.74,-137.38"/>
</a>
</g>
</g>
<!-- Node6 -->
<g id="Node000006" class="node">
<title>Node6</title>
<g id="a_Node000006"><a xlink:href="class_logger.html#a6edb7b263f080d417b82a537ed50fee4" target="_top" xlink:title="Функция, возвращающая тег в зависимости от уровня логирования и от назначения тега.">
<polygon fill="white" stroke="#666666" points="1177.5,-119.79 1094,-119.79 1094,-99.79 1177.5,-99.79 1177.5,-119.79"/>
<text text-anchor="middle" x="1135.75" y="-106.29" font-family="Helvetica,sans-Serif" font-size="10.00">Logger::get_tag</text>
</a>
</g>
</g>
<!-- Node4&#45;&gt;Node6 -->
<g id="edge5_Node000004_Node000006" class="edge">
<title>Node4&#45;&gt;Node6</title>
<g id="a_edge5_Node000004_Node000006"><a xlink:title=" ">
<path fill="none" stroke="#63b8ff" d="M1038.96,-95.49C1052.22,-97.47 1068.02,-99.83 1082.92,-102.06"/>
<polygon fill="#63b8ff" stroke="#63b8ff" points="1082.16,-105.63 1092.57,-103.65 1083.19,-98.71 1082.16,-105.63"/>
</a>
</g>
</g>
<!-- Node7 -->
<g id="Node000007" class="node">
<title>Node7</title>
<g id="a_Node000007"><a xlink:href="class_logger.html#a4825613142ebb093bf8fa26f21f7f3fc" target="_top" xlink:title="Функция, которая выводит сообщение в консоль.">
<polygon fill="white" stroke="#666666" points="1197,-81.79 1074.5,-81.79 1074.5,-61.79 1197,-61.79 1197,-81.79"/>
<text text-anchor="middle" x="1135.75" y="-68.29" font-family="Helvetica,sans-Serif" font-size="10.00">Logger::print_to_console</text>
</a>
</g>
</g>
<!-- Node4&#45;&gt;Node7 -->
<g id="edge6_Node000004_Node000007" class="edge">
<title>Node4&#45;&gt;Node7</title>
<g id="a_edge6_Node000004_Node000007"><a xlink:title=" ">
<path fill="none" stroke="#63b8ff" d="M1038.96,-86.1C1046.46,-84.98 1054.77,-83.74 1063.28,-82.47"/>
<polygon fill="#63b8ff" stroke="#63b8ff" points="1063.73,-85.79 1073.1,-80.85 1062.69,-78.87 1063.73,-85.79"/>
</a>
</g>
</g>
<!-- Node8 -->
<g id="Node000008" class="node">
<title>Node8</title>
<g id="a_Node000008"><a xlink:href="class_logger.html#a999bb33f7cf079cb98f32fae6016a2f3" target="_top" xlink:title="Функция, которая записывает сообщение в файл.">
<polygon fill="white" stroke="#666666" points="1186.12,-43.79 1085.38,-43.79 1085.38,-23.79 1186.12,-23.79 1186.12,-43.79"/>
<text text-anchor="middle" x="1135.75" y="-30.29" font-family="Helvetica,sans-Serif" font-size="10.00">Logger::print_to_file</text>
</a>
</g>
</g>
<!-- Node4&#45;&gt;Node8 -->
<g id="edge7_Node000004_Node000008" class="edge">
<title>Node4&#45;&gt;Node8</title>
<g id="a_edge7_Node000004_Node000008"><a xlink:title=" ">
<path fill="none" stroke="#63b8ff" d="M1023.52,-80.43C1036.8,-72.16 1056.35,-60.7 1074.5,-52.79 1078.57,-51.02 1082.86,-49.33 1087.2,-47.75"/>
<polygon fill="#63b8ff" stroke="#63b8ff" points="1088.03,-50.82 1096.34,-44.24 1085.74,-44.2 1088.03,-50.82"/>
</a>
</g>
</g>
<!-- Node10 -->
<g id="Node000010" class="node">
<title>Node10</title>
<g id="a_Node000010"><a xlink:href="class_visa_device.html#aca08d9dbb0469f1143668a485e4adfe2" target="_top" xlink:title=" ">
<polygon fill="white" stroke="#666666" points="937.75,-138.79 849,-138.79 849,-118.79 937.75,-118.79 937.75,-138.79"/>
<text text-anchor="middle" x="893.38" y="-125.29" font-family="Helvetica,sans-Serif" font-size="10.00">VisaDevice::read</text>
</a>
</g>
</g>
<!-- Node9&#45;&gt;Node10 -->
<g id="edge9_Node000009_Node000010" class="edge">
<title>Node9&#45;&gt;Node10</title>
<g id="a_edge9_Node000009_Node000010"><a xlink:title=" ">
<path fill="none" stroke="#63b8ff" d="M812.5,-128.79C820.71,-128.79 829.33,-128.79 837.75,-128.79"/>
<polygon fill="#63b8ff" stroke="#63b8ff" points="837.65,-132.29 847.65,-128.79 837.65,-125.29 837.65,-132.29"/>
</a>
</g>
</g>
<!-- Node11 -->
<g id="Node000011" class="node">
<title>Node11</title>
<g id="a_Node000011"><a xlink:href="class_visa_device.html#a29202c3f5e47326386d1d27972e25267" target="_top" xlink:title=" ">
<polygon fill="white" stroke="#666666" points="938.5,-100.79 848.25,-100.79 848.25,-80.79 938.5,-80.79 938.5,-100.79"/>
<text text-anchor="middle" x="893.38" y="-87.29" font-family="Helvetica,sans-Serif" font-size="10.00">VisaDevice::write</text>
</a>
</g>
</g>
<!-- Node9&#45;&gt;Node11 -->
<g id="edge11_Node000009_Node000011" class="edge">
<title>Node9&#45;&gt;Node11</title>
<g id="a_edge11_Node000009_Node000011"><a xlink:title=" ">
<path fill="none" stroke="#63b8ff" d="M801.05,-118.31C815.38,-113.99 832.18,-108.93 847.43,-104.34"/>
<polygon fill="#63b8ff" stroke="#63b8ff" points="848.13,-107.48 856.69,-101.24 846.11,-100.78 848.13,-107.48"/>
</a>
</g>
</g>
<!-- Node10&#45;&gt;Node4 -->
<g id="edge10_Node000010_Node000004" class="edge">
<title>Node10&#45;&gt;Node4</title>
<g id="a_edge10_Node000010_Node000004"><a xlink:title=" ">
<path fill="none" stroke="#63b8ff" d="M925.03,-118.31C937.3,-114.12 951.61,-109.22 964.73,-104.73"/>
<polygon fill="#63b8ff" stroke="#63b8ff" points="965.61,-107.79 973.94,-101.24 963.35,-101.17 965.61,-107.79"/>
</a>
</g>
</g>
<!-- Node11&#45;&gt;Node4 -->
<g id="edge12_Node000011_Node000004" class="edge">
<title>Node11&#45;&gt;Node4</title>
<g id="a_edge12_Node000011_Node000004"><a xlink:title=" ">
<path fill="none" stroke="#63b8ff" d="M938.93,-90.79C946.98,-90.79 955.34,-90.79 963.32,-90.79"/>
<polygon fill="#63b8ff" stroke="#63b8ff" points="963.25,-94.29 973.25,-90.79 963.25,-87.29 963.25,-94.29"/>
</a>
</g>
</g>
<!-- Node13 -->
<g id="Node000013" class="node">
<title>Node13</title>
<g id="a_Node000013"><a xlink:href="class_visa_device.html#ad659ba652605f5c983958400fde8c808" target="_top" xlink:title=" ">
<polygon fill="white" stroke="#666666" points="682.25,-119.79 591.25,-119.79 591.25,-99.79 682.25,-99.79 682.25,-119.79"/>
<text text-anchor="middle" x="636.75" y="-106.29" font-family="Helvetica,sans-Serif" font-size="10.00">VisaDevice::send</text>
</a>
</g>
</g>
<!-- Node12&#45;&gt;Node13 -->
<g id="edge15_Node000012_Node000013" class="edge">
<title>Node12&#45;&gt;Node13</title>
<g id="a_edge15_Node000012_Node000013"><a xlink:title=" ">
<path fill="none" stroke="#63b8ff" d="M432.24,-109.79C475.96,-109.79 536.42,-109.79 580.07,-109.79"/>
<polygon fill="#63b8ff" stroke="#63b8ff" points="580.06,-113.29 590.06,-109.79 580.06,-106.29 580.06,-113.29"/>
</a>
</g>
</g>
<!-- Node14 -->
<g id="Node000014" class="node">
<title>Node14</title>
<g id="a_Node000014"><a xlink:href="class_visa_device.html#ab1f5c0b110fca770dbd5be069453ea82" target="_top" xlink:title=" ">
<polygon fill="white" stroke="#666666" points="555.25,-43.79 468,-43.79 468,-23.79 555.25,-23.79 555.25,-43.79"/>
<text text-anchor="middle" x="511.62" y="-30.29" font-family="Helvetica,sans-Serif" font-size="10.00">VisaDevice::wait</text>
</a>
</g>
</g>
<!-- Node12&#45;&gt;Node14 -->
<g id="edge20_Node000012_Node000014" class="edge">
<title>Node12&#45;&gt;Node14</title>
<g id="a_edge20_Node000012_Node000014"><a xlink:title=" ">
<path fill="none" stroke="#63b8ff" d="M394.65,-99.39C417.47,-86.48 456.57,-64.36 483,-49.42"/>
<polygon fill="#63b8ff" stroke="#63b8ff" points="484.46,-52.05 491.44,-44.08 481.02,-45.95 484.46,-52.05"/>
</a>
</g>
</g>
<!-- Node13&#45;&gt;Node4 -->
<g id="edge16_Node000013_Node000004" class="edge">
<title>Node13&#45;&gt;Node4</title>
<g id="a_edge16_Node000013_Node000004"><a xlink:title=" ">
<path fill="none" stroke="#63b8ff" d="M672.98,-99.3C729.18,-83.92 842.59,-58.46 938.5,-71.79 947.27,-73.01 956.5,-75.09 965.22,-77.43"/>
<polygon fill="#63b8ff" stroke="#63b8ff" points="963.95,-81 974.53,-80.38 965.88,-74.27 963.95,-81"/>
</a>
</g>
</g>
<!-- Node13&#45;&gt;Node9 -->
<g id="edge17_Node000013_Node000009" class="edge">
<title>Node13&#45;&gt;Node9</title>
<g id="a_edge17_Node000013_Node000009"><a xlink:title=" ">
<path fill="none" stroke="#63b8ff" d="M682.71,-116.55C690.7,-117.75 699.13,-119.01 707.41,-120.26"/>
<polygon fill="#63b8ff" stroke="#63b8ff" points="706.75,-123.85 717.16,-121.87 707.79,-116.93 706.75,-123.85"/>
</a>
</g>
</g>
<!-- Node13&#45;&gt;Node10 -->
<g id="edge18_Node000013_Node000010" class="edge">
<title>Node13&#45;&gt;Node10</title>
<g id="a_edge18_Node000013_Node000010"><a xlink:title=" ">
<path fill="none" stroke="#63b8ff" d="M654.23,-120.25C669.98,-129.56 694.72,-142.52 718.25,-147.79 761.41,-157.47 811.74,-150.02 847.15,-141.78"/>
<polygon fill="#63b8ff" stroke="#63b8ff" points="847.76,-144.99 856.64,-139.21 846.1,-138.19 847.76,-144.99"/>
</a>
</g>
</g>
<!-- Node13&#45;&gt;Node11 -->
<g id="edge19_Node000013_Node000011" class="edge">
<title>Node13&#45;&gt;Node11</title>
<g id="a_edge19_Node000013_Node000011"><a xlink:title=" ">
<path fill="none" stroke="#63b8ff" d="M682.69,-106.44C725.77,-103.23 790.92,-98.36 837.16,-94.91"/>
<polygon fill="#63b8ff" stroke="#63b8ff" points="837.18,-98.35 846.89,-94.11 836.66,-91.37 837.18,-98.35"/>
</a>
</g>
</g>
<!-- Node14&#45;&gt;Node4 -->
<g id="edge21_Node000014_Node000004" class="edge">
<title>Node14&#45;&gt;Node4</title>
<g id="a_edge21_Node000014_Node000004"><a xlink:title=" ">
<path fill="none" stroke="#63b8ff" d="M547.92,-23.38C561.35,-19.92 576.89,-16.51 591.25,-14.79 745,3.52 793.88,12.51 938.5,-42.79 956.53,-49.69 974.16,-62.64 986.8,-73.36"/>
<polygon fill="#63b8ff" stroke="#63b8ff" points="983.89,-75.33 993.71,-79.31 988.51,-70.08 983.89,-75.33"/>
</a>
</g>
</g>
<!-- Node15 -->
<g id="Node000015" class="node">
<title>Node15</title>
<g id="a_Node000015"><a xlink:href="class_visa_device.html#a70a6c6ace7c5841db420c1e112782a53" target="_top" xlink:title=" ">
<polygon fill="white" stroke="#666666" points="679.62,-43.79 593.88,-43.79 593.88,-23.79 679.62,-23.79 679.62,-43.79"/>
<text text-anchor="middle" x="636.75" y="-30.29" font-family="Helvetica,sans-Serif" font-size="10.00">VisaDevice::opc</text>
</a>
</g>
</g>
<!-- Node14&#45;&gt;Node15 -->
<g id="edge22_Node000014_Node000015" class="edge">
<title>Node14&#45;&gt;Node15</title>
<g id="a_edge22_Node000014_Node000015"><a xlink:title=" ">
<path fill="none" stroke="#63b8ff" d="M555.69,-33.79C564.46,-33.79 573.79,-33.79 582.86,-33.79"/>
<polygon fill="#63b8ff" stroke="#63b8ff" points="582.75,-37.29 592.75,-33.79 582.75,-30.29 582.75,-37.29"/>
</a>
</g>
</g>
<!-- Node15&#45;&gt;Node4 -->
<g id="edge23_Node000015_Node000004" class="edge">
<title>Node15&#45;&gt;Node4</title>
<g id="a_edge23_Node000015_Node000004"><a xlink:title=" ">
<path fill="none" stroke="#63b8ff" d="M679.73,-34.25C738.45,-35.73 848.06,-41.54 938.5,-63.79 950.4,-66.72 962.99,-71.35 973.99,-75.96"/>
<polygon fill="#63b8ff" stroke="#63b8ff" points="972.43,-79.53 982.99,-80.31 975.22,-73.11 972.43,-79.53"/>
</a>
</g>
</g>
<!-- Node15&#45;&gt;Node9 -->
<g id="edge24_Node000015_Node000009" class="edge">
<title>Node15&#45;&gt;Node9</title>
<g id="a_edge24_Node000015_Node000009"><a xlink:title=" ">
<path fill="none" stroke="#63b8ff" d="M651.29,-43.96C672.95,-60.23 715.64,-92.29 741.89,-112"/>
<polygon fill="#63b8ff" stroke="#63b8ff" points="739.33,-115.21 749.43,-118.41 743.53,-109.61 739.33,-115.21"/>
</a>
</g>
</g>
</g>
</svg>

<g id="navigator" transform="translate(0 0)" fill="#404254">
  <rect fill="#f2f5e9" fill-opacity="0.5" stroke="#606060" stroke-width=".5" x="0" y="0" width="60" height="60"/>
  <use id="zoomplus" xlink:href="#zoomPlus" x="17" y="9" onmousedown="handleZoom(evt,'in')"/>
  <use id="zoomminus" xlink:href="#zoomMin" x="42" y="9" onmousedown="handleZoom(evt,'out')"/>
  <use id="reset" xlink:href="#resetDef" x="30" y="36" onmousedown="handleReset()"/>
   <use id="arrowup" xlink:href="#arrowUp" x="0" y="0" onmousedown="handlePan(0,-1)"/>
  <use id="arrowright" xlink:href="#arrowRight" x="0" y="0" onmousedown="handlePan(1,0)"/>
  <use id="arrowdown" xlink:href="#arrowDown" x="0" y="0" onmousedown="handlePan(0,1)"/>
  <use id="arrowleft" xlink:href="#arrowLeft" x="0" y="0" onmousedown="handlePan(-1,0)"/>
</g>
<svg viewBox="0 0 15 15" width="100%" height="30px" preserveAspectRatio="xMaxYMin meet">
 <g id="arrow_out" transform="scale(0.3 0.3)">
  <a xlink:href="class_keysight_m9807_a_ad4dc40466fecabae451e88d763692076_cgraph_org.svg" target="_base">
   <rect id="button" ry="5" rx="5" y="6" x="6" height="38" width="38"
        fill="#f2f5e9" fill-opacity="0.5" stroke="#606060" stroke-width="1.0"/>
   <path id="arrow"
     d="M 11.500037,31.436501 C 11.940474,20.09759 22.043105,11.32322 32.158766,21.979434 L 37.068811,17.246167 C 37.068811,17.246167 37.088388,32 37.088388,32 L 22.160133,31.978069 C 22.160133,31.978069 26.997745,27.140456 26.997745,27.140456 C 18.528582,18.264221 13.291696,25.230495 11.500037,31.436501 z"
     style="fill:#404040;"/>
  </a>
 </g>
</svg>

<style type='text/css'>
<![CDATA[
[data-mouse-over-selected='false'] { opacity: 0.7; }
[data-mouse-over-selected='true']  { opacity: 1.0; }
]]>
</style>
<script type="application/ecmascript"><![CDATA[
document.addEventListener('DOMContentLoaded', (event) => {
  highlightEdges();
  highlightAdjacentNodes();
});
]]></script>
</svg>
