<?xml version="1.0" encoding="UTF-8" standalone="no"?>
<!DOCTYPE svg PUBLIC "-//W3C//DTD SVG 1.1//EN"
 "http://www.w3.org/Graphics/SVG/1.1/DTD/svg11.dtd">
<!-- Generated by graphviz version 8.0.5 (20230430.1635)
 -->
<!-- Title: TesartRbd::stop Pages: 1 -->
<svg width="498pt" height="28pt"
 viewBox="0.00 0.00 498.00 28.00" xmlns="http://www.w3.org/2000/svg" xmlns:xlink="http://www.w3.org/1999/xlink">
<g id="graph0" class="graph" transform="scale(1 1) rotate(0) translate(4 24)">
<title>TesartRbd::stop</title>
<!-- Node1 -->
<g id="Node000001" class="node">
<title>Node1</title>
<g id="a_Node000001"><a xlink:title=" ">
<polygon fill="#999999" stroke="#666666" points="85,-20 0,-20 0,0 85,0 85,-20"/>
<text text-anchor="middle" x="42.5" y="-6.5" font-family="Helvetica,sans-Serif" font-size="10.00">TesartRbd::stop</text>
</a>
</g>
</g>
<!-- Node2 -->
<g id="Node000002" class="node">
<title>Node2</title>
<g id="a_Node000002"><a xlink:href="class_tesart_rbd.html#a9a7da6f896259d62e9f1b1850371fa5e" target="_top" xlink:title=" ">
<polygon fill="white" stroke="#666666" points="234.5,-20 121,-20 121,0 234.5,0 234.5,-20"/>
<text text-anchor="middle" x="177.75" y="-6.5" font-family="Helvetica,sans-Serif" font-size="10.00">TesartRbd::is_stopped</text>
</a>
</g>
</g>
<!-- Node1&#45;&gt;Node2 -->
<g id="edge1_Node000001_Node000002" class="edge">
<title>Node1&#45;&gt;Node2</title>
<g id="a_edge1_Node000001_Node000002"><a xlink:title=" ">
<path fill="none" stroke="#63b8ff" d="M85.3,-10C93.15,-10 101.54,-10 109.94,-10"/>
<polygon fill="#63b8ff" stroke="#63b8ff" points="109.93,-13.5 119.93,-10 109.93,-6.5 109.93,-13.5"/>
</a>
</g>
</g>
<!-- Node3 -->
<g id="Node000003" class="node">
<title>Node3</title>
<g id="a_Node000003"><a xlink:href="class_tesart_rbd.html#a650fde87d6af5531ac225689e1f912f1" target="_top" xlink:title=" ">
<polygon fill="white" stroke="#666666" points="363.75,-20 270.5,-20 270.5,0 363.75,0 363.75,-20"/>
<text text-anchor="middle" x="317.12" y="-6.5" font-family="Helvetica,sans-Serif" font-size="10.00">TesartRbd::status</text>
</a>
</g>
</g>
<!-- Node2&#45;&gt;Node3 -->
<g id="edge2_Node000002_Node000003" class="edge">
<title>Node2&#45;&gt;Node3</title>
<g id="a_edge2_Node000002_Node000003"><a xlink:title=" ">
<path fill="none" stroke="#63b8ff" d="M234.63,-10C242.8,-10 251.22,-10 259.41,-10"/>
<polygon fill="#63b8ff" stroke="#63b8ff" points="259.38,-13.5 269.38,-10 259.38,-6.5 259.38,-13.5"/>
</a>
</g>
</g>
<!-- Node4 -->
<g id="Node000004" class="node">
<title>Node4</title>
<g id="a_Node000004"><a xlink:href="namespacestring__utils.html#a9fe07494ccc7914840b0d615974bc802" target="_top" xlink:title="Делит строку на две части по требуемому символу и возвращает содержимое правой части">
<polygon fill="white" stroke="#666666" points="490,-20 399.75,-20 399.75,0 490,0 490,-20"/>
<text text-anchor="middle" x="444.88" y="-6.5" font-family="Helvetica,sans-Serif" font-size="10.00">string_utils::lstrip</text>
</a>
</g>
</g>
<!-- Node3&#45;&gt;Node4 -->
<g id="edge3_Node000003_Node000004" class="edge">
<title>Node3&#45;&gt;Node4</title>
<g id="a_edge3_Node000003_Node000004"><a xlink:title=" ">
<path fill="none" stroke="#63b8ff" d="M364.24,-10C372.14,-10 380.42,-10 388.54,-10"/>
<polygon fill="#63b8ff" stroke="#63b8ff" points="388.45,-13.5 398.45,-10 388.45,-6.5 388.45,-13.5"/>
</a>
</g>
</g>
</g>
</svg>
