<?xml version="1.0" encoding="UTF-8" standalone="no"?>
<!DOCTYPE svg PUBLIC "-//W3C//DTD SVG 1.1//EN"
 "http://www.w3.org/Graphics/SVG/1.1/DTD/svg11.dtd">
<!-- Generated by graphviz version 8.0.5 (20230430.1635)
 -->
<!-- Title: GenDevice::move_to_start_freq Pages: 1 -->
<!--zoomable 90 -->

<svg id="main" version="1.1" xmlns="http://www.w3.org/2000/svg" xmlns:xlink="http://www.w3.org/1999/xlink" xml:space="preserve" onload="init(evt)">
<style type="text/css"><![CDATA[
.node, .edge {opacity: 0.7;}
.node.selected, .edge.selected {opacity: 1;}
.edge:hover path { stroke: red; }
.edge:hover polygon { stroke: red; fill: red; }
]]></style>

<defs>
  <circle id="rim" cx="0" cy="0" r="7"/>
  <circle id="rim2" cx="0" cy="0" r="3.5"/>
  <g id="zoomPlus">
    <use xlink:href="#rim" fill="#404040"><set attributeName="fill" to="#808080" begin="zoomplus.mouseover" end="zoomplus.mouseout"/></use>
    <path d="M-4,0h8M0,-4v8" fill="none" stroke="white" stroke-width="1.5" pointer-events="none"/>
  </g>
  <g id="zoomMin">
    <use xlink:href="#rim" fill="#404040"><set attributeName="fill" to="#808080" begin="zoomminus.mouseover" end="zoomminus.mouseout"/></use>
    <path d="M-4,0h8" fill="none" stroke="white" stroke-width="1.5" pointer-events="none"/>
  </g>
  <g id="arrowUp" transform="translate(30 24)">
    <use xlink:href="#rim"/>
    <path pointer-events="none" fill="none" stroke="white" stroke-width="1.5" d="M0,-3.0v7 M-2.5,-0.5L0,-3.0L2.5,-0.5"/>
  </g>
  <g id="arrowRight" transform="rotate(90) translate(36 -43)">
    <use xlink:href="#rim"/>
    <path pointer-events="none" fill="none" stroke="white" stroke-width="1.5" d="M0,-3.0v7 M-2.5,-0.5L0,-3.0L2.5,-0.5"/>
  </g>
  <g id="arrowDown" transform="rotate(180) translate(-30 -48)">
    <use xlink:href="#rim"/>
    <path pointer-events="none" fill="none" stroke="white" stroke-width="1.5" d="M0,-3.0v7 M-2.5,-0.5L0,-3.0L2.5,-0.5"/>
  </g>
  <g id="arrowLeft" transform="rotate(270) translate(-36 17)">
    <use xlink:href="#rim"/>
    <path pointer-events="none" fill="none" stroke="white" stroke-width="1.5" d="M0,-3.0v7 M-2.5,-0.5L0,-3.0L2.5,-0.5"/>
  </g>
  <g id="resetDef">
    <use xlink:href="#rim2" fill="#404040"><set attributeName="fill" to="#808080" begin="reset.mouseover" end="reset.mouseout"/></use>
  </g>
</defs>
<script type="application/ecmascript">
var viewWidth = 917;
var viewHeight = 90;
var sectionId = 'dynsection-9';
</script>
<script type="application/ecmascript" xlink:href="svg.min.js"/>
<svg id="graph" class="graph">
<g id="viewport">
<title>GenDevice::move_to_start_freq</title>
<!-- Node1 -->
<g id="Node000001" class="node">
<title>Node1</title>
<g id="a_Node000001"><a xlink:title="Устанавливает частотную точку, соответствующую началу диапазона.">
<polygon fill="#999999" stroke="#666666" points="909.25,-57 804.75,-57 804.75,-25 909.25,-25 909.25,-57"/>
<text text-anchor="start" x="812.75" y="-43.5" font-family="Helvetica,sans-Serif" font-size="10.00">GenDevice::move_to</text>
<text text-anchor="middle" x="857" y="-31.5" font-family="Helvetica,sans-Serif" font-size="10.00">_start_freq</text>
</a>
</g>
</g>
<!-- Node2 -->
<g id="Node000002" class="node">
<title>Node2</title>
<g id="a_Node000002"><a xlink:href="class_device_set.html#a6b558cdb43f83e3948cd1154a15841ad" target="_top" xlink:title="Устанавливает частотную точку, соответствующую началу диапазона.">
<polygon fill="white" stroke="#666666" points="768.75,-57 667.25,-57 667.25,-25 768.75,-25 768.75,-57"/>
<text text-anchor="start" x="675.25" y="-43.5" font-family="Helvetica,sans-Serif" font-size="10.00">DeviceSet::move_to</text>
<text text-anchor="middle" x="718" y="-31.5" font-family="Helvetica,sans-Serif" font-size="10.00">_start_freq</text>
</a>
</g>
</g>
<!-- Node1&#45;&gt;Node2 -->
<g id="edge1_Node000001_Node000002" class="edge">
<title>Node1&#45;&gt;Node2</title>
<g id="a_edge1_Node000001_Node000002"><a xlink:title=" ">
<path fill="none" stroke="#63b8ff" d="M793.75,-41C785.42,-41 776.96,-41 768.87,-41"/>
<polygon fill="#63b8ff" stroke="#63b8ff" points="793.6,-44.5 803.6,-41 793.6,-37.5 793.6,-44.5"/>
</a>
</g>
</g>
<!-- Node3 -->
<g id="Node000003" class="node">
<title>Node3</title>
<g id="a_Node000003"><a xlink:href="class_task_manager.html#ad9d635ee64d44cc34b619f2e3018e9d1" target="_top" xlink:title="Метод, позволяющий произвести обработку списка заданий, с учётом вложенности">
<polygon fill="white" stroke="#666666" points="631.25,-82 516.25,-82 516.25,-50 631.25,-50 631.25,-82"/>
<text text-anchor="start" x="524.25" y="-68.5" font-family="Helvetica,sans-Serif" font-size="10.00">TaskManager::proceed</text>
<text text-anchor="middle" x="573.75" y="-56.5" font-family="Helvetica,sans-Serif" font-size="10.00">_nested_task_list</text>
</a>
</g>
</g>
<!-- Node2&#45;&gt;Node3 -->
<g id="edge2_Node000002_Node000003" class="edge">
<title>Node2&#45;&gt;Node3</title>
<g id="a_edge2_Node000002_Node000003"><a xlink:title=" ">
<path fill="none" stroke="#63b8ff" d="M656.28,-51.67C648.14,-53.1 639.81,-54.57 631.73,-55.99"/>
<polygon fill="#63b8ff" stroke="#63b8ff" points="656.6,-54.99 665.85,-49.81 655.39,-48.1 656.6,-54.99"/>
</a>
</g>
</g>
<!-- Node8 -->
<g id="Node000008" class="node">
<title>Node8</title>
<g id="a_Node000008"><a xlink:href="class_task_manager.html#ac63779261327a9f2b120a6c7dd648110" target="_top" xlink:title="Метод, обрабатывающий задание на изменение частотного диапазона">
<polygon fill="white" stroke="#666666" points="631.25,-32 516.25,-32 516.25,0 631.25,0 631.25,-32"/>
<text text-anchor="start" x="524.25" y="-18.5" font-family="Helvetica,sans-Serif" font-size="10.00">TaskManager::set_freq</text>
<text text-anchor="middle" x="573.75" y="-6.5" font-family="Helvetica,sans-Serif" font-size="10.00">_range_task</text>
</a>
</g>
</g>
<!-- Node2&#45;&gt;Node8 -->
<g id="edge7_Node000002_Node000008" class="edge">
<title>Node2&#45;&gt;Node8</title>
<g id="a_edge7_Node000002_Node000008"><a xlink:title=" ">
<path fill="none" stroke="#63b8ff" d="M656.28,-30.33C648.14,-28.9 639.81,-27.43 631.73,-26.01"/>
<polygon fill="#63b8ff" stroke="#63b8ff" points="655.39,-33.9 665.85,-32.19 656.6,-27.01 655.39,-33.9"/>
</a>
</g>
</g>
<!-- Node4 -->
<g id="Node000004" class="node">
<title>Node4</title>
<g id="a_Node000004"><a xlink:href="class_task_manager.html#a4b629612e2a111fdcc964c4eb3f8b1f4" target="_top" xlink:title="Метод, обрабатывающий список заданий.">
<polygon fill="white" stroke="#666666" points="480.25,-82 365.25,-82 365.25,-50 480.25,-50 480.25,-82"/>
<text text-anchor="start" x="373.25" y="-68.5" font-family="Helvetica,sans-Serif" font-size="10.00">TaskManager::proceed</text>
<text text-anchor="middle" x="422.75" y="-56.5" font-family="Helvetica,sans-Serif" font-size="10.00">_task_list</text>
</a>
</g>
</g>
<!-- Node3&#45;&gt;Node4 -->
<g id="edge3_Node000003_Node000004" class="edge">
<title>Node3&#45;&gt;Node4</title>
<g id="a_edge3_Node000003_Node000004"><a xlink:title=" ">
<path fill="none" stroke="#63b8ff" d="M505.18,-66C496.88,-66 488.46,-66 480.35,-66"/>
<polygon fill="#63b8ff" stroke="#63b8ff" points="504.99,-69.5 514.99,-66 504.99,-62.5 504.99,-69.5"/>
</a>
</g>
</g>
<!-- Node5 -->
<g id="Node000005" class="node">
<title>Node5</title>
<g id="a_Node000005"><a xlink:href="class_task_manager.html#a62720d3b2e70353688122cf2b706b3ce" target="_top" xlink:title="Метод, производящий обработку принятого JSON&#45;объекта">
<polygon fill="white" stroke="#666666" points="329.25,-76 214.25,-76 214.25,-56 329.25,-56 329.25,-76"/>
<text text-anchor="middle" x="271.75" y="-62.5" font-family="Helvetica,sans-Serif" font-size="10.00">TaskManager::proceed</text>
</a>
</g>
</g>
<!-- Node4&#45;&gt;Node5 -->
<g id="edge4_Node000004_Node000005" class="edge">
<title>Node4&#45;&gt;Node5</title>
<g id="a_edge4_Node000004_Node000005"><a xlink:title=" ">
<path fill="none" stroke="#63b8ff" d="M354.18,-66C345.88,-66 337.46,-66 329.35,-66"/>
<polygon fill="#63b8ff" stroke="#63b8ff" points="353.99,-69.5 363.99,-66 353.99,-62.5 353.99,-69.5"/>
</a>
</g>
</g>
<!-- Node6 -->
<g id="Node000006" class="node">
<title>Node6</title>
<g id="a_Node000006"><a xlink:href="main_8cpp.html#a205c0f32d26b6f27c711fa201d02c983" target="_top" xlink:title=" ">
<polygon fill="white" stroke="#666666" points="178.25,-76 73,-76 73,-56 178.25,-56 178.25,-76"/>
<text text-anchor="middle" x="125.62" y="-62.5" font-family="Helvetica,sans-Serif" font-size="10.00">data_server_thread_f</text>
</a>
</g>
</g>
<!-- Node5&#45;&gt;Node6 -->
<g id="edge5_Node000005_Node000006" class="edge">
<title>Node5&#45;&gt;Node6</title>
<g id="a_edge5_Node000005_Node000006"><a xlink:title=" ">
<path fill="none" stroke="#63b8ff" d="M203.03,-66C194.78,-66 186.46,-66 178.49,-66"/>
<polygon fill="#63b8ff" stroke="#63b8ff" points="202.79,-69.5 212.79,-66 202.79,-62.5 202.79,-69.5"/>
</a>
</g>
</g>
<!-- Node7 -->
<g id="Node000007" class="node">
<title>Node7</title>
<g id="a_Node000007"><a xlink:href="main_8cpp.html#a0ddf1224851353fc92bfbff6f499fa97" target="_top" xlink:title=" ">
<polygon fill="white" stroke="#666666" points="37,-76 0,-76 0,-56 37,-56 37,-76"/>
<text text-anchor="middle" x="18.5" y="-62.5" font-family="Helvetica,sans-Serif" font-size="10.00">main</text>
</a>
</g>
</g>
<!-- Node6&#45;&gt;Node7 -->
<g id="edge6_Node000006_Node000007" class="edge">
<title>Node6&#45;&gt;Node7</title>
<g id="a_edge6_Node000006_Node000007"><a xlink:title=" ">
<path fill="none" stroke="#63b8ff" d="M61.91,-66C52.84,-66 44.2,-66 37.1,-66"/>
<polygon fill="#63b8ff" stroke="#63b8ff" points="61.68,-69.5 71.68,-66 61.68,-62.5 61.68,-69.5"/>
</a>
</g>
</g>
</g>
</svg>

<g id="navigator" transform="translate(0 0)" fill="#404254">
  <rect fill="#f2f5e9" fill-opacity="0.5" stroke="#606060" stroke-width=".5" x="0" y="0" width="60" height="60"/>
  <use id="zoomplus" xlink:href="#zoomPlus" x="17" y="9" onmousedown="handleZoom(evt,'in')"/>
  <use id="zoomminus" xlink:href="#zoomMin" x="42" y="9" onmousedown="handleZoom(evt,'out')"/>
  <use id="reset" xlink:href="#resetDef" x="30" y="36" onmousedown="handleReset()"/>
   <use id="arrowup" xlink:href="#arrowUp" x="0" y="0" onmousedown="handlePan(0,-1)"/>
  <use id="arrowright" xlink:href="#arrowRight" x="0" y="0" onmousedown="handlePan(1,0)"/>
  <use id="arrowdown" xlink:href="#arrowDown" x="0" y="0" onmousedown="handlePan(0,1)"/>
  <use id="arrowleft" xlink:href="#arrowLeft" x="0" y="0" onmousedown="handlePan(-1,0)"/>
</g>
<svg viewBox="0 0 15 15" width="100%" height="30px" preserveAspectRatio="xMaxYMin meet">
 <g id="arrow_out" transform="scale(0.3 0.3)">
  <a xlink:href="class_gen_device_ae8f3f5e85a477915c09854a73e730a3e_icgraph_org.svg" target="_base">
   <rect id="button" ry="5" rx="5" y="6" x="6" height="38" width="38"
        fill="#f2f5e9" fill-opacity="0.5" stroke="#606060" stroke-width="1.0"/>
   <path id="arrow"
     d="M 11.500037,31.436501 C 11.940474,20.09759 22.043105,11.32322 32.158766,21.979434 L 37.068811,17.246167 C 37.068811,17.246167 37.088388,32 37.088388,32 L 22.160133,31.978069 C 22.160133,31.978069 26.997745,27.140456 26.997745,27.140456 C 18.528582,18.264221 13.291696,25.230495 11.500037,31.436501 z"
     style="fill:#404040;"/>
  </a>
 </g>
</svg>

<style type='text/css'>
<![CDATA[
[data-mouse-over-selected='false'] { opacity: 0.7; }
[data-mouse-over-selected='true']  { opacity: 1.0; }
]]>
</style>
<script type="application/ecmascript"><![CDATA[
document.addEventListener('DOMContentLoaded', (event) => {
  highlightEdges();
  highlightAdjacentNodes();
});
]]></script>
</svg>
