<?xml version="1.0" encoding="UTF-8" standalone="no"?>
<!DOCTYPE svg PUBLIC "-//W3C//DTD SVG 1.1//EN"
 "http://www.w3.org/Graphics/SVG/1.1/DTD/svg11.dtd">
<!-- Generated by graphviz version 8.0.5 (20230430.1635)
 -->
<!-- Title: VisaDevice::err Pages: 1 -->
<svg width="604pt" height="142pt"
 viewBox="0.00 0.00 604.00 142.00" xmlns="http://www.w3.org/2000/svg" xmlns:xlink="http://www.w3.org/1999/xlink">
<g id="graph0" class="graph" transform="scale(1 1) rotate(0) translate(4 138)">
<title>VisaDevice::err</title>
<!-- Node1 -->
<g id="Node000001" class="node">
<title>Node1</title>
<g id="a_Node000001"><a xlink:title="Отправляет команду &quot;SYSTEM:ERROR?&quot; на подключенное устройство и считывает сведения об ошибках,...">
<polygon fill="#999999" stroke="#666666" points="81.25,-96 0,-96 0,-76 81.25,-76 81.25,-96"/>
<text text-anchor="middle" x="40.62" y="-82.5" font-family="Helvetica,sans-Serif" font-size="10.00">VisaDevice::err</text>
</a>
</g>
</g>
<!-- Node2 -->
<g id="Node000002" class="node">
<title>Node2</title>
<g id="a_Node000002"><a xlink:href="class_logger.html#af7709105c2708359b7b082218f4cc3e1" target="_top" xlink:title="Метод, осуществляющий логирование">
<polygon fill="white" stroke="#666666" points="437.5,-77 373.5,-77 373.5,-57 437.5,-57 437.5,-77"/>
<text text-anchor="middle" x="405.5" y="-63.5" font-family="Helvetica,sans-Serif" font-size="10.00">Logger::log</text>
</a>
</g>
</g>
<!-- Node1&#45;&gt;Node2 -->
<g id="edge1_Node000001_Node000002" class="edge">
<title>Node1&#45;&gt;Node2</title>
<g id="a_edge1_Node000001_Node000002"><a xlink:title=" ">
<path fill="none" stroke="#63b8ff" d="M81.59,-89.47C138.67,-93.65 246.68,-98.63 337.5,-86 346.27,-84.78 355.5,-82.7 364.22,-80.36"/>
<polygon fill="#63b8ff" stroke="#63b8ff" points="364.88,-83.53 373.53,-77.41 362.95,-76.8 364.88,-83.53"/>
</a>
</g>
</g>
<!-- Node7 -->
<g id="Node000007" class="node">
<title>Node7</title>
<g id="a_Node000007"><a xlink:href="class_visa_device.html#aa807192fd9a8c3e6efc458f78de5e73e" target="_top" xlink:title="Метод, совмещающий в себе методы write() и read().">
<polygon fill="white" stroke="#666666" points="211.25,-77 117.25,-77 117.25,-57 211.25,-57 211.25,-77"/>
<text text-anchor="middle" x="164.25" y="-63.5" font-family="Helvetica,sans-Serif" font-size="10.00">VisaDevice::query</text>
</a>
</g>
</g>
<!-- Node1&#45;&gt;Node7 -->
<g id="edge6_Node000001_Node000007" class="edge">
<title>Node1&#45;&gt;Node7</title>
<g id="a_edge6_Node000001_Node000007"><a xlink:title=" ">
<path fill="none" stroke="#63b8ff" d="M81.45,-79.78C89.35,-78.54 97.79,-77.23 106.13,-75.92"/>
<polygon fill="#63b8ff" stroke="#63b8ff" points="106.66,-79.23 116,-74.23 105.58,-72.31 106.66,-79.23"/>
</a>
</g>
</g>
<!-- Node3 -->
<g id="Node000003" class="node">
<title>Node3</title>
<g id="a_Node000003"><a xlink:href="logger_8hpp.html#a49284b7befa8e31f81e01ee8f3735dd0" target="_top" xlink:title="Функция, которая снимает значение текущего времени и конвертирует его в строку с заданным шаблоном.">
<polygon fill="white" stroke="#666666" points="579.12,-134 490.38,-134 490.38,-114 579.12,-114 579.12,-134"/>
<text text-anchor="middle" x="534.75" y="-120.5" font-family="Helvetica,sans-Serif" font-size="10.00">get_current_time</text>
</a>
</g>
</g>
<!-- Node2&#45;&gt;Node3 -->
<g id="edge2_Node000002_Node000003" class="edge">
<title>Node2&#45;&gt;Node3</title>
<g id="a_edge2_Node000002_Node000003"><a xlink:title=" ">
<path fill="none" stroke="#63b8ff" d="M422.52,-77.36C435.8,-85.63 455.35,-97.1 473.5,-105 477.57,-106.77 481.86,-108.46 486.2,-110.05"/>
<polygon fill="#63b8ff" stroke="#63b8ff" points="484.74,-113.59 495.34,-113.55 487.03,-106.97 484.74,-113.59"/>
</a>
</g>
</g>
<!-- Node4 -->
<g id="Node000004" class="node">
<title>Node4</title>
<g id="a_Node000004"><a xlink:href="class_logger.html#a6edb7b263f080d417b82a537ed50fee4" target="_top" xlink:title="Возвращает тег в зависимости от уровня логирования и от назначения тега.">
<polygon fill="white" stroke="#666666" points="576.5,-96 493,-96 493,-76 576.5,-76 576.5,-96"/>
<text text-anchor="middle" x="534.75" y="-82.5" font-family="Helvetica,sans-Serif" font-size="10.00">Logger::get_tag</text>
</a>
</g>
</g>
<!-- Node2&#45;&gt;Node4 -->
<g id="edge3_Node000002_Node000004" class="edge">
<title>Node2&#45;&gt;Node4</title>
<g id="a_edge3_Node000002_Node000004"><a xlink:title=" ">
<path fill="none" stroke="#63b8ff" d="M437.96,-71.7C451.22,-73.68 467.02,-76.04 481.92,-78.26"/>
<polygon fill="#63b8ff" stroke="#63b8ff" points="481.16,-81.84 491.57,-79.85 482.19,-74.91 481.16,-81.84"/>
</a>
</g>
</g>
<!-- Node5 -->
<g id="Node000005" class="node">
<title>Node5</title>
<g id="a_Node000005"><a xlink:href="class_logger.html#a4825613142ebb093bf8fa26f21f7f3fc" target="_top" xlink:title="Метод, который выводит сообщение в консоль.">
<polygon fill="white" stroke="#666666" points="596,-58 473.5,-58 473.5,-38 596,-38 596,-58"/>
<text text-anchor="middle" x="534.75" y="-44.5" font-family="Helvetica,sans-Serif" font-size="10.00">Logger::print_to_console</text>
</a>
</g>
</g>
<!-- Node2&#45;&gt;Node5 -->
<g id="edge4_Node000002_Node000005" class="edge">
<title>Node2&#45;&gt;Node5</title>
<g id="a_edge4_Node000002_Node000005"><a xlink:title=" ">
<path fill="none" stroke="#63b8ff" d="M437.96,-62.3C445.46,-61.18 453.77,-59.94 462.28,-58.67"/>
<polygon fill="#63b8ff" stroke="#63b8ff" points="462.73,-61.99 472.1,-57.06 461.69,-55.07 462.73,-61.99"/>
</a>
</g>
</g>
<!-- Node6 -->
<g id="Node000006" class="node">
<title>Node6</title>
<g id="a_Node000006"><a xlink:href="class_logger.html#a999bb33f7cf079cb98f32fae6016a2f3" target="_top" xlink:title="Метод, который записывает сообщение в файл.">
<polygon fill="white" stroke="#666666" points="585.12,-20 484.38,-20 484.38,0 585.12,0 585.12,-20"/>
<text text-anchor="middle" x="534.75" y="-6.5" font-family="Helvetica,sans-Serif" font-size="10.00">Logger::print_to_file</text>
</a>
</g>
</g>
<!-- Node2&#45;&gt;Node6 -->
<g id="edge5_Node000002_Node000006" class="edge">
<title>Node2&#45;&gt;Node6</title>
<g id="a_edge5_Node000002_Node000006"><a xlink:title=" ">
<path fill="none" stroke="#63b8ff" d="M422.52,-56.64C435.8,-48.37 455.35,-36.9 473.5,-29 477.57,-27.23 481.86,-25.54 486.2,-23.95"/>
<polygon fill="#63b8ff" stroke="#63b8ff" points="487.03,-27.03 495.34,-20.45 484.74,-20.41 487.03,-27.03"/>
</a>
</g>
</g>
<!-- Node8 -->
<g id="Node000008" class="node">
<title>Node8</title>
<g id="a_Node000008"><a xlink:href="class_visa_device.html#aca08d9dbb0469f1143668a485e4adfe2" target="_top" xlink:title="Метод, позволяющий считать данные с устройства">
<polygon fill="white" stroke="#666666" points="336.75,-77 248,-77 248,-57 336.75,-57 336.75,-77"/>
<text text-anchor="middle" x="292.38" y="-63.5" font-family="Helvetica,sans-Serif" font-size="10.00">VisaDevice::read</text>
</a>
</g>
</g>
<!-- Node7&#45;&gt;Node8 -->
<g id="edge7_Node000007_Node000008" class="edge">
<title>Node7&#45;&gt;Node8</title>
<g id="a_edge7_Node000007_Node000008"><a xlink:title=" ">
<path fill="none" stroke="#63b8ff" d="M211.5,-67C219.71,-67 228.33,-67 236.75,-67"/>
<polygon fill="#63b8ff" stroke="#63b8ff" points="236.65,-70.5 246.65,-67 236.65,-63.5 236.65,-70.5"/>
</a>
</g>
</g>
<!-- Node9 -->
<g id="Node000009" class="node">
<title>Node9</title>
<g id="a_Node000009"><a xlink:href="class_visa_device.html#a29202c3f5e47326386d1d27972e25267" target="_top" xlink:title="Метод, позволяющий отправить команду на устройство">
<polygon fill="white" stroke="#666666" points="337.5,-39 247.25,-39 247.25,-19 337.5,-19 337.5,-39"/>
<text text-anchor="middle" x="292.38" y="-25.5" font-family="Helvetica,sans-Serif" font-size="10.00">VisaDevice::write</text>
</a>
</g>
</g>
<!-- Node7&#45;&gt;Node9 -->
<g id="edge9_Node000007_Node000009" class="edge">
<title>Node7&#45;&gt;Node9</title>
<g id="a_edge9_Node000007_Node000009"><a xlink:title=" ">
<path fill="none" stroke="#63b8ff" d="M200.05,-56.52C214.38,-52.2 231.18,-47.14 246.43,-42.54"/>
<polygon fill="#63b8ff" stroke="#63b8ff" points="247.13,-45.69 255.69,-39.45 245.11,-38.98 247.13,-45.69"/>
</a>
</g>
</g>
<!-- Node8&#45;&gt;Node2 -->
<g id="edge8_Node000008_Node000002" class="edge">
<title>Node8&#45;&gt;Node2</title>
<g id="a_edge8_Node000008_Node000002"><a xlink:title=" ">
<path fill="none" stroke="#63b8ff" d="M336.98,-67C345.25,-67 353.9,-67 362.14,-67"/>
<polygon fill="#63b8ff" stroke="#63b8ff" points="362.04,-70.5 372.04,-67 362.04,-63.5 362.04,-70.5"/>
</a>
</g>
</g>
<!-- Node9&#45;&gt;Node2 -->
<g id="edge10_Node000009_Node000002" class="edge">
<title>Node9&#45;&gt;Node2</title>
<g id="a_edge10_Node000009_Node000002"><a xlink:title=" ">
<path fill="none" stroke="#63b8ff" d="M324.03,-39.48C336.3,-43.68 350.61,-48.57 363.73,-53.06"/>
<polygon fill="#63b8ff" stroke="#63b8ff" points="362.35,-56.63 372.94,-56.55 364.61,-50 362.35,-56.63"/>
</a>
</g>
</g>
</g>
</svg>
