<?xml version="1.0" encoding="UTF-8" standalone="no"?>
<!DOCTYPE svg PUBLIC "-//W3C//DTD SVG 1.1//EN"
 "http://www.w3.org/Graphics/SVG/1.1/DTD/svg11.dtd">
<!-- Generated by graphviz version 8.0.5 (20230430.1635)
 -->
<!-- Title: DeviceSet::configure Pages: 1 -->
<svg width="427pt" height="199pt"
 viewBox="0.00 0.00 426.50 199.00" xmlns="http://www.w3.org/2000/svg" xmlns:xlink="http://www.w3.org/1999/xlink">

<svg id="main" version="1.1" xmlns="http://www.w3.org/2000/svg" xmlns:xlink="http://www.w3.org/1999/xlink" xml:space="preserve" onload="init(evt)">
<style type="text/css"><![CDATA[
.node, .edge {opacity: 0.7;}
.node.selected, .edge.selected {opacity: 1;}
.edge:hover path { stroke: red; }
.edge:hover polygon { stroke: red; fill: red; }
]]></style>
<script type="application/ecmascript" xlink:href="svg.min.js"/>
<svg id="graph" class="graph">
<g id="graph0" class="graph" transform="scale(1 1) rotate(0) translate(4 195)">
<title>DeviceSet::configure</title>
<!-- Node1 -->
<g id="Node000001" class="node">
<title>Node1</title>
<g id="a_Node000001"><a xlink:title=" ">
<polygon fill="#999999" stroke="#666666" points="104.5,-134 0,-134 0,-114 104.5,-114 104.5,-134"/>
<text text-anchor="middle" x="52.25" y="-120.5" font-family="Helvetica,sans-Serif" font-size="10.00">DeviceSet::configure</text>
</a>
</g>
</g>
<!-- Node2 -->
<g id="Node000002" class="node">
<title>Node2</title>
<g id="a_Node000002"><a xlink:href="class_vna_device.html#a3260fe2b5052c977d9fefc9847dd8dc6" target="_top" xlink:title=" ">
<polygon fill="white" stroke="#666666" points="253.62,-191 146.88,-191 146.88,-171 253.62,-171 253.62,-191"/>
<text text-anchor="middle" x="200.25" y="-177.5" font-family="Helvetica,sans-Serif" font-size="10.00">VnaDevice::configure</text>
</a>
</g>
</g>
<!-- Node1&#45;&gt;Node2 -->
<g id="edge1_Node000001_Node000002" class="edge">
<title>Node1&#45;&gt;Node2</title>
<g id="a_edge1_Node000001_Node000002"><a xlink:title=" ">
<path fill="none" stroke="#63b8ff" d="M75.6,-134.45C93.08,-142.46 118.09,-153.52 140.5,-162 145.02,-163.71 149.77,-165.41 154.53,-167.04"/>
<polygon fill="#63b8ff" stroke="#63b8ff" points="153.29,-170.65 163.88,-170.51 155.51,-164.02 153.29,-170.65"/>
</a>
</g>
</g>
<!-- Node3 -->
<g id="Node000003" class="node">
<title>Node3</title>
<g id="a_Node000003"><a xlink:href="class_vna_device.html#ac5d1a3a53f046c6839905400d6c3e0b7" target="_top" xlink:title=" ">
<polygon fill="white" stroke="#666666" points="256.25,-153 144.25,-153 144.25,-133 256.25,-133 256.25,-153"/>
<text text-anchor="middle" x="200.25" y="-139.5" font-family="Helvetica,sans-Serif" font-size="10.00">VnaDevice::full_preset</text>
</a>
</g>
</g>
<!-- Node1&#45;&gt;Node3 -->
<g id="edge2_Node000001_Node000003" class="edge">
<title>Node1&#45;&gt;Node3</title>
<g id="a_edge2_Node000001_Node000003"><a xlink:title=" ">
<path fill="none" stroke="#63b8ff" d="M104.72,-130.7C113.91,-131.89 123.6,-133.15 133.12,-134.39"/>
<polygon fill="#63b8ff" stroke="#63b8ff" points="132.41,-137.96 142.78,-135.78 133.31,-131.02 132.41,-137.96"/>
</a>
</g>
</g>
<!-- Node4 -->
<g id="Node000004" class="node">
<title>Node4</title>
<g id="a_Node000004"><a xlink:href="class_vna_device.html#a4975b9caaac2bb8889a011aab9f192e2" target="_top" xlink:title=" ">
<polygon fill="white" stroke="#666666" points="260,-115 140.5,-115 140.5,-95 260,-95 260,-115"/>
<text text-anchor="middle" x="200.25" y="-101.5" font-family="Helvetica,sans-Serif" font-size="10.00">VnaDevice::init_channel</text>
</a>
</g>
</g>
<!-- Node1&#45;&gt;Node4 -->
<g id="edge3_Node000001_Node000004" class="edge">
<title>Node1&#45;&gt;Node4</title>
<g id="a_edge3_Node000001_Node000004"><a xlink:title=" ">
<path fill="none" stroke="#63b8ff" d="M104.72,-117.3C112.66,-116.27 120.97,-115.19 129.22,-114.11"/>
<polygon fill="#63b8ff" stroke="#63b8ff" points="129.55,-117.47 139.01,-112.71 128.64,-110.53 129.55,-117.47"/>
</a>
</g>
</g>
<!-- Node5 -->
<g id="Node000005" class="node">
<title>Node5</title>
<g id="a_Node000005"><a xlink:href="class_logger.html#af7709105c2708359b7b082218f4cc3e1" target="_top" xlink:title="Функция, осуществляющая логирование">
<polygon fill="white" stroke="#666666" points="232.25,-77 168.25,-77 168.25,-57 232.25,-57 232.25,-77"/>
<text text-anchor="middle" x="200.25" y="-63.5" font-family="Helvetica,sans-Serif" font-size="10.00">Logger::log</text>
</a>
</g>
</g>
<!-- Node1&#45;&gt;Node5 -->
<g id="edge4_Node000001_Node000005" class="edge">
<title>Node1&#45;&gt;Node5</title>
<g id="a_edge4_Node000001_Node000005"><a xlink:title=" ">
<path fill="none" stroke="#63b8ff" d="M75.6,-113.55C93.08,-105.54 118.09,-94.48 140.5,-86 146.01,-83.91 151.87,-81.85 157.67,-79.89"/>
<polygon fill="#63b8ff" stroke="#63b8ff" points="158.55,-82.95 166.95,-76.49 156.36,-76.3 158.55,-82.95"/>
</a>
</g>
</g>
<!-- Node6 -->
<g id="Node000006" class="node">
<title>Node6</title>
<g id="a_Node000006"><a xlink:href="logger_8hpp.html#a49284b7befa8e31f81e01ee8f3735dd0" target="_top" xlink:title="Функция, которая снимает значение текущего времени и конвертирует его в строку с заданным шаблоном.">
<polygon fill="white" stroke="#666666" points="401.62,-134 312.88,-134 312.88,-114 401.62,-114 401.62,-134"/>
<text text-anchor="middle" x="357.25" y="-120.5" font-family="Helvetica,sans-Serif" font-size="10.00">get_current_time</text>
</a>
</g>
</g>
<!-- Node5&#45;&gt;Node6 -->
<g id="edge5_Node000005_Node000006" class="edge">
<title>Node5&#45;&gt;Node6</title>
<g id="a_edge5_Node000005_Node000006"><a xlink:title=" ">
<path fill="none" stroke="#63b8ff" d="M232.72,-76.07C241.65,-78.94 251.31,-82.33 260,-86 276.67,-93.03 279.31,-98.03 296,-105 300.33,-106.81 304.9,-108.54 309.5,-110.18"/>
<polygon fill="#63b8ff" stroke="#63b8ff" points="307.95,-113.69 318.55,-113.59 310.2,-107.06 307.95,-113.69"/>
</a>
</g>
</g>
<!-- Node7 -->
<g id="Node000007" class="node">
<title>Node7</title>
<g id="a_Node000007"><a xlink:href="class_logger.html#a6edb7b263f080d417b82a537ed50fee4" target="_top" xlink:title="Функция, возвращающая тег в зависимости от уровня логирования и от назначения тега.">
<polygon fill="white" stroke="#666666" points="399,-96 315.5,-96 315.5,-76 399,-76 399,-96"/>
<text text-anchor="middle" x="357.25" y="-82.5" font-family="Helvetica,sans-Serif" font-size="10.00">Logger::get_tag</text>
</a>
</g>
</g>
<!-- Node5&#45;&gt;Node7 -->
<g id="edge6_Node000005_Node000007" class="edge">
<title>Node5&#45;&gt;Node7</title>
<g id="a_edge6_Node000005_Node000007"><a xlink:title=" ">
<path fill="none" stroke="#63b8ff" d="M232.62,-70.84C253.25,-73.37 280.75,-76.74 304.57,-79.66"/>
<polygon fill="#63b8ff" stroke="#63b8ff" points="303.87,-83.23 314.22,-80.97 304.72,-76.28 303.87,-83.23"/>
</a>
</g>
</g>
<!-- Node8 -->
<g id="Node000008" class="node">
<title>Node8</title>
<g id="a_Node000008"><a xlink:href="class_logger.html#a4825613142ebb093bf8fa26f21f7f3fc" target="_top" xlink:title="Функция, которая выводит сообщение в консоль.">
<polygon fill="white" stroke="#666666" points="418.5,-58 296,-58 296,-38 418.5,-38 418.5,-58"/>
<text text-anchor="middle" x="357.25" y="-44.5" font-family="Helvetica,sans-Serif" font-size="10.00">Logger::print_to_console</text>
</a>
</g>
</g>
<!-- Node5&#45;&gt;Node8 -->
<g id="edge7_Node000005_Node000008" class="edge">
<title>Node5&#45;&gt;Node8</title>
<g id="a_edge7_Node000005_Node000008"><a xlink:title=" ">
<path fill="none" stroke="#63b8ff" d="M232.62,-63.16C247.78,-61.3 266.64,-58.98 285.02,-56.73"/>
<polygon fill="#63b8ff" stroke="#63b8ff" points="285.26,-60.11 294.76,-55.41 284.41,-53.16 285.26,-60.11"/>
</a>
</g>
</g>
<!-- Node9 -->
<g id="Node000009" class="node">
<title>Node9</title>
<g id="a_Node000009"><a xlink:href="class_logger.html#a999bb33f7cf079cb98f32fae6016a2f3" target="_top" xlink:title="Функция, которая записывает сообщение в файл.">
<polygon fill="white" stroke="#666666" points="407.62,-20 306.88,-20 306.88,0 407.62,0 407.62,-20"/>
<text text-anchor="middle" x="357.25" y="-6.5" font-family="Helvetica,sans-Serif" font-size="10.00">Logger::print_to_file</text>
</a>
</g>
</g>
<!-- Node5&#45;&gt;Node9 -->
<g id="edge8_Node000005_Node000009" class="edge">
<title>Node5&#45;&gt;Node9</title>
<g id="a_edge8_Node000005_Node000009"><a xlink:title=" ">
<path fill="none" stroke="#63b8ff" d="M225.59,-56.64C244.62,-48.7 271.8,-37.65 296,-29 301.03,-27.2 306.34,-25.4 311.62,-23.66"/>
<polygon fill="#63b8ff" stroke="#63b8ff" points="312.25,-26.81 320.69,-20.4 310.1,-20.15 312.25,-26.81"/>
</a>
</g>
</g>
</g>
</svg>
</svg>

<style type='text/css'>
<![CDATA[
[data-mouse-over-selected='false'] { opacity: 0.7; }
[data-mouse-over-selected='true']  { opacity: 1.0; }
]]>
</style>
<script type="application/ecmascript"><![CDATA[
document.addEventListener('DOMContentLoaded', (event) => {
  highlightEdges();
  highlightAdjacentNodes();
});
]]></script>
</svg>
