<?xml version="1.0" encoding="UTF-8" standalone="no"?>
<!DOCTYPE svg PUBLIC "-//W3C//DTD SVG 1.1//EN"
 "http://www.w3.org/Graphics/SVG/1.1/DTD/svg11.dtd">
<!-- Generated by graphviz version 8.1.0 (20230707.0739)
 -->
<!-- Title: VisaDevice::err Pages: 1 -->
<svg width="427pt" height="1024pt"
 viewBox="0.00 0.00 426.50 1024.00" xmlns="http://www.w3.org/2000/svg" xmlns:xlink="http://www.w3.org/1999/xlink">
<g id="graph0" class="graph" transform="scale(1 1) rotate(0) translate(4 1020)">
<title>VisaDevice::err</title>
<!-- Node1 -->
<g id="Node000001" class="node">
<title>Node1</title>
<g id="a_Node000001"><a xlink:title="Отправляет команду &quot;SYSTEM:ERROR?&quot; на подключенное устройство и считывает сведения об ошибках,...">
<polygon fill="#999999" stroke="#666666" points="418.5,-531 337.25,-531 337.25,-511 418.5,-511 418.5,-531"/>
<text text-anchor="middle" x="377.88" y="-517.5" font-family="Helvetica,sans-Serif" font-size="10.00">VisaDevice::err</text>
</a>
</g>
</g>
<!-- Node2 -->
<g id="Node000002" class="node">
<title>Node2</title>
<g id="a_Node000002"><a xlink:href="class_visa_device.html#aa8ab94835c465376d5b775478b3b04bf" target="_top" xlink:title="Отправка данных на прибор и чтение ответа от прибора. Также, проверяется наличие ошибок на приборе.">
<polygon fill="white" stroke="#666666" points="290,-783 182.5,-783 182.5,-763 290,-763 290,-783"/>
<text text-anchor="middle" x="236.25" y="-769.5" font-family="Helvetica,sans-Serif" font-size="10.00">VisaDevice::send_err</text>
</a>
</g>
</g>
<!-- Node1&#45;&gt;Node2 -->
<g id="edge1_Node000001_Node000002" class="edge">
<title>Node1&#45;&gt;Node2</title>
<g id="a_edge1_Node000001_Node000002"><a xlink:title=" ">
<path fill="none" stroke="#63b8ff" d="M365.98,-540.66C337.95,-591.25 264.09,-724.56 242.97,-762.68"/>
<polygon fill="#63b8ff" stroke="#63b8ff" points="369.44,-542.63 371.23,-532.19 363.32,-539.24 369.44,-542.63"/>
</a>
</g>
</g>
<!-- Node4 -->
<g id="Node000004" class="node">
<title>Node4</title>
<g id="a_Node000004"><a xlink:href="class_visa_device.html#a069e154c5f48779dfd908146db9e66ed" target="_top" xlink:title="Отправка данных на прибор и чтение ответа от прибора. Также, ожидается завершение выполнения действий...">
<polygon fill="white" stroke="#666666" points="301.25,-512 171.25,-512 171.25,-492 301.25,-492 301.25,-512"/>
<text text-anchor="middle" x="236.25" y="-498.5" font-family="Helvetica,sans-Serif" font-size="10.00">VisaDevice::send_wait_err</text>
</a>
</g>
</g>
<!-- Node1&#45;&gt;Node4 -->
<g id="edge3_Node000001_Node000004" class="edge">
<title>Node1&#45;&gt;Node4</title>
<g id="a_edge3_Node000001_Node000004"><a xlink:title=" ">
<path fill="none" stroke="#63b8ff" d="M326.2,-514.1C318.18,-513.01 309.8,-511.87 301.52,-510.75"/>
<polygon fill="#63b8ff" stroke="#63b8ff" points="325.48,-517.67 335.86,-515.56 326.43,-510.74 325.48,-517.67"/>
</a>
</g>
</g>
<!-- Node3 -->
<g id="Node000003" class="node">
<title>Node3</title>
<g id="a_Node000003"><a xlink:href="class_visa_device.html#a743747ee232e8ff9723d25539852f94d" target="_top" xlink:title="Отправка данных на прибор и чтение ответа от прибора. Также, проверяется наличие ошибок на приборе.">
<polygon fill="white" stroke="#666666" points="121.38,-1016 13.88,-1016 13.88,-996 121.38,-996 121.38,-1016"/>
<text text-anchor="middle" x="67.62" y="-1002.5" font-family="Helvetica,sans-Serif" font-size="10.00">VisaDevice::send_err</text>
</a>
</g>
</g>
<!-- Node2&#45;&gt;Node3 -->
<g id="edge2_Node000002_Node000003" class="edge">
<title>Node2&#45;&gt;Node3</title>
<g id="a_edge2_Node000002_Node000003"><a xlink:title=" ">
<path fill="none" stroke="#63b8ff" d="M231.44,-794.1C222.57,-837.02 196.46,-934.84 135.25,-987 131.22,-990.43 126.61,-993.25 121.73,-995.55"/>
<polygon fill="#63b8ff" stroke="#63b8ff" points="235.07,-794.79 233.54,-784.31 228.19,-793.46 235.07,-794.79"/>
</a>
</g>
</g>
<!-- Node5 -->
<g id="Node000005" class="node">
<title>Node5</title>
<g id="a_Node000005"><a xlink:href="class_keysight_m9807_a.html#a85c78a42ccfda3bb9b69cb60b79358f4" target="_top" xlink:title="Настройка ВАЦ для измерения">
<polygon fill="white" stroke="#666666" points="135.25,-978 0,-978 0,-958 135.25,-958 135.25,-978"/>
<text text-anchor="middle" x="67.62" y="-964.5" font-family="Helvetica,sans-Serif" font-size="10.00">KeysightM9807A::configure</text>
</a>
</g>
</g>
<!-- Node4&#45;&gt;Node5 -->
<g id="edge4_Node000004_Node000005" class="edge">
<title>Node4&#45;&gt;Node5</title>
<g id="a_edge4_Node000004_Node000005"><a xlink:title=" ">
<path fill="none" stroke="#63b8ff" d="M229.57,-522.45C217.79,-565.23 190.23,-667.35 171.25,-754 152.39,-840.09 194.53,-883.79 135.25,-949 132.09,-952.47 128.35,-955.33 124.28,-957.67"/>
<polygon fill="#63b8ff" stroke="#63b8ff" points="233.16,-523.6 232.45,-513.03 226.41,-521.73 233.16,-523.6"/>
</a>
</g>
</g>
<!-- Node6 -->
<g id="Node000006" class="node">
<title>Node6</title>
<g id="a_Node000006"><a xlink:href="class_planar_s50244.html#a9092c8dda103df83d5e407e768b887b7" target="_top" xlink:title="Настройка ВАЦ для измерения">
<polygon fill="white" stroke="#666666" points="128.5,-940 6.75,-940 6.75,-920 128.5,-920 128.5,-940"/>
<text text-anchor="middle" x="67.62" y="-926.5" font-family="Helvetica,sans-Serif" font-size="10.00">PlanarS50244::configure</text>
</a>
</g>
</g>
<!-- Node4&#45;&gt;Node6 -->
<g id="edge5_Node000004_Node000006" class="edge">
<title>Node4&#45;&gt;Node6</title>
<g id="a_edge5_Node000004_Node000006"><a xlink:title=" ">
<path fill="none" stroke="#63b8ff" d="M229.86,-522.52C218.65,-565.43 192.08,-667.77 171.25,-754 154.44,-823.59 184.53,-859.07 135.25,-911 132.02,-914.4 128.23,-917.21 124.12,-919.52"/>
<polygon fill="#63b8ff" stroke="#63b8ff" points="233.46,-523.62 232.6,-513.06 226.69,-521.85 233.46,-523.62"/>
</a>
</g>
</g>
<!-- Node7 -->
<g id="Node000007" class="node">
<title>Node7</title>
<g id="a_Node000007"><a xlink:href="class_keysight_m9807_a.html#ad492f043e51d3e760209af6d59fe7829" target="_top" xlink:title="Создание необходимых трасс, в зависимости от того, используется ли внешний генератор">
<polygon fill="white" stroke="#666666" points="129.25,-902 6,-902 6,-870 129.25,-870 129.25,-902"/>
<text text-anchor="start" x="14" y="-888.5" font-family="Helvetica,sans-Serif" font-size="10.00">KeysightM9807A::create</text>
<text text-anchor="middle" x="67.62" y="-876.5" font-family="Helvetica,sans-Serif" font-size="10.00">_traces</text>
</a>
</g>
</g>
<!-- Node4&#45;&gt;Node7 -->
<g id="edge6_Node000004_Node000007" class="edge">
<title>Node4&#45;&gt;Node7</title>
<g id="a_edge6_Node000004_Node000007"><a xlink:title=" ">
<path fill="none" stroke="#63b8ff" d="M230.04,-522.68C211.21,-597.16 147.15,-848.01 135.25,-861 132.25,-864.28 128.77,-867.13 125.01,-869.61"/>
<polygon fill="#63b8ff" stroke="#63b8ff" points="233.61,-523.86 232.66,-513.3 226.82,-522.14 233.61,-523.86"/>
</a>
</g>
</g>
<!-- Node8 -->
<g id="Node000008" class="node">
<title>Node8</title>
<g id="a_Node000008"><a xlink:href="class_planar_s50244.html#a665b4601aa0b252835220280da8d0635" target="_top" xlink:title="Создание необходимых трасс, в зависимости от того, используется ли внешний генератор">
<polygon fill="white" stroke="#666666" points="122.5,-852 12.75,-852 12.75,-820 122.5,-820 122.5,-852"/>
<text text-anchor="start" x="20.75" y="-838.5" font-family="Helvetica,sans-Serif" font-size="10.00">PlanarS50244::create</text>
<text text-anchor="middle" x="67.62" y="-826.5" font-family="Helvetica,sans-Serif" font-size="10.00">_traces</text>
</a>
</g>
</g>
<!-- Node4&#45;&gt;Node8 -->
<g id="edge7_Node000004_Node000008" class="edge">
<title>Node4&#45;&gt;Node8</title>
<g id="a_edge7_Node000004_Node000008"><a xlink:title=" ">
<path fill="none" stroke="#63b8ff" d="M230.95,-522.96C217.78,-585.31 176.41,-767.9 135.25,-811 131.67,-814.75 127.47,-817.95 122.95,-820.66"/>
<polygon fill="#63b8ff" stroke="#63b8ff" points="234.52,-523.98 233.13,-513.48 227.66,-522.55 234.52,-523.98"/>
</a>
</g>
</g>
<!-- Node9 -->
<g id="Node000009" class="node">
<title>Node9</title>
<g id="a_Node000009"><a xlink:href="class_keysight_m9807_a.html#ae9df428776abd1cc65fa24e57fb713e1" target="_top" xlink:title="Запуск измерения">
<polygon fill="white" stroke="#666666" points="122.12,-802 13.12,-802 13.12,-782 122.12,-782 122.12,-802"/>
<text text-anchor="middle" x="67.62" y="-788.5" font-family="Helvetica,sans-Serif" font-size="10.00">KeysightM9807A::init</text>
</a>
</g>
</g>
<!-- Node4&#45;&gt;Node9 -->
<g id="edge8_Node000004_Node000009" class="edge">
<title>Node4&#45;&gt;Node9</title>
<g id="a_edge8_Node000004_Node000009"><a xlink:title=" ">
<path fill="none" stroke="#63b8ff" d="M233.75,-523.3C229,-574.22 209.83,-703.86 135.25,-773 131.46,-776.52 127.06,-779.39 122.36,-781.73"/>
<polygon fill="#63b8ff" stroke="#63b8ff" points="237.32,-523.65 234.65,-513.39 230.34,-523.07 237.32,-523.65"/>
</a>
</g>
</g>
<!-- Node10 -->
<g id="Node000010" class="node">
<title>Node10</title>
<g id="a_Node000010"><a xlink:href="class_keysight_m9807_a.html#ad48b95d00b8a2ecee1e95dc300d25203" target="_top" xlink:title="Инициализация канала для измерений">
<polygon fill="white" stroke="#666666" points="122.12,-764 13.12,-764 13.12,-732 122.12,-732 122.12,-764"/>
<text text-anchor="start" x="21.12" y="-750.5" font-family="Helvetica,sans-Serif" font-size="10.00">KeysightM9807A::init</text>
<text text-anchor="middle" x="67.62" y="-738.5" font-family="Helvetica,sans-Serif" font-size="10.00">_channel</text>
</a>
</g>
</g>
<!-- Node4&#45;&gt;Node10 -->
<g id="edge9_Node000004_Node000010" class="edge">
<title>Node4&#45;&gt;Node10</title>
<g id="a_edge9_Node000004_Node000010"><a xlink:title=" ">
<path fill="none" stroke="#63b8ff" d="M231.35,-523.09C222.26,-566.48 195.67,-666.44 135.25,-723 131.46,-726.55 127.12,-729.6 122.52,-732.23"/>
<polygon fill="#63b8ff" stroke="#63b8ff" points="234.95,-523.92 233.46,-513.43 228.08,-522.56 234.95,-523.92"/>
</a>
</g>
</g>
<!-- Node11 -->
<g id="Node000011" class="node">
<title>Node11</title>
<g id="a_Node000011"><a xlink:href="class_planar_s50244.html#a152d5516596ddd1f784ffdd28699c9c3" target="_top" xlink:title="Инициализация канала для измерений">
<polygon fill="white" stroke="#666666" points="115.38,-714 19.88,-714 19.88,-682 115.38,-682 115.38,-714"/>
<text text-anchor="start" x="27.88" y="-700.5" font-family="Helvetica,sans-Serif" font-size="10.00">PlanarS50244::init</text>
<text text-anchor="middle" x="67.62" y="-688.5" font-family="Helvetica,sans-Serif" font-size="10.00">_channel</text>
</a>
</g>
</g>
<!-- Node4&#45;&gt;Node11 -->
<g id="edge10_Node000004_Node000011" class="edge">
<title>Node4&#45;&gt;Node11</title>
<g id="a_edge10_Node000004_Node000011"><a xlink:title=" ">
<path fill="none" stroke="#63b8ff" d="M228.42,-522.63C215.64,-558.19 184.84,-631.2 135.25,-673 129.49,-677.86 122.69,-681.82 115.67,-685.04"/>
<polygon fill="#63b8ff" stroke="#63b8ff" points="231.96,-524.09 231.93,-513.49 225.35,-521.79 231.96,-524.09"/>
</a>
</g>
</g>
<!-- Node12 -->
<g id="Node000012" class="node">
<title>Node12</title>
<g id="a_Node000012"><a xlink:href="class_keysight_m9807_a.html#ad4dc40466fecabae451e88d763692076" target="_top" xlink:title="Отключает все порты">
<polygon fill="white" stroke="#666666" points="125.88,-664 9.38,-664 9.38,-644 125.88,-644 125.88,-664"/>
<text text-anchor="middle" x="67.62" y="-650.5" font-family="Helvetica,sans-Serif" font-size="10.00">KeysightM9807A::rf_off</text>
</a>
</g>
</g>
<!-- Node4&#45;&gt;Node12 -->
<g id="edge11_Node000004_Node000012" class="edge">
<title>Node4&#45;&gt;Node12</title>
<g id="a_edge11_Node000004_Node000012"><a xlink:title=" ">
<path fill="none" stroke="#63b8ff" d="M225.58,-522.03C210.42,-551.29 178.3,-605.42 135.25,-635 130.29,-638.41 124.73,-641.21 118.99,-643.51"/>
<polygon fill="#63b8ff" stroke="#63b8ff" points="229.02,-523.98 230.38,-513.47 222.76,-520.83 229.02,-523.98"/>
</a>
</g>
</g>
<!-- Node13 -->
<g id="Node000013" class="node">
<title>Node13</title>
<g id="a_Node000013"><a xlink:href="class_planar_s50244.html#a3099a6c00551bb147ff03388dceb4743" target="_top" xlink:title="Отключает все порты">
<polygon fill="white" stroke="#666666" points="119.12,-626 16.12,-626 16.12,-606 119.12,-606 119.12,-626"/>
<text text-anchor="middle" x="67.62" y="-612.5" font-family="Helvetica,sans-Serif" font-size="10.00">PlanarS50244::rf_off</text>
</a>
</g>
</g>
<!-- Node4&#45;&gt;Node13 -->
<g id="edge12_Node000004_Node000013" class="edge">
<title>Node4&#45;&gt;Node13</title>
<g id="a_edge12_Node000004_Node000013"><a xlink:title=" ">
<path fill="none" stroke="#63b8ff" d="M220.59,-520.55C202.67,-542.01 170.37,-576.95 135.25,-597 129.3,-600.4 122.69,-603.23 116.02,-605.57"/>
<polygon fill="#63b8ff" stroke="#63b8ff" points="223.74,-523.23 227.35,-513.27 218.32,-518.8 223.74,-523.23"/>
</a>
</g>
</g>
<!-- Node14 -->
<g id="Node000014" class="node">
<title>Node14</title>
<g id="a_Node000014"><a xlink:href="class_keysight_m9807_a.html#a861c82a08c49f54dd245db73d87181c8" target="_top" xlink:title="Отключает выбранный порт">
<polygon fill="white" stroke="#666666" points="125.88,-588 9.38,-588 9.38,-568 125.88,-568 125.88,-588"/>
<text text-anchor="middle" x="67.62" y="-574.5" font-family="Helvetica,sans-Serif" font-size="10.00">KeysightM9807A::rf_off</text>
</a>
</g>
</g>
<!-- Node4&#45;&gt;Node14 -->
<g id="edge13_Node000004_Node000014" class="edge">
<title>Node4&#45;&gt;Node14</title>
<g id="a_edge13_Node000004_Node000014"><a xlink:title=" ">
<path fill="none" stroke="#63b8ff" d="M210.74,-518.19C191,-530.68 162.2,-547.67 135.25,-559 127.6,-562.22 119.23,-565.08 111.09,-567.55"/>
<polygon fill="#63b8ff" stroke="#63b8ff" points="212.39,-520.65 218.92,-512.3 208.61,-514.76 212.39,-520.65"/>
</a>
</g>
</g>
<!-- Node15 -->
<g id="Node000015" class="node">
<title>Node15</title>
<g id="a_Node000015"><a xlink:href="class_planar_s50244.html#a7cef78ad66899bf7d1ebc675bbacf18d" target="_top" xlink:title="Отключает выбранный порт">
<polygon fill="white" stroke="#666666" points="119.12,-550 16.12,-550 16.12,-530 119.12,-530 119.12,-550"/>
<text text-anchor="middle" x="67.62" y="-536.5" font-family="Helvetica,sans-Serif" font-size="10.00">PlanarS50244::rf_off</text>
</a>
</g>
</g>
<!-- Node4&#45;&gt;Node15 -->
<g id="edge14_Node000004_Node000015" class="edge">
<title>Node4&#45;&gt;Node15</title>
<g id="a_edge14_Node000004_Node000015"><a xlink:title=" ">
<path fill="none" stroke="#63b8ff" d="M178.6,-514.92C157.69,-519.69 134.28,-525.03 114.45,-529.55"/>
<polygon fill="#63b8ff" stroke="#63b8ff" points="179.31,-518.12 188.28,-512.48 177.75,-511.3 179.31,-518.12"/>
</a>
</g>
</g>
<!-- Node16 -->
<g id="Node000016" class="node">
<title>Node16</title>
<g id="a_Node000016"><a xlink:href="class_keysight_m9807_a.html#adf9e166699c89ec3c7f53fae5ec81b0c" target="_top" xlink:title="Включает все порты">
<polygon fill="white" stroke="#666666" points="126.25,-512 9,-512 9,-492 126.25,-492 126.25,-512"/>
<text text-anchor="middle" x="67.62" y="-498.5" font-family="Helvetica,sans-Serif" font-size="10.00">KeysightM9807A::rf_on</text>
</a>
</g>
</g>
<!-- Node4&#45;&gt;Node16 -->
<g id="edge15_Node000004_Node000016" class="edge">
<title>Node4&#45;&gt;Node16</title>
<g id="a_edge15_Node000004_Node000016"><a xlink:title=" ">
<path fill="none" stroke="#63b8ff" d="M160.13,-502C148.89,-502 137.44,-502 126.62,-502"/>
<polygon fill="#63b8ff" stroke="#63b8ff" points="159.83,-505.5 169.83,-502 159.83,-498.5 159.83,-505.5"/>
</a>
</g>
</g>
<!-- Node17 -->
<g id="Node000017" class="node">
<title>Node17</title>
<g id="a_Node000017"><a xlink:href="class_planar_s50244.html#a92cf563ce580b8508cad2cdff68ad084" target="_top" xlink:title="Включает все порты">
<polygon fill="white" stroke="#666666" points="119.5,-474 15.75,-474 15.75,-454 119.5,-454 119.5,-474"/>
<text text-anchor="middle" x="67.62" y="-460.5" font-family="Helvetica,sans-Serif" font-size="10.00">PlanarS50244::rf_on</text>
</a>
</g>
</g>
<!-- Node4&#45;&gt;Node17 -->
<g id="edge16_Node000004_Node000017" class="edge">
<title>Node4&#45;&gt;Node17</title>
<g id="a_edge16_Node000004_Node000017"><a xlink:title=" ">
<path fill="none" stroke="#63b8ff" d="M178.6,-489.08C157.69,-484.31 134.28,-478.97 114.45,-474.45"/>
<polygon fill="#63b8ff" stroke="#63b8ff" points="177.75,-492.7 188.28,-491.52 179.31,-485.88 177.75,-492.7"/>
</a>
</g>
</g>
<!-- Node18 -->
<g id="Node000018" class="node">
<title>Node18</title>
<g id="a_Node000018"><a xlink:href="class_keysight_m9807_a.html#ac6105e309ba2f11a360797e19d34a592" target="_top" xlink:title="Включает выбранный порт">
<polygon fill="white" stroke="#666666" points="126.25,-436 9,-436 9,-416 126.25,-416 126.25,-436"/>
<text text-anchor="middle" x="67.62" y="-422.5" font-family="Helvetica,sans-Serif" font-size="10.00">KeysightM9807A::rf_on</text>
</a>
</g>
</g>
<!-- Node4&#45;&gt;Node18 -->
<g id="edge17_Node000004_Node000018" class="edge">
<title>Node4&#45;&gt;Node18</title>
<g id="a_edge17_Node000004_Node000018"><a xlink:title=" ">
<path fill="none" stroke="#63b8ff" d="M210.74,-485.81C191,-473.32 162.2,-456.33 135.25,-445 127.6,-441.78 119.23,-438.92 111.09,-436.45"/>
<polygon fill="#63b8ff" stroke="#63b8ff" points="208.61,-489.24 218.92,-491.7 212.39,-483.35 208.61,-489.24"/>
</a>
</g>
</g>
<!-- Node19 -->
<g id="Node000019" class="node">
<title>Node19</title>
<g id="a_Node000019"><a xlink:href="class_planar_s50244.html#aeec8379aa2d84a196836a99d13d43bf9" target="_top" xlink:title="Включает выбранный порт">
<polygon fill="white" stroke="#666666" points="119.5,-398 15.75,-398 15.75,-378 119.5,-378 119.5,-398"/>
<text text-anchor="middle" x="67.62" y="-384.5" font-family="Helvetica,sans-Serif" font-size="10.00">PlanarS50244::rf_on</text>
</a>
</g>
</g>
<!-- Node4&#45;&gt;Node19 -->
<g id="edge18_Node000004_Node000019" class="edge">
<title>Node4&#45;&gt;Node19</title>
<g id="a_edge18_Node000004_Node000019"><a xlink:title=" ">
<path fill="none" stroke="#63b8ff" d="M220.59,-483.45C202.67,-461.99 170.37,-427.05 135.25,-407 129.3,-403.6 122.69,-400.77 116.02,-398.43"/>
<polygon fill="#63b8ff" stroke="#63b8ff" points="218.32,-485.2 227.35,-490.73 223.74,-480.77 218.32,-485.2"/>
</a>
</g>
</g>
<!-- Node20 -->
<g id="Node000020" class="node">
<title>Node20</title>
<g id="a_Node000020"><a xlink:href="class_visa_device.html#ab95d81d2e1ebab67621ac7aac769bc64" target="_top" xlink:title="Отправка данных на прибор и чтение ответа от прибора. Также, ожидается завершение выполнения действий...">
<polygon fill="white" stroke="#666666" points="132.62,-360 2.62,-360 2.62,-340 132.62,-340 132.62,-360"/>
<text text-anchor="middle" x="67.62" y="-346.5" font-family="Helvetica,sans-Serif" font-size="10.00">VisaDevice::send_wait_err</text>
</a>
</g>
</g>
<!-- Node4&#45;&gt;Node20 -->
<g id="edge19_Node000004_Node000020" class="edge">
<title>Node4&#45;&gt;Node20</title>
<g id="a_edge19_Node000004_Node000020"><a xlink:title=" ">
<path fill="none" stroke="#63b8ff" d="M225.58,-481.97C210.42,-452.71 178.3,-398.58 135.25,-369 130.29,-365.59 124.73,-362.79 118.99,-360.49"/>
<polygon fill="#63b8ff" stroke="#63b8ff" points="222.76,-483.17 230.38,-490.53 229.02,-480.02 222.76,-483.17"/>
</a>
</g>
</g>
<!-- Node21 -->
<g id="Node000021" class="node">
<title>Node21</title>
<g id="a_Node000021"><a xlink:href="class_keysight_m9807_a.html#a752f62baec908e4e421a95b3c75422fc" target="_top" xlink:title="Установка определённого значения частоты">
<polygon fill="white" stroke="#666666" points="133,-322 2.25,-322 2.25,-302 133,-302 133,-322"/>
<text text-anchor="middle" x="67.62" y="-308.5" font-family="Helvetica,sans-Serif" font-size="10.00">KeysightM9807A::set_freq</text>
</a>
</g>
</g>
<!-- Node4&#45;&gt;Node21 -->
<g id="edge20_Node000004_Node000021" class="edge">
<title>Node4&#45;&gt;Node21</title>
<g id="a_edge20_Node000004_Node000021"><a xlink:title=" ">
<path fill="none" stroke="#63b8ff" d="M228.94,-481.46C216.8,-445.44 186.74,-370.94 135.25,-331 130.78,-327.54 125.71,-324.7 120.41,-322.39"/>
<polygon fill="#63b8ff" stroke="#63b8ff" points="225.84,-482.27 232.25,-490.71 232.5,-480.12 225.84,-482.27"/>
</a>
</g>
</g>
<!-- Node22 -->
<g id="Node000022" class="node">
<title>Node22</title>
<g id="a_Node000022"><a xlink:href="class_planar_s50244.html#a0060e852dd3374f9b4c3c6c93da8c01c" target="_top" xlink:title="Установка определённого значения частоты">
<polygon fill="white" stroke="#666666" points="126.25,-284 9,-284 9,-264 126.25,-264 126.25,-284"/>
<text text-anchor="middle" x="67.62" y="-270.5" font-family="Helvetica,sans-Serif" font-size="10.00">PlanarS50244::set_freq</text>
</a>
</g>
</g>
<!-- Node4&#45;&gt;Node22 -->
<g id="edge21_Node000004_Node000022" class="edge">
<title>Node4&#45;&gt;Node22</title>
<g id="a_edge21_Node000004_Node000022"><a xlink:title=" ">
<path fill="none" stroke="#63b8ff" d="M231.29,-481.39C222.13,-439.45 195.52,-343.89 135.25,-293 131.21,-289.59 126.58,-286.78 121.7,-284.49"/>
<polygon fill="#63b8ff" stroke="#63b8ff" points="228.01,-481.84 233.46,-490.93 234.87,-480.43 228.01,-481.84"/>
</a>
</g>
</g>
<!-- Node23 -->
<g id="Node000023" class="node">
<title>Node23</title>
<g id="a_Node000023"><a xlink:href="class_keysight_m9807_a.html#a2b1761a2a4b4dc696a74590c2cb028de" target="_top" xlink:title="Установка частотного диапазона">
<polygon fill="white" stroke="#666666" points="122.5,-246 12.75,-246 12.75,-214 122.5,-214 122.5,-246"/>
<text text-anchor="start" x="20.75" y="-232.5" font-family="Helvetica,sans-Serif" font-size="10.00">KeysightM9807A::set</text>
<text text-anchor="middle" x="67.62" y="-220.5" font-family="Helvetica,sans-Serif" font-size="10.00">_freq_range</text>
</a>
</g>
</g>
<!-- Node4&#45;&gt;Node23 -->
<g id="edge22_Node000004_Node000023" class="edge">
<title>Node4&#45;&gt;Node23</title>
<g id="a_edge22_Node000004_Node000023"><a xlink:title=" ">
<path fill="none" stroke="#63b8ff" d="M232.51,-481.04C225.29,-434.11 201.54,-319.61 135.25,-255 131.62,-251.46 127.45,-248.42 122.99,-245.8"/>
<polygon fill="#63b8ff" stroke="#63b8ff" points="229.15,-481.28 234.03,-490.69 236.08,-480.29 229.15,-481.28"/>
</a>
</g>
</g>
<!-- Node24 -->
<g id="Node000024" class="node">
<title>Node24</title>
<g id="a_Node000024"><a xlink:href="class_planar_s50244.html#af52408a261d6845f6d44653f4e429f31" target="_top" xlink:title="Установка частотного диапазона">
<polygon fill="white" stroke="#666666" points="126.25,-196 9,-196 9,-164 126.25,-164 126.25,-196"/>
<text text-anchor="start" x="17" y="-182.5" font-family="Helvetica,sans-Serif" font-size="10.00">PlanarS50244::set_freq</text>
<text text-anchor="middle" x="67.62" y="-170.5" font-family="Helvetica,sans-Serif" font-size="10.00">_range</text>
</a>
</g>
</g>
<!-- Node4&#45;&gt;Node24 -->
<g id="edge23_Node000004_Node000024" class="edge">
<title>Node4&#45;&gt;Node24</title>
<g id="a_edge23_Node000004_Node000024"><a xlink:title=" ">
<path fill="none" stroke="#63b8ff" d="M234.15,-480.91C230.26,-427.45 212.77,-285.21 135.25,-205 132.07,-201.71 128.42,-198.85 124.5,-196.37"/>
<polygon fill="#63b8ff" stroke="#63b8ff" points="230.71,-480.95 234.84,-490.71 237.7,-480.51 230.71,-480.95"/>
</a>
</g>
</g>
<!-- Node25 -->
<g id="Node000025" class="node">
<title>Node25</title>
<g id="a_Node000025"><a xlink:href="class_keysight_m9807_a.html#a148ac915640756d3ef0c33d92c1b1205" target="_top" xlink:title="Установка положений переключателей в определённые позиции">
<polygon fill="white" stroke="#666666" points="134.5,-146 0.75,-146 0.75,-126 134.5,-126 134.5,-146"/>
<text text-anchor="middle" x="67.62" y="-132.5" font-family="Helvetica,sans-Serif" font-size="10.00">KeysightM9807A::set_path</text>
</a>
</g>
</g>
<!-- Node4&#45;&gt;Node25 -->
<g id="edge24_Node000004_Node000025" class="edge">
<title>Node4&#45;&gt;Node25</title>
<g id="a_edge24_Node000004_Node000025"><a xlink:title=" ">
<path fill="none" stroke="#63b8ff" d="M235.76,-481.05C236.01,-421.19 228.28,-247.77 135.25,-155 131.84,-151.6 127.87,-148.8 123.6,-146.5"/>
<polygon fill="#63b8ff" stroke="#63b8ff" points="232.25,-480.69 235.61,-490.74 239.25,-480.79 232.25,-480.69"/>
</a>
</g>
</g>
<!-- Node26 -->
<g id="Node000026" class="node">
<title>Node26</title>
<g id="a_Node000026"><a xlink:href="class_keysight_m9807_a.html#ab3a0a48c7e439fab722d902479ff78eb" target="_top" xlink:title="Установка требуемой мощности зондирующего порта">
<polygon fill="white" stroke="#666666" points="122.5,-108 12.75,-108 12.75,-76 122.5,-76 122.5,-108"/>
<text text-anchor="start" x="20.75" y="-94.5" font-family="Helvetica,sans-Serif" font-size="10.00">KeysightM9807A::set</text>
<text text-anchor="middle" x="67.62" y="-82.5" font-family="Helvetica,sans-Serif" font-size="10.00">_power</text>
</a>
</g>
</g>
<!-- Node4&#45;&gt;Node26 -->
<g id="edge25_Node000004_Node000026" class="edge">
<title>Node4&#45;&gt;Node26</title>
<g id="a_edge25_Node000004_Node000026"><a xlink:title=" ">
<path fill="none" stroke="#63b8ff" d="M232.34,-480.8C222.04,-408.42 185.15,-172.43 135.25,-117 131.7,-113.05 127.46,-109.72 122.86,-106.92"/>
<polygon fill="#63b8ff" stroke="#63b8ff" points="229.01,-481.24 233.86,-490.66 235.94,-480.27 229.01,-481.24"/>
</a>
</g>
</g>
<!-- Node27 -->
<g id="Node000027" class="node">
<title>Node27</title>
<g id="a_Node000027"><a xlink:href="class_planar_s50244.html#ad1f033021449cf6c4e0a1eaeafc6dbe3" target="_top" xlink:title="Установка требуемой мощности зондирующего порта">
<polygon fill="white" stroke="#666666" points="131.12,-58 4.12,-58 4.12,-38 131.12,-38 131.12,-58"/>
<text text-anchor="middle" x="67.62" y="-44.5" font-family="Helvetica,sans-Serif" font-size="10.00">PlanarS50244::set_power</text>
</a>
</g>
</g>
<!-- Node4&#45;&gt;Node27 -->
<g id="edge26_Node000004_Node000027" class="edge">
<title>Node4&#45;&gt;Node27</title>
<g id="a_edge26_Node000004_Node000027"><a xlink:title=" ">
<path fill="none" stroke="#63b8ff" d="M233.23,-481C225.26,-402.62 193.62,-128.48 135.25,-67 132.02,-63.6 128.23,-60.79 124.12,-58.48"/>
<polygon fill="#63b8ff" stroke="#63b8ff" points="229.83,-481.23 234.3,-490.84 236.8,-480.54 229.83,-481.23"/>
</a>
</g>
</g>
<!-- Node28 -->
<g id="Node000028" class="node">
<title>Node28</title>
<g id="a_Node000028"><a xlink:href="class_keysight_m9807_a.html#a83a1f840e34e3ecb56c319649725efb8" target="_top" xlink:title="Перевод триггера в режим manual.">
<polygon fill="white" stroke="#666666" points="129.25,-20 6,-20 6,0 129.25,0 129.25,-20"/>
<text text-anchor="middle" x="67.62" y="-6.5" font-family="Helvetica,sans-Serif" font-size="10.00">KeysightM9807A::trigger</text>
</a>
</g>
</g>
<!-- Node4&#45;&gt;Node28 -->
<g id="edge27_Node000004_Node000028" class="edge">
<title>Node4&#45;&gt;Node28</title>
<g id="a_edge27_Node000004_Node000028"><a xlink:title=" ">
<path fill="none" stroke="#63b8ff" d="M233.65,-481.05C226.92,-398.47 198.35,-96.64 135.25,-29 132.05,-25.57 128.28,-22.74 124.18,-20.42"/>
<polygon fill="#63b8ff" stroke="#63b8ff" points="230.22,-481.09 234.5,-490.78 237.2,-480.54 230.22,-481.09"/>
</a>
</g>
</g>
</g>
</svg>
