<?xml version="1.0" encoding="UTF-8" standalone="no"?>
<!DOCTYPE svg PUBLIC "-//W3C//DTD SVG 1.1//EN"
 "http://www.w3.org/Graphics/SVG/1.1/DTD/svg11.dtd">
<!-- Generated by graphviz version 8.0.5 (20230430.1635)
 -->
<!-- Title: SocketServer::send_data Pages: 1 -->
<svg width="391pt" height="142pt"
 viewBox="0.00 0.00 391.25 142.00" xmlns="http://www.w3.org/2000/svg" xmlns:xlink="http://www.w3.org/1999/xlink">
<g id="graph0" class="graph" transform="scale(1 1) rotate(0) translate(4 138)">
<title>SocketServer::send_data</title>
<!-- Node1 -->
<g id="Node000001" class="node">
<title>Node1</title>
<g id="a_Node000001"><a xlink:title="Отправка данных клиенту">
<polygon fill="#999999" stroke="#666666" points="124.75,-77 0,-77 0,-57 124.75,-57 124.75,-77"/>
<text text-anchor="middle" x="62.38" y="-63.5" font-family="Helvetica,sans-Serif" font-size="10.00">SocketServer::send_data</text>
</a>
</g>
</g>
<!-- Node2 -->
<g id="Node000002" class="node">
<title>Node2</title>
<g id="a_Node000002"><a xlink:href="class_logger.html#af7709105c2708359b7b082218f4cc3e1" target="_top" xlink:title="Метод, осуществляющий логирование">
<polygon fill="white" stroke="#666666" points="224.75,-77 160.75,-77 160.75,-57 224.75,-57 224.75,-77"/>
<text text-anchor="middle" x="192.75" y="-63.5" font-family="Helvetica,sans-Serif" font-size="10.00">Logger::log</text>
</a>
</g>
</g>
<!-- Node1&#45;&gt;Node2 -->
<g id="edge1_Node000001_Node000002" class="edge">
<title>Node1&#45;&gt;Node2</title>
<g id="a_edge1_Node000001_Node000002"><a xlink:title=" ">
<path fill="none" stroke="#63b8ff" d="M124.93,-67C133.33,-67 141.79,-67 149.73,-67"/>
<polygon fill="#63b8ff" stroke="#63b8ff" points="149.55,-70.5 159.55,-67 149.55,-63.5 149.55,-70.5"/>
</a>
</g>
</g>
<!-- Node3 -->
<g id="Node000003" class="node">
<title>Node3</title>
<g id="a_Node000003"><a xlink:href="logger_8hpp.html#a49284b7befa8e31f81e01ee8f3735dd0" target="_top" xlink:title="Функция, которая снимает значение текущего времени и конвертирует его в строку с заданным шаблоном.">
<polygon fill="white" stroke="#666666" points="366.38,-134 277.62,-134 277.62,-114 366.38,-114 366.38,-134"/>
<text text-anchor="middle" x="322" y="-120.5" font-family="Helvetica,sans-Serif" font-size="10.00">get_current_time</text>
</a>
</g>
</g>
<!-- Node2&#45;&gt;Node3 -->
<g id="edge2_Node000002_Node000003" class="edge">
<title>Node2&#45;&gt;Node3</title>
<g id="a_edge2_Node000002_Node000003"><a xlink:title=" ">
<path fill="none" stroke="#63b8ff" d="M209.77,-77.36C223.05,-85.63 242.6,-97.1 260.75,-105 264.82,-106.77 269.11,-108.46 273.45,-110.05"/>
<polygon fill="#63b8ff" stroke="#63b8ff" points="271.99,-113.59 282.59,-113.55 274.28,-106.97 271.99,-113.59"/>
</a>
</g>
</g>
<!-- Node4 -->
<g id="Node000004" class="node">
<title>Node4</title>
<g id="a_Node000004"><a xlink:href="class_logger.html#a6edb7b263f080d417b82a537ed50fee4" target="_top" xlink:title="Возвращает тег в зависимости от уровня логирования и от назначения тега.">
<polygon fill="white" stroke="#666666" points="363.75,-96 280.25,-96 280.25,-76 363.75,-76 363.75,-96"/>
<text text-anchor="middle" x="322" y="-82.5" font-family="Helvetica,sans-Serif" font-size="10.00">Logger::get_tag</text>
</a>
</g>
</g>
<!-- Node2&#45;&gt;Node4 -->
<g id="edge3_Node000002_Node000004" class="edge">
<title>Node2&#45;&gt;Node4</title>
<g id="a_edge3_Node000002_Node000004"><a xlink:title=" ">
<path fill="none" stroke="#63b8ff" d="M225.21,-71.7C238.47,-73.68 254.27,-76.04 269.17,-78.26"/>
<polygon fill="#63b8ff" stroke="#63b8ff" points="268.41,-81.84 278.82,-79.85 269.44,-74.91 268.41,-81.84"/>
</a>
</g>
</g>
<!-- Node5 -->
<g id="Node000005" class="node">
<title>Node5</title>
<g id="a_Node000005"><a xlink:href="class_logger.html#a4825613142ebb093bf8fa26f21f7f3fc" target="_top" xlink:title="Метод, который выводит сообщение в консоль.">
<polygon fill="white" stroke="#666666" points="383.25,-58 260.75,-58 260.75,-38 383.25,-38 383.25,-58"/>
<text text-anchor="middle" x="322" y="-44.5" font-family="Helvetica,sans-Serif" font-size="10.00">Logger::print_to_console</text>
</a>
</g>
</g>
<!-- Node2&#45;&gt;Node5 -->
<g id="edge4_Node000002_Node000005" class="edge">
<title>Node2&#45;&gt;Node5</title>
<g id="a_edge4_Node000002_Node000005"><a xlink:title=" ">
<path fill="none" stroke="#63b8ff" d="M225.21,-62.3C232.71,-61.18 241.02,-59.94 249.53,-58.67"/>
<polygon fill="#63b8ff" stroke="#63b8ff" points="249.98,-61.99 259.35,-57.06 248.94,-55.07 249.98,-61.99"/>
</a>
</g>
</g>
<!-- Node6 -->
<g id="Node000006" class="node">
<title>Node6</title>
<g id="a_Node000006"><a xlink:href="class_logger.html#a999bb33f7cf079cb98f32fae6016a2f3" target="_top" xlink:title="Метод, который записывает сообщение в файл.">
<polygon fill="white" stroke="#666666" points="372.38,-20 271.62,-20 271.62,0 372.38,0 372.38,-20"/>
<text text-anchor="middle" x="322" y="-6.5" font-family="Helvetica,sans-Serif" font-size="10.00">Logger::print_to_file</text>
</a>
</g>
</g>
<!-- Node2&#45;&gt;Node6 -->
<g id="edge5_Node000002_Node000006" class="edge">
<title>Node2&#45;&gt;Node6</title>
<g id="a_edge5_Node000002_Node000006"><a xlink:title=" ">
<path fill="none" stroke="#63b8ff" d="M209.77,-56.64C223.05,-48.37 242.6,-36.9 260.75,-29 264.82,-27.23 269.11,-25.54 273.45,-23.95"/>
<polygon fill="#63b8ff" stroke="#63b8ff" points="274.28,-27.03 282.59,-20.45 271.99,-20.41 274.28,-27.03"/>
</a>
</g>
</g>
</g>
</svg>
