<?xml version="1.0" encoding="UTF-8" standalone="no"?>
<!DOCTYPE svg PUBLIC "-//W3C//DTD SVG 1.1//EN"
 "http://www.w3.org/Graphics/SVG/1.1/DTD/svg11.dtd">
<!-- Generated by graphviz version 8.0.5 (20230430.1635)
 -->
<!-- Title: KeysightGen::rf_off Pages: 1 -->
<svg width="261pt" height="166pt"
 viewBox="0.00 0.00 260.50 166.00" xmlns="http://www.w3.org/2000/svg" xmlns:xlink="http://www.w3.org/1999/xlink">

<svg id="main" version="1.1" xmlns="http://www.w3.org/2000/svg" xmlns:xlink="http://www.w3.org/1999/xlink" xml:space="preserve" onload="init(evt)">
<style type="text/css"><![CDATA[
.node, .edge {opacity: 0.7;}
.node.selected, .edge.selected {opacity: 1;}
.edge:hover path { stroke: red; }
.edge:hover polygon { stroke: red; fill: red; }
]]></style>
<script type="application/ecmascript" xlink:href="svg.min.js"/>
<svg id="graph" class="graph">
<g id="graph0" class="graph" transform="scale(1 1) rotate(0) translate(4 162)">
<title>KeysightGen::rf_off</title>
<!-- Node1 -->
<g id="Node000001" class="node">
<title>Node1</title>
<g id="a_Node000001"><a xlink:title=" ">
<polygon fill="#999999" stroke="#666666" points="252.5,-80 154,-80 154,-60 252.5,-60 252.5,-80"/>
<text text-anchor="middle" x="203.25" y="-66.5" font-family="Helvetica,sans-Serif" font-size="10.00">KeysightGen::rf_off</text>
</a>
</g>
</g>
<!-- Node2 -->
<g id="Node000002" class="node">
<title>Node2</title>
<g id="a_Node000002"><a xlink:href="class_keysight_gen.html#a8bbdbb1eba9f85c5e9efa9bd5df0313f" target="_top" xlink:title=" ">
<polygon fill="white" stroke="#666666" points="116.12,-158 1.87,-158 1.87,-126 116.12,-126 116.12,-158"/>
<text text-anchor="start" x="9.88" y="-144.5" font-family="Helvetica,sans-Serif" font-size="10.00">KeysightGen::move_to</text>
<text text-anchor="middle" x="59" y="-132.5" font-family="Helvetica,sans-Serif" font-size="10.00">_start_freq</text>
</a>
</g>
</g>
<!-- Node1&#45;&gt;Node2 -->
<g id="edge1_Node000001_Node000002" class="edge">
<title>Node1&#45;&gt;Node2</title>
<g id="a_edge1_Node000001_Node000002"><a xlink:title=" ">
<path fill="none" stroke="#63b8ff" d="M175.31,-85.95C158.96,-95.4 137.53,-107.37 118,-117 112.1,-119.91 105.78,-122.83 99.56,-125.59"/>
<polygon fill="#63b8ff" stroke="#63b8ff" points="176.9,-88.49 183.78,-80.43 173.38,-82.45 176.9,-88.49"/>
</a>
</g>
</g>
<!-- Node3 -->
<g id="Node000003" class="node">
<title>Node3</title>
<g id="a_Node000003"><a xlink:href="class_keysight_gen.html#a7e1a018b3518d03e94504b48ea444b6f" target="_top" xlink:title=" ">
<polygon fill="white" stroke="#666666" points="116.12,-108 1.87,-108 1.87,-76 116.12,-76 116.12,-108"/>
<text text-anchor="start" x="9.88" y="-94.5" font-family="Helvetica,sans-Serif" font-size="10.00">KeysightGen::move_to</text>
<text text-anchor="middle" x="59" y="-82.5" font-family="Helvetica,sans-Serif" font-size="10.00">_stop_freq</text>
</a>
</g>
</g>
<!-- Node1&#45;&gt;Node3 -->
<g id="edge2_Node000001_Node000003" class="edge">
<title>Node1&#45;&gt;Node3</title>
<g id="a_edge2_Node000001_Node000003"><a xlink:title=" ">
<path fill="none" stroke="#63b8ff" d="M143.02,-79.16C134.13,-80.53 124.99,-81.95 116.17,-83.31"/>
<polygon fill="#63b8ff" stroke="#63b8ff" points="143.35,-82.5 152.69,-77.51 142.28,-75.58 143.35,-82.5"/>
</a>
</g>
</g>
<!-- Node4 -->
<g id="Node000004" class="node">
<title>Node4</title>
<g id="a_Node000004"><a xlink:href="class_keysight_gen.html#a218a478d0600e3fc2985adf86a049435" target="_top" xlink:title=" ">
<polygon fill="white" stroke="#666666" points="118,-58 0,-58 0,-38 118,-38 118,-58"/>
<text text-anchor="middle" x="59" y="-44.5" font-family="Helvetica,sans-Serif" font-size="10.00">KeysightGen::next_freq</text>
</a>
</g>
</g>
<!-- Node1&#45;&gt;Node4 -->
<g id="edge3_Node000001_Node000004" class="edge">
<title>Node1&#45;&gt;Node4</title>
<g id="a_edge3_Node000001_Node000004"><a xlink:title=" ">
<path fill="none" stroke="#63b8ff" d="M143.04,-60.84C134.82,-59.57 126.37,-58.26 118.16,-57"/>
<polygon fill="#63b8ff" stroke="#63b8ff" points="142.28,-64.42 152.69,-62.49 143.35,-57.5 142.28,-64.42"/>
</a>
</g>
</g>
<!-- Node5 -->
<g id="Node000005" class="node">
<title>Node5</title>
<g id="a_Node000005"><a xlink:href="class_keysight_gen.html#aa243d66cc8ba6c1d87359f4db4f371ac" target="_top" xlink:title=" ">
<polygon fill="white" stroke="#666666" points="117.25,-20 0.75,-20 0.75,0 117.25,0 117.25,-20"/>
<text text-anchor="middle" x="59" y="-6.5" font-family="Helvetica,sans-Serif" font-size="10.00">KeysightGen::prev_freq</text>
</a>
</g>
</g>
<!-- Node1&#45;&gt;Node5 -->
<g id="edge4_Node000001_Node000005" class="edge">
<title>Node1&#45;&gt;Node5</title>
<g id="a_edge4_Node000001_Node000005"><a xlink:title=" ">
<path fill="none" stroke="#63b8ff" d="M173.47,-54.78C157.39,-46.59 136.85,-36.63 118,-29 110.54,-25.98 102.39,-23.08 94.63,-20.49"/>
<polygon fill="#63b8ff" stroke="#63b8ff" points="171.35,-58.15 181.85,-59.62 174.56,-51.93 171.35,-58.15"/>
</a>
</g>
</g>
</g>
</svg>
</svg>

<style type='text/css'>
<![CDATA[
[data-mouse-over-selected='false'] { opacity: 0.7; }
[data-mouse-over-selected='true']  { opacity: 1.0; }
]]>
</style>
<script type="application/ecmascript"><![CDATA[
document.addEventListener('DOMContentLoaded', (event) => {
  highlightEdges();
  highlightAdjacentNodes();
});
]]></script>
</svg>
