<?xml version="1.0" encoding="UTF-8" standalone="no"?>
<!DOCTYPE svg PUBLIC "-//W3C//DTD SVG 1.1//EN"
 "http://www.w3.org/Graphics/SVG/1.1/DTD/svg11.dtd">
<!-- Generated by graphviz version 8.0.5 (20230430.1635)
 -->
<!-- Title: RbdDevice::is_connected Pages: 1 -->
<!--zoomable 101 -->

<svg id="main" version="1.1" xmlns="http://www.w3.org/2000/svg" xmlns:xlink="http://www.w3.org/1999/xlink" xml:space="preserve" onload="init(evt)">
<style type="text/css"><![CDATA[
.node, .edge {opacity: 0.7;}
.node.selected, .edge.selected {opacity: 1;}
.edge:hover path { stroke: red; }
.edge:hover polygon { stroke: red; fill: red; }
]]></style>

<defs>
  <circle id="rim" cx="0" cy="0" r="7"/>
  <circle id="rim2" cx="0" cy="0" r="3.5"/>
  <g id="zoomPlus">
    <use xlink:href="#rim" fill="#404040"><set attributeName="fill" to="#808080" begin="zoomplus.mouseover" end="zoomplus.mouseout"/></use>
    <path d="M-4,0h8M0,-4v8" fill="none" stroke="white" stroke-width="1.5" pointer-events="none"/>
  </g>
  <g id="zoomMin">
    <use xlink:href="#rim" fill="#404040"><set attributeName="fill" to="#808080" begin="zoomminus.mouseover" end="zoomminus.mouseout"/></use>
    <path d="M-4,0h8" fill="none" stroke="white" stroke-width="1.5" pointer-events="none"/>
  </g>
  <g id="arrowUp" transform="translate(30 24)">
    <use xlink:href="#rim"/>
    <path pointer-events="none" fill="none" stroke="white" stroke-width="1.5" d="M0,-3.0v7 M-2.5,-0.5L0,-3.0L2.5,-0.5"/>
  </g>
  <g id="arrowRight" transform="rotate(90) translate(36 -43)">
    <use xlink:href="#rim"/>
    <path pointer-events="none" fill="none" stroke="white" stroke-width="1.5" d="M0,-3.0v7 M-2.5,-0.5L0,-3.0L2.5,-0.5"/>
  </g>
  <g id="arrowDown" transform="rotate(180) translate(-30 -48)">
    <use xlink:href="#rim"/>
    <path pointer-events="none" fill="none" stroke="white" stroke-width="1.5" d="M0,-3.0v7 M-2.5,-0.5L0,-3.0L2.5,-0.5"/>
  </g>
  <g id="arrowLeft" transform="rotate(270) translate(-36 17)">
    <use xlink:href="#rim"/>
    <path pointer-events="none" fill="none" stroke="white" stroke-width="1.5" d="M0,-3.0v7 M-2.5,-0.5L0,-3.0L2.5,-0.5"/>
  </g>
  <g id="resetDef">
    <use xlink:href="#rim2" fill="#404040"><set attributeName="fill" to="#808080" begin="reset.mouseover" end="reset.mouseout"/></use>
  </g>
</defs>
<script type="application/ecmascript">
var viewWidth = 1304;
var viewHeight = 101;
var sectionId = 'dynsection-3';
</script>
<script type="application/ecmascript" xlink:href="svg.min.js"/>
<svg id="graph" class="graph">
<g id="viewport">
<title>RbdDevice::is_connected</title>
<!-- Node1 -->
<g id="Node000001" class="node">
<title>Node1</title>
<g id="a_Node000001"><a xlink:title=" ">
<polygon fill="#999999" stroke="#666666" points="1296,-48 1170.5,-48 1170.5,-28 1296,-28 1296,-48"/>
<text text-anchor="middle" x="1233.25" y="-34.5" font-family="Helvetica,sans-Serif" font-size="10.00">RbdDevice::is_connected</text>
</a>
</g>
</g>
<!-- Node2 -->
<g id="Node000002" class="node">
<title>Node2</title>
<g id="a_Node000002"><a xlink:href="class_device_set.html#a2dab046962f4ada089046e2fa4769c23" target="_top" xlink:title=" ">
<polygon fill="white" stroke="#666666" points="1127.38,-70 1027.38,-70 1027.38,-50 1127.38,-50 1127.38,-70"/>
<text text-anchor="middle" x="1077.38" y="-56.5" font-family="Helvetica,sans-Serif" font-size="10.00">DeviceSet::connect</text>
</a>
</g>
</g>
<!-- Node1&#45;&gt;Node2 -->
<g id="edge1_Node000001_Node000002" class="edge">
<title>Node1&#45;&gt;Node2</title>
<g id="a_edge1_Node000001_Node000002"><a xlink:title=" ">
<path fill="none" stroke="#63b8ff" d="M1159.37,-48.42C1148.57,-49.96 1137.66,-51.52 1127.5,-52.98"/>
<polygon fill="#63b8ff" stroke="#63b8ff" points="1159.7,-51.77 1169.11,-46.88 1158.71,-44.84 1159.7,-51.77"/>
</a>
</g>
</g>
<!-- Node10 -->
<g id="Node000010" class="node">
<title>Node10</title>
<g id="a_Node000010"><a xlink:href="class_device_set.html#a3d6e4e4745a60475d3ec2d778e48ff51" target="_top" xlink:title=" ">
<polygon fill="white" stroke="#666666" points="1134.5,-32 1020.25,-32 1020.25,0 1134.5,0 1134.5,-32"/>
<text text-anchor="start" x="1028.25" y="-18.5" font-family="Helvetica,sans-Serif" font-size="10.00">DeviceSet::get_current</text>
<text text-anchor="middle" x="1077.38" y="-6.5" font-family="Helvetica,sans-Serif" font-size="10.00">_angles</text>
</a>
</g>
</g>
<!-- Node1&#45;&gt;Node10 -->
<g id="edge11_Node000001_Node000010" class="edge">
<title>Node1&#45;&gt;Node10</title>
<g id="a_edge11_Node000001_Node000010"><a xlink:title=" ">
<path fill="none" stroke="#63b8ff" d="M1159.33,-27.57C1151.09,-26.4 1142.78,-25.21 1134.79,-24.07"/>
<polygon fill="#63b8ff" stroke="#63b8ff" points="1158.71,-31.16 1169.11,-29.12 1159.7,-24.23 1158.71,-31.16"/>
</a>
</g>
</g>
<!-- Node3 -->
<g id="Node000003" class="node">
<title>Node3</title>
<g id="a_Node000003"><a xlink:href="class_task_manager.html#a77f0d9e4c9363a126cedba6c47cece49" target="_top" xlink:title=" ">
<polygon fill="white" stroke="#666666" points="984.25,-70 845.25,-70 845.25,-50 984.25,-50 984.25,-70"/>
<text text-anchor="middle" x="914.75" y="-56.5" font-family="Helvetica,sans-Serif" font-size="10.00">TaskManager::connect_task</text>
</a>
</g>
</g>
<!-- Node2&#45;&gt;Node3 -->
<g id="edge2_Node000002_Node000003" class="edge">
<title>Node2&#45;&gt;Node3</title>
<g id="a_edge2_Node000002_Node000003"><a xlink:title=" ">
<path fill="none" stroke="#63b8ff" d="M1016.32,-60C1005.98,-60 995.17,-60 984.62,-60"/>
<polygon fill="#63b8ff" stroke="#63b8ff" points="1016.31,-63.5 1026.31,-60 1016.31,-56.5 1016.31,-63.5"/>
</a>
</g>
</g>
<!-- Node4 -->
<g id="Node000004" class="node">
<title>Node4</title>
<g id="a_Node000004"><a xlink:href="class_task_manager.html#abf6a739a56cdc1bdf2cd71666c6f31be" target="_top" xlink:title=" ">
<polygon fill="white" stroke="#666666" points="807.75,-70 668.75,-70 668.75,-50 807.75,-50 807.75,-70"/>
<text text-anchor="middle" x="738.25" y="-56.5" font-family="Helvetica,sans-Serif" font-size="10.00">TaskManager::proceed_task</text>
</a>
</g>
</g>
<!-- Node3&#45;&gt;Node4 -->
<g id="edge3_Node000003_Node000004" class="edge">
<title>Node3&#45;&gt;Node4</title>
<g id="a_edge3_Node000003_Node000004"><a xlink:title=" ">
<path fill="none" stroke="#63b8ff" d="M833.9,-60C825.25,-60 816.5,-60 808,-60"/>
<polygon fill="#63b8ff" stroke="#63b8ff" points="833.78,-63.5 843.78,-60 833.78,-56.5 833.78,-63.5"/>
</a>
</g>
</g>
<!-- Node5 -->
<g id="Node000005" class="node">
<title>Node5</title>
<g id="a_Node000005"><a xlink:href="class_task_manager.html#a62720d3b2e70353688122cf2b706b3ce" target="_top" xlink:title=" ">
<polygon fill="white" stroke="#666666" points="329.25,-92 214.25,-92 214.25,-72 329.25,-72 329.25,-92"/>
<text text-anchor="middle" x="271.75" y="-78.5" font-family="Helvetica,sans-Serif" font-size="10.00">TaskManager::proceed</text>
</a>
</g>
</g>
<!-- Node4&#45;&gt;Node5 -->
<g id="edge4_Node000004_Node000005" class="edge">
<title>Node4&#45;&gt;Node5</title>
<g id="a_edge4_Node000004_Node000005"><a xlink:title=" ">
<path fill="none" stroke="#63b8ff" d="M691.75,-73.17C673.16,-77.91 651.35,-82.66 631.25,-85 525.22,-97.33 400.36,-91.8 329.49,-86.8"/>
<polygon fill="#63b8ff" stroke="#63b8ff" points="692.5,-76.33 701.28,-70.4 690.72,-69.56 692.5,-76.33"/>
</a>
</g>
</g>
<!-- Node8 -->
<g id="Node000008" class="node">
<title>Node8</title>
<g id="a_Node000008"><a xlink:href="class_task_manager.html#ad9d635ee64d44cc34b619f2e3018e9d1" target="_top" xlink:title=" ">
<polygon fill="white" stroke="#666666" points="631.25,-76 516.25,-76 516.25,-44 631.25,-44 631.25,-76"/>
<text text-anchor="start" x="524.25" y="-62.5" font-family="Helvetica,sans-Serif" font-size="10.00">TaskManager::proceed</text>
<text text-anchor="middle" x="573.75" y="-50.5" font-family="Helvetica,sans-Serif" font-size="10.00">_nested_task_list</text>
</a>
</g>
</g>
<!-- Node4&#45;&gt;Node8 -->
<g id="edge7_Node000004_Node000008" class="edge">
<title>Node4&#45;&gt;Node8</title>
<g id="a_edge7_Node000004_Node000008"><a xlink:title=" ">
<path fill="none" stroke="#63b8ff" d="M657.4,-60C648.74,-60 640.05,-60 631.74,-60"/>
<polygon fill="#63b8ff" stroke="#63b8ff" points="657.34,-63.5 667.34,-60 657.34,-56.5 657.34,-63.5"/>
</a>
</g>
</g>
<!-- Node9 -->
<g id="Node000009" class="node">
<title>Node9</title>
<g id="a_Node000009"><a xlink:href="class_task_manager.html#a4b629612e2a111fdcc964c4eb3f8b1f4" target="_top" xlink:title=" ">
<polygon fill="white" stroke="#666666" points="480.25,-76 365.25,-76 365.25,-44 480.25,-44 480.25,-76"/>
<text text-anchor="start" x="373.25" y="-62.5" font-family="Helvetica,sans-Serif" font-size="10.00">TaskManager::proceed</text>
<text text-anchor="middle" x="422.75" y="-50.5" font-family="Helvetica,sans-Serif" font-size="10.00">_task_list</text>
</a>
</g>
</g>
<!-- Node4&#45;&gt;Node9 -->
<g id="edge10_Node000004_Node000009" class="edge">
<title>Node4&#45;&gt;Node9</title>
<g id="a_edge10_Node000004_Node000009"><a xlink:title=" ">
<path fill="none" stroke="#63b8ff" d="M691.75,-46.83C673.16,-42.09 651.35,-37.34 631.25,-35 580.48,-29.09 566.92,-28.27 516.25,-35 502.73,-36.8 488.38,-40.01 475.12,-43.54"/>
<polygon fill="#63b8ff" stroke="#63b8ff" points="690.72,-50.44 701.28,-49.6 692.5,-43.67 690.72,-50.44"/>
</a>
</g>
</g>
<!-- Node6 -->
<g id="Node000006" class="node">
<title>Node6</title>
<g id="a_Node000006"><a xlink:href="main_8cpp.html#a205c0f32d26b6f27c711fa201d02c983" target="_top" xlink:title=" ">
<polygon fill="white" stroke="#666666" points="178.25,-92 73,-92 73,-72 178.25,-72 178.25,-92"/>
<text text-anchor="middle" x="125.62" y="-78.5" font-family="Helvetica,sans-Serif" font-size="10.00">data_server_thread_f</text>
</a>
</g>
</g>
<!-- Node5&#45;&gt;Node6 -->
<g id="edge5_Node000005_Node000006" class="edge">
<title>Node5&#45;&gt;Node6</title>
<g id="a_edge5_Node000005_Node000006"><a xlink:title=" ">
<path fill="none" stroke="#63b8ff" d="M203.03,-82C194.78,-82 186.46,-82 178.49,-82"/>
<polygon fill="#63b8ff" stroke="#63b8ff" points="202.79,-85.5 212.79,-82 202.79,-78.5 202.79,-85.5"/>
</a>
</g>
</g>
<!-- Node7 -->
<g id="Node000007" class="node">
<title>Node7</title>
<g id="a_Node000007"><a xlink:href="main_8cpp.html#a0ddf1224851353fc92bfbff6f499fa97" target="_top" xlink:title=" ">
<polygon fill="white" stroke="#666666" points="37,-92 0,-92 0,-72 37,-72 37,-92"/>
<text text-anchor="middle" x="18.5" y="-78.5" font-family="Helvetica,sans-Serif" font-size="10.00">main</text>
</a>
</g>
</g>
<!-- Node6&#45;&gt;Node7 -->
<g id="edge6_Node000006_Node000007" class="edge">
<title>Node6&#45;&gt;Node7</title>
<g id="a_edge6_Node000006_Node000007"><a xlink:title=" ">
<path fill="none" stroke="#63b8ff" d="M61.91,-82C52.84,-82 44.2,-82 37.1,-82"/>
<polygon fill="#63b8ff" stroke="#63b8ff" points="61.68,-85.5 71.68,-82 61.68,-78.5 61.68,-85.5"/>
</a>
</g>
</g>
<!-- Node8&#45;&gt;Node9 -->
<g id="edge8_Node000008_Node000009" class="edge">
<title>Node8&#45;&gt;Node9</title>
<g id="a_edge8_Node000008_Node000009"><a xlink:title=" ">
<path fill="none" stroke="#63b8ff" d="M505.18,-60C496.88,-60 488.46,-60 480.35,-60"/>
<polygon fill="#63b8ff" stroke="#63b8ff" points="504.99,-63.5 514.99,-60 504.99,-56.5 504.99,-63.5"/>
</a>
</g>
</g>
<!-- Node9&#45;&gt;Node5 -->
<g id="edge9_Node000009_Node000005" class="edge">
<title>Node9&#45;&gt;Node5</title>
<g id="a_edge9_Node000009_Node000005"><a xlink:title=" ">
<path fill="none" stroke="#63b8ff" d="M354.18,-69.98C345.88,-71.2 337.46,-72.44 329.35,-73.64"/>
<polygon fill="#63b8ff" stroke="#63b8ff" points="354.61,-73.3 363.99,-68.38 353.59,-66.38 354.61,-73.3"/>
</a>
</g>
</g>
<!-- Node11 -->
<g id="Node000011" class="node">
<title>Node11</title>
<g id="a_Node000011"><a xlink:href="class_device_set.html#acd9efc5319ee177c97aef57f98469d0d" target="_top" xlink:title=" ">
<polygon fill="white" stroke="#666666" points="966.25,-26 863.25,-26 863.25,-6 966.25,-6 966.25,-26"/>
<text text-anchor="middle" x="914.75" y="-12.5" font-family="Helvetica,sans-Serif" font-size="10.00">DeviceSet::get_data</text>
</a>
</g>
</g>
<!-- Node10&#45;&gt;Node11 -->
<g id="edge12_Node000010_Node000011" class="edge">
<title>Node10&#45;&gt;Node11</title>
<g id="a_edge12_Node000010_Node000011"><a xlink:title=" ">
<path fill="none" stroke="#63b8ff" d="M1009.38,-16C995.05,-16 980.13,-16 966.53,-16"/>
<polygon fill="#63b8ff" stroke="#63b8ff" points="1009.2,-19.5 1019.2,-16 1009.2,-12.5 1009.2,-19.5"/>
</a>
</g>
</g>
<!-- Node12 -->
<g id="Node000012" class="node">
<title>Node12</title>
<g id="a_Node000012"><a xlink:href="class_task_manager.html#a7b3231694b87f589a6e4b9a01e67bfe9" target="_top" xlink:title=" ">
<polygon fill="white" stroke="#666666" points="809.25,-26 667.25,-26 667.25,-6 809.25,-6 809.25,-26"/>
<text text-anchor="middle" x="738.25" y="-12.5" font-family="Helvetica,sans-Serif" font-size="10.00">TaskManager::get_data_task</text>
</a>
</g>
</g>
<!-- Node11&#45;&gt;Node12 -->
<g id="edge13_Node000011_Node000012" class="edge">
<title>Node11&#45;&gt;Node12</title>
<g id="a_edge13_Node000011_Node000012"><a xlink:title=" ">
<path fill="none" stroke="#63b8ff" d="M852.05,-16C838.35,-16 823.73,-16 809.71,-16"/>
<polygon fill="#63b8ff" stroke="#63b8ff" points="851.81,-19.5 861.81,-16 851.81,-12.5 851.81,-19.5"/>
</a>
</g>
</g>
</g>
</svg>

<g id="navigator" transform="translate(0 0)" fill="#404254">
  <rect fill="#f2f5e9" fill-opacity="0.5" stroke="#606060" stroke-width=".5" x="0" y="0" width="60" height="60"/>
  <use id="zoomplus" xlink:href="#zoomPlus" x="17" y="9" onmousedown="handleZoom(evt,'in')"/>
  <use id="zoomminus" xlink:href="#zoomMin" x="42" y="9" onmousedown="handleZoom(evt,'out')"/>
  <use id="reset" xlink:href="#resetDef" x="30" y="36" onmousedown="handleReset()"/>
   <use id="arrowup" xlink:href="#arrowUp" x="0" y="0" onmousedown="handlePan(0,-1)"/>
  <use id="arrowright" xlink:href="#arrowRight" x="0" y="0" onmousedown="handlePan(1,0)"/>
  <use id="arrowdown" xlink:href="#arrowDown" x="0" y="0" onmousedown="handlePan(0,1)"/>
  <use id="arrowleft" xlink:href="#arrowLeft" x="0" y="0" onmousedown="handlePan(-1,0)"/>
</g>
<svg viewBox="0 0 15 15" width="100%" height="30px" preserveAspectRatio="xMaxYMin meet">
 <g id="arrow_out" transform="scale(0.3 0.3)">
  <a xlink:href="class_rbd_device_a7f0fc01b4d9a94bae816f55828bd74e9_icgraph_org.svg" target="_base">
   <rect id="button" ry="5" rx="5" y="6" x="6" height="38" width="38"
        fill="#f2f5e9" fill-opacity="0.5" stroke="#606060" stroke-width="1.0"/>
   <path id="arrow"
     d="M 11.500037,31.436501 C 11.940474,20.09759 22.043105,11.32322 32.158766,21.979434 L 37.068811,17.246167 C 37.068811,17.246167 37.088388,32 37.088388,32 L 22.160133,31.978069 C 22.160133,31.978069 26.997745,27.140456 26.997745,27.140456 C 18.528582,18.264221 13.291696,25.230495 11.500037,31.436501 z"
     style="fill:#404040;"/>
  </a>
 </g>
</svg>

<style type='text/css'>
<![CDATA[
[data-mouse-over-selected='false'] { opacity: 0.7; }
[data-mouse-over-selected='true']  { opacity: 1.0; }
]]>
</style>
<script type="application/ecmascript"><![CDATA[
document.addEventListener('DOMContentLoaded', (event) => {
  highlightEdges();
  highlightAdjacentNodes();
});
]]></script>
</svg>
