<?xml version="1.0" encoding="UTF-8" standalone="no"?>
<!DOCTYPE svg PUBLIC "-//W3C//DTD SVG 1.1//EN"
 "http://www.w3.org/Graphics/SVG/1.1/DTD/svg11.dtd">
<!-- Generated by graphviz version 8.0.5 (20230430.1635)
 -->
<!-- Title: VisaDevice::clear Pages: 1 -->
<svg width="259pt" height="104pt"
 viewBox="0.00 0.00 259.00 104.00" xmlns="http://www.w3.org/2000/svg" xmlns:xlink="http://www.w3.org/1999/xlink">
<g id="graph0" class="graph" transform="scale(1 1) rotate(0) translate(4 100)">
<title>VisaDevice::clear</title>
<!-- Node1 -->
<g id="Node000001" class="node">
<title>Node1</title>
<g id="a_Node000001"><a xlink:title="Очищает входящий и исходящие буферы устройства">
<polygon fill="#999999" stroke="#666666" points="251,-58 160,-58 160,-38 251,-38 251,-58"/>
<text text-anchor="middle" x="205.5" y="-44.5" font-family="Helvetica,sans-Serif" font-size="10.00">VisaDevice::clear</text>
</a>
</g>
</g>
<!-- Node2 -->
<g id="Node000002" class="node">
<title>Node2</title>
<g id="a_Node000002"><a xlink:href="class_tesart_rbd.html#a149160a31d947bef5d67b8bec64c52b2" target="_top" xlink:title=" ">
<polygon fill="white" stroke="#666666" points="108.62,-96 15.38,-96 15.38,-76 108.62,-76 108.62,-96"/>
<text text-anchor="middle" x="62" y="-82.5" font-family="Helvetica,sans-Serif" font-size="10.00">TesartRbd::status</text>
</a>
</g>
</g>
<!-- Node1&#45;&gt;Node2 -->
<g id="edge1_Node000001_Node000002" class="edge">
<title>Node1&#45;&gt;Node2</title>
<g id="a_edge1_Node000001_Node000002"><a xlink:title=" ">
<path fill="none" stroke="#63b8ff" d="M154.92,-61.31C137.55,-65.98 118.29,-71.15 101.91,-75.55"/>
<polygon fill="#63b8ff" stroke="#63b8ff" points="155.71,-64.46 164.46,-58.48 153.89,-57.7 155.71,-64.46"/>
</a>
</g>
</g>
<!-- Node3 -->
<g id="Node000003" class="node">
<title>Node3</title>
<g id="a_Node000003"><a xlink:href="class_tesart_rbd.html#a592c41abaa2f8d44ffecb17434644d51" target="_top" xlink:title=" ">
<polygon fill="white" stroke="#666666" points="117.25,-58 6.75,-58 6.75,-38 117.25,-38 117.25,-58"/>
<text text-anchor="middle" x="62" y="-44.5" font-family="Helvetica,sans-Serif" font-size="10.00">TesartRbd::TesartRbd</text>
</a>
</g>
</g>
<!-- Node1&#45;&gt;Node3 -->
<g id="edge2_Node000001_Node000003" class="edge">
<title>Node1&#45;&gt;Node3</title>
<g id="a_edge2_Node000001_Node000003"><a xlink:title=" ">
<path fill="none" stroke="#63b8ff" d="M148.82,-48C138.57,-48 127.88,-48 117.66,-48"/>
<polygon fill="#63b8ff" stroke="#63b8ff" points="148.73,-51.5 158.73,-48 148.73,-44.5 148.73,-51.5"/>
</a>
</g>
</g>
<!-- Node4 -->
<g id="Node000004" class="node">
<title>Node4</title>
<g id="a_Node000004"><a xlink:href="class_visa_device.html#ad6eefa87dd7817e61c833d344b5147ee" target="_top" xlink:title="Деструктор, который выполняет отключение от прибора">
<polygon fill="white" stroke="#666666" points="124,-20 0,-20 0,0 124,0 124,-20"/>
<text text-anchor="middle" x="62" y="-6.5" font-family="Helvetica,sans-Serif" font-size="10.00">VisaDevice::~VisaDevice</text>
</a>
</g>
</g>
<!-- Node1&#45;&gt;Node4 -->
<g id="edge3_Node000001_Node000004" class="edge">
<title>Node1&#45;&gt;Node4</title>
<g id="a_edge3_Node000001_Node000004"><a xlink:title=" ">
<path fill="none" stroke="#63b8ff" d="M154.92,-34.69C137.55,-30.02 118.29,-24.85 101.91,-20.45"/>
<polygon fill="#63b8ff" stroke="#63b8ff" points="153.89,-38.3 164.46,-37.52 155.71,-31.54 153.89,-38.3"/>
</a>
</g>
</g>
</g>
</svg>
