<?xml version="1.0" encoding="UTF-8" standalone="no"?>
<!DOCTYPE svg PUBLIC "-//W3C//DTD SVG 1.1//EN"
 "http://www.w3.org/Graphics/SVG/1.1/DTD/svg11.dtd">
<!-- Generated by graphviz version 8.1.0 (20230707.0739)
 -->
<!-- Title: TesartRbd::set_angle Pages: 1 -->
<svg width="805pt" height="142pt"
 viewBox="0.00 0.00 804.50 142.00" xmlns="http://www.w3.org/2000/svg" xmlns:xlink="http://www.w3.org/1999/xlink">
<g id="graph0" class="graph" transform="scale(1 1) rotate(0) translate(4 138)">
<title>TesartRbd::set_angle</title>
<!-- Node1 -->
<g id="Node000001" class="node">
<title>Node1</title>
<g id="a_Node000001"><a xlink:title="Поворачивает ось ОПУ на требуемый угол">
<polygon fill="#999999" stroke="#666666" points="108.25,-115 0,-115 0,-95 108.25,-95 108.25,-115"/>
<text text-anchor="middle" x="54.12" y="-101.5" font-family="Helvetica,sans-Serif" font-size="10.00">TesartRbd::set_angle</text>
</a>
</g>
</g>
<!-- Node2 -->
<g id="Node000002" class="node">
<title>Node2</title>
<g id="a_Node000002"><a xlink:href="class_logger.html#af7709105c2708359b7b082218f4cc3e1" target="_top" xlink:title="Метод, осуществляющий логирование">
<polygon fill="white" stroke="#666666" points="624.88,-77 560.88,-77 560.88,-57 624.88,-57 624.88,-77"/>
<text text-anchor="middle" x="592.88" y="-63.5" font-family="Helvetica,sans-Serif" font-size="10.00">Logger::log</text>
</a>
</g>
</g>
<!-- Node1&#45;&gt;Node2 -->
<g id="edge1_Node000001_Node000002" class="edge">
<title>Node1&#45;&gt;Node2</title>
<g id="a_edge1_Node000001_Node000002"><a xlink:title=" ">
<path fill="none" stroke="#63b8ff" d="M108.59,-106.85C194.25,-108.94 367.31,-109.5 511.75,-87 524.35,-85.04 537.87,-82.02 550.14,-78.93"/>
<polygon fill="#63b8ff" stroke="#63b8ff" points="550.77,-82.12 559.56,-76.21 549,-75.35 550.77,-82.12"/>
</a>
</g>
</g>
<!-- Node7 -->
<g id="Node000007" class="node">
<title>Node7</title>
<g id="a_Node000007"><a xlink:href="class_tesart_rbd.html#a1317670f51c7e529ca5960e69b7563a7" target="_top" xlink:title="Поворачивает ось до тех пор, пока она не достигнет требуемого угла">
<polygon fill="white" stroke="#666666" points="233,-96 144.25,-96 144.25,-76 233,-76 233,-96"/>
<text text-anchor="middle" x="188.62" y="-82.5" font-family="Helvetica,sans-Serif" font-size="10.00">TesartRbd::move</text>
</a>
</g>
</g>
<!-- Node1&#45;&gt;Node7 -->
<g id="edge6_Node000001_Node000007" class="edge">
<title>Node1&#45;&gt;Node7</title>
<g id="a_edge6_Node000001_Node000007"><a xlink:title=" ">
<path fill="none" stroke="#63b8ff" d="M108.64,-97.33C116.73,-96.17 125.1,-94.97 133.21,-93.8"/>
<polygon fill="#63b8ff" stroke="#63b8ff" points="133.68,-97.13 143.08,-92.24 132.69,-90.2 133.68,-97.13"/>
</a>
</g>
</g>
<!-- Node3 -->
<g id="Node000003" class="node">
<title>Node3</title>
<g id="a_Node000003"><a xlink:href="logger_8hpp.html#a49284b7befa8e31f81e01ee8f3735dd0" target="_top" xlink:title="Функция, которая снимает значение текущего времени и конвертирует его в строку с заданным шаблоном.">
<polygon fill="white" stroke="#666666" points="779.62,-134 690.88,-134 690.88,-114 779.62,-114 779.62,-134"/>
<text text-anchor="middle" x="735.25" y="-120.5" font-family="Helvetica,sans-Serif" font-size="10.00">get_current_time</text>
</a>
</g>
</g>
<!-- Node2&#45;&gt;Node3 -->
<g id="edge2_Node000002_Node000003" class="edge">
<title>Node2&#45;&gt;Node3</title>
<g id="a_edge2_Node000002_Node000003"><a xlink:title=" ">
<path fill="none" stroke="#63b8ff" d="M613.95,-77.47C629.96,-85.58 653.08,-96.78 674,-105 678.49,-106.76 683.21,-108.48 687.95,-110.11"/>
<polygon fill="#63b8ff" stroke="#63b8ff" points="686.69,-113.72 697.29,-113.55 688.9,-107.07 686.69,-113.72"/>
</a>
</g>
</g>
<!-- Node4 -->
<g id="Node000004" class="node">
<title>Node4</title>
<g id="a_Node000004"><a xlink:href="class_logger.html#a6edb7b263f080d417b82a537ed50fee4" target="_top" xlink:title="Возвращает тег в зависимости от уровня логирования и от назначения тега.">
<polygon fill="white" stroke="#666666" points="777,-96 693.5,-96 693.5,-76 777,-76 777,-96"/>
<text text-anchor="middle" x="735.25" y="-82.5" font-family="Helvetica,sans-Serif" font-size="10.00">Logger::get_tag</text>
</a>
</g>
</g>
<!-- Node2&#45;&gt;Node4 -->
<g id="edge3_Node000002_Node000004" class="edge">
<title>Node2&#45;&gt;Node4</title>
<g id="a_edge3_Node000002_Node000004"><a xlink:title=" ">
<path fill="none" stroke="#63b8ff" d="M625.03,-71.22C641.85,-73.49 663.06,-76.36 682.31,-78.97"/>
<polygon fill="#63b8ff" stroke="#63b8ff" points="681.68,-82.55 692.06,-80.42 682.62,-75.61 681.68,-82.55"/>
</a>
</g>
</g>
<!-- Node5 -->
<g id="Node000005" class="node">
<title>Node5</title>
<g id="a_Node000005"><a xlink:href="class_logger.html#a4825613142ebb093bf8fa26f21f7f3fc" target="_top" xlink:title="Метод, который выводит сообщение в консоль.">
<polygon fill="white" stroke="#666666" points="796.5,-58 674,-58 674,-38 796.5,-38 796.5,-58"/>
<text text-anchor="middle" x="735.25" y="-44.5" font-family="Helvetica,sans-Serif" font-size="10.00">Logger::print_to_console</text>
</a>
</g>
</g>
<!-- Node2&#45;&gt;Node5 -->
<g id="edge4_Node000002_Node000005" class="edge">
<title>Node2&#45;&gt;Node5</title>
<g id="a_edge4_Node000002_Node000005"><a xlink:title=" ">
<path fill="none" stroke="#63b8ff" d="M625.03,-62.78C636.31,-61.26 649.56,-59.46 662.87,-57.66"/>
<polygon fill="#63b8ff" stroke="#63b8ff" points="663.08,-61.03 672.52,-56.22 662.15,-54.09 663.08,-61.03"/>
</a>
</g>
</g>
<!-- Node6 -->
<g id="Node000006" class="node">
<title>Node6</title>
<g id="a_Node000006"><a xlink:href="class_logger.html#a999bb33f7cf079cb98f32fae6016a2f3" target="_top" xlink:title="Метод, который записывает сообщение в файл.">
<polygon fill="white" stroke="#666666" points="785.62,-20 684.88,-20 684.88,0 785.62,0 785.62,-20"/>
<text text-anchor="middle" x="735.25" y="-6.5" font-family="Helvetica,sans-Serif" font-size="10.00">Logger::print_to_file</text>
</a>
</g>
</g>
<!-- Node2&#45;&gt;Node6 -->
<g id="edge5_Node000002_Node000006" class="edge">
<title>Node2&#45;&gt;Node6</title>
<g id="a_edge5_Node000002_Node000006"><a xlink:title=" ">
<path fill="none" stroke="#63b8ff" d="M613.95,-56.53C629.96,-48.42 653.08,-37.22 674,-29 678.49,-27.24 683.21,-25.52 687.95,-23.89"/>
<polygon fill="#63b8ff" stroke="#63b8ff" points="688.9,-26.93 697.29,-20.45 686.69,-20.28 688.9,-26.93"/>
</a>
</g>
</g>
<!-- Node7&#45;&gt;Node2 -->
<g id="edge12_Node000007_Node000002" class="edge">
<title>Node7&#45;&gt;Node2</title>
<g id="a_edge12_Node000007_Node000002"><a xlink:title=" ">
<path fill="none" stroke="#63b8ff" d="M233.39,-84.01C295.36,-81.18 412.21,-75.8 511.75,-71 524.11,-70.4 537.53,-69.74 549.8,-69.13"/>
<polygon fill="#63b8ff" stroke="#63b8ff" points="549.86,-72.58 559.67,-68.58 549.51,-65.59 549.86,-72.58"/>
</a>
</g>
</g>
<!-- Node8 -->
<g id="Node000008" class="node">
<title>Node8</title>
<g id="a_Node000008"><a xlink:href="class_tesart_rbd.html#a9a7da6f896259d62e9f1b1850371fa5e" target="_top" xlink:title="Метод позволяет проверить, остановлена ли ось">
<polygon fill="white" stroke="#666666" points="382.5,-58 269,-58 269,-38 382.5,-38 382.5,-58"/>
<text text-anchor="middle" x="325.75" y="-44.5" font-family="Helvetica,sans-Serif" font-size="10.00">TesartRbd::is_stopped</text>
</a>
</g>
</g>
<!-- Node7&#45;&gt;Node8 -->
<g id="edge7_Node000007_Node000008" class="edge">
<title>Node7&#45;&gt;Node8</title>
<g id="a_edge7_Node000007_Node000008"><a xlink:title=" ">
<path fill="none" stroke="#63b8ff" d="M226.91,-75.52C242.41,-71.15 260.6,-66.04 277.07,-61.41"/>
<polygon fill="#63b8ff" stroke="#63b8ff" points="277.91,-64.53 286.59,-58.45 276.02,-57.79 277.91,-64.53"/>
</a>
</g>
</g>
<!-- Node8&#45;&gt;Node2 -->
<g id="edge8_Node000008_Node000002" class="edge">
<title>Node8&#45;&gt;Node2</title>
<g id="a_edge8_Node000008_Node000002"><a xlink:title=" ">
<path fill="none" stroke="#63b8ff" d="M382.98,-52.03C432.86,-55.6 504.62,-60.75 549.72,-63.98"/>
<polygon fill="#63b8ff" stroke="#63b8ff" points="549.36,-67.53 559.58,-64.76 549.86,-60.55 549.36,-67.53"/>
</a>
</g>
</g>
<!-- Node9 -->
<g id="Node000009" class="node">
<title>Node9</title>
<g id="a_Node000009"><a xlink:href="class_tesart_rbd.html#affbded46e17aa303601ba7ef885107b8" target="_top" xlink:title="Запрос статуса оси ОПУ по номеру оси">
<polygon fill="white" stroke="#666666" points="511.75,-20 418.5,-20 418.5,0 511.75,0 511.75,-20"/>
<text text-anchor="middle" x="465.12" y="-6.5" font-family="Helvetica,sans-Serif" font-size="10.00">TesartRbd::status</text>
</a>
</g>
</g>
<!-- Node8&#45;&gt;Node9 -->
<g id="edge9_Node000008_Node000009" class="edge">
<title>Node8&#45;&gt;Node9</title>
<g id="a_edge9_Node000008_Node000009"><a xlink:title=" ">
<path fill="none" stroke="#63b8ff" d="M364.65,-37.52C380.57,-33.11 399.26,-27.94 416.13,-23.28"/>
<polygon fill="#63b8ff" stroke="#63b8ff" points="416.64,-26.49 425.35,-20.45 414.78,-19.74 416.64,-26.49"/>
</a>
</g>
</g>
<!-- Node9&#45;&gt;Node2 -->
<g id="edge10_Node000009_Node000002" class="edge">
<title>Node9&#45;&gt;Node2</title>
<g id="a_edge10_Node000009_Node000002"><a xlink:title=" ">
<path fill="none" stroke="#63b8ff" d="M489.19,-20.45C508.78,-29.33 537.12,-42.18 559.07,-52.13"/>
<polygon fill="#63b8ff" stroke="#63b8ff" points="557.4,-55.67 567.96,-56.61 560.29,-49.3 557.4,-55.67"/>
</a>
</g>
</g>
<!-- Node10 -->
<g id="Node000010" class="node">
<title>Node10</title>
<g id="a_Node000010"><a xlink:href="namespacestring__utils.html#a9fe07494ccc7914840b0d615974bc802" target="_top" xlink:title="Делит строку на две части по требуемому символу и возвращает содержимое правой части">
<polygon fill="white" stroke="#666666" points="638,-20 547.75,-20 547.75,0 638,0 638,-20"/>
<text text-anchor="middle" x="592.88" y="-6.5" font-family="Helvetica,sans-Serif" font-size="10.00">string_utils::lstrip</text>
</a>
</g>
</g>
<!-- Node9&#45;&gt;Node10 -->
<g id="edge11_Node000009_Node000010" class="edge">
<title>Node9&#45;&gt;Node10</title>
<g id="a_edge11_Node000009_Node000010"><a xlink:title=" ">
<path fill="none" stroke="#63b8ff" d="M512.24,-10C520.14,-10 528.42,-10 536.54,-10"/>
<polygon fill="#63b8ff" stroke="#63b8ff" points="536.45,-13.5 546.45,-10 536.45,-6.5 536.45,-13.5"/>
</a>
</g>
</g>
</g>
</svg>
