<?xml version="1.0" encoding="UTF-8" standalone="no"?>
<!DOCTYPE svg PUBLIC "-//W3C//DTD SVG 1.1//EN"
 "http://www.w3.org/Graphics/SVG/1.1/DTD/svg11.dtd">
<!-- Generated by graphviz version 8.0.5 (20230430.1635)
 -->
<!-- Title: VisaDevice::send_wait_err Pages: 1 -->
<svg width="309pt" height="570pt"
 viewBox="0.00 0.00 309.25 570.00" xmlns="http://www.w3.org/2000/svg" xmlns:xlink="http://www.w3.org/1999/xlink">
<g id="graph0" class="graph" transform="scale(1 1) rotate(0) translate(4 566)">
<title>VisaDevice::send_wait_err</title>
<!-- Node1 -->
<g id="Node000001" class="node">
<title>Node1</title>
<g id="a_Node000001"><a xlink:title=" ">
<polygon fill="#999999" stroke="#666666" points="301.25,-291 171.25,-291 171.25,-271 301.25,-271 301.25,-291"/>
<text text-anchor="middle" x="236.25" y="-277.5" font-family="Helvetica,sans-Serif" font-size="10.00">VisaDevice::send_wait_err</text>
</a>
</g>
</g>
<!-- Node2 -->
<g id="Node000002" class="node">
<title>Node2</title>
<g id="a_Node000002"><a xlink:href="class_keysight_m9807_a.html#a85c78a42ccfda3bb9b69cb60b79358f4" target="_top" xlink:title=" ">
<polygon fill="white" stroke="#666666" points="135.25,-562 0,-562 0,-542 135.25,-542 135.25,-562"/>
<text text-anchor="middle" x="67.62" y="-548.5" font-family="Helvetica,sans-Serif" font-size="10.00">KeysightM9807A::configure</text>
</a>
</g>
</g>
<!-- Node1&#45;&gt;Node2 -->
<g id="edge1_Node000001_Node000002" class="edge">
<title>Node1&#45;&gt;Node2</title>
<g id="a_edge1_Node000001_Node000002"><a xlink:title=" ">
<path fill="none" stroke="#63b8ff" d="M233.1,-302.13C227.04,-350.41 205.4,-469.54 135.25,-533 131.41,-536.47 126.99,-539.31 122.28,-541.63"/>
<polygon fill="#63b8ff" stroke="#63b8ff" points="236.66,-302.79 234.32,-292.46 229.71,-301.99 236.66,-302.79"/>
</a>
</g>
</g>
<!-- Node3 -->
<g id="Node000003" class="node">
<title>Node3</title>
<g id="a_Node000003"><a xlink:href="class_keysight_m9807_a.html#ad492f043e51d3e760209af6d59fe7829" target="_top" xlink:title=" ">
<polygon fill="white" stroke="#666666" points="129.25,-524 6,-524 6,-492 129.25,-492 129.25,-524"/>
<text text-anchor="start" x="14" y="-510.5" font-family="Helvetica,sans-Serif" font-size="10.00">KeysightM9807A::create</text>
<text text-anchor="middle" x="67.62" y="-498.5" font-family="Helvetica,sans-Serif" font-size="10.00">_traces</text>
</a>
</g>
</g>
<!-- Node1&#45;&gt;Node3 -->
<g id="edge2_Node000001_Node000003" class="edge">
<title>Node1&#45;&gt;Node3</title>
<g id="a_edge2_Node000001_Node000003"><a xlink:title=" ">
<path fill="none" stroke="#63b8ff" d="M230.38,-301.93C219.91,-342.46 191.52,-432.13 135.25,-483 131.68,-486.23 127.64,-489.06 123.38,-491.53"/>
<polygon fill="#63b8ff" stroke="#63b8ff" points="233.97,-303 232.97,-292.45 227.17,-301.32 233.97,-303"/>
</a>
</g>
</g>
<!-- Node4 -->
<g id="Node000004" class="node">
<title>Node4</title>
<g id="a_Node000004"><a xlink:href="class_keysight_m9807_a.html#ae9df428776abd1cc65fa24e57fb713e1" target="_top" xlink:title=" ">
<polygon fill="white" stroke="#666666" points="122.12,-474 13.12,-474 13.12,-454 122.12,-454 122.12,-474"/>
<text text-anchor="middle" x="67.62" y="-460.5" font-family="Helvetica,sans-Serif" font-size="10.00">KeysightM9807A::init</text>
</a>
</g>
</g>
<!-- Node1&#45;&gt;Node4 -->
<g id="edge3_Node000001_Node000004" class="edge">
<title>Node1&#45;&gt;Node4</title>
<g id="a_edge3_Node000001_Node000004"><a xlink:title=" ">
<path fill="none" stroke="#63b8ff" d="M228.35,-301.66C215.61,-336.55 185.08,-407.08 135.25,-445 130.75,-448.42 125.66,-451.23 120.34,-453.53"/>
<polygon fill="#63b8ff" stroke="#63b8ff" points="231.98,-302.88 231.98,-292.29 225.37,-300.56 231.98,-302.88"/>
</a>
</g>
</g>
<!-- Node5 -->
<g id="Node000005" class="node">
<title>Node5</title>
<g id="a_Node000005"><a xlink:href="class_keysight_m9807_a.html#ad48b95d00b8a2ecee1e95dc300d25203" target="_top" xlink:title=" ">
<polygon fill="white" stroke="#666666" points="122.12,-436 13.12,-436 13.12,-404 122.12,-404 122.12,-436"/>
<text text-anchor="start" x="21.12" y="-422.5" font-family="Helvetica,sans-Serif" font-size="10.00">KeysightM9807A::init</text>
<text text-anchor="middle" x="67.62" y="-410.5" font-family="Helvetica,sans-Serif" font-size="10.00">_channel</text>
</a>
</g>
</g>
<!-- Node1&#45;&gt;Node5 -->
<g id="edge4_Node000001_Node000005" class="edge">
<title>Node1&#45;&gt;Node5</title>
<g id="a_edge4_Node000001_Node000005"><a xlink:title=" ">
<path fill="none" stroke="#63b8ff" d="M222.87,-300.24C205.89,-325.25 173.1,-368.83 135.25,-395 130.58,-398.23 125.43,-401.11 120.13,-403.66"/>
<polygon fill="#63b8ff" stroke="#63b8ff" points="226.17,-302.61 228.78,-292.34 220.33,-298.73 226.17,-302.61"/>
</a>
</g>
</g>
<!-- Node6 -->
<g id="Node000006" class="node">
<title>Node6</title>
<g id="a_Node000006"><a xlink:href="class_keysight_m9807_a.html#ad4dc40466fecabae451e88d763692076" target="_top" xlink:title=" ">
<polygon fill="white" stroke="#666666" points="125.88,-386 9.38,-386 9.38,-366 125.88,-366 125.88,-386"/>
<text text-anchor="middle" x="67.62" y="-372.5" font-family="Helvetica,sans-Serif" font-size="10.00">KeysightM9807A::rf_off</text>
</a>
</g>
</g>
<!-- Node1&#45;&gt;Node6 -->
<g id="edge5_Node000001_Node000006" class="edge">
<title>Node1&#45;&gt;Node6</title>
<g id="a_edge5_Node000001_Node000006"><a xlink:title=" ">
<path fill="none" stroke="#63b8ff" d="M216.62,-298.6C197.54,-315.75 166.37,-341.43 135.25,-357 128.58,-360.34 121.23,-363.17 113.93,-365.55"/>
<polygon fill="#63b8ff" stroke="#63b8ff" points="218.48,-301.73 223.48,-292.39 213.75,-296.57 218.48,-301.73"/>
</a>
</g>
</g>
<!-- Node7 -->
<g id="Node000007" class="node">
<title>Node7</title>
<g id="a_Node000007"><a xlink:href="class_keysight_m9807_a.html#a861c82a08c49f54dd245db73d87181c8" target="_top" xlink:title=" ">
<polygon fill="white" stroke="#666666" points="125.88,-348 9.38,-348 9.38,-328 125.88,-328 125.88,-348"/>
<text text-anchor="middle" x="67.62" y="-334.5" font-family="Helvetica,sans-Serif" font-size="10.00">KeysightM9807A::rf_off</text>
</a>
</g>
</g>
<!-- Node1&#45;&gt;Node7 -->
<g id="edge6_Node000001_Node000007" class="edge">
<title>Node1&#45;&gt;Node7</title>
<g id="a_edge6_Node000001_Node000007"><a xlink:title=" ">
<path fill="none" stroke="#63b8ff" d="M199.57,-295.41C180.61,-302.85 156.82,-311.84 135.25,-319 126.35,-321.96 116.68,-324.87 107.55,-327.5"/>
<polygon fill="#63b8ff" stroke="#63b8ff" points="200.56,-298.38 208.57,-291.45 197.98,-291.88 200.56,-298.38"/>
</a>
</g>
</g>
<!-- Node8 -->
<g id="Node000008" class="node">
<title>Node8</title>
<g id="a_Node000008"><a xlink:href="class_keysight_m9807_a.html#adf9e166699c89ec3c7f53fae5ec81b0c" target="_top" xlink:title=" ">
<polygon fill="white" stroke="#666666" points="126.25,-310 9,-310 9,-290 126.25,-290 126.25,-310"/>
<text text-anchor="middle" x="67.62" y="-296.5" font-family="Helvetica,sans-Serif" font-size="10.00">KeysightM9807A::rf_on</text>
</a>
</g>
</g>
<!-- Node1&#45;&gt;Node8 -->
<g id="edge7_Node000001_Node000008" class="edge">
<title>Node1&#45;&gt;Node8</title>
<g id="a_edge7_Node000001_Node000008"><a xlink:title=" ">
<path fill="none" stroke="#63b8ff" d="M160.13,-289.57C148.89,-290.85 137.44,-292.15 126.62,-293.39"/>
<polygon fill="#63b8ff" stroke="#63b8ff" points="160.29,-292.96 169.83,-288.35 159.5,-286 160.29,-292.96"/>
</a>
</g>
</g>
<!-- Node9 -->
<g id="Node000009" class="node">
<title>Node9</title>
<g id="a_Node000009"><a xlink:href="class_keysight_m9807_a.html#ac6105e309ba2f11a360797e19d34a592" target="_top" xlink:title=" ">
<polygon fill="white" stroke="#666666" points="126.25,-272 9,-272 9,-252 126.25,-252 126.25,-272"/>
<text text-anchor="middle" x="67.62" y="-258.5" font-family="Helvetica,sans-Serif" font-size="10.00">KeysightM9807A::rf_on</text>
</a>
</g>
</g>
<!-- Node1&#45;&gt;Node9 -->
<g id="edge8_Node000001_Node000009" class="edge">
<title>Node1&#45;&gt;Node9</title>
<g id="a_edge8_Node000001_Node000009"><a xlink:title=" ">
<path fill="none" stroke="#63b8ff" d="M160.13,-272.43C148.89,-271.15 137.44,-269.85 126.62,-268.61"/>
<polygon fill="#63b8ff" stroke="#63b8ff" points="159.5,-276 169.83,-273.65 160.29,-269.04 159.5,-276"/>
</a>
</g>
</g>
<!-- Node10 -->
<g id="Node000010" class="node">
<title>Node10</title>
<g id="a_Node000010"><a xlink:href="class_visa_device.html#ab95d81d2e1ebab67621ac7aac769bc64" target="_top" xlink:title=" ">
<polygon fill="white" stroke="#666666" points="132.62,-234 2.62,-234 2.62,-214 132.62,-214 132.62,-234"/>
<text text-anchor="middle" x="67.62" y="-220.5" font-family="Helvetica,sans-Serif" font-size="10.00">VisaDevice::send_wait_err</text>
</a>
</g>
</g>
<!-- Node1&#45;&gt;Node10 -->
<g id="edge9_Node000001_Node000010" class="edge">
<title>Node1&#45;&gt;Node10</title>
<g id="a_edge9_Node000001_Node000010"><a xlink:title=" ">
<path fill="none" stroke="#63b8ff" d="M199.57,-266.59C180.61,-259.15 156.82,-250.16 135.25,-243 126.35,-240.04 116.68,-237.13 107.55,-234.5"/>
<polygon fill="#63b8ff" stroke="#63b8ff" points="197.98,-270.12 208.57,-270.55 200.56,-263.62 197.98,-270.12"/>
</a>
</g>
</g>
<!-- Node11 -->
<g id="Node000011" class="node">
<title>Node11</title>
<g id="a_Node000011"><a xlink:href="class_keysight_m9807_a.html#a752f62baec908e4e421a95b3c75422fc" target="_top" xlink:title=" ">
<polygon fill="white" stroke="#666666" points="133,-196 2.25,-196 2.25,-176 133,-176 133,-196"/>
<text text-anchor="middle" x="67.62" y="-182.5" font-family="Helvetica,sans-Serif" font-size="10.00">KeysightM9807A::set_freq</text>
</a>
</g>
</g>
<!-- Node1&#45;&gt;Node11 -->
<g id="edge10_Node000001_Node000011" class="edge">
<title>Node1&#45;&gt;Node11</title>
<g id="a_edge10_Node000001_Node000011"><a xlink:title=" ">
<path fill="none" stroke="#63b8ff" d="M216.62,-263.4C197.54,-246.25 166.37,-220.57 135.25,-205 128.58,-201.66 121.23,-198.83 113.93,-196.45"/>
<polygon fill="#63b8ff" stroke="#63b8ff" points="213.75,-265.43 223.48,-269.61 218.48,-260.27 213.75,-265.43"/>
</a>
</g>
</g>
<!-- Node12 -->
<g id="Node000012" class="node">
<title>Node12</title>
<g id="a_Node000012"><a xlink:href="class_keysight_m9807_a.html#a2b1761a2a4b4dc696a74590c2cb028de" target="_top" xlink:title=" ">
<polygon fill="white" stroke="#666666" points="122.5,-158 12.75,-158 12.75,-126 122.5,-126 122.5,-158"/>
<text text-anchor="start" x="20.75" y="-144.5" font-family="Helvetica,sans-Serif" font-size="10.00">KeysightM9807A::set</text>
<text text-anchor="middle" x="67.62" y="-132.5" font-family="Helvetica,sans-Serif" font-size="10.00">_freq_range</text>
</a>
</g>
</g>
<!-- Node1&#45;&gt;Node12 -->
<g id="edge11_Node000001_Node000012" class="edge">
<title>Node1&#45;&gt;Node12</title>
<g id="a_edge11_Node000001_Node000012"><a xlink:title=" ">
<path fill="none" stroke="#63b8ff" d="M222.87,-261.76C205.89,-236.75 173.1,-193.17 135.25,-167 130.58,-163.77 125.43,-160.89 120.13,-158.34"/>
<polygon fill="#63b8ff" stroke="#63b8ff" points="220.33,-263.27 228.78,-269.66 226.17,-259.39 220.33,-263.27"/>
</a>
</g>
</g>
<!-- Node13 -->
<g id="Node000013" class="node">
<title>Node13</title>
<g id="a_Node000013"><a xlink:href="class_keysight_m9807_a.html#a148ac915640756d3ef0c33d92c1b1205" target="_top" xlink:title=" ">
<polygon fill="white" stroke="#666666" points="134.5,-108 0.75,-108 0.75,-88 134.5,-88 134.5,-108"/>
<text text-anchor="middle" x="67.62" y="-94.5" font-family="Helvetica,sans-Serif" font-size="10.00">KeysightM9807A::set_path</text>
</a>
</g>
</g>
<!-- Node1&#45;&gt;Node13 -->
<g id="edge12_Node000001_Node000013" class="edge">
<title>Node1&#45;&gt;Node13</title>
<g id="a_edge12_Node000001_Node000013"><a xlink:title=" ">
<path fill="none" stroke="#63b8ff" d="M228.35,-260.34C215.61,-225.45 185.08,-154.92 135.25,-117 130.75,-113.58 125.66,-110.77 120.34,-108.47"/>
<polygon fill="#63b8ff" stroke="#63b8ff" points="225.37,-261.44 231.98,-269.71 231.98,-259.12 225.37,-261.44"/>
</a>
</g>
</g>
<!-- Node14 -->
<g id="Node000014" class="node">
<title>Node14</title>
<g id="a_Node000014"><a xlink:href="class_keysight_m9807_a.html#ab3a0a48c7e439fab722d902479ff78eb" target="_top" xlink:title=" ">
<polygon fill="white" stroke="#666666" points="122.5,-70 12.75,-70 12.75,-38 122.5,-38 122.5,-70"/>
<text text-anchor="start" x="20.75" y="-56.5" font-family="Helvetica,sans-Serif" font-size="10.00">KeysightM9807A::set</text>
<text text-anchor="middle" x="67.62" y="-44.5" font-family="Helvetica,sans-Serif" font-size="10.00">_power</text>
</a>
</g>
</g>
<!-- Node1&#45;&gt;Node14 -->
<g id="edge13_Node000001_Node000014" class="edge">
<title>Node1&#45;&gt;Node14</title>
<g id="a_edge13_Node000001_Node000014"><a xlink:title=" ">
<path fill="none" stroke="#63b8ff" d="M230.38,-260.07C219.91,-219.54 191.52,-129.87 135.25,-79 131.49,-75.6 127.23,-72.65 122.72,-70.09"/>
<polygon fill="#63b8ff" stroke="#63b8ff" points="227.17,-260.68 232.97,-269.55 233.97,-259 227.17,-260.68"/>
</a>
</g>
</g>
<!-- Node15 -->
<g id="Node000015" class="node">
<title>Node15</title>
<g id="a_Node000015"><a xlink:href="class_keysight_m9807_a.html#a83a1f840e34e3ecb56c319649725efb8" target="_top" xlink:title=" ">
<polygon fill="white" stroke="#666666" points="129.25,-20 6,-20 6,0 129.25,0 129.25,-20"/>
<text text-anchor="middle" x="67.62" y="-6.5" font-family="Helvetica,sans-Serif" font-size="10.00">KeysightM9807A::trigger</text>
</a>
</g>
</g>
<!-- Node1&#45;&gt;Node15 -->
<g id="edge14_Node000001_Node000015" class="edge">
<title>Node1&#45;&gt;Node15</title>
<g id="a_edge14_Node000001_Node000015"><a xlink:title=" ">
<path fill="none" stroke="#63b8ff" d="M233.1,-259.87C227.04,-211.59 205.4,-92.46 135.25,-29 131.41,-25.53 126.99,-22.69 122.28,-20.37"/>
<polygon fill="#63b8ff" stroke="#63b8ff" points="229.71,-260.01 234.32,-269.54 236.66,-259.21 229.71,-260.01"/>
</a>
</g>
</g>
</g>
</svg>
