<?xml version="1.0" encoding="UTF-8" standalone="no"?>
<!DOCTYPE svg PUBLIC "-//W3C//DTD SVG 1.1//EN"
 "http://www.w3.org/Graphics/SVG/1.1/DTD/svg11.dtd">
<!-- Generated by graphviz version 8.0.5 (20230430.1635)
 -->
<!-- Title: VisaDevice::read Pages: 1 -->
<!--zoomable 842 -->

<svg id="main" version="1.1" xmlns="http://www.w3.org/2000/svg" xmlns:xlink="http://www.w3.org/1999/xlink" xml:space="preserve" onload="init(evt)">
<style type="text/css"><![CDATA[
.node, .edge {opacity: 0.7;}
.node.selected, .edge.selected {opacity: 1;}
.edge:hover path { stroke: red; }
.edge:hover polygon { stroke: red; fill: red; }
]]></style>

<defs>
  <circle id="rim" cx="0" cy="0" r="7"/>
  <circle id="rim2" cx="0" cy="0" r="3.5"/>
  <g id="zoomPlus">
    <use xlink:href="#rim" fill="#404040"><set attributeName="fill" to="#808080" begin="zoomplus.mouseover" end="zoomplus.mouseout"/></use>
    <path d="M-4,0h8M0,-4v8" fill="none" stroke="white" stroke-width="1.5" pointer-events="none"/>
  </g>
  <g id="zoomMin">
    <use xlink:href="#rim" fill="#404040"><set attributeName="fill" to="#808080" begin="zoomminus.mouseover" end="zoomminus.mouseout"/></use>
    <path d="M-4,0h8" fill="none" stroke="white" stroke-width="1.5" pointer-events="none"/>
  </g>
  <g id="arrowUp" transform="translate(30 24)">
    <use xlink:href="#rim"/>
    <path pointer-events="none" fill="none" stroke="white" stroke-width="1.5" d="M0,-3.0v7 M-2.5,-0.5L0,-3.0L2.5,-0.5"/>
  </g>
  <g id="arrowRight" transform="rotate(90) translate(36 -43)">
    <use xlink:href="#rim"/>
    <path pointer-events="none" fill="none" stroke="white" stroke-width="1.5" d="M0,-3.0v7 M-2.5,-0.5L0,-3.0L2.5,-0.5"/>
  </g>
  <g id="arrowDown" transform="rotate(180) translate(-30 -48)">
    <use xlink:href="#rim"/>
    <path pointer-events="none" fill="none" stroke="white" stroke-width="1.5" d="M0,-3.0v7 M-2.5,-0.5L0,-3.0L2.5,-0.5"/>
  </g>
  <g id="arrowLeft" transform="rotate(270) translate(-36 17)">
    <use xlink:href="#rim"/>
    <path pointer-events="none" fill="none" stroke="white" stroke-width="1.5" d="M0,-3.0v7 M-2.5,-0.5L0,-3.0L2.5,-0.5"/>
  </g>
  <g id="resetDef">
    <use xlink:href="#rim2" fill="#404040"><set attributeName="fill" to="#808080" begin="reset.mouseover" end="reset.mouseout"/></use>
  </g>
</defs>
<script type="application/ecmascript">
var viewWidth = 1021;
var viewHeight = 842;
var sectionId = 'dynsection-5';
</script>
<script type="application/ecmascript" xlink:href="svg.min.js"/>
<svg id="graph" class="graph">
<g id="viewport">
<title>VisaDevice::read</title>
<!-- Node1 -->
<g id="Node000001" class="node">
<title>Node1</title>
<g id="a_Node000001"><a xlink:title="Метод, позволяющий считать данные с устройства">
<polygon fill="#999999" stroke="#666666" points="1012.75,-375.92 924,-375.92 924,-355.92 1012.75,-355.92 1012.75,-375.92"/>
<text text-anchor="middle" x="968.38" y="-362.42" font-family="Helvetica,sans-Serif" font-size="10.00">VisaDevice::read</text>
</a>
</g>
</g>
<!-- Node2 -->
<g id="Node000002" class="node">
<title>Node2</title>
<g id="a_Node000002"><a xlink:href="class_visa_device.html#aa807192fd9a8c3e6efc458f78de5e73e" target="_top" xlink:title="Метод, совмещающий в себе методы write() и read().">
<polygon fill="white" stroke="#666666" points="888,-427.92 794,-427.92 794,-407.92 888,-407.92 888,-427.92"/>
<text text-anchor="middle" x="841" y="-414.42" font-family="Helvetica,sans-Serif" font-size="10.00">VisaDevice::query</text>
</a>
</g>
</g>
<!-- Node1&#45;&gt;Node2 -->
<g id="edge1_Node000001_Node000002" class="edge">
<title>Node1&#45;&gt;Node2</title>
<g id="a_edge1_Node000001_Node000002"><a xlink:title=" ">
<path fill="none" stroke="#63b8ff" d="M932.27,-380.48C911.52,-389.09 885.72,-399.79 867.03,-407.54"/>
<polygon fill="#63b8ff" stroke="#63b8ff" points="933.41,-383.38 941.3,-376.32 930.73,-376.92 933.41,-383.38"/>
</a>
</g>
</g>
<!-- Node33 -->
<g id="Node000033" class="node">
<title>Node33</title>
<g id="a_Node000033"><a xlink:href="class_visa_device.html#ad659ba652605f5c983958400fde8c808" target="_top" xlink:title="Отправка данных на прибор и чтение ответа от прибора.">
<polygon fill="white" stroke="#666666" points="624.25,-318.92 533.25,-318.92 533.25,-298.92 624.25,-298.92 624.25,-318.92"/>
<text text-anchor="middle" x="578.75" y="-305.42" font-family="Helvetica,sans-Serif" font-size="10.00">VisaDevice::send</text>
</a>
</g>
</g>
<!-- Node1&#45;&gt;Node33 -->
<g id="edge52_Node000001_Node000033" class="edge">
<title>Node1&#45;&gt;Node33</title>
<g id="a_edge52_Node000001_Node000033"><a xlink:title=" ">
<path fill="none" stroke="#63b8ff" d="M913.21,-357.96C836.09,-346.62 696.07,-326.03 624.49,-315.5"/>
<polygon fill="#63b8ff" stroke="#63b8ff" points="912.26,-361.5 922.66,-359.5 913.28,-354.58 912.26,-361.5"/>
</a>
</g>
</g>
<!-- Node3 -->
<g id="Node000003" class="node">
<title>Node3</title>
<g id="a_Node000003"><a xlink:href="class_visa_device.html#aba4642c194cffe2135a133e23960ab63" target="_top" xlink:title="Отправляет команду &quot;SYSTEM:ERROR?&quot; на подключенное устройство и считывает сведения об ошибках,...">
<polygon fill="white" stroke="#666666" points="619.38,-524.92 538.12,-524.92 538.12,-504.92 619.38,-504.92 619.38,-524.92"/>
<text text-anchor="middle" x="578.75" y="-511.42" font-family="Helvetica,sans-Serif" font-size="10.00">VisaDevice::err</text>
</a>
</g>
</g>
<!-- Node2&#45;&gt;Node3 -->
<g id="edge2_Node000002_Node000003" class="edge">
<title>Node2&#45;&gt;Node3</title>
<g id="a_edge2_Node000002_Node000003"><a xlink:title=" ">
<path fill="none" stroke="#63b8ff" d="M822.16,-435.66C806.56,-450.11 782.6,-469.88 758,-480.92 713.16,-501.04 656.78,-509.27 619.57,-512.62"/>
<polygon fill="#63b8ff" stroke="#63b8ff" points="824.1,-438.69 828.92,-429.26 819.27,-433.63 824.1,-438.69"/>
</a>
</g>
</g>
<!-- Node21 -->
<g id="Node000021" class="node">
<title>Node21</title>
<g id="a_Node000021"><a xlink:href="class_visa_device.html#a3f6602a4daf668fa4a06a1fe2821d0c7" target="_top" xlink:title="Отправляет команду &quot;*IDN?&quot; на подключенное устройство и ожидает ответа">
<polygon fill="white" stroke="#666666" points="756.5,-427.92 673.75,-427.92 673.75,-407.92 756.5,-407.92 756.5,-427.92"/>
<text text-anchor="middle" x="715.12" y="-414.42" font-family="Helvetica,sans-Serif" font-size="10.00">VisaDevice::idn</text>
</a>
</g>
</g>
<!-- Node2&#45;&gt;Node21 -->
<g id="edge20_Node000002_Node000021" class="edge">
<title>Node2&#45;&gt;Node21</title>
<g id="a_edge20_Node000002_Node000021"><a xlink:title=" ">
<path fill="none" stroke="#63b8ff" d="M782.59,-417.92C773.87,-417.92 765.03,-417.92 756.76,-417.92"/>
<polygon fill="#63b8ff" stroke="#63b8ff" points="782.52,-421.42 792.52,-417.92 782.52,-414.42 782.52,-421.42"/>
</a>
</g>
</g>
<!-- Node24 -->
<g id="Node000024" class="node">
<title>Node24</title>
<g id="a_Node000024"><a xlink:href="class_visa_device.html#a70a6c6ace7c5841db420c1e112782a53" target="_top" xlink:title="Отправляет команду &quot;*OPC?&quot; на подключенное устройство, ожидает ответ и, в зависимости от полученного ...">
<polygon fill="white" stroke="#666666" points="758,-471.92 672.25,-471.92 672.25,-451.92 758,-451.92 758,-471.92"/>
<text text-anchor="middle" x="715.12" y="-458.42" font-family="Helvetica,sans-Serif" font-size="10.00">VisaDevice::opc</text>
</a>
</g>
</g>
<!-- Node2&#45;&gt;Node24 -->
<g id="edge23_Node000002_Node000024" class="edge">
<title>Node2&#45;&gt;Node24</title>
<g id="a_edge23_Node000002_Node000024"><a xlink:title=" ">
<path fill="none" stroke="#63b8ff" d="M800.48,-431.96C782.56,-438.33 761.74,-445.72 745.27,-451.57"/>
<polygon fill="#63b8ff" stroke="#63b8ff" points="801.39,-435 809.64,-428.35 799.05,-428.4 801.39,-435"/>
</a>
</g>
</g>
<!-- Node2&#45;&gt;Node33 -->
<g id="edge33_Node000002_Node000033" class="edge">
<title>Node2&#45;&gt;Node33</title>
<g id="a_edge33_Node000002_Node000033"><a xlink:title=" ">
<path fill="none" stroke="#63b8ff" d="M805.03,-403.28C751.67,-380.93 651.21,-338.85 604.63,-319.34"/>
<polygon fill="#63b8ff" stroke="#63b8ff" points="803.47,-406.84 814.05,-407.47 806.17,-400.38 803.47,-406.84"/>
</a>
</g>
</g>
<!-- Node4 -->
<g id="Node000004" class="node">
<title>Node4</title>
<g id="a_Node000004"><a xlink:href="class_visa_device.html#aa8ab94835c465376d5b775478b3b04bf" target="_top" xlink:title="Отправка данных на прибор и чтение ответа от прибора. Также, проверяется наличие ошибок на приборе.">
<polygon fill="white" stroke="#666666" points="465,-524.92 357.5,-524.92 357.5,-504.92 465,-504.92 465,-524.92"/>
<text text-anchor="middle" x="411.25" y="-511.42" font-family="Helvetica,sans-Serif" font-size="10.00">VisaDevice::send_err</text>
</a>
</g>
</g>
<!-- Node3&#45;&gt;Node4 -->
<g id="edge3_Node000003_Node000004" class="edge">
<title>Node3&#45;&gt;Node4</title>
<g id="a_edge3_Node000003_Node000004"><a xlink:title=" ">
<path fill="none" stroke="#63b8ff" d="M526.87,-514.92C507.38,-514.92 485.1,-514.92 465.39,-514.92"/>
<polygon fill="#63b8ff" stroke="#63b8ff" points="526.69,-518.42 536.69,-514.92 526.69,-511.42 526.69,-518.42"/>
</a>
</g>
</g>
<!-- Node6 -->
<g id="Node000006" class="node">
<title>Node6</title>
<g id="a_Node000006"><a xlink:href="class_visa_device.html#a069e154c5f48779dfd908146db9e66ed" target="_top" xlink:title="Отправка данных на прибор и чтение ответа от прибора. Также, ожидается завершение выполнения действий...">
<polygon fill="white" stroke="#666666" points="301.25,-562.92 171.25,-562.92 171.25,-542.92 301.25,-542.92 301.25,-562.92"/>
<text text-anchor="middle" x="236.25" y="-549.42" font-family="Helvetica,sans-Serif" font-size="10.00">VisaDevice::send_wait_err</text>
</a>
</g>
</g>
<!-- Node3&#45;&gt;Node6 -->
<g id="edge5_Node000003_Node000006" class="edge">
<title>Node3&#45;&gt;Node6</title>
<g id="a_edge5_Node000003_Node000006"><a xlink:title=" ">
<path fill="none" stroke="#63b8ff" d="M527.27,-526.49C513.68,-529.28 498.96,-532 485.25,-533.92 423.24,-542.63 351.92,-547.57 301.72,-550.22"/>
<polygon fill="#63b8ff" stroke="#63b8ff" points="527.81,-529.74 536.87,-524.26 526.37,-522.89 527.81,-529.74"/>
</a>
</g>
</g>
<!-- Node5 -->
<g id="Node000005" class="node">
<title>Node5</title>
<g id="a_Node000005"><a xlink:href="class_visa_device.html#a743747ee232e8ff9723d25539852f94d" target="_top" xlink:title="Отправка данных на прибор и чтение ответа от прибора. Также, проверяется наличие ошибок на приборе.">
<polygon fill="white" stroke="#666666" points="290,-524.92 182.5,-524.92 182.5,-504.92 290,-504.92 290,-524.92"/>
<text text-anchor="middle" x="236.25" y="-511.42" font-family="Helvetica,sans-Serif" font-size="10.00">VisaDevice::send_err</text>
</a>
</g>
</g>
<!-- Node4&#45;&gt;Node5 -->
<g id="edge4_Node000004_Node000005" class="edge">
<title>Node4&#45;&gt;Node5</title>
<g id="a_edge4_Node000004_Node000005"><a xlink:title=" ">
<path fill="none" stroke="#63b8ff" d="M346.45,-514.92C328.01,-514.92 308.08,-514.92 290.37,-514.92"/>
<polygon fill="#63b8ff" stroke="#63b8ff" points="346.4,-518.42 356.4,-514.92 346.4,-511.42 346.4,-518.42"/>
</a>
</g>
</g>
<!-- Node7 -->
<g id="Node000007" class="node">
<title>Node7</title>
<g id="a_Node000007"><a xlink:href="class_keysight_m9807_a.html#a85c78a42ccfda3bb9b69cb60b79358f4" target="_top" xlink:title=" ">
<polygon fill="white" stroke="#666666" points="135.25,-833.92 0,-833.92 0,-813.92 135.25,-813.92 135.25,-833.92"/>
<text text-anchor="middle" x="67.62" y="-820.42" font-family="Helvetica,sans-Serif" font-size="10.00">KeysightM9807A::configure</text>
</a>
</g>
</g>
<!-- Node6&#45;&gt;Node7 -->
<g id="edge6_Node000006_Node000007" class="edge">
<title>Node6&#45;&gt;Node7</title>
<g id="a_edge6_Node000006_Node000007"><a xlink:title=" ">
<path fill="none" stroke="#63b8ff" d="M233.1,-574.05C227.04,-622.34 205.4,-741.46 135.25,-804.92 131.41,-808.39 126.99,-811.23 122.28,-813.56"/>
<polygon fill="#63b8ff" stroke="#63b8ff" points="236.66,-574.72 234.32,-564.38 229.71,-573.92 236.66,-574.72"/>
</a>
</g>
</g>
<!-- Node8 -->
<g id="Node000008" class="node">
<title>Node8</title>
<g id="a_Node000008"><a xlink:href="class_keysight_m9807_a.html#ad492f043e51d3e760209af6d59fe7829" target="_top" xlink:title=" ">
<polygon fill="white" stroke="#666666" points="129.25,-795.92 6,-795.92 6,-763.92 129.25,-763.92 129.25,-795.92"/>
<text text-anchor="start" x="14" y="-782.42" font-family="Helvetica,sans-Serif" font-size="10.00">KeysightM9807A::create</text>
<text text-anchor="middle" x="67.62" y="-770.42" font-family="Helvetica,sans-Serif" font-size="10.00">_traces</text>
</a>
</g>
</g>
<!-- Node6&#45;&gt;Node8 -->
<g id="edge7_Node000006_Node000008" class="edge">
<title>Node6&#45;&gt;Node8</title>
<g id="a_edge7_Node000006_Node000008"><a xlink:title=" ">
<path fill="none" stroke="#63b8ff" d="M230.38,-573.86C219.91,-614.39 191.52,-704.05 135.25,-754.92 131.68,-758.15 127.64,-760.98 123.38,-763.45"/>
<polygon fill="#63b8ff" stroke="#63b8ff" points="233.97,-574.92 232.97,-564.37 227.17,-573.25 233.97,-574.92"/>
</a>
</g>
</g>
<!-- Node9 -->
<g id="Node000009" class="node">
<title>Node9</title>
<g id="a_Node000009"><a xlink:href="class_keysight_m9807_a.html#ae9df428776abd1cc65fa24e57fb713e1" target="_top" xlink:title=" ">
<polygon fill="white" stroke="#666666" points="122.12,-745.92 13.12,-745.92 13.12,-725.92 122.12,-725.92 122.12,-745.92"/>
<text text-anchor="middle" x="67.62" y="-732.42" font-family="Helvetica,sans-Serif" font-size="10.00">KeysightM9807A::init</text>
</a>
</g>
</g>
<!-- Node6&#45;&gt;Node9 -->
<g id="edge8_Node000006_Node000009" class="edge">
<title>Node6&#45;&gt;Node9</title>
<g id="a_edge8_Node000006_Node000009"><a xlink:title=" ">
<path fill="none" stroke="#63b8ff" d="M228.35,-573.58C215.61,-608.48 185.08,-679 135.25,-716.92 130.75,-720.35 125.66,-723.15 120.34,-725.45"/>
<polygon fill="#63b8ff" stroke="#63b8ff" points="231.98,-574.8 231.98,-564.21 225.37,-572.49 231.98,-574.8"/>
</a>
</g>
</g>
<!-- Node10 -->
<g id="Node000010" class="node">
<title>Node10</title>
<g id="a_Node000010"><a xlink:href="class_keysight_m9807_a.html#ad48b95d00b8a2ecee1e95dc300d25203" target="_top" xlink:title=" ">
<polygon fill="white" stroke="#666666" points="122.12,-707.92 13.12,-707.92 13.12,-675.92 122.12,-675.92 122.12,-707.92"/>
<text text-anchor="start" x="21.12" y="-694.42" font-family="Helvetica,sans-Serif" font-size="10.00">KeysightM9807A::init</text>
<text text-anchor="middle" x="67.62" y="-682.42" font-family="Helvetica,sans-Serif" font-size="10.00">_channel</text>
</a>
</g>
</g>
<!-- Node6&#45;&gt;Node10 -->
<g id="edge9_Node000006_Node000010" class="edge">
<title>Node6&#45;&gt;Node10</title>
<g id="a_edge9_Node000006_Node000010"><a xlink:title=" ">
<path fill="none" stroke="#63b8ff" d="M222.87,-572.16C205.89,-597.17 173.1,-640.75 135.25,-666.92 130.58,-670.15 125.43,-673.03 120.13,-675.58"/>
<polygon fill="#63b8ff" stroke="#63b8ff" points="226.17,-574.53 228.78,-564.26 220.33,-570.66 226.17,-574.53"/>
</a>
</g>
</g>
<!-- Node11 -->
<g id="Node000011" class="node">
<title>Node11</title>
<g id="a_Node000011"><a xlink:href="class_keysight_m9807_a.html#ad4dc40466fecabae451e88d763692076" target="_top" xlink:title=" ">
<polygon fill="white" stroke="#666666" points="125.88,-657.92 9.38,-657.92 9.38,-637.92 125.88,-637.92 125.88,-657.92"/>
<text text-anchor="middle" x="67.62" y="-644.42" font-family="Helvetica,sans-Serif" font-size="10.00">KeysightM9807A::rf_off</text>
</a>
</g>
</g>
<!-- Node6&#45;&gt;Node11 -->
<g id="edge10_Node000006_Node000011" class="edge">
<title>Node6&#45;&gt;Node11</title>
<g id="a_edge10_Node000006_Node000011"><a xlink:title=" ">
<path fill="none" stroke="#63b8ff" d="M216.62,-570.53C197.54,-587.67 166.37,-613.36 135.25,-628.92 128.58,-632.26 121.23,-635.09 113.93,-637.47"/>
<polygon fill="#63b8ff" stroke="#63b8ff" points="218.48,-573.65 223.48,-564.32 213.75,-568.49 218.48,-573.65"/>
</a>
</g>
</g>
<!-- Node12 -->
<g id="Node000012" class="node">
<title>Node12</title>
<g id="a_Node000012"><a xlink:href="class_keysight_m9807_a.html#a861c82a08c49f54dd245db73d87181c8" target="_top" xlink:title=" ">
<polygon fill="white" stroke="#666666" points="125.88,-619.92 9.38,-619.92 9.38,-599.92 125.88,-599.92 125.88,-619.92"/>
<text text-anchor="middle" x="67.62" y="-606.42" font-family="Helvetica,sans-Serif" font-size="10.00">KeysightM9807A::rf_off</text>
</a>
</g>
</g>
<!-- Node6&#45;&gt;Node12 -->
<g id="edge11_Node000006_Node000012" class="edge">
<title>Node6&#45;&gt;Node12</title>
<g id="a_edge11_Node000006_Node000012"><a xlink:title=" ">
<path fill="none" stroke="#63b8ff" d="M199.57,-567.33C180.61,-574.77 156.82,-583.76 135.25,-590.92 126.35,-593.88 116.68,-596.8 107.55,-599.43"/>
<polygon fill="#63b8ff" stroke="#63b8ff" points="200.56,-570.31 208.57,-563.38 197.98,-563.8 200.56,-570.31"/>
</a>
</g>
</g>
<!-- Node13 -->
<g id="Node000013" class="node">
<title>Node13</title>
<g id="a_Node000013"><a xlink:href="class_keysight_m9807_a.html#adf9e166699c89ec3c7f53fae5ec81b0c" target="_top" xlink:title=" ">
<polygon fill="white" stroke="#666666" points="126.25,-581.92 9,-581.92 9,-561.92 126.25,-561.92 126.25,-581.92"/>
<text text-anchor="middle" x="67.62" y="-568.42" font-family="Helvetica,sans-Serif" font-size="10.00">KeysightM9807A::rf_on</text>
</a>
</g>
</g>
<!-- Node6&#45;&gt;Node13 -->
<g id="edge12_Node000006_Node000013" class="edge">
<title>Node6&#45;&gt;Node13</title>
<g id="a_edge12_Node000006_Node000013"><a xlink:title=" ">
<path fill="none" stroke="#63b8ff" d="M160.13,-561.49C148.89,-562.77 137.44,-564.08 126.62,-565.31"/>
<polygon fill="#63b8ff" stroke="#63b8ff" points="160.29,-564.88 169.83,-560.27 159.5,-557.92 160.29,-564.88"/>
</a>
</g>
</g>
<!-- Node14 -->
<g id="Node000014" class="node">
<title>Node14</title>
<g id="a_Node000014"><a xlink:href="class_keysight_m9807_a.html#ac6105e309ba2f11a360797e19d34a592" target="_top" xlink:title=" ">
<polygon fill="white" stroke="#666666" points="126.25,-543.92 9,-543.92 9,-523.92 126.25,-523.92 126.25,-543.92"/>
<text text-anchor="middle" x="67.62" y="-530.42" font-family="Helvetica,sans-Serif" font-size="10.00">KeysightM9807A::rf_on</text>
</a>
</g>
</g>
<!-- Node6&#45;&gt;Node14 -->
<g id="edge13_Node000006_Node000014" class="edge">
<title>Node6&#45;&gt;Node14</title>
<g id="a_edge13_Node000006_Node000014"><a xlink:title=" ">
<path fill="none" stroke="#63b8ff" d="M160.13,-544.36C148.89,-543.07 137.44,-541.77 126.62,-540.54"/>
<polygon fill="#63b8ff" stroke="#63b8ff" points="159.5,-547.92 169.83,-545.58 160.29,-540.97 159.5,-547.92"/>
</a>
</g>
</g>
<!-- Node15 -->
<g id="Node000015" class="node">
<title>Node15</title>
<g id="a_Node000015"><a xlink:href="class_visa_device.html#ab95d81d2e1ebab67621ac7aac769bc64" target="_top" xlink:title="Отправка данных на прибор и чтение ответа от прибора. Также, ожидается завершение выполнения действий...">
<polygon fill="white" stroke="#666666" points="132.62,-505.92 2.62,-505.92 2.62,-485.92 132.62,-485.92 132.62,-505.92"/>
<text text-anchor="middle" x="67.62" y="-492.42" font-family="Helvetica,sans-Serif" font-size="10.00">VisaDevice::send_wait_err</text>
</a>
</g>
</g>
<!-- Node6&#45;&gt;Node15 -->
<g id="edge14_Node000006_Node000015" class="edge">
<title>Node6&#45;&gt;Node15</title>
<g id="a_edge14_Node000006_Node000015"><a xlink:title=" ">
<path fill="none" stroke="#63b8ff" d="M185.17,-539.1C180.42,-537.48 175.72,-535.74 171.25,-533.92 154.5,-527.09 152.04,-521.66 135.25,-514.92 127.32,-511.74 118.67,-508.86 110.3,-506.37"/>
<polygon fill="#63b8ff" stroke="#63b8ff" points="183.97,-542.71 194.57,-542.47 186.13,-536.05 183.97,-542.71"/>
</a>
</g>
</g>
<!-- Node16 -->
<g id="Node000016" class="node">
<title>Node16</title>
<g id="a_Node000016"><a xlink:href="class_keysight_m9807_a.html#a752f62baec908e4e421a95b3c75422fc" target="_top" xlink:title=" ">
<polygon fill="white" stroke="#666666" points="133,-467.92 2.25,-467.92 2.25,-447.92 133,-447.92 133,-467.92"/>
<text text-anchor="middle" x="67.62" y="-454.42" font-family="Helvetica,sans-Serif" font-size="10.00">KeysightM9807A::set_freq</text>
</a>
</g>
</g>
<!-- Node6&#45;&gt;Node16 -->
<g id="edge15_Node000006_Node000016" class="edge">
<title>Node6&#45;&gt;Node16</title>
<g id="a_edge15_Node000006_Node000016"><a xlink:title=" ">
<path fill="none" stroke="#63b8ff" d="M176.58,-537.53C174.73,-536.41 172.95,-535.21 171.25,-533.92 147.36,-515.84 159.24,-494.88 135.25,-476.92 130.63,-473.46 125.4,-470.63 119.95,-468.32"/>
<polygon fill="#63b8ff" stroke="#63b8ff" points="174.77,-541.04 185.27,-542.47 177.95,-534.81 174.77,-541.04"/>
</a>
</g>
</g>
<!-- Node17 -->
<g id="Node000017" class="node">
<title>Node17</title>
<g id="a_Node000017"><a xlink:href="class_keysight_m9807_a.html#a2b1761a2a4b4dc696a74590c2cb028de" target="_top" xlink:title=" ">
<polygon fill="white" stroke="#666666" points="122.5,-429.92 12.75,-429.92 12.75,-397.92 122.5,-397.92 122.5,-429.92"/>
<text text-anchor="start" x="20.75" y="-416.42" font-family="Helvetica,sans-Serif" font-size="10.00">KeysightM9807A::set</text>
<text text-anchor="middle" x="67.62" y="-404.42" font-family="Helvetica,sans-Serif" font-size="10.00">_freq_range</text>
</a>
</g>
</g>
<!-- Node6&#45;&gt;Node17 -->
<g id="edge16_Node000006_Node000017" class="edge">
<title>Node6&#45;&gt;Node17</title>
<g id="a_edge16_Node000006_Node000017"><a xlink:title=" ">
<path fill="none" stroke="#63b8ff" d="M174.92,-537C173.64,-536.03 172.42,-535.01 171.25,-533.92 138.17,-503.19 167.23,-470.8 135.25,-438.92 131.57,-435.26 127.31,-432.13 122.75,-429.45"/>
<polygon fill="#63b8ff" stroke="#63b8ff" points="172.61,-540.3 182.96,-542.55 176.28,-534.33 172.61,-540.3"/>
</a>
</g>
</g>
<!-- Node18 -->
<g id="Node000018" class="node">
<title>Node18</title>
<g id="a_Node000018"><a xlink:href="class_keysight_m9807_a.html#a148ac915640756d3ef0c33d92c1b1205" target="_top" xlink:title=" ">
<polygon fill="white" stroke="#666666" points="134.5,-379.92 0.75,-379.92 0.75,-359.92 134.5,-359.92 134.5,-379.92"/>
<text text-anchor="middle" x="67.62" y="-366.42" font-family="Helvetica,sans-Serif" font-size="10.00">KeysightM9807A::set_path</text>
</a>
</g>
</g>
<!-- Node6&#45;&gt;Node18 -->
<g id="edge17_Node000006_Node000018" class="edge">
<title>Node6&#45;&gt;Node18</title>
<g id="a_edge17_Node000006_Node000018"><a xlink:title=" ">
<path fill="none" stroke="#63b8ff" d="M173.82,-536.39C172.93,-535.6 172.07,-534.78 171.25,-533.92 125.37,-485.92 181.39,-436.68 135.25,-388.92 131.91,-385.46 127.98,-382.62 123.74,-380.29"/>
<polygon fill="#63b8ff" stroke="#63b8ff" points="171.39,-539.66 181.6,-542.5 175.39,-533.91 171.39,-539.66"/>
</a>
</g>
</g>
<!-- Node19 -->
<g id="Node000019" class="node">
<title>Node19</title>
<g id="a_Node000019"><a xlink:href="class_keysight_m9807_a.html#ab3a0a48c7e439fab722d902479ff78eb" target="_top" xlink:title=" ">
<polygon fill="white" stroke="#666666" points="122.5,-341.92 12.75,-341.92 12.75,-309.92 122.5,-309.92 122.5,-341.92"/>
<text text-anchor="start" x="20.75" y="-328.42" font-family="Helvetica,sans-Serif" font-size="10.00">KeysightM9807A::set</text>
<text text-anchor="middle" x="67.62" y="-316.42" font-family="Helvetica,sans-Serif" font-size="10.00">_power</text>
</a>
</g>
</g>
<!-- Node6&#45;&gt;Node19 -->
<g id="edge18_Node000006_Node000019" class="edge">
<title>Node6&#45;&gt;Node19</title>
<g id="a_edge18_Node000006_Node000019"><a xlink:title=" ">
<path fill="none" stroke="#63b8ff" d="M173.38,-536.09C172.64,-535.39 171.93,-534.67 171.25,-533.92 115.47,-472.61 188.84,-414.16 135.25,-350.92 131.74,-346.78 127.46,-343.32 122.79,-340.43"/>
<polygon fill="#63b8ff" stroke="#63b8ff" points="170.98,-539.4 181.11,-542.49 175.12,-533.76 170.98,-539.4"/>
</a>
</g>
</g>
<!-- Node20 -->
<g id="Node000020" class="node">
<title>Node20</title>
<g id="a_Node000020"><a xlink:href="class_keysight_m9807_a.html#a83a1f840e34e3ecb56c319649725efb8" target="_top" xlink:title=" ">
<polygon fill="white" stroke="#666666" points="129.25,-291.92 6,-291.92 6,-271.92 129.25,-271.92 129.25,-291.92"/>
<text text-anchor="middle" x="67.62" y="-278.42" font-family="Helvetica,sans-Serif" font-size="10.00">KeysightM9807A::trigger</text>
</a>
</g>
</g>
<!-- Node6&#45;&gt;Node20 -->
<g id="edge19_Node000006_Node000020" class="edge">
<title>Node6&#45;&gt;Node20</title>
<g id="a_edge19_Node000006_Node000020"><a xlink:title=" ">
<path fill="none" stroke="#63b8ff" d="M172.98,-535.78C172.39,-535.18 171.81,-534.56 171.25,-533.92 102.33,-454.99 204.59,-379.48 135.25,-300.92 132.23,-297.5 128.63,-294.67 124.7,-292.34"/>
<polygon fill="#63b8ff" stroke="#63b8ff" points="170.6,-539.13 180.66,-542.45 174.87,-533.58 170.6,-539.13"/>
</a>
</g>
</g>
<!-- Node22 -->
<g id="Node000022" class="node">
<title>Node22</title>
<g id="a_Node000022"><a xlink:href="class_gen_device.html#ae42dc0c930a6d23322ffbe223d81ab36" target="_top" xlink:title=" ">
<polygon fill="white" stroke="#666666" points="636.25,-395.92 521.25,-395.92 521.25,-375.92 636.25,-375.92 636.25,-395.92"/>
<text text-anchor="middle" x="578.75" y="-382.42" font-family="Helvetica,sans-Serif" font-size="10.00">GenDevice::GenDevice</text>
</a>
</g>
</g>
<!-- Node21&#45;&gt;Node22 -->
<g id="edge21_Node000021_Node000022" class="edge">
<title>Node21&#45;&gt;Node22</title>
<g id="a_edge21_Node000021_Node000022"><a xlink:title=" ">
<path fill="none" stroke="#63b8ff" d="M662.82,-405.7C649.87,-402.62 636.1,-399.34 623.57,-396.36"/>
<polygon fill="#63b8ff" stroke="#63b8ff" points="661.9,-409.32 672.44,-408.23 663.53,-402.51 661.9,-409.32"/>
</a>
</g>
</g>
<!-- Node23 -->
<g id="Node000023" class="node">
<title>Node23</title>
<g id="a_Node000023"><a xlink:href="class_vna_device.html#ace1217e26e6e8d1b0e5127227730989b" target="_top" xlink:title=" ">
<polygon fill="white" stroke="#666666" points="635.5,-433.92 522,-433.92 522,-413.92 635.5,-413.92 635.5,-433.92"/>
<text text-anchor="middle" x="578.75" y="-420.42" font-family="Helvetica,sans-Serif" font-size="10.00">VnaDevice::VnaDevice</text>
</a>
</g>
</g>
<!-- Node21&#45;&gt;Node23 -->
<g id="edge22_Node000021_Node000023" class="edge">
<title>Node21&#45;&gt;Node23</title>
<g id="a_edge22_Node000021_Node000023"><a xlink:title=" ">
<path fill="none" stroke="#63b8ff" d="M662.55,-420.23C653.75,-420.62 644.57,-421.03 635.67,-421.43"/>
<polygon fill="#63b8ff" stroke="#63b8ff" points="662.61,-423.68 672.44,-419.74 662.3,-416.69 662.61,-423.68"/>
</a>
</g>
</g>
<!-- Node25 -->
<g id="Node000025" class="node">
<title>Node25</title>
<g id="a_Node000025"><a xlink:href="class_visa_device.html#ab1f5c0b110fca770dbd5be069453ea82" target="_top" xlink:title="Ожидание завершения выполнения команды.">
<polygon fill="white" stroke="#666666" points="622.38,-476.92 535.12,-476.92 535.12,-456.92 622.38,-456.92 622.38,-476.92"/>
<text text-anchor="middle" x="578.75" y="-463.42" font-family="Helvetica,sans-Serif" font-size="10.00">VisaDevice::wait</text>
</a>
</g>
</g>
<!-- Node24&#45;&gt;Node25 -->
<g id="edge24_Node000024_Node000025" class="edge">
<title>Node24&#45;&gt;Node25</title>
<g id="a_edge24_Node000024_Node000025"><a xlink:title=" ">
<path fill="none" stroke="#63b8ff" d="M661.03,-463.9C648.3,-464.37 634.87,-464.87 622.67,-465.33"/>
<polygon fill="#63b8ff" stroke="#63b8ff" points="661.11,-467.36 670.98,-463.49 660.85,-460.37 661.11,-467.36"/>
</a>
</g>
</g>
<!-- Node26 -->
<g id="Node000026" class="node">
<title>Node26</title>
<g id="a_Node000026"><a xlink:href="class_visa_device.html#a3744ee1e929d6c05b522693c344c76b3" target="_top" xlink:title="Отправка данных на прибор и чтение ответа от прибора. Также, ожидается завершение выполнения действий...">
<polygon fill="white" stroke="#666666" points="468,-486.92 354.5,-486.92 354.5,-466.92 468,-466.92 468,-486.92"/>
<text text-anchor="middle" x="411.25" y="-473.42" font-family="Helvetica,sans-Serif" font-size="10.00">VisaDevice::send_wait</text>
</a>
</g>
</g>
<!-- Node25&#45;&gt;Node26 -->
<g id="edge25_Node000025_Node000026" class="edge">
<title>Node25&#45;&gt;Node26</title>
<g id="a_edge25_Node000025_Node000026"><a xlink:title=" ">
<path fill="none" stroke="#63b8ff" d="M523.95,-470.17C506.2,-471.25 486.42,-472.44 468.5,-473.52"/>
<polygon fill="#63b8ff" stroke="#63b8ff" points="523.93,-473.62 533.7,-469.52 523.51,-466.63 523.93,-473.62"/>
</a>
</g>
</g>
<!-- Node26&#45;&gt;Node6 -->
<g id="edge31_Node000026_Node000006" class="edge">
<title>Node26&#45;&gt;Node6</title>
<g id="a_edge31_Node000026_Node000006"><a xlink:title=" ">
<path fill="none" stroke="#63b8ff" d="M346.16,-491.32C343.08,-492.71 340.09,-494.25 337.25,-495.92 317.22,-507.75 321.08,-521.75 301.25,-533.92 295.72,-537.32 289.54,-540.14 283.27,-542.47"/>
<polygon fill="#63b8ff" stroke="#63b8ff" points="347.24,-494.25 355.23,-487.29 344.65,-487.75 347.24,-494.25"/>
</a>
</g>
</g>
<!-- Node27 -->
<g id="Node000027" class="node">
<title>Node27</title>
<g id="a_Node000027"><a xlink:href="class_keysight_gen.html#a8bbdbb1eba9f85c5e9efa9bd5df0313f" target="_top" xlink:title=" ">
<polygon fill="white" stroke="#666666" points="293.38,-310.92 179.12,-310.92 179.12,-278.92 293.38,-278.92 293.38,-310.92"/>
<text text-anchor="start" x="187.12" y="-297.42" font-family="Helvetica,sans-Serif" font-size="10.00">KeysightGen::move_to</text>
<text text-anchor="middle" x="236.25" y="-285.42" font-family="Helvetica,sans-Serif" font-size="10.00">_start_freq</text>
</a>
</g>
</g>
<!-- Node26&#45;&gt;Node27 -->
<g id="edge26_Node000026_Node000027" class="edge">
<title>Node26&#45;&gt;Node27</title>
<g id="a_edge26_Node000026_Node000027"><a xlink:title=" ">
<path fill="none" stroke="#63b8ff" d="M344.69,-463.91C342.02,-462.15 339.52,-460.16 337.25,-457.92 294.27,-415.52 339.58,-373.58 301.25,-326.92 296.12,-320.68 289.48,-315.55 282.41,-311.36"/>
<polygon fill="#63b8ff" stroke="#63b8ff" points="342.83,-467.42 353.3,-469.07 346.14,-461.26 342.83,-467.42"/>
</a>
</g>
</g>
<!-- Node28 -->
<g id="Node000028" class="node">
<title>Node28</title>
<g id="a_Node000028"><a xlink:href="class_keysight_gen.html#a7e1a018b3518d03e94504b48ea444b6f" target="_top" xlink:title=" ">
<polygon fill="white" stroke="#666666" points="293.38,-408.92 179.12,-408.92 179.12,-376.92 293.38,-376.92 293.38,-408.92"/>
<text text-anchor="start" x="187.12" y="-395.42" font-family="Helvetica,sans-Serif" font-size="10.00">KeysightGen::move_to</text>
<text text-anchor="middle" x="236.25" y="-383.42" font-family="Helvetica,sans-Serif" font-size="10.00">_stop_freq</text>
</a>
</g>
</g>
<!-- Node26&#45;&gt;Node28 -->
<g id="edge27_Node000026_Node000028" class="edge">
<title>Node26&#45;&gt;Node28</title>
<g id="a_edge27_Node000026_Node000028"><a xlink:title=" ">
<path fill="none" stroke="#63b8ff" d="M346.16,-462.53C343.08,-461.13 340.09,-459.6 337.25,-457.92 317.22,-446.09 320.37,-433.17 301.25,-419.92 295.6,-416.01 289.29,-412.5 282.9,-409.41"/>
<polygon fill="#63b8ff" stroke="#63b8ff" points="344.65,-466.09 355.23,-466.55 347.24,-459.59 344.65,-466.09"/>
</a>
</g>
</g>
<!-- Node29 -->
<g id="Node000029" class="node">
<title>Node29</title>
<g id="a_Node000029"><a xlink:href="class_keysight_gen.html#a218a478d0600e3fc2985adf86a049435" target="_top" xlink:title=" ">
<polygon fill="white" stroke="#666666" points="295.25,-258.92 177.25,-258.92 177.25,-238.92 295.25,-238.92 295.25,-258.92"/>
<text text-anchor="middle" x="236.25" y="-245.42" font-family="Helvetica,sans-Serif" font-size="10.00">KeysightGen::next_freq</text>
</a>
</g>
</g>
<!-- Node26&#45;&gt;Node29 -->
<g id="edge28_Node000026_Node000029" class="edge">
<title>Node26&#45;&gt;Node29</title>
<g id="a_edge28_Node000026_Node000029"><a xlink:title=" ">
<path fill="none" stroke="#63b8ff" d="M344.89,-464.42C342.12,-462.53 339.55,-460.38 337.25,-457.92 279.09,-395.83 357.44,-333.8 301.25,-269.92 297.39,-265.53 292.59,-262.06 287.38,-259.3"/>
<polygon fill="#63b8ff" stroke="#63b8ff" points="342.84,-467.84 353.29,-469.58 346.21,-461.7 342.84,-467.84"/>
</a>
</g>
</g>
<!-- Node30 -->
<g id="Node000030" class="node">
<title>Node30</title>
<g id="a_Node000030"><a xlink:href="class_keysight_gen.html#aa243d66cc8ba6c1d87359f4db4f371ac" target="_top" xlink:title=" ">
<polygon fill="white" stroke="#666666" points="294.5,-355.92 178,-355.92 178,-335.92 294.5,-335.92 294.5,-355.92"/>
<text text-anchor="middle" x="236.25" y="-342.42" font-family="Helvetica,sans-Serif" font-size="10.00">KeysightGen::prev_freq</text>
</a>
</g>
</g>
<!-- Node26&#45;&gt;Node30 -->
<g id="edge29_Node000026_Node000030" class="edge">
<title>Node26&#45;&gt;Node30</title>
<g id="a_edge29_Node000026_Node000030"><a xlink:title=" ">
<path fill="none" stroke="#63b8ff" d="M344.41,-463.23C341.88,-461.65 339.48,-459.88 337.25,-457.92 304.93,-429.44 332.46,-397.62 301.25,-367.92 296.14,-363.06 289.92,-359.27 283.37,-356.32"/>
<polygon fill="#63b8ff" stroke="#63b8ff" points="342.57,-466.74 353.06,-468.22 345.79,-460.52 342.57,-466.74"/>
</a>
</g>
</g>
<!-- Node31 -->
<g id="Node000031" class="node">
<title>Node31</title>
<g id="a_Node000031"><a xlink:href="class_visa_device.html#aff290be3fb61e9679a548aafc571985d" target="_top" xlink:title="Отправка данных на прибор и чтение ответа от прибора. Также, ожидается завершение выполнения действий...">
<polygon fill="white" stroke="#666666" points="293,-486.92 179.5,-486.92 179.5,-466.92 293,-466.92 293,-486.92"/>
<text text-anchor="middle" x="236.25" y="-473.42" font-family="Helvetica,sans-Serif" font-size="10.00">VisaDevice::send_wait</text>
</a>
</g>
</g>
<!-- Node26&#45;&gt;Node31 -->
<g id="edge30_Node000026_Node000031" class="edge">
<title>Node26&#45;&gt;Node31</title>
<g id="a_edge30_Node000026_Node000031"><a xlink:title=" ">
<path fill="none" stroke="#63b8ff" d="M343.4,-476.92C326.9,-476.92 309.38,-476.92 293.43,-476.92"/>
<polygon fill="#63b8ff" stroke="#63b8ff" points="343.08,-480.42 353.08,-476.92 343.08,-473.42 343.08,-480.42"/>
</a>
</g>
</g>
<!-- Node32 -->
<g id="Node000032" class="node">
<title>Node32</title>
<g id="a_Node000032"><a xlink:href="class_keysight_gen.html#aada9855525b00c8b30b9f27baa216464" target="_top" xlink:title=" ">
<polygon fill="white" stroke="#666666" points="292.62,-448.92 179.88,-448.92 179.88,-428.92 292.62,-428.92 292.62,-448.92"/>
<text text-anchor="middle" x="236.25" y="-435.42" font-family="Helvetica,sans-Serif" font-size="10.00">KeysightGen::set_freq</text>
</a>
</g>
</g>
<!-- Node26&#45;&gt;Node32 -->
<g id="edge32_Node000026_Node000032" class="edge">
<title>Node26&#45;&gt;Node32</title>
<g id="a_edge32_Node000026_Node000032"><a xlink:title=" ">
<path fill="none" stroke="#63b8ff" d="M352.03,-464.14C330.17,-459.33 305.61,-453.94 284.83,-449.37"/>
<polygon fill="#63b8ff" stroke="#63b8ff" points="351,-467.71 361.52,-466.44 352.5,-460.87 351,-467.71"/>
</a>
</g>
</g>
<!-- Node33&#45;&gt;Node4 -->
<g id="edge47_Node000033_Node000004" class="edge">
<title>Node33&#45;&gt;Node4</title>
<g id="a_edge47_Node000033_Node000004"><a xlink:title=" ">
<path fill="none" stroke="#63b8ff" d="M556.44,-326.04C544.52,-336.66 530.28,-351.24 521.25,-366.92 491.56,-418.51 527.71,-454.2 485.25,-495.92 479.65,-501.43 472.66,-505.4 465.24,-508.25"/>
<polygon fill="#63b8ff" stroke="#63b8ff" points="558.29,-328.21 563.61,-319.05 553.73,-322.89 558.29,-328.21"/>
</a>
</g>
</g>
<!-- Node33&#45;&gt;Node26 -->
<g id="edge48_Node000033_Node000026" class="edge">
<title>Node33&#45;&gt;Node26</title>
<g id="a_edge48_Node000033_Node000026"><a xlink:title=" ">
<path fill="none" stroke="#63b8ff" d="M557.04,-326.41C545.32,-337.15 531.09,-351.73 521.25,-366.92 497.61,-403.43 517.82,-429.1 485.25,-457.92 480.35,-462.26 474.57,-465.63 468.46,-468.24"/>
<polygon fill="#63b8ff" stroke="#63b8ff" points="558.88,-329.57 564.03,-320.31 554.23,-324.33 558.88,-329.57"/>
</a>
</g>
</g>
<!-- Node33&#45;&gt;Node29 -->
<g id="edge37_Node000033_Node000029" class="edge">
<title>Node33&#45;&gt;Node29</title>
<g id="a_edge37_Node000033_Node000029"><a xlink:title=" ">
<path fill="none" stroke="#63b8ff" d="M578.35,-287.65C578.59,-233.4 570.75,-89.79 485.25,-27.92 431.96,10.64 392.52,7.74 337.25,-27.92 260.46,-77.46 242,-201.81 238.16,-238.55"/>
<polygon fill="#63b8ff" stroke="#63b8ff" points="574.84,-287.57 578.18,-297.62 581.84,-287.68 574.84,-287.57"/>
</a>
</g>
</g>
<!-- Node34 -->
<g id="Node000034" class="node">
<title>Node34</title>
<g id="a_Node000034"><a xlink:href="class_keysight_m9807_a.html#a0f54d9bad1ad1923606ff767f70de3e1" target="_top" xlink:title=" ">
<polygon fill="white" stroke="#666666" points="465.38,-220.92 357.12,-220.92 357.12,-188.92 465.38,-188.92 465.38,-220.92"/>
<text text-anchor="start" x="365.12" y="-207.42" font-family="Helvetica,sans-Serif" font-size="10.00">KeysightM9807A::full</text>
<text text-anchor="middle" x="411.25" y="-195.42" font-family="Helvetica,sans-Serif" font-size="10.00">_preset</text>
</a>
</g>
</g>
<!-- Node33&#45;&gt;Node34 -->
<g id="edge34_Node000033_Node000034" class="edge">
<title>Node33&#45;&gt;Node34</title>
<g id="a_edge34_Node000033_Node000034"><a xlink:title=" ">
<path fill="none" stroke="#63b8ff" d="M560.53,-290.65C543.03,-273 514.41,-246.56 485.25,-229.92 479.08,-226.4 472.34,-223.27 465.53,-220.52"/>
<polygon fill="#63b8ff" stroke="#63b8ff" points="557.7,-292.8 567.18,-297.53 562.73,-287.92 557.7,-292.8"/>
</a>
</g>
</g>
<!-- Node35 -->
<g id="Node000035" class="node">
<title>Node35</title>
<g id="a_Node000035"><a xlink:href="class_keysight_gen.html#a22afec59890f93fe8ce3800a6ec9a453" target="_top" xlink:title=" ">
<polygon fill="white" stroke="#666666" points="485.25,-170.92 337.25,-170.92 337.25,-150.92 485.25,-150.92 485.25,-170.92"/>
<text text-anchor="middle" x="411.25" y="-157.42" font-family="Helvetica,sans-Serif" font-size="10.00">KeysightGen::get_current_freq</text>
</a>
</g>
</g>
<!-- Node33&#45;&gt;Node35 -->
<g id="edge35_Node000033_Node000035" class="edge">
<title>Node33&#45;&gt;Node35</title>
<g id="a_edge35_Node000033_Node000035"><a xlink:title=" ">
<path fill="none" stroke="#63b8ff" d="M568.95,-288.99C555.26,-260.37 526.14,-208 485.25,-179.92 480.28,-176.51 474.75,-173.72 469,-171.42"/>
<polygon fill="#63b8ff" stroke="#63b8ff" points="566.06,-290.08 573.43,-297.7 572.41,-287.15 566.06,-290.08"/>
</a>
</g>
</g>
<!-- Node36 -->
<g id="Node000036" class="node">
<title>Node36</title>
<g id="a_Node000036"><a xlink:href="class_keysight_m9807_a.html#a9a23e8c51407edd1aba3cf734d9ea71b" target="_top" xlink:title=" ">
<polygon fill="white" stroke="#666666" points="478.12,-132.92 344.38,-132.92 344.38,-112.92 478.12,-112.92 478.12,-132.92"/>
<text text-anchor="middle" x="411.25" y="-119.42" font-family="Helvetica,sans-Serif" font-size="10.00">KeysightM9807A::get_data</text>
</a>
</g>
</g>
<!-- Node33&#45;&gt;Node36 -->
<g id="edge36_Node000033_Node000036" class="edge">
<title>Node33&#45;&gt;Node36</title>
<g id="a_edge36_Node000033_Node000036"><a xlink:title=" ">
<path fill="none" stroke="#63b8ff" d="M572.17,-288.3C561.48,-252.79 534.66,-180.25 485.25,-141.92 480.8,-138.47 475.79,-135.64 470.52,-133.33"/>
<polygon fill="#63b8ff" stroke="#63b8ff" points="569.07,-289.17 575.19,-297.82 575.8,-287.24 569.07,-289.17"/>
</a>
</g>
</g>
<!-- Node37 -->
<g id="Node000037" class="node">
<title>Node37</title>
<g id="a_Node000037"><a xlink:href="class_keysight_gen.html#ab60f56567bec59f39cceb9c0b7d7d892" target="_top" xlink:title=" ">
<polygon fill="white" stroke="#666666" points="463.88,-94.92 358.62,-94.92 358.62,-74.92 463.88,-74.92 463.88,-94.92"/>
<text text-anchor="middle" x="411.25" y="-81.42" font-family="Helvetica,sans-Serif" font-size="10.00">KeysightGen::preset</text>
</a>
</g>
</g>
<!-- Node33&#45;&gt;Node37 -->
<g id="edge38_Node000033_Node000037" class="edge">
<title>Node33&#45;&gt;Node37</title>
<g id="a_edge38_Node000033_Node000037"><a xlink:title=" ">
<path fill="none" stroke="#63b8ff" d="M574.38,-287.77C566.6,-246.05 543.38,-152.96 485.25,-103.92 479.14,-98.77 471.8,-95 464.16,-92.23"/>
<polygon fill="#63b8ff" stroke="#63b8ff" points="571.09,-288.28 576.25,-297.53 577.99,-287.08 571.09,-288.28"/>
</a>
</g>
</g>
<!-- Node38 -->
<g id="Node000038" class="node">
<title>Node38</title>
<g id="a_Node000038"><a xlink:href="class_keysight_m9807_a.html#a6048408088bc8fc73c986dd812c86328" target="_top" xlink:title=" ">
<polygon fill="white" stroke="#666666" points="472.88,-56.92 349.62,-56.92 349.62,-36.92 472.88,-36.92 472.88,-56.92"/>
<text text-anchor="middle" x="411.25" y="-43.42" font-family="Helvetica,sans-Serif" font-size="10.00">KeysightM9807A::preset</text>
</a>
</g>
</g>
<!-- Node33&#45;&gt;Node38 -->
<g id="edge39_Node000033_Node000038" class="edge">
<title>Node33&#45;&gt;Node38</title>
<g id="a_edge39_Node000033_Node000038"><a xlink:title=" ">
<path fill="none" stroke="#63b8ff" d="M576.06,-287.84C571.13,-240.7 552.5,-126.21 485.25,-65.92 481.45,-62.51 477.11,-59.7 472.49,-57.39"/>
<polygon fill="#63b8ff" stroke="#63b8ff" points="572.65,-287.9 577.06,-297.53 579.62,-287.25 572.65,-287.9"/>
</a>
</g>
</g>
<!-- Node39 -->
<g id="Node000039" class="node">
<title>Node39</title>
<g id="a_Node000039"><a xlink:href="class_keysight_gen.html#acb44da0109ba9b90e2e0dd6dcdb552a1" target="_top" xlink:title=" ">
<polygon fill="white" stroke="#666666" points="460.5,-258.92 362,-258.92 362,-238.92 460.5,-238.92 460.5,-258.92"/>
<text text-anchor="middle" x="411.25" y="-245.42" font-family="Helvetica,sans-Serif" font-size="10.00">KeysightGen::rf_off</text>
</a>
</g>
</g>
<!-- Node33&#45;&gt;Node39 -->
<g id="edge40_Node000033_Node000039" class="edge">
<title>Node33&#45;&gt;Node39</title>
<g id="a_edge40_Node000033_Node000039"><a xlink:title=" ">
<path fill="none" stroke="#63b8ff" d="M547.03,-293.8C529.26,-285.43 506.32,-275.28 485.25,-267.92 476.22,-264.77 466.41,-261.87 456.99,-259.34"/>
<polygon fill="#63b8ff" stroke="#63b8ff" points="545.3,-297.33 555.84,-298.48 548.32,-291.01 545.3,-297.33"/>
</a>
</g>
</g>
<!-- Node40 -->
<g id="Node000040" class="node">
<title>Node40</title>
<g id="a_Node000040"><a xlink:href="class_keysight_gen.html#a27f8ef0b4486e9402d4a2491cef702e7" target="_top" xlink:title=" ">
<polygon fill="white" stroke="#666666" points="460.88,-448.92 361.62,-448.92 361.62,-428.92 460.88,-428.92 460.88,-448.92"/>
<text text-anchor="middle" x="411.25" y="-435.42" font-family="Helvetica,sans-Serif" font-size="10.00">KeysightGen::rf_on</text>
</a>
</g>
</g>
<!-- Node33&#45;&gt;Node40 -->
<g id="edge45_Node000033_Node000040" class="edge">
<title>Node33&#45;&gt;Node40</title>
<g id="a_edge45_Node000033_Node000040"><a xlink:title=" ">
<path fill="none" stroke="#63b8ff" d="M559.07,-326.45C547.63,-337.58 532.98,-352.55 521.25,-366.92 503.25,-388.98 508.52,-403.51 485.25,-419.92 478.08,-424.98 469.66,-428.69 461.14,-431.42"/>
<polygon fill="#63b8ff" stroke="#63b8ff" points="560.96,-329.54 565.75,-320.09 556.11,-324.49 560.96,-329.54"/>
</a>
</g>
</g>
<!-- Node41 -->
<g id="Node000041" class="node">
<title>Node41</title>
<g id="a_Node000041"><a xlink:href="class_visa_device.html#ae09de9a813b559eedad4587afbc64741" target="_top" xlink:title="Отправка данных на прибор и чтение ответа от прибора.">
<polygon fill="white" stroke="#666666" points="456.75,-410.92 365.75,-410.92 365.75,-390.92 456.75,-390.92 456.75,-410.92"/>
<text text-anchor="middle" x="411.25" y="-397.42" font-family="Helvetica,sans-Serif" font-size="10.00">VisaDevice::send</text>
</a>
</g>
</g>
<!-- Node33&#45;&gt;Node41 -->
<g id="edge46_Node000033_Node000041" class="edge">
<title>Node33&#45;&gt;Node41</title>
<g id="a_edge46_Node000033_Node000041"><a xlink:title=" ">
<path fill="none" stroke="#63b8ff" d="M559.94,-326.73C542.38,-343.33 514.06,-367.6 485.25,-381.92 476.46,-386.3 466.55,-389.74 456.93,-392.42"/>
<polygon fill="#63b8ff" stroke="#63b8ff" points="561.89,-329.75 566.65,-320.28 557.03,-324.71 561.89,-329.75"/>
</a>
</g>
</g>
<!-- Node42 -->
<g id="Node000042" class="node">
<title>Node42</title>
<g id="a_Node000042"><a xlink:href="class_keysight_gen.html#a6f4ac8651f6a5409ad317480bdce022f" target="_top" xlink:title=" ">
<polygon fill="white" stroke="#666666" points="472.5,-372.92 350,-372.92 350,-352.92 472.5,-352.92 472.5,-372.92"/>
<text text-anchor="middle" x="411.25" y="-359.42" font-family="Helvetica,sans-Serif" font-size="10.00">KeysightGen::set_power</text>
</a>
</g>
</g>
<!-- Node33&#45;&gt;Node42 -->
<g id="edge49_Node000033_Node000042" class="edge">
<title>Node33&#45;&gt;Node42</title>
<g id="a_edge49_Node000033_Node000042"><a xlink:title=" ">
<path fill="none" stroke="#63b8ff" d="M542.38,-323.32C525.27,-330.03 504.35,-337.84 485.25,-343.92 475.77,-346.94 465.48,-349.84 455.7,-352.43"/>
<polygon fill="#63b8ff" stroke="#63b8ff" points="543.48,-326.26 551.49,-319.32 540.9,-319.75 543.48,-326.26"/>
</a>
</g>
</g>
<!-- Node43 -->
<g id="Node000043" class="node">
<title>Node43</title>
<g id="a_Node000043"><a xlink:href="class_tesart_rbd.html#a149160a31d947bef5d67b8bec64c52b2" target="_top" xlink:title=" ">
<polygon fill="white" stroke="#666666" points="457.88,-334.92 364.62,-334.92 364.62,-314.92 457.88,-314.92 457.88,-334.92"/>
<text text-anchor="middle" x="411.25" y="-321.42" font-family="Helvetica,sans-Serif" font-size="10.00">TesartRbd::status</text>
</a>
</g>
</g>
<!-- Node33&#45;&gt;Node43 -->
<g id="edge50_Node000033_Node000043" class="edge">
<title>Node33&#45;&gt;Node43</title>
<g id="a_edge50_Node000033_Node000043"><a xlink:title=" ">
<path fill="none" stroke="#63b8ff" d="M522.06,-314.31C501.31,-316.31 478.01,-318.57 458.23,-320.48"/>
<polygon fill="#63b8ff" stroke="#63b8ff" points="522.35,-317.7 531.96,-313.25 521.67,-310.73 522.35,-317.7"/>
</a>
</g>
</g>
<!-- Node44 -->
<g id="Node000044" class="node">
<title>Node44</title>
<g id="a_Node000044"><a xlink:href="class_tesart_rbd.html#a592c41abaa2f8d44ffecb17434644d51" target="_top" xlink:title=" ">
<polygon fill="white" stroke="#666666" points="466.5,-296.92 356,-296.92 356,-276.92 466.5,-276.92 466.5,-296.92"/>
<text text-anchor="middle" x="411.25" y="-283.42" font-family="Helvetica,sans-Serif" font-size="10.00">TesartRbd::TesartRbd</text>
</a>
</g>
</g>
<!-- Node33&#45;&gt;Node44 -->
<g id="edge51_Node000033_Node000044" class="edge">
<title>Node33&#45;&gt;Node44</title>
<g id="a_edge51_Node000033_Node000044"><a xlink:title=" ">
<path fill="none" stroke="#63b8ff" d="M522.14,-301.53C504.3,-299.16 484.57,-296.54 466.81,-294.18"/>
<polygon fill="#63b8ff" stroke="#63b8ff" points="521.59,-305.12 531.96,-302.97 522.51,-298.18 521.59,-305.12"/>
</a>
</g>
</g>
<!-- Node39&#45;&gt;Node27 -->
<g id="edge41_Node000039_Node000027" class="edge">
<title>Node39&#45;&gt;Node27</title>
<g id="a_edge41_Node000039_Node000027"><a xlink:title=" ">
<path fill="none" stroke="#63b8ff" d="M359.09,-262.18C351.76,-264.09 344.31,-266.05 337.25,-267.92 323.17,-271.66 307.99,-275.73 293.81,-279.55"/>
<polygon fill="#63b8ff" stroke="#63b8ff" points="359.9,-265.32 368.69,-259.41 358.13,-258.55 359.9,-265.32"/>
</a>
</g>
</g>
<!-- Node39&#45;&gt;Node28 -->
<g id="edge42_Node000039_Node000028" class="edge">
<title>Node39&#45;&gt;Node28</title>
<g id="a_edge42_Node000039_Node000028"><a xlink:title=" ">
<path fill="none" stroke="#63b8ff" d="M351.91,-258.42C346.57,-260.91 341.56,-264.03 337.25,-267.92 303.14,-298.76 332.83,-331.49 301.25,-364.92 297,-369.42 291.91,-373.24 286.47,-376.46"/>
<polygon fill="#63b8ff" stroke="#63b8ff" points="352.73,-261.46 360.79,-254.58 350.2,-254.94 352.73,-261.46"/>
</a>
</g>
</g>
<!-- Node39&#45;&gt;Node29 -->
<g id="edge43_Node000039_Node000029" class="edge">
<title>Node39&#45;&gt;Node29</title>
<g id="a_edge43_Node000039_Node000029"><a xlink:title=" ">
<path fill="none" stroke="#63b8ff" d="M350.75,-248.92C332.93,-248.92 313.41,-248.92 295.66,-248.92"/>
<polygon fill="#63b8ff" stroke="#63b8ff" points="350.6,-252.42 360.6,-248.92 350.6,-245.42 350.6,-252.42"/>
</a>
</g>
</g>
<!-- Node39&#45;&gt;Node30 -->
<g id="edge44_Node000039_Node000030" class="edge">
<title>Node39&#45;&gt;Node30</title>
<g id="a_edge44_Node000039_Node000030"><a xlink:title=" ">
<path fill="none" stroke="#63b8ff" d="M351.74,-260.04C346.62,-262.21 341.7,-264.81 337.25,-267.92 314.21,-284.02 323.19,-302.35 301.25,-319.92 293.01,-326.52 282.88,-331.66 273.12,-335.55"/>
<polygon fill="#63b8ff" stroke="#63b8ff" points="352.59,-263.09 360.78,-256.36 350.18,-256.52 352.59,-263.09"/>
</a>
</g>
</g>
</g>
</svg>

<g id="navigator" transform="translate(0 0)" fill="#404254">
  <rect fill="#f2f5e9" fill-opacity="0.5" stroke="#606060" stroke-width=".5" x="0" y="0" width="60" height="60"/>
  <use id="zoomplus" xlink:href="#zoomPlus" x="17" y="9" onmousedown="handleZoom(evt,'in')"/>
  <use id="zoomminus" xlink:href="#zoomMin" x="42" y="9" onmousedown="handleZoom(evt,'out')"/>
  <use id="reset" xlink:href="#resetDef" x="30" y="36" onmousedown="handleReset()"/>
   <use id="arrowup" xlink:href="#arrowUp" x="0" y="0" onmousedown="handlePan(0,-1)"/>
  <use id="arrowright" xlink:href="#arrowRight" x="0" y="0" onmousedown="handlePan(1,0)"/>
  <use id="arrowdown" xlink:href="#arrowDown" x="0" y="0" onmousedown="handlePan(0,1)"/>
  <use id="arrowleft" xlink:href="#arrowLeft" x="0" y="0" onmousedown="handlePan(-1,0)"/>
</g>
<svg viewBox="0 0 15 15" width="100%" height="30px" preserveAspectRatio="xMaxYMin meet">
 <g id="arrow_out" transform="scale(0.3 0.3)">
  <a xlink:href="class_visa_device_aca08d9dbb0469f1143668a485e4adfe2_icgraph_org.svg" target="_base">
   <rect id="button" ry="5" rx="5" y="6" x="6" height="38" width="38"
        fill="#f2f5e9" fill-opacity="0.5" stroke="#606060" stroke-width="1.0"/>
   <path id="arrow"
     d="M 11.500037,31.436501 C 11.940474,20.09759 22.043105,11.32322 32.158766,21.979434 L 37.068811,17.246167 C 37.068811,17.246167 37.088388,32 37.088388,32 L 22.160133,31.978069 C 22.160133,31.978069 26.997745,27.140456 26.997745,27.140456 C 18.528582,18.264221 13.291696,25.230495 11.500037,31.436501 z"
     style="fill:#404040;"/>
  </a>
 </g>
</svg>

<style type='text/css'>
<![CDATA[
[data-mouse-over-selected='false'] { opacity: 0.7; }
[data-mouse-over-selected='true']  { opacity: 1.0; }
]]>
</style>
<script type="application/ecmascript"><![CDATA[
document.addEventListener('DOMContentLoaded', (event) => {
  highlightEdges();
  highlightAdjacentNodes();
});
]]></script>
</svg>
