<?xml version="1.0" encoding="UTF-8" standalone="no"?>
<!DOCTYPE svg PUBLIC "-//W3C//DTD SVG 1.1//EN"
 "http://www.w3.org/Graphics/SVG/1.1/DTD/svg11.dtd">
<!-- Generated by graphviz version 8.0.5 (20230430.1635)
 -->
<!-- Title: KeysightM9807A::preset Pages: 1 -->
<svg width="773pt" height="142pt"
 viewBox="0.00 0.00 773.00 142.00" xmlns="http://www.w3.org/2000/svg" xmlns:xlink="http://www.w3.org/1999/xlink">
<g id="graph0" class="graph" transform="scale(1 1) rotate(0) translate(4 138)">
<title>KeysightM9807A::preset</title>
<!-- Node1 -->
<g id="Node000001" class="node">
<title>Node1</title>
<g id="a_Node000001"><a xlink:title=" ">
<polygon fill="#999999" stroke="#666666" points="123.25,-58 0,-58 0,-38 123.25,-38 123.25,-58"/>
<text text-anchor="middle" x="61.62" y="-44.5" font-family="Helvetica,sans-Serif" font-size="10.00">KeysightM9807A::preset</text>
</a>
</g>
</g>
<!-- Node2 -->
<g id="Node000002" class="node">
<title>Node2</title>
<g id="a_Node000002"><a xlink:href="class_visa_device.html#ad659ba652605f5c983958400fde8c808" target="_top" xlink:title="Отправка данных на прибор и чтение ответа от прибора.">
<polygon fill="white" stroke="#666666" points="250.25,-58 159.25,-58 159.25,-38 250.25,-38 250.25,-58"/>
<text text-anchor="middle" x="204.75" y="-44.5" font-family="Helvetica,sans-Serif" font-size="10.00">VisaDevice::send</text>
</a>
</g>
</g>
<!-- Node1&#45;&gt;Node2 -->
<g id="edge1_Node000001_Node000002" class="edge">
<title>Node1&#45;&gt;Node2</title>
<g id="a_edge1_Node000001_Node000002"><a xlink:title=" ">
<path fill="none" stroke="#63b8ff" d="M123.7,-48C131.9,-48 140.27,-48 148.35,-48"/>
<polygon fill="#63b8ff" stroke="#63b8ff" points="148.17,-51.5 158.17,-48 148.17,-44.5 148.17,-51.5"/>
</a>
</g>
</g>
<!-- Node3 -->
<g id="Node000003" class="node">
<title>Node3</title>
<g id="a_Node000003"><a xlink:href="class_logger.html#af7709105c2708359b7b082218f4cc3e1" target="_top" xlink:title="Метод, осуществляющий логирование">
<polygon fill="white" stroke="#666666" points="606.5,-77 542.5,-77 542.5,-57 606.5,-57 606.5,-77"/>
<text text-anchor="middle" x="574.5" y="-63.5" font-family="Helvetica,sans-Serif" font-size="10.00">Logger::log</text>
</a>
</g>
</g>
<!-- Node2&#45;&gt;Node3 -->
<g id="edge2_Node000002_Node000003" class="edge">
<title>Node2&#45;&gt;Node3</title>
<g id="a_edge2_Node000002_Node000003"><a xlink:title=" ">
<path fill="none" stroke="#63b8ff" d="M237.58,-58.39C252.26,-62.85 270,-67.76 286.25,-71 382.48,-90.16 409.32,-99.51 506.5,-86 515.27,-84.78 524.5,-82.7 533.22,-80.36"/>
<polygon fill="#63b8ff" stroke="#63b8ff" points="533.88,-83.53 542.53,-77.41 531.95,-76.8 533.88,-83.53"/>
</a>
</g>
</g>
<!-- Node8 -->
<g id="Node000008" class="node">
<title>Node8</title>
<g id="a_Node000008"><a xlink:href="class_visa_device.html#aa807192fd9a8c3e6efc458f78de5e73e" target="_top" xlink:title="Метод, совмещающий в себе методы write() и read().">
<polygon fill="white" stroke="#666666" points="380.25,-39 286.25,-39 286.25,-19 380.25,-19 380.25,-39"/>
<text text-anchor="middle" x="333.25" y="-25.5" font-family="Helvetica,sans-Serif" font-size="10.00">VisaDevice::query</text>
</a>
</g>
</g>
<!-- Node2&#45;&gt;Node8 -->
<g id="edge7_Node000002_Node000008" class="edge">
<title>Node2&#45;&gt;Node8</title>
<g id="a_edge7_Node000002_Node000008"><a xlink:title=" ">
<path fill="none" stroke="#63b8ff" d="M250.71,-41.25C258.7,-40.05 267.13,-38.78 275.41,-37.54"/>
<polygon fill="#63b8ff" stroke="#63b8ff" points="275.79,-40.87 285.16,-35.92 274.75,-33.95 275.79,-40.87"/>
</a>
</g>
</g>
<!-- Node9 -->
<g id="Node000009" class="node">
<title>Node9</title>
<g id="a_Node000009"><a xlink:href="class_visa_device.html#aca08d9dbb0469f1143668a485e4adfe2" target="_top" xlink:title="Метод, позволяющий считать данные с устройства">
<polygon fill="white" stroke="#666666" points="505.75,-77 417,-77 417,-57 505.75,-57 505.75,-77"/>
<text text-anchor="middle" x="461.38" y="-63.5" font-family="Helvetica,sans-Serif" font-size="10.00">VisaDevice::read</text>
</a>
</g>
</g>
<!-- Node2&#45;&gt;Node9 -->
<g id="edge12_Node000002_Node000009" class="edge">
<title>Node2&#45;&gt;Node9</title>
<g id="a_edge12_Node000002_Node000009"><a xlink:title=" ">
<path fill="none" stroke="#63b8ff" d="M250.69,-51.35C294.04,-54.59 359.72,-59.49 406,-62.94"/>
<polygon fill="#63b8ff" stroke="#63b8ff" points="405.51,-66.49 415.74,-63.74 406.03,-59.51 405.51,-66.49"/>
</a>
</g>
</g>
<!-- Node10 -->
<g id="Node000010" class="node">
<title>Node10</title>
<g id="a_Node000010"><a xlink:href="class_visa_device.html#a29202c3f5e47326386d1d27972e25267" target="_top" xlink:title="Метод, позволяющий отправить команду на устройство">
<polygon fill="white" stroke="#666666" points="506.5,-39 416.25,-39 416.25,-19 506.5,-19 506.5,-39"/>
<text text-anchor="middle" x="461.38" y="-25.5" font-family="Helvetica,sans-Serif" font-size="10.00">VisaDevice::write</text>
</a>
</g>
</g>
<!-- Node2&#45;&gt;Node10 -->
<g id="edge13_Node000002_Node000010" class="edge">
<title>Node2&#45;&gt;Node10</title>
<g id="a_edge13_Node000002_Node000010"><a xlink:title=" ">
<path fill="none" stroke="#63b8ff" d="M222.23,-37.55C237.98,-28.23 262.72,-15.27 286.25,-10 329.41,-0.32 379.74,-7.78 415.15,-16.02"/>
<polygon fill="#63b8ff" stroke="#63b8ff" points="414.1,-19.61 424.64,-18.58 415.76,-12.81 414.1,-19.61"/>
</a>
</g>
</g>
<!-- Node4 -->
<g id="Node000004" class="node">
<title>Node4</title>
<g id="a_Node000004"><a xlink:href="logger_8hpp.html#a49284b7befa8e31f81e01ee8f3735dd0" target="_top" xlink:title="Функция, которая снимает значение текущего времени и конвертирует его в строку с заданным шаблоном.">
<polygon fill="white" stroke="#666666" points="748.12,-134 659.38,-134 659.38,-114 748.12,-114 748.12,-134"/>
<text text-anchor="middle" x="703.75" y="-120.5" font-family="Helvetica,sans-Serif" font-size="10.00">get_current_time</text>
</a>
</g>
</g>
<!-- Node3&#45;&gt;Node4 -->
<g id="edge3_Node000003_Node000004" class="edge">
<title>Node3&#45;&gt;Node4</title>
<g id="a_edge3_Node000003_Node000004"><a xlink:title=" ">
<path fill="none" stroke="#63b8ff" d="M591.52,-77.36C604.8,-85.63 624.35,-97.1 642.5,-105 646.57,-106.77 650.86,-108.46 655.2,-110.05"/>
<polygon fill="#63b8ff" stroke="#63b8ff" points="653.74,-113.59 664.34,-113.55 656.03,-106.97 653.74,-113.59"/>
</a>
</g>
</g>
<!-- Node5 -->
<g id="Node000005" class="node">
<title>Node5</title>
<g id="a_Node000005"><a xlink:href="class_logger.html#a6edb7b263f080d417b82a537ed50fee4" target="_top" xlink:title="Возвращает тег в зависимости от уровня логирования и от назначения тега.">
<polygon fill="white" stroke="#666666" points="745.5,-96 662,-96 662,-76 745.5,-76 745.5,-96"/>
<text text-anchor="middle" x="703.75" y="-82.5" font-family="Helvetica,sans-Serif" font-size="10.00">Logger::get_tag</text>
</a>
</g>
</g>
<!-- Node3&#45;&gt;Node5 -->
<g id="edge4_Node000003_Node000005" class="edge">
<title>Node3&#45;&gt;Node5</title>
<g id="a_edge4_Node000003_Node000005"><a xlink:title=" ">
<path fill="none" stroke="#63b8ff" d="M606.96,-71.7C620.22,-73.68 636.02,-76.04 650.92,-78.26"/>
<polygon fill="#63b8ff" stroke="#63b8ff" points="650.16,-81.84 660.57,-79.85 651.19,-74.91 650.16,-81.84"/>
</a>
</g>
</g>
<!-- Node6 -->
<g id="Node000006" class="node">
<title>Node6</title>
<g id="a_Node000006"><a xlink:href="class_logger.html#a4825613142ebb093bf8fa26f21f7f3fc" target="_top" xlink:title="Метод, который выводит сообщение в консоль.">
<polygon fill="white" stroke="#666666" points="765,-58 642.5,-58 642.5,-38 765,-38 765,-58"/>
<text text-anchor="middle" x="703.75" y="-44.5" font-family="Helvetica,sans-Serif" font-size="10.00">Logger::print_to_console</text>
</a>
</g>
</g>
<!-- Node3&#45;&gt;Node6 -->
<g id="edge5_Node000003_Node000006" class="edge">
<title>Node3&#45;&gt;Node6</title>
<g id="a_edge5_Node000003_Node000006"><a xlink:title=" ">
<path fill="none" stroke="#63b8ff" d="M606.96,-62.3C614.46,-61.18 622.77,-59.94 631.28,-58.67"/>
<polygon fill="#63b8ff" stroke="#63b8ff" points="631.73,-61.99 641.1,-57.06 630.69,-55.07 631.73,-61.99"/>
</a>
</g>
</g>
<!-- Node7 -->
<g id="Node000007" class="node">
<title>Node7</title>
<g id="a_Node000007"><a xlink:href="class_logger.html#a999bb33f7cf079cb98f32fae6016a2f3" target="_top" xlink:title="Метод, который записывает сообщение в файл.">
<polygon fill="white" stroke="#666666" points="754.12,-20 653.38,-20 653.38,0 754.12,0 754.12,-20"/>
<text text-anchor="middle" x="703.75" y="-6.5" font-family="Helvetica,sans-Serif" font-size="10.00">Logger::print_to_file</text>
</a>
</g>
</g>
<!-- Node3&#45;&gt;Node7 -->
<g id="edge6_Node000003_Node000007" class="edge">
<title>Node3&#45;&gt;Node7</title>
<g id="a_edge6_Node000003_Node000007"><a xlink:title=" ">
<path fill="none" stroke="#63b8ff" d="M591.52,-56.64C604.8,-48.37 624.35,-36.9 642.5,-29 646.57,-27.23 650.86,-25.54 655.2,-23.95"/>
<polygon fill="#63b8ff" stroke="#63b8ff" points="656.03,-27.03 664.34,-20.45 653.74,-20.41 656.03,-27.03"/>
</a>
</g>
</g>
<!-- Node8&#45;&gt;Node9 -->
<g id="edge8_Node000008_Node000009" class="edge">
<title>Node8&#45;&gt;Node9</title>
<g id="a_edge8_Node000008_Node000009"><a xlink:title=" ">
<path fill="none" stroke="#63b8ff" d="M369.05,-39.48C383.38,-43.8 400.18,-48.86 415.43,-53.46"/>
<polygon fill="#63b8ff" stroke="#63b8ff" points="414.11,-57.02 424.69,-56.55 416.13,-50.31 414.11,-57.02"/>
</a>
</g>
</g>
<!-- Node8&#45;&gt;Node10 -->
<g id="edge10_Node000008_Node000010" class="edge">
<title>Node8&#45;&gt;Node10</title>
<g id="a_edge10_Node000008_Node000010"><a xlink:title=" ">
<path fill="none" stroke="#63b8ff" d="M380.5,-29C388.42,-29 396.73,-29 404.87,-29"/>
<polygon fill="#63b8ff" stroke="#63b8ff" points="404.81,-32.5 414.81,-29 404.81,-25.5 404.81,-32.5"/>
</a>
</g>
</g>
<!-- Node9&#45;&gt;Node3 -->
<g id="edge9_Node000009_Node000003" class="edge">
<title>Node9&#45;&gt;Node3</title>
<g id="a_edge9_Node000009_Node000003"><a xlink:title=" ">
<path fill="none" stroke="#63b8ff" d="M505.98,-67C514.25,-67 522.9,-67 531.14,-67"/>
<polygon fill="#63b8ff" stroke="#63b8ff" points="531.04,-70.5 541.04,-67 531.04,-63.5 531.04,-70.5"/>
</a>
</g>
</g>
<!-- Node10&#45;&gt;Node3 -->
<g id="edge11_Node000010_Node000003" class="edge">
<title>Node10&#45;&gt;Node3</title>
<g id="a_edge11_Node000010_Node000003"><a xlink:title=" ">
<path fill="none" stroke="#63b8ff" d="M493.03,-39.48C505.3,-43.68 519.61,-48.57 532.73,-53.06"/>
<polygon fill="#63b8ff" stroke="#63b8ff" points="531.35,-56.63 541.94,-56.55 533.61,-50 531.35,-56.63"/>
</a>
</g>
</g>
</g>
</svg>
