<?xml version="1.0" encoding="UTF-8" standalone="no"?>
<!DOCTYPE svg PUBLIC "-//W3C//DTD SVG 1.1//EN"
 "http://www.w3.org/Graphics/SVG/1.1/DTD/svg11.dtd">
<!-- Generated by graphviz version 8.1.0 (20230707.0739)
 -->
<!-- Title: TesartRbd::is_stopped Pages: 1 -->
<svg width="396pt" height="204pt"
 viewBox="0.00 0.00 395.75 204.00" xmlns="http://www.w3.org/2000/svg" xmlns:xlink="http://www.w3.org/1999/xlink">

<svg id="main" version="1.1" xmlns="http://www.w3.org/2000/svg" xmlns:xlink="http://www.w3.org/1999/xlink" xml:space="preserve" onload="init(evt)">
<style type="text/css"><![CDATA[
.node, .edge {opacity: 0.7;}
.node.selected, .edge.selected {opacity: 1;}
.edge:hover path { stroke: red; }
.edge:hover polygon { stroke: red; fill: red; }
]]></style>
<script type="application/ecmascript" xlink:href="svg.min.js"/>
<svg id="graph" class="graph">
<g id="graph0" class="graph" transform="scale(1 1) rotate(0) translate(4 200)">
<title>TesartRbd::is_stopped</title>
<!-- Node1 -->
<g id="Node000001" class="node">
<title>Node1</title>
<g id="a_Node000001"><a xlink:title="Метод позволяет проверить, остановлена ли ось">
<polygon fill="#999999" stroke="#666666" points="387.75,-77 274.25,-77 274.25,-57 387.75,-57 387.75,-77"/>
<text text-anchor="middle" x="331" y="-63.5" font-family="Helvetica,sans-Serif" font-size="10.00">TesartRbd::is_stopped</text>
</a>
</g>
</g>
<!-- Node2 -->
<g id="Node000002" class="node">
<title>Node2</title>
<g id="a_Node000002"><a xlink:href="class_tesart_rbd.html#a1317670f51c7e529ca5960e69b7563a7" target="_top" xlink:title="Поворачивает ось до тех пор, пока она не достигнет требуемого угла">
<polygon fill="white" stroke="#666666" points="238.25,-96 149.5,-96 149.5,-76 238.25,-76 238.25,-96"/>
<text text-anchor="middle" x="193.88" y="-82.5" font-family="Helvetica,sans-Serif" font-size="10.00">TesartRbd::move</text>
</a>
</g>
</g>
<!-- Node1&#45;&gt;Node2 -->
<g id="edge1_Node000001_Node000002" class="edge">
<title>Node1&#45;&gt;Node2</title>
<g id="a_edge1_Node000001_Node000002"><a xlink:title=" ">
<path fill="none" stroke="#63b8ff" d="M263.04,-76.42C254.77,-77.58 246.48,-78.74 238.68,-79.84"/>
<polygon fill="#63b8ff" stroke="#63b8ff" points="263.45,-79.75 272.87,-74.89 262.48,-72.82 263.45,-79.75"/>
</a>
</g>
</g>
<!-- Node8 -->
<g id="Node000008" class="node">
<title>Node8</title>
<g id="a_Node000008"><a xlink:href="class_tesart_rbd.html#abd28c6d7c0d3ccbc76cae094ab825317" target="_top" xlink:title="Остановка всех осей">
<polygon fill="white" stroke="#666666" points="236.38,-58 151.38,-58 151.38,-38 236.38,-38 236.38,-58"/>
<text text-anchor="middle" x="193.88" y="-44.5" font-family="Helvetica,sans-Serif" font-size="10.00">TesartRbd::stop</text>
</a>
</g>
</g>
<!-- Node1&#45;&gt;Node8 -->
<g id="edge7_Node000001_Node000008" class="edge">
<title>Node1&#45;&gt;Node8</title>
<g id="a_edge7_Node000001_Node000008"><a xlink:title=" ">
<path fill="none" stroke="#63b8ff" d="M263.26,-57.62C254.18,-56.34 245.08,-55.06 236.61,-53.87"/>
<polygon fill="#63b8ff" stroke="#63b8ff" points="262.48,-61.18 272.87,-59.11 263.45,-54.25 262.48,-61.18"/>
</a>
</g>
</g>
<!-- Node3 -->
<g id="Node000003" class="node">
<title>Node3</title>
<g id="a_Node000003"><a xlink:href="class_tesart_rbd.html#a3d5ce486456ebdac4128023e4c307903" target="_top" xlink:title="Устанавливает угловую точку, соответствующую началу диапазона.">
<polygon fill="white" stroke="#666666" points="107.88,-196 5.62,-196 5.62,-164 107.88,-164 107.88,-196"/>
<text text-anchor="start" x="13.62" y="-182.5" font-family="Helvetica,sans-Serif" font-size="10.00">TesartRbd::move_to</text>
<text text-anchor="middle" x="56.75" y="-170.5" font-family="Helvetica,sans-Serif" font-size="10.00">_start_angle</text>
</a>
</g>
</g>
<!-- Node2&#45;&gt;Node3 -->
<g id="edge2_Node000002_Node000003" class="edge">
<title>Node2&#45;&gt;Node3</title>
<g id="a_edge2_Node000002_Node000003"><a xlink:title=" ">
<path fill="none" stroke="#63b8ff" d="M175.25,-104.05C159.92,-119.05 136.61,-140.23 113.5,-155 108.67,-158.08 103.4,-160.98 98.09,-163.63"/>
<polygon fill="#63b8ff" stroke="#63b8ff" points="177.27,-106.98 181.89,-97.44 172.33,-102.02 177.27,-106.98"/>
</a>
</g>
</g>
<!-- Node4 -->
<g id="Node000004" class="node">
<title>Node4</title>
<g id="a_Node000004"><a xlink:href="class_tesart_rbd.html#a55d5b271d03db8d05abea14ea52be540" target="_top" xlink:title="Устанавливает угловую точку, соответствующую концу диапазона.">
<polygon fill="white" stroke="#666666" points="107.88,-146 5.62,-146 5.62,-114 107.88,-114 107.88,-146"/>
<text text-anchor="start" x="13.62" y="-132.5" font-family="Helvetica,sans-Serif" font-size="10.00">TesartRbd::move_to</text>
<text text-anchor="middle" x="56.75" y="-120.5" font-family="Helvetica,sans-Serif" font-size="10.00">_stop_angle</text>
</a>
</g>
</g>
<!-- Node2&#45;&gt;Node4 -->
<g id="edge3_Node000002_Node000004" class="edge">
<title>Node2&#45;&gt;Node4</title>
<g id="a_edge3_Node000002_Node000004"><a xlink:title=" ">
<path fill="none" stroke="#63b8ff" d="M150.5,-99.8C137.11,-104.16 122.19,-109.02 108.3,-113.54"/>
<polygon fill="#63b8ff" stroke="#63b8ff" points="151.43,-102.85 159.85,-96.43 149.26,-96.2 151.43,-102.85"/>
</a>
</g>
</g>
<!-- Node5 -->
<g id="Node000005" class="node">
<title>Node5</title>
<g id="a_Node000005"><a xlink:href="class_tesart_rbd.html#aa064f5779459c676b41d3c22f8202bc8" target="_top" xlink:title="Переход к следующей угловой точке">
<polygon fill="white" stroke="#666666" points="113.5,-96 0,-96 0,-76 113.5,-76 113.5,-96"/>
<text text-anchor="middle" x="56.75" y="-82.5" font-family="Helvetica,sans-Serif" font-size="10.00">TesartRbd::next_angle</text>
</a>
</g>
</g>
<!-- Node2&#45;&gt;Node5 -->
<g id="edge4_Node000002_Node000005" class="edge">
<title>Node2&#45;&gt;Node5</title>
<g id="a_edge4_Node000002_Node000005"><a xlink:title=" ">
<path fill="none" stroke="#63b8ff" d="M138.21,-86C130.14,-86 121.82,-86 113.73,-86"/>
<polygon fill="#63b8ff" stroke="#63b8ff" points="138,-89.5 148,-86 138,-82.5 138,-89.5"/>
</a>
</g>
</g>
<!-- Node6 -->
<g id="Node000006" class="node">
<title>Node6</title>
<g id="a_Node000006"><a xlink:href="class_tesart_rbd.html#a33a877f951cb3096020d9cb8ab406c63" target="_top" xlink:title="Переход к предыдущей угловой точке">
<polygon fill="white" stroke="#666666" points="112.75,-58 0.75,-58 0.75,-38 112.75,-38 112.75,-58"/>
<text text-anchor="middle" x="56.75" y="-44.5" font-family="Helvetica,sans-Serif" font-size="10.00">TesartRbd::prev_angle</text>
</a>
</g>
</g>
<!-- Node2&#45;&gt;Node6 -->
<g id="edge5_Node000002_Node000006" class="edge">
<title>Node2&#45;&gt;Node6</title>
<g id="a_edge5_Node000002_Node000006"><a xlink:title=" ">
<path fill="none" stroke="#63b8ff" d="M145.06,-72.55C128.59,-67.92 110.4,-62.81 94.91,-58.45"/>
<polygon fill="#63b8ff" stroke="#63b8ff" points="144.02,-76.18 154.59,-75.52 145.91,-69.44 144.02,-76.18"/>
</a>
</g>
</g>
<!-- Node7 -->
<g id="Node000007" class="node">
<title>Node7</title>
<g id="a_Node000007"><a xlink:href="class_tesart_rbd.html#a0d830bf286416fb259ca84edd583bce3" target="_top" xlink:title="Поворачивает ось ОПУ на требуемый угол">
<polygon fill="white" stroke="#666666" points="110.88,-20 2.62,-20 2.62,0 110.88,0 110.88,-20"/>
<text text-anchor="middle" x="56.75" y="-6.5" font-family="Helvetica,sans-Serif" font-size="10.00">TesartRbd::set_angle</text>
</a>
</g>
</g>
<!-- Node2&#45;&gt;Node7 -->
<g id="edge6_Node000002_Node000007" class="edge">
<title>Node2&#45;&gt;Node7</title>
<g id="a_edge6_Node000002_Node000007"><a xlink:title=" ">
<path fill="none" stroke="#63b8ff" d="M154.88,-70.46C153.02,-69.36 151.22,-68.21 149.5,-67 130.47,-53.62 133.08,-41.56 113.5,-29 108.25,-25.63 102.34,-22.79 96.37,-20.41"/>
<polygon fill="#63b8ff" stroke="#63b8ff" points="152.98,-73.94 163.46,-75.51 156.24,-67.75 152.98,-73.94"/>
</a>
</g>
</g>
</g>
</svg>
</svg>

<style type='text/css'>
<![CDATA[
[data-mouse-over-selected='false'] { opacity: 0.7; }
[data-mouse-over-selected='true']  { opacity: 1.0; }
]]>
</style>
<script type="application/ecmascript"><![CDATA[
document.addEventListener('DOMContentLoaded', (event) => {
  highlightEdges();
  highlightAdjacentNodes();
});
]]></script>
</svg>
