<?xml version="1.0" encoding="UTF-8" standalone="no"?>
<!DOCTYPE svg PUBLIC "-//W3C//DTD SVG 1.1//EN"
 "http://www.w3.org/Graphics/SVG/1.1/DTD/svg11.dtd">
<!-- Generated by graphviz version 8.0.5 (20230430.1635)
 -->
<!-- Title: DemoRbd::DemoRbd Pages: 1 -->
<svg width="270pt" height="84pt"
 viewBox="0.00 0.00 269.50 84.00" xmlns="http://www.w3.org/2000/svg" xmlns:xlink="http://www.w3.org/1999/xlink">

<svg id="main" version="1.1" xmlns="http://www.w3.org/2000/svg" xmlns:xlink="http://www.w3.org/1999/xlink" xml:space="preserve" onload="init(evt)">
<style type="text/css"><![CDATA[
.node, .edge {opacity: 0.7;}
.node.selected, .edge.selected {opacity: 1;}
.edge:hover path { stroke: red; }
.edge:hover polygon { stroke: red; fill: red; }
]]></style>
<script type="application/ecmascript" xlink:href="svg.min.js"/>
<svg id="graph" class="graph">
<g id="graph0" class="graph" transform="scale(1 1) rotate(0) translate(4 80)">
<title>DemoRbd::DemoRbd</title>
<!-- Node1 -->
<g id="Node000001" class="node">
<title>Node1</title>
<g id="a_Node000001"><a xlink:title=" ">
<polygon fill="#999999" stroke="#666666" points="107.5,-39 0,-39 0,-19 107.5,-19 107.5,-39"/>
<text text-anchor="middle" x="53.75" y="-25.5" font-family="Helvetica,sans-Serif" font-size="10.00">DemoRbd::DemoRbd</text>
</a>
</g>
</g>
<!-- Node2 -->
<g id="Node000002" class="node">
<title>Node2</title>
<g id="a_Node000002"><a xlink:href="namespacestring__utils.html#a9b3d7b7f8178f32f598b1bc31d61445a" target="_top" xlink:title=" ">
<polygon fill="white" stroke="#666666" points="249.12,-58 155.88,-58 155.88,-38 249.12,-38 249.12,-58"/>
<text text-anchor="middle" x="202.5" y="-44.5" font-family="Helvetica,sans-Serif" font-size="10.00">string_utils::count</text>
</a>
</g>
</g>
<!-- Node1&#45;&gt;Node2 -->
<g id="edge1_Node000001_Node000002" class="edge">
<title>Node1&#45;&gt;Node2</title>
<g id="a_edge1_Node000001_Node000002"><a xlink:title=" ">
<path fill="none" stroke="#63b8ff" d="M107.73,-35.86C119.67,-37.41 132.4,-39.05 144.5,-40.62"/>
<polygon fill="#63b8ff" stroke="#63b8ff" points="144.03,-44.22 154.39,-42.03 144.93,-37.28 144.03,-44.22"/>
</a>
</g>
</g>
<!-- Node3 -->
<g id="Node000003" class="node">
<title>Node3</title>
<g id="a_Node000003"><a xlink:href="class_rbd_device.html#a8ae479426b12f8fcd2a08c84acdc7bb5" target="_top" xlink:title=" ">
<polygon fill="white" stroke="#666666" points="261.5,-20 143.5,-20 143.5,0 261.5,0 261.5,-20"/>
<text text-anchor="middle" x="202.5" y="-6.5" font-family="Helvetica,sans-Serif" font-size="10.00">RbdDevice::init_params</text>
</a>
</g>
</g>
<!-- Node1&#45;&gt;Node3 -->
<g id="edge3_Node000001_Node000003" class="edge">
<title>Node1&#45;&gt;Node3</title>
<g id="a_edge3_Node000001_Node000003"><a xlink:title=" ">
<path fill="none" stroke="#63b8ff" d="M107.73,-22.14C115.72,-21.11 124.06,-20.03 132.34,-18.95"/>
<polygon fill="#63b8ff" stroke="#63b8ff" points="132.66,-22.31 142.13,-17.56 131.76,-15.37 132.66,-22.31"/>
</a>
</g>
</g>
<!-- Node2&#45;&gt;Node2 -->
<g id="edge2_Node000002_Node000002" class="edge">
<title>Node2&#45;&gt;Node2</title>
<g id="a_edge2_Node000002_Node000002"><a xlink:title=" ">
<path fill="none" stroke="#63b8ff" d="M178.87,-58.34C168.76,-66.98 176.64,-76 202.5,-76 217.45,-76 226.39,-72.98 229.32,-68.77"/>
<polygon fill="#63b8ff" stroke="#63b8ff" points="232.4,-67.88 226.13,-59.34 225.71,-69.92 232.4,-67.88"/>
</a>
</g>
</g>
</g>
</svg>
</svg>

<style type='text/css'>
<![CDATA[
[data-mouse-over-selected='false'] { opacity: 0.7; }
[data-mouse-over-selected='true']  { opacity: 1.0; }
]]>
</style>
<script type="application/ecmascript"><![CDATA[
document.addEventListener('DOMContentLoaded', (event) => {
  highlightEdges();
  highlightAdjacentNodes();
});
]]></script>
</svg>
