<?xml version="1.0" encoding="UTF-8" standalone="no"?>
<!DOCTYPE svg PUBLIC "-//W3C//DTD SVG 1.1//EN"
 "http://www.w3.org/Graphics/SVG/1.1/DTD/svg11.dtd">
<!-- Generated by graphviz version 8.0.5 (20230430.1635)
 -->
<!-- Title: KeysightM9807A Pages: 1 -->
<!--zoomable 1454 -->

<svg id="main" version="1.1" xmlns="http://www.w3.org/2000/svg" xmlns:xlink="http://www.w3.org/1999/xlink" xml:space="preserve" onload="init(evt)">
<style type="text/css"><![CDATA[
.node, .edge {opacity: 0.7;}
.node.selected, .edge.selected {opacity: 1;}
.edge:hover path { stroke: red; }
.edge:hover polygon { stroke: red; fill: red; }
]]></style>

<defs>
  <circle id="rim" cx="0" cy="0" r="7"/>
  <circle id="rim2" cx="0" cy="0" r="3.5"/>
  <g id="zoomPlus">
    <use xlink:href="#rim" fill="#404040"><set attributeName="fill" to="#808080" begin="zoomplus.mouseover" end="zoomplus.mouseout"/></use>
    <path d="M-4,0h8M0,-4v8" fill="none" stroke="white" stroke-width="1.5" pointer-events="none"/>
  </g>
  <g id="zoomMin">
    <use xlink:href="#rim" fill="#404040"><set attributeName="fill" to="#808080" begin="zoomminus.mouseover" end="zoomminus.mouseout"/></use>
    <path d="M-4,0h8" fill="none" stroke="white" stroke-width="1.5" pointer-events="none"/>
  </g>
  <g id="arrowUp" transform="translate(30 24)">
    <use xlink:href="#rim"/>
    <path pointer-events="none" fill="none" stroke="white" stroke-width="1.5" d="M0,-3.0v7 M-2.5,-0.5L0,-3.0L2.5,-0.5"/>
  </g>
  <g id="arrowRight" transform="rotate(90) translate(36 -43)">
    <use xlink:href="#rim"/>
    <path pointer-events="none" fill="none" stroke="white" stroke-width="1.5" d="M0,-3.0v7 M-2.5,-0.5L0,-3.0L2.5,-0.5"/>
  </g>
  <g id="arrowDown" transform="rotate(180) translate(-30 -48)">
    <use xlink:href="#rim"/>
    <path pointer-events="none" fill="none" stroke="white" stroke-width="1.5" d="M0,-3.0v7 M-2.5,-0.5L0,-3.0L2.5,-0.5"/>
  </g>
  <g id="arrowLeft" transform="rotate(270) translate(-36 17)">
    <use xlink:href="#rim"/>
    <path pointer-events="none" fill="none" stroke="white" stroke-width="1.5" d="M0,-3.0v7 M-2.5,-0.5L0,-3.0L2.5,-0.5"/>
  </g>
  <g id="resetDef">
    <use xlink:href="#rim2" fill="#404040"><set attributeName="fill" to="#808080" begin="reset.mouseover" end="reset.mouseout"/></use>
  </g>
</defs>
<script type="application/ecmascript">
var viewWidth = 159;
var viewHeight = 1454;
var sectionId = 'dynsection-0';
</script>
<script type="application/ecmascript" xlink:href="svg.min.js"/>
<svg id="graph" class="graph">
<g id="viewport">
<title>KeysightM9807A</title>
<!-- Node1 -->
<g id="Node000001" class="node">
<title>Node1</title>
<g id="a_Node000001"><a xlink:title=" ">
<polygon fill="#999999" stroke="none" points="151,-412 0,-412 0,0 151,0 151,-412"/>
<text text-anchor="start" x="38.38" y="-398.5" font-family="Helvetica,sans-Serif" font-size="10.00">KeysightM9807A</text>
<text text-anchor="start" x="5.5" y="-382.5" font-family="Helvetica,sans-Serif" font-size="10.00">&#45;</text>
<text text-anchor="start" x="14" y="-382.5" font-family="Helvetica,sans-Serif" font-size="10.00">char port_names</text>
<text text-anchor="start" x="5.5" y="-366.5" font-family="Helvetica,sans-Serif" font-size="10.00">&#45;</text>
<text text-anchor="start" x="14" y="-366.5" font-family="Helvetica,sans-Serif" font-size="10.00">int port_numbers</text>
<text text-anchor="start" x="5.5" y="-350.5" font-family="Helvetica,sans-Serif" font-size="10.00">&#45;</text>
<text text-anchor="start" x="14" y="-350.5" font-family="Helvetica,sans-Serif" font-size="10.00">std::array&lt; int, M9807A</text>
<text text-anchor="start" x="14" y="-338.5" font-family="Helvetica,sans-Serif" font-size="10.00">_MODULE_COUNT &gt; path_list</text>
<text text-anchor="start" x="4" y="-322.5" font-family="Helvetica,sans-Serif" font-size="10.00">+</text>
<text text-anchor="start" x="14" y="-322.5" font-family="Helvetica,sans-Serif" font-size="10.00">KeysightM9807A()=default</text>
<text text-anchor="start" x="4" y="-306.5" font-family="Helvetica,sans-Serif" font-size="10.00">+</text>
<text text-anchor="start" x="14" y="-306.5" font-family="Helvetica,sans-Serif" font-size="10.00">KeysightM9807A(std</text>
<text text-anchor="start" x="14" y="-294.5" font-family="Helvetica,sans-Serif" font-size="10.00">::string device_address)</text>
<text text-anchor="start" x="4" y="-278.5" font-family="Helvetica,sans-Serif" font-size="10.00">+</text>
<text text-anchor="start" x="14" y="-278.5" font-family="Helvetica,sans-Serif" font-size="10.00">void preset() override</text>
<text text-anchor="start" x="4" y="-262.5" font-family="Helvetica,sans-Serif" font-size="10.00">+</text>
<text text-anchor="start" x="14" y="-262.5" font-family="Helvetica,sans-Serif" font-size="10.00">void full_preset()</text>
<text text-anchor="start" x="14" y="-250.5" font-family="Helvetica,sans-Serif" font-size="10.00"> override</text>
<text text-anchor="start" x="4" y="-234.5" font-family="Helvetica,sans-Serif" font-size="10.00">+</text>
<text text-anchor="start" x="14" y="-234.5" font-family="Helvetica,sans-Serif" font-size="10.00">void init_channel()</text>
<text text-anchor="start" x="14" y="-222.5" font-family="Helvetica,sans-Serif" font-size="10.00"> override</text>
<text text-anchor="start" x="4" y="-206.5" font-family="Helvetica,sans-Serif" font-size="10.00">+</text>
<text text-anchor="start" x="14" y="-206.5" font-family="Helvetica,sans-Serif" font-size="10.00">void configure(int</text>
<text text-anchor="start" x="14" y="-194.5" font-family="Helvetica,sans-Serif" font-size="10.00"> meas_type, float rbw,</text>
<text text-anchor="start" x="14" y="-182.5" font-family="Helvetica,sans-Serif" font-size="10.00"> int source_port) override</text>
<text text-anchor="start" x="4" y="-166.5" font-family="Helvetica,sans-Serif" font-size="10.00">+</text>
<text text-anchor="start" x="14" y="-166.5" font-family="Helvetica,sans-Serif" font-size="10.00">void create_traces</text>
<text text-anchor="start" x="14" y="-154.5" font-family="Helvetica,sans-Serif" font-size="10.00">(std::vector&lt; int &gt;</text>
<text text-anchor="start" x="14" y="-142.5" font-family="Helvetica,sans-Serif" font-size="10.00"> port_list, bool external)</text>
<text text-anchor="start" x="14" y="-130.5" font-family="Helvetica,sans-Serif" font-size="10.00"> override</text>
<text text-anchor="start" x="4" y="-114.5" font-family="Helvetica,sans-Serif" font-size="10.00">+</text>
<text text-anchor="start" x="14" y="-114.5" font-family="Helvetica,sans-Serif" font-size="10.00">void set_power(float</text>
<text text-anchor="start" x="14" y="-102.5" font-family="Helvetica,sans-Serif" font-size="10.00"> power_) override</text>
<text text-anchor="start" x="4" y="-86.5" font-family="Helvetica,sans-Serif" font-size="10.00">+</text>
<text text-anchor="start" x="14" y="-86.5" font-family="Helvetica,sans-Serif" font-size="10.00">void set_freq_range</text>
<text text-anchor="start" x="14" y="-74.5" font-family="Helvetica,sans-Serif" font-size="10.00">(double start_freq,</text>
<text text-anchor="start" x="14" y="-62.5" font-family="Helvetica,sans-Serif" font-size="10.00"> double stop_freq, int</text>
<text text-anchor="start" x="14" y="-50.5" font-family="Helvetica,sans-Serif" font-size="10.00"> points) override</text>
<text text-anchor="start" x="4" y="-34.5" font-family="Helvetica,sans-Serif" font-size="10.00">+</text>
<text text-anchor="start" x="14" y="-34.5" font-family="Helvetica,sans-Serif" font-size="10.00">void set_freq(double</text>
<text text-anchor="start" x="14" y="-22.5" font-family="Helvetica,sans-Serif" font-size="10.00"> freq) override</text>
<text text-anchor="start" x="14" y="-6.5" font-family="Helvetica,sans-Serif" font-size="10.00">и 9 больше...</text>
<polygon fill="#666666" stroke="#666666" points="0,-394 0,-394 151,-394 151,-394 0,-394"/>
<polygon fill="#666666" stroke="#666666" points="0,-334 0,-334 12,-334 12,-334 0,-334"/>
<polygon fill="#666666" stroke="#666666" points="12,-334 12,-334 151,-334 151,-334 12,-334"/>
<polygon fill="none" stroke="#666666" points="0,0 0,-412 151,-412 151,0 0,0"/>
</a>
</g>
</g>
<!-- Node2 -->
<g id="Node000002" class="node">
<title>Node2</title>
<g id="a_Node000002"><a xlink:href="class_vna_device.html" target="_top" xlink:title=" ">
<polygon fill="white" stroke="none" points="146,-893 5,-893 5,-449 146,-449 146,-893"/>
<text text-anchor="start" x="52.62" y="-879.5" font-family="Helvetica,sans-Serif" font-size="10.00">VnaDevice</text>
<text text-anchor="start" x="9.38" y="-863.5" font-family="Helvetica,sans-Serif" font-size="10.00">#</text>
<text text-anchor="start" x="19" y="-863.5" font-family="Helvetica,sans-Serif" font-size="10.00">double start_freq</text>
<text text-anchor="start" x="9.38" y="-847.5" font-family="Helvetica,sans-Serif" font-size="10.00">#</text>
<text text-anchor="start" x="19" y="-847.5" font-family="Helvetica,sans-Serif" font-size="10.00">double stop_freq</text>
<text text-anchor="start" x="9.38" y="-831.5" font-family="Helvetica,sans-Serif" font-size="10.00">#</text>
<text text-anchor="start" x="19" y="-831.5" font-family="Helvetica,sans-Serif" font-size="10.00">float rbw</text>
<text text-anchor="start" x="9.38" y="-815.5" font-family="Helvetica,sans-Serif" font-size="10.00">#</text>
<text text-anchor="start" x="19" y="-815.5" font-family="Helvetica,sans-Serif" font-size="10.00">int points</text>
<text text-anchor="start" x="9.38" y="-799.5" font-family="Helvetica,sans-Serif" font-size="10.00">#</text>
<text text-anchor="start" x="19" y="-799.5" font-family="Helvetica,sans-Serif" font-size="10.00">double freq_step</text>
<text text-anchor="start" x="9.38" y="-783.5" font-family="Helvetica,sans-Serif" font-size="10.00">#</text>
<text text-anchor="start" x="19" y="-783.5" font-family="Helvetica,sans-Serif" font-size="10.00">float power</text>
<text text-anchor="start" x="9.38" y="-767.5" font-family="Helvetica,sans-Serif" font-size="10.00">#</text>
<text text-anchor="start" x="19" y="-767.5" font-family="Helvetica,sans-Serif" font-size="10.00">int source_port</text>
<text text-anchor="start" x="9.38" y="-751.5" font-family="Helvetica,sans-Serif" font-size="10.00">#</text>
<text text-anchor="start" x="19" y="-751.5" font-family="Helvetica,sans-Serif" font-size="10.00">int meas_type</text>
<text text-anchor="start" x="9" y="-735.5" font-family="Helvetica,sans-Serif" font-size="10.00">+</text>
<text text-anchor="start" x="19" y="-735.5" font-family="Helvetica,sans-Serif" font-size="10.00">VnaDevice()=default</text>
<text text-anchor="start" x="9" y="-719.5" font-family="Helvetica,sans-Serif" font-size="10.00">+</text>
<text text-anchor="start" x="19" y="-719.5" font-family="Helvetica,sans-Serif" font-size="10.00">VnaDevice(std::string</text>
<text text-anchor="start" x="19" y="-707.5" font-family="Helvetica,sans-Serif" font-size="10.00"> device_address)</text>
<text text-anchor="start" x="9" y="-691.5" font-family="Helvetica,sans-Serif" font-size="10.00">+</text>
<text text-anchor="start" x="19" y="-691.5" font-family="Helvetica,sans-Serif" font-size="10.00">virtual void preset()</text>
<text text-anchor="start" x="9" y="-675.5" font-family="Helvetica,sans-Serif" font-size="10.00">+</text>
<text text-anchor="start" x="19" y="-675.5" font-family="Helvetica,sans-Serif" font-size="10.00">virtual void full_preset()</text>
<text text-anchor="start" x="9" y="-659.5" font-family="Helvetica,sans-Serif" font-size="10.00">+</text>
<text text-anchor="start" x="19" y="-659.5" font-family="Helvetica,sans-Serif" font-size="10.00">virtual void init_channel()</text>
<text text-anchor="start" x="9" y="-643.5" font-family="Helvetica,sans-Serif" font-size="10.00">+</text>
<text text-anchor="start" x="19" y="-643.5" font-family="Helvetica,sans-Serif" font-size="10.00">virtual void configure</text>
<text text-anchor="start" x="19" y="-631.5" font-family="Helvetica,sans-Serif" font-size="10.00">(int meas_type, float</text>
<text text-anchor="start" x="19" y="-619.5" font-family="Helvetica,sans-Serif" font-size="10.00"> rbw, int source_port)</text>
<text text-anchor="start" x="9" y="-603.5" font-family="Helvetica,sans-Serif" font-size="10.00">+</text>
<text text-anchor="start" x="19" y="-603.5" font-family="Helvetica,sans-Serif" font-size="10.00">virtual void create</text>
<text text-anchor="start" x="19" y="-591.5" font-family="Helvetica,sans-Serif" font-size="10.00">_traces(std::vector</text>
<text text-anchor="start" x="19" y="-579.5" font-family="Helvetica,sans-Serif" font-size="10.00">&lt; int &gt; port_list, bool</text>
<text text-anchor="start" x="19" y="-567.5" font-family="Helvetica,sans-Serif" font-size="10.00"> external)</text>
<text text-anchor="start" x="9" y="-551.5" font-family="Helvetica,sans-Serif" font-size="10.00">+</text>
<text text-anchor="start" x="19" y="-551.5" font-family="Helvetica,sans-Serif" font-size="10.00">virtual void set_power</text>
<text text-anchor="start" x="19" y="-539.5" font-family="Helvetica,sans-Serif" font-size="10.00">(float power)</text>
<text text-anchor="start" x="9" y="-523.5" font-family="Helvetica,sans-Serif" font-size="10.00">+</text>
<text text-anchor="start" x="19" y="-523.5" font-family="Helvetica,sans-Serif" font-size="10.00">virtual void set_freq</text>
<text text-anchor="start" x="19" y="-511.5" font-family="Helvetica,sans-Serif" font-size="10.00">_range(double start_freq,</text>
<text text-anchor="start" x="19" y="-499.5" font-family="Helvetica,sans-Serif" font-size="10.00"> double stop_freq, int points)</text>
<text text-anchor="start" x="9" y="-483.5" font-family="Helvetica,sans-Serif" font-size="10.00">+</text>
<text text-anchor="start" x="19" y="-483.5" font-family="Helvetica,sans-Serif" font-size="10.00">virtual void set_freq</text>
<text text-anchor="start" x="19" y="-471.5" font-family="Helvetica,sans-Serif" font-size="10.00">(double freq)</text>
<text text-anchor="start" x="19" y="-455.5" font-family="Helvetica,sans-Serif" font-size="10.00">и 13 больше...</text>
<polygon fill="#666666" stroke="#666666" points="5,-875 5,-875 146,-875 146,-875 5,-875"/>
<polygon fill="#666666" stroke="#666666" points="5,-747 5,-747 17,-747 17,-747 5,-747"/>
<polygon fill="#666666" stroke="#666666" points="17,-747 17,-747 146,-747 146,-747 17,-747"/>
<polygon fill="none" stroke="#666666" points="5,-449 5,-893 146,-893 146,-449 5,-449"/>
</a>
</g>
</g>
<!-- Node2&#45;&gt;Node1 -->
<g id="edge1_Node000001_Node000002" class="edge">
<title>Node2&#45;&gt;Node1</title>
<g id="a_edge1_Node000001_Node000002"><a xlink:title=" ">
<path fill="none" stroke="#63b8ff" d="M75.5,-438.21C75.5,-429.35 75.5,-420.49 75.5,-411.68"/>
<polygon fill="none" stroke="#63b8ff" points="72,-438.01 75.5,-448.01 79,-438.01 72,-438.01"/>
</a>
</g>
</g>
<!-- Node3 -->
<g id="Node000003" class="node">
<title>Node3</title>
<g id="a_Node000003"><a xlink:href="class_visa_device.html" target="_top" xlink:title="Класс, в котором реализованы методы для управления устройством с помощью API VISA.">
<polygon fill="white" stroke="none" points="131.5,-1314 19.5,-1314 19.5,-930 131.5,-930 131.5,-1314"/>
<text text-anchor="start" x="51.5" y="-1300.5" font-family="Helvetica,sans-Serif" font-size="10.00">VisaDevice</text>
<text text-anchor="start" x="23.88" y="-1284.5" font-family="Helvetica,sans-Serif" font-size="10.00">#</text>
<text text-anchor="start" x="33.5" y="-1284.5" font-family="Helvetica,sans-Serif" font-size="10.00">bool connected</text>
<text text-anchor="start" x="25" y="-1268.5" font-family="Helvetica,sans-Serif" font-size="10.00">&#45;</text>
<text text-anchor="start" x="33.5" y="-1268.5" font-family="Helvetica,sans-Serif" font-size="10.00">ViSession resource</text>
<text text-anchor="start" x="33.5" y="-1256.5" font-family="Helvetica,sans-Serif" font-size="10.00">_manager</text>
<text text-anchor="start" x="25" y="-1240.5" font-family="Helvetica,sans-Serif" font-size="10.00">&#45;</text>
<text text-anchor="start" x="33.5" y="-1240.5" font-family="Helvetica,sans-Serif" font-size="10.00">ViSession device</text>
<text text-anchor="start" x="25" y="-1224.5" font-family="Helvetica,sans-Serif" font-size="10.00">&#45;</text>
<text text-anchor="start" x="33.5" y="-1224.5" font-family="Helvetica,sans-Serif" font-size="10.00">ViStatus status</text>
<text text-anchor="start" x="25" y="-1208.5" font-family="Helvetica,sans-Serif" font-size="10.00">&#45;</text>
<text text-anchor="start" x="33.5" y="-1208.5" font-family="Helvetica,sans-Serif" font-size="10.00">ViPUInt32 ret_count</text>
<text text-anchor="start" x="23.5" y="-1192.5" font-family="Helvetica,sans-Serif" font-size="10.00">+</text>
<text text-anchor="start" x="33.5" y="-1192.5" font-family="Helvetica,sans-Serif" font-size="10.00">VisaDevice()=default</text>
<text text-anchor="start" x="23.5" y="-1176.5" font-family="Helvetica,sans-Serif" font-size="10.00">+</text>
<text text-anchor="start" x="33.5" y="-1176.5" font-family="Helvetica,sans-Serif" font-size="10.00">VisaDevice(std::string</text>
<text text-anchor="start" x="33.5" y="-1164.5" font-family="Helvetica,sans-Serif" font-size="10.00"> device_address)</text>
<text text-anchor="start" x="23.5" y="-1148.5" font-family="Helvetica,sans-Serif" font-size="10.00">+</text>
<text text-anchor="start" x="33.5" y="-1148.5" font-family="Helvetica,sans-Serif" font-size="10.00">~VisaDevice()</text>
<text text-anchor="start" x="23.5" y="-1132.5" font-family="Helvetica,sans-Serif" font-size="10.00">+</text>
<text text-anchor="start" x="33.5" y="-1132.5" font-family="Helvetica,sans-Serif" font-size="10.00">virtual void connect()</text>
<text text-anchor="start" x="23.5" y="-1116.5" font-family="Helvetica,sans-Serif" font-size="10.00">+</text>
<text text-anchor="start" x="33.5" y="-1116.5" font-family="Helvetica,sans-Serif" font-size="10.00">bool is_connected()</text>
<text text-anchor="start" x="33.5" y="-1104.5" font-family="Helvetica,sans-Serif" font-size="10.00"> const</text>
<text text-anchor="start" x="23.5" y="-1088.5" font-family="Helvetica,sans-Serif" font-size="10.00">+</text>
<text text-anchor="start" x="33.5" y="-1088.5" font-family="Helvetica,sans-Serif" font-size="10.00">void clear() const</text>
<text text-anchor="start" x="23.5" y="-1072.5" font-family="Helvetica,sans-Serif" font-size="10.00">+</text>
<text text-anchor="start" x="33.5" y="-1072.5" font-family="Helvetica,sans-Serif" font-size="10.00">std::string idn()</text>
<text text-anchor="start" x="23.5" y="-1056.5" font-family="Helvetica,sans-Serif" font-size="10.00">+</text>
<text text-anchor="start" x="33.5" y="-1056.5" font-family="Helvetica,sans-Serif" font-size="10.00">int opc()</text>
<text text-anchor="start" x="23.5" y="-1040.5" font-family="Helvetica,sans-Serif" font-size="10.00">+</text>
<text text-anchor="start" x="33.5" y="-1040.5" font-family="Helvetica,sans-Serif" font-size="10.00">int err()</text>
<text text-anchor="start" x="23.5" y="-1024.5" font-family="Helvetica,sans-Serif" font-size="10.00">+</text>
<text text-anchor="start" x="33.5" y="-1024.5" font-family="Helvetica,sans-Serif" font-size="10.00">void wait()</text>
<text text-anchor="start" x="33.5" y="-1008.5" font-family="Helvetica,sans-Serif" font-size="10.00">и 8 больше...</text>
<text text-anchor="start" x="25" y="-992.5" font-family="Helvetica,sans-Serif" font-size="10.00">&#45;</text>
<text text-anchor="start" x="33.5" y="-992.5" font-family="Helvetica,sans-Serif" font-size="10.00">int write(std::string</text>
<text text-anchor="start" x="33.5" y="-980.5" font-family="Helvetica,sans-Serif" font-size="10.00"> command)</text>
<text text-anchor="start" x="25" y="-964.5" font-family="Helvetica,sans-Serif" font-size="10.00">&#45;</text>
<text text-anchor="start" x="33.5" y="-964.5" font-family="Helvetica,sans-Serif" font-size="10.00">std::string read()</text>
<text text-anchor="start" x="25" y="-948.5" font-family="Helvetica,sans-Serif" font-size="10.00">&#45;</text>
<text text-anchor="start" x="33.5" y="-948.5" font-family="Helvetica,sans-Serif" font-size="10.00">std::string query(std</text>
<text text-anchor="start" x="33.5" y="-936.5" font-family="Helvetica,sans-Serif" font-size="10.00">::string command)</text>
<polygon fill="#666666" stroke="#666666" points="19.5,-1296 19.5,-1296 131.5,-1296 131.5,-1296 19.5,-1296"/>
<polygon fill="#666666" stroke="#666666" points="19.5,-1204 19.5,-1204 31.5,-1204 31.5,-1204 19.5,-1204"/>
<polygon fill="#666666" stroke="#666666" points="31.5,-1204 31.5,-1204 131.5,-1204 131.5,-1204 31.5,-1204"/>
<polygon fill="none" stroke="#666666" points="19.5,-930 19.5,-1314 131.5,-1314 131.5,-930 19.5,-930"/>
</a>
</g>
</g>
<!-- Node3&#45;&gt;Node2 -->
<g id="edge2_Node000002_Node000003" class="edge">
<title>Node3&#45;&gt;Node2</title>
<g id="a_edge2_Node000002_Node000003"><a xlink:title=" ">
<path fill="none" stroke="#63b8ff" d="M75.5,-919.46C75.5,-910.58 75.5,-901.65 75.5,-892.73"/>
<polygon fill="none" stroke="#63b8ff" points="72,-919.26 75.5,-929.26 79,-919.26 72,-919.26"/>
</a>
</g>
</g>
<!-- Node4 -->
<g id="Node000004" class="node">
<title>Node4</title>
<g id="a_Node000004"><a xlink:href="structvisa__config.html" target="_top" xlink:title="Структура конфигурации прибора">
<polygon fill="white" stroke="none" points="125,-1446 26,-1446 26,-1362 125,-1362 125,-1446"/>
<text text-anchor="start" x="51.88" y="-1432.5" font-family="Helvetica,sans-Serif" font-size="10.00">visa_config</text>
<text text-anchor="start" x="30" y="-1416.5" font-family="Helvetica,sans-Serif" font-size="10.00">+</text>
<text text-anchor="start" x="40" y="-1416.5" font-family="Helvetica,sans-Serif" font-size="10.00">std::string address</text>
<text text-anchor="start" x="30" y="-1400.5" font-family="Helvetica,sans-Serif" font-size="10.00">+</text>
<text text-anchor="start" x="40" y="-1400.5" font-family="Helvetica,sans-Serif" font-size="10.00">int timeout</text>
<text text-anchor="start" x="30" y="-1384.5" font-family="Helvetica,sans-Serif" font-size="10.00">+</text>
<text text-anchor="start" x="40" y="-1384.5" font-family="Helvetica,sans-Serif" font-size="10.00">char termination</text>
<text text-anchor="start" x="74" y="-1368.5" font-family="Helvetica,sans-Serif" font-size="10.00"> </text>
<polygon fill="#666666" stroke="#666666" points="26,-1428 26,-1428 125,-1428 125,-1428 26,-1428"/>
<polygon fill="#666666" stroke="#666666" points="26,-1380 26,-1380 38,-1380 38,-1380 26,-1380"/>
<polygon fill="#666666" stroke="#666666" points="38,-1380 38,-1380 125,-1380 125,-1380 38,-1380"/>
<polygon fill="none" stroke="#666666" points="26,-1362 26,-1446 125,-1446 125,-1362 26,-1362"/>
</a>
</g>
</g>
<!-- Node4&#45;&gt;Node3 -->
<g id="edge3_Node000003_Node000004" class="edge">
<title>Node4&#45;&gt;Node3</title>
<g id="a_edge3_Node000003_Node000004"><a xlink:title=" ">
<path fill="none" stroke="#63b8ff" d="M75.5,-1362.29C75.5,-1351.71 75.5,-1339.58 75.5,-1326.51"/>
<polygon fill="none" stroke="#63b8ff" points="75.5,-1326.62 71.5,-1320.62 75.5,-1314.62 79.5,-1320.62 75.5,-1326.62"/>
</a>
</g>
<text text-anchor="middle" x="107.38" y="-1334.5" font-family="Helvetica,sans-Serif" font-size="10.00" fill="grey"> &#45;device_config</text>
</g>
</g>
</svg>

<g id="navigator" transform="translate(0 0)" fill="#404254">
  <rect fill="#f2f5e9" fill-opacity="0.5" stroke="#606060" stroke-width=".5" x="0" y="0" width="60" height="60"/>
  <use id="zoomplus" xlink:href="#zoomPlus" x="17" y="9" onmousedown="handleZoom(evt,'in')"/>
  <use id="zoomminus" xlink:href="#zoomMin" x="42" y="9" onmousedown="handleZoom(evt,'out')"/>
  <use id="reset" xlink:href="#resetDef" x="30" y="36" onmousedown="handleReset()"/>
   <use id="arrowup" xlink:href="#arrowUp" x="0" y="0" onmousedown="handlePan(0,-1)"/>
  <use id="arrowright" xlink:href="#arrowRight" x="0" y="0" onmousedown="handlePan(1,0)"/>
  <use id="arrowdown" xlink:href="#arrowDown" x="0" y="0" onmousedown="handlePan(0,1)"/>
  <use id="arrowleft" xlink:href="#arrowLeft" x="0" y="0" onmousedown="handlePan(-1,0)"/>
</g>
<svg viewBox="0 0 15 15" width="100%" height="30px" preserveAspectRatio="xMaxYMin meet">
 <g id="arrow_out" transform="scale(0.3 0.3)">
  <a xlink:href="class_keysight_m9807_a__coll__graph_org.svg" target="_base">
   <rect id="button" ry="5" rx="5" y="6" x="6" height="38" width="38"
        fill="#f2f5e9" fill-opacity="0.5" stroke="#606060" stroke-width="1.0"/>
   <path id="arrow"
     d="M 11.500037,31.436501 C 11.940474,20.09759 22.043105,11.32322 32.158766,21.979434 L 37.068811,17.246167 C 37.068811,17.246167 37.088388,32 37.088388,32 L 22.160133,31.978069 C 22.160133,31.978069 26.997745,27.140456 26.997745,27.140456 C 18.528582,18.264221 13.291696,25.230495 11.500037,31.436501 z"
     style="fill:#404040;"/>
  </a>
 </g>
</svg>

<style type='text/css'>
<![CDATA[
[data-mouse-over-selected='false'] { opacity: 0.7; }
[data-mouse-over-selected='true']  { opacity: 1.0; }
]]>
</style>
<script type="application/ecmascript"><![CDATA[
document.addEventListener('DOMContentLoaded', (event) => {
  highlightEdges();
  highlightAdjacentNodes();
});
]]></script>
</svg>
