<?xml version="1.0" encoding="UTF-8" standalone="no"?>
<!DOCTYPE svg PUBLIC "-//W3C//DTD SVG 1.1//EN"
 "http://www.w3.org/Graphics/SVG/1.1/DTD/svg11.dtd">
<!-- Generated by graphviz version 8.0.5 (20230430.1635)
 -->
<!-- Title: DeviceSet::move_to_start_freq Pages: 1 -->
<svg width="409pt" height="142pt"
 viewBox="0.00 0.00 408.50 142.00" xmlns="http://www.w3.org/2000/svg" xmlns:xlink="http://www.w3.org/1999/xlink">
<g id="graph0" class="graph" transform="scale(1 1) rotate(0) translate(4 138)">
<title>DeviceSet::move_to_start_freq</title>
<!-- Node1 -->
<g id="Node000001" class="node">
<title>Node1</title>
<g id="a_Node000001"><a xlink:title="Устанавливает частотную точку, соответствующую началу диапазона.">
<polygon fill="#999999" stroke="#666666" points="101.5,-61 0,-61 0,-29 101.5,-29 101.5,-61"/>
<text text-anchor="start" x="8" y="-47.5" font-family="Helvetica,sans-Serif" font-size="10.00">DeviceSet::move_to</text>
<text text-anchor="middle" x="50.75" y="-35.5" font-family="Helvetica,sans-Serif" font-size="10.00">_start_freq</text>
</a>
</g>
</g>
<!-- Node2 -->
<g id="Node000002" class="node">
<title>Node2</title>
<g id="a_Node000002"><a xlink:href="class_logger.html#af7709105c2708359b7b082218f4cc3e1" target="_top" xlink:title="Метод, осуществляющий логирование">
<polygon fill="white" stroke="#666666" points="221.75,-77 157.75,-77 157.75,-57 221.75,-57 221.75,-77"/>
<text text-anchor="middle" x="189.75" y="-63.5" font-family="Helvetica,sans-Serif" font-size="10.00">Logger::log</text>
</a>
</g>
</g>
<!-- Node1&#45;&gt;Node2 -->
<g id="edge1_Node000001_Node000002" class="edge">
<title>Node1&#45;&gt;Node2</title>
<g id="a_edge1_Node000001_Node000002"><a xlink:title=" ">
<path fill="none" stroke="#63b8ff" d="M101.99,-53.07C116.83,-55.45 132.92,-58.03 147.16,-60.32"/>
<polygon fill="#63b8ff" stroke="#63b8ff" points="146.21,-63.87 156.64,-62 147.32,-56.96 146.21,-63.87"/>
</a>
</g>
</g>
<!-- Node7 -->
<g id="Node000007" class="node">
<title>Node7</title>
<g id="a_Node000007"><a xlink:href="class_gen_device.html#ae8f3f5e85a477915c09854a73e730a3e" target="_top" xlink:title="Устанавливает частотную точку, соответствующую началу диапазона.">
<polygon fill="white" stroke="#666666" points="242,-39 137.5,-39 137.5,-7 242,-7 242,-39"/>
<text text-anchor="start" x="145.5" y="-25.5" font-family="Helvetica,sans-Serif" font-size="10.00">GenDevice::move_to</text>
<text text-anchor="middle" x="189.75" y="-13.5" font-family="Helvetica,sans-Serif" font-size="10.00">_start_freq</text>
</a>
</g>
</g>
<!-- Node1&#45;&gt;Node7 -->
<g id="edge6_Node000001_Node000007" class="edge">
<title>Node1&#45;&gt;Node7</title>
<g id="a_edge6_Node000001_Node000007"><a xlink:title=" ">
<path fill="none" stroke="#63b8ff" d="M101.99,-36.93C109.95,-35.65 118.27,-34.32 126.47,-33"/>
<polygon fill="#63b8ff" stroke="#63b8ff" points="126.82,-36.33 136.14,-31.29 125.71,-29.42 126.82,-36.33"/>
</a>
</g>
</g>
<!-- Node3 -->
<g id="Node000003" class="node">
<title>Node3</title>
<g id="a_Node000003"><a xlink:href="logger_8hpp.html#a49284b7befa8e31f81e01ee8f3735dd0" target="_top" xlink:title="Функция, которая снимает значение текущего времени и конвертирует его в строку с заданным шаблоном.">
<polygon fill="white" stroke="#666666" points="383.62,-134 294.88,-134 294.88,-114 383.62,-114 383.62,-134"/>
<text text-anchor="middle" x="339.25" y="-120.5" font-family="Helvetica,sans-Serif" font-size="10.00">get_current_time</text>
</a>
</g>
</g>
<!-- Node2&#45;&gt;Node3 -->
<g id="edge2_Node000002_Node000003" class="edge">
<title>Node2&#45;&gt;Node3</title>
<g id="a_edge2_Node000002_Node000003"><a xlink:title=" ">
<path fill="none" stroke="#63b8ff" d="M212.72,-77.34C230.21,-85.37 255.41,-96.54 278,-105 282.76,-106.78 287.77,-108.54 292.78,-110.22"/>
<polygon fill="#63b8ff" stroke="#63b8ff" points="291.4,-113.78 301.99,-113.57 293.58,-107.13 291.4,-113.78"/>
</a>
</g>
</g>
<!-- Node4 -->
<g id="Node000004" class="node">
<title>Node4</title>
<g id="a_Node000004"><a xlink:href="class_logger.html#a6edb7b263f080d417b82a537ed50fee4" target="_top" xlink:title="Возвращает тег в зависимости от уровня логирования и от назначения тега.">
<polygon fill="white" stroke="#666666" points="381,-96 297.5,-96 297.5,-76 381,-76 381,-96"/>
<text text-anchor="middle" x="339.25" y="-82.5" font-family="Helvetica,sans-Serif" font-size="10.00">Logger::get_tag</text>
</a>
</g>
</g>
<!-- Node2&#45;&gt;Node4 -->
<g id="edge3_Node000002_Node000004" class="edge">
<title>Node2&#45;&gt;Node4</title>
<g id="a_edge3_Node000002_Node000004"><a xlink:title=" ">
<path fill="none" stroke="#63b8ff" d="M222.03,-71.03C240.77,-73.44 265.05,-76.57 286.57,-79.34"/>
<polygon fill="#63b8ff" stroke="#63b8ff" points="285.84,-82.91 296.21,-80.71 286.74,-75.96 285.84,-82.91"/>
</a>
</g>
</g>
<!-- Node5 -->
<g id="Node000005" class="node">
<title>Node5</title>
<g id="a_Node000005"><a xlink:href="class_logger.html#a4825613142ebb093bf8fa26f21f7f3fc" target="_top" xlink:title="Метод, который выводит сообщение в консоль.">
<polygon fill="white" stroke="#666666" points="400.5,-58 278,-58 278,-38 400.5,-38 400.5,-58"/>
<text text-anchor="middle" x="339.25" y="-44.5" font-family="Helvetica,sans-Serif" font-size="10.00">Logger::print_to_console</text>
</a>
</g>
</g>
<!-- Node2&#45;&gt;Node5 -->
<g id="edge4_Node000002_Node000005" class="edge">
<title>Node2&#45;&gt;Node5</title>
<g id="a_edge4_Node000002_Node000005"><a xlink:title=" ">
<path fill="none" stroke="#63b8ff" d="M222.03,-62.97C235.15,-61.28 251,-59.24 266.71,-57.22"/>
<polygon fill="#63b8ff" stroke="#63b8ff" points="267.06,-60.57 276.53,-55.82 266.17,-53.63 267.06,-60.57"/>
</a>
</g>
</g>
<!-- Node6 -->
<g id="Node000006" class="node">
<title>Node6</title>
<g id="a_Node000006"><a xlink:href="class_logger.html#a999bb33f7cf079cb98f32fae6016a2f3" target="_top" xlink:title="Метод, который записывает сообщение в файл.">
<polygon fill="white" stroke="#666666" points="389.62,-20 288.88,-20 288.88,0 389.62,0 389.62,-20"/>
<text text-anchor="middle" x="339.25" y="-6.5" font-family="Helvetica,sans-Serif" font-size="10.00">Logger::print_to_file</text>
</a>
</g>
</g>
<!-- Node2&#45;&gt;Node6 -->
<g id="edge5_Node000002_Node000006" class="edge">
<title>Node2&#45;&gt;Node6</title>
<g id="a_edge5_Node000002_Node000006"><a xlink:title=" ">
<path fill="none" stroke="#63b8ff" d="M220.83,-56.6C227.85,-53.96 235.24,-51.02 242,-48 258.52,-40.62 261.31,-35.97 278,-29 282.33,-27.19 286.9,-25.46 291.5,-23.82"/>
<polygon fill="#63b8ff" stroke="#63b8ff" points="292.2,-26.94 300.55,-20.41 289.95,-20.31 292.2,-26.94"/>
</a>
</g>
</g>
</g>
</svg>
