<?xml version="1.0" encoding="UTF-8" standalone="no"?>
<!DOCTYPE svg PUBLIC "-//W3C//DTD SVG 1.1//EN"
 "http://www.w3.org/Graphics/SVG/1.1/DTD/svg11.dtd">
<!-- Generated by graphviz version 8.0.5 (20230430.1635)
 -->
<!-- Title: SocketServer::create Pages: 1 -->
<svg width="373pt" height="142pt"
 viewBox="0.00 0.00 373.25 142.00" xmlns="http://www.w3.org/2000/svg" xmlns:xlink="http://www.w3.org/1999/xlink">
<g id="graph0" class="graph" transform="scale(1 1) rotate(0) translate(4 138)">
<title>SocketServer::create</title>
<!-- Node1 -->
<g id="Node000001" class="node">
<title>Node1</title>
<g id="a_Node000001"><a xlink:title="Метод, инициализирующий сокет">
<polygon fill="#999999" stroke="#666666" points="106.75,-77 0,-77 0,-57 106.75,-57 106.75,-77"/>
<text text-anchor="middle" x="53.38" y="-63.5" font-family="Helvetica,sans-Serif" font-size="10.00">SocketServer::create</text>
</a>
</g>
</g>
<!-- Node2 -->
<g id="Node000002" class="node">
<title>Node2</title>
<g id="a_Node000002"><a xlink:href="class_logger.html#af7709105c2708359b7b082218f4cc3e1" target="_top" xlink:title="Метод, осуществляющий логирование">
<polygon fill="white" stroke="#666666" points="206.75,-77 142.75,-77 142.75,-57 206.75,-57 206.75,-77"/>
<text text-anchor="middle" x="174.75" y="-63.5" font-family="Helvetica,sans-Serif" font-size="10.00">Logger::log</text>
</a>
</g>
</g>
<!-- Node1&#45;&gt;Node2 -->
<g id="edge1_Node000001_Node000002" class="edge">
<title>Node1&#45;&gt;Node2</title>
<g id="a_edge1_Node000001_Node000002"><a xlink:title=" ">
<path fill="none" stroke="#63b8ff" d="M107.08,-67C115.32,-67 123.73,-67 131.69,-67"/>
<polygon fill="#63b8ff" stroke="#63b8ff" points="131.57,-70.5 141.57,-67 131.57,-63.5 131.57,-70.5"/>
</a>
</g>
</g>
<!-- Node3 -->
<g id="Node000003" class="node">
<title>Node3</title>
<g id="a_Node000003"><a xlink:href="logger_8hpp.html#a49284b7befa8e31f81e01ee8f3735dd0" target="_top" xlink:title="Функция, которая снимает значение текущего времени и конвертирует его в строку с заданным шаблоном.">
<polygon fill="white" stroke="#666666" points="348.38,-134 259.62,-134 259.62,-114 348.38,-114 348.38,-134"/>
<text text-anchor="middle" x="304" y="-120.5" font-family="Helvetica,sans-Serif" font-size="10.00">get_current_time</text>
</a>
</g>
</g>
<!-- Node2&#45;&gt;Node3 -->
<g id="edge2_Node000002_Node000003" class="edge">
<title>Node2&#45;&gt;Node3</title>
<g id="a_edge2_Node000002_Node000003"><a xlink:title=" ">
<path fill="none" stroke="#63b8ff" d="M191.77,-77.36C205.05,-85.63 224.6,-97.1 242.75,-105 246.82,-106.77 251.11,-108.46 255.45,-110.05"/>
<polygon fill="#63b8ff" stroke="#63b8ff" points="253.99,-113.59 264.59,-113.55 256.28,-106.97 253.99,-113.59"/>
</a>
</g>
</g>
<!-- Node4 -->
<g id="Node000004" class="node">
<title>Node4</title>
<g id="a_Node000004"><a xlink:href="class_logger.html#a6edb7b263f080d417b82a537ed50fee4" target="_top" xlink:title="Возвращает тег в зависимости от уровня логирования и от назначения тега.">
<polygon fill="white" stroke="#666666" points="345.75,-96 262.25,-96 262.25,-76 345.75,-76 345.75,-96"/>
<text text-anchor="middle" x="304" y="-82.5" font-family="Helvetica,sans-Serif" font-size="10.00">Logger::get_tag</text>
</a>
</g>
</g>
<!-- Node2&#45;&gt;Node4 -->
<g id="edge3_Node000002_Node000004" class="edge">
<title>Node2&#45;&gt;Node4</title>
<g id="a_edge3_Node000002_Node000004"><a xlink:title=" ">
<path fill="none" stroke="#63b8ff" d="M207.21,-71.7C220.47,-73.68 236.27,-76.04 251.17,-78.26"/>
<polygon fill="#63b8ff" stroke="#63b8ff" points="250.41,-81.84 260.82,-79.85 251.44,-74.91 250.41,-81.84"/>
</a>
</g>
</g>
<!-- Node5 -->
<g id="Node000005" class="node">
<title>Node5</title>
<g id="a_Node000005"><a xlink:href="class_logger.html#a4825613142ebb093bf8fa26f21f7f3fc" target="_top" xlink:title="Метод, который выводит сообщение в консоль.">
<polygon fill="white" stroke="#666666" points="365.25,-58 242.75,-58 242.75,-38 365.25,-38 365.25,-58"/>
<text text-anchor="middle" x="304" y="-44.5" font-family="Helvetica,sans-Serif" font-size="10.00">Logger::print_to_console</text>
</a>
</g>
</g>
<!-- Node2&#45;&gt;Node5 -->
<g id="edge4_Node000002_Node000005" class="edge">
<title>Node2&#45;&gt;Node5</title>
<g id="a_edge4_Node000002_Node000005"><a xlink:title=" ">
<path fill="none" stroke="#63b8ff" d="M207.21,-62.3C214.71,-61.18 223.02,-59.94 231.53,-58.67"/>
<polygon fill="#63b8ff" stroke="#63b8ff" points="231.98,-61.99 241.35,-57.06 230.94,-55.07 231.98,-61.99"/>
</a>
</g>
</g>
<!-- Node6 -->
<g id="Node000006" class="node">
<title>Node6</title>
<g id="a_Node000006"><a xlink:href="class_logger.html#a999bb33f7cf079cb98f32fae6016a2f3" target="_top" xlink:title="Метод, который записывает сообщение в файл.">
<polygon fill="white" stroke="#666666" points="354.38,-20 253.62,-20 253.62,0 354.38,0 354.38,-20"/>
<text text-anchor="middle" x="304" y="-6.5" font-family="Helvetica,sans-Serif" font-size="10.00">Logger::print_to_file</text>
</a>
</g>
</g>
<!-- Node2&#45;&gt;Node6 -->
<g id="edge5_Node000002_Node000006" class="edge">
<title>Node2&#45;&gt;Node6</title>
<g id="a_edge5_Node000002_Node000006"><a xlink:title=" ">
<path fill="none" stroke="#63b8ff" d="M191.77,-56.64C205.05,-48.37 224.6,-36.9 242.75,-29 246.82,-27.23 251.11,-25.54 255.45,-23.95"/>
<polygon fill="#63b8ff" stroke="#63b8ff" points="256.28,-27.03 264.59,-20.45 253.99,-20.41 256.28,-27.03"/>
</a>
</g>
</g>
</g>
</svg>
