<?xml version="1.0" encoding="UTF-8" standalone="no"?>
<!DOCTYPE svg PUBLIC "-//W3C//DTD SVG 1.1//EN"
 "http://www.w3.org/Graphics/SVG/1.1/DTD/svg11.dtd">
<!-- Generated by graphviz version 8.1.0 (20230707.0739)
 -->
<!-- Title: PlanarS50244::rf_on Pages: 1 -->
<!--zoomable 251 -->

<svg id="main" version="1.1" xmlns="http://www.w3.org/2000/svg" xmlns:xlink="http://www.w3.org/1999/xlink" xml:space="preserve" onload="init(evt)">
<style type="text/css"><![CDATA[
.node, .edge {opacity: 0.7;}
.node.selected, .edge.selected {opacity: 1;}
.edge:hover path { stroke: red; }
.edge:hover polygon { stroke: red; fill: red; }
]]></style>

<defs>
  <circle id="rim" cx="0" cy="0" r="7"/>
  <circle id="rim2" cx="0" cy="0" r="3.5"/>
  <g id="zoomPlus">
    <use xlink:href="#rim" fill="#404040"><set attributeName="fill" to="#808080" begin="zoomplus.mouseover" end="zoomplus.mouseout"/></use>
    <path d="M-4,0h8M0,-4v8" fill="none" stroke="white" stroke-width="1.5" pointer-events="none"/>
  </g>
  <g id="zoomMin">
    <use xlink:href="#rim" fill="#404040"><set attributeName="fill" to="#808080" begin="zoomminus.mouseover" end="zoomminus.mouseout"/></use>
    <path d="M-4,0h8" fill="none" stroke="white" stroke-width="1.5" pointer-events="none"/>
  </g>
  <g id="arrowUp" transform="translate(30 24)">
    <use xlink:href="#rim"/>
    <path pointer-events="none" fill="none" stroke="white" stroke-width="1.5" d="M0,-3.0v7 M-2.5,-0.5L0,-3.0L2.5,-0.5"/>
  </g>
  <g id="arrowRight" transform="rotate(90) translate(36 -43)">
    <use xlink:href="#rim"/>
    <path pointer-events="none" fill="none" stroke="white" stroke-width="1.5" d="M0,-3.0v7 M-2.5,-0.5L0,-3.0L2.5,-0.5"/>
  </g>
  <g id="arrowDown" transform="rotate(180) translate(-30 -48)">
    <use xlink:href="#rim"/>
    <path pointer-events="none" fill="none" stroke="white" stroke-width="1.5" d="M0,-3.0v7 M-2.5,-0.5L0,-3.0L2.5,-0.5"/>
  </g>
  <g id="arrowLeft" transform="rotate(270) translate(-36 17)">
    <use xlink:href="#rim"/>
    <path pointer-events="none" fill="none" stroke="white" stroke-width="1.5" d="M0,-3.0v7 M-2.5,-0.5L0,-3.0L2.5,-0.5"/>
  </g>
  <g id="resetDef">
    <use xlink:href="#rim2" fill="#404040"><set attributeName="fill" to="#808080" begin="reset.mouseover" end="reset.mouseout"/></use>
  </g>
</defs>
<script type="application/ecmascript">
var viewWidth = 1192;
var viewHeight = 251;
var sectionId = 'dynsection-13';
</script>
<script type="application/ecmascript" xlink:href="svg.min.js"/>
<svg id="graph" class="graph">
<g id="viewport">
<title>PlanarS50244::rf_on</title>
<!-- Node1 -->
<g id="Node000001" class="node">
<title>Node1</title>
<g id="a_Node000001"><a xlink:title="Включает выбранный порт">
<polygon fill="#999999" stroke="#666666" points="103.75,-195.79 0,-195.79 0,-175.79 103.75,-175.79 103.75,-195.79"/>
<text text-anchor="middle" x="51.88" y="-182.29" font-family="Helvetica,sans-Serif" font-size="10.00">PlanarS50244::rf_on</text>
</a>
</g>
</g>
<!-- Node2 -->
<g id="Node000002" class="node">
<title>Node2</title>
<g id="a_Node000002"><a xlink:href="class_visa_device.html#a069e154c5f48779dfd908146db9e66ed" target="_top" xlink:title="Отправка данных на прибор и чтение ответа от прибора. Также, ожидается завершение выполнения действий...">
<polygon fill="white" stroke="#666666" points="269.75,-195.79 139.75,-195.79 139.75,-175.79 269.75,-175.79 269.75,-195.79"/>
<text text-anchor="middle" x="204.75" y="-182.29" font-family="Helvetica,sans-Serif" font-size="10.00">VisaDevice::send_wait_err</text>
</a>
</g>
</g>
<!-- Node1&#45;&gt;Node2 -->
<g id="edge1_Node000001_Node000002" class="edge">
<title>Node1&#45;&gt;Node2</title>
<g id="a_edge1_Node000001_Node000002"><a xlink:title=" ">
<path fill="none" stroke="#63b8ff" d="M103.95,-185.79C111.86,-185.79 120.17,-185.79 128.47,-185.79"/>
<polygon fill="#63b8ff" stroke="#63b8ff" points="128.35,-189.29 138.35,-185.79 128.35,-182.29 128.35,-189.29"/>
</a>
</g>
</g>
<!-- Node3 -->
<g id="Node000003" class="node">
<title>Node3</title>
<g id="a_Node000003"><a xlink:href="class_visa_device.html#aba4642c194cffe2135a133e23960ab63" target="_top" xlink:title="Отправляет команду &quot;SYSTEM:ERROR?&quot; на подключенное устройство и считывает сведения об ошибках,...">
<polygon fill="white" stroke="#666666" points="664.62,-195.79 583.38,-195.79 583.38,-175.79 664.62,-175.79 664.62,-195.79"/>
<text text-anchor="middle" x="624" y="-182.29" font-family="Helvetica,sans-Serif" font-size="10.00">VisaDevice::err</text>
</a>
</g>
</g>
<!-- Node2&#45;&gt;Node3 -->
<g id="edge2_Node000002_Node000003" class="edge">
<title>Node2&#45;&gt;Node3</title>
<g id="a_edge2_Node000002_Node000003"><a xlink:title=" ">
<path fill="none" stroke="#63b8ff" d="M270.03,-185.79C353.15,-185.79 496.24,-185.79 572.19,-185.79"/>
<polygon fill="#63b8ff" stroke="#63b8ff" points="571.89,-189.29 581.89,-185.79 571.89,-182.29 571.89,-189.29"/>
</a>
</g>
</g>
<!-- Node4 -->
<g id="Node000004" class="node">
<title>Node4</title>
<g id="a_Node000004"><a xlink:href="class_logger.html#af7709105c2708359b7b082218f4cc3e1" target="_top" xlink:title="Метод, осуществляющий логирование">
<polygon fill="white" stroke="#666666" points="1025.75,-100.79 961.75,-100.79 961.75,-80.79 1025.75,-80.79 1025.75,-100.79"/>
<text text-anchor="middle" x="993.75" y="-87.29" font-family="Helvetica,sans-Serif" font-size="10.00">Logger::log</text>
</a>
</g>
</g>
<!-- Node2&#45;&gt;Node4 -->
<g id="edge13_Node000002_Node000004" class="edge">
<title>Node2&#45;&gt;Node4</title>
<g id="a_edge13_Node000002_Node000004"><a xlink:title=" ">
<path fill="none" stroke="#63b8ff" d="M237.77,-196.25C291.1,-212.7 401.76,-242.79 497.88,-242.79 497.88,-242.79 497.88,-242.79 753.5,-242.79 835.81,-242.79 859.57,-223.73 925.75,-174.79 949.41,-157.29 969.36,-129.46 981.18,-110.67"/>
<polygon fill="#63b8ff" stroke="#63b8ff" points="984.68,-112.65 986.88,-102.29 978.7,-109.02 984.68,-112.65"/>
</a>
</g>
</g>
<!-- Node12 -->
<g id="Node000012" class="node">
<title>Node12</title>
<g id="a_Node000012"><a xlink:href="class_visa_device.html#a3744ee1e929d6c05b522693c344c76b3" target="_top" xlink:title="Отправка данных на прибор и чтение ответа от прибора. Также, ожидается завершение выполнения действий...">
<polygon fill="white" stroke="#666666" points="419.25,-119.79 305.75,-119.79 305.75,-99.79 419.25,-99.79 419.25,-119.79"/>
<text text-anchor="middle" x="362.5" y="-106.29" font-family="Helvetica,sans-Serif" font-size="10.00">VisaDevice::send_wait</text>
</a>
</g>
</g>
<!-- Node2&#45;&gt;Node12 -->
<g id="edge14_Node000002_Node000012" class="edge">
<title>Node2&#45;&gt;Node12</title>
<g id="a_edge14_Node000002_Node000012"><a xlink:title=" ">
<path fill="none" stroke="#63b8ff" d="M227.08,-175.39C253.88,-162.31 300.05,-139.78 330.69,-124.83"/>
<polygon fill="#63b8ff" stroke="#63b8ff" points="331.98,-127.61 339.43,-120.08 328.91,-121.32 331.98,-127.61"/>
</a>
</g>
</g>
<!-- Node3&#45;&gt;Node4 -->
<g id="edge3_Node000003_Node000004" class="edge">
<title>Node3&#45;&gt;Node4</title>
<g id="a_edge3_Node000003_Node000004"><a xlink:title=" ">
<path fill="none" stroke="#63b8ff" d="M664.87,-187.82C724.34,-189.32 838.6,-186.24 925.75,-147.79 945.69,-139 964.23,-122.29 976.72,-109.23"/>
<polygon fill="#63b8ff" stroke="#63b8ff" points="978.83,-112.02 983.01,-102.29 973.67,-107.29 978.83,-112.02"/>
</a>
</g>
</g>
<!-- Node9 -->
<g id="Node000009" class="node">
<title>Node9</title>
<g id="a_Node000009"><a xlink:href="class_visa_device.html#aa807192fd9a8c3e6efc458f78de5e73e" target="_top" xlink:title="Метод, совмещающий в себе методы write() и read().">
<polygon fill="white" stroke="#666666" points="799.5,-138.79 705.5,-138.79 705.5,-118.79 799.5,-118.79 799.5,-138.79"/>
<text text-anchor="middle" x="752.5" y="-125.29" font-family="Helvetica,sans-Serif" font-size="10.00">VisaDevice::query</text>
</a>
</g>
</g>
<!-- Node3&#45;&gt;Node9 -->
<g id="edge8_Node000003_Node000009" class="edge">
<title>Node3&#45;&gt;Node9</title>
<g id="a_edge8_Node000003_Node000009"><a xlink:title=" ">
<path fill="none" stroke="#63b8ff" d="M648.2,-175.34C667.91,-166.46 696.42,-153.61 718.5,-143.66"/>
<polygon fill="#63b8ff" stroke="#63b8ff" points="719.77,-146.48 727.45,-139.18 716.89,-140.1 719.77,-146.48"/>
</a>
</g>
</g>
<!-- Node5 -->
<g id="Node000005" class="node">
<title>Node5</title>
<g id="a_Node000005"><a xlink:href="logger_8hpp.html#a49284b7befa8e31f81e01ee8f3735dd0" target="_top" xlink:title="Функция, которая снимает значение текущего времени и конвертирует его в строку с заданным шаблоном.">
<polygon fill="white" stroke="#666666" points="1167.38,-157.79 1078.62,-157.79 1078.62,-137.79 1167.38,-137.79 1167.38,-157.79"/>
<text text-anchor="middle" x="1123" y="-144.29" font-family="Helvetica,sans-Serif" font-size="10.00">get_current_time</text>
</a>
</g>
</g>
<!-- Node4&#45;&gt;Node5 -->
<g id="edge4_Node000004_Node000005" class="edge">
<title>Node4&#45;&gt;Node5</title>
<g id="a_edge4_Node000004_Node000005"><a xlink:title=" ">
<path fill="none" stroke="#63b8ff" d="M1010.77,-101.16C1024.05,-109.43 1043.6,-120.89 1061.75,-128.79 1065.82,-130.57 1070.11,-132.26 1074.45,-133.84"/>
<polygon fill="#63b8ff" stroke="#63b8ff" points="1072.99,-137.38 1083.59,-137.34 1075.28,-130.77 1072.99,-137.38"/>
</a>
</g>
</g>
<!-- Node6 -->
<g id="Node000006" class="node">
<title>Node6</title>
<g id="a_Node000006"><a xlink:href="class_logger.html#a6edb7b263f080d417b82a537ed50fee4" target="_top" xlink:title="Возвращает тег в зависимости от уровня логирования и от назначения тега.">
<polygon fill="white" stroke="#666666" points="1164.75,-119.79 1081.25,-119.79 1081.25,-99.79 1164.75,-99.79 1164.75,-119.79"/>
<text text-anchor="middle" x="1123" y="-106.29" font-family="Helvetica,sans-Serif" font-size="10.00">Logger::get_tag</text>
</a>
</g>
</g>
<!-- Node4&#45;&gt;Node6 -->
<g id="edge5_Node000004_Node000006" class="edge">
<title>Node4&#45;&gt;Node6</title>
<g id="a_edge5_Node000004_Node000006"><a xlink:title=" ">
<path fill="none" stroke="#63b8ff" d="M1026.21,-95.49C1039.47,-97.47 1055.27,-99.83 1070.17,-102.06"/>
<polygon fill="#63b8ff" stroke="#63b8ff" points="1069.41,-105.63 1079.82,-103.65 1070.44,-98.71 1069.41,-105.63"/>
</a>
</g>
</g>
<!-- Node7 -->
<g id="Node000007" class="node">
<title>Node7</title>
<g id="a_Node000007"><a xlink:href="class_logger.html#a4825613142ebb093bf8fa26f21f7f3fc" target="_top" xlink:title="Метод, который выводит сообщение в консоль.">
<polygon fill="white" stroke="#666666" points="1184.25,-81.79 1061.75,-81.79 1061.75,-61.79 1184.25,-61.79 1184.25,-81.79"/>
<text text-anchor="middle" x="1123" y="-68.29" font-family="Helvetica,sans-Serif" font-size="10.00">Logger::print_to_console</text>
</a>
</g>
</g>
<!-- Node4&#45;&gt;Node7 -->
<g id="edge6_Node000004_Node000007" class="edge">
<title>Node4&#45;&gt;Node7</title>
<g id="a_edge6_Node000004_Node000007"><a xlink:title=" ">
<path fill="none" stroke="#63b8ff" d="M1026.21,-86.1C1033.71,-84.98 1042.02,-83.74 1050.53,-82.47"/>
<polygon fill="#63b8ff" stroke="#63b8ff" points="1050.98,-85.79 1060.35,-80.85 1049.94,-78.87 1050.98,-85.79"/>
</a>
</g>
</g>
<!-- Node8 -->
<g id="Node000008" class="node">
<title>Node8</title>
<g id="a_Node000008"><a xlink:href="class_logger.html#a999bb33f7cf079cb98f32fae6016a2f3" target="_top" xlink:title="Метод, который записывает сообщение в файл.">
<polygon fill="white" stroke="#666666" points="1173.38,-43.79 1072.62,-43.79 1072.62,-23.79 1173.38,-23.79 1173.38,-43.79"/>
<text text-anchor="middle" x="1123" y="-30.29" font-family="Helvetica,sans-Serif" font-size="10.00">Logger::print_to_file</text>
</a>
</g>
</g>
<!-- Node4&#45;&gt;Node8 -->
<g id="edge7_Node000004_Node000008" class="edge">
<title>Node4&#45;&gt;Node8</title>
<g id="a_edge7_Node000004_Node000008"><a xlink:title=" ">
<path fill="none" stroke="#63b8ff" d="M1010.77,-80.43C1024.05,-72.16 1043.6,-60.7 1061.75,-52.79 1065.82,-51.02 1070.11,-49.33 1074.45,-47.75"/>
<polygon fill="#63b8ff" stroke="#63b8ff" points="1075.28,-50.82 1083.59,-44.24 1072.99,-44.2 1075.28,-50.82"/>
</a>
</g>
</g>
<!-- Node10 -->
<g id="Node000010" class="node">
<title>Node10</title>
<g id="a_Node000010"><a xlink:href="class_visa_device.html#aca08d9dbb0469f1143668a485e4adfe2" target="_top" xlink:title="Метод, позволяющий считать данные с устройства">
<polygon fill="white" stroke="#666666" points="925,-138.79 836.25,-138.79 836.25,-118.79 925,-118.79 925,-138.79"/>
<text text-anchor="middle" x="880.62" y="-125.29" font-family="Helvetica,sans-Serif" font-size="10.00">VisaDevice::read</text>
</a>
</g>
</g>
<!-- Node9&#45;&gt;Node10 -->
<g id="edge9_Node000009_Node000010" class="edge">
<title>Node9&#45;&gt;Node10</title>
<g id="a_edge9_Node000009_Node000010"><a xlink:title=" ">
<path fill="none" stroke="#63b8ff" d="M799.75,-128.79C807.96,-128.79 816.58,-128.79 825,-128.79"/>
<polygon fill="#63b8ff" stroke="#63b8ff" points="824.9,-132.29 834.9,-128.79 824.9,-125.29 824.9,-132.29"/>
</a>
</g>
</g>
<!-- Node11 -->
<g id="Node000011" class="node">
<title>Node11</title>
<g id="a_Node000011"><a xlink:href="class_visa_device.html#a29202c3f5e47326386d1d27972e25267" target="_top" xlink:title="Метод, позволяющий отправить команду на устройство">
<polygon fill="white" stroke="#666666" points="925.75,-100.79 835.5,-100.79 835.5,-80.79 925.75,-80.79 925.75,-100.79"/>
<text text-anchor="middle" x="880.62" y="-87.29" font-family="Helvetica,sans-Serif" font-size="10.00">VisaDevice::write</text>
</a>
</g>
</g>
<!-- Node9&#45;&gt;Node11 -->
<g id="edge11_Node000009_Node000011" class="edge">
<title>Node9&#45;&gt;Node11</title>
<g id="a_edge11_Node000009_Node000011"><a xlink:title=" ">
<path fill="none" stroke="#63b8ff" d="M788.3,-118.31C802.63,-113.99 819.43,-108.93 834.68,-104.34"/>
<polygon fill="#63b8ff" stroke="#63b8ff" points="835.38,-107.48 843.94,-101.24 833.36,-100.78 835.38,-107.48"/>
</a>
</g>
</g>
<!-- Node10&#45;&gt;Node4 -->
<g id="edge10_Node000010_Node000004" class="edge">
<title>Node10&#45;&gt;Node4</title>
<g id="a_edge10_Node000010_Node000004"><a xlink:title=" ">
<path fill="none" stroke="#63b8ff" d="M912.28,-118.31C924.55,-114.12 938.86,-109.22 951.98,-104.73"/>
<polygon fill="#63b8ff" stroke="#63b8ff" points="952.86,-107.79 961.19,-101.24 950.6,-101.17 952.86,-107.79"/>
</a>
</g>
</g>
<!-- Node11&#45;&gt;Node4 -->
<g id="edge12_Node000011_Node000004" class="edge">
<title>Node11&#45;&gt;Node4</title>
<g id="a_edge12_Node000011_Node000004"><a xlink:title=" ">
<path fill="none" stroke="#63b8ff" d="M926.18,-90.79C934.23,-90.79 942.59,-90.79 950.57,-90.79"/>
<polygon fill="#63b8ff" stroke="#63b8ff" points="950.5,-94.29 960.5,-90.79 950.5,-87.29 950.5,-94.29"/>
</a>
</g>
</g>
<!-- Node13 -->
<g id="Node000013" class="node">
<title>Node13</title>
<g id="a_Node000013"><a xlink:href="class_visa_device.html#ad659ba652605f5c983958400fde8c808" target="_top" xlink:title="Отправка данных на прибор и чтение ответа от прибора.">
<polygon fill="white" stroke="#666666" points="669.5,-119.79 578.5,-119.79 578.5,-99.79 669.5,-99.79 669.5,-119.79"/>
<text text-anchor="middle" x="624" y="-106.29" font-family="Helvetica,sans-Serif" font-size="10.00">VisaDevice::send</text>
</a>
</g>
</g>
<!-- Node12&#45;&gt;Node13 -->
<g id="edge15_Node000012_Node000013" class="edge">
<title>Node12&#45;&gt;Node13</title>
<g id="a_edge15_Node000012_Node000013"><a xlink:title=" ">
<path fill="none" stroke="#63b8ff" d="M419.49,-109.79C463.21,-109.79 523.67,-109.79 567.32,-109.79"/>
<polygon fill="#63b8ff" stroke="#63b8ff" points="567.31,-113.29 577.31,-109.79 567.31,-106.29 567.31,-113.29"/>
</a>
</g>
</g>
<!-- Node14 -->
<g id="Node000014" class="node">
<title>Node14</title>
<g id="a_Node000014"><a xlink:href="class_visa_device.html#ab1f5c0b110fca770dbd5be069453ea82" target="_top" xlink:title="Ожидание завершения выполнения команды.">
<polygon fill="white" stroke="#666666" points="542.5,-43.79 455.25,-43.79 455.25,-23.79 542.5,-23.79 542.5,-43.79"/>
<text text-anchor="middle" x="498.88" y="-30.29" font-family="Helvetica,sans-Serif" font-size="10.00">VisaDevice::wait</text>
</a>
</g>
</g>
<!-- Node12&#45;&gt;Node14 -->
<g id="edge20_Node000012_Node000014" class="edge">
<title>Node12&#45;&gt;Node14</title>
<g id="a_edge20_Node000012_Node000014"><a xlink:title=" ">
<path fill="none" stroke="#63b8ff" d="M381.9,-99.39C404.72,-86.48 443.82,-64.36 470.25,-49.42"/>
<polygon fill="#63b8ff" stroke="#63b8ff" points="471.71,-52.05 478.69,-44.08 468.27,-45.95 471.71,-52.05"/>
</a>
</g>
</g>
<!-- Node13&#45;&gt;Node4 -->
<g id="edge16_Node000013_Node000004" class="edge">
<title>Node13&#45;&gt;Node4</title>
<g id="a_edge16_Node000013_Node000004"><a xlink:title=" ">
<path fill="none" stroke="#63b8ff" d="M660.23,-99.3C716.43,-83.92 829.84,-58.46 925.75,-71.79 934.52,-73.01 943.75,-75.09 952.47,-77.43"/>
<polygon fill="#63b8ff" stroke="#63b8ff" points="951.2,-81 961.78,-80.38 953.13,-74.27 951.2,-81"/>
</a>
</g>
</g>
<!-- Node13&#45;&gt;Node9 -->
<g id="edge17_Node000013_Node000009" class="edge">
<title>Node13&#45;&gt;Node9</title>
<g id="a_edge17_Node000013_Node000009"><a xlink:title=" ">
<path fill="none" stroke="#63b8ff" d="M669.96,-116.55C677.95,-117.75 686.38,-119.01 694.66,-120.26"/>
<polygon fill="#63b8ff" stroke="#63b8ff" points="694,-123.85 704.41,-121.87 695.04,-116.93 694,-123.85"/>
</a>
</g>
</g>
<!-- Node13&#45;&gt;Node10 -->
<g id="edge18_Node000013_Node000010" class="edge">
<title>Node13&#45;&gt;Node10</title>
<g id="a_edge18_Node000013_Node000010"><a xlink:title=" ">
<path fill="none" stroke="#63b8ff" d="M641.48,-120.25C657.23,-129.56 681.97,-142.52 705.5,-147.79 748.66,-157.47 798.99,-150.02 834.4,-141.78"/>
<polygon fill="#63b8ff" stroke="#63b8ff" points="835.01,-144.99 843.89,-139.21 833.35,-138.19 835.01,-144.99"/>
</a>
</g>
</g>
<!-- Node13&#45;&gt;Node11 -->
<g id="edge19_Node000013_Node000011" class="edge">
<title>Node13&#45;&gt;Node11</title>
<g id="a_edge19_Node000013_Node000011"><a xlink:title=" ">
<path fill="none" stroke="#63b8ff" d="M669.94,-106.44C713.02,-103.23 778.17,-98.36 824.41,-94.91"/>
<polygon fill="#63b8ff" stroke="#63b8ff" points="824.43,-98.35 834.14,-94.11 823.91,-91.37 824.43,-98.35"/>
</a>
</g>
</g>
<!-- Node14&#45;&gt;Node4 -->
<g id="edge21_Node000014_Node000004" class="edge">
<title>Node14&#45;&gt;Node4</title>
<g id="a_edge21_Node000014_Node000004"><a xlink:title=" ">
<path fill="none" stroke="#63b8ff" d="M535.17,-23.38C548.6,-19.92 564.14,-16.51 578.5,-14.79 732.25,3.52 781.13,12.51 925.75,-42.79 943.78,-49.69 961.41,-62.64 974.05,-73.36"/>
<polygon fill="#63b8ff" stroke="#63b8ff" points="971.14,-75.33 980.96,-79.31 975.76,-70.08 971.14,-75.33"/>
</a>
</g>
</g>
<!-- Node15 -->
<g id="Node000015" class="node">
<title>Node15</title>
<g id="a_Node000015"><a xlink:href="class_visa_device.html#a70a6c6ace7c5841db420c1e112782a53" target="_top" xlink:title="Отправляет команду &quot;*OPC?&quot; на подключенное устройство, ожидает ответ и, в зависимости от полученного ...">
<polygon fill="white" stroke="#666666" points="666.88,-43.79 581.12,-43.79 581.12,-23.79 666.88,-23.79 666.88,-43.79"/>
<text text-anchor="middle" x="624" y="-30.29" font-family="Helvetica,sans-Serif" font-size="10.00">VisaDevice::opc</text>
</a>
</g>
</g>
<!-- Node14&#45;&gt;Node15 -->
<g id="edge22_Node000014_Node000015" class="edge">
<title>Node14&#45;&gt;Node15</title>
<g id="a_edge22_Node000014_Node000015"><a xlink:title=" ">
<path fill="none" stroke="#63b8ff" d="M542.94,-33.79C551.71,-33.79 561.04,-33.79 570.11,-33.79"/>
<polygon fill="#63b8ff" stroke="#63b8ff" points="570,-37.29 580,-33.79 570,-30.29 570,-37.29"/>
</a>
</g>
</g>
<!-- Node15&#45;&gt;Node4 -->
<g id="edge23_Node000015_Node000004" class="edge">
<title>Node15&#45;&gt;Node4</title>
<g id="a_edge23_Node000015_Node000004"><a xlink:title=" ">
<path fill="none" stroke="#63b8ff" d="M666.98,-34.25C725.7,-35.73 835.31,-41.54 925.75,-63.79 937.65,-66.72 950.24,-71.35 961.24,-75.96"/>
<polygon fill="#63b8ff" stroke="#63b8ff" points="959.68,-79.53 970.24,-80.31 962.47,-73.11 959.68,-79.53"/>
</a>
</g>
</g>
<!-- Node15&#45;&gt;Node9 -->
<g id="edge24_Node000015_Node000009" class="edge">
<title>Node15&#45;&gt;Node9</title>
<g id="a_edge24_Node000015_Node000009"><a xlink:title=" ">
<path fill="none" stroke="#63b8ff" d="M638.54,-43.96C660.2,-60.23 702.89,-92.29 729.14,-112"/>
<polygon fill="#63b8ff" stroke="#63b8ff" points="726.58,-115.21 736.68,-118.41 730.78,-109.61 726.58,-115.21"/>
</a>
</g>
</g>
</g>
</svg>

<g id="navigator" transform="translate(0 0)" fill="#404254">
  <rect fill="#f2f5e9" fill-opacity="0.5" stroke="#606060" stroke-width=".5" x="0" y="0" width="60" height="60"/>
  <use id="zoomplus" xlink:href="#zoomPlus" x="17" y="9" onmousedown="handleZoom(evt,'in')"/>
  <use id="zoomminus" xlink:href="#zoomMin" x="42" y="9" onmousedown="handleZoom(evt,'out')"/>
  <use id="reset" xlink:href="#resetDef" x="30" y="36" onmousedown="handleReset()"/>
   <use id="arrowup" xlink:href="#arrowUp" x="0" y="0" onmousedown="handlePan(0,-1)"/>
  <use id="arrowright" xlink:href="#arrowRight" x="0" y="0" onmousedown="handlePan(1,0)"/>
  <use id="arrowdown" xlink:href="#arrowDown" x="0" y="0" onmousedown="handlePan(0,1)"/>
  <use id="arrowleft" xlink:href="#arrowLeft" x="0" y="0" onmousedown="handlePan(-1,0)"/>
</g>
<svg viewBox="0 0 15 15" width="100%" height="30px" preserveAspectRatio="xMaxYMin meet">
 <g id="arrow_out" transform="scale(0.3 0.3)">
  <a xlink:href="class_planar_s50244_aeec8379aa2d84a196836a99d13d43bf9_cgraph_org.svg" target="_base">
   <rect id="button" ry="5" rx="5" y="6" x="6" height="38" width="38"
        fill="#f2f5e9" fill-opacity="0.5" stroke="#606060" stroke-width="1.0"/>
   <path id="arrow"
     d="M 11.500037,31.436501 C 11.940474,20.09759 22.043105,11.32322 32.158766,21.979434 L 37.068811,17.246167 C 37.068811,17.246167 37.088388,32 37.088388,32 L 22.160133,31.978069 C 22.160133,31.978069 26.997745,27.140456 26.997745,27.140456 C 18.528582,18.264221 13.291696,25.230495 11.500037,31.436501 z"
     style="fill:#404040;"/>
  </a>
 </g>
</svg>

<style type='text/css'>
<![CDATA[
[data-mouse-over-selected='false'] { opacity: 0.7; }
[data-mouse-over-selected='true']  { opacity: 1.0; }
]]>
</style>
<script type="application/ecmascript"><![CDATA[
document.addEventListener('DOMContentLoaded', (event) => {
  highlightEdges();
  highlightAdjacentNodes();
});
]]></script>
</svg>
