<?xml version="1.0" encoding="UTF-8" standalone="no"?>
<!DOCTYPE svg PUBLIC "-//W3C//DTD SVG 1.1//EN"
 "http://www.w3.org/Graphics/SVG/1.1/DTD/svg11.dtd">
<!-- Generated by graphviz version 8.1.0 (20230707.0739)
 -->
<!-- Title: PlanarS50244::init_channel Pages: 1 -->
<svg width="1184pt" height="251pt"
 viewBox="0.00 0.00 1184.00 250.79" xmlns="http://www.w3.org/2000/svg" xmlns:xlink="http://www.w3.org/1999/xlink">
<g id="graph0" class="graph" transform="scale(1 1) rotate(0) translate(4 246.79)">
<title>PlanarS50244::init_channel</title>
<!-- Node1 -->
<g id="Node000001" class="node">
<title>Node1</title>
<g id="a_Node000001"><a xlink:title="Инициализация канала для измерений">
<polygon fill="#999999" stroke="#666666" points="95.5,-201.79 0,-201.79 0,-169.79 95.5,-169.79 95.5,-201.79"/>
<text text-anchor="start" x="8" y="-188.29" font-family="Helvetica,sans-Serif" font-size="10.00">PlanarS50244::init</text>
<text text-anchor="middle" x="47.75" y="-176.29" font-family="Helvetica,sans-Serif" font-size="10.00">_channel</text>
</a>
</g>
</g>
<!-- Node2 -->
<g id="Node000002" class="node">
<title>Node2</title>
<g id="a_Node000002"><a xlink:href="class_visa_device.html#a069e154c5f48779dfd908146db9e66ed" target="_top" xlink:title="Отправка данных на прибор и чтение ответа от прибора. Также, ожидается завершение выполнения действий...">
<polygon fill="white" stroke="#666666" points="261.5,-195.79 131.5,-195.79 131.5,-175.79 261.5,-175.79 261.5,-195.79"/>
<text text-anchor="middle" x="196.5" y="-182.29" font-family="Helvetica,sans-Serif" font-size="10.00">VisaDevice::send_wait_err</text>
</a>
</g>
</g>
<!-- Node1&#45;&gt;Node2 -->
<g id="edge1_Node000001_Node000002" class="edge">
<title>Node1&#45;&gt;Node2</title>
<g id="a_edge1_Node000001_Node000002"><a xlink:title=" ">
<path fill="none" stroke="#63b8ff" d="M95.99,-185.79C103.8,-185.79 112.06,-185.79 120.35,-185.79"/>
<polygon fill="#63b8ff" stroke="#63b8ff" points="120.23,-189.29 130.23,-185.79 120.23,-182.29 120.23,-189.29"/>
</a>
</g>
</g>
<!-- Node3 -->
<g id="Node000003" class="node">
<title>Node3</title>
<g id="a_Node000003"><a xlink:href="class_visa_device.html#aba4642c194cffe2135a133e23960ab63" target="_top" xlink:title="Отправляет команду &quot;SYSTEM:ERROR?&quot; на подключенное устройство и считывает сведения об ошибках,...">
<polygon fill="white" stroke="#666666" points="656.38,-195.79 575.12,-195.79 575.12,-175.79 656.38,-175.79 656.38,-195.79"/>
<text text-anchor="middle" x="615.75" y="-182.29" font-family="Helvetica,sans-Serif" font-size="10.00">VisaDevice::err</text>
</a>
</g>
</g>
<!-- Node2&#45;&gt;Node3 -->
<g id="edge2_Node000002_Node000003" class="edge">
<title>Node2&#45;&gt;Node3</title>
<g id="a_edge2_Node000002_Node000003"><a xlink:title=" ">
<path fill="none" stroke="#63b8ff" d="M261.78,-185.79C344.9,-185.79 487.99,-185.79 563.94,-185.79"/>
<polygon fill="#63b8ff" stroke="#63b8ff" points="563.64,-189.29 573.64,-185.79 563.64,-182.29 563.64,-189.29"/>
</a>
</g>
</g>
<!-- Node4 -->
<g id="Node000004" class="node">
<title>Node4</title>
<g id="a_Node000004"><a xlink:href="class_logger.html#af7709105c2708359b7b082218f4cc3e1" target="_top" xlink:title="Метод, осуществляющий логирование">
<polygon fill="white" stroke="#666666" points="1017.5,-100.79 953.5,-100.79 953.5,-80.79 1017.5,-80.79 1017.5,-100.79"/>
<text text-anchor="middle" x="985.5" y="-87.29" font-family="Helvetica,sans-Serif" font-size="10.00">Logger::log</text>
</a>
</g>
</g>
<!-- Node2&#45;&gt;Node4 -->
<g id="edge13_Node000002_Node000004" class="edge">
<title>Node2&#45;&gt;Node4</title>
<g id="a_edge13_Node000002_Node000004"><a xlink:title=" ">
<path fill="none" stroke="#63b8ff" d="M229.52,-196.25C282.85,-212.7 393.51,-242.79 489.62,-242.79 489.62,-242.79 489.62,-242.79 745.25,-242.79 827.56,-242.79 851.32,-223.73 917.5,-174.79 941.16,-157.29 961.11,-129.46 972.93,-110.67"/>
<polygon fill="#63b8ff" stroke="#63b8ff" points="976.43,-112.65 978.63,-102.29 970.45,-109.02 976.43,-112.65"/>
</a>
</g>
</g>
<!-- Node12 -->
<g id="Node000012" class="node">
<title>Node12</title>
<g id="a_Node000012"><a xlink:href="class_visa_device.html#a3744ee1e929d6c05b522693c344c76b3" target="_top" xlink:title="Отправка данных на прибор и чтение ответа от прибора. Также, ожидается завершение выполнения действий...">
<polygon fill="white" stroke="#666666" points="411,-119.79 297.5,-119.79 297.5,-99.79 411,-99.79 411,-119.79"/>
<text text-anchor="middle" x="354.25" y="-106.29" font-family="Helvetica,sans-Serif" font-size="10.00">VisaDevice::send_wait</text>
</a>
</g>
</g>
<!-- Node2&#45;&gt;Node12 -->
<g id="edge14_Node000002_Node000012" class="edge">
<title>Node2&#45;&gt;Node12</title>
<g id="a_edge14_Node000002_Node000012"><a xlink:title=" ">
<path fill="none" stroke="#63b8ff" d="M218.83,-175.39C245.63,-162.31 291.8,-139.78 322.44,-124.83"/>
<polygon fill="#63b8ff" stroke="#63b8ff" points="323.73,-127.61 331.18,-120.08 320.66,-121.32 323.73,-127.61"/>
</a>
</g>
</g>
<!-- Node3&#45;&gt;Node4 -->
<g id="edge3_Node000003_Node000004" class="edge">
<title>Node3&#45;&gt;Node4</title>
<g id="a_edge3_Node000003_Node000004"><a xlink:title=" ">
<path fill="none" stroke="#63b8ff" d="M656.62,-187.82C716.09,-189.32 830.35,-186.24 917.5,-147.79 937.44,-139 955.98,-122.29 968.47,-109.23"/>
<polygon fill="#63b8ff" stroke="#63b8ff" points="970.58,-112.02 974.76,-102.29 965.42,-107.29 970.58,-112.02"/>
</a>
</g>
</g>
<!-- Node9 -->
<g id="Node000009" class="node">
<title>Node9</title>
<g id="a_Node000009"><a xlink:href="class_visa_device.html#aa807192fd9a8c3e6efc458f78de5e73e" target="_top" xlink:title="Метод, совмещающий в себе методы write() и read().">
<polygon fill="white" stroke="#666666" points="791.25,-138.79 697.25,-138.79 697.25,-118.79 791.25,-118.79 791.25,-138.79"/>
<text text-anchor="middle" x="744.25" y="-125.29" font-family="Helvetica,sans-Serif" font-size="10.00">VisaDevice::query</text>
</a>
</g>
</g>
<!-- Node3&#45;&gt;Node9 -->
<g id="edge8_Node000003_Node000009" class="edge">
<title>Node3&#45;&gt;Node9</title>
<g id="a_edge8_Node000003_Node000009"><a xlink:title=" ">
<path fill="none" stroke="#63b8ff" d="M639.95,-175.34C659.66,-166.46 688.17,-153.61 710.25,-143.66"/>
<polygon fill="#63b8ff" stroke="#63b8ff" points="711.52,-146.48 719.2,-139.18 708.64,-140.1 711.52,-146.48"/>
</a>
</g>
</g>
<!-- Node5 -->
<g id="Node000005" class="node">
<title>Node5</title>
<g id="a_Node000005"><a xlink:href="logger_8hpp.html#a49284b7befa8e31f81e01ee8f3735dd0" target="_top" xlink:title="Функция, которая снимает значение текущего времени и конвертирует его в строку с заданным шаблоном.">
<polygon fill="white" stroke="#666666" points="1159.12,-157.79 1070.38,-157.79 1070.38,-137.79 1159.12,-137.79 1159.12,-157.79"/>
<text text-anchor="middle" x="1114.75" y="-144.29" font-family="Helvetica,sans-Serif" font-size="10.00">get_current_time</text>
</a>
</g>
</g>
<!-- Node4&#45;&gt;Node5 -->
<g id="edge4_Node000004_Node000005" class="edge">
<title>Node4&#45;&gt;Node5</title>
<g id="a_edge4_Node000004_Node000005"><a xlink:title=" ">
<path fill="none" stroke="#63b8ff" d="M1002.52,-101.16C1015.8,-109.43 1035.35,-120.89 1053.5,-128.79 1057.57,-130.57 1061.86,-132.26 1066.2,-133.84"/>
<polygon fill="#63b8ff" stroke="#63b8ff" points="1064.74,-137.38 1075.34,-137.34 1067.03,-130.77 1064.74,-137.38"/>
</a>
</g>
</g>
<!-- Node6 -->
<g id="Node000006" class="node">
<title>Node6</title>
<g id="a_Node000006"><a xlink:href="class_logger.html#a6edb7b263f080d417b82a537ed50fee4" target="_top" xlink:title="Возвращает тег в зависимости от уровня логирования и от назначения тега.">
<polygon fill="white" stroke="#666666" points="1156.5,-119.79 1073,-119.79 1073,-99.79 1156.5,-99.79 1156.5,-119.79"/>
<text text-anchor="middle" x="1114.75" y="-106.29" font-family="Helvetica,sans-Serif" font-size="10.00">Logger::get_tag</text>
</a>
</g>
</g>
<!-- Node4&#45;&gt;Node6 -->
<g id="edge5_Node000004_Node000006" class="edge">
<title>Node4&#45;&gt;Node6</title>
<g id="a_edge5_Node000004_Node000006"><a xlink:title=" ">
<path fill="none" stroke="#63b8ff" d="M1017.96,-95.49C1031.22,-97.47 1047.02,-99.83 1061.92,-102.06"/>
<polygon fill="#63b8ff" stroke="#63b8ff" points="1061.16,-105.63 1071.57,-103.65 1062.19,-98.71 1061.16,-105.63"/>
</a>
</g>
</g>
<!-- Node7 -->
<g id="Node000007" class="node">
<title>Node7</title>
<g id="a_Node000007"><a xlink:href="class_logger.html#a4825613142ebb093bf8fa26f21f7f3fc" target="_top" xlink:title="Метод, который выводит сообщение в консоль.">
<polygon fill="white" stroke="#666666" points="1176,-81.79 1053.5,-81.79 1053.5,-61.79 1176,-61.79 1176,-81.79"/>
<text text-anchor="middle" x="1114.75" y="-68.29" font-family="Helvetica,sans-Serif" font-size="10.00">Logger::print_to_console</text>
</a>
</g>
</g>
<!-- Node4&#45;&gt;Node7 -->
<g id="edge6_Node000004_Node000007" class="edge">
<title>Node4&#45;&gt;Node7</title>
<g id="a_edge6_Node000004_Node000007"><a xlink:title=" ">
<path fill="none" stroke="#63b8ff" d="M1017.96,-86.1C1025.46,-84.98 1033.77,-83.74 1042.28,-82.47"/>
<polygon fill="#63b8ff" stroke="#63b8ff" points="1042.73,-85.79 1052.1,-80.85 1041.69,-78.87 1042.73,-85.79"/>
</a>
</g>
</g>
<!-- Node8 -->
<g id="Node000008" class="node">
<title>Node8</title>
<g id="a_Node000008"><a xlink:href="class_logger.html#a999bb33f7cf079cb98f32fae6016a2f3" target="_top" xlink:title="Метод, который записывает сообщение в файл.">
<polygon fill="white" stroke="#666666" points="1165.12,-43.79 1064.38,-43.79 1064.38,-23.79 1165.12,-23.79 1165.12,-43.79"/>
<text text-anchor="middle" x="1114.75" y="-30.29" font-family="Helvetica,sans-Serif" font-size="10.00">Logger::print_to_file</text>
</a>
</g>
</g>
<!-- Node4&#45;&gt;Node8 -->
<g id="edge7_Node000004_Node000008" class="edge">
<title>Node4&#45;&gt;Node8</title>
<g id="a_edge7_Node000004_Node000008"><a xlink:title=" ">
<path fill="none" stroke="#63b8ff" d="M1002.52,-80.43C1015.8,-72.16 1035.35,-60.7 1053.5,-52.79 1057.57,-51.02 1061.86,-49.33 1066.2,-47.75"/>
<polygon fill="#63b8ff" stroke="#63b8ff" points="1067.03,-50.82 1075.34,-44.24 1064.74,-44.2 1067.03,-50.82"/>
</a>
</g>
</g>
<!-- Node10 -->
<g id="Node000010" class="node">
<title>Node10</title>
<g id="a_Node000010"><a xlink:href="class_visa_device.html#aca08d9dbb0469f1143668a485e4adfe2" target="_top" xlink:title="Метод, позволяющий считать данные с устройства">
<polygon fill="white" stroke="#666666" points="916.75,-138.79 828,-138.79 828,-118.79 916.75,-118.79 916.75,-138.79"/>
<text text-anchor="middle" x="872.38" y="-125.29" font-family="Helvetica,sans-Serif" font-size="10.00">VisaDevice::read</text>
</a>
</g>
</g>
<!-- Node9&#45;&gt;Node10 -->
<g id="edge9_Node000009_Node000010" class="edge">
<title>Node9&#45;&gt;Node10</title>
<g id="a_edge9_Node000009_Node000010"><a xlink:title=" ">
<path fill="none" stroke="#63b8ff" d="M791.5,-128.79C799.71,-128.79 808.33,-128.79 816.75,-128.79"/>
<polygon fill="#63b8ff" stroke="#63b8ff" points="816.65,-132.29 826.65,-128.79 816.65,-125.29 816.65,-132.29"/>
</a>
</g>
</g>
<!-- Node11 -->
<g id="Node000011" class="node">
<title>Node11</title>
<g id="a_Node000011"><a xlink:href="class_visa_device.html#a29202c3f5e47326386d1d27972e25267" target="_top" xlink:title="Метод, позволяющий отправить команду на устройство">
<polygon fill="white" stroke="#666666" points="917.5,-100.79 827.25,-100.79 827.25,-80.79 917.5,-80.79 917.5,-100.79"/>
<text text-anchor="middle" x="872.38" y="-87.29" font-family="Helvetica,sans-Serif" font-size="10.00">VisaDevice::write</text>
</a>
</g>
</g>
<!-- Node9&#45;&gt;Node11 -->
<g id="edge11_Node000009_Node000011" class="edge">
<title>Node9&#45;&gt;Node11</title>
<g id="a_edge11_Node000009_Node000011"><a xlink:title=" ">
<path fill="none" stroke="#63b8ff" d="M780.05,-118.31C794.38,-113.99 811.18,-108.93 826.43,-104.34"/>
<polygon fill="#63b8ff" stroke="#63b8ff" points="827.13,-107.48 835.69,-101.24 825.11,-100.78 827.13,-107.48"/>
</a>
</g>
</g>
<!-- Node10&#45;&gt;Node4 -->
<g id="edge10_Node000010_Node000004" class="edge">
<title>Node10&#45;&gt;Node4</title>
<g id="a_edge10_Node000010_Node000004"><a xlink:title=" ">
<path fill="none" stroke="#63b8ff" d="M904.03,-118.31C916.3,-114.12 930.61,-109.22 943.73,-104.73"/>
<polygon fill="#63b8ff" stroke="#63b8ff" points="944.61,-107.79 952.94,-101.24 942.35,-101.17 944.61,-107.79"/>
</a>
</g>
</g>
<!-- Node11&#45;&gt;Node4 -->
<g id="edge12_Node000011_Node000004" class="edge">
<title>Node11&#45;&gt;Node4</title>
<g id="a_edge12_Node000011_Node000004"><a xlink:title=" ">
<path fill="none" stroke="#63b8ff" d="M917.93,-90.79C925.98,-90.79 934.34,-90.79 942.32,-90.79"/>
<polygon fill="#63b8ff" stroke="#63b8ff" points="942.25,-94.29 952.25,-90.79 942.25,-87.29 942.25,-94.29"/>
</a>
</g>
</g>
<!-- Node13 -->
<g id="Node000013" class="node">
<title>Node13</title>
<g id="a_Node000013"><a xlink:href="class_visa_device.html#ad659ba652605f5c983958400fde8c808" target="_top" xlink:title="Отправка данных на прибор и чтение ответа от прибора.">
<polygon fill="white" stroke="#666666" points="661.25,-119.79 570.25,-119.79 570.25,-99.79 661.25,-99.79 661.25,-119.79"/>
<text text-anchor="middle" x="615.75" y="-106.29" font-family="Helvetica,sans-Serif" font-size="10.00">VisaDevice::send</text>
</a>
</g>
</g>
<!-- Node12&#45;&gt;Node13 -->
<g id="edge15_Node000012_Node000013" class="edge">
<title>Node12&#45;&gt;Node13</title>
<g id="a_edge15_Node000012_Node000013"><a xlink:title=" ">
<path fill="none" stroke="#63b8ff" d="M411.24,-109.79C454.96,-109.79 515.42,-109.79 559.07,-109.79"/>
<polygon fill="#63b8ff" stroke="#63b8ff" points="559.06,-113.29 569.06,-109.79 559.06,-106.29 559.06,-113.29"/>
</a>
</g>
</g>
<!-- Node14 -->
<g id="Node000014" class="node">
<title>Node14</title>
<g id="a_Node000014"><a xlink:href="class_visa_device.html#ab1f5c0b110fca770dbd5be069453ea82" target="_top" xlink:title="Ожидание завершения выполнения команды.">
<polygon fill="white" stroke="#666666" points="534.25,-43.79 447,-43.79 447,-23.79 534.25,-23.79 534.25,-43.79"/>
<text text-anchor="middle" x="490.62" y="-30.29" font-family="Helvetica,sans-Serif" font-size="10.00">VisaDevice::wait</text>
</a>
</g>
</g>
<!-- Node12&#45;&gt;Node14 -->
<g id="edge20_Node000012_Node000014" class="edge">
<title>Node12&#45;&gt;Node14</title>
<g id="a_edge20_Node000012_Node000014"><a xlink:title=" ">
<path fill="none" stroke="#63b8ff" d="M373.65,-99.39C396.47,-86.48 435.57,-64.36 462,-49.42"/>
<polygon fill="#63b8ff" stroke="#63b8ff" points="463.46,-52.05 470.44,-44.08 460.02,-45.95 463.46,-52.05"/>
</a>
</g>
</g>
<!-- Node13&#45;&gt;Node4 -->
<g id="edge16_Node000013_Node000004" class="edge">
<title>Node13&#45;&gt;Node4</title>
<g id="a_edge16_Node000013_Node000004"><a xlink:title=" ">
<path fill="none" stroke="#63b8ff" d="M651.98,-99.3C708.18,-83.92 821.59,-58.46 917.5,-71.79 926.27,-73.01 935.5,-75.09 944.22,-77.43"/>
<polygon fill="#63b8ff" stroke="#63b8ff" points="942.95,-81 953.53,-80.38 944.88,-74.27 942.95,-81"/>
</a>
</g>
</g>
<!-- Node13&#45;&gt;Node9 -->
<g id="edge17_Node000013_Node000009" class="edge">
<title>Node13&#45;&gt;Node9</title>
<g id="a_edge17_Node000013_Node000009"><a xlink:title=" ">
<path fill="none" stroke="#63b8ff" d="M661.71,-116.55C669.7,-117.75 678.13,-119.01 686.41,-120.26"/>
<polygon fill="#63b8ff" stroke="#63b8ff" points="685.75,-123.85 696.16,-121.87 686.79,-116.93 685.75,-123.85"/>
</a>
</g>
</g>
<!-- Node13&#45;&gt;Node10 -->
<g id="edge18_Node000013_Node000010" class="edge">
<title>Node13&#45;&gt;Node10</title>
<g id="a_edge18_Node000013_Node000010"><a xlink:title=" ">
<path fill="none" stroke="#63b8ff" d="M633.23,-120.25C648.98,-129.56 673.72,-142.52 697.25,-147.79 740.41,-157.47 790.74,-150.02 826.15,-141.78"/>
<polygon fill="#63b8ff" stroke="#63b8ff" points="826.76,-144.99 835.64,-139.21 825.1,-138.19 826.76,-144.99"/>
</a>
</g>
</g>
<!-- Node13&#45;&gt;Node11 -->
<g id="edge19_Node000013_Node000011" class="edge">
<title>Node13&#45;&gt;Node11</title>
<g id="a_edge19_Node000013_Node000011"><a xlink:title=" ">
<path fill="none" stroke="#63b8ff" d="M661.69,-106.44C704.77,-103.23 769.92,-98.36 816.16,-94.91"/>
<polygon fill="#63b8ff" stroke="#63b8ff" points="816.18,-98.35 825.89,-94.11 815.66,-91.37 816.18,-98.35"/>
</a>
</g>
</g>
<!-- Node14&#45;&gt;Node4 -->
<g id="edge21_Node000014_Node000004" class="edge">
<title>Node14&#45;&gt;Node4</title>
<g id="a_edge21_Node000014_Node000004"><a xlink:title=" ">
<path fill="none" stroke="#63b8ff" d="M526.92,-23.38C540.35,-19.92 555.89,-16.51 570.25,-14.79 724,3.52 772.88,12.51 917.5,-42.79 935.53,-49.69 953.16,-62.64 965.8,-73.36"/>
<polygon fill="#63b8ff" stroke="#63b8ff" points="962.89,-75.33 972.71,-79.31 967.51,-70.08 962.89,-75.33"/>
</a>
</g>
</g>
<!-- Node15 -->
<g id="Node000015" class="node">
<title>Node15</title>
<g id="a_Node000015"><a xlink:href="class_visa_device.html#a70a6c6ace7c5841db420c1e112782a53" target="_top" xlink:title="Отправляет команду &quot;*OPC?&quot; на подключенное устройство, ожидает ответ и, в зависимости от полученного ...">
<polygon fill="white" stroke="#666666" points="658.62,-43.79 572.88,-43.79 572.88,-23.79 658.62,-23.79 658.62,-43.79"/>
<text text-anchor="middle" x="615.75" y="-30.29" font-family="Helvetica,sans-Serif" font-size="10.00">VisaDevice::opc</text>
</a>
</g>
</g>
<!-- Node14&#45;&gt;Node15 -->
<g id="edge22_Node000014_Node000015" class="edge">
<title>Node14&#45;&gt;Node15</title>
<g id="a_edge22_Node000014_Node000015"><a xlink:title=" ">
<path fill="none" stroke="#63b8ff" d="M534.69,-33.79C543.46,-33.79 552.79,-33.79 561.86,-33.79"/>
<polygon fill="#63b8ff" stroke="#63b8ff" points="561.75,-37.29 571.75,-33.79 561.75,-30.29 561.75,-37.29"/>
</a>
</g>
</g>
<!-- Node15&#45;&gt;Node4 -->
<g id="edge23_Node000015_Node000004" class="edge">
<title>Node15&#45;&gt;Node4</title>
<g id="a_edge23_Node000015_Node000004"><a xlink:title=" ">
<path fill="none" stroke="#63b8ff" d="M658.73,-34.25C717.45,-35.73 827.06,-41.54 917.5,-63.79 929.4,-66.72 941.99,-71.35 952.99,-75.96"/>
<polygon fill="#63b8ff" stroke="#63b8ff" points="951.43,-79.53 961.99,-80.31 954.22,-73.11 951.43,-79.53"/>
</a>
</g>
</g>
<!-- Node15&#45;&gt;Node9 -->
<g id="edge24_Node000015_Node000009" class="edge">
<title>Node15&#45;&gt;Node9</title>
<g id="a_edge24_Node000015_Node000009"><a xlink:title=" ">
<path fill="none" stroke="#63b8ff" d="M630.29,-43.96C651.95,-60.23 694.64,-92.29 720.89,-112"/>
<polygon fill="#63b8ff" stroke="#63b8ff" points="718.33,-115.21 728.43,-118.41 722.53,-109.61 718.33,-115.21"/>
</a>
</g>
</g>
</g>
</svg>
