<?xml version="1.0" encoding="UTF-8" standalone="no"?>
<!DOCTYPE svg PUBLIC "-//W3C//DTD SVG 1.1//EN"
 "http://www.w3.org/Graphics/SVG/1.1/DTD/svg11.dtd">
<!-- Generated by graphviz version 8.1.0 (20230707.0739)
 -->
<!-- Title: PlanarS50244::rf_off Pages: 1 -->
<svg width="1192pt" height="251pt"
 viewBox="0.00 0.00 1191.50 250.79" xmlns="http://www.w3.org/2000/svg" xmlns:xlink="http://www.w3.org/1999/xlink">
<g id="graph0" class="graph" transform="scale(1 1) rotate(0) translate(4 246.79)">
<title>PlanarS50244::rf_off</title>
<!-- Node1 -->
<g id="Node000001" class="node">
<title>Node1</title>
<g id="a_Node000001"><a xlink:title="Отключает все порты">
<polygon fill="#999999" stroke="#666666" points="103,-195.79 0,-195.79 0,-175.79 103,-175.79 103,-195.79"/>
<text text-anchor="middle" x="51.5" y="-182.29" font-family="Helvetica,sans-Serif" font-size="10.00">PlanarS50244::rf_off</text>
</a>
</g>
</g>
<!-- Node2 -->
<g id="Node000002" class="node">
<title>Node2</title>
<g id="a_Node000002"><a xlink:href="class_visa_device.html#a069e154c5f48779dfd908146db9e66ed" target="_top" xlink:title="Отправка данных на прибор и чтение ответа от прибора. Также, ожидается завершение выполнения действий...">
<polygon fill="white" stroke="#666666" points="269,-195.79 139,-195.79 139,-175.79 269,-175.79 269,-195.79"/>
<text text-anchor="middle" x="204" y="-182.29" font-family="Helvetica,sans-Serif" font-size="10.00">VisaDevice::send_wait_err</text>
</a>
</g>
</g>
<!-- Node1&#45;&gt;Node2 -->
<g id="edge1_Node000001_Node000002" class="edge">
<title>Node1&#45;&gt;Node2</title>
<g id="a_edge1_Node000001_Node000002"><a xlink:title=" ">
<path fill="none" stroke="#63b8ff" d="M103.45,-185.79C111.34,-185.79 119.62,-185.79 127.91,-185.79"/>
<polygon fill="#63b8ff" stroke="#63b8ff" points="127.76,-189.29 137.76,-185.79 127.76,-182.29 127.76,-189.29"/>
</a>
</g>
</g>
<!-- Node3 -->
<g id="Node000003" class="node">
<title>Node3</title>
<g id="a_Node000003"><a xlink:href="class_visa_device.html#aba4642c194cffe2135a133e23960ab63" target="_top" xlink:title="Отправляет команду &quot;SYSTEM:ERROR?&quot; на подключенное устройство и считывает сведения об ошибках,...">
<polygon fill="white" stroke="#666666" points="663.88,-195.79 582.62,-195.79 582.62,-175.79 663.88,-175.79 663.88,-195.79"/>
<text text-anchor="middle" x="623.25" y="-182.29" font-family="Helvetica,sans-Serif" font-size="10.00">VisaDevice::err</text>
</a>
</g>
</g>
<!-- Node2&#45;&gt;Node3 -->
<g id="edge2_Node000002_Node000003" class="edge">
<title>Node2&#45;&gt;Node3</title>
<g id="a_edge2_Node000002_Node000003"><a xlink:title=" ">
<path fill="none" stroke="#63b8ff" d="M269.28,-185.79C352.4,-185.79 495.49,-185.79 571.44,-185.79"/>
<polygon fill="#63b8ff" stroke="#63b8ff" points="571.14,-189.29 581.14,-185.79 571.14,-182.29 571.14,-189.29"/>
</a>
</g>
</g>
<!-- Node4 -->
<g id="Node000004" class="node">
<title>Node4</title>
<g id="a_Node000004"><a xlink:href="class_logger.html#af7709105c2708359b7b082218f4cc3e1" target="_top" xlink:title="Метод, осуществляющий логирование">
<polygon fill="white" stroke="#666666" points="1025,-100.79 961,-100.79 961,-80.79 1025,-80.79 1025,-100.79"/>
<text text-anchor="middle" x="993" y="-87.29" font-family="Helvetica,sans-Serif" font-size="10.00">Logger::log</text>
</a>
</g>
</g>
<!-- Node2&#45;&gt;Node4 -->
<g id="edge13_Node000002_Node000004" class="edge">
<title>Node2&#45;&gt;Node4</title>
<g id="a_edge13_Node000002_Node000004"><a xlink:title=" ">
<path fill="none" stroke="#63b8ff" d="M237.02,-196.25C290.35,-212.7 401.01,-242.79 497.12,-242.79 497.12,-242.79 497.12,-242.79 752.75,-242.79 835.06,-242.79 858.82,-223.73 925,-174.79 948.66,-157.29 968.61,-129.46 980.43,-110.67"/>
<polygon fill="#63b8ff" stroke="#63b8ff" points="983.93,-112.65 986.13,-102.29 977.95,-109.02 983.93,-112.65"/>
</a>
</g>
</g>
<!-- Node12 -->
<g id="Node000012" class="node">
<title>Node12</title>
<g id="a_Node000012"><a xlink:href="class_visa_device.html#a3744ee1e929d6c05b522693c344c76b3" target="_top" xlink:title="Отправка данных на прибор и чтение ответа от прибора. Также, ожидается завершение выполнения действий...">
<polygon fill="white" stroke="#666666" points="418.5,-119.79 305,-119.79 305,-99.79 418.5,-99.79 418.5,-119.79"/>
<text text-anchor="middle" x="361.75" y="-106.29" font-family="Helvetica,sans-Serif" font-size="10.00">VisaDevice::send_wait</text>
</a>
</g>
</g>
<!-- Node2&#45;&gt;Node12 -->
<g id="edge14_Node000002_Node000012" class="edge">
<title>Node2&#45;&gt;Node12</title>
<g id="a_edge14_Node000002_Node000012"><a xlink:title=" ">
<path fill="none" stroke="#63b8ff" d="M226.33,-175.39C253.13,-162.31 299.3,-139.78 329.94,-124.83"/>
<polygon fill="#63b8ff" stroke="#63b8ff" points="331.23,-127.61 338.68,-120.08 328.16,-121.32 331.23,-127.61"/>
</a>
</g>
</g>
<!-- Node3&#45;&gt;Node4 -->
<g id="edge3_Node000003_Node000004" class="edge">
<title>Node3&#45;&gt;Node4</title>
<g id="a_edge3_Node000003_Node000004"><a xlink:title=" ">
<path fill="none" stroke="#63b8ff" d="M664.12,-187.82C723.59,-189.32 837.85,-186.24 925,-147.79 944.94,-139 963.48,-122.29 975.97,-109.23"/>
<polygon fill="#63b8ff" stroke="#63b8ff" points="978.08,-112.02 982.26,-102.29 972.92,-107.29 978.08,-112.02"/>
</a>
</g>
</g>
<!-- Node9 -->
<g id="Node000009" class="node">
<title>Node9</title>
<g id="a_Node000009"><a xlink:href="class_visa_device.html#aa807192fd9a8c3e6efc458f78de5e73e" target="_top" xlink:title="Метод, совмещающий в себе методы write() и read().">
<polygon fill="white" stroke="#666666" points="798.75,-138.79 704.75,-138.79 704.75,-118.79 798.75,-118.79 798.75,-138.79"/>
<text text-anchor="middle" x="751.75" y="-125.29" font-family="Helvetica,sans-Serif" font-size="10.00">VisaDevice::query</text>
</a>
</g>
</g>
<!-- Node3&#45;&gt;Node9 -->
<g id="edge8_Node000003_Node000009" class="edge">
<title>Node3&#45;&gt;Node9</title>
<g id="a_edge8_Node000003_Node000009"><a xlink:title=" ">
<path fill="none" stroke="#63b8ff" d="M647.45,-175.34C667.16,-166.46 695.67,-153.61 717.75,-143.66"/>
<polygon fill="#63b8ff" stroke="#63b8ff" points="719.02,-146.48 726.7,-139.18 716.14,-140.1 719.02,-146.48"/>
</a>
</g>
</g>
<!-- Node5 -->
<g id="Node000005" class="node">
<title>Node5</title>
<g id="a_Node000005"><a xlink:href="logger_8hpp.html#a49284b7befa8e31f81e01ee8f3735dd0" target="_top" xlink:title="Функция, которая снимает значение текущего времени и конвертирует его в строку с заданным шаблоном.">
<polygon fill="white" stroke="#666666" points="1166.62,-157.79 1077.88,-157.79 1077.88,-137.79 1166.62,-137.79 1166.62,-157.79"/>
<text text-anchor="middle" x="1122.25" y="-144.29" font-family="Helvetica,sans-Serif" font-size="10.00">get_current_time</text>
</a>
</g>
</g>
<!-- Node4&#45;&gt;Node5 -->
<g id="edge4_Node000004_Node000005" class="edge">
<title>Node4&#45;&gt;Node5</title>
<g id="a_edge4_Node000004_Node000005"><a xlink:title=" ">
<path fill="none" stroke="#63b8ff" d="M1010.02,-101.16C1023.3,-109.43 1042.85,-120.89 1061,-128.79 1065.07,-130.57 1069.36,-132.26 1073.7,-133.84"/>
<polygon fill="#63b8ff" stroke="#63b8ff" points="1072.24,-137.38 1082.84,-137.34 1074.53,-130.77 1072.24,-137.38"/>
</a>
</g>
</g>
<!-- Node6 -->
<g id="Node000006" class="node">
<title>Node6</title>
<g id="a_Node000006"><a xlink:href="class_logger.html#a6edb7b263f080d417b82a537ed50fee4" target="_top" xlink:title="Возвращает тег в зависимости от уровня логирования и от назначения тега.">
<polygon fill="white" stroke="#666666" points="1164,-119.79 1080.5,-119.79 1080.5,-99.79 1164,-99.79 1164,-119.79"/>
<text text-anchor="middle" x="1122.25" y="-106.29" font-family="Helvetica,sans-Serif" font-size="10.00">Logger::get_tag</text>
</a>
</g>
</g>
<!-- Node4&#45;&gt;Node6 -->
<g id="edge5_Node000004_Node000006" class="edge">
<title>Node4&#45;&gt;Node6</title>
<g id="a_edge5_Node000004_Node000006"><a xlink:title=" ">
<path fill="none" stroke="#63b8ff" d="M1025.46,-95.49C1038.72,-97.47 1054.52,-99.83 1069.42,-102.06"/>
<polygon fill="#63b8ff" stroke="#63b8ff" points="1068.66,-105.63 1079.07,-103.65 1069.69,-98.71 1068.66,-105.63"/>
</a>
</g>
</g>
<!-- Node7 -->
<g id="Node000007" class="node">
<title>Node7</title>
<g id="a_Node000007"><a xlink:href="class_logger.html#a4825613142ebb093bf8fa26f21f7f3fc" target="_top" xlink:title="Метод, который выводит сообщение в консоль.">
<polygon fill="white" stroke="#666666" points="1183.5,-81.79 1061,-81.79 1061,-61.79 1183.5,-61.79 1183.5,-81.79"/>
<text text-anchor="middle" x="1122.25" y="-68.29" font-family="Helvetica,sans-Serif" font-size="10.00">Logger::print_to_console</text>
</a>
</g>
</g>
<!-- Node4&#45;&gt;Node7 -->
<g id="edge6_Node000004_Node000007" class="edge">
<title>Node4&#45;&gt;Node7</title>
<g id="a_edge6_Node000004_Node000007"><a xlink:title=" ">
<path fill="none" stroke="#63b8ff" d="M1025.46,-86.1C1032.96,-84.98 1041.27,-83.74 1049.78,-82.47"/>
<polygon fill="#63b8ff" stroke="#63b8ff" points="1050.23,-85.79 1059.6,-80.85 1049.19,-78.87 1050.23,-85.79"/>
</a>
</g>
</g>
<!-- Node8 -->
<g id="Node000008" class="node">
<title>Node8</title>
<g id="a_Node000008"><a xlink:href="class_logger.html#a999bb33f7cf079cb98f32fae6016a2f3" target="_top" xlink:title="Метод, который записывает сообщение в файл.">
<polygon fill="white" stroke="#666666" points="1172.62,-43.79 1071.88,-43.79 1071.88,-23.79 1172.62,-23.79 1172.62,-43.79"/>
<text text-anchor="middle" x="1122.25" y="-30.29" font-family="Helvetica,sans-Serif" font-size="10.00">Logger::print_to_file</text>
</a>
</g>
</g>
<!-- Node4&#45;&gt;Node8 -->
<g id="edge7_Node000004_Node000008" class="edge">
<title>Node4&#45;&gt;Node8</title>
<g id="a_edge7_Node000004_Node000008"><a xlink:title=" ">
<path fill="none" stroke="#63b8ff" d="M1010.02,-80.43C1023.3,-72.16 1042.85,-60.7 1061,-52.79 1065.07,-51.02 1069.36,-49.33 1073.7,-47.75"/>
<polygon fill="#63b8ff" stroke="#63b8ff" points="1074.53,-50.82 1082.84,-44.24 1072.24,-44.2 1074.53,-50.82"/>
</a>
</g>
</g>
<!-- Node10 -->
<g id="Node000010" class="node">
<title>Node10</title>
<g id="a_Node000010"><a xlink:href="class_visa_device.html#aca08d9dbb0469f1143668a485e4adfe2" target="_top" xlink:title="Метод, позволяющий считать данные с устройства">
<polygon fill="white" stroke="#666666" points="924.25,-138.79 835.5,-138.79 835.5,-118.79 924.25,-118.79 924.25,-138.79"/>
<text text-anchor="middle" x="879.88" y="-125.29" font-family="Helvetica,sans-Serif" font-size="10.00">VisaDevice::read</text>
</a>
</g>
</g>
<!-- Node9&#45;&gt;Node10 -->
<g id="edge9_Node000009_Node000010" class="edge">
<title>Node9&#45;&gt;Node10</title>
<g id="a_edge9_Node000009_Node000010"><a xlink:title=" ">
<path fill="none" stroke="#63b8ff" d="M799,-128.79C807.21,-128.79 815.83,-128.79 824.25,-128.79"/>
<polygon fill="#63b8ff" stroke="#63b8ff" points="824.15,-132.29 834.15,-128.79 824.15,-125.29 824.15,-132.29"/>
</a>
</g>
</g>
<!-- Node11 -->
<g id="Node000011" class="node">
<title>Node11</title>
<g id="a_Node000011"><a xlink:href="class_visa_device.html#a29202c3f5e47326386d1d27972e25267" target="_top" xlink:title="Метод, позволяющий отправить команду на устройство">
<polygon fill="white" stroke="#666666" points="925,-100.79 834.75,-100.79 834.75,-80.79 925,-80.79 925,-100.79"/>
<text text-anchor="middle" x="879.88" y="-87.29" font-family="Helvetica,sans-Serif" font-size="10.00">VisaDevice::write</text>
</a>
</g>
</g>
<!-- Node9&#45;&gt;Node11 -->
<g id="edge11_Node000009_Node000011" class="edge">
<title>Node9&#45;&gt;Node11</title>
<g id="a_edge11_Node000009_Node000011"><a xlink:title=" ">
<path fill="none" stroke="#63b8ff" d="M787.55,-118.31C801.88,-113.99 818.68,-108.93 833.93,-104.34"/>
<polygon fill="#63b8ff" stroke="#63b8ff" points="834.63,-107.48 843.19,-101.24 832.61,-100.78 834.63,-107.48"/>
</a>
</g>
</g>
<!-- Node10&#45;&gt;Node4 -->
<g id="edge10_Node000010_Node000004" class="edge">
<title>Node10&#45;&gt;Node4</title>
<g id="a_edge10_Node000010_Node000004"><a xlink:title=" ">
<path fill="none" stroke="#63b8ff" d="M911.53,-118.31C923.8,-114.12 938.11,-109.22 951.23,-104.73"/>
<polygon fill="#63b8ff" stroke="#63b8ff" points="952.11,-107.79 960.44,-101.24 949.85,-101.17 952.11,-107.79"/>
</a>
</g>
</g>
<!-- Node11&#45;&gt;Node4 -->
<g id="edge12_Node000011_Node000004" class="edge">
<title>Node11&#45;&gt;Node4</title>
<g id="a_edge12_Node000011_Node000004"><a xlink:title=" ">
<path fill="none" stroke="#63b8ff" d="M925.43,-90.79C933.48,-90.79 941.84,-90.79 949.82,-90.79"/>
<polygon fill="#63b8ff" stroke="#63b8ff" points="949.75,-94.29 959.75,-90.79 949.75,-87.29 949.75,-94.29"/>
</a>
</g>
</g>
<!-- Node13 -->
<g id="Node000013" class="node">
<title>Node13</title>
<g id="a_Node000013"><a xlink:href="class_visa_device.html#ad659ba652605f5c983958400fde8c808" target="_top" xlink:title="Отправка данных на прибор и чтение ответа от прибора.">
<polygon fill="white" stroke="#666666" points="668.75,-119.79 577.75,-119.79 577.75,-99.79 668.75,-99.79 668.75,-119.79"/>
<text text-anchor="middle" x="623.25" y="-106.29" font-family="Helvetica,sans-Serif" font-size="10.00">VisaDevice::send</text>
</a>
</g>
</g>
<!-- Node12&#45;&gt;Node13 -->
<g id="edge15_Node000012_Node000013" class="edge">
<title>Node12&#45;&gt;Node13</title>
<g id="a_edge15_Node000012_Node000013"><a xlink:title=" ">
<path fill="none" stroke="#63b8ff" d="M418.74,-109.79C462.46,-109.79 522.92,-109.79 566.57,-109.79"/>
<polygon fill="#63b8ff" stroke="#63b8ff" points="566.56,-113.29 576.56,-109.79 566.56,-106.29 566.56,-113.29"/>
</a>
</g>
</g>
<!-- Node14 -->
<g id="Node000014" class="node">
<title>Node14</title>
<g id="a_Node000014"><a xlink:href="class_visa_device.html#ab1f5c0b110fca770dbd5be069453ea82" target="_top" xlink:title="Ожидание завершения выполнения команды.">
<polygon fill="white" stroke="#666666" points="541.75,-43.79 454.5,-43.79 454.5,-23.79 541.75,-23.79 541.75,-43.79"/>
<text text-anchor="middle" x="498.12" y="-30.29" font-family="Helvetica,sans-Serif" font-size="10.00">VisaDevice::wait</text>
</a>
</g>
</g>
<!-- Node12&#45;&gt;Node14 -->
<g id="edge20_Node000012_Node000014" class="edge">
<title>Node12&#45;&gt;Node14</title>
<g id="a_edge20_Node000012_Node000014"><a xlink:title=" ">
<path fill="none" stroke="#63b8ff" d="M381.15,-99.39C403.97,-86.48 443.07,-64.36 469.5,-49.42"/>
<polygon fill="#63b8ff" stroke="#63b8ff" points="470.96,-52.05 477.94,-44.08 467.52,-45.95 470.96,-52.05"/>
</a>
</g>
</g>
<!-- Node13&#45;&gt;Node4 -->
<g id="edge16_Node000013_Node000004" class="edge">
<title>Node13&#45;&gt;Node4</title>
<g id="a_edge16_Node000013_Node000004"><a xlink:title=" ">
<path fill="none" stroke="#63b8ff" d="M659.48,-99.3C715.68,-83.92 829.09,-58.46 925,-71.79 933.77,-73.01 943,-75.09 951.72,-77.43"/>
<polygon fill="#63b8ff" stroke="#63b8ff" points="950.45,-81 961.03,-80.38 952.38,-74.27 950.45,-81"/>
</a>
</g>
</g>
<!-- Node13&#45;&gt;Node9 -->
<g id="edge17_Node000013_Node000009" class="edge">
<title>Node13&#45;&gt;Node9</title>
<g id="a_edge17_Node000013_Node000009"><a xlink:title=" ">
<path fill="none" stroke="#63b8ff" d="M669.21,-116.55C677.2,-117.75 685.63,-119.01 693.91,-120.26"/>
<polygon fill="#63b8ff" stroke="#63b8ff" points="693.25,-123.85 703.66,-121.87 694.29,-116.93 693.25,-123.85"/>
</a>
</g>
</g>
<!-- Node13&#45;&gt;Node10 -->
<g id="edge18_Node000013_Node000010" class="edge">
<title>Node13&#45;&gt;Node10</title>
<g id="a_edge18_Node000013_Node000010"><a xlink:title=" ">
<path fill="none" stroke="#63b8ff" d="M640.73,-120.25C656.48,-129.56 681.22,-142.52 704.75,-147.79 747.91,-157.47 798.24,-150.02 833.65,-141.78"/>
<polygon fill="#63b8ff" stroke="#63b8ff" points="834.26,-144.99 843.14,-139.21 832.6,-138.19 834.26,-144.99"/>
</a>
</g>
</g>
<!-- Node13&#45;&gt;Node11 -->
<g id="edge19_Node000013_Node000011" class="edge">
<title>Node13&#45;&gt;Node11</title>
<g id="a_edge19_Node000013_Node000011"><a xlink:title=" ">
<path fill="none" stroke="#63b8ff" d="M669.19,-106.44C712.27,-103.23 777.42,-98.36 823.66,-94.91"/>
<polygon fill="#63b8ff" stroke="#63b8ff" points="823.68,-98.35 833.39,-94.11 823.16,-91.37 823.68,-98.35"/>
</a>
</g>
</g>
<!-- Node14&#45;&gt;Node4 -->
<g id="edge21_Node000014_Node000004" class="edge">
<title>Node14&#45;&gt;Node4</title>
<g id="a_edge21_Node000014_Node000004"><a xlink:title=" ">
<path fill="none" stroke="#63b8ff" d="M534.42,-23.38C547.85,-19.92 563.39,-16.51 577.75,-14.79 731.5,3.52 780.38,12.51 925,-42.79 943.03,-49.69 960.66,-62.64 973.3,-73.36"/>
<polygon fill="#63b8ff" stroke="#63b8ff" points="970.39,-75.33 980.21,-79.31 975.01,-70.08 970.39,-75.33"/>
</a>
</g>
</g>
<!-- Node15 -->
<g id="Node000015" class="node">
<title>Node15</title>
<g id="a_Node000015"><a xlink:href="class_visa_device.html#a70a6c6ace7c5841db420c1e112782a53" target="_top" xlink:title="Отправляет команду &quot;*OPC?&quot; на подключенное устройство, ожидает ответ и, в зависимости от полученного ...">
<polygon fill="white" stroke="#666666" points="666.12,-43.79 580.38,-43.79 580.38,-23.79 666.12,-23.79 666.12,-43.79"/>
<text text-anchor="middle" x="623.25" y="-30.29" font-family="Helvetica,sans-Serif" font-size="10.00">VisaDevice::opc</text>
</a>
</g>
</g>
<!-- Node14&#45;&gt;Node15 -->
<g id="edge22_Node000014_Node000015" class="edge">
<title>Node14&#45;&gt;Node15</title>
<g id="a_edge22_Node000014_Node000015"><a xlink:title=" ">
<path fill="none" stroke="#63b8ff" d="M542.19,-33.79C550.96,-33.79 560.29,-33.79 569.36,-33.79"/>
<polygon fill="#63b8ff" stroke="#63b8ff" points="569.25,-37.29 579.25,-33.79 569.25,-30.29 569.25,-37.29"/>
</a>
</g>
</g>
<!-- Node15&#45;&gt;Node4 -->
<g id="edge23_Node000015_Node000004" class="edge">
<title>Node15&#45;&gt;Node4</title>
<g id="a_edge23_Node000015_Node000004"><a xlink:title=" ">
<path fill="none" stroke="#63b8ff" d="M666.23,-34.25C724.95,-35.73 834.56,-41.54 925,-63.79 936.9,-66.72 949.49,-71.35 960.49,-75.96"/>
<polygon fill="#63b8ff" stroke="#63b8ff" points="958.93,-79.53 969.49,-80.31 961.72,-73.11 958.93,-79.53"/>
</a>
</g>
</g>
<!-- Node15&#45;&gt;Node9 -->
<g id="edge24_Node000015_Node000009" class="edge">
<title>Node15&#45;&gt;Node9</title>
<g id="a_edge24_Node000015_Node000009"><a xlink:title=" ">
<path fill="none" stroke="#63b8ff" d="M637.79,-43.96C659.45,-60.23 702.14,-92.29 728.39,-112"/>
<polygon fill="#63b8ff" stroke="#63b8ff" points="725.83,-115.21 735.93,-118.41 730.03,-109.61 725.83,-115.21"/>
</a>
</g>
</g>
</g>
</svg>
