<?xml version="1.0" encoding="UTF-8" standalone="no"?>
<!DOCTYPE svg PUBLIC "-//W3C//DTD SVG 1.1//EN"
 "http://www.w3.org/Graphics/SVG/1.1/DTD/svg11.dtd">
<!-- Generated by graphviz version 8.0.5 (20230430.1635)
 -->
<!-- Title: KeysightGen::get_current_freq Pages: 1 -->
<svg width="798pt" height="142pt"
 viewBox="0.00 0.00 797.75 142.00" xmlns="http://www.w3.org/2000/svg" xmlns:xlink="http://www.w3.org/1999/xlink">
<g id="graph0" class="graph" transform="scale(1 1) rotate(0) translate(4 138)">
<title>KeysightGen::get_current_freq</title>
<!-- Node1 -->
<g id="Node000001" class="node">
<title>Node1</title>
<g id="a_Node000001"><a xlink:title=" ">
<polygon fill="#999999" stroke="#666666" points="148,-58 0,-58 0,-38 148,-38 148,-58"/>
<text text-anchor="middle" x="74" y="-44.5" font-family="Helvetica,sans-Serif" font-size="10.00">KeysightGen::get_current_freq</text>
</a>
</g>
</g>
<!-- Node2 -->
<g id="Node000002" class="node">
<title>Node2</title>
<g id="a_Node000002"><a xlink:href="class_visa_device.html#ad659ba652605f5c983958400fde8c808" target="_top" xlink:title=" ">
<polygon fill="white" stroke="#666666" points="275,-58 184,-58 184,-38 275,-38 275,-58"/>
<text text-anchor="middle" x="229.5" y="-44.5" font-family="Helvetica,sans-Serif" font-size="10.00">VisaDevice::send</text>
</a>
</g>
</g>
<!-- Node1&#45;&gt;Node2 -->
<g id="edge1_Node000001_Node000002" class="edge">
<title>Node1&#45;&gt;Node2</title>
<g id="a_edge1_Node000001_Node000002"><a xlink:title=" ">
<path fill="none" stroke="#63b8ff" d="M148.15,-48C156.54,-48 164.99,-48 173.09,-48"/>
<polygon fill="#63b8ff" stroke="#63b8ff" points="172.88,-51.5 182.88,-48 172.88,-44.5 172.88,-51.5"/>
</a>
</g>
</g>
<!-- Node3 -->
<g id="Node000003" class="node">
<title>Node3</title>
<g id="a_Node000003"><a xlink:href="class_logger.html#af7709105c2708359b7b082218f4cc3e1" target="_top" xlink:title="Функция, осуществляющая логирование">
<polygon fill="white" stroke="#666666" points="631.25,-77 567.25,-77 567.25,-57 631.25,-57 631.25,-77"/>
<text text-anchor="middle" x="599.25" y="-63.5" font-family="Helvetica,sans-Serif" font-size="10.00">Logger::log</text>
</a>
</g>
</g>
<!-- Node2&#45;&gt;Node3 -->
<g id="edge2_Node000002_Node000003" class="edge">
<title>Node2&#45;&gt;Node3</title>
<g id="a_edge2_Node000002_Node000003"><a xlink:title=" ">
<path fill="none" stroke="#63b8ff" d="M262.33,-58.39C277.01,-62.85 294.75,-67.76 311,-71 407.23,-90.16 434.07,-99.51 531.25,-86 540.02,-84.78 549.25,-82.7 557.97,-80.36"/>
<polygon fill="#63b8ff" stroke="#63b8ff" points="558.63,-83.53 567.28,-77.41 556.7,-76.8 558.63,-83.53"/>
</a>
</g>
</g>
<!-- Node8 -->
<g id="Node000008" class="node">
<title>Node8</title>
<g id="a_Node000008"><a xlink:href="class_visa_device.html#aa807192fd9a8c3e6efc458f78de5e73e" target="_top" xlink:title=" ">
<polygon fill="white" stroke="#666666" points="405,-39 311,-39 311,-19 405,-19 405,-39"/>
<text text-anchor="middle" x="358" y="-25.5" font-family="Helvetica,sans-Serif" font-size="10.00">VisaDevice::query</text>
</a>
</g>
</g>
<!-- Node2&#45;&gt;Node8 -->
<g id="edge7_Node000002_Node000008" class="edge">
<title>Node2&#45;&gt;Node8</title>
<g id="a_edge7_Node000002_Node000008"><a xlink:title=" ">
<path fill="none" stroke="#63b8ff" d="M275.46,-41.25C283.45,-40.05 291.88,-38.78 300.16,-37.54"/>
<polygon fill="#63b8ff" stroke="#63b8ff" points="300.54,-40.87 309.91,-35.92 299.5,-33.95 300.54,-40.87"/>
</a>
</g>
</g>
<!-- Node9 -->
<g id="Node000009" class="node">
<title>Node9</title>
<g id="a_Node000009"><a xlink:href="class_visa_device.html#aca08d9dbb0469f1143668a485e4adfe2" target="_top" xlink:title=" ">
<polygon fill="white" stroke="#666666" points="530.5,-77 441.75,-77 441.75,-57 530.5,-57 530.5,-77"/>
<text text-anchor="middle" x="486.12" y="-63.5" font-family="Helvetica,sans-Serif" font-size="10.00">VisaDevice::read</text>
</a>
</g>
</g>
<!-- Node2&#45;&gt;Node9 -->
<g id="edge12_Node000002_Node000009" class="edge">
<title>Node2&#45;&gt;Node9</title>
<g id="a_edge12_Node000002_Node000009"><a xlink:title=" ">
<path fill="none" stroke="#63b8ff" d="M275.44,-51.35C318.79,-54.59 384.47,-59.49 430.75,-62.94"/>
<polygon fill="#63b8ff" stroke="#63b8ff" points="430.26,-66.49 440.49,-63.74 430.78,-59.51 430.26,-66.49"/>
</a>
</g>
</g>
<!-- Node10 -->
<g id="Node000010" class="node">
<title>Node10</title>
<g id="a_Node000010"><a xlink:href="class_visa_device.html#a29202c3f5e47326386d1d27972e25267" target="_top" xlink:title=" ">
<polygon fill="white" stroke="#666666" points="531.25,-39 441,-39 441,-19 531.25,-19 531.25,-39"/>
<text text-anchor="middle" x="486.12" y="-25.5" font-family="Helvetica,sans-Serif" font-size="10.00">VisaDevice::write</text>
</a>
</g>
</g>
<!-- Node2&#45;&gt;Node10 -->
<g id="edge13_Node000002_Node000010" class="edge">
<title>Node2&#45;&gt;Node10</title>
<g id="a_edge13_Node000002_Node000010"><a xlink:title=" ">
<path fill="none" stroke="#63b8ff" d="M246.98,-37.55C262.73,-28.23 287.47,-15.27 311,-10 354.16,-0.32 404.49,-7.78 439.9,-16.02"/>
<polygon fill="#63b8ff" stroke="#63b8ff" points="438.85,-19.61 449.39,-18.58 440.51,-12.81 438.85,-19.61"/>
</a>
</g>
</g>
<!-- Node4 -->
<g id="Node000004" class="node">
<title>Node4</title>
<g id="a_Node000004"><a xlink:href="logger_8hpp.html#a49284b7befa8e31f81e01ee8f3735dd0" target="_top" xlink:title="Функция, которая снимает значение текущего времени и конвертирует его в строку с заданным шаблоном.">
<polygon fill="white" stroke="#666666" points="772.88,-134 684.12,-134 684.12,-114 772.88,-114 772.88,-134"/>
<text text-anchor="middle" x="728.5" y="-120.5" font-family="Helvetica,sans-Serif" font-size="10.00">get_current_time</text>
</a>
</g>
</g>
<!-- Node3&#45;&gt;Node4 -->
<g id="edge3_Node000003_Node000004" class="edge">
<title>Node3&#45;&gt;Node4</title>
<g id="a_edge3_Node000003_Node000004"><a xlink:title=" ">
<path fill="none" stroke="#63b8ff" d="M616.27,-77.36C629.55,-85.63 649.1,-97.1 667.25,-105 671.32,-106.77 675.61,-108.46 679.95,-110.05"/>
<polygon fill="#63b8ff" stroke="#63b8ff" points="678.49,-113.59 689.09,-113.55 680.78,-106.97 678.49,-113.59"/>
</a>
</g>
</g>
<!-- Node5 -->
<g id="Node000005" class="node">
<title>Node5</title>
<g id="a_Node000005"><a xlink:href="class_logger.html#a6edb7b263f080d417b82a537ed50fee4" target="_top" xlink:title="Функция, возвращающая тег в зависимости от уровня логирования и от назначения тега.">
<polygon fill="white" stroke="#666666" points="770.25,-96 686.75,-96 686.75,-76 770.25,-76 770.25,-96"/>
<text text-anchor="middle" x="728.5" y="-82.5" font-family="Helvetica,sans-Serif" font-size="10.00">Logger::get_tag</text>
</a>
</g>
</g>
<!-- Node3&#45;&gt;Node5 -->
<g id="edge4_Node000003_Node000005" class="edge">
<title>Node3&#45;&gt;Node5</title>
<g id="a_edge4_Node000003_Node000005"><a xlink:title=" ">
<path fill="none" stroke="#63b8ff" d="M631.71,-71.7C644.97,-73.68 660.77,-76.04 675.67,-78.26"/>
<polygon fill="#63b8ff" stroke="#63b8ff" points="674.91,-81.84 685.32,-79.85 675.94,-74.91 674.91,-81.84"/>
</a>
</g>
</g>
<!-- Node6 -->
<g id="Node000006" class="node">
<title>Node6</title>
<g id="a_Node000006"><a xlink:href="class_logger.html#a4825613142ebb093bf8fa26f21f7f3fc" target="_top" xlink:title="Функция, которая выводит сообщение в консоль.">
<polygon fill="white" stroke="#666666" points="789.75,-58 667.25,-58 667.25,-38 789.75,-38 789.75,-58"/>
<text text-anchor="middle" x="728.5" y="-44.5" font-family="Helvetica,sans-Serif" font-size="10.00">Logger::print_to_console</text>
</a>
</g>
</g>
<!-- Node3&#45;&gt;Node6 -->
<g id="edge5_Node000003_Node000006" class="edge">
<title>Node3&#45;&gt;Node6</title>
<g id="a_edge5_Node000003_Node000006"><a xlink:title=" ">
<path fill="none" stroke="#63b8ff" d="M631.71,-62.3C639.21,-61.18 647.52,-59.94 656.03,-58.67"/>
<polygon fill="#63b8ff" stroke="#63b8ff" points="656.48,-61.99 665.85,-57.06 655.44,-55.07 656.48,-61.99"/>
</a>
</g>
</g>
<!-- Node7 -->
<g id="Node000007" class="node">
<title>Node7</title>
<g id="a_Node000007"><a xlink:href="class_logger.html#a999bb33f7cf079cb98f32fae6016a2f3" target="_top" xlink:title="Функция, которая записывает сообщение в файл.">
<polygon fill="white" stroke="#666666" points="778.88,-20 678.12,-20 678.12,0 778.88,0 778.88,-20"/>
<text text-anchor="middle" x="728.5" y="-6.5" font-family="Helvetica,sans-Serif" font-size="10.00">Logger::print_to_file</text>
</a>
</g>
</g>
<!-- Node3&#45;&gt;Node7 -->
<g id="edge6_Node000003_Node000007" class="edge">
<title>Node3&#45;&gt;Node7</title>
<g id="a_edge6_Node000003_Node000007"><a xlink:title=" ">
<path fill="none" stroke="#63b8ff" d="M616.27,-56.64C629.55,-48.37 649.1,-36.9 667.25,-29 671.32,-27.23 675.61,-25.54 679.95,-23.95"/>
<polygon fill="#63b8ff" stroke="#63b8ff" points="680.78,-27.03 689.09,-20.45 678.49,-20.41 680.78,-27.03"/>
</a>
</g>
</g>
<!-- Node8&#45;&gt;Node9 -->
<g id="edge8_Node000008_Node000009" class="edge">
<title>Node8&#45;&gt;Node9</title>
<g id="a_edge8_Node000008_Node000009"><a xlink:title=" ">
<path fill="none" stroke="#63b8ff" d="M393.8,-39.48C408.13,-43.8 424.93,-48.86 440.18,-53.46"/>
<polygon fill="#63b8ff" stroke="#63b8ff" points="438.86,-57.02 449.44,-56.55 440.88,-50.31 438.86,-57.02"/>
</a>
</g>
</g>
<!-- Node8&#45;&gt;Node10 -->
<g id="edge10_Node000008_Node000010" class="edge">
<title>Node8&#45;&gt;Node10</title>
<g id="a_edge10_Node000008_Node000010"><a xlink:title=" ">
<path fill="none" stroke="#63b8ff" d="M405.25,-29C413.17,-29 421.48,-29 429.62,-29"/>
<polygon fill="#63b8ff" stroke="#63b8ff" points="429.56,-32.5 439.56,-29 429.56,-25.5 429.56,-32.5"/>
</a>
</g>
</g>
<!-- Node9&#45;&gt;Node3 -->
<g id="edge9_Node000009_Node000003" class="edge">
<title>Node9&#45;&gt;Node3</title>
<g id="a_edge9_Node000009_Node000003"><a xlink:title=" ">
<path fill="none" stroke="#63b8ff" d="M530.73,-67C539,-67 547.65,-67 555.89,-67"/>
<polygon fill="#63b8ff" stroke="#63b8ff" points="555.79,-70.5 565.79,-67 555.79,-63.5 555.79,-70.5"/>
</a>
</g>
</g>
<!-- Node10&#45;&gt;Node3 -->
<g id="edge11_Node000010_Node000003" class="edge">
<title>Node10&#45;&gt;Node3</title>
<g id="a_edge11_Node000010_Node000003"><a xlink:title=" ">
<path fill="none" stroke="#63b8ff" d="M517.78,-39.48C530.05,-43.68 544.36,-48.57 557.48,-53.06"/>
<polygon fill="#63b8ff" stroke="#63b8ff" points="556.1,-56.63 566.69,-56.55 558.36,-50 556.1,-56.63"/>
</a>
</g>
</g>
</g>
</svg>
