<?xml version="1.0" encoding="UTF-8" standalone="no"?>
<!DOCTYPE svg PUBLIC "-//W3C//DTD SVG 1.1//EN"
 "http://www.w3.org/Graphics/SVG/1.1/DTD/svg11.dtd">
<!-- Generated by graphviz version 8.0.5 (20230430.1635)
 -->
<!-- Title: VisaDevice::send_wait Pages: 1 -->
<svg width="459pt" height="570pt"
 viewBox="0.00 0.00 458.75 570.00" xmlns="http://www.w3.org/2000/svg" xmlns:xlink="http://www.w3.org/1999/xlink">
<g id="graph0" class="graph" transform="scale(1 1) rotate(0) translate(4 566)">
<title>VisaDevice::send_wait</title>
<!-- Node1 -->
<g id="Node000001" class="node">
<title>Node1</title>
<g id="a_Node000001"><a xlink:title="Отправка данных на прибор и чтение ответа от прибора. Также, ожидается завершение выполнения действий...">
<polygon fill="#999999" stroke="#666666" points="450.75,-367 337.25,-367 337.25,-347 450.75,-347 450.75,-367"/>
<text text-anchor="middle" x="394" y="-353.5" font-family="Helvetica,sans-Serif" font-size="10.00">VisaDevice::send_wait</text>
</a>
</g>
</g>
<!-- Node2 -->
<g id="Node000002" class="node">
<title>Node2</title>
<g id="a_Node000002"><a xlink:href="class_keysight_gen.html#a8bbdbb1eba9f85c5e9efa9bd5df0313f" target="_top" xlink:title=" ">
<polygon fill="white" stroke="#666666" points="293.38,-505 179.12,-505 179.12,-473 293.38,-473 293.38,-505"/>
<text text-anchor="start" x="187.12" y="-491.5" font-family="Helvetica,sans-Serif" font-size="10.00">KeysightGen::move_to</text>
<text text-anchor="middle" x="236.25" y="-479.5" font-family="Helvetica,sans-Serif" font-size="10.00">_start_freq</text>
</a>
</g>
</g>
<!-- Node1&#45;&gt;Node2 -->
<g id="edge1_Node000001_Node000002" class="edge">
<title>Node1&#45;&gt;Node2</title>
<g id="a_edge1_Node000001_Node000002"><a xlink:title=" ">
<path fill="none" stroke="#63b8ff" d="M380.8,-376.34C365.02,-399.94 335.47,-439.71 301.25,-464 296.78,-467.18 291.84,-470.02 286.76,-472.54"/>
<polygon fill="#63b8ff" stroke="#63b8ff" points="384.16,-378.59 386.69,-368.3 378.29,-374.77 384.16,-378.59"/>
</a>
</g>
</g>
<!-- Node3 -->
<g id="Node000003" class="node">
<title>Node3</title>
<g id="a_Node000003"><a xlink:href="class_keysight_gen.html#a7e1a018b3518d03e94504b48ea444b6f" target="_top" xlink:title=" ">
<polygon fill="white" stroke="#666666" points="293.38,-455 179.12,-455 179.12,-423 293.38,-423 293.38,-455"/>
<text text-anchor="start" x="187.12" y="-441.5" font-family="Helvetica,sans-Serif" font-size="10.00">KeysightGen::move_to</text>
<text text-anchor="middle" x="236.25" y="-429.5" font-family="Helvetica,sans-Serif" font-size="10.00">_stop_freq</text>
</a>
</g>
</g>
<!-- Node1&#45;&gt;Node3 -->
<g id="edge2_Node000001_Node000003" class="edge">
<title>Node1&#45;&gt;Node3</title>
<g id="a_edge2_Node000001_Node000003"><a xlink:title=" ">
<path fill="none" stroke="#63b8ff" d="M369.51,-373.26C351.38,-385.41 325.38,-401.92 301.25,-414 295.28,-416.99 288.85,-419.87 282.46,-422.54"/>
<polygon fill="#63b8ff" stroke="#63b8ff" points="370.92,-375.87 377.23,-367.36 366.99,-370.07 370.92,-375.87"/>
</a>
</g>
</g>
<!-- Node4 -->
<g id="Node000004" class="node">
<title>Node4</title>
<g id="a_Node000004"><a xlink:href="class_keysight_gen.html#a218a478d0600e3fc2985adf86a049435" target="_top" xlink:title=" ">
<polygon fill="white" stroke="#666666" points="295.25,-405 177.25,-405 177.25,-385 295.25,-385 295.25,-405"/>
<text text-anchor="middle" x="236.25" y="-391.5" font-family="Helvetica,sans-Serif" font-size="10.00">KeysightGen::next_freq</text>
</a>
</g>
</g>
<!-- Node1&#45;&gt;Node4 -->
<g id="edge3_Node000001_Node000004" class="edge">
<title>Node1&#45;&gt;Node4</title>
<g id="a_edge3_Node000001_Node000004"><a xlink:title=" ">
<path fill="none" stroke="#63b8ff" d="M339.51,-370.05C320.11,-374.78 298.45,-380.07 280.08,-384.55"/>
<polygon fill="#63b8ff" stroke="#63b8ff" points="340.14,-373.25 349.03,-367.48 338.48,-366.45 340.14,-373.25"/>
</a>
</g>
</g>
<!-- Node5 -->
<g id="Node000005" class="node">
<title>Node5</title>
<g id="a_Node000005"><a xlink:href="class_keysight_gen.html#aa243d66cc8ba6c1d87359f4db4f371ac" target="_top" xlink:title=" ">
<polygon fill="white" stroke="#666666" points="294.5,-367 178,-367 178,-347 294.5,-347 294.5,-367"/>
<text text-anchor="middle" x="236.25" y="-353.5" font-family="Helvetica,sans-Serif" font-size="10.00">KeysightGen::prev_freq</text>
</a>
</g>
</g>
<!-- Node1&#45;&gt;Node5 -->
<g id="edge4_Node000001_Node000005" class="edge">
<title>Node1&#45;&gt;Node5</title>
<g id="a_edge4_Node000001_Node000005"><a xlink:title=" ">
<path fill="none" stroke="#63b8ff" d="M325.77,-357C315.51,-357 305,-357 294.97,-357"/>
<polygon fill="#63b8ff" stroke="#63b8ff" points="325.77,-360.5 335.77,-357 325.77,-353.5 325.77,-360.5"/>
</a>
</g>
</g>
<!-- Node6 -->
<g id="Node000006" class="node">
<title>Node6</title>
<g id="a_Node000006"><a xlink:href="class_visa_device.html#aff290be3fb61e9679a548aafc571985d" target="_top" xlink:title="Отправка данных на прибор и чтение ответа от прибора. Также, ожидается завершение выполнения действий...">
<polygon fill="white" stroke="#666666" points="293,-329 179.5,-329 179.5,-309 293,-309 293,-329"/>
<text text-anchor="middle" x="236.25" y="-315.5" font-family="Helvetica,sans-Serif" font-size="10.00">VisaDevice::send_wait</text>
</a>
</g>
</g>
<!-- Node1&#45;&gt;Node6 -->
<g id="edge5_Node000001_Node000006" class="edge">
<title>Node1&#45;&gt;Node6</title>
<g id="a_edge5_Node000001_Node000006"><a xlink:title=" ">
<path fill="none" stroke="#63b8ff" d="M339.51,-343.95C320.11,-339.22 298.45,-333.93 280.08,-329.45"/>
<polygon fill="#63b8ff" stroke="#63b8ff" points="338.48,-347.55 349.03,-346.52 340.14,-340.75 338.48,-347.55"/>
</a>
</g>
</g>
<!-- Node7 -->
<g id="Node000007" class="node">
<title>Node7</title>
<g id="a_Node000007"><a xlink:href="class_visa_device.html#a069e154c5f48779dfd908146db9e66ed" target="_top" xlink:title="Отправка данных на прибор и чтение ответа от прибора. Также, ожидается завершение выполнения действий...">
<polygon fill="white" stroke="#666666" points="301.25,-291 171.25,-291 171.25,-271 301.25,-271 301.25,-291"/>
<text text-anchor="middle" x="236.25" y="-277.5" font-family="Helvetica,sans-Serif" font-size="10.00">VisaDevice::send_wait_err</text>
</a>
</g>
</g>
<!-- Node1&#45;&gt;Node7 -->
<g id="edge6_Node000001_Node000007" class="edge">
<title>Node1&#45;&gt;Node7</title>
<g id="a_edge6_Node000001_Node000007"><a xlink:title=" ">
<path fill="none" stroke="#63b8ff" d="M370.43,-340.59C352.42,-328.09 326.16,-311.19 301.25,-300 294.06,-296.77 286.18,-293.92 278.47,-291.46"/>
<polygon fill="#63b8ff" stroke="#63b8ff" points="367.86,-343.76 378.05,-346.67 371.89,-338.04 367.86,-343.76"/>
</a>
</g>
</g>
<!-- Node22 -->
<g id="Node000022" class="node">
<title>Node22</title>
<g id="a_Node000022"><a xlink:href="class_keysight_gen.html#aada9855525b00c8b30b9f27baa216464" target="_top" xlink:title=" ">
<polygon fill="white" stroke="#666666" points="292.62,-253 179.88,-253 179.88,-233 292.62,-233 292.62,-253"/>
<text text-anchor="middle" x="236.25" y="-239.5" font-family="Helvetica,sans-Serif" font-size="10.00">KeysightGen::set_freq</text>
</a>
</g>
</g>
<!-- Node1&#45;&gt;Node22 -->
<g id="edge21_Node000001_Node000022" class="edge">
<title>Node1&#45;&gt;Node22</title>
<g id="a_edge21_Node000001_Node000022"><a xlink:title=" ">
<path fill="none" stroke="#63b8ff" d="M379.64,-338.17C363.44,-316.71 334.2,-282.01 301.25,-262 295.6,-258.57 289.3,-255.73 282.91,-253.38"/>
<polygon fill="#63b8ff" stroke="#63b8ff" points="377.19,-339.76 385.94,-345.74 382.83,-335.61 377.19,-339.76"/>
</a>
</g>
</g>
<!-- Node8 -->
<g id="Node000008" class="node">
<title>Node8</title>
<g id="a_Node000008"><a xlink:href="class_keysight_m9807_a.html#a85c78a42ccfda3bb9b69cb60b79358f4" target="_top" xlink:title="Настройка ВАЦ для измерения">
<polygon fill="white" stroke="#666666" points="135.25,-562 0,-562 0,-542 135.25,-542 135.25,-562"/>
<text text-anchor="middle" x="67.62" y="-548.5" font-family="Helvetica,sans-Serif" font-size="10.00">KeysightM9807A::configure</text>
</a>
</g>
</g>
<!-- Node7&#45;&gt;Node8 -->
<g id="edge7_Node000007_Node000008" class="edge">
<title>Node7&#45;&gt;Node8</title>
<g id="a_edge7_Node000007_Node000008"><a xlink:title=" ">
<path fill="none" stroke="#63b8ff" d="M172.98,-298.15C172.39,-298.74 171.81,-299.36 171.25,-300 102.33,-378.93 204.59,-454.44 135.25,-533 132.23,-536.43 128.63,-539.25 124.7,-541.59"/>
<polygon fill="#63b8ff" stroke="#63b8ff" points="174.87,-300.34 180.66,-291.47 170.6,-294.79 174.87,-300.34"/>
</a>
</g>
</g>
<!-- Node9 -->
<g id="Node000009" class="node">
<title>Node9</title>
<g id="a_Node000009"><a xlink:href="class_keysight_m9807_a.html#ad492f043e51d3e760209af6d59fe7829" target="_top" xlink:title="Создание необходимых трасс, в зависимости от того, используется ли внешний генератор">
<polygon fill="white" stroke="#666666" points="129.25,-524 6,-524 6,-492 129.25,-492 129.25,-524"/>
<text text-anchor="start" x="14" y="-510.5" font-family="Helvetica,sans-Serif" font-size="10.00">KeysightM9807A::create</text>
<text text-anchor="middle" x="67.62" y="-498.5" font-family="Helvetica,sans-Serif" font-size="10.00">_traces</text>
</a>
</g>
</g>
<!-- Node7&#45;&gt;Node9 -->
<g id="edge8_Node000007_Node000009" class="edge">
<title>Node7&#45;&gt;Node9</title>
<g id="a_edge8_Node000007_Node000009"><a xlink:title=" ">
<path fill="none" stroke="#63b8ff" d="M173.38,-297.84C172.64,-298.53 171.93,-299.25 171.25,-300 115.47,-361.31 188.84,-419.76 135.25,-483 132.45,-486.3 129.18,-489.16 125.6,-491.65"/>
<polygon fill="#63b8ff" stroke="#63b8ff" points="175.12,-300.17 181.11,-291.43 170.98,-294.52 175.12,-300.17"/>
</a>
</g>
</g>
<!-- Node10 -->
<g id="Node000010" class="node">
<title>Node10</title>
<g id="a_Node000010"><a xlink:href="class_keysight_m9807_a.html#ae9df428776abd1cc65fa24e57fb713e1" target="_top" xlink:title="Запуск измерения">
<polygon fill="white" stroke="#666666" points="122.12,-474 13.12,-474 13.12,-454 122.12,-454 122.12,-474"/>
<text text-anchor="middle" x="67.62" y="-460.5" font-family="Helvetica,sans-Serif" font-size="10.00">KeysightM9807A::init</text>
</a>
</g>
</g>
<!-- Node7&#45;&gt;Node10 -->
<g id="edge9_Node000007_Node000010" class="edge">
<title>Node7&#45;&gt;Node10</title>
<g id="a_edge9_Node000007_Node000010"><a xlink:title=" ">
<path fill="none" stroke="#63b8ff" d="M173.82,-297.54C172.93,-298.32 172.07,-299.14 171.25,-300 125.37,-348 181.39,-397.25 135.25,-445 131.57,-448.81 127.19,-451.87 122.46,-454.32"/>
<polygon fill="#63b8ff" stroke="#63b8ff" points="175.39,-300.01 181.6,-291.42 171.39,-294.27 175.39,-300.01"/>
</a>
</g>
</g>
<!-- Node11 -->
<g id="Node000011" class="node">
<title>Node11</title>
<g id="a_Node000011"><a xlink:href="class_keysight_m9807_a.html#ad48b95d00b8a2ecee1e95dc300d25203" target="_top" xlink:title="Инициализация канала для измерений">
<polygon fill="white" stroke="#666666" points="122.12,-436 13.12,-436 13.12,-404 122.12,-404 122.12,-436"/>
<text text-anchor="start" x="21.12" y="-422.5" font-family="Helvetica,sans-Serif" font-size="10.00">KeysightM9807A::init</text>
<text text-anchor="middle" x="67.62" y="-410.5" font-family="Helvetica,sans-Serif" font-size="10.00">_channel</text>
</a>
</g>
</g>
<!-- Node7&#45;&gt;Node11 -->
<g id="edge10_Node000007_Node000011" class="edge">
<title>Node7&#45;&gt;Node11</title>
<g id="a_edge10_Node000007_Node000011"><a xlink:title=" ">
<path fill="none" stroke="#63b8ff" d="M174.92,-296.93C173.64,-297.89 172.42,-298.92 171.25,-300 138.17,-330.73 167.23,-363.12 135.25,-395 131.49,-398.75 127.11,-401.95 122.43,-404.67"/>
<polygon fill="#63b8ff" stroke="#63b8ff" points="176.28,-299.59 182.96,-291.37 172.61,-293.63 176.28,-299.59"/>
</a>
</g>
</g>
<!-- Node12 -->
<g id="Node000012" class="node">
<title>Node12</title>
<g id="a_Node000012"><a xlink:href="class_keysight_m9807_a.html#ad4dc40466fecabae451e88d763692076" target="_top" xlink:title="Отключает все порты">
<polygon fill="white" stroke="#666666" points="125.88,-386 9.38,-386 9.38,-366 125.88,-366 125.88,-386"/>
<text text-anchor="middle" x="67.62" y="-372.5" font-family="Helvetica,sans-Serif" font-size="10.00">KeysightM9807A::rf_off</text>
</a>
</g>
</g>
<!-- Node7&#45;&gt;Node12 -->
<g id="edge11_Node000007_Node000012" class="edge">
<title>Node7&#45;&gt;Node12</title>
<g id="a_edge11_Node000007_Node000012"><a xlink:title=" ">
<path fill="none" stroke="#63b8ff" d="M176.58,-296.4C174.73,-297.52 172.95,-298.71 171.25,-300 147.36,-318.09 159.24,-339.04 135.25,-357 130.63,-360.46 125.4,-363.29 119.95,-365.61"/>
<polygon fill="#63b8ff" stroke="#63b8ff" points="177.95,-299.12 185.27,-291.45 174.77,-292.88 177.95,-299.12"/>
</a>
</g>
</g>
<!-- Node13 -->
<g id="Node000013" class="node">
<title>Node13</title>
<g id="a_Node000013"><a xlink:href="class_keysight_m9807_a.html#a861c82a08c49f54dd245db73d87181c8" target="_top" xlink:title="Отключает выбранный порт">
<polygon fill="white" stroke="#666666" points="125.88,-348 9.38,-348 9.38,-328 125.88,-328 125.88,-348"/>
<text text-anchor="middle" x="67.62" y="-334.5" font-family="Helvetica,sans-Serif" font-size="10.00">KeysightM9807A::rf_off</text>
</a>
</g>
</g>
<!-- Node7&#45;&gt;Node13 -->
<g id="edge12_Node000007_Node000013" class="edge">
<title>Node7&#45;&gt;Node13</title>
<g id="a_edge12_Node000007_Node000013"><a xlink:title=" ">
<path fill="none" stroke="#63b8ff" d="M185.17,-294.82C180.42,-296.45 175.72,-298.18 171.25,-300 154.5,-306.83 152.04,-312.26 135.25,-319 127.32,-322.18 118.67,-325.06 110.3,-327.56"/>
<polygon fill="#63b8ff" stroke="#63b8ff" points="186.13,-297.87 194.57,-291.45 183.97,-291.21 186.13,-297.87"/>
</a>
</g>
</g>
<!-- Node14 -->
<g id="Node000014" class="node">
<title>Node14</title>
<g id="a_Node000014"><a xlink:href="class_keysight_m9807_a.html#adf9e166699c89ec3c7f53fae5ec81b0c" target="_top" xlink:title="Включает все порты">
<polygon fill="white" stroke="#666666" points="126.25,-310 9,-310 9,-290 126.25,-290 126.25,-310"/>
<text text-anchor="middle" x="67.62" y="-296.5" font-family="Helvetica,sans-Serif" font-size="10.00">KeysightM9807A::rf_on</text>
</a>
</g>
</g>
<!-- Node7&#45;&gt;Node14 -->
<g id="edge13_Node000007_Node000014" class="edge">
<title>Node7&#45;&gt;Node14</title>
<g id="a_edge13_Node000007_Node000014"><a xlink:title=" ">
<path fill="none" stroke="#63b8ff" d="M160.13,-289.57C148.89,-290.85 137.44,-292.15 126.62,-293.39"/>
<polygon fill="#63b8ff" stroke="#63b8ff" points="160.29,-292.96 169.83,-288.35 159.5,-286 160.29,-292.96"/>
</a>
</g>
</g>
<!-- Node15 -->
<g id="Node000015" class="node">
<title>Node15</title>
<g id="a_Node000015"><a xlink:href="class_keysight_m9807_a.html#ac6105e309ba2f11a360797e19d34a592" target="_top" xlink:title="Включает выбранный порт">
<polygon fill="white" stroke="#666666" points="126.25,-272 9,-272 9,-252 126.25,-252 126.25,-272"/>
<text text-anchor="middle" x="67.62" y="-258.5" font-family="Helvetica,sans-Serif" font-size="10.00">KeysightM9807A::rf_on</text>
</a>
</g>
</g>
<!-- Node7&#45;&gt;Node15 -->
<g id="edge14_Node000007_Node000015" class="edge">
<title>Node7&#45;&gt;Node15</title>
<g id="a_edge14_Node000007_Node000015"><a xlink:title=" ">
<path fill="none" stroke="#63b8ff" d="M160.13,-272.43C148.89,-271.15 137.44,-269.85 126.62,-268.61"/>
<polygon fill="#63b8ff" stroke="#63b8ff" points="159.5,-276 169.83,-273.65 160.29,-269.04 159.5,-276"/>
</a>
</g>
</g>
<!-- Node16 -->
<g id="Node000016" class="node">
<title>Node16</title>
<g id="a_Node000016"><a xlink:href="class_visa_device.html#ab95d81d2e1ebab67621ac7aac769bc64" target="_top" xlink:title="Отправка данных на прибор и чтение ответа от прибора. Также, ожидается завершение выполнения действий...">
<polygon fill="white" stroke="#666666" points="132.62,-234 2.62,-234 2.62,-214 132.62,-214 132.62,-234"/>
<text text-anchor="middle" x="67.62" y="-220.5" font-family="Helvetica,sans-Serif" font-size="10.00">VisaDevice::send_wait_err</text>
</a>
</g>
</g>
<!-- Node7&#45;&gt;Node16 -->
<g id="edge15_Node000007_Node000016" class="edge">
<title>Node7&#45;&gt;Node16</title>
<g id="a_edge15_Node000007_Node000016"><a xlink:title=" ">
<path fill="none" stroke="#63b8ff" d="M185.17,-267.18C180.42,-265.55 175.72,-263.82 171.25,-262 154.5,-255.17 152.04,-249.74 135.25,-243 127.32,-239.82 118.67,-236.94 110.3,-234.44"/>
<polygon fill="#63b8ff" stroke="#63b8ff" points="183.97,-270.79 194.57,-270.55 186.13,-264.13 183.97,-270.79"/>
</a>
</g>
</g>
<!-- Node17 -->
<g id="Node000017" class="node">
<title>Node17</title>
<g id="a_Node000017"><a xlink:href="class_keysight_m9807_a.html#a752f62baec908e4e421a95b3c75422fc" target="_top" xlink:title="Установка определённого значения частоты">
<polygon fill="white" stroke="#666666" points="133,-196 2.25,-196 2.25,-176 133,-176 133,-196"/>
<text text-anchor="middle" x="67.62" y="-182.5" font-family="Helvetica,sans-Serif" font-size="10.00">KeysightM9807A::set_freq</text>
</a>
</g>
</g>
<!-- Node7&#45;&gt;Node17 -->
<g id="edge16_Node000007_Node000017" class="edge">
<title>Node7&#45;&gt;Node17</title>
<g id="a_edge16_Node000007_Node000017"><a xlink:title=" ">
<path fill="none" stroke="#63b8ff" d="M176.58,-265.6C174.73,-264.48 172.95,-263.29 171.25,-262 147.36,-243.91 159.24,-222.96 135.25,-205 130.63,-201.54 125.4,-198.71 119.95,-196.39"/>
<polygon fill="#63b8ff" stroke="#63b8ff" points="174.77,-269.12 185.27,-270.55 177.95,-262.88 174.77,-269.12"/>
</a>
</g>
</g>
<!-- Node18 -->
<g id="Node000018" class="node">
<title>Node18</title>
<g id="a_Node000018"><a xlink:href="class_keysight_m9807_a.html#a2b1761a2a4b4dc696a74590c2cb028de" target="_top" xlink:title="Установка частотного диапазона">
<polygon fill="white" stroke="#666666" points="122.5,-158 12.75,-158 12.75,-126 122.5,-126 122.5,-158"/>
<text text-anchor="start" x="20.75" y="-144.5" font-family="Helvetica,sans-Serif" font-size="10.00">KeysightM9807A::set</text>
<text text-anchor="middle" x="67.62" y="-132.5" font-family="Helvetica,sans-Serif" font-size="10.00">_freq_range</text>
</a>
</g>
</g>
<!-- Node7&#45;&gt;Node18 -->
<g id="edge17_Node000007_Node000018" class="edge">
<title>Node7&#45;&gt;Node18</title>
<g id="a_edge17_Node000007_Node000018"><a xlink:title=" ">
<path fill="none" stroke="#63b8ff" d="M174.92,-265.07C173.64,-264.11 172.42,-263.08 171.25,-262 138.17,-231.27 167.23,-198.88 135.25,-167 131.57,-163.34 127.31,-160.2 122.75,-157.52"/>
<polygon fill="#63b8ff" stroke="#63b8ff" points="172.61,-268.37 182.96,-270.63 176.28,-262.41 172.61,-268.37"/>
</a>
</g>
</g>
<!-- Node19 -->
<g id="Node000019" class="node">
<title>Node19</title>
<g id="a_Node000019"><a xlink:href="class_keysight_m9807_a.html#a148ac915640756d3ef0c33d92c1b1205" target="_top" xlink:title="Установка положений переключателей в определённые позиции">
<polygon fill="white" stroke="#666666" points="134.5,-108 0.75,-108 0.75,-88 134.5,-88 134.5,-108"/>
<text text-anchor="middle" x="67.62" y="-94.5" font-family="Helvetica,sans-Serif" font-size="10.00">KeysightM9807A::set_path</text>
</a>
</g>
</g>
<!-- Node7&#45;&gt;Node19 -->
<g id="edge18_Node000007_Node000019" class="edge">
<title>Node7&#45;&gt;Node19</title>
<g id="a_edge18_Node000007_Node000019"><a xlink:title=" ">
<path fill="none" stroke="#63b8ff" d="M173.82,-264.46C172.93,-263.68 172.07,-262.86 171.25,-262 125.37,-214 181.39,-164.75 135.25,-117 131.91,-113.54 127.98,-110.7 123.74,-108.36"/>
<polygon fill="#63b8ff" stroke="#63b8ff" points="171.39,-267.73 181.6,-270.58 175.39,-261.99 171.39,-267.73"/>
</a>
</g>
</g>
<!-- Node20 -->
<g id="Node000020" class="node">
<title>Node20</title>
<g id="a_Node000020"><a xlink:href="class_keysight_m9807_a.html#ab3a0a48c7e439fab722d902479ff78eb" target="_top" xlink:title="Установка требуемой мощности зондирующего порта">
<polygon fill="white" stroke="#666666" points="122.5,-70 12.75,-70 12.75,-38 122.5,-38 122.5,-70"/>
<text text-anchor="start" x="20.75" y="-56.5" font-family="Helvetica,sans-Serif" font-size="10.00">KeysightM9807A::set</text>
<text text-anchor="middle" x="67.62" y="-44.5" font-family="Helvetica,sans-Serif" font-size="10.00">_power</text>
</a>
</g>
</g>
<!-- Node7&#45;&gt;Node20 -->
<g id="edge19_Node000007_Node000020" class="edge">
<title>Node7&#45;&gt;Node20</title>
<g id="a_edge19_Node000007_Node000020"><a xlink:title=" ">
<path fill="none" stroke="#63b8ff" d="M173.38,-264.16C172.64,-263.47 171.93,-262.75 171.25,-262 115.47,-200.69 188.84,-142.24 135.25,-79 131.74,-74.85 127.46,-71.39 122.79,-68.51"/>
<polygon fill="#63b8ff" stroke="#63b8ff" points="170.98,-267.48 181.11,-270.57 175.12,-261.83 170.98,-267.48"/>
</a>
</g>
</g>
<!-- Node21 -->
<g id="Node000021" class="node">
<title>Node21</title>
<g id="a_Node000021"><a xlink:href="class_keysight_m9807_a.html#a83a1f840e34e3ecb56c319649725efb8" target="_top" xlink:title="Перевод триггера в режим single.">
<polygon fill="white" stroke="#666666" points="129.25,-20 6,-20 6,0 129.25,0 129.25,-20"/>
<text text-anchor="middle" x="67.62" y="-6.5" font-family="Helvetica,sans-Serif" font-size="10.00">KeysightM9807A::trigger</text>
</a>
</g>
</g>
<!-- Node7&#45;&gt;Node21 -->
<g id="edge20_Node000007_Node000021" class="edge">
<title>Node7&#45;&gt;Node21</title>
<g id="a_edge20_Node000007_Node000021"><a xlink:title=" ">
<path fill="none" stroke="#63b8ff" d="M172.98,-263.85C172.39,-263.26 171.81,-262.64 171.25,-262 102.33,-183.07 204.59,-107.56 135.25,-29 132.23,-25.57 128.63,-22.75 124.7,-20.41"/>
<polygon fill="#63b8ff" stroke="#63b8ff" points="170.6,-267.21 180.66,-270.53 174.87,-261.66 170.6,-267.21"/>
</a>
</g>
</g>
</g>
</svg>
