<?xml version="1.0" encoding="UTF-8" standalone="no"?>
<!DOCTYPE svg PUBLIC "-//W3C//DTD SVG 1.1//EN"
 "http://www.w3.org/Graphics/SVG/1.1/DTD/svg11.dtd">
<!-- Generated by graphviz version 8.0.5 (20230430.1635)
 -->
<!-- Title: DeviceSet Pages: 1 -->
<!--zoomable 1553 -->

<svg id="main" version="1.1" xmlns="http://www.w3.org/2000/svg" xmlns:xlink="http://www.w3.org/1999/xlink" xml:space="preserve" onload="init(evt)">
<style type="text/css"><![CDATA[
.node, .edge {opacity: 0.7;}
.node.selected, .edge.selected {opacity: 1;}
.edge:hover path { stroke: red; }
.edge:hover polygon { stroke: red; fill: red; }
]]></style>

<defs>
  <circle id="rim" cx="0" cy="0" r="7"/>
  <circle id="rim2" cx="0" cy="0" r="3.5"/>
  <g id="zoomPlus">
    <use xlink:href="#rim" fill="#404040"><set attributeName="fill" to="#808080" begin="zoomplus.mouseover" end="zoomplus.mouseout"/></use>
    <path d="M-4,0h8M0,-4v8" fill="none" stroke="white" stroke-width="1.5" pointer-events="none"/>
  </g>
  <g id="zoomMin">
    <use xlink:href="#rim" fill="#404040"><set attributeName="fill" to="#808080" begin="zoomminus.mouseover" end="zoomminus.mouseout"/></use>
    <path d="M-4,0h8" fill="none" stroke="white" stroke-width="1.5" pointer-events="none"/>
  </g>
  <g id="arrowUp" transform="translate(30 24)">
    <use xlink:href="#rim"/>
    <path pointer-events="none" fill="none" stroke="white" stroke-width="1.5" d="M0,-3.0v7 M-2.5,-0.5L0,-3.0L2.5,-0.5"/>
  </g>
  <g id="arrowRight" transform="rotate(90) translate(36 -43)">
    <use xlink:href="#rim"/>
    <path pointer-events="none" fill="none" stroke="white" stroke-width="1.5" d="M0,-3.0v7 M-2.5,-0.5L0,-3.0L2.5,-0.5"/>
  </g>
  <g id="arrowDown" transform="rotate(180) translate(-30 -48)">
    <use xlink:href="#rim"/>
    <path pointer-events="none" fill="none" stroke="white" stroke-width="1.5" d="M0,-3.0v7 M-2.5,-0.5L0,-3.0L2.5,-0.5"/>
  </g>
  <g id="arrowLeft" transform="rotate(270) translate(-36 17)">
    <use xlink:href="#rim"/>
    <path pointer-events="none" fill="none" stroke="white" stroke-width="1.5" d="M0,-3.0v7 M-2.5,-0.5L0,-3.0L2.5,-0.5"/>
  </g>
  <g id="resetDef">
    <use xlink:href="#rim2" fill="#404040"><set attributeName="fill" to="#808080" begin="reset.mouseover" end="reset.mouseout"/></use>
  </g>
</defs>
<script type="application/ecmascript">
var viewWidth = 465;
var viewHeight = 1553;
var sectionId = 'dynsection-0';
</script>
<script type="application/ecmascript" xlink:href="svg.min.js"/>
<svg id="graph" class="graph">
<g id="viewport">
<title>DeviceSet</title>
<!-- Node1 -->
<g id="Node000001" class="node">
<title>Node1</title>
<g id="a_Node000001"><a xlink:title="Класс набора устройств, в котором реализованы методы взаимодействия между устройствами">
<polygon fill="#999999" stroke="none" points="292.5,-404 166.5,-404 166.5,0 292.5,0 292.5,-404"/>
<text text-anchor="start" x="207.75" y="-390.5" font-family="Helvetica,sans-Serif" font-size="10.00">DeviceSet</text>
<text text-anchor="start" x="172" y="-374.5" font-family="Helvetica,sans-Serif" font-size="10.00">&#45;</text>
<text text-anchor="start" x="180.5" y="-374.5" font-family="Helvetica,sans-Serif" font-size="10.00">int meas_type</text>
<text text-anchor="start" x="172" y="-358.5" font-family="Helvetica,sans-Serif" font-size="10.00">&#45;</text>
<text text-anchor="start" x="180.5" y="-358.5" font-family="Helvetica,sans-Serif" font-size="10.00">bool using_ext_gen</text>
<text text-anchor="start" x="172" y="-342.5" font-family="Helvetica,sans-Serif" font-size="10.00">&#45;</text>
<text text-anchor="start" x="180.5" y="-342.5" font-family="Helvetica,sans-Serif" font-size="10.00">bool traces_configured</text>
<text text-anchor="start" x="172" y="-326.5" font-family="Helvetica,sans-Serif" font-size="10.00">&#45;</text>
<text text-anchor="start" x="180.5" y="-326.5" font-family="Helvetica,sans-Serif" font-size="10.00">bool stop_requested</text>
<text text-anchor="start" x="170.5" y="-310.5" font-family="Helvetica,sans-Serif" font-size="10.00">+</text>
<text text-anchor="start" x="180.5" y="-310.5" font-family="Helvetica,sans-Serif" font-size="10.00">DeviceSet()=default</text>
<text text-anchor="start" x="170.5" y="-294.5" font-family="Helvetica,sans-Serif" font-size="10.00">+</text>
<text text-anchor="start" x="180.5" y="-294.5" font-family="Helvetica,sans-Serif" font-size="10.00">bool connect(int device</text>
<text text-anchor="start" x="180.5" y="-282.5" font-family="Helvetica,sans-Serif" font-size="10.00">_type, std::string device</text>
<text text-anchor="start" x="180.5" y="-270.5" font-family="Helvetica,sans-Serif" font-size="10.00">_model, const std::string</text>
<text text-anchor="start" x="180.5" y="-258.5" font-family="Helvetica,sans-Serif" font-size="10.00"> &amp;device_address)</text>
<text text-anchor="start" x="170.5" y="-242.5" font-family="Helvetica,sans-Serif" font-size="10.00">+</text>
<text text-anchor="start" x="180.5" y="-242.5" font-family="Helvetica,sans-Serif" font-size="10.00">void disconnect()</text>
<text text-anchor="start" x="170.5" y="-226.5" font-family="Helvetica,sans-Serif" font-size="10.00">+</text>
<text text-anchor="start" x="180.5" y="-226.5" font-family="Helvetica,sans-Serif" font-size="10.00">bool configure(int</text>
<text text-anchor="start" x="180.5" y="-214.5" font-family="Helvetica,sans-Serif" font-size="10.00"> meas_type, float rbw,</text>
<text text-anchor="start" x="180.5" y="-202.5" font-family="Helvetica,sans-Serif" font-size="10.00"> int source_port, bool</text>
<text text-anchor="start" x="180.5" y="-190.5" font-family="Helvetica,sans-Serif" font-size="10.00"> using_ext_gen)</text>
<text text-anchor="start" x="170.5" y="-174.5" font-family="Helvetica,sans-Serif" font-size="10.00">+</text>
<text text-anchor="start" x="180.5" y="-174.5" font-family="Helvetica,sans-Serif" font-size="10.00">bool set_power(float</text>
<text text-anchor="start" x="180.5" y="-162.5" font-family="Helvetica,sans-Serif" font-size="10.00"> power)</text>
<text text-anchor="start" x="170.5" y="-146.5" font-family="Helvetica,sans-Serif" font-size="10.00">+</text>
<text text-anchor="start" x="180.5" y="-146.5" font-family="Helvetica,sans-Serif" font-size="10.00">bool set_freq(double</text>
<text text-anchor="start" x="180.5" y="-134.5" font-family="Helvetica,sans-Serif" font-size="10.00"> freq)</text>
<text text-anchor="start" x="170.5" y="-118.5" font-family="Helvetica,sans-Serif" font-size="10.00">+</text>
<text text-anchor="start" x="180.5" y="-118.5" font-family="Helvetica,sans-Serif" font-size="10.00">bool set_freq_range</text>
<text text-anchor="start" x="180.5" y="-106.5" font-family="Helvetica,sans-Serif" font-size="10.00">(double start_freq,</text>
<text text-anchor="start" x="180.5" y="-94.5" font-family="Helvetica,sans-Serif" font-size="10.00"> double stop_freq, int</text>
<text text-anchor="start" x="180.5" y="-82.5" font-family="Helvetica,sans-Serif" font-size="10.00"> points)</text>
<text text-anchor="start" x="170.5" y="-66.5" font-family="Helvetica,sans-Serif" font-size="10.00">+</text>
<text text-anchor="start" x="180.5" y="-66.5" font-family="Helvetica,sans-Serif" font-size="10.00">int next_freq()</text>
<text text-anchor="start" x="170.5" y="-50.5" font-family="Helvetica,sans-Serif" font-size="10.00">+</text>
<text text-anchor="start" x="180.5" y="-50.5" font-family="Helvetica,sans-Serif" font-size="10.00">int prev_freq()</text>
<text text-anchor="start" x="170.5" y="-34.5" font-family="Helvetica,sans-Serif" font-size="10.00">+</text>
<text text-anchor="start" x="180.5" y="-34.5" font-family="Helvetica,sans-Serif" font-size="10.00">bool move_to_start</text>
<text text-anchor="start" x="180.5" y="-22.5" font-family="Helvetica,sans-Serif" font-size="10.00">_freq()</text>
<text text-anchor="start" x="180.5" y="-6.5" font-family="Helvetica,sans-Serif" font-size="10.00">и 14 больше...</text>
<polygon fill="#666666" stroke="#666666" points="166.5,-386 166.5,-386 292.5,-386 292.5,-386 166.5,-386"/>
<polygon fill="#666666" stroke="#666666" points="166.5,-322 166.5,-322 178.5,-322 178.5,-322 166.5,-322"/>
<polygon fill="#666666" stroke="#666666" points="178.5,-322 178.5,-322 292.5,-322 292.5,-322 178.5,-322"/>
<polygon fill="none" stroke="#666666" points="166.5,0 166.5,-404 292.5,-404 292.5,0 166.5,0"/>
</a>
</g>
</g>
<!-- Node2 -->
<g id="Node000002" class="node">
<title>Node2</title>
<g id="a_Node000002"><a xlink:href="class_vna_device.html" target="_top" xlink:title="Класс, в котором реализованы методы для работы с ВАЦ">
<polygon fill="white" stroke="none" points="141,-944 0,-944 0,-500 141,-500 141,-944"/>
<text text-anchor="start" x="47.62" y="-930.5" font-family="Helvetica,sans-Serif" font-size="10.00">VnaDevice</text>
<text text-anchor="start" x="4.38" y="-914.5" font-family="Helvetica,sans-Serif" font-size="10.00">#</text>
<text text-anchor="start" x="14" y="-914.5" font-family="Helvetica,sans-Serif" font-size="10.00">double start_freq</text>
<text text-anchor="start" x="4.38" y="-898.5" font-family="Helvetica,sans-Serif" font-size="10.00">#</text>
<text text-anchor="start" x="14" y="-898.5" font-family="Helvetica,sans-Serif" font-size="10.00">double stop_freq</text>
<text text-anchor="start" x="4.38" y="-882.5" font-family="Helvetica,sans-Serif" font-size="10.00">#</text>
<text text-anchor="start" x="14" y="-882.5" font-family="Helvetica,sans-Serif" font-size="10.00">float rbw</text>
<text text-anchor="start" x="4.38" y="-866.5" font-family="Helvetica,sans-Serif" font-size="10.00">#</text>
<text text-anchor="start" x="14" y="-866.5" font-family="Helvetica,sans-Serif" font-size="10.00">int points</text>
<text text-anchor="start" x="4.38" y="-850.5" font-family="Helvetica,sans-Serif" font-size="10.00">#</text>
<text text-anchor="start" x="14" y="-850.5" font-family="Helvetica,sans-Serif" font-size="10.00">double freq_step</text>
<text text-anchor="start" x="4.38" y="-834.5" font-family="Helvetica,sans-Serif" font-size="10.00">#</text>
<text text-anchor="start" x="14" y="-834.5" font-family="Helvetica,sans-Serif" font-size="10.00">float power</text>
<text text-anchor="start" x="4.38" y="-818.5" font-family="Helvetica,sans-Serif" font-size="10.00">#</text>
<text text-anchor="start" x="14" y="-818.5" font-family="Helvetica,sans-Serif" font-size="10.00">int source_port</text>
<text text-anchor="start" x="4.38" y="-802.5" font-family="Helvetica,sans-Serif" font-size="10.00">#</text>
<text text-anchor="start" x="14" y="-802.5" font-family="Helvetica,sans-Serif" font-size="10.00">int meas_type</text>
<text text-anchor="start" x="4" y="-786.5" font-family="Helvetica,sans-Serif" font-size="10.00">+</text>
<text text-anchor="start" x="14" y="-786.5" font-family="Helvetica,sans-Serif" font-size="10.00">VnaDevice()=default</text>
<text text-anchor="start" x="4" y="-770.5" font-family="Helvetica,sans-Serif" font-size="10.00">+</text>
<text text-anchor="start" x="14" y="-770.5" font-family="Helvetica,sans-Serif" font-size="10.00">VnaDevice(std::string</text>
<text text-anchor="start" x="14" y="-758.5" font-family="Helvetica,sans-Serif" font-size="10.00"> device_address)</text>
<text text-anchor="start" x="4" y="-742.5" font-family="Helvetica,sans-Serif" font-size="10.00">+</text>
<text text-anchor="start" x="14" y="-742.5" font-family="Helvetica,sans-Serif" font-size="10.00">virtual void preset()</text>
<text text-anchor="start" x="4" y="-726.5" font-family="Helvetica,sans-Serif" font-size="10.00">+</text>
<text text-anchor="start" x="14" y="-726.5" font-family="Helvetica,sans-Serif" font-size="10.00">virtual void full_preset()</text>
<text text-anchor="start" x="4" y="-710.5" font-family="Helvetica,sans-Serif" font-size="10.00">+</text>
<text text-anchor="start" x="14" y="-710.5" font-family="Helvetica,sans-Serif" font-size="10.00">virtual void init_channel()</text>
<text text-anchor="start" x="4" y="-694.5" font-family="Helvetica,sans-Serif" font-size="10.00">+</text>
<text text-anchor="start" x="14" y="-694.5" font-family="Helvetica,sans-Serif" font-size="10.00">virtual void configure</text>
<text text-anchor="start" x="14" y="-682.5" font-family="Helvetica,sans-Serif" font-size="10.00">(int meas_type, float</text>
<text text-anchor="start" x="14" y="-670.5" font-family="Helvetica,sans-Serif" font-size="10.00"> rbw, int source_port)</text>
<text text-anchor="start" x="4" y="-654.5" font-family="Helvetica,sans-Serif" font-size="10.00">+</text>
<text text-anchor="start" x="14" y="-654.5" font-family="Helvetica,sans-Serif" font-size="10.00">virtual void create</text>
<text text-anchor="start" x="14" y="-642.5" font-family="Helvetica,sans-Serif" font-size="10.00">_traces(std::vector</text>
<text text-anchor="start" x="14" y="-630.5" font-family="Helvetica,sans-Serif" font-size="10.00">&lt; int &gt; port_list, bool</text>
<text text-anchor="start" x="14" y="-618.5" font-family="Helvetica,sans-Serif" font-size="10.00"> external)</text>
<text text-anchor="start" x="4" y="-602.5" font-family="Helvetica,sans-Serif" font-size="10.00">+</text>
<text text-anchor="start" x="14" y="-602.5" font-family="Helvetica,sans-Serif" font-size="10.00">virtual void set_power</text>
<text text-anchor="start" x="14" y="-590.5" font-family="Helvetica,sans-Serif" font-size="10.00">(float power)</text>
<text text-anchor="start" x="4" y="-574.5" font-family="Helvetica,sans-Serif" font-size="10.00">+</text>
<text text-anchor="start" x="14" y="-574.5" font-family="Helvetica,sans-Serif" font-size="10.00">virtual void set_freq</text>
<text text-anchor="start" x="14" y="-562.5" font-family="Helvetica,sans-Serif" font-size="10.00">_range(double start_freq,</text>
<text text-anchor="start" x="14" y="-550.5" font-family="Helvetica,sans-Serif" font-size="10.00"> double stop_freq, int points)</text>
<text text-anchor="start" x="4" y="-534.5" font-family="Helvetica,sans-Serif" font-size="10.00">+</text>
<text text-anchor="start" x="14" y="-534.5" font-family="Helvetica,sans-Serif" font-size="10.00">virtual void set_freq</text>
<text text-anchor="start" x="14" y="-522.5" font-family="Helvetica,sans-Serif" font-size="10.00">(double freq)</text>
<text text-anchor="start" x="14" y="-506.5" font-family="Helvetica,sans-Serif" font-size="10.00">и 13 больше...</text>
<polygon fill="#666666" stroke="#666666" points="0,-926 0,-926 141,-926 141,-926 0,-926"/>
<polygon fill="#666666" stroke="#666666" points="0,-798 0,-798 12,-798 12,-798 0,-798"/>
<polygon fill="#666666" stroke="#666666" points="12,-798 12,-798 141,-798 141,-798 12,-798"/>
<polygon fill="none" stroke="#666666" points="0,-500 0,-944 141,-944 141,-500 0,-500"/>
</a>
</g>
</g>
<!-- Node2&#45;&gt;Node1 -->
<g id="edge1_Node000001_Node000002" class="edge">
<title>Node2&#45;&gt;Node1</title>
<g id="a_edge1_Node000001_Node000002"><a xlink:title=" ">
<path fill="none" stroke="#63b8ff" d="M134.83,-500.3C139.75,-483.94 144.67,-467.7 149.5,-452 153.77,-438.1 158.23,-423.78 162.76,-409.36"/>
<polygon fill="none" stroke="#63b8ff" points="162.7,-409.54 160.69,-402.61 166.3,-398.09 168.32,-405.02 162.7,-409.54"/>
</a>
</g>
<text text-anchor="middle" x="168.62" y="-424.5" font-family="Helvetica,sans-Serif" font-size="10.00" fill="grey"> &#45;vna</text>
</g>
<!-- Node3 -->
<g id="Node000003" class="node">
<title>Node3</title>
<g id="a_Node000003"><a xlink:href="class_visa_device.html" target="_top" xlink:title="Класс, в котором реализованы методы для управления устройством с помощью API VISA.">
<polygon fill="white" stroke="none" points="205.5,-1413 93.5,-1413 93.5,-1029 205.5,-1029 205.5,-1413"/>
<text text-anchor="start" x="125.5" y="-1399.5" font-family="Helvetica,sans-Serif" font-size="10.00">VisaDevice</text>
<text text-anchor="start" x="97.88" y="-1383.5" font-family="Helvetica,sans-Serif" font-size="10.00">#</text>
<text text-anchor="start" x="107.5" y="-1383.5" font-family="Helvetica,sans-Serif" font-size="10.00">bool connected</text>
<text text-anchor="start" x="99" y="-1367.5" font-family="Helvetica,sans-Serif" font-size="10.00">&#45;</text>
<text text-anchor="start" x="107.5" y="-1367.5" font-family="Helvetica,sans-Serif" font-size="10.00">ViSession resource</text>
<text text-anchor="start" x="107.5" y="-1355.5" font-family="Helvetica,sans-Serif" font-size="10.00">_manager</text>
<text text-anchor="start" x="99" y="-1339.5" font-family="Helvetica,sans-Serif" font-size="10.00">&#45;</text>
<text text-anchor="start" x="107.5" y="-1339.5" font-family="Helvetica,sans-Serif" font-size="10.00">ViSession device</text>
<text text-anchor="start" x="99" y="-1323.5" font-family="Helvetica,sans-Serif" font-size="10.00">&#45;</text>
<text text-anchor="start" x="107.5" y="-1323.5" font-family="Helvetica,sans-Serif" font-size="10.00">ViStatus status</text>
<text text-anchor="start" x="99" y="-1307.5" font-family="Helvetica,sans-Serif" font-size="10.00">&#45;</text>
<text text-anchor="start" x="107.5" y="-1307.5" font-family="Helvetica,sans-Serif" font-size="10.00">ViPUInt32 ret_count</text>
<text text-anchor="start" x="97.5" y="-1291.5" font-family="Helvetica,sans-Serif" font-size="10.00">+</text>
<text text-anchor="start" x="107.5" y="-1291.5" font-family="Helvetica,sans-Serif" font-size="10.00">VisaDevice()=default</text>
<text text-anchor="start" x="97.5" y="-1275.5" font-family="Helvetica,sans-Serif" font-size="10.00">+</text>
<text text-anchor="start" x="107.5" y="-1275.5" font-family="Helvetica,sans-Serif" font-size="10.00">VisaDevice(std::string</text>
<text text-anchor="start" x="107.5" y="-1263.5" font-family="Helvetica,sans-Serif" font-size="10.00"> device_address)</text>
<text text-anchor="start" x="97.5" y="-1247.5" font-family="Helvetica,sans-Serif" font-size="10.00">+</text>
<text text-anchor="start" x="107.5" y="-1247.5" font-family="Helvetica,sans-Serif" font-size="10.00">~VisaDevice()</text>
<text text-anchor="start" x="97.5" y="-1231.5" font-family="Helvetica,sans-Serif" font-size="10.00">+</text>
<text text-anchor="start" x="107.5" y="-1231.5" font-family="Helvetica,sans-Serif" font-size="10.00">virtual void connect()</text>
<text text-anchor="start" x="97.5" y="-1215.5" font-family="Helvetica,sans-Serif" font-size="10.00">+</text>
<text text-anchor="start" x="107.5" y="-1215.5" font-family="Helvetica,sans-Serif" font-size="10.00">bool is_connected()</text>
<text text-anchor="start" x="107.5" y="-1203.5" font-family="Helvetica,sans-Serif" font-size="10.00"> const</text>
<text text-anchor="start" x="97.5" y="-1187.5" font-family="Helvetica,sans-Serif" font-size="10.00">+</text>
<text text-anchor="start" x="107.5" y="-1187.5" font-family="Helvetica,sans-Serif" font-size="10.00">void clear() const</text>
<text text-anchor="start" x="97.5" y="-1171.5" font-family="Helvetica,sans-Serif" font-size="10.00">+</text>
<text text-anchor="start" x="107.5" y="-1171.5" font-family="Helvetica,sans-Serif" font-size="10.00">std::string idn()</text>
<text text-anchor="start" x="97.5" y="-1155.5" font-family="Helvetica,sans-Serif" font-size="10.00">+</text>
<text text-anchor="start" x="107.5" y="-1155.5" font-family="Helvetica,sans-Serif" font-size="10.00">int opc()</text>
<text text-anchor="start" x="97.5" y="-1139.5" font-family="Helvetica,sans-Serif" font-size="10.00">+</text>
<text text-anchor="start" x="107.5" y="-1139.5" font-family="Helvetica,sans-Serif" font-size="10.00">int err()</text>
<text text-anchor="start" x="97.5" y="-1123.5" font-family="Helvetica,sans-Serif" font-size="10.00">+</text>
<text text-anchor="start" x="107.5" y="-1123.5" font-family="Helvetica,sans-Serif" font-size="10.00">void wait()</text>
<text text-anchor="start" x="107.5" y="-1107.5" font-family="Helvetica,sans-Serif" font-size="10.00">и 8 больше...</text>
<text text-anchor="start" x="99" y="-1091.5" font-family="Helvetica,sans-Serif" font-size="10.00">&#45;</text>
<text text-anchor="start" x="107.5" y="-1091.5" font-family="Helvetica,sans-Serif" font-size="10.00">int write(std::string</text>
<text text-anchor="start" x="107.5" y="-1079.5" font-family="Helvetica,sans-Serif" font-size="10.00"> command)</text>
<text text-anchor="start" x="99" y="-1063.5" font-family="Helvetica,sans-Serif" font-size="10.00">&#45;</text>
<text text-anchor="start" x="107.5" y="-1063.5" font-family="Helvetica,sans-Serif" font-size="10.00">std::string read()</text>
<text text-anchor="start" x="99" y="-1047.5" font-family="Helvetica,sans-Serif" font-size="10.00">&#45;</text>
<text text-anchor="start" x="107.5" y="-1047.5" font-family="Helvetica,sans-Serif" font-size="10.00">std::string query(std</text>
<text text-anchor="start" x="107.5" y="-1035.5" font-family="Helvetica,sans-Serif" font-size="10.00">::string command)</text>
<polygon fill="#666666" stroke="#666666" points="93.5,-1395 93.5,-1395 205.5,-1395 205.5,-1395 93.5,-1395"/>
<polygon fill="#666666" stroke="#666666" points="93.5,-1303 93.5,-1303 105.5,-1303 105.5,-1303 93.5,-1303"/>
<polygon fill="#666666" stroke="#666666" points="105.5,-1303 105.5,-1303 205.5,-1303 205.5,-1303 105.5,-1303"/>
<polygon fill="none" stroke="#666666" points="93.5,-1029 93.5,-1413 205.5,-1413 205.5,-1029 93.5,-1029"/>
</a>
</g>
</g>
<!-- Node3&#45;&gt;Node2 -->
<g id="edge2_Node000002_Node000003" class="edge">
<title>Node3&#45;&gt;Node2</title>
<g id="a_edge2_Node000002_Node000003"><a xlink:title=" ">
<path fill="none" stroke="#63b8ff" d="M117.46,-1018.42C113.56,-993.89 109.56,-968.73 105.62,-943.93"/>
<polygon fill="none" stroke="#63b8ff" points="114.16,-1018.94 119.18,-1028.27 121.07,-1017.84 114.16,-1018.94"/>
</a>
</g>
</g>
<!-- Node5 -->
<g id="Node000005" class="node">
<title>Node5</title>
<g id="a_Node000005"><a xlink:href="class_gen_device.html" target="_top" xlink:title=" ">
<polygon fill="white" stroke="none" points="300,-940 159,-940 159,-504 300,-504 300,-940"/>
<text text-anchor="start" x="206.25" y="-926.5" font-family="Helvetica,sans-Serif" font-size="10.00">GenDevice</text>
<text text-anchor="start" x="163.38" y="-910.5" font-family="Helvetica,sans-Serif" font-size="10.00">#</text>
<text text-anchor="start" x="173" y="-910.5" font-family="Helvetica,sans-Serif" font-size="10.00">float power</text>
<text text-anchor="start" x="163.38" y="-894.5" font-family="Helvetica,sans-Serif" font-size="10.00">#</text>
<text text-anchor="start" x="173" y="-894.5" font-family="Helvetica,sans-Serif" font-size="10.00">double start_freq</text>
<text text-anchor="start" x="163.38" y="-878.5" font-family="Helvetica,sans-Serif" font-size="10.00">#</text>
<text text-anchor="start" x="173" y="-878.5" font-family="Helvetica,sans-Serif" font-size="10.00">double stop_freq</text>
<text text-anchor="start" x="163.38" y="-862.5" font-family="Helvetica,sans-Serif" font-size="10.00">#</text>
<text text-anchor="start" x="173" y="-862.5" font-family="Helvetica,sans-Serif" font-size="10.00">double freq_step</text>
<text text-anchor="start" x="163.38" y="-846.5" font-family="Helvetica,sans-Serif" font-size="10.00">#</text>
<text text-anchor="start" x="173" y="-846.5" font-family="Helvetica,sans-Serif" font-size="10.00">double current_freq</text>
<text text-anchor="start" x="163.38" y="-830.5" font-family="Helvetica,sans-Serif" font-size="10.00">#</text>
<text text-anchor="start" x="173" y="-830.5" font-family="Helvetica,sans-Serif" font-size="10.00">int points</text>
<text text-anchor="start" x="163.38" y="-814.5" font-family="Helvetica,sans-Serif" font-size="10.00">#</text>
<text text-anchor="start" x="173" y="-814.5" font-family="Helvetica,sans-Serif" font-size="10.00">int current_point</text>
<text text-anchor="start" x="163" y="-798.5" font-family="Helvetica,sans-Serif" font-size="10.00">+</text>
<text text-anchor="start" x="173" y="-798.5" font-family="Helvetica,sans-Serif" font-size="10.00">GenDevice()=default</text>
<text text-anchor="start" x="163" y="-782.5" font-family="Helvetica,sans-Serif" font-size="10.00">+</text>
<text text-anchor="start" x="173" y="-782.5" font-family="Helvetica,sans-Serif" font-size="10.00">GenDevice(std::string</text>
<text text-anchor="start" x="173" y="-770.5" font-family="Helvetica,sans-Serif" font-size="10.00"> device_address)</text>
<text text-anchor="start" x="163" y="-754.5" font-family="Helvetica,sans-Serif" font-size="10.00">+</text>
<text text-anchor="start" x="173" y="-754.5" font-family="Helvetica,sans-Serif" font-size="10.00">virtual void preset()</text>
<text text-anchor="start" x="163" y="-738.5" font-family="Helvetica,sans-Serif" font-size="10.00">+</text>
<text text-anchor="start" x="173" y="-738.5" font-family="Helvetica,sans-Serif" font-size="10.00">virtual void set_freq</text>
<text text-anchor="start" x="173" y="-726.5" font-family="Helvetica,sans-Serif" font-size="10.00">(double freq)</text>
<text text-anchor="start" x="163" y="-710.5" font-family="Helvetica,sans-Serif" font-size="10.00">+</text>
<text text-anchor="start" x="173" y="-710.5" font-family="Helvetica,sans-Serif" font-size="10.00">virtual void set_freq</text>
<text text-anchor="start" x="173" y="-698.5" font-family="Helvetica,sans-Serif" font-size="10.00">_range(double start_freq,</text>
<text text-anchor="start" x="173" y="-686.5" font-family="Helvetica,sans-Serif" font-size="10.00"> double stop_freq, int points)</text>
<text text-anchor="start" x="163" y="-670.5" font-family="Helvetica,sans-Serif" font-size="10.00">+</text>
<text text-anchor="start" x="173" y="-670.5" font-family="Helvetica,sans-Serif" font-size="10.00">virtual void set_power</text>
<text text-anchor="start" x="173" y="-658.5" font-family="Helvetica,sans-Serif" font-size="10.00">(float power)</text>
<text text-anchor="start" x="163" y="-642.5" font-family="Helvetica,sans-Serif" font-size="10.00">+</text>
<text text-anchor="start" x="173" y="-642.5" font-family="Helvetica,sans-Serif" font-size="10.00">virtual void rf_off()</text>
<text text-anchor="start" x="163" y="-626.5" font-family="Helvetica,sans-Serif" font-size="10.00">+</text>
<text text-anchor="start" x="173" y="-626.5" font-family="Helvetica,sans-Serif" font-size="10.00">virtual void rf_on()</text>
<text text-anchor="start" x="163" y="-610.5" font-family="Helvetica,sans-Serif" font-size="10.00">+</text>
<text text-anchor="start" x="173" y="-610.5" font-family="Helvetica,sans-Serif" font-size="10.00">virtual int next_freq()</text>
<text text-anchor="start" x="163" y="-594.5" font-family="Helvetica,sans-Serif" font-size="10.00">+</text>
<text text-anchor="start" x="173" y="-594.5" font-family="Helvetica,sans-Serif" font-size="10.00">virtual int prev_freq()</text>
<text text-anchor="start" x="163" y="-578.5" font-family="Helvetica,sans-Serif" font-size="10.00">+</text>
<text text-anchor="start" x="173" y="-578.5" font-family="Helvetica,sans-Serif" font-size="10.00">virtual void move_to</text>
<text text-anchor="start" x="173" y="-566.5" font-family="Helvetica,sans-Serif" font-size="10.00">_start_freq()</text>
<text text-anchor="start" x="163" y="-550.5" font-family="Helvetica,sans-Serif" font-size="10.00">+</text>
<text text-anchor="start" x="173" y="-550.5" font-family="Helvetica,sans-Serif" font-size="10.00">virtual void move_to</text>
<text text-anchor="start" x="173" y="-538.5" font-family="Helvetica,sans-Serif" font-size="10.00">_stop_freq()</text>
<text text-anchor="start" x="163" y="-522.5" font-family="Helvetica,sans-Serif" font-size="10.00">+</text>
<text text-anchor="start" x="173" y="-522.5" font-family="Helvetica,sans-Serif" font-size="10.00">virtual double get</text>
<text text-anchor="start" x="173" y="-510.5" font-family="Helvetica,sans-Serif" font-size="10.00">_current_freq()</text>
<polygon fill="#666666" stroke="#666666" points="159,-922 159,-922 300,-922 300,-922 159,-922"/>
<polygon fill="#666666" stroke="#666666" points="159,-810 159,-810 171,-810 171,-810 159,-810"/>
<polygon fill="#666666" stroke="#666666" points="171,-810 171,-810 300,-810 300,-810 171,-810"/>
<polygon fill="none" stroke="#666666" points="159,-504 159,-940 300,-940 300,-504 159,-504"/>
</a>
</g>
</g>
<!-- Node3&#45;&gt;Node5 -->
<g id="edge5_Node000005_Node000003" class="edge">
<title>Node3&#45;&gt;Node5</title>
<g id="a_edge5_Node000005_Node000003"><a xlink:title=" ">
<path fill="none" stroke="#63b8ff" d="M181.92,-1018.58C186.1,-992.62 190.39,-965.94 194.61,-939.75"/>
<polygon fill="none" stroke="#63b8ff" points="178.34,-1017.84 180.2,-1028.27 185.25,-1018.95 178.34,-1017.84"/>
</a>
</g>
</g>
<!-- Node4 -->
<g id="Node000004" class="node">
<title>Node4</title>
<g id="a_Node000004"><a xlink:href="structvisa__config.html" target="_top" xlink:title="Структура конфигурации прибора">
<polygon fill="white" stroke="none" points="199,-1545 100,-1545 100,-1461 199,-1461 199,-1545"/>
<text text-anchor="start" x="125.88" y="-1531.5" font-family="Helvetica,sans-Serif" font-size="10.00">visa_config</text>
<text text-anchor="start" x="104" y="-1515.5" font-family="Helvetica,sans-Serif" font-size="10.00">+</text>
<text text-anchor="start" x="114" y="-1515.5" font-family="Helvetica,sans-Serif" font-size="10.00">std::string address</text>
<text text-anchor="start" x="104" y="-1499.5" font-family="Helvetica,sans-Serif" font-size="10.00">+</text>
<text text-anchor="start" x="114" y="-1499.5" font-family="Helvetica,sans-Serif" font-size="10.00">int timeout</text>
<text text-anchor="start" x="104" y="-1483.5" font-family="Helvetica,sans-Serif" font-size="10.00">+</text>
<text text-anchor="start" x="114" y="-1483.5" font-family="Helvetica,sans-Serif" font-size="10.00">char termination</text>
<text text-anchor="start" x="148" y="-1467.5" font-family="Helvetica,sans-Serif" font-size="10.00"> </text>
<polygon fill="#666666" stroke="#666666" points="100,-1527 100,-1527 199,-1527 199,-1527 100,-1527"/>
<polygon fill="#666666" stroke="#666666" points="100,-1479 100,-1479 112,-1479 112,-1479 100,-1479"/>
<polygon fill="#666666" stroke="#666666" points="112,-1479 112,-1479 199,-1479 199,-1479 112,-1479"/>
<polygon fill="none" stroke="#666666" points="100,-1461 100,-1545 199,-1545 199,-1461 100,-1461"/>
</a>
</g>
</g>
<!-- Node4&#45;&gt;Node3 -->
<g id="edge3_Node000003_Node000004" class="edge">
<title>Node4&#45;&gt;Node3</title>
<g id="a_edge3_Node000003_Node000004"><a xlink:title=" ">
<path fill="none" stroke="#63b8ff" d="M149.5,-1461.29C149.5,-1450.71 149.5,-1438.58 149.5,-1425.51"/>
<polygon fill="none" stroke="#63b8ff" points="149.5,-1425.62 145.5,-1419.62 149.5,-1413.62 153.5,-1419.62 149.5,-1425.62"/>
</a>
</g>
<text text-anchor="middle" x="181.38" y="-1433.5" font-family="Helvetica,sans-Serif" font-size="10.00" fill="grey"> &#45;device_config</text>
</g>
<!-- Node5&#45;&gt;Node1 -->
<g id="edge4_Node000001_Node000005" class="edge">
<title>Node5&#45;&gt;Node1</title>
<g id="a_edge4_Node000001_Node000005"><a xlink:title=" ">
<path fill="none" stroke="#63b8ff" d="M229.5,-504.32C229.5,-475.34 229.5,-445.64 229.5,-416.71"/>
<polygon fill="none" stroke="#63b8ff" points="229.5,-416.82 225.5,-410.82 229.5,-404.82 233.5,-410.82 229.5,-416.82"/>
</a>
</g>
<text text-anchor="middle" x="249.75" y="-424.5" font-family="Helvetica,sans-Serif" font-size="10.00" fill="grey"> &#45;ext_gen</text>
</g>
<!-- Node6 -->
<g id="Node000006" class="node">
<title>Node6</title>
<g id="a_Node000006"><a xlink:href="class_rbd_device.html" target="_top" xlink:title=" ">
<polygon fill="white" stroke="none" points="456.5,-992 318.5,-992 318.5,-452 456.5,-452 456.5,-992"/>
<text text-anchor="start" x="364.62" y="-978.5" font-family="Helvetica,sans-Serif" font-size="10.00">RbdDevice</text>
<text text-anchor="start" x="322.88" y="-962.5" font-family="Helvetica,sans-Serif" font-size="10.00">#</text>
<text text-anchor="start" x="332.5" y="-962.5" font-family="Helvetica,sans-Serif" font-size="10.00">std::vector&lt; float</text>
<text text-anchor="start" x="332.5" y="-950.5" font-family="Helvetica,sans-Serif" font-size="10.00"> &gt; start_angle</text>
<text text-anchor="start" x="322.88" y="-934.5" font-family="Helvetica,sans-Serif" font-size="10.00">#</text>
<text text-anchor="start" x="332.5" y="-934.5" font-family="Helvetica,sans-Serif" font-size="10.00">std::vector&lt; float</text>
<text text-anchor="start" x="332.5" y="-922.5" font-family="Helvetica,sans-Serif" font-size="10.00"> &gt; stop_angle</text>
<text text-anchor="start" x="322.88" y="-906.5" font-family="Helvetica,sans-Serif" font-size="10.00">#</text>
<text text-anchor="start" x="332.5" y="-906.5" font-family="Helvetica,sans-Serif" font-size="10.00">std::vector&lt; float</text>
<text text-anchor="start" x="332.5" y="-894.5" font-family="Helvetica,sans-Serif" font-size="10.00"> &gt; angle_step</text>
<text text-anchor="start" x="322.88" y="-878.5" font-family="Helvetica,sans-Serif" font-size="10.00">#</text>
<text text-anchor="start" x="332.5" y="-878.5" font-family="Helvetica,sans-Serif" font-size="10.00">std::vector&lt; float</text>
<text text-anchor="start" x="332.5" y="-866.5" font-family="Helvetica,sans-Serif" font-size="10.00"> &gt; current_angle</text>
<text text-anchor="start" x="322.88" y="-850.5" font-family="Helvetica,sans-Serif" font-size="10.00">#</text>
<text text-anchor="start" x="332.5" y="-850.5" font-family="Helvetica,sans-Serif" font-size="10.00">std::vector&lt; int &gt;</text>
<text text-anchor="start" x="332.5" y="-838.5" font-family="Helvetica,sans-Serif" font-size="10.00"> points</text>
<text text-anchor="start" x="322.88" y="-822.5" font-family="Helvetica,sans-Serif" font-size="10.00">#</text>
<text text-anchor="start" x="332.5" y="-822.5" font-family="Helvetica,sans-Serif" font-size="10.00">std::vector&lt; int &gt;</text>
<text text-anchor="start" x="332.5" y="-810.5" font-family="Helvetica,sans-Serif" font-size="10.00"> current_point</text>
<text text-anchor="start" x="322.5" y="-794.5" font-family="Helvetica,sans-Serif" font-size="10.00">+</text>
<text text-anchor="start" x="332.5" y="-794.5" font-family="Helvetica,sans-Serif" font-size="10.00">RbdDevice()=default</text>
<text text-anchor="start" x="322.5" y="-778.5" font-family="Helvetica,sans-Serif" font-size="10.00">+</text>
<text text-anchor="start" x="332.5" y="-778.5" font-family="Helvetica,sans-Serif" font-size="10.00">virtual bool is_connected()</text>
<text text-anchor="start" x="322.5" y="-762.5" font-family="Helvetica,sans-Serif" font-size="10.00">+</text>
<text text-anchor="start" x="332.5" y="-762.5" font-family="Helvetica,sans-Serif" font-size="10.00">virtual void move(float</text>
<text text-anchor="start" x="332.5" y="-750.5" font-family="Helvetica,sans-Serif" font-size="10.00"> pos, int axis_num)</text>
<text text-anchor="start" x="322.5" y="-734.5" font-family="Helvetica,sans-Serif" font-size="10.00">+</text>
<text text-anchor="start" x="332.5" y="-734.5" font-family="Helvetica,sans-Serif" font-size="10.00">virtual void stop()</text>
<text text-anchor="start" x="322.5" y="-718.5" font-family="Helvetica,sans-Serif" font-size="10.00">+</text>
<text text-anchor="start" x="332.5" y="-718.5" font-family="Helvetica,sans-Serif" font-size="10.00">virtual void set_angle</text>
<text text-anchor="start" x="332.5" y="-706.5" font-family="Helvetica,sans-Serif" font-size="10.00">(float angle, int axis_num)</text>
<text text-anchor="start" x="322.5" y="-690.5" font-family="Helvetica,sans-Serif" font-size="10.00">+</text>
<text text-anchor="start" x="332.5" y="-690.5" font-family="Helvetica,sans-Serif" font-size="10.00">virtual void set_angle</text>
<text text-anchor="start" x="332.5" y="-678.5" font-family="Helvetica,sans-Serif" font-size="10.00">_range(float start_angle,</text>
<text text-anchor="start" x="332.5" y="-666.5" font-family="Helvetica,sans-Serif" font-size="10.00"> float stop_angle, int points,</text>
<text text-anchor="start" x="332.5" y="-654.5" font-family="Helvetica,sans-Serif" font-size="10.00"> int axis_num)</text>
<text text-anchor="start" x="322.5" y="-638.5" font-family="Helvetica,sans-Serif" font-size="10.00">+</text>
<text text-anchor="start" x="332.5" y="-638.5" font-family="Helvetica,sans-Serif" font-size="10.00">virtual int next_angle</text>
<text text-anchor="start" x="332.5" y="-626.5" font-family="Helvetica,sans-Serif" font-size="10.00">(int axis_num)</text>
<text text-anchor="start" x="322.5" y="-610.5" font-family="Helvetica,sans-Serif" font-size="10.00">+</text>
<text text-anchor="start" x="332.5" y="-610.5" font-family="Helvetica,sans-Serif" font-size="10.00">virtual int prev_angle</text>
<text text-anchor="start" x="332.5" y="-598.5" font-family="Helvetica,sans-Serif" font-size="10.00">(int axis_num)</text>
<text text-anchor="start" x="322.5" y="-582.5" font-family="Helvetica,sans-Serif" font-size="10.00">+</text>
<text text-anchor="start" x="332.5" y="-582.5" font-family="Helvetica,sans-Serif" font-size="10.00">virtual void move_to</text>
<text text-anchor="start" x="332.5" y="-570.5" font-family="Helvetica,sans-Serif" font-size="10.00">_start_angle(int axis_num)</text>
<text text-anchor="start" x="322.5" y="-554.5" font-family="Helvetica,sans-Serif" font-size="10.00">+</text>
<text text-anchor="start" x="332.5" y="-554.5" font-family="Helvetica,sans-Serif" font-size="10.00">virtual void move_to</text>
<text text-anchor="start" x="332.5" y="-542.5" font-family="Helvetica,sans-Serif" font-size="10.00">_stop_angle(int axis_num)</text>
<text text-anchor="start" x="322.5" y="-526.5" font-family="Helvetica,sans-Serif" font-size="10.00">+</text>
<text text-anchor="start" x="332.5" y="-526.5" font-family="Helvetica,sans-Serif" font-size="10.00">virtual float get_pos</text>
<text text-anchor="start" x="332.5" y="-514.5" font-family="Helvetica,sans-Serif" font-size="10.00">(int axis_num)</text>
<text text-anchor="start" x="322.5" y="-498.5" font-family="Helvetica,sans-Serif" font-size="10.00">+</text>
<text text-anchor="start" x="332.5" y="-498.5" font-family="Helvetica,sans-Serif" font-size="10.00">virtual int get_axes</text>
<text text-anchor="start" x="332.5" y="-486.5" font-family="Helvetica,sans-Serif" font-size="10.00">_count()</text>
<text text-anchor="start" x="322.88" y="-470.5" font-family="Helvetica,sans-Serif" font-size="10.00">#</text>
<text text-anchor="start" x="332.5" y="-470.5" font-family="Helvetica,sans-Serif" font-size="10.00">void init_params(int</text>
<text text-anchor="start" x="332.5" y="-458.5" font-family="Helvetica,sans-Serif" font-size="10.00"> axis_count=0)</text>
<polygon fill="#666666" stroke="#666666" points="318.5,-974 318.5,-974 456.5,-974 456.5,-974 318.5,-974"/>
<polygon fill="#666666" stroke="#666666" points="318.5,-806 318.5,-806 330.5,-806 330.5,-806 318.5,-806"/>
<polygon fill="#666666" stroke="#666666" points="330.5,-806 330.5,-806 456.5,-806 456.5,-806 330.5,-806"/>
<polygon fill="none" stroke="#666666" points="318.5,-452 318.5,-992 456.5,-992 456.5,-452 318.5,-452"/>
</a>
</g>
</g>
<!-- Node6&#45;&gt;Node1 -->
<g id="edge6_Node000001_Node000006" class="edge">
<title>Node6&#45;&gt;Node1</title>
<g id="a_edge6_Node000001_Node000006"><a xlink:title=" ">
<path fill="none" stroke="#63b8ff" d="M318.53,-481.82C315.5,-471.74 312.48,-461.77 309.5,-452 305.25,-438.09 300.81,-423.76 296.3,-409.34"/>
<polygon fill="none" stroke="#63b8ff" points="296.35,-409.52 290.74,-404.99 292.76,-398.07 298.37,-402.6 296.35,-409.52"/>
</a>
</g>
<text text-anchor="middle" x="312.25" y="-424.5" font-family="Helvetica,sans-Serif" font-size="10.00" fill="grey"> &#45;rbd</text>
</g>
</g>
</svg>

<g id="navigator" transform="translate(0 0)" fill="#404254">
  <rect fill="#f2f5e9" fill-opacity="0.5" stroke="#606060" stroke-width=".5" x="0" y="0" width="60" height="60"/>
  <use id="zoomplus" xlink:href="#zoomPlus" x="17" y="9" onmousedown="handleZoom(evt,'in')"/>
  <use id="zoomminus" xlink:href="#zoomMin" x="42" y="9" onmousedown="handleZoom(evt,'out')"/>
  <use id="reset" xlink:href="#resetDef" x="30" y="36" onmousedown="handleReset()"/>
   <use id="arrowup" xlink:href="#arrowUp" x="0" y="0" onmousedown="handlePan(0,-1)"/>
  <use id="arrowright" xlink:href="#arrowRight" x="0" y="0" onmousedown="handlePan(1,0)"/>
  <use id="arrowdown" xlink:href="#arrowDown" x="0" y="0" onmousedown="handlePan(0,1)"/>
  <use id="arrowleft" xlink:href="#arrowLeft" x="0" y="0" onmousedown="handlePan(-1,0)"/>
</g>
<svg viewBox="0 0 15 15" width="100%" height="30px" preserveAspectRatio="xMaxYMin meet">
 <g id="arrow_out" transform="scale(0.3 0.3)">
  <a xlink:href="class_device_set__coll__graph_org.svg" target="_base">
   <rect id="button" ry="5" rx="5" y="6" x="6" height="38" width="38"
        fill="#f2f5e9" fill-opacity="0.5" stroke="#606060" stroke-width="1.0"/>
   <path id="arrow"
     d="M 11.500037,31.436501 C 11.940474,20.09759 22.043105,11.32322 32.158766,21.979434 L 37.068811,17.246167 C 37.068811,17.246167 37.088388,32 37.088388,32 L 22.160133,31.978069 C 22.160133,31.978069 26.997745,27.140456 26.997745,27.140456 C 18.528582,18.264221 13.291696,25.230495 11.500037,31.436501 z"
     style="fill:#404040;"/>
  </a>
 </g>
</svg>

<style type='text/css'>
<![CDATA[
[data-mouse-over-selected='false'] { opacity: 0.7; }
[data-mouse-over-selected='true']  { opacity: 1.0; }
]]>
</style>
<script type="application/ecmascript"><![CDATA[
document.addEventListener('DOMContentLoaded', (event) => {
  highlightEdges();
  highlightAdjacentNodes();
});
]]></script>
</svg>
