<?xml version="1.0" encoding="UTF-8" standalone="no"?>
<!DOCTYPE svg PUBLIC "-//W3C//DTD SVG 1.1//EN"
 "http://www.w3.org/Graphics/SVG/1.1/DTD/svg11.dtd">
<!-- Generated by graphviz version 8.1.0 (20230707.0739)
 -->
<!-- Title: TesartRbd::TesartRbd Pages: 1 -->
<!--zoomable 142 -->

<svg id="main" version="1.1" xmlns="http://www.w3.org/2000/svg" xmlns:xlink="http://www.w3.org/1999/xlink" xml:space="preserve" onload="init(evt)">
<style type="text/css"><![CDATA[
.node, .edge {opacity: 0.7;}
.node.selected, .edge.selected {opacity: 1;}
.edge:hover path { stroke: red; }
.edge:hover polygon { stroke: red; fill: red; }
]]></style>

<defs>
  <circle id="rim" cx="0" cy="0" r="7"/>
  <circle id="rim2" cx="0" cy="0" r="3.5"/>
  <g id="zoomPlus">
    <use xlink:href="#rim" fill="#404040"><set attributeName="fill" to="#808080" begin="zoomplus.mouseover" end="zoomplus.mouseout"/></use>
    <path d="M-4,0h8M0,-4v8" fill="none" stroke="white" stroke-width="1.5" pointer-events="none"/>
  </g>
  <g id="zoomMin">
    <use xlink:href="#rim" fill="#404040"><set attributeName="fill" to="#808080" begin="zoomminus.mouseover" end="zoomminus.mouseout"/></use>
    <path d="M-4,0h8" fill="none" stroke="white" stroke-width="1.5" pointer-events="none"/>
  </g>
  <g id="arrowUp" transform="translate(30 24)">
    <use xlink:href="#rim"/>
    <path pointer-events="none" fill="none" stroke="white" stroke-width="1.5" d="M0,-3.0v7 M-2.5,-0.5L0,-3.0L2.5,-0.5"/>
  </g>
  <g id="arrowRight" transform="rotate(90) translate(36 -43)">
    <use xlink:href="#rim"/>
    <path pointer-events="none" fill="none" stroke="white" stroke-width="1.5" d="M0,-3.0v7 M-2.5,-0.5L0,-3.0L2.5,-0.5"/>
  </g>
  <g id="arrowDown" transform="rotate(180) translate(-30 -48)">
    <use xlink:href="#rim"/>
    <path pointer-events="none" fill="none" stroke="white" stroke-width="1.5" d="M0,-3.0v7 M-2.5,-0.5L0,-3.0L2.5,-0.5"/>
  </g>
  <g id="arrowLeft" transform="rotate(270) translate(-36 17)">
    <use xlink:href="#rim"/>
    <path pointer-events="none" fill="none" stroke="white" stroke-width="1.5" d="M0,-3.0v7 M-2.5,-0.5L0,-3.0L2.5,-0.5"/>
  </g>
  <g id="resetDef">
    <use xlink:href="#rim2" fill="#404040"><set attributeName="fill" to="#808080" begin="reset.mouseover" end="reset.mouseout"/></use>
  </g>
</defs>
<script type="application/ecmascript">
var viewWidth = 557;
var viewHeight = 142;
var sectionId = 'dynsection-1';
</script>
<script type="application/ecmascript" xlink:href="svg.min.js"/>
<svg id="graph" class="graph">
<g id="viewport">
<title>TesartRbd::TesartRbd</title>
<!-- Node1 -->
<g id="Node000001" class="node">
<title>Node1</title>
<g id="a_Node000001"><a xlink:title="Конструктор, в который передаётся адрес (или список одресов, разделённых символом &#39;;&#39;)">
<polygon fill="#999999" stroke="#666666" points="110.5,-77 0,-77 0,-57 110.5,-57 110.5,-77"/>
<text text-anchor="middle" x="55.25" y="-63.5" font-family="Helvetica,sans-Serif" font-size="10.00">TesartRbd::TesartRbd</text>
</a>
</g>
</g>
<!-- Node2 -->
<g id="Node000002" class="node">
<title>Node2</title>
<g id="a_Node000002"><a xlink:href="class_rbd_device.html#a8ae479426b12f8fcd2a08c84acdc7bb5" target="_top" xlink:title="Метод инициализирующий параметры для требуемого количества осей">
<polygon fill="white" stroke="#666666" points="264.5,-134 146.5,-134 146.5,-114 264.5,-114 264.5,-134"/>
<text text-anchor="middle" x="205.5" y="-120.5" font-family="Helvetica,sans-Serif" font-size="10.00">RbdDevice::init_params</text>
</a>
</g>
</g>
<!-- Node1&#45;&gt;Node2 -->
<g id="edge1_Node000001_Node000002" class="edge">
<title>Node1&#45;&gt;Node2</title>
<g id="a_edge1_Node000001_Node000002"><a xlink:title=" ">
<path fill="none" stroke="#63b8ff" d="M83.44,-77.45C106.88,-86.47 140.95,-99.57 166.98,-109.57"/>
<polygon fill="#63b8ff" stroke="#63b8ff" points="165.64,-113.19 176.23,-113.52 168.15,-106.66 165.64,-113.19"/>
</a>
</g>
</g>
<!-- Node3 -->
<g id="Node000003" class="node">
<title>Node3</title>
<g id="a_Node000003"><a xlink:href="class_logger.html#af7709105c2708359b7b082218f4cc3e1" target="_top" xlink:title="Метод, осуществляющий логирование">
<polygon fill="white" stroke="#666666" points="377.62,-77 313.62,-77 313.62,-57 377.62,-57 377.62,-77"/>
<text text-anchor="middle" x="345.62" y="-63.5" font-family="Helvetica,sans-Serif" font-size="10.00">Logger::log</text>
</a>
</g>
</g>
<!-- Node1&#45;&gt;Node3 -->
<g id="edge2_Node000001_Node000003" class="edge">
<title>Node1&#45;&gt;Node3</title>
<g id="a_edge2_Node000001_Node000003"><a xlink:title=" ">
<path fill="none" stroke="#63b8ff" d="M110.83,-67C166.54,-67 251.83,-67 302.53,-67"/>
<polygon fill="#63b8ff" stroke="#63b8ff" points="302.41,-70.5 312.41,-67 302.41,-63.5 302.41,-70.5"/>
</a>
</g>
</g>
<!-- Node8 -->
<g id="Node000008" class="node">
<title>Node8</title>
<g id="a_Node000008"><a xlink:href="namespacestring__utils.html#a95dbb7f33d4ea2396617ddd7953302d0" target="_top" xlink:title="Деление строки на вектор строк по заданному делителю">
<polygon fill="white" stroke="#666666" points="249.12,-58 161.88,-58 161.88,-38 249.12,-38 249.12,-58"/>
<text text-anchor="middle" x="205.5" y="-44.5" font-family="Helvetica,sans-Serif" font-size="10.00">string_utils::split</text>
</a>
</g>
</g>
<!-- Node1&#45;&gt;Node8 -->
<g id="edge7_Node000001_Node000008" class="edge">
<title>Node1&#45;&gt;Node8</title>
<g id="a_edge7_Node000001_Node000008"><a xlink:title=" ">
<path fill="none" stroke="#63b8ff" d="M110.61,-60.03C123.78,-58.35 137.85,-56.54 150.98,-54.86"/>
<polygon fill="#63b8ff" stroke="#63b8ff" points="151.28,-58.22 160.75,-53.48 150.39,-51.28 151.28,-58.22"/>
</a>
</g>
</g>
<!-- Node9 -->
<g id="Node000009" class="node">
<title>Node9</title>
<g id="a_Node000009"><a xlink:href="class_tesart_rbd.html#affbded46e17aa303601ba7ef885107b8" target="_top" xlink:title="Запрос статуса оси ОПУ по номеру оси">
<polygon fill="white" stroke="#666666" points="252.12,-20 158.88,-20 158.88,0 252.12,0 252.12,-20"/>
<text text-anchor="middle" x="205.5" y="-6.5" font-family="Helvetica,sans-Serif" font-size="10.00">TesartRbd::status</text>
</a>
</g>
</g>
<!-- Node1&#45;&gt;Node9 -->
<g id="edge8_Node000001_Node000009" class="edge">
<title>Node1&#45;&gt;Node9</title>
<g id="a_edge8_Node000001_Node000009"><a xlink:title=" ">
<path fill="none" stroke="#63b8ff" d="M79.41,-56.63C97.52,-48.67 123.41,-37.63 146.5,-29 151.03,-27.31 155.8,-25.61 160.56,-23.97"/>
<polygon fill="#63b8ff" stroke="#63b8ff" points="161.55,-27 169.91,-20.49 159.31,-20.36 161.55,-27"/>
</a>
</g>
</g>
<!-- Node4 -->
<g id="Node000004" class="node">
<title>Node4</title>
<g id="a_Node000004"><a xlink:href="logger_8hpp.html#a49284b7befa8e31f81e01ee8f3735dd0" target="_top" xlink:title="Функция, которая снимает значение текущего времени и конвертирует его в строку с заданным шаблоном.">
<polygon fill="white" stroke="#666666" points="532.38,-134 443.62,-134 443.62,-114 532.38,-114 532.38,-134"/>
<text text-anchor="middle" x="488" y="-120.5" font-family="Helvetica,sans-Serif" font-size="10.00">get_current_time</text>
</a>
</g>
</g>
<!-- Node3&#45;&gt;Node4 -->
<g id="edge3_Node000003_Node000004" class="edge">
<title>Node3&#45;&gt;Node4</title>
<g id="a_edge3_Node000003_Node000004"><a xlink:title=" ">
<path fill="none" stroke="#63b8ff" d="M366.7,-77.47C382.71,-85.58 405.83,-96.78 426.75,-105 431.24,-106.76 435.96,-108.48 440.7,-110.11"/>
<polygon fill="#63b8ff" stroke="#63b8ff" points="439.44,-113.72 450.04,-113.55 441.65,-107.07 439.44,-113.72"/>
</a>
</g>
</g>
<!-- Node5 -->
<g id="Node000005" class="node">
<title>Node5</title>
<g id="a_Node000005"><a xlink:href="class_logger.html#a6edb7b263f080d417b82a537ed50fee4" target="_top" xlink:title="Возвращает тег в зависимости от уровня логирования и от назначения тега.">
<polygon fill="white" stroke="#666666" points="529.75,-96 446.25,-96 446.25,-76 529.75,-76 529.75,-96"/>
<text text-anchor="middle" x="488" y="-82.5" font-family="Helvetica,sans-Serif" font-size="10.00">Logger::get_tag</text>
</a>
</g>
</g>
<!-- Node3&#45;&gt;Node5 -->
<g id="edge4_Node000003_Node000005" class="edge">
<title>Node3&#45;&gt;Node5</title>
<g id="a_edge4_Node000003_Node000005"><a xlink:title=" ">
<path fill="none" stroke="#63b8ff" d="M377.78,-71.22C394.6,-73.49 415.81,-76.36 435.06,-78.97"/>
<polygon fill="#63b8ff" stroke="#63b8ff" points="434.43,-82.55 444.81,-80.42 435.37,-75.61 434.43,-82.55"/>
</a>
</g>
</g>
<!-- Node6 -->
<g id="Node000006" class="node">
<title>Node6</title>
<g id="a_Node000006"><a xlink:href="class_logger.html#a4825613142ebb093bf8fa26f21f7f3fc" target="_top" xlink:title="Метод, который выводит сообщение в консоль.">
<polygon fill="white" stroke="#666666" points="549.25,-58 426.75,-58 426.75,-38 549.25,-38 549.25,-58"/>
<text text-anchor="middle" x="488" y="-44.5" font-family="Helvetica,sans-Serif" font-size="10.00">Logger::print_to_console</text>
</a>
</g>
</g>
<!-- Node3&#45;&gt;Node6 -->
<g id="edge5_Node000003_Node000006" class="edge">
<title>Node3&#45;&gt;Node6</title>
<g id="a_edge5_Node000003_Node000006"><a xlink:title=" ">
<path fill="none" stroke="#63b8ff" d="M377.78,-62.78C389.06,-61.26 402.31,-59.46 415.62,-57.66"/>
<polygon fill="#63b8ff" stroke="#63b8ff" points="415.83,-61.03 425.27,-56.22 414.9,-54.09 415.83,-61.03"/>
</a>
</g>
</g>
<!-- Node7 -->
<g id="Node000007" class="node">
<title>Node7</title>
<g id="a_Node000007"><a xlink:href="class_logger.html#a999bb33f7cf079cb98f32fae6016a2f3" target="_top" xlink:title="Метод, который записывает сообщение в файл.">
<polygon fill="white" stroke="#666666" points="538.38,-20 437.62,-20 437.62,0 538.38,0 538.38,-20"/>
<text text-anchor="middle" x="488" y="-6.5" font-family="Helvetica,sans-Serif" font-size="10.00">Logger::print_to_file</text>
</a>
</g>
</g>
<!-- Node3&#45;&gt;Node7 -->
<g id="edge6_Node000003_Node000007" class="edge">
<title>Node3&#45;&gt;Node7</title>
<g id="a_edge6_Node000003_Node000007"><a xlink:title=" ">
<path fill="none" stroke="#63b8ff" d="M366.7,-56.53C382.71,-48.42 405.83,-37.22 426.75,-29 431.24,-27.24 435.96,-25.52 440.7,-23.89"/>
<polygon fill="#63b8ff" stroke="#63b8ff" points="441.65,-26.93 450.04,-20.45 439.44,-20.28 441.65,-26.93"/>
</a>
</g>
</g>
<!-- Node9&#45;&gt;Node3 -->
<g id="edge9_Node000009_Node000003" class="edge">
<title>Node9&#45;&gt;Node3</title>
<g id="a_edge9_Node000009_Node000003"><a xlink:title=" ">
<path fill="none" stroke="#63b8ff" d="M240.8,-20.44C248.66,-23.05 256.92,-25.98 264.5,-29 281.46,-35.77 299.91,-44.42 314.82,-51.76"/>
<polygon fill="#63b8ff" stroke="#63b8ff" points="313.01,-55.27 323.52,-56.6 316.13,-49 313.01,-55.27"/>
</a>
</g>
</g>
<!-- Node10 -->
<g id="Node000010" class="node">
<title>Node10</title>
<g id="a_Node000010"><a xlink:href="namespacestring__utils.html#a9fe07494ccc7914840b0d615974bc802" target="_top" xlink:title="Делит строку на две части по требуемому символу и возвращает содержимое правой части">
<polygon fill="white" stroke="#666666" points="390.75,-20 300.5,-20 300.5,0 390.75,0 390.75,-20"/>
<text text-anchor="middle" x="345.62" y="-6.5" font-family="Helvetica,sans-Serif" font-size="10.00">string_utils::lstrip</text>
</a>
</g>
</g>
<!-- Node9&#45;&gt;Node10 -->
<g id="edge10_Node000009_Node000010" class="edge">
<title>Node9&#45;&gt;Node10</title>
<g id="a_edge10_Node000009_Node000010"><a xlink:title=" ">
<path fill="none" stroke="#63b8ff" d="M252.49,-10C264.27,-10 277.06,-10 289.25,-10"/>
<polygon fill="#63b8ff" stroke="#63b8ff" points="289.24,-13.5 299.24,-10 289.24,-6.5 289.24,-13.5"/>
</a>
</g>
</g>
</g>
</svg>

<g id="navigator" transform="translate(0 0)" fill="#404254">
  <rect fill="#f2f5e9" fill-opacity="0.5" stroke="#606060" stroke-width=".5" x="0" y="0" width="60" height="60"/>
  <use id="zoomplus" xlink:href="#zoomPlus" x="17" y="9" onmousedown="handleZoom(evt,'in')"/>
  <use id="zoomminus" xlink:href="#zoomMin" x="42" y="9" onmousedown="handleZoom(evt,'out')"/>
  <use id="reset" xlink:href="#resetDef" x="30" y="36" onmousedown="handleReset()"/>
   <use id="arrowup" xlink:href="#arrowUp" x="0" y="0" onmousedown="handlePan(0,-1)"/>
  <use id="arrowright" xlink:href="#arrowRight" x="0" y="0" onmousedown="handlePan(1,0)"/>
  <use id="arrowdown" xlink:href="#arrowDown" x="0" y="0" onmousedown="handlePan(0,1)"/>
  <use id="arrowleft" xlink:href="#arrowLeft" x="0" y="0" onmousedown="handlePan(-1,0)"/>
</g>
<svg viewBox="0 0 15 15" width="100%" height="30px" preserveAspectRatio="xMaxYMin meet">
 <g id="arrow_out" transform="scale(0.3 0.3)">
  <a xlink:href="class_tesart_rbd_a592c41abaa2f8d44ffecb17434644d51_cgraph_org.svg" target="_base">
   <rect id="button" ry="5" rx="5" y="6" x="6" height="38" width="38"
        fill="#f2f5e9" fill-opacity="0.5" stroke="#606060" stroke-width="1.0"/>
   <path id="arrow"
     d="M 11.500037,31.436501 C 11.940474,20.09759 22.043105,11.32322 32.158766,21.979434 L 37.068811,17.246167 C 37.068811,17.246167 37.088388,32 37.088388,32 L 22.160133,31.978069 C 22.160133,31.978069 26.997745,27.140456 26.997745,27.140456 C 18.528582,18.264221 13.291696,25.230495 11.500037,31.436501 z"
     style="fill:#404040;"/>
  </a>
 </g>
</svg>

<style type='text/css'>
<![CDATA[
[data-mouse-over-selected='false'] { opacity: 0.7; }
[data-mouse-over-selected='true']  { opacity: 1.0; }
]]>
</style>
<script type="application/ecmascript"><![CDATA[
document.addEventListener('DOMContentLoaded', (event) => {
  highlightEdges();
  highlightAdjacentNodes();
});
]]></script>
</svg>
