<?xml version="1.0" encoding="UTF-8" standalone="no"?>
<!DOCTYPE svg PUBLIC "-//W3C//DTD SVG 1.1//EN"
 "http://www.w3.org/Graphics/SVG/1.1/DTD/svg11.dtd">
<!-- Generated by graphviz version 8.1.0 (20230707.0739)
 -->
<!-- Title: VisaDevice::send_wait_err Pages: 1 -->
<!--zoomable 986 -->

<svg id="main" version="1.1" xmlns="http://www.w3.org/2000/svg" xmlns:xlink="http://www.w3.org/1999/xlink" xml:space="preserve" onload="init(evt)">
<style type="text/css"><![CDATA[
.node, .edge {opacity: 0.7;}
.node.selected, .edge.selected {opacity: 1;}
.edge:hover path { stroke: red; }
.edge:hover polygon { stroke: red; fill: red; }
]]></style>

<defs>
  <circle id="rim" cx="0" cy="0" r="7"/>
  <circle id="rim2" cx="0" cy="0" r="3.5"/>
  <g id="zoomPlus">
    <use xlink:href="#rim" fill="#404040"><set attributeName="fill" to="#808080" begin="zoomplus.mouseover" end="zoomplus.mouseout"/></use>
    <path d="M-4,0h8M0,-4v8" fill="none" stroke="white" stroke-width="1.5" pointer-events="none"/>
  </g>
  <g id="zoomMin">
    <use xlink:href="#rim" fill="#404040"><set attributeName="fill" to="#808080" begin="zoomminus.mouseover" end="zoomminus.mouseout"/></use>
    <path d="M-4,0h8" fill="none" stroke="white" stroke-width="1.5" pointer-events="none"/>
  </g>
  <g id="arrowUp" transform="translate(30 24)">
    <use xlink:href="#rim"/>
    <path pointer-events="none" fill="none" stroke="white" stroke-width="1.5" d="M0,-3.0v7 M-2.5,-0.5L0,-3.0L2.5,-0.5"/>
  </g>
  <g id="arrowRight" transform="rotate(90) translate(36 -43)">
    <use xlink:href="#rim"/>
    <path pointer-events="none" fill="none" stroke="white" stroke-width="1.5" d="M0,-3.0v7 M-2.5,-0.5L0,-3.0L2.5,-0.5"/>
  </g>
  <g id="arrowDown" transform="rotate(180) translate(-30 -48)">
    <use xlink:href="#rim"/>
    <path pointer-events="none" fill="none" stroke="white" stroke-width="1.5" d="M0,-3.0v7 M-2.5,-0.5L0,-3.0L2.5,-0.5"/>
  </g>
  <g id="arrowLeft" transform="rotate(270) translate(-36 17)">
    <use xlink:href="#rim"/>
    <path pointer-events="none" fill="none" stroke="white" stroke-width="1.5" d="M0,-3.0v7 M-2.5,-0.5L0,-3.0L2.5,-0.5"/>
  </g>
  <g id="resetDef">
    <use xlink:href="#rim2" fill="#404040"><set attributeName="fill" to="#808080" begin="reset.mouseover" end="reset.mouseout"/></use>
  </g>
</defs>
<script type="application/ecmascript">
var viewWidth = 309;
var viewHeight = 986;
var sectionId = 'dynsection-27';
</script>
<script type="application/ecmascript" xlink:href="svg.min.js"/>
<svg id="graph" class="graph">
<g id="viewport">
<title>VisaDevice::send_wait_err</title>
<!-- Node1 -->
<g id="Node000001" class="node">
<title>Node1</title>
<g id="a_Node000001"><a xlink:title="Отправка данных на прибор и чтение ответа от прибора. Также, ожидается завершение выполнения действий...">
<polygon fill="#999999" stroke="#666666" points="301.25,-493 171.25,-493 171.25,-473 301.25,-473 301.25,-493"/>
<text text-anchor="middle" x="236.25" y="-479.5" font-family="Helvetica,sans-Serif" font-size="10.00">VisaDevice::send_wait_err</text>
</a>
</g>
</g>
<!-- Node2 -->
<g id="Node000002" class="node">
<title>Node2</title>
<g id="a_Node000002"><a xlink:href="class_keysight_m9807_a.html#a85c78a42ccfda3bb9b69cb60b79358f4" target="_top" xlink:title="Настройка ВАЦ для измерения">
<polygon fill="white" stroke="#666666" points="135.25,-978 0,-978 0,-958 135.25,-958 135.25,-978"/>
<text text-anchor="middle" x="67.62" y="-964.5" font-family="Helvetica,sans-Serif" font-size="10.00">KeysightM9807A::configure</text>
</a>
</g>
</g>
<!-- Node1&#45;&gt;Node2 -->
<g id="edge1_Node000001_Node000002" class="edge">
<title>Node1&#45;&gt;Node2</title>
<g id="a_edge1_Node000001_Node000002"><a xlink:title=" ">
<path fill="none" stroke="#63b8ff" d="M233.54,-504.42C226.52,-586.91 197.36,-882.62 135.25,-949 132.04,-952.43 128.27,-955.25 124.17,-957.57"/>
<polygon fill="#63b8ff" stroke="#63b8ff" points="237.11,-504.72 234.44,-494.47 230.13,-504.14 237.11,-504.72"/>
</a>
</g>
</g>
<!-- Node3 -->
<g id="Node000003" class="node">
<title>Node3</title>
<g id="a_Node000003"><a xlink:href="class_planar_s50244.html#a9092c8dda103df83d5e407e768b887b7" target="_top" xlink:title="Настройка ВАЦ для измерения">
<polygon fill="white" stroke="#666666" points="128.5,-940 6.75,-940 6.75,-920 128.5,-920 128.5,-940"/>
<text text-anchor="middle" x="67.62" y="-926.5" font-family="Helvetica,sans-Serif" font-size="10.00">PlanarS50244::configure</text>
</a>
</g>
</g>
<!-- Node1&#45;&gt;Node3 -->
<g id="edge2_Node000001_Node000003" class="edge">
<title>Node1&#45;&gt;Node3</title>
<g id="a_edge2_Node000001_Node000003"><a xlink:title=" ">
<path fill="none" stroke="#63b8ff" d="M233.12,-504.17C224.89,-581.97 192.71,-850.7 135.25,-911 132.01,-914.4 128.22,-917.2 124.11,-919.51"/>
<polygon fill="#63b8ff" stroke="#63b8ff" points="236.69,-504.69 234.24,-494.38 229.73,-503.97 236.69,-504.69"/>
</a>
</g>
</g>
<!-- Node4 -->
<g id="Node000004" class="node">
<title>Node4</title>
<g id="a_Node000004"><a xlink:href="class_keysight_m9807_a.html#ad492f043e51d3e760209af6d59fe7829" target="_top" xlink:title="Создание необходимых трасс, в зависимости от того, используется ли внешний генератор">
<polygon fill="white" stroke="#666666" points="129.25,-902 6,-902 6,-870 129.25,-870 129.25,-902"/>
<text text-anchor="start" x="14" y="-888.5" font-family="Helvetica,sans-Serif" font-size="10.00">KeysightM9807A::create</text>
<text text-anchor="middle" x="67.62" y="-876.5" font-family="Helvetica,sans-Serif" font-size="10.00">_traces</text>
</a>
</g>
</g>
<!-- Node1&#45;&gt;Node4 -->
<g id="edge3_Node000001_Node000004" class="edge">
<title>Node1&#45;&gt;Node4</title>
<g id="a_edge3_Node000001_Node000004"><a xlink:title=" ">
<path fill="none" stroke="#63b8ff" d="M235.97,-504.14C236.96,-566.97 231.29,-754.8 135.25,-861 132.27,-864.3 128.81,-867.16 125.06,-869.65"/>
<polygon fill="#63b8ff" stroke="#63b8ff" points="239.45,-504.22 235.71,-494.3 232.45,-504.38 239.45,-504.22"/>
</a>
</g>
</g>
<!-- Node5 -->
<g id="Node000005" class="node">
<title>Node5</title>
<g id="a_Node000005"><a xlink:href="class_planar_s50244.html#a665b4601aa0b252835220280da8d0635" target="_top" xlink:title="Создание необходимых трасс, в зависимости от того, используется ли внешний генератор">
<polygon fill="white" stroke="#666666" points="122.5,-852 12.75,-852 12.75,-820 122.5,-820 122.5,-852"/>
<text text-anchor="start" x="20.75" y="-838.5" font-family="Helvetica,sans-Serif" font-size="10.00">PlanarS50244::create</text>
<text text-anchor="middle" x="67.62" y="-826.5" font-family="Helvetica,sans-Serif" font-size="10.00">_traces</text>
</a>
</g>
</g>
<!-- Node1&#45;&gt;Node5 -->
<g id="edge4_Node000001_Node000005" class="edge">
<title>Node1&#45;&gt;Node5</title>
<g id="a_edge4_Node000001_Node000005"><a xlink:title=" ">
<path fill="none" stroke="#63b8ff" d="M234.94,-504.33C232.96,-561.71 219.72,-721.03 135.25,-811 131.61,-814.87 127.32,-818.15 122.69,-820.92"/>
<polygon fill="#63b8ff" stroke="#63b8ff" points="238.46,-504.51 235.22,-494.42 231.47,-504.33 238.46,-504.51"/>
</a>
</g>
</g>
<!-- Node6 -->
<g id="Node000006" class="node">
<title>Node6</title>
<g id="a_Node000006"><a xlink:href="class_keysight_m9807_a.html#ae9df428776abd1cc65fa24e57fb713e1" target="_top" xlink:title="Запуск измерения">
<polygon fill="white" stroke="#666666" points="122.12,-802 13.12,-802 13.12,-782 122.12,-782 122.12,-802"/>
<text text-anchor="middle" x="67.62" y="-788.5" font-family="Helvetica,sans-Serif" font-size="10.00">KeysightM9807A::init</text>
</a>
</g>
</g>
<!-- Node1&#45;&gt;Node6 -->
<g id="edge5_Node000001_Node000006" class="edge">
<title>Node1&#45;&gt;Node6</title>
<g id="a_edge5_Node000001_Node000006"><a xlink:title=" ">
<path fill="none" stroke="#63b8ff" d="M234.36,-503.98C230.96,-557.08 214.53,-697.91 135.25,-773 131.49,-776.56 127.12,-779.45 122.44,-781.81"/>
<polygon fill="#63b8ff" stroke="#63b8ff" points="237.9,-504.42 234.95,-494.24 230.91,-504.04 237.9,-504.42"/>
</a>
</g>
</g>
<!-- Node7 -->
<g id="Node000007" class="node">
<title>Node7</title>
<g id="a_Node000007"><a xlink:href="class_keysight_m9807_a.html#ad48b95d00b8a2ecee1e95dc300d25203" target="_top" xlink:title="Инициализация канала для измерений">
<polygon fill="white" stroke="#666666" points="122.12,-764 13.12,-764 13.12,-732 122.12,-732 122.12,-764"/>
<text text-anchor="start" x="21.12" y="-750.5" font-family="Helvetica,sans-Serif" font-size="10.00">KeysightM9807A::init</text>
<text text-anchor="middle" x="67.62" y="-738.5" font-family="Helvetica,sans-Serif" font-size="10.00">_channel</text>
</a>
</g>
</g>
<!-- Node1&#45;&gt;Node7 -->
<g id="edge6_Node000001_Node000007" class="edge">
<title>Node1&#45;&gt;Node7</title>
<g id="a_edge6_Node000001_Node000007"><a xlink:title=" ">
<path fill="none" stroke="#63b8ff" d="M232.22,-503.98C224.51,-549.98 199.96,-660.57 135.25,-723 131.43,-726.69 127.01,-729.84 122.3,-732.54"/>
<polygon fill="#63b8ff" stroke="#63b8ff" points="235.81,-504.7 233.9,-494.28 228.89,-503.61 235.81,-504.7"/>
</a>
</g>
</g>
<!-- Node8 -->
<g id="Node000008" class="node">
<title>Node8</title>
<g id="a_Node000008"><a xlink:href="class_planar_s50244.html#a152d5516596ddd1f784ffdd28699c9c3" target="_top" xlink:title="Инициализация канала для измерений">
<polygon fill="white" stroke="#666666" points="115.38,-714 19.88,-714 19.88,-682 115.38,-682 115.38,-714"/>
<text text-anchor="start" x="27.88" y="-700.5" font-family="Helvetica,sans-Serif" font-size="10.00">PlanarS50244::init</text>
<text text-anchor="middle" x="67.62" y="-688.5" font-family="Helvetica,sans-Serif" font-size="10.00">_channel</text>
</a>
</g>
</g>
<!-- Node1&#45;&gt;Node8 -->
<g id="edge7_Node000001_Node000008" class="edge">
<title>Node1&#45;&gt;Node8</title>
<g id="a_edge7_Node000001_Node000008"><a xlink:title=" ">
<path fill="none" stroke="#63b8ff" d="M229.71,-503.74C218.38,-542.35 188.97,-625.63 135.25,-673 129.6,-677.98 122.86,-682.01 115.87,-685.26"/>
<polygon fill="#63b8ff" stroke="#63b8ff" points="233.32,-504.85 232.66,-494.28 226.58,-502.95 233.32,-504.85"/>
</a>
</g>
</g>
<!-- Node9 -->
<g id="Node000009" class="node">
<title>Node9</title>
<g id="a_Node000009"><a xlink:href="class_keysight_m9807_a.html#ad4dc40466fecabae451e88d763692076" target="_top" xlink:title="Отключает все порты">
<polygon fill="white" stroke="#666666" points="125.88,-664 9.38,-664 9.38,-644 125.88,-644 125.88,-664"/>
<text text-anchor="middle" x="67.62" y="-650.5" font-family="Helvetica,sans-Serif" font-size="10.00">KeysightM9807A::rf_off</text>
</a>
</g>
</g>
<!-- Node1&#45;&gt;Node9 -->
<g id="edge8_Node000001_Node000009" class="edge">
<title>Node1&#45;&gt;Node9</title>
<g id="a_edge8_Node000001_Node000009"><a xlink:title=" ">
<path fill="none" stroke="#63b8ff" d="M227.35,-503.52C213.66,-536.32 182.4,-600.38 135.25,-635 130.6,-638.42 125.35,-641.22 119.89,-643.52"/>
<polygon fill="#63b8ff" stroke="#63b8ff" points="230.97,-504.9 231.45,-494.32 224.47,-502.29 230.97,-504.9"/>
</a>
</g>
</g>
<!-- Node10 -->
<g id="Node000010" class="node">
<title>Node10</title>
<g id="a_Node000010"><a xlink:href="class_planar_s50244.html#a3099a6c00551bb147ff03388dceb4743" target="_top" xlink:title="Отключает все порты">
<polygon fill="white" stroke="#666666" points="119.12,-626 16.12,-626 16.12,-606 119.12,-606 119.12,-626"/>
<text text-anchor="middle" x="67.62" y="-612.5" font-family="Helvetica,sans-Serif" font-size="10.00">PlanarS50244::rf_off</text>
</a>
</g>
</g>
<!-- Node1&#45;&gt;Node10 -->
<g id="edge9_Node000001_Node000010" class="edge">
<title>Node1&#45;&gt;Node10</title>
<g id="a_edge9_Node000001_Node000010"><a xlink:title=" ">
<path fill="none" stroke="#63b8ff" d="M223.44,-502.32C206.87,-527.79 174.33,-572.26 135.25,-597 129.86,-600.41 123.85,-603.22 117.7,-605.54"/>
<polygon fill="#63b8ff" stroke="#63b8ff" points="226.77,-504.59 229.17,-494.27 220.86,-500.85 226.77,-504.59"/>
</a>
</g>
</g>
<!-- Node11 -->
<g id="Node000011" class="node">
<title>Node11</title>
<g id="a_Node000011"><a xlink:href="class_keysight_m9807_a.html#a861c82a08c49f54dd245db73d87181c8" target="_top" xlink:title="Отключает выбранный порт">
<polygon fill="white" stroke="#666666" points="125.88,-588 9.38,-588 9.38,-568 125.88,-568 125.88,-588"/>
<text text-anchor="middle" x="67.62" y="-574.5" font-family="Helvetica,sans-Serif" font-size="10.00">KeysightM9807A::rf_off</text>
</a>
</g>
</g>
<!-- Node1&#45;&gt;Node11 -->
<g id="edge10_Node000001_Node000011" class="edge">
<title>Node1&#45;&gt;Node11</title>
<g id="a_edge10_Node000001_Node000011"><a xlink:title=" ">
<path fill="none" stroke="#63b8ff" d="M216.62,-500.6C197.54,-517.75 166.37,-543.43 135.25,-559 128.58,-562.34 121.23,-565.17 113.93,-567.55"/>
<polygon fill="#63b8ff" stroke="#63b8ff" points="218.48,-503.73 223.48,-494.39 213.75,-498.57 218.48,-503.73"/>
</a>
</g>
</g>
<!-- Node12 -->
<g id="Node000012" class="node">
<title>Node12</title>
<g id="a_Node000012"><a xlink:href="class_planar_s50244.html#a7cef78ad66899bf7d1ebc675bbacf18d" target="_top" xlink:title="Отключает выбранный порт">
<polygon fill="white" stroke="#666666" points="119.12,-550 16.12,-550 16.12,-530 119.12,-530 119.12,-550"/>
<text text-anchor="middle" x="67.62" y="-536.5" font-family="Helvetica,sans-Serif" font-size="10.00">PlanarS50244::rf_off</text>
</a>
</g>
</g>
<!-- Node1&#45;&gt;Node12 -->
<g id="edge11_Node000001_Node000012" class="edge">
<title>Node1&#45;&gt;Node12</title>
<g id="a_edge11_Node000001_Node000012"><a xlink:title=" ">
<path fill="none" stroke="#63b8ff" d="M199.57,-497.41C180.61,-504.85 156.82,-513.84 135.25,-521 126.35,-523.96 116.68,-526.87 107.55,-529.5"/>
<polygon fill="#63b8ff" stroke="#63b8ff" points="200.56,-500.38 208.57,-493.45 197.98,-493.88 200.56,-500.38"/>
</a>
</g>
</g>
<!-- Node13 -->
<g id="Node000013" class="node">
<title>Node13</title>
<g id="a_Node000013"><a xlink:href="class_keysight_m9807_a.html#adf9e166699c89ec3c7f53fae5ec81b0c" target="_top" xlink:title="Включает все порты">
<polygon fill="white" stroke="#666666" points="126.25,-512 9,-512 9,-492 126.25,-492 126.25,-512"/>
<text text-anchor="middle" x="67.62" y="-498.5" font-family="Helvetica,sans-Serif" font-size="10.00">KeysightM9807A::rf_on</text>
</a>
</g>
</g>
<!-- Node1&#45;&gt;Node13 -->
<g id="edge12_Node000001_Node000013" class="edge">
<title>Node1&#45;&gt;Node13</title>
<g id="a_edge12_Node000001_Node000013"><a xlink:title=" ">
<path fill="none" stroke="#63b8ff" d="M160.13,-491.57C148.89,-492.85 137.44,-494.15 126.62,-495.39"/>
<polygon fill="#63b8ff" stroke="#63b8ff" points="160.29,-494.96 169.83,-490.35 159.5,-488 160.29,-494.96"/>
</a>
</g>
</g>
<!-- Node14 -->
<g id="Node000014" class="node">
<title>Node14</title>
<g id="a_Node000014"><a xlink:href="class_planar_s50244.html#a92cf563ce580b8508cad2cdff68ad084" target="_top" xlink:title="Включает все порты">
<polygon fill="white" stroke="#666666" points="119.5,-474 15.75,-474 15.75,-454 119.5,-454 119.5,-474"/>
<text text-anchor="middle" x="67.62" y="-460.5" font-family="Helvetica,sans-Serif" font-size="10.00">PlanarS50244::rf_on</text>
</a>
</g>
</g>
<!-- Node1&#45;&gt;Node14 -->
<g id="edge13_Node000001_Node000014" class="edge">
<title>Node1&#45;&gt;Node14</title>
<g id="a_edge13_Node000001_Node000014"><a xlink:title=" ">
<path fill="none" stroke="#63b8ff" d="M160.05,-474.42C146.49,-472.88 132.65,-471.3 119.97,-469.85"/>
<polygon fill="#63b8ff" stroke="#63b8ff" points="159.5,-478 169.83,-475.65 160.29,-471.04 159.5,-478"/>
</a>
</g>
</g>
<!-- Node15 -->
<g id="Node000015" class="node">
<title>Node15</title>
<g id="a_Node000015"><a xlink:href="class_keysight_m9807_a.html#ac6105e309ba2f11a360797e19d34a592" target="_top" xlink:title="Включает выбранный порт">
<polygon fill="white" stroke="#666666" points="126.25,-436 9,-436 9,-416 126.25,-416 126.25,-436"/>
<text text-anchor="middle" x="67.62" y="-422.5" font-family="Helvetica,sans-Serif" font-size="10.00">KeysightM9807A::rf_on</text>
</a>
</g>
</g>
<!-- Node1&#45;&gt;Node15 -->
<g id="edge14_Node000001_Node000015" class="edge">
<title>Node1&#45;&gt;Node15</title>
<g id="a_edge14_Node000001_Node000015"><a xlink:title=" ">
<path fill="none" stroke="#63b8ff" d="M199.57,-468.59C180.61,-461.15 156.82,-452.16 135.25,-445 126.35,-442.04 116.68,-439.13 107.55,-436.5"/>
<polygon fill="#63b8ff" stroke="#63b8ff" points="197.98,-472.12 208.57,-472.55 200.56,-465.62 197.98,-472.12"/>
</a>
</g>
</g>
<!-- Node16 -->
<g id="Node000016" class="node">
<title>Node16</title>
<g id="a_Node000016"><a xlink:href="class_planar_s50244.html#aeec8379aa2d84a196836a99d13d43bf9" target="_top" xlink:title="Включает выбранный порт">
<polygon fill="white" stroke="#666666" points="119.5,-398 15.75,-398 15.75,-378 119.5,-378 119.5,-398"/>
<text text-anchor="middle" x="67.62" y="-384.5" font-family="Helvetica,sans-Serif" font-size="10.00">PlanarS50244::rf_on</text>
</a>
</g>
</g>
<!-- Node1&#45;&gt;Node16 -->
<g id="edge15_Node000001_Node000016" class="edge">
<title>Node1&#45;&gt;Node16</title>
<g id="a_edge15_Node000001_Node000016"><a xlink:title=" ">
<path fill="none" stroke="#63b8ff" d="M216.62,-465.4C197.54,-448.25 166.37,-422.57 135.25,-407 128.58,-403.66 121.23,-400.83 113.93,-398.45"/>
<polygon fill="#63b8ff" stroke="#63b8ff" points="213.75,-467.43 223.48,-471.61 218.48,-462.27 213.75,-467.43"/>
</a>
</g>
</g>
<!-- Node17 -->
<g id="Node000017" class="node">
<title>Node17</title>
<g id="a_Node000017"><a xlink:href="class_visa_device.html#ab95d81d2e1ebab67621ac7aac769bc64" target="_top" xlink:title="Отправка данных на прибор и чтение ответа от прибора. Также, ожидается завершение выполнения действий...">
<polygon fill="white" stroke="#666666" points="132.62,-360 2.62,-360 2.62,-340 132.62,-340 132.62,-360"/>
<text text-anchor="middle" x="67.62" y="-346.5" font-family="Helvetica,sans-Serif" font-size="10.00">VisaDevice::send_wait_err</text>
</a>
</g>
</g>
<!-- Node1&#45;&gt;Node17 -->
<g id="edge16_Node000001_Node000017" class="edge">
<title>Node1&#45;&gt;Node17</title>
<g id="a_edge16_Node000001_Node000017"><a xlink:title=" ">
<path fill="none" stroke="#63b8ff" d="M223.44,-463.68C206.87,-438.21 174.33,-393.74 135.25,-369 129.86,-365.59 123.85,-362.78 117.7,-360.46"/>
<polygon fill="#63b8ff" stroke="#63b8ff" points="220.86,-465.15 229.17,-471.73 226.77,-461.41 220.86,-465.15"/>
</a>
</g>
</g>
<!-- Node18 -->
<g id="Node000018" class="node">
<title>Node18</title>
<g id="a_Node000018"><a xlink:href="class_keysight_m9807_a.html#a752f62baec908e4e421a95b3c75422fc" target="_top" xlink:title="Установка определённого значения частоты">
<polygon fill="white" stroke="#666666" points="133,-322 2.25,-322 2.25,-302 133,-302 133,-322"/>
<text text-anchor="middle" x="67.62" y="-308.5" font-family="Helvetica,sans-Serif" font-size="10.00">KeysightM9807A::set_freq</text>
</a>
</g>
</g>
<!-- Node1&#45;&gt;Node18 -->
<g id="edge17_Node000001_Node000018" class="edge">
<title>Node1&#45;&gt;Node18</title>
<g id="a_edge17_Node000001_Node000018"><a xlink:title=" ">
<path fill="none" stroke="#63b8ff" d="M227.35,-462.48C213.66,-429.68 182.4,-365.62 135.25,-331 130.6,-327.58 125.35,-324.78 119.89,-322.48"/>
<polygon fill="#63b8ff" stroke="#63b8ff" points="224.47,-463.71 231.45,-471.68 230.97,-461.1 224.47,-463.71"/>
</a>
</g>
</g>
<!-- Node19 -->
<g id="Node000019" class="node">
<title>Node19</title>
<g id="a_Node000019"><a xlink:href="class_planar_s50244.html#a0060e852dd3374f9b4c3c6c93da8c01c" target="_top" xlink:title="Установка определённого значения частоты">
<polygon fill="white" stroke="#666666" points="126.25,-284 9,-284 9,-264 126.25,-264 126.25,-284"/>
<text text-anchor="middle" x="67.62" y="-270.5" font-family="Helvetica,sans-Serif" font-size="10.00">PlanarS50244::set_freq</text>
</a>
</g>
</g>
<!-- Node1&#45;&gt;Node19 -->
<g id="edge18_Node000001_Node000019" class="edge">
<title>Node1&#45;&gt;Node19</title>
<g id="a_edge18_Node000001_Node000019"><a xlink:title=" ">
<path fill="none" stroke="#63b8ff" d="M230.13,-462.1C219.44,-422.91 190.96,-338.24 135.25,-293 131.05,-289.59 126.27,-286.79 121.23,-284.49"/>
<polygon fill="#63b8ff" stroke="#63b8ff" points="226.93,-462.71 232.84,-471.51 233.71,-460.95 226.93,-462.71"/>
</a>
</g>
</g>
<!-- Node20 -->
<g id="Node000020" class="node">
<title>Node20</title>
<g id="a_Node000020"><a xlink:href="class_keysight_m9807_a.html#a2b1761a2a4b4dc696a74590c2cb028de" target="_top" xlink:title="Установка частотного диапазона">
<polygon fill="white" stroke="#666666" points="122.5,-246 12.75,-246 12.75,-214 122.5,-214 122.5,-246"/>
<text text-anchor="start" x="20.75" y="-232.5" font-family="Helvetica,sans-Serif" font-size="10.00">KeysightM9807A::set</text>
<text text-anchor="middle" x="67.62" y="-220.5" font-family="Helvetica,sans-Serif" font-size="10.00">_freq_range</text>
</a>
</g>
</g>
<!-- Node1&#45;&gt;Node20 -->
<g id="edge19_Node000001_Node000020" class="edge">
<title>Node1&#45;&gt;Node20</title>
<g id="a_edge19_Node000001_Node000020"><a xlink:title=" ">
<path fill="none" stroke="#63b8ff" d="M231.73,-462.16C223.19,-417.91 197.34,-313.81 135.25,-255 131.57,-251.52 127.36,-248.51 122.89,-245.91"/>
<polygon fill="#63b8ff" stroke="#63b8ff" points="228.42,-462.53 233.65,-471.74 235.31,-461.28 228.42,-462.53"/>
</a>
</g>
</g>
<!-- Node21 -->
<g id="Node000021" class="node">
<title>Node21</title>
<g id="a_Node000021"><a xlink:href="class_planar_s50244.html#af52408a261d6845f6d44653f4e429f31" target="_top" xlink:title="Установка частотного диапазона">
<polygon fill="white" stroke="#666666" points="126.25,-196 9,-196 9,-164 126.25,-164 126.25,-196"/>
<text text-anchor="start" x="17" y="-182.5" font-family="Helvetica,sans-Serif" font-size="10.00">PlanarS50244::set_freq</text>
<text text-anchor="middle" x="67.62" y="-170.5" font-family="Helvetica,sans-Serif" font-size="10.00">_range</text>
</a>
</g>
</g>
<!-- Node1&#45;&gt;Node21 -->
<g id="edge20_Node000001_Node000021" class="edge">
<title>Node1&#45;&gt;Node21</title>
<g id="a_edge20_Node000001_Node000021"><a xlink:title=" ">
<path fill="none" stroke="#63b8ff" d="M233.58,-461.88C228.45,-410.77 208.45,-279.2 135.25,-205 132.04,-201.75 128.37,-198.91 124.43,-196.44"/>
<polygon fill="#63b8ff" stroke="#63b8ff" points="230.16,-461.9 234.55,-471.55 237.13,-461.27 230.16,-461.9"/>
</a>
</g>
</g>
<!-- Node22 -->
<g id="Node000022" class="node">
<title>Node22</title>
<g id="a_Node000022"><a xlink:href="class_keysight_m9807_a.html#a148ac915640756d3ef0c33d92c1b1205" target="_top" xlink:title="Установка положений переключателей в определённые позиции">
<polygon fill="white" stroke="#666666" points="134.5,-146 0.75,-146 0.75,-126 134.5,-126 134.5,-146"/>
<text text-anchor="middle" x="67.62" y="-132.5" font-family="Helvetica,sans-Serif" font-size="10.00">KeysightM9807A::set_path</text>
</a>
</g>
</g>
<!-- Node1&#45;&gt;Node22 -->
<g id="edge21_Node000001_Node000022" class="edge">
<title>Node1&#45;&gt;Node22</title>
<g id="a_edge21_Node000001_Node000022"><a xlink:title=" ">
<path fill="none" stroke="#63b8ff" d="M235.34,-462.04C234.42,-404.37 223.68,-241.84 135.25,-155 131.73,-151.54 127.63,-148.71 123.23,-146.38"/>
<polygon fill="#63b8ff" stroke="#63b8ff" points="231.85,-461.72 235.42,-471.69 238.85,-461.67 231.85,-461.72"/>
</a>
</g>
</g>
<!-- Node23 -->
<g id="Node000023" class="node">
<title>Node23</title>
<g id="a_Node000023"><a xlink:href="class_keysight_m9807_a.html#ab3a0a48c7e439fab722d902479ff78eb" target="_top" xlink:title="Установка требуемой мощности зондирующего порта">
<polygon fill="white" stroke="#666666" points="122.5,-108 12.75,-108 12.75,-76 122.5,-76 122.5,-108"/>
<text text-anchor="start" x="20.75" y="-94.5" font-family="Helvetica,sans-Serif" font-size="10.00">KeysightM9807A::set</text>
<text text-anchor="middle" x="67.62" y="-82.5" font-family="Helvetica,sans-Serif" font-size="10.00">_power</text>
</a>
</g>
</g>
<!-- Node1&#45;&gt;Node23 -->
<g id="edge22_Node000001_Node000023" class="edge">
<title>Node1&#45;&gt;Node23</title>
<g id="a_edge22_Node000001_Node000023"><a xlink:title=" ">
<path fill="none" stroke="#63b8ff" d="M235.75,-461.72C236.04,-400.07 228.46,-219.23 135.25,-117 131.67,-113.07 127.41,-109.76 122.81,-106.97"/>
<polygon fill="#63b8ff" stroke="#63b8ff" points="232.24,-461.66 235.61,-471.7 239.24,-461.75 232.24,-461.66"/>
</a>
</g>
</g>
<!-- Node24 -->
<g id="Node000024" class="node">
<title>Node24</title>
<g id="a_Node000024"><a xlink:href="class_planar_s50244.html#ad1f033021449cf6c4e0a1eaeafc6dbe3" target="_top" xlink:title="Установка требуемой мощности зондирующего порта">
<polygon fill="white" stroke="#666666" points="131.12,-58 4.12,-58 4.12,-38 131.12,-38 131.12,-58"/>
<text text-anchor="middle" x="67.62" y="-44.5" font-family="Helvetica,sans-Serif" font-size="10.00">PlanarS50244::set_power</text>
</a>
</g>
</g>
<!-- Node1&#45;&gt;Node24 -->
<g id="edge23_Node000001_Node000024" class="edge">
<title>Node1&#45;&gt;Node24</title>
<g id="a_edge23_Node000001_Node000024"><a xlink:title=" ">
<path fill="none" stroke="#63b8ff" d="M232.98,-461.92C224.36,-385.65 191.25,-125.4 135.25,-67 131.92,-63.53 128,-60.68 123.77,-58.34"/>
<polygon fill="#63b8ff" stroke="#63b8ff" points="229.57,-461.97 234.15,-471.53 236.53,-461.2 229.57,-461.97"/>
</a>
</g>
</g>
<!-- Node25 -->
<g id="Node000025" class="node">
<title>Node25</title>
<g id="a_Node000025"><a xlink:href="class_keysight_m9807_a.html#a83a1f840e34e3ecb56c319649725efb8" target="_top" xlink:title="Перевод триггера в режим manual.">
<polygon fill="white" stroke="#666666" points="129.25,-20 6,-20 6,0 129.25,0 129.25,-20"/>
<text text-anchor="middle" x="67.62" y="-6.5" font-family="Helvetica,sans-Serif" font-size="10.00">KeysightM9807A::trigger</text>
</a>
</g>
</g>
<!-- Node1&#45;&gt;Node25 -->
<g id="edge24_Node000001_Node000025" class="edge">
<title>Node1&#45;&gt;Node25</title>
<g id="a_edge24_Node000001_Node000025"><a xlink:title=" ">
<path fill="none" stroke="#63b8ff" d="M233.45,-462.12C226.14,-381.74 196.01,-93.58 135.25,-29 132.04,-25.58 128.25,-22.77 124.15,-20.45"/>
<polygon fill="#63b8ff" stroke="#63b8ff" points="230.03,-462.15 234.4,-471.8 237,-461.53 230.03,-462.15"/>
</a>
</g>
</g>
</g>
</svg>

<g id="navigator" transform="translate(0 0)" fill="#404254">
  <rect fill="#f2f5e9" fill-opacity="0.5" stroke="#606060" stroke-width=".5" x="0" y="0" width="60" height="60"/>
  <use id="zoomplus" xlink:href="#zoomPlus" x="17" y="9" onmousedown="handleZoom(evt,'in')"/>
  <use id="zoomminus" xlink:href="#zoomMin" x="42" y="9" onmousedown="handleZoom(evt,'out')"/>
  <use id="reset" xlink:href="#resetDef" x="30" y="36" onmousedown="handleReset()"/>
   <use id="arrowup" xlink:href="#arrowUp" x="0" y="0" onmousedown="handlePan(0,-1)"/>
  <use id="arrowright" xlink:href="#arrowRight" x="0" y="0" onmousedown="handlePan(1,0)"/>
  <use id="arrowdown" xlink:href="#arrowDown" x="0" y="0" onmousedown="handlePan(0,1)"/>
  <use id="arrowleft" xlink:href="#arrowLeft" x="0" y="0" onmousedown="handlePan(-1,0)"/>
</g>
<svg viewBox="0 0 15 15" width="100%" height="30px" preserveAspectRatio="xMaxYMin meet">
 <g id="arrow_out" transform="scale(0.3 0.3)">
  <a xlink:href="class_visa_device_a069e154c5f48779dfd908146db9e66ed_icgraph_org.svg" target="_base">
   <rect id="button" ry="5" rx="5" y="6" x="6" height="38" width="38"
        fill="#f2f5e9" fill-opacity="0.5" stroke="#606060" stroke-width="1.0"/>
   <path id="arrow"
     d="M 11.500037,31.436501 C 11.940474,20.09759 22.043105,11.32322 32.158766,21.979434 L 37.068811,17.246167 C 37.068811,17.246167 37.088388,32 37.088388,32 L 22.160133,31.978069 C 22.160133,31.978069 26.997745,27.140456 26.997745,27.140456 C 18.528582,18.264221 13.291696,25.230495 11.500037,31.436501 z"
     style="fill:#404040;"/>
  </a>
 </g>
</svg>

<style type='text/css'>
<![CDATA[
[data-mouse-over-selected='false'] { opacity: 0.7; }
[data-mouse-over-selected='true']  { opacity: 1.0; }
]]>
</style>
<script type="application/ecmascript"><![CDATA[
document.addEventListener('DOMContentLoaded', (event) => {
  highlightEdges();
  highlightAdjacentNodes();
});
]]></script>
</svg>
