<?xml version="1.0" encoding="UTF-8" standalone="no"?>
<!DOCTYPE svg PUBLIC "-//W3C//DTD SVG 1.1//EN"
 "http://www.w3.org/Graphics/SVG/1.1/DTD/svg11.dtd">
<!-- Generated by graphviz version 8.0.5 (20230430.1635)
 -->
<!-- Title: TaskManager::set_path_task Pages: 1 -->
<svg width="623pt" height="176pt"
 viewBox="0.00 0.00 623.25 176.00" xmlns="http://www.w3.org/2000/svg" xmlns:xlink="http://www.w3.org/1999/xlink">
<g id="graph0" class="graph" transform="scale(1 1) rotate(0) translate(4 172)">
<title>TaskManager::set_path_task</title>
<!-- Node1 -->
<g id="Node000001" class="node">
<title>Node1</title>
<g id="a_Node000001"><a xlink:title=" ">
<polygon fill="#999999" stroke="#666666" points="142,-77 0,-77 0,-57 142,-57 142,-77"/>
<text text-anchor="middle" x="71" y="-63.5" font-family="Helvetica,sans-Serif" font-size="10.00">TaskManager::set_path_task</text>
</a>
</g>
</g>
<!-- Node2 -->
<g id="Node000002" class="node">
<title>Node2</title>
<g id="a_Node000002"><a xlink:href="class_device_set.html#aeeb8d224788fe0663898a10aad363832" target="_top" xlink:title=" ">
<polygon fill="white" stroke="#666666" points="293,-127 178,-127 178,-95 293,-95 293,-127"/>
<text text-anchor="start" x="186" y="-113.5" font-family="Helvetica,sans-Serif" font-size="10.00">DeviceSet::get_vna</text>
<text text-anchor="middle" x="235.5" y="-101.5" font-family="Helvetica,sans-Serif" font-size="10.00">_switch_module_count</text>
</a>
</g>
</g>
<!-- Node1&#45;&gt;Node2 -->
<g id="edge1_Node000001_Node000002" class="edge">
<title>Node1&#45;&gt;Node2</title>
<g id="a_edge1_Node000001_Node000002"><a xlink:title=" ">
<path fill="none" stroke="#63b8ff" d="M110.51,-77.43C127.46,-82.02 147.87,-87.54 167.2,-92.78"/>
<polygon fill="#63b8ff" stroke="#63b8ff" points="166.23,-96.41 176.8,-95.65 168.06,-89.65 166.23,-96.41"/>
</a>
</g>
</g>
<!-- Node5 -->
<g id="Node000005" class="node">
<title>Node5</title>
<g id="a_Node000005"><a xlink:href="class_logger.html#af7709105c2708359b7b082218f4cc3e1" target="_top" xlink:title="Метод, осуществляющий логирование">
<polygon fill="white" stroke="#666666" points="424.88,-77 360.88,-77 360.88,-57 424.88,-57 424.88,-77"/>
<text text-anchor="middle" x="392.88" y="-63.5" font-family="Helvetica,sans-Serif" font-size="10.00">Logger::log</text>
</a>
</g>
</g>
<!-- Node1&#45;&gt;Node5 -->
<g id="edge4_Node000001_Node000005" class="edge">
<title>Node1&#45;&gt;Node5</title>
<g id="a_edge4_Node000001_Node000005"><a xlink:title=" ">
<path fill="none" stroke="#63b8ff" d="M142.2,-67C205.59,-67 296.8,-67 349.63,-67"/>
<polygon fill="#63b8ff" stroke="#63b8ff" points="349.61,-70.5 359.61,-67 349.61,-63.5 349.61,-70.5"/>
</a>
</g>
</g>
<!-- Node10 -->
<g id="Node000010" class="node">
<title>Node10</title>
<g id="a_Node000010"><a xlink:href="class_device_set.html#a905900391da22efd2f866843c81572d4" target="_top" xlink:title=" ">
<polygon fill="white" stroke="#666666" points="287,-39 184,-39 184,-19 287,-19 287,-39"/>
<text text-anchor="middle" x="235.5" y="-25.5" font-family="Helvetica,sans-Serif" font-size="10.00">DeviceSet::set_path</text>
</a>
</g>
</g>
<!-- Node1&#45;&gt;Node10 -->
<g id="edge9_Node000001_Node000010" class="edge">
<title>Node1&#45;&gt;Node10</title>
<g id="a_edge9_Node000001_Node000010"><a xlink:title=" ">
<path fill="none" stroke="#63b8ff" d="M116.83,-56.52C136.1,-52.01 158.82,-46.7 179.13,-41.95"/>
<polygon fill="#63b8ff" stroke="#63b8ff" points="179.87,-45.14 188.81,-39.45 178.28,-38.32 179.87,-45.14"/>
</a>
</g>
</g>
<!-- Node3 -->
<g id="Node000003" class="node">
<title>Node3</title>
<g id="a_Node000003"><a xlink:href="class_vna_device.html#abbe7ac7ab8da8e7c27b7f7525d1d32a4" target="_top" xlink:title=" ">
<polygon fill="white" stroke="#666666" points="450,-168 335.75,-168 335.75,-136 450,-136 450,-168"/>
<text text-anchor="start" x="343.75" y="-154.5" font-family="Helvetica,sans-Serif" font-size="10.00">VnaDevice::get_switch</text>
<text text-anchor="middle" x="392.88" y="-142.5" font-family="Helvetica,sans-Serif" font-size="10.00">_module_count</text>
</a>
</g>
</g>
<!-- Node2&#45;&gt;Node3 -->
<g id="edge2_Node000002_Node000003" class="edge">
<title>Node2&#45;&gt;Node3</title>
<g id="a_edge2_Node000002_Node000003"><a xlink:title=" ">
<path fill="none" stroke="#63b8ff" d="M293.47,-126.03C303.74,-128.74 314.52,-131.59 325.03,-134.36"/>
<polygon fill="#63b8ff" stroke="#63b8ff" points="323.87,-137.94 334.43,-137.1 325.65,-131.17 323.87,-137.94"/>
</a>
</g>
</g>
<!-- Node4 -->
<g id="Node000004" class="node">
<title>Node4</title>
<g id="a_Node000004"><a xlink:href="class_visa_device.html#aa53bc03ce9be2af514335565d585414e" target="_top" xlink:title="Метод, возвращающий значение флага connected.">
<polygon fill="white" stroke="#666666" points="456.75,-118 329,-118 329,-98 456.75,-98 456.75,-118"/>
<text text-anchor="middle" x="392.88" y="-104.5" font-family="Helvetica,sans-Serif" font-size="10.00">VisaDevice::is_connected</text>
</a>
</g>
</g>
<!-- Node2&#45;&gt;Node4 -->
<g id="edge3_Node000002_Node000004" class="edge">
<title>Node2&#45;&gt;Node4</title>
<g id="a_edge3_Node000002_Node000004"><a xlink:title=" ">
<path fill="none" stroke="#63b8ff" d="M293.47,-109.9C301.42,-109.75 309.68,-109.59 317.89,-109.43"/>
<polygon fill="#63b8ff" stroke="#63b8ff" points="317.68,-112.91 327.62,-109.22 317.55,-105.92 317.68,-112.91"/>
</a>
</g>
</g>
<!-- Node6 -->
<g id="Node000006" class="node">
<title>Node6</title>
<g id="a_Node000006"><a xlink:href="logger_8hpp.html#a49284b7befa8e31f81e01ee8f3735dd0" target="_top" xlink:title="Функция, которая снимает значение текущего времени и конвертирует его в строку с заданным шаблоном.">
<polygon fill="white" stroke="#666666" points="598.38,-134 509.62,-134 509.62,-114 598.38,-114 598.38,-134"/>
<text text-anchor="middle" x="554" y="-120.5" font-family="Helvetica,sans-Serif" font-size="10.00">get_current_time</text>
</a>
</g>
</g>
<!-- Node5&#45;&gt;Node6 -->
<g id="edge5_Node000005_Node000006" class="edge">
<title>Node5&#45;&gt;Node6</title>
<g id="a_edge5_Node000005_Node000006"><a xlink:title=" ">
<path fill="none" stroke="#63b8ff" d="M425.08,-77.36C435.25,-80.88 446.54,-84.95 456.75,-89 473.03,-95.45 476.37,-98.8 492.75,-105 497.44,-106.78 502.38,-108.52 507.32,-110.19"/>
<polygon fill="#63b8ff" stroke="#63b8ff" points="505.82,-113.71 516.41,-113.51 508,-107.06 505.82,-113.71"/>
</a>
</g>
</g>
<!-- Node7 -->
<g id="Node000007" class="node">
<title>Node7</title>
<g id="a_Node000007"><a xlink:href="class_logger.html#a6edb7b263f080d417b82a537ed50fee4" target="_top" xlink:title="Возвращает тег в зависимости от уровня логирования и от назначения тега.">
<polygon fill="white" stroke="#666666" points="595.75,-96 512.25,-96 512.25,-76 595.75,-76 595.75,-96"/>
<text text-anchor="middle" x="554" y="-82.5" font-family="Helvetica,sans-Serif" font-size="10.00">Logger::get_tag</text>
</a>
</g>
</g>
<!-- Node5&#45;&gt;Node7 -->
<g id="edge6_Node000005_Node000007" class="edge">
<title>Node5&#45;&gt;Node7</title>
<g id="a_edge6_Node000005_Node000007"><a xlink:title=" ">
<path fill="none" stroke="#63b8ff" d="M425.31,-70.75C446.93,-73.34 476.14,-76.82 501.17,-79.81"/>
<polygon fill="#63b8ff" stroke="#63b8ff" points="500.62,-83.39 510.97,-81.1 501.45,-76.44 500.62,-83.39"/>
</a>
</g>
</g>
<!-- Node8 -->
<g id="Node000008" class="node">
<title>Node8</title>
<g id="a_Node000008"><a xlink:href="class_logger.html#a4825613142ebb093bf8fa26f21f7f3fc" target="_top" xlink:title="Метод, который выводит сообщение в консоль.">
<polygon fill="white" stroke="#666666" points="615.25,-58 492.75,-58 492.75,-38 615.25,-38 615.25,-58"/>
<text text-anchor="middle" x="554" y="-44.5" font-family="Helvetica,sans-Serif" font-size="10.00">Logger::print_to_console</text>
</a>
</g>
</g>
<!-- Node5&#45;&gt;Node8 -->
<g id="edge7_Node000005_Node000008" class="edge">
<title>Node5&#45;&gt;Node8</title>
<g id="a_edge7_Node000005_Node000008"><a xlink:title=" ">
<path fill="none" stroke="#63b8ff" d="M425.31,-63.25C441.44,-61.32 461.79,-58.89 481.47,-56.54"/>
<polygon fill="#63b8ff" stroke="#63b8ff" points="481.8,-59.91 491.31,-55.25 480.97,-52.96 481.8,-59.91"/>
</a>
</g>
</g>
<!-- Node9 -->
<g id="Node000009" class="node">
<title>Node9</title>
<g id="a_Node000009"><a xlink:href="class_logger.html#a999bb33f7cf079cb98f32fae6016a2f3" target="_top" xlink:title="Метод, который записывает сообщение в файл.">
<polygon fill="white" stroke="#666666" points="604.38,-20 503.62,-20 503.62,0 604.38,0 604.38,-20"/>
<text text-anchor="middle" x="554" y="-6.5" font-family="Helvetica,sans-Serif" font-size="10.00">Logger::print_to_file</text>
</a>
</g>
</g>
<!-- Node5&#45;&gt;Node9 -->
<g id="edge8_Node000005_Node000009" class="edge">
<title>Node5&#45;&gt;Node9</title>
<g id="a_edge8_Node000005_Node000009"><a xlink:title=" ">
<path fill="none" stroke="#63b8ff" d="M425.31,-58.79C435.49,-55.79 446.73,-52.11 456.75,-48 473.49,-41.13 476.06,-35.97 492.75,-29 497.08,-27.19 501.65,-25.46 506.25,-23.82"/>
<polygon fill="#63b8ff" stroke="#63b8ff" points="506.95,-26.94 515.3,-20.41 504.7,-20.31 506.95,-26.94"/>
</a>
</g>
</g>
<!-- Node10&#45;&gt;Node5 -->
<g id="edge10_Node000010_Node000005" class="edge">
<title>Node10&#45;&gt;Node5</title>
<g id="a_edge10_Node000010_Node000005"><a xlink:title=" ">
<path fill="none" stroke="#63b8ff" d="M279.37,-39.48C301.34,-44.86 328.01,-51.38 349.86,-56.72"/>
<polygon fill="#63b8ff" stroke="#63b8ff" points="348.94,-60.35 359.48,-59.32 350.6,-53.55 348.94,-60.35"/>
</a>
</g>
</g>
<!-- Node11 -->
<g id="Node000011" class="node">
<title>Node11</title>
<g id="a_Node000011"><a xlink:href="class_vna_device.html#a0b803a51b1c38828781291cdcae07495" target="_top" xlink:title=" ">
<polygon fill="white" stroke="#666666" points="445.5,-39 340.25,-39 340.25,-19 445.5,-19 445.5,-39"/>
<text text-anchor="middle" x="392.88" y="-25.5" font-family="Helvetica,sans-Serif" font-size="10.00">VnaDevice::set_path</text>
</a>
</g>
</g>
<!-- Node10&#45;&gt;Node11 -->
<g id="edge11_Node000010_Node000011" class="edge">
<title>Node10&#45;&gt;Node11</title>
<g id="a_edge11_Node000010_Node000011"><a xlink:title=" ">
<path fill="none" stroke="#63b8ff" d="M287.38,-29C300.64,-29 315.1,-29 328.92,-29"/>
<polygon fill="#63b8ff" stroke="#63b8ff" points="328.82,-32.5 338.82,-29 328.82,-25.5 328.82,-32.5"/>
</a>
</g>
</g>
</g>
</svg>
