<?xml version="1.0" encoding="UTF-8" standalone="no"?>
<!DOCTYPE svg PUBLIC "-//W3C//DTD SVG 1.1//EN"
 "http://www.w3.org/Graphics/SVG/1.1/DTD/svg11.dtd">
<!-- Generated by graphviz version 8.0.5 (20230430.1635)
 -->
<!-- Title: DeviceSet::get_current_freq Pages: 1 -->
<svg width="476pt" height="161pt"
 viewBox="0.00 0.00 476.00 161.00" xmlns="http://www.w3.org/2000/svg" xmlns:xlink="http://www.w3.org/1999/xlink">

<svg id="main" version="1.1" xmlns="http://www.w3.org/2000/svg" xmlns:xlink="http://www.w3.org/1999/xlink" xml:space="preserve" onload="init(evt)">
<style type="text/css"><![CDATA[
.node, .edge {opacity: 0.7;}
.node.selected, .edge.selected {opacity: 1;}
.edge:hover path { stroke: red; }
.edge:hover polygon { stroke: red; fill: red; }
]]></style>
<script type="application/ecmascript" xlink:href="svg.min.js"/>
<svg id="graph" class="graph">
<g id="graph0" class="graph" transform="scale(1 1) rotate(0) translate(4 157)">
<title>DeviceSet::get_current_freq</title>
<!-- Node1 -->
<g id="Node000001" class="node">
<title>Node1</title>
<g id="a_Node000001"><a xlink:title="Получает текущее значение частоты зондирующего сигнала на подключенном генераторе">
<polygon fill="#999999" stroke="#666666" points="135.25,-115 0,-115 0,-95 135.25,-95 135.25,-115"/>
<text text-anchor="middle" x="67.62" y="-101.5" font-family="Helvetica,sans-Serif" font-size="10.00">DeviceSet::get_current_freq</text>
</a>
</g>
</g>
<!-- Node2 -->
<g id="Node000002" class="node">
<title>Node2</title>
<g id="a_Node000002"><a xlink:href="class_gen_device.html#a497e5597ec277ac910051ee066920a8f" target="_top" xlink:title="Получает текущее значение частоты сигнала">
<polygon fill="white" stroke="#666666" points="309.5,-153 171.25,-153 171.25,-133 309.5,-133 309.5,-153"/>
<text text-anchor="middle" x="240.38" y="-139.5" font-family="Helvetica,sans-Serif" font-size="10.00">GenDevice::get_current_freq</text>
</a>
</g>
</g>
<!-- Node1&#45;&gt;Node2 -->
<g id="edge1_Node000001_Node000002" class="edge">
<title>Node1&#45;&gt;Node2</title>
<g id="a_edge1_Node000001_Node000002"><a xlink:title=" ">
<path fill="none" stroke="#63b8ff" d="M115.74,-115.48C136.17,-120.03 160.29,-125.4 181.78,-130.18"/>
<polygon fill="#63b8ff" stroke="#63b8ff" points="180.9,-133.79 191.42,-132.55 182.42,-126.96 180.9,-133.79"/>
</a>
</g>
</g>
<!-- Node3 -->
<g id="Node000003" class="node">
<title>Node3</title>
<g id="a_Node000003"><a xlink:href="class_visa_device.html#aa53bc03ce9be2af514335565d585414e" target="_top" xlink:title="Метод, возвращающий значение флага connected.">
<polygon fill="white" stroke="#666666" points="304.25,-115 176.5,-115 176.5,-95 304.25,-95 304.25,-115"/>
<text text-anchor="middle" x="240.38" y="-101.5" font-family="Helvetica,sans-Serif" font-size="10.00">VisaDevice::is_connected</text>
</a>
</g>
</g>
<!-- Node1&#45;&gt;Node3 -->
<g id="edge2_Node000001_Node000003" class="edge">
<title>Node1&#45;&gt;Node3</title>
<g id="a_edge2_Node000001_Node000003"><a xlink:title=" ">
<path fill="none" stroke="#63b8ff" d="M135.62,-105C145.33,-105 155.37,-105 165.21,-105"/>
<polygon fill="#63b8ff" stroke="#63b8ff" points="165.2,-108.5 175.2,-105 165.2,-101.5 165.2,-108.5"/>
</a>
</g>
</g>
<!-- Node4 -->
<g id="Node000004" class="node">
<title>Node4</title>
<g id="a_Node000004"><a xlink:href="class_logger.html#af7709105c2708359b7b082218f4cc3e1" target="_top" xlink:title="Метод, осуществляющий логирование">
<polygon fill="white" stroke="#666666" points="272.38,-77 208.38,-77 208.38,-57 272.38,-57 272.38,-77"/>
<text text-anchor="middle" x="240.38" y="-63.5" font-family="Helvetica,sans-Serif" font-size="10.00">Logger::log</text>
</a>
</g>
</g>
<!-- Node1&#45;&gt;Node4 -->
<g id="edge3_Node000001_Node000004" class="edge">
<title>Node1&#45;&gt;Node4</title>
<g id="a_edge3_Node000001_Node000004"><a xlink:title=" ">
<path fill="none" stroke="#63b8ff" d="M115.74,-94.52C141.36,-88.81 172.78,-81.82 197.54,-76.31"/>
<polygon fill="#63b8ff" stroke="#63b8ff" points="198.05,-79.56 207.05,-73.97 196.53,-72.73 198.05,-79.56"/>
</a>
</g>
</g>
<!-- Node5 -->
<g id="Node000005" class="node">
<title>Node5</title>
<g id="a_Node000005"><a xlink:href="logger_8hpp.html#a49284b7befa8e31f81e01ee8f3735dd0" target="_top" xlink:title="Функция, которая снимает значение текущего времени и конвертирует его в строку с заданным шаблоном.">
<polygon fill="white" stroke="#666666" points="451.12,-134 362.38,-134 362.38,-114 451.12,-114 451.12,-134"/>
<text text-anchor="middle" x="406.75" y="-120.5" font-family="Helvetica,sans-Serif" font-size="10.00">get_current_time</text>
</a>
</g>
</g>
<!-- Node4&#45;&gt;Node5 -->
<g id="edge4_Node000004_Node000005" class="edge">
<title>Node4&#45;&gt;Node5</title>
<g id="a_edge4_Node000004_Node000005"><a xlink:title=" ">
<path fill="none" stroke="#63b8ff" d="M272.7,-74.24C284.43,-77.33 297.75,-81.32 309.5,-86 326.31,-92.69 328.81,-98.03 345.5,-105 349.83,-106.81 354.4,-108.54 359,-110.18"/>
<polygon fill="#63b8ff" stroke="#63b8ff" points="357.45,-113.69 368.05,-113.59 359.7,-107.06 357.45,-113.69"/>
</a>
</g>
</g>
<!-- Node6 -->
<g id="Node000006" class="node">
<title>Node6</title>
<g id="a_Node000006"><a xlink:href="class_logger.html#a6edb7b263f080d417b82a537ed50fee4" target="_top" xlink:title="Возвращает тег в зависимости от уровня логирования и от назначения тега.">
<polygon fill="white" stroke="#666666" points="448.5,-96 365,-96 365,-76 448.5,-76 448.5,-96"/>
<text text-anchor="middle" x="406.75" y="-82.5" font-family="Helvetica,sans-Serif" font-size="10.00">Logger::get_tag</text>
</a>
</g>
</g>
<!-- Node4&#45;&gt;Node6 -->
<g id="edge5_Node000004_Node000006" class="edge">
<title>Node4&#45;&gt;Node6</title>
<g id="a_edge5_Node000004_Node000006"><a xlink:title=" ">
<path fill="none" stroke="#63b8ff" d="M272.68,-70.62C295.6,-73.27 327.23,-76.92 353.9,-80.01"/>
<polygon fill="#63b8ff" stroke="#63b8ff" points="353.27,-83.57 363.61,-81.24 354.08,-76.62 353.27,-83.57"/>
</a>
</g>
</g>
<!-- Node7 -->
<g id="Node000007" class="node">
<title>Node7</title>
<g id="a_Node000007"><a xlink:href="class_logger.html#a4825613142ebb093bf8fa26f21f7f3fc" target="_top" xlink:title="Метод, который выводит сообщение в консоль.">
<polygon fill="white" stroke="#666666" points="468,-58 345.5,-58 345.5,-38 468,-38 468,-58"/>
<text text-anchor="middle" x="406.75" y="-44.5" font-family="Helvetica,sans-Serif" font-size="10.00">Logger::print_to_console</text>
</a>
</g>
</g>
<!-- Node4&#45;&gt;Node7 -->
<g id="edge6_Node000004_Node000007" class="edge">
<title>Node4&#45;&gt;Node7</title>
<g id="a_edge6_Node000004_Node000007"><a xlink:title=" ">
<path fill="none" stroke="#63b8ff" d="M272.68,-63.38C290.21,-61.36 312.83,-58.74 334.44,-56.24"/>
<polygon fill="#63b8ff" stroke="#63b8ff" points="334.74,-59.62 344.27,-54.99 333.93,-52.66 334.74,-59.62"/>
</a>
</g>
</g>
<!-- Node8 -->
<g id="Node000008" class="node">
<title>Node8</title>
<g id="a_Node000008"><a xlink:href="class_logger.html#a999bb33f7cf079cb98f32fae6016a2f3" target="_top" xlink:title="Метод, который записывает сообщение в файл.">
<polygon fill="white" stroke="#666666" points="457.12,-20 356.38,-20 356.38,0 457.12,0 457.12,-20"/>
<text text-anchor="middle" x="406.75" y="-6.5" font-family="Helvetica,sans-Serif" font-size="10.00">Logger::print_to_file</text>
</a>
</g>
</g>
<!-- Node4&#45;&gt;Node8 -->
<g id="edge7_Node000004_Node000008" class="edge">
<title>Node4&#45;&gt;Node8</title>
<g id="a_edge7_Node000004_Node000008"><a xlink:title=" ">
<path fill="none" stroke="#63b8ff" d="M269.1,-56.5C290.01,-48.68 319.45,-37.86 345.5,-29 350.63,-27.26 356.01,-25.48 361.37,-23.75"/>
<polygon fill="#63b8ff" stroke="#63b8ff" points="362.11,-26.87 370.57,-20.49 359.98,-20.2 362.11,-26.87"/>
</a>
</g>
</g>
</g>
</svg>
</svg>

<style type='text/css'>
<![CDATA[
[data-mouse-over-selected='false'] { opacity: 0.7; }
[data-mouse-over-selected='true']  { opacity: 1.0; }
]]>
</style>
<script type="application/ecmascript"><![CDATA[
document.addEventListener('DOMContentLoaded', (event) => {
  highlightEdges();
  highlightAdjacentNodes();
});
]]></script>
</svg>
