<?xml version="1.0" encoding="UTF-8" standalone="no"?>
<!DOCTYPE svg PUBLIC "-//W3C//DTD SVG 1.1//EN"
 "http://www.w3.org/Graphics/SVG/1.1/DTD/svg11.dtd">
<!-- Generated by graphviz version 8.0.5 (20230430.1635)
 -->
<!-- Title: VisaDevice::idn Pages: 1 -->
<svg width="242pt" height="66pt"
 viewBox="0.00 0.00 241.75 66.00" xmlns="http://www.w3.org/2000/svg" xmlns:xlink="http://www.w3.org/1999/xlink">
<g id="graph0" class="graph" transform="scale(1 1) rotate(0) translate(4 62)">
<title>VisaDevice::idn</title>
<!-- Node1 -->
<g id="Node000001" class="node">
<title>Node1</title>
<g id="a_Node000001"><a xlink:title="Отправляет команду &quot;*IDN?&quot; на подключенное устройство и ожидает ответа">
<polygon fill="#999999" stroke="#666666" points="233.75,-39 151,-39 151,-19 233.75,-19 233.75,-39"/>
<text text-anchor="middle" x="192.38" y="-25.5" font-family="Helvetica,sans-Serif" font-size="10.00">VisaDevice::idn</text>
</a>
</g>
</g>
<!-- Node2 -->
<g id="Node000002" class="node">
<title>Node2</title>
<g id="a_Node000002"><a xlink:href="class_gen_device.html#ae42dc0c930a6d23322ffbe223d81ab36" target="_top" xlink:title=" ">
<polygon fill="white" stroke="#666666" points="115,-58 0,-58 0,-38 115,-38 115,-58"/>
<text text-anchor="middle" x="57.5" y="-44.5" font-family="Helvetica,sans-Serif" font-size="10.00">GenDevice::GenDevice</text>
</a>
</g>
</g>
<!-- Node1&#45;&gt;Node2 -->
<g id="edge1_Node000001_Node000002" class="edge">
<title>Node1&#45;&gt;Node2</title>
<g id="a_edge1_Node000001_Node000002"><a xlink:title=" ">
<path fill="none" stroke="#63b8ff" d="M140.05,-36.34C132,-37.49 123.64,-38.69 115.47,-39.85"/>
<polygon fill="#63b8ff" stroke="#63b8ff" points="140.38,-39.68 149.79,-34.8 139.39,-32.75 140.38,-39.68"/>
</a>
</g>
</g>
<!-- Node3 -->
<g id="Node000003" class="node">
<title>Node3</title>
<g id="a_Node000003"><a xlink:href="class_vna_device.html#ace1217e26e6e8d1b0e5127227730989b" target="_top" xlink:title=" ">
<polygon fill="white" stroke="#666666" points="114.25,-20 0.75,-20 0.75,0 114.25,0 114.25,-20"/>
<text text-anchor="middle" x="57.5" y="-6.5" font-family="Helvetica,sans-Serif" font-size="10.00">VnaDevice::VnaDevice</text>
</a>
</g>
</g>
<!-- Node1&#45;&gt;Node3 -->
<g id="edge2_Node000001_Node000003" class="edge">
<title>Node1&#45;&gt;Node3</title>
<g id="a_edge2_Node000001_Node000003"><a xlink:title=" ">
<path fill="none" stroke="#63b8ff" d="M140.03,-21.66C131.67,-20.46 122.97,-19.22 114.5,-18.01"/>
<polygon fill="#63b8ff" stroke="#63b8ff" points="139.39,-25.25 149.79,-23.2 140.38,-18.32 139.39,-25.25"/>
</a>
</g>
</g>
</g>
</svg>
