<?xml version="1.0" encoding="UTF-8" standalone="no"?>
<!DOCTYPE svg PUBLIC "-//W3C//DTD SVG 1.1//EN"
 "http://www.w3.org/Graphics/SVG/1.1/DTD/svg11.dtd">
<!-- Generated by graphviz version 8.0.5 (20230430.1635)
 -->
<!-- Title: TesartRbd::status Pages: 1 -->
<svg width="743pt" height="142pt"
 viewBox="0.00 0.00 743.00 142.00" xmlns="http://www.w3.org/2000/svg" xmlns:xlink="http://www.w3.org/1999/xlink">
<g id="graph0" class="graph" transform="scale(1 1) rotate(0) translate(4 138)">
<title>TesartRbd::status</title>
<!-- Node1 -->
<g id="Node000001" class="node">
<title>Node1</title>
<g id="a_Node000001"><a xlink:title=" ">
<polygon fill="#999999" stroke="#666666" points="93.25,-96 0,-96 0,-76 93.25,-76 93.25,-96"/>
<text text-anchor="middle" x="46.62" y="-82.5" font-family="Helvetica,sans-Serif" font-size="10.00">TesartRbd::status</text>
</a>
</g>
</g>
<!-- Node2 -->
<g id="Node000002" class="node">
<title>Node2</title>
<g id="a_Node000002"><a xlink:href="class_visa_device.html#a42fef7311fd6239157768e33c667f2d5" target="_top" xlink:title="Очищает входящий и исходящие буферы устройства">
<polygon fill="white" stroke="#666666" points="220.25,-134 129.25,-134 129.25,-114 220.25,-114 220.25,-134"/>
<text text-anchor="middle" x="174.75" y="-120.5" font-family="Helvetica,sans-Serif" font-size="10.00">VisaDevice::clear</text>
</a>
</g>
</g>
<!-- Node1&#45;&gt;Node2 -->
<g id="edge1_Node000001_Node000002" class="edge">
<title>Node1&#45;&gt;Node2</title>
<g id="a_edge1_Node000001_Node000002"><a xlink:title=" ">
<path fill="none" stroke="#63b8ff" d="M82.42,-96.48C96.76,-100.8 113.55,-105.86 128.8,-110.46"/>
<polygon fill="#63b8ff" stroke="#63b8ff" points="127.48,-114.02 138.07,-113.55 129.5,-107.31 127.48,-114.02"/>
</a>
</g>
</g>
<!-- Node3 -->
<g id="Node000003" class="node">
<title>Node3</title>
<g id="a_Node000003"><a xlink:href="namespacestring__utils.html#a9fe07494ccc7914840b0d615974bc802" target="_top" xlink:title="Делит строку на две части по требуемому символу и возвращает содержимое правой части">
<polygon fill="white" stroke="#666666" points="219.88,-96 129.62,-96 129.62,-76 219.88,-76 219.88,-96"/>
<text text-anchor="middle" x="174.75" y="-82.5" font-family="Helvetica,sans-Serif" font-size="10.00">string_utils::lstrip</text>
</a>
</g>
</g>
<!-- Node1&#45;&gt;Node3 -->
<g id="edge2_Node000001_Node000003" class="edge">
<title>Node1&#45;&gt;Node3</title>
<g id="a_edge2_Node000001_Node000003"><a xlink:title=" ">
<path fill="none" stroke="#63b8ff" d="M93.52,-86C101.65,-86 110.19,-86 118.54,-86"/>
<polygon fill="#63b8ff" stroke="#63b8ff" points="118.37,-89.5 128.37,-86 118.37,-82.5 118.37,-89.5"/>
</a>
</g>
</g>
<!-- Node4 -->
<g id="Node000004" class="node">
<title>Node4</title>
<g id="a_Node000004"><a xlink:href="class_visa_device.html#ad659ba652605f5c983958400fde8c808" target="_top" xlink:title="Отправка данных на прибор и чтение ответа от прибора.">
<polygon fill="white" stroke="#666666" points="220.25,-58 129.25,-58 129.25,-38 220.25,-38 220.25,-58"/>
<text text-anchor="middle" x="174.75" y="-44.5" font-family="Helvetica,sans-Serif" font-size="10.00">VisaDevice::send</text>
</a>
</g>
</g>
<!-- Node1&#45;&gt;Node4 -->
<g id="edge3_Node000001_Node000004" class="edge">
<title>Node1&#45;&gt;Node4</title>
<g id="a_edge3_Node000001_Node000004"><a xlink:title=" ">
<path fill="none" stroke="#63b8ff" d="M82.42,-75.52C96.76,-71.2 113.55,-66.14 128.8,-61.54"/>
<polygon fill="#63b8ff" stroke="#63b8ff" points="129.5,-64.69 138.07,-58.45 127.48,-57.98 129.5,-64.69"/>
</a>
</g>
</g>
<!-- Node5 -->
<g id="Node000005" class="node">
<title>Node5</title>
<g id="a_Node000005"><a xlink:href="class_logger.html#af7709105c2708359b7b082218f4cc3e1" target="_top" xlink:title="Метод, осуществляющий логирование">
<polygon fill="white" stroke="#666666" points="576.5,-77 512.5,-77 512.5,-57 576.5,-57 576.5,-77"/>
<text text-anchor="middle" x="544.5" y="-63.5" font-family="Helvetica,sans-Serif" font-size="10.00">Logger::log</text>
</a>
</g>
</g>
<!-- Node4&#45;&gt;Node5 -->
<g id="edge4_Node000004_Node000005" class="edge">
<title>Node4&#45;&gt;Node5</title>
<g id="a_edge4_Node000004_Node000005"><a xlink:title=" ">
<path fill="none" stroke="#63b8ff" d="M207.58,-58.39C222.26,-62.85 240,-67.76 256.25,-71 352.48,-90.16 379.32,-99.51 476.5,-86 485.27,-84.78 494.5,-82.7 503.22,-80.36"/>
<polygon fill="#63b8ff" stroke="#63b8ff" points="503.88,-83.53 512.53,-77.41 501.95,-76.8 503.88,-83.53"/>
</a>
</g>
</g>
<!-- Node10 -->
<g id="Node000010" class="node">
<title>Node10</title>
<g id="a_Node000010"><a xlink:href="class_visa_device.html#aa807192fd9a8c3e6efc458f78de5e73e" target="_top" xlink:title="Метод, совмещающий в себе методы write() и read().">
<polygon fill="white" stroke="#666666" points="350.25,-39 256.25,-39 256.25,-19 350.25,-19 350.25,-39"/>
<text text-anchor="middle" x="303.25" y="-25.5" font-family="Helvetica,sans-Serif" font-size="10.00">VisaDevice::query</text>
</a>
</g>
</g>
<!-- Node4&#45;&gt;Node10 -->
<g id="edge9_Node000004_Node000010" class="edge">
<title>Node4&#45;&gt;Node10</title>
<g id="a_edge9_Node000004_Node000010"><a xlink:title=" ">
<path fill="none" stroke="#63b8ff" d="M220.71,-41.25C228.7,-40.05 237.13,-38.78 245.41,-37.54"/>
<polygon fill="#63b8ff" stroke="#63b8ff" points="245.79,-40.87 255.16,-35.92 244.75,-33.95 245.79,-40.87"/>
</a>
</g>
</g>
<!-- Node11 -->
<g id="Node000011" class="node">
<title>Node11</title>
<g id="a_Node000011"><a xlink:href="class_visa_device.html#aca08d9dbb0469f1143668a485e4adfe2" target="_top" xlink:title="Метод, позволяющий считать данные с устройства">
<polygon fill="white" stroke="#666666" points="475.75,-77 387,-77 387,-57 475.75,-57 475.75,-77"/>
<text text-anchor="middle" x="431.38" y="-63.5" font-family="Helvetica,sans-Serif" font-size="10.00">VisaDevice::read</text>
</a>
</g>
</g>
<!-- Node4&#45;&gt;Node11 -->
<g id="edge14_Node000004_Node000011" class="edge">
<title>Node4&#45;&gt;Node11</title>
<g id="a_edge14_Node000004_Node000011"><a xlink:title=" ">
<path fill="none" stroke="#63b8ff" d="M220.69,-51.35C264.04,-54.59 329.72,-59.49 376,-62.94"/>
<polygon fill="#63b8ff" stroke="#63b8ff" points="375.51,-66.49 385.74,-63.74 376.03,-59.51 375.51,-66.49"/>
</a>
</g>
</g>
<!-- Node12 -->
<g id="Node000012" class="node">
<title>Node12</title>
<g id="a_Node000012"><a xlink:href="class_visa_device.html#a29202c3f5e47326386d1d27972e25267" target="_top" xlink:title="Метод, позволяющий отправить команду на устройство">
<polygon fill="white" stroke="#666666" points="476.5,-39 386.25,-39 386.25,-19 476.5,-19 476.5,-39"/>
<text text-anchor="middle" x="431.38" y="-25.5" font-family="Helvetica,sans-Serif" font-size="10.00">VisaDevice::write</text>
</a>
</g>
</g>
<!-- Node4&#45;&gt;Node12 -->
<g id="edge15_Node000004_Node000012" class="edge">
<title>Node4&#45;&gt;Node12</title>
<g id="a_edge15_Node000004_Node000012"><a xlink:title=" ">
<path fill="none" stroke="#63b8ff" d="M192.23,-37.55C207.98,-28.23 232.72,-15.27 256.25,-10 299.41,-0.32 349.74,-7.78 385.15,-16.02"/>
<polygon fill="#63b8ff" stroke="#63b8ff" points="384.1,-19.61 394.64,-18.58 385.76,-12.81 384.1,-19.61"/>
</a>
</g>
</g>
<!-- Node6 -->
<g id="Node000006" class="node">
<title>Node6</title>
<g id="a_Node000006"><a xlink:href="logger_8hpp.html#a49284b7befa8e31f81e01ee8f3735dd0" target="_top" xlink:title="Функция, которая снимает значение текущего времени и конвертирует его в строку с заданным шаблоном.">
<polygon fill="white" stroke="#666666" points="718.12,-134 629.38,-134 629.38,-114 718.12,-114 718.12,-134"/>
<text text-anchor="middle" x="673.75" y="-120.5" font-family="Helvetica,sans-Serif" font-size="10.00">get_current_time</text>
</a>
</g>
</g>
<!-- Node5&#45;&gt;Node6 -->
<g id="edge5_Node000005_Node000006" class="edge">
<title>Node5&#45;&gt;Node6</title>
<g id="a_edge5_Node000005_Node000006"><a xlink:title=" ">
<path fill="none" stroke="#63b8ff" d="M561.52,-77.36C574.8,-85.63 594.35,-97.1 612.5,-105 616.57,-106.77 620.86,-108.46 625.2,-110.05"/>
<polygon fill="#63b8ff" stroke="#63b8ff" points="623.74,-113.59 634.34,-113.55 626.03,-106.97 623.74,-113.59"/>
</a>
</g>
</g>
<!-- Node7 -->
<g id="Node000007" class="node">
<title>Node7</title>
<g id="a_Node000007"><a xlink:href="class_logger.html#a6edb7b263f080d417b82a537ed50fee4" target="_top" xlink:title="Возвращает тег в зависимости от уровня логирования и от назначения тега.">
<polygon fill="white" stroke="#666666" points="715.5,-96 632,-96 632,-76 715.5,-76 715.5,-96"/>
<text text-anchor="middle" x="673.75" y="-82.5" font-family="Helvetica,sans-Serif" font-size="10.00">Logger::get_tag</text>
</a>
</g>
</g>
<!-- Node5&#45;&gt;Node7 -->
<g id="edge6_Node000005_Node000007" class="edge">
<title>Node5&#45;&gt;Node7</title>
<g id="a_edge6_Node000005_Node000007"><a xlink:title=" ">
<path fill="none" stroke="#63b8ff" d="M576.96,-71.7C590.22,-73.68 606.02,-76.04 620.92,-78.26"/>
<polygon fill="#63b8ff" stroke="#63b8ff" points="620.16,-81.84 630.57,-79.85 621.19,-74.91 620.16,-81.84"/>
</a>
</g>
</g>
<!-- Node8 -->
<g id="Node000008" class="node">
<title>Node8</title>
<g id="a_Node000008"><a xlink:href="class_logger.html#a4825613142ebb093bf8fa26f21f7f3fc" target="_top" xlink:title="Метод, который выводит сообщение в консоль.">
<polygon fill="white" stroke="#666666" points="735,-58 612.5,-58 612.5,-38 735,-38 735,-58"/>
<text text-anchor="middle" x="673.75" y="-44.5" font-family="Helvetica,sans-Serif" font-size="10.00">Logger::print_to_console</text>
</a>
</g>
</g>
<!-- Node5&#45;&gt;Node8 -->
<g id="edge7_Node000005_Node000008" class="edge">
<title>Node5&#45;&gt;Node8</title>
<g id="a_edge7_Node000005_Node000008"><a xlink:title=" ">
<path fill="none" stroke="#63b8ff" d="M576.96,-62.3C584.46,-61.18 592.77,-59.94 601.28,-58.67"/>
<polygon fill="#63b8ff" stroke="#63b8ff" points="601.73,-61.99 611.1,-57.06 600.69,-55.07 601.73,-61.99"/>
</a>
</g>
</g>
<!-- Node9 -->
<g id="Node000009" class="node">
<title>Node9</title>
<g id="a_Node000009"><a xlink:href="class_logger.html#a999bb33f7cf079cb98f32fae6016a2f3" target="_top" xlink:title="Метод, который записывает сообщение в файл.">
<polygon fill="white" stroke="#666666" points="724.12,-20 623.38,-20 623.38,0 724.12,0 724.12,-20"/>
<text text-anchor="middle" x="673.75" y="-6.5" font-family="Helvetica,sans-Serif" font-size="10.00">Logger::print_to_file</text>
</a>
</g>
</g>
<!-- Node5&#45;&gt;Node9 -->
<g id="edge8_Node000005_Node000009" class="edge">
<title>Node5&#45;&gt;Node9</title>
<g id="a_edge8_Node000005_Node000009"><a xlink:title=" ">
<path fill="none" stroke="#63b8ff" d="M561.52,-56.64C574.8,-48.37 594.35,-36.9 612.5,-29 616.57,-27.23 620.86,-25.54 625.2,-23.95"/>
<polygon fill="#63b8ff" stroke="#63b8ff" points="626.03,-27.03 634.34,-20.45 623.74,-20.41 626.03,-27.03"/>
</a>
</g>
</g>
<!-- Node10&#45;&gt;Node11 -->
<g id="edge10_Node000010_Node000011" class="edge">
<title>Node10&#45;&gt;Node11</title>
<g id="a_edge10_Node000010_Node000011"><a xlink:title=" ">
<path fill="none" stroke="#63b8ff" d="M339.05,-39.48C353.38,-43.8 370.18,-48.86 385.43,-53.46"/>
<polygon fill="#63b8ff" stroke="#63b8ff" points="384.11,-57.02 394.69,-56.55 386.13,-50.31 384.11,-57.02"/>
</a>
</g>
</g>
<!-- Node10&#45;&gt;Node12 -->
<g id="edge12_Node000010_Node000012" class="edge">
<title>Node10&#45;&gt;Node12</title>
<g id="a_edge12_Node000010_Node000012"><a xlink:title=" ">
<path fill="none" stroke="#63b8ff" d="M350.5,-29C358.42,-29 366.73,-29 374.87,-29"/>
<polygon fill="#63b8ff" stroke="#63b8ff" points="374.81,-32.5 384.81,-29 374.81,-25.5 374.81,-32.5"/>
</a>
</g>
</g>
<!-- Node11&#45;&gt;Node5 -->
<g id="edge11_Node000011_Node000005" class="edge">
<title>Node11&#45;&gt;Node5</title>
<g id="a_edge11_Node000011_Node000005"><a xlink:title=" ">
<path fill="none" stroke="#63b8ff" d="M475.98,-67C484.25,-67 492.9,-67 501.14,-67"/>
<polygon fill="#63b8ff" stroke="#63b8ff" points="501.04,-70.5 511.04,-67 501.04,-63.5 501.04,-70.5"/>
</a>
</g>
</g>
<!-- Node12&#45;&gt;Node5 -->
<g id="edge13_Node000012_Node000005" class="edge">
<title>Node12&#45;&gt;Node5</title>
<g id="a_edge13_Node000012_Node000005"><a xlink:title=" ">
<path fill="none" stroke="#63b8ff" d="M463.03,-39.48C475.3,-43.68 489.61,-48.57 502.73,-53.06"/>
<polygon fill="#63b8ff" stroke="#63b8ff" points="501.35,-56.63 511.94,-56.55 503.61,-50 501.35,-56.63"/>
</a>
</g>
</g>
</g>
</svg>
