<?xml version="1.0" encoding="UTF-8" standalone="no"?>
<!DOCTYPE svg PUBLIC "-//W3C//DTD SVG 1.1//EN"
 "http://www.w3.org/Graphics/SVG/1.1/DTD/svg11.dtd">
<!-- Generated by graphviz version 8.1.0 (20230707.0739)
 -->
<!-- Title: PlanarS50244::configure Pages: 1 -->
<!--zoomable 251 -->

<svg id="main" version="1.1" xmlns="http://www.w3.org/2000/svg" xmlns:xlink="http://www.w3.org/1999/xlink" xml:space="preserve" onload="init(evt)">
<style type="text/css"><![CDATA[
.node, .edge {opacity: 0.7;}
.node.selected, .edge.selected {opacity: 1;}
.edge:hover path { stroke: red; }
.edge:hover polygon { stroke: red; fill: red; }
]]></style>

<defs>
  <circle id="rim" cx="0" cy="0" r="7"/>
  <circle id="rim2" cx="0" cy="0" r="3.5"/>
  <g id="zoomPlus">
    <use xlink:href="#rim" fill="#404040"><set attributeName="fill" to="#808080" begin="zoomplus.mouseover" end="zoomplus.mouseout"/></use>
    <path d="M-4,0h8M0,-4v8" fill="none" stroke="white" stroke-width="1.5" pointer-events="none"/>
  </g>
  <g id="zoomMin">
    <use xlink:href="#rim" fill="#404040"><set attributeName="fill" to="#808080" begin="zoomminus.mouseover" end="zoomminus.mouseout"/></use>
    <path d="M-4,0h8" fill="none" stroke="white" stroke-width="1.5" pointer-events="none"/>
  </g>
  <g id="arrowUp" transform="translate(30 24)">
    <use xlink:href="#rim"/>
    <path pointer-events="none" fill="none" stroke="white" stroke-width="1.5" d="M0,-3.0v7 M-2.5,-0.5L0,-3.0L2.5,-0.5"/>
  </g>
  <g id="arrowRight" transform="rotate(90) translate(36 -43)">
    <use xlink:href="#rim"/>
    <path pointer-events="none" fill="none" stroke="white" stroke-width="1.5" d="M0,-3.0v7 M-2.5,-0.5L0,-3.0L2.5,-0.5"/>
  </g>
  <g id="arrowDown" transform="rotate(180) translate(-30 -48)">
    <use xlink:href="#rim"/>
    <path pointer-events="none" fill="none" stroke="white" stroke-width="1.5" d="M0,-3.0v7 M-2.5,-0.5L0,-3.0L2.5,-0.5"/>
  </g>
  <g id="arrowLeft" transform="rotate(270) translate(-36 17)">
    <use xlink:href="#rim"/>
    <path pointer-events="none" fill="none" stroke="white" stroke-width="1.5" d="M0,-3.0v7 M-2.5,-0.5L0,-3.0L2.5,-0.5"/>
  </g>
  <g id="resetDef">
    <use xlink:href="#rim2" fill="#404040"><set attributeName="fill" to="#808080" begin="reset.mouseover" end="reset.mouseout"/></use>
  </g>
</defs>
<script type="application/ecmascript">
var viewWidth = 1210;
var viewHeight = 251;
var sectionId = 'dynsection-4';
</script>
<script type="application/ecmascript" xlink:href="svg.min.js"/>
<svg id="graph" class="graph">
<g id="viewport">
<title>PlanarS50244::configure</title>
<!-- Node1 -->
<g id="Node000001" class="node">
<title>Node1</title>
<g id="a_Node000001"><a xlink:title="Настройка ВАЦ для измерения">
<polygon fill="#999999" stroke="#666666" points="121.75,-195.79 0,-195.79 0,-175.79 121.75,-175.79 121.75,-195.79"/>
<text text-anchor="middle" x="60.88" y="-182.29" font-family="Helvetica,sans-Serif" font-size="10.00">PlanarS50244::configure</text>
</a>
</g>
</g>
<!-- Node2 -->
<g id="Node000002" class="node">
<title>Node2</title>
<g id="a_Node000002"><a xlink:href="class_visa_device.html#a069e154c5f48779dfd908146db9e66ed" target="_top" xlink:title="Отправка данных на прибор и чтение ответа от прибора. Также, ожидается завершение выполнения действий...">
<polygon fill="white" stroke="#666666" points="287.75,-195.79 157.75,-195.79 157.75,-175.79 287.75,-175.79 287.75,-195.79"/>
<text text-anchor="middle" x="222.75" y="-182.29" font-family="Helvetica,sans-Serif" font-size="10.00">VisaDevice::send_wait_err</text>
</a>
</g>
</g>
<!-- Node1&#45;&gt;Node2 -->
<g id="edge1_Node000001_Node000002" class="edge">
<title>Node1&#45;&gt;Node2</title>
<g id="a_edge1_Node000001_Node000002"><a xlink:title=" ">
<path fill="none" stroke="#63b8ff" d="M121.86,-185.79C129.93,-185.79 138.29,-185.79 146.58,-185.79"/>
<polygon fill="#63b8ff" stroke="#63b8ff" points="146.41,-189.29 156.41,-185.79 146.41,-182.29 146.41,-189.29"/>
</a>
</g>
</g>
<!-- Node3 -->
<g id="Node000003" class="node">
<title>Node3</title>
<g id="a_Node000003"><a xlink:href="class_visa_device.html#aba4642c194cffe2135a133e23960ab63" target="_top" xlink:title="Отправляет команду &quot;SYSTEM:ERROR?&quot; на подключенное устройство и считывает сведения об ошибках,...">
<polygon fill="white" stroke="#666666" points="682.62,-195.79 601.38,-195.79 601.38,-175.79 682.62,-175.79 682.62,-195.79"/>
<text text-anchor="middle" x="642" y="-182.29" font-family="Helvetica,sans-Serif" font-size="10.00">VisaDevice::err</text>
</a>
</g>
</g>
<!-- Node2&#45;&gt;Node3 -->
<g id="edge2_Node000002_Node000003" class="edge">
<title>Node2&#45;&gt;Node3</title>
<g id="a_edge2_Node000002_Node000003"><a xlink:title=" ">
<path fill="none" stroke="#63b8ff" d="M288.03,-185.79C371.15,-185.79 514.24,-185.79 590.19,-185.79"/>
<polygon fill="#63b8ff" stroke="#63b8ff" points="589.89,-189.29 599.89,-185.79 589.89,-182.29 589.89,-189.29"/>
</a>
</g>
</g>
<!-- Node4 -->
<g id="Node000004" class="node">
<title>Node4</title>
<g id="a_Node000004"><a xlink:href="class_logger.html#af7709105c2708359b7b082218f4cc3e1" target="_top" xlink:title="Метод, осуществляющий логирование">
<polygon fill="white" stroke="#666666" points="1043.75,-100.79 979.75,-100.79 979.75,-80.79 1043.75,-80.79 1043.75,-100.79"/>
<text text-anchor="middle" x="1011.75" y="-87.29" font-family="Helvetica,sans-Serif" font-size="10.00">Logger::log</text>
</a>
</g>
</g>
<!-- Node2&#45;&gt;Node4 -->
<g id="edge13_Node000002_Node000004" class="edge">
<title>Node2&#45;&gt;Node4</title>
<g id="a_edge13_Node000002_Node000004"><a xlink:title=" ">
<path fill="none" stroke="#63b8ff" d="M255.77,-196.25C309.1,-212.7 419.76,-242.79 515.88,-242.79 515.88,-242.79 515.88,-242.79 771.5,-242.79 853.81,-242.79 877.57,-223.73 943.75,-174.79 967.41,-157.29 987.36,-129.46 999.18,-110.67"/>
<polygon fill="#63b8ff" stroke="#63b8ff" points="1002.68,-112.65 1004.88,-102.29 996.7,-109.02 1002.68,-112.65"/>
</a>
</g>
</g>
<!-- Node12 -->
<g id="Node000012" class="node">
<title>Node12</title>
<g id="a_Node000012"><a xlink:href="class_visa_device.html#a3744ee1e929d6c05b522693c344c76b3" target="_top" xlink:title="Отправка данных на прибор и чтение ответа от прибора. Также, ожидается завершение выполнения действий...">
<polygon fill="white" stroke="#666666" points="437.25,-119.79 323.75,-119.79 323.75,-99.79 437.25,-99.79 437.25,-119.79"/>
<text text-anchor="middle" x="380.5" y="-106.29" font-family="Helvetica,sans-Serif" font-size="10.00">VisaDevice::send_wait</text>
</a>
</g>
</g>
<!-- Node2&#45;&gt;Node12 -->
<g id="edge14_Node000002_Node000012" class="edge">
<title>Node2&#45;&gt;Node12</title>
<g id="a_edge14_Node000002_Node000012"><a xlink:title=" ">
<path fill="none" stroke="#63b8ff" d="M245.08,-175.39C271.88,-162.31 318.05,-139.78 348.69,-124.83"/>
<polygon fill="#63b8ff" stroke="#63b8ff" points="349.98,-127.61 357.43,-120.08 346.91,-121.32 349.98,-127.61"/>
</a>
</g>
</g>
<!-- Node3&#45;&gt;Node4 -->
<g id="edge3_Node000003_Node000004" class="edge">
<title>Node3&#45;&gt;Node4</title>
<g id="a_edge3_Node000003_Node000004"><a xlink:title=" ">
<path fill="none" stroke="#63b8ff" d="M682.87,-187.82C742.34,-189.32 856.6,-186.24 943.75,-147.79 963.69,-139 982.23,-122.29 994.72,-109.23"/>
<polygon fill="#63b8ff" stroke="#63b8ff" points="996.83,-112.02 1001.01,-102.29 991.67,-107.29 996.83,-112.02"/>
</a>
</g>
</g>
<!-- Node9 -->
<g id="Node000009" class="node">
<title>Node9</title>
<g id="a_Node000009"><a xlink:href="class_visa_device.html#aa807192fd9a8c3e6efc458f78de5e73e" target="_top" xlink:title="Метод, совмещающий в себе методы write() и read().">
<polygon fill="white" stroke="#666666" points="817.5,-138.79 723.5,-138.79 723.5,-118.79 817.5,-118.79 817.5,-138.79"/>
<text text-anchor="middle" x="770.5" y="-125.29" font-family="Helvetica,sans-Serif" font-size="10.00">VisaDevice::query</text>
</a>
</g>
</g>
<!-- Node3&#45;&gt;Node9 -->
<g id="edge8_Node000003_Node000009" class="edge">
<title>Node3&#45;&gt;Node9</title>
<g id="a_edge8_Node000003_Node000009"><a xlink:title=" ">
<path fill="none" stroke="#63b8ff" d="M666.2,-175.34C685.91,-166.46 714.42,-153.61 736.5,-143.66"/>
<polygon fill="#63b8ff" stroke="#63b8ff" points="737.77,-146.48 745.45,-139.18 734.89,-140.1 737.77,-146.48"/>
</a>
</g>
</g>
<!-- Node5 -->
<g id="Node000005" class="node">
<title>Node5</title>
<g id="a_Node000005"><a xlink:href="logger_8hpp.html#a49284b7befa8e31f81e01ee8f3735dd0" target="_top" xlink:title="Функция, которая снимает значение текущего времени и конвертирует его в строку с заданным шаблоном.">
<polygon fill="white" stroke="#666666" points="1185.38,-157.79 1096.62,-157.79 1096.62,-137.79 1185.38,-137.79 1185.38,-157.79"/>
<text text-anchor="middle" x="1141" y="-144.29" font-family="Helvetica,sans-Serif" font-size="10.00">get_current_time</text>
</a>
</g>
</g>
<!-- Node4&#45;&gt;Node5 -->
<g id="edge4_Node000004_Node000005" class="edge">
<title>Node4&#45;&gt;Node5</title>
<g id="a_edge4_Node000004_Node000005"><a xlink:title=" ">
<path fill="none" stroke="#63b8ff" d="M1028.77,-101.16C1042.05,-109.43 1061.6,-120.89 1079.75,-128.79 1083.82,-130.57 1088.11,-132.26 1092.45,-133.84"/>
<polygon fill="#63b8ff" stroke="#63b8ff" points="1090.99,-137.38 1101.59,-137.34 1093.28,-130.77 1090.99,-137.38"/>
</a>
</g>
</g>
<!-- Node6 -->
<g id="Node000006" class="node">
<title>Node6</title>
<g id="a_Node000006"><a xlink:href="class_logger.html#a6edb7b263f080d417b82a537ed50fee4" target="_top" xlink:title="Возвращает тег в зависимости от уровня логирования и от назначения тега.">
<polygon fill="white" stroke="#666666" points="1182.75,-119.79 1099.25,-119.79 1099.25,-99.79 1182.75,-99.79 1182.75,-119.79"/>
<text text-anchor="middle" x="1141" y="-106.29" font-family="Helvetica,sans-Serif" font-size="10.00">Logger::get_tag</text>
</a>
</g>
</g>
<!-- Node4&#45;&gt;Node6 -->
<g id="edge5_Node000004_Node000006" class="edge">
<title>Node4&#45;&gt;Node6</title>
<g id="a_edge5_Node000004_Node000006"><a xlink:title=" ">
<path fill="none" stroke="#63b8ff" d="M1044.21,-95.49C1057.47,-97.47 1073.27,-99.83 1088.17,-102.06"/>
<polygon fill="#63b8ff" stroke="#63b8ff" points="1087.41,-105.63 1097.82,-103.65 1088.44,-98.71 1087.41,-105.63"/>
</a>
</g>
</g>
<!-- Node7 -->
<g id="Node000007" class="node">
<title>Node7</title>
<g id="a_Node000007"><a xlink:href="class_logger.html#a4825613142ebb093bf8fa26f21f7f3fc" target="_top" xlink:title="Метод, который выводит сообщение в консоль.">
<polygon fill="white" stroke="#666666" points="1202.25,-81.79 1079.75,-81.79 1079.75,-61.79 1202.25,-61.79 1202.25,-81.79"/>
<text text-anchor="middle" x="1141" y="-68.29" font-family="Helvetica,sans-Serif" font-size="10.00">Logger::print_to_console</text>
</a>
</g>
</g>
<!-- Node4&#45;&gt;Node7 -->
<g id="edge6_Node000004_Node000007" class="edge">
<title>Node4&#45;&gt;Node7</title>
<g id="a_edge6_Node000004_Node000007"><a xlink:title=" ">
<path fill="none" stroke="#63b8ff" d="M1044.21,-86.1C1051.71,-84.98 1060.02,-83.74 1068.53,-82.47"/>
<polygon fill="#63b8ff" stroke="#63b8ff" points="1068.98,-85.79 1078.35,-80.85 1067.94,-78.87 1068.98,-85.79"/>
</a>
</g>
</g>
<!-- Node8 -->
<g id="Node000008" class="node">
<title>Node8</title>
<g id="a_Node000008"><a xlink:href="class_logger.html#a999bb33f7cf079cb98f32fae6016a2f3" target="_top" xlink:title="Метод, который записывает сообщение в файл.">
<polygon fill="white" stroke="#666666" points="1191.38,-43.79 1090.62,-43.79 1090.62,-23.79 1191.38,-23.79 1191.38,-43.79"/>
<text text-anchor="middle" x="1141" y="-30.29" font-family="Helvetica,sans-Serif" font-size="10.00">Logger::print_to_file</text>
</a>
</g>
</g>
<!-- Node4&#45;&gt;Node8 -->
<g id="edge7_Node000004_Node000008" class="edge">
<title>Node4&#45;&gt;Node8</title>
<g id="a_edge7_Node000004_Node000008"><a xlink:title=" ">
<path fill="none" stroke="#63b8ff" d="M1028.77,-80.43C1042.05,-72.16 1061.6,-60.7 1079.75,-52.79 1083.82,-51.02 1088.11,-49.33 1092.45,-47.75"/>
<polygon fill="#63b8ff" stroke="#63b8ff" points="1093.28,-50.82 1101.59,-44.24 1090.99,-44.2 1093.28,-50.82"/>
</a>
</g>
</g>
<!-- Node10 -->
<g id="Node000010" class="node">
<title>Node10</title>
<g id="a_Node000010"><a xlink:href="class_visa_device.html#aca08d9dbb0469f1143668a485e4adfe2" target="_top" xlink:title="Метод, позволяющий считать данные с устройства">
<polygon fill="white" stroke="#666666" points="943,-138.79 854.25,-138.79 854.25,-118.79 943,-118.79 943,-138.79"/>
<text text-anchor="middle" x="898.62" y="-125.29" font-family="Helvetica,sans-Serif" font-size="10.00">VisaDevice::read</text>
</a>
</g>
</g>
<!-- Node9&#45;&gt;Node10 -->
<g id="edge9_Node000009_Node000010" class="edge">
<title>Node9&#45;&gt;Node10</title>
<g id="a_edge9_Node000009_Node000010"><a xlink:title=" ">
<path fill="none" stroke="#63b8ff" d="M817.75,-128.79C825.96,-128.79 834.58,-128.79 843,-128.79"/>
<polygon fill="#63b8ff" stroke="#63b8ff" points="842.9,-132.29 852.9,-128.79 842.9,-125.29 842.9,-132.29"/>
</a>
</g>
</g>
<!-- Node11 -->
<g id="Node000011" class="node">
<title>Node11</title>
<g id="a_Node000011"><a xlink:href="class_visa_device.html#a29202c3f5e47326386d1d27972e25267" target="_top" xlink:title="Метод, позволяющий отправить команду на устройство">
<polygon fill="white" stroke="#666666" points="943.75,-100.79 853.5,-100.79 853.5,-80.79 943.75,-80.79 943.75,-100.79"/>
<text text-anchor="middle" x="898.62" y="-87.29" font-family="Helvetica,sans-Serif" font-size="10.00">VisaDevice::write</text>
</a>
</g>
</g>
<!-- Node9&#45;&gt;Node11 -->
<g id="edge11_Node000009_Node000011" class="edge">
<title>Node9&#45;&gt;Node11</title>
<g id="a_edge11_Node000009_Node000011"><a xlink:title=" ">
<path fill="none" stroke="#63b8ff" d="M806.3,-118.31C820.63,-113.99 837.43,-108.93 852.68,-104.34"/>
<polygon fill="#63b8ff" stroke="#63b8ff" points="853.38,-107.48 861.94,-101.24 851.36,-100.78 853.38,-107.48"/>
</a>
</g>
</g>
<!-- Node10&#45;&gt;Node4 -->
<g id="edge10_Node000010_Node000004" class="edge">
<title>Node10&#45;&gt;Node4</title>
<g id="a_edge10_Node000010_Node000004"><a xlink:title=" ">
<path fill="none" stroke="#63b8ff" d="M930.28,-118.31C942.55,-114.12 956.86,-109.22 969.98,-104.73"/>
<polygon fill="#63b8ff" stroke="#63b8ff" points="970.86,-107.79 979.19,-101.24 968.6,-101.17 970.86,-107.79"/>
</a>
</g>
</g>
<!-- Node11&#45;&gt;Node4 -->
<g id="edge12_Node000011_Node000004" class="edge">
<title>Node11&#45;&gt;Node4</title>
<g id="a_edge12_Node000011_Node000004"><a xlink:title=" ">
<path fill="none" stroke="#63b8ff" d="M944.18,-90.79C952.23,-90.79 960.59,-90.79 968.57,-90.79"/>
<polygon fill="#63b8ff" stroke="#63b8ff" points="968.5,-94.29 978.5,-90.79 968.5,-87.29 968.5,-94.29"/>
</a>
</g>
</g>
<!-- Node13 -->
<g id="Node000013" class="node">
<title>Node13</title>
<g id="a_Node000013"><a xlink:href="class_visa_device.html#ad659ba652605f5c983958400fde8c808" target="_top" xlink:title="Отправка данных на прибор и чтение ответа от прибора.">
<polygon fill="white" stroke="#666666" points="687.5,-119.79 596.5,-119.79 596.5,-99.79 687.5,-99.79 687.5,-119.79"/>
<text text-anchor="middle" x="642" y="-106.29" font-family="Helvetica,sans-Serif" font-size="10.00">VisaDevice::send</text>
</a>
</g>
</g>
<!-- Node12&#45;&gt;Node13 -->
<g id="edge15_Node000012_Node000013" class="edge">
<title>Node12&#45;&gt;Node13</title>
<g id="a_edge15_Node000012_Node000013"><a xlink:title=" ">
<path fill="none" stroke="#63b8ff" d="M437.49,-109.79C481.21,-109.79 541.67,-109.79 585.32,-109.79"/>
<polygon fill="#63b8ff" stroke="#63b8ff" points="585.31,-113.29 595.31,-109.79 585.31,-106.29 585.31,-113.29"/>
</a>
</g>
</g>
<!-- Node14 -->
<g id="Node000014" class="node">
<title>Node14</title>
<g id="a_Node000014"><a xlink:href="class_visa_device.html#ab1f5c0b110fca770dbd5be069453ea82" target="_top" xlink:title="Ожидание завершения выполнения команды.">
<polygon fill="white" stroke="#666666" points="560.5,-43.79 473.25,-43.79 473.25,-23.79 560.5,-23.79 560.5,-43.79"/>
<text text-anchor="middle" x="516.88" y="-30.29" font-family="Helvetica,sans-Serif" font-size="10.00">VisaDevice::wait</text>
</a>
</g>
</g>
<!-- Node12&#45;&gt;Node14 -->
<g id="edge20_Node000012_Node000014" class="edge">
<title>Node12&#45;&gt;Node14</title>
<g id="a_edge20_Node000012_Node000014"><a xlink:title=" ">
<path fill="none" stroke="#63b8ff" d="M399.9,-99.39C422.72,-86.48 461.82,-64.36 488.25,-49.42"/>
<polygon fill="#63b8ff" stroke="#63b8ff" points="489.71,-52.05 496.69,-44.08 486.27,-45.95 489.71,-52.05"/>
</a>
</g>
</g>
<!-- Node13&#45;&gt;Node4 -->
<g id="edge16_Node000013_Node000004" class="edge">
<title>Node13&#45;&gt;Node4</title>
<g id="a_edge16_Node000013_Node000004"><a xlink:title=" ">
<path fill="none" stroke="#63b8ff" d="M678.23,-99.3C734.43,-83.92 847.84,-58.46 943.75,-71.79 952.52,-73.01 961.75,-75.09 970.47,-77.43"/>
<polygon fill="#63b8ff" stroke="#63b8ff" points="969.2,-81 979.78,-80.38 971.13,-74.27 969.2,-81"/>
</a>
</g>
</g>
<!-- Node13&#45;&gt;Node9 -->
<g id="edge17_Node000013_Node000009" class="edge">
<title>Node13&#45;&gt;Node9</title>
<g id="a_edge17_Node000013_Node000009"><a xlink:title=" ">
<path fill="none" stroke="#63b8ff" d="M687.96,-116.55C695.95,-117.75 704.38,-119.01 712.66,-120.26"/>
<polygon fill="#63b8ff" stroke="#63b8ff" points="712,-123.85 722.41,-121.87 713.04,-116.93 712,-123.85"/>
</a>
</g>
</g>
<!-- Node13&#45;&gt;Node10 -->
<g id="edge18_Node000013_Node000010" class="edge">
<title>Node13&#45;&gt;Node10</title>
<g id="a_edge18_Node000013_Node000010"><a xlink:title=" ">
<path fill="none" stroke="#63b8ff" d="M659.48,-120.25C675.23,-129.56 699.97,-142.52 723.5,-147.79 766.66,-157.47 816.99,-150.02 852.4,-141.78"/>
<polygon fill="#63b8ff" stroke="#63b8ff" points="853.01,-144.99 861.89,-139.21 851.35,-138.19 853.01,-144.99"/>
</a>
</g>
</g>
<!-- Node13&#45;&gt;Node11 -->
<g id="edge19_Node000013_Node000011" class="edge">
<title>Node13&#45;&gt;Node11</title>
<g id="a_edge19_Node000013_Node000011"><a xlink:title=" ">
<path fill="none" stroke="#63b8ff" d="M687.94,-106.44C731.02,-103.23 796.17,-98.36 842.41,-94.91"/>
<polygon fill="#63b8ff" stroke="#63b8ff" points="842.43,-98.35 852.14,-94.11 841.91,-91.37 842.43,-98.35"/>
</a>
</g>
</g>
<!-- Node14&#45;&gt;Node4 -->
<g id="edge21_Node000014_Node000004" class="edge">
<title>Node14&#45;&gt;Node4</title>
<g id="a_edge21_Node000014_Node000004"><a xlink:title=" ">
<path fill="none" stroke="#63b8ff" d="M553.17,-23.38C566.6,-19.92 582.14,-16.51 596.5,-14.79 750.25,3.52 799.13,12.51 943.75,-42.79 961.78,-49.69 979.41,-62.64 992.05,-73.36"/>
<polygon fill="#63b8ff" stroke="#63b8ff" points="989.14,-75.33 998.96,-79.31 993.76,-70.08 989.14,-75.33"/>
</a>
</g>
</g>
<!-- Node15 -->
<g id="Node000015" class="node">
<title>Node15</title>
<g id="a_Node000015"><a xlink:href="class_visa_device.html#a70a6c6ace7c5841db420c1e112782a53" target="_top" xlink:title="Отправляет команду &quot;*OPC?&quot; на подключенное устройство, ожидает ответ и, в зависимости от полученного ...">
<polygon fill="white" stroke="#666666" points="684.88,-43.79 599.12,-43.79 599.12,-23.79 684.88,-23.79 684.88,-43.79"/>
<text text-anchor="middle" x="642" y="-30.29" font-family="Helvetica,sans-Serif" font-size="10.00">VisaDevice::opc</text>
</a>
</g>
</g>
<!-- Node14&#45;&gt;Node15 -->
<g id="edge22_Node000014_Node000015" class="edge">
<title>Node14&#45;&gt;Node15</title>
<g id="a_edge22_Node000014_Node000015"><a xlink:title=" ">
<path fill="none" stroke="#63b8ff" d="M560.94,-33.79C569.71,-33.79 579.04,-33.79 588.11,-33.79"/>
<polygon fill="#63b8ff" stroke="#63b8ff" points="588,-37.29 598,-33.79 588,-30.29 588,-37.29"/>
</a>
</g>
</g>
<!-- Node15&#45;&gt;Node4 -->
<g id="edge23_Node000015_Node000004" class="edge">
<title>Node15&#45;&gt;Node4</title>
<g id="a_edge23_Node000015_Node000004"><a xlink:title=" ">
<path fill="none" stroke="#63b8ff" d="M684.98,-34.25C743.7,-35.73 853.31,-41.54 943.75,-63.79 955.65,-66.72 968.24,-71.35 979.24,-75.96"/>
<polygon fill="#63b8ff" stroke="#63b8ff" points="977.68,-79.53 988.24,-80.31 980.47,-73.11 977.68,-79.53"/>
</a>
</g>
</g>
<!-- Node15&#45;&gt;Node9 -->
<g id="edge24_Node000015_Node000009" class="edge">
<title>Node15&#45;&gt;Node9</title>
<g id="a_edge24_Node000015_Node000009"><a xlink:title=" ">
<path fill="none" stroke="#63b8ff" d="M656.54,-43.96C678.2,-60.23 720.89,-92.29 747.14,-112"/>
<polygon fill="#63b8ff" stroke="#63b8ff" points="744.58,-115.21 754.68,-118.41 748.78,-109.61 744.58,-115.21"/>
</a>
</g>
</g>
</g>
</svg>

<g id="navigator" transform="translate(0 0)" fill="#404254">
  <rect fill="#f2f5e9" fill-opacity="0.5" stroke="#606060" stroke-width=".5" x="0" y="0" width="60" height="60"/>
  <use id="zoomplus" xlink:href="#zoomPlus" x="17" y="9" onmousedown="handleZoom(evt,'in')"/>
  <use id="zoomminus" xlink:href="#zoomMin" x="42" y="9" onmousedown="handleZoom(evt,'out')"/>
  <use id="reset" xlink:href="#resetDef" x="30" y="36" onmousedown="handleReset()"/>
   <use id="arrowup" xlink:href="#arrowUp" x="0" y="0" onmousedown="handlePan(0,-1)"/>
  <use id="arrowright" xlink:href="#arrowRight" x="0" y="0" onmousedown="handlePan(1,0)"/>
  <use id="arrowdown" xlink:href="#arrowDown" x="0" y="0" onmousedown="handlePan(0,1)"/>
  <use id="arrowleft" xlink:href="#arrowLeft" x="0" y="0" onmousedown="handlePan(-1,0)"/>
</g>
<svg viewBox="0 0 15 15" width="100%" height="30px" preserveAspectRatio="xMaxYMin meet">
 <g id="arrow_out" transform="scale(0.3 0.3)">
  <a xlink:href="class_planar_s50244_a9092c8dda103df83d5e407e768b887b7_cgraph_org.svg" target="_base">
   <rect id="button" ry="5" rx="5" y="6" x="6" height="38" width="38"
        fill="#f2f5e9" fill-opacity="0.5" stroke="#606060" stroke-width="1.0"/>
   <path id="arrow"
     d="M 11.500037,31.436501 C 11.940474,20.09759 22.043105,11.32322 32.158766,21.979434 L 37.068811,17.246167 C 37.068811,17.246167 37.088388,32 37.088388,32 L 22.160133,31.978069 C 22.160133,31.978069 26.997745,27.140456 26.997745,27.140456 C 18.528582,18.264221 13.291696,25.230495 11.500037,31.436501 z"
     style="fill:#404040;"/>
  </a>
 </g>
</svg>

<style type='text/css'>
<![CDATA[
[data-mouse-over-selected='false'] { opacity: 0.7; }
[data-mouse-over-selected='true']  { opacity: 1.0; }
]]>
</style>
<script type="application/ecmascript"><![CDATA[
document.addEventListener('DOMContentLoaded', (event) => {
  highlightEdges();
  highlightAdjacentNodes();
});
]]></script>
</svg>
