<?xml version="1.0" encoding="UTF-8" standalone="no"?>
<!DOCTYPE svg PUBLIC "-//W3C//DTD SVG 1.1//EN"
 "http://www.w3.org/Graphics/SVG/1.1/DTD/svg11.dtd">
<!-- Generated by graphviz version 8.0.5 (20230430.1635)
 -->
<!-- Title: TaskManager::proceed_nested_task_list Pages: 1 -->
<!--zoomable 672 -->

<svg id="main" version="1.1" xmlns="http://www.w3.org/2000/svg" xmlns:xlink="http://www.w3.org/1999/xlink" xml:space="preserve" onload="init(evt)">
<style type="text/css"><![CDATA[
.node, .edge {opacity: 0.7;}
.node.selected, .edge.selected {opacity: 1;}
.edge:hover path { stroke: red; }
.edge:hover polygon { stroke: red; fill: red; }
]]></style>

<defs>
  <circle id="rim" cx="0" cy="0" r="7"/>
  <circle id="rim2" cx="0" cy="0" r="3.5"/>
  <g id="zoomPlus">
    <use xlink:href="#rim" fill="#404040"><set attributeName="fill" to="#808080" begin="zoomplus.mouseover" end="zoomplus.mouseout"/></use>
    <path d="M-4,0h8M0,-4v8" fill="none" stroke="white" stroke-width="1.5" pointer-events="none"/>
  </g>
  <g id="zoomMin">
    <use xlink:href="#rim" fill="#404040"><set attributeName="fill" to="#808080" begin="zoomminus.mouseover" end="zoomminus.mouseout"/></use>
    <path d="M-4,0h8" fill="none" stroke="white" stroke-width="1.5" pointer-events="none"/>
  </g>
  <g id="arrowUp" transform="translate(30 24)">
    <use xlink:href="#rim"/>
    <path pointer-events="none" fill="none" stroke="white" stroke-width="1.5" d="M0,-3.0v7 M-2.5,-0.5L0,-3.0L2.5,-0.5"/>
  </g>
  <g id="arrowRight" transform="rotate(90) translate(36 -43)">
    <use xlink:href="#rim"/>
    <path pointer-events="none" fill="none" stroke="white" stroke-width="1.5" d="M0,-3.0v7 M-2.5,-0.5L0,-3.0L2.5,-0.5"/>
  </g>
  <g id="arrowDown" transform="rotate(180) translate(-30 -48)">
    <use xlink:href="#rim"/>
    <path pointer-events="none" fill="none" stroke="white" stroke-width="1.5" d="M0,-3.0v7 M-2.5,-0.5L0,-3.0L2.5,-0.5"/>
  </g>
  <g id="arrowLeft" transform="rotate(270) translate(-36 17)">
    <use xlink:href="#rim"/>
    <path pointer-events="none" fill="none" stroke="white" stroke-width="1.5" d="M0,-3.0v7 M-2.5,-0.5L0,-3.0L2.5,-0.5"/>
  </g>
  <g id="resetDef">
    <use xlink:href="#rim2" fill="#404040"><set attributeName="fill" to="#808080" begin="reset.mouseover" end="reset.mouseout"/></use>
  </g>
</defs>
<script type="application/ecmascript">
var viewWidth = 972;
var viewHeight = 672;
var sectionId = 'dynsection-24';
</script>
<script type="application/ecmascript" xlink:href="svg.min.js"/>
<svg id="graph" class="graph">
<g id="viewport">
<title>TaskManager::proceed_nested_task_list</title>
<!-- Node1 -->
<g id="Node000001" class="node">
<title>Node1</title>
<g id="a_Node000001"><a xlink:title=" ">
<polygon fill="#999999" stroke="#666666" points="115,-314 0,-314 0,-282 115,-282 115,-314"/>
<text text-anchor="start" x="8" y="-300.5" font-family="Helvetica,sans-Serif" font-size="10.00">TaskManager::proceed</text>
<text text-anchor="middle" x="57.5" y="-288.5" font-family="Helvetica,sans-Serif" font-size="10.00">_nested_task_list</text>
</a>
</g>
</g>
<!-- Node2 -->
<g id="Node000002" class="node">
<title>Node2</title>
<g id="a_Node000002"><a xlink:href="class_device_set.html#a548166665d062dc3a5a468ca184d8e08" target="_top" xlink:title=" ">
<polygon fill="white" stroke="#666666" points="277.62,-626 176.12,-626 176.12,-594 277.62,-594 277.62,-626"/>
<text text-anchor="start" x="184.12" y="-612.5" font-family="Helvetica,sans-Serif" font-size="10.00">DeviceSet::is_using</text>
<text text-anchor="middle" x="226.88" y="-600.5" font-family="Helvetica,sans-Serif" font-size="10.00">_ext_gen</text>
</a>
</g>
</g>
<!-- Node1&#45;&gt;Node2 -->
<g id="edge1_Node000001_Node000002" class="edge">
<title>Node1&#45;&gt;Node2</title>
<g id="a_edge1_Node000001_Node000002"><a xlink:title=" ">
<path fill="none" stroke="#63b8ff" d="M59.22,-314.4C62.16,-361.88 76.98,-501.08 151,-580 155.36,-584.65 160.53,-588.59 166.09,-591.93"/>
<polygon fill="#63b8ff" stroke="#63b8ff" points="164.26,-595.45 174.74,-597 167.52,-589.25 164.26,-595.45"/>
</a>
</g>
</g>
<!-- Node3 -->
<g id="Node000003" class="node">
<title>Node3</title>
<g id="a_Node000003"><a xlink:href="class_logger.html#af7709105c2708359b7b082218f4cc3e1" target="_top" xlink:title="Метод, осуществляющий логирование">
<polygon fill="white" stroke="#666666" points="773.38,-412 709.38,-412 709.38,-392 773.38,-392 773.38,-412"/>
<text text-anchor="middle" x="741.38" y="-398.5" font-family="Helvetica,sans-Serif" font-size="10.00">Logger::log</text>
</a>
</g>
</g>
<!-- Node1&#45;&gt;Node3 -->
<g id="edge2_Node000001_Node000003" class="edge">
<title>Node1&#45;&gt;Node3</title>
<g id="a_edge2_Node000001_Node000003"><a xlink:title=" ">
<path fill="none" stroke="#63b8ff" d="M77.52,-314.27C120.49,-349.76 229.86,-433.02 338.75,-459 471.35,-490.64 633.04,-441.85 704.02,-416.16"/>
<polygon fill="#63b8ff" stroke="#63b8ff" points="705.05,-419.15 713.22,-412.41 702.62,-412.58 705.05,-419.15"/>
</a>
</g>
</g>
<!-- Node8 -->
<g id="Node000008" class="node">
<title>Node8</title>
<g id="a_Node000008"><a xlink:href="class_device_set.html#a42484914aabe91a0d030557db440fab0" target="_top" xlink:title=" ">
<polygon fill="white" stroke="#666666" points="634.75,-664 533.25,-664 533.25,-632 634.75,-632 634.75,-664"/>
<text text-anchor="start" x="541.25" y="-650.5" font-family="Helvetica,sans-Serif" font-size="10.00">DeviceSet::move_to</text>
<text text-anchor="middle" x="584" y="-638.5" font-family="Helvetica,sans-Serif" font-size="10.00">_start_angle</text>
</a>
</g>
</g>
<!-- Node1&#45;&gt;Node8 -->
<g id="edge7_Node000001_Node000008" class="edge">
<title>Node1&#45;&gt;Node8</title>
<g id="a_edge7_Node000001_Node000008"><a xlink:title=" ">
<path fill="none" stroke="#63b8ff" d="M61.84,-314.32C70.22,-351.22 95.56,-441.76 151,-492 258.46,-589.37 431.25,-627.13 522.32,-640.83"/>
<polygon fill="#63b8ff" stroke="#63b8ff" points="521.61,-644.41 532.01,-642.38 522.62,-637.48 521.61,-644.41"/>
</a>
</g>
</g>
<!-- Node10 -->
<g id="Node000010" class="node">
<title>Node10</title>
<g id="a_Node000010"><a xlink:href="class_device_set.html#a6b558cdb43f83e3948cd1154a15841ad" target="_top" xlink:title=" ">
<polygon fill="white" stroke="#666666" points="277.62,-292 176.12,-292 176.12,-260 277.62,-260 277.62,-292"/>
<text text-anchor="start" x="184.12" y="-278.5" font-family="Helvetica,sans-Serif" font-size="10.00">DeviceSet::move_to</text>
<text text-anchor="middle" x="226.88" y="-266.5" font-family="Helvetica,sans-Serif" font-size="10.00">_start_freq</text>
</a>
</g>
</g>
<!-- Node1&#45;&gt;Node10 -->
<g id="edge10_Node000001_Node000010" class="edge">
<title>Node1&#45;&gt;Node10</title>
<g id="a_edge10_Node000001_Node000010"><a xlink:title=" ">
<path fill="none" stroke="#63b8ff" d="M115.17,-290.55C131.27,-288.44 148.87,-286.12 165.2,-283.98"/>
<polygon fill="#63b8ff" stroke="#63b8ff" points="165.26,-287.37 174.72,-282.59 164.35,-280.43 165.26,-287.37"/>
</a>
</g>
</g>
<!-- Node12 -->
<g id="Node000012" class="node">
<title>Node12</title>
<g id="a_Node000012"><a xlink:href="class_task_manager.html#a0ad340d364ac4e25a7abb94aea073cb1" target="_top" xlink:title=" ">
<polygon fill="white" stroke="#666666" points="302.75,-242 151,-242 151,-222 302.75,-222 302.75,-242"/>
<text text-anchor="middle" x="226.88" y="-228.5" font-family="Helvetica,sans-Serif" font-size="10.00">TaskManager::next_angle_task</text>
</a>
</g>
</g>
<!-- Node1&#45;&gt;Node12 -->
<g id="edge13_Node000001_Node000012" class="edge">
<title>Node1&#45;&gt;Node12</title>
<g id="a_edge13_Node000001_Node000012"><a xlink:title=" ">
<path fill="none" stroke="#63b8ff" d="M86.51,-281.71C104.48,-271.78 128.57,-259.42 151,-251 156.41,-248.97 162.13,-247.08 167.89,-245.35"/>
<polygon fill="#63b8ff" stroke="#63b8ff" points="168.59,-248.5 177.25,-242.39 166.68,-241.77 168.59,-248.5"/>
</a>
</g>
</g>
<!-- Node15 -->
<g id="Node000015" class="node">
<title>Node15</title>
<g id="a_Node000015"><a xlink:href="class_task_manager.html#a2fde49fc27ecd21717c7deefe4b09dd3" target="_top" xlink:title=" ">
<polygon fill="white" stroke="#666666" points="299,-204 154.75,-204 154.75,-184 299,-184 299,-204"/>
<text text-anchor="middle" x="226.88" y="-190.5" font-family="Helvetica,sans-Serif" font-size="10.00">TaskManager::next_freq_task</text>
</a>
</g>
</g>
<!-- Node1&#45;&gt;Node15 -->
<g id="edge16_Node000001_Node000015" class="edge">
<title>Node1&#45;&gt;Node15</title>
<g id="a_edge16_Node000001_Node000015"><a xlink:title=" ">
<path fill="none" stroke="#63b8ff" d="M71.76,-281.64C88.3,-262.33 118.39,-230.64 151,-213 154.28,-211.22 157.74,-209.61 161.29,-208.14"/>
<polygon fill="#63b8ff" stroke="#63b8ff" points="162.31,-211.13 170.49,-204.38 159.89,-204.56 162.31,-211.13"/>
</a>
</g>
</g>
<!-- Node18 -->
<g id="Node000018" class="node">
<title>Node18</title>
<g id="a_Node000018"><a xlink:href="class_task_manager.html#abf6a739a56cdc1bdf2cd71666c6f31be" target="_top" xlink:title=" ">
<polygon fill="white" stroke="#666666" points="296.38,-355 157.38,-355 157.38,-335 296.38,-335 296.38,-355"/>
<text text-anchor="middle" x="226.88" y="-341.5" font-family="Helvetica,sans-Serif" font-size="10.00">TaskManager::proceed_task</text>
</a>
</g>
</g>
<!-- Node1&#45;&gt;Node18 -->
<g id="edge19_Node000001_Node000018" class="edge">
<title>Node1&#45;&gt;Node18</title>
<g id="a_edge19_Node000001_Node000018"><a xlink:title=" ">
<path fill="none" stroke="#63b8ff" d="M115.17,-313.91C135.65,-319.66 158.56,-326.1 178.19,-331.61"/>
<polygon fill="#63b8ff" stroke="#63b8ff" points="177.16,-335.24 187.73,-334.57 179.05,-328.5 177.16,-335.24"/>
</a>
</g>
</g>
<!-- Node37 -->
<g id="Node000037" class="node">
<title>Node37</title>
<g id="a_Node000037"><a xlink:href="class_device_set.html#adee7ff2a8a80e6ddf44274d6c2828a2c" target="_top" xlink:title=" ">
<polygon fill="white" stroke="#666666" points="282.5,-166 171.25,-166 171.25,-134 282.5,-134 282.5,-166"/>
<text text-anchor="start" x="179.25" y="-152.5" font-family="Helvetica,sans-Serif" font-size="10.00">DeviceSet::reset_stop</text>
<text text-anchor="middle" x="226.88" y="-140.5" font-family="Helvetica,sans-Serif" font-size="10.00">_request</text>
</a>
</g>
</g>
<!-- Node1&#45;&gt;Node37 -->
<g id="edge50_Node000001_Node000037" class="edge">
<title>Node1&#45;&gt;Node37</title>
<g id="a_edge50_Node000001_Node000037"><a xlink:title=" ">
<path fill="none" stroke="#63b8ff" d="M66.64,-281.53C80.44,-255.26 110.89,-203.89 151,-175 154.19,-172.7 157.61,-170.61 161.16,-168.69"/>
<polygon fill="#63b8ff" stroke="#63b8ff" points="162.31,-171.54 169.81,-164.05 159.28,-165.23 162.31,-171.54"/>
</a>
</g>
</g>
<!-- Node4 -->
<g id="Node000004" class="node">
<title>Node4</title>
<g id="a_Node000004"><a xlink:href="logger_8hpp.html#a49284b7befa8e31f81e01ee8f3735dd0" target="_top" xlink:title="Функция, которая снимает значение текущего времени и конвертирует его в строку с заданным шаблоном.">
<polygon fill="white" stroke="#666666" points="946.88,-469 858.12,-469 858.12,-449 946.88,-449 946.88,-469"/>
<text text-anchor="middle" x="902.5" y="-455.5" font-family="Helvetica,sans-Serif" font-size="10.00">get_current_time</text>
</a>
</g>
</g>
<!-- Node3&#45;&gt;Node4 -->
<g id="edge3_Node000003_Node000004" class="edge">
<title>Node3&#45;&gt;Node4</title>
<g id="a_edge3_Node000003_Node000004"><a xlink:title=" ">
<path fill="none" stroke="#63b8ff" d="M768.24,-412.44C788.09,-420.33 816.25,-431.26 841.25,-440 846.3,-441.76 851.61,-443.55 856.9,-445.27"/>
<polygon fill="#63b8ff" stroke="#63b8ff" points="855.38,-448.78 865.97,-448.51 857.52,-442.12 855.38,-448.78"/>
</a>
</g>
</g>
<!-- Node5 -->
<g id="Node000005" class="node">
<title>Node5</title>
<g id="a_Node000005"><a xlink:href="class_logger.html#a6edb7b263f080d417b82a537ed50fee4" target="_top" xlink:title="Возвращает тег в зависимости от уровня логирования и от назначения тега.">
<polygon fill="white" stroke="#666666" points="944.25,-431 860.75,-431 860.75,-411 944.25,-411 944.25,-431"/>
<text text-anchor="middle" x="902.5" y="-417.5" font-family="Helvetica,sans-Serif" font-size="10.00">Logger::get_tag</text>
</a>
</g>
</g>
<!-- Node3&#45;&gt;Node5 -->
<g id="edge4_Node000003_Node000005" class="edge">
<title>Node3&#45;&gt;Node5</title>
<g id="a_edge4_Node000003_Node000005"><a xlink:title=" ">
<path fill="none" stroke="#63b8ff" d="M773.81,-405.75C795.43,-408.34 824.64,-411.82 849.67,-414.81"/>
<polygon fill="#63b8ff" stroke="#63b8ff" points="849.12,-418.39 859.47,-416.1 849.95,-411.44 849.12,-418.39"/>
</a>
</g>
</g>
<!-- Node6 -->
<g id="Node000006" class="node">
<title>Node6</title>
<g id="a_Node000006"><a xlink:href="class_logger.html#a4825613142ebb093bf8fa26f21f7f3fc" target="_top" xlink:title="Метод, который выводит сообщение в консоль.">
<polygon fill="white" stroke="#666666" points="963.75,-393 841.25,-393 841.25,-373 963.75,-373 963.75,-393"/>
<text text-anchor="middle" x="902.5" y="-379.5" font-family="Helvetica,sans-Serif" font-size="10.00">Logger::print_to_console</text>
</a>
</g>
</g>
<!-- Node3&#45;&gt;Node6 -->
<g id="edge5_Node000003_Node000006" class="edge">
<title>Node3&#45;&gt;Node6</title>
<g id="a_edge5_Node000003_Node000006"><a xlink:title=" ">
<path fill="none" stroke="#63b8ff" d="M773.81,-398.25C789.94,-396.32 810.29,-393.89 829.97,-391.54"/>
<polygon fill="#63b8ff" stroke="#63b8ff" points="830.3,-394.91 839.81,-390.25 829.47,-387.96 830.3,-394.91"/>
</a>
</g>
</g>
<!-- Node7 -->
<g id="Node000007" class="node">
<title>Node7</title>
<g id="a_Node000007"><a xlink:href="class_logger.html#a999bb33f7cf079cb98f32fae6016a2f3" target="_top" xlink:title="Метод, который записывает сообщение в файл.">
<polygon fill="white" stroke="#666666" points="952.88,-355 852.12,-355 852.12,-335 952.88,-335 952.88,-355"/>
<text text-anchor="middle" x="902.5" y="-341.5" font-family="Helvetica,sans-Serif" font-size="10.00">Logger::print_to_file</text>
</a>
</g>
</g>
<!-- Node3&#45;&gt;Node7 -->
<g id="edge6_Node000003_Node000007" class="edge">
<title>Node3&#45;&gt;Node7</title>
<g id="a_edge6_Node000003_Node000007"><a xlink:title=" ">
<path fill="none" stroke="#63b8ff" d="M768.24,-391.56C788.09,-383.67 816.25,-372.74 841.25,-364 846.3,-362.24 851.61,-360.45 856.9,-358.73"/>
<polygon fill="#63b8ff" stroke="#63b8ff" points="857.52,-361.88 865.97,-355.49 855.38,-355.22 857.52,-361.88"/>
</a>
</g>
</g>
<!-- Node8&#45;&gt;Node3 -->
<g id="edge8_Node000008_Node000003" class="edge">
<title>Node8&#45;&gt;Node3</title>
<g id="a_edge8_Node000008_Node000003"><a xlink:title=" ">
<path fill="none" stroke="#63b8ff" d="M631.78,-631.55C635.37,-629.07 638.68,-626.24 641.5,-623 679.74,-579.07 653.14,-549.9 677.5,-497 690.46,-468.85 711.11,-439.57 725.18,-421.09"/>
<polygon fill="#63b8ff" stroke="#63b8ff" points="728.5,-423.52 731.86,-413.47 722.97,-419.23 728.5,-423.52"/>
</a>
</g>
</g>
<!-- Node9 -->
<g id="Node000009" class="node">
<title>Node9</title>
<g id="a_Node000009"><a xlink:href="class_rbd_device.html#a54fd10b47f6c13d1ff985792799763f0" target="_top" xlink:title=" ">
<polygon fill="white" stroke="#666666" points="793.25,-664 689.5,-664 689.5,-632 793.25,-632 793.25,-664"/>
<text text-anchor="start" x="697.5" y="-650.5" font-family="Helvetica,sans-Serif" font-size="10.00">RbdDevice::move_to</text>
<text text-anchor="middle" x="741.38" y="-638.5" font-family="Helvetica,sans-Serif" font-size="10.00">_start_angle</text>
</a>
</g>
</g>
<!-- Node8&#45;&gt;Node9 -->
<g id="edge9_Node000008_Node000009" class="edge">
<title>Node8&#45;&gt;Node9</title>
<g id="a_edge9_Node000008_Node000009"><a xlink:title=" ">
<path fill="none" stroke="#63b8ff" d="M635.02,-648C648.8,-648 663.92,-648 678.3,-648"/>
<polygon fill="#63b8ff" stroke="#63b8ff" points="678.12,-651.5 688.12,-648 678.12,-644.5 678.12,-651.5"/>
</a>
</g>
</g>
<!-- Node10&#45;&gt;Node3 -->
<g id="edge11_Node000010_Node000003" class="edge">
<title>Node10&#45;&gt;Node3</title>
<g id="a_edge11_Node000010_Node000003"><a xlink:title=" ">
<path fill="none" stroke="#63b8ff" d="M278.04,-264.89C359.76,-249.55 524.28,-230.45 641.5,-294 680.39,-315.08 712.1,-357.41 728.42,-382.36"/>
<polygon fill="#63b8ff" stroke="#63b8ff" points="725.95,-384 734.26,-390.57 731.86,-380.26 725.95,-384"/>
</a>
</g>
</g>
<!-- Node11 -->
<g id="Node000011" class="node">
<title>Node11</title>
<g id="a_Node000011"><a xlink:href="class_gen_device.html#ae8f3f5e85a477915c09854a73e730a3e" target="_top" xlink:title=" ">
<polygon fill="white" stroke="#666666" points="466.88,-184 362.38,-184 362.38,-152 466.88,-152 466.88,-184"/>
<text text-anchor="start" x="370.38" y="-170.5" font-family="Helvetica,sans-Serif" font-size="10.00">GenDevice::move_to</text>
<text text-anchor="middle" x="414.62" y="-158.5" font-family="Helvetica,sans-Serif" font-size="10.00">_start_freq</text>
</a>
</g>
</g>
<!-- Node10&#45;&gt;Node11 -->
<g id="edge12_Node000010_Node000011" class="edge">
<title>Node10&#45;&gt;Node11</title>
<g id="a_edge12_Node000010_Node000011"><a xlink:title=" ">
<path fill="none" stroke="#63b8ff" d="M277.88,-264.7C286.73,-261.25 295.44,-256.78 302.75,-251 326.55,-232.19 314.95,-211.81 338.75,-193 342.84,-189.77 347.36,-186.95 352.1,-184.49"/>
<polygon fill="#63b8ff" stroke="#63b8ff" points="353.43,-187.27 361.06,-179.92 350.51,-180.9 353.43,-187.27"/>
</a>
</g>
</g>
<!-- Node13 -->
<g id="Node000013" class="node">
<title>Node13</title>
<g id="a_Node000013"><a xlink:href="class_device_set.html#a79dae996c60d5844ec3bf2da84f8c164" target="_top" xlink:title=" ">
<polygon fill="white" stroke="#666666" points="471,-115 358.25,-115 358.25,-95 471,-95 471,-115"/>
<text text-anchor="middle" x="414.62" y="-101.5" font-family="Helvetica,sans-Serif" font-size="10.00">DeviceSet::next_angle</text>
</a>
</g>
</g>
<!-- Node12&#45;&gt;Node13 -->
<g id="edge14_Node000012_Node000013" class="edge">
<title>Node12&#45;&gt;Node13</title>
<g id="a_edge14_Node000012_Node000013"><a xlink:title=" ">
<path fill="none" stroke="#63b8ff" d="M288.5,-221.55C293.6,-219.24 298.45,-216.42 302.75,-213 330.12,-191.22 313.95,-167.67 338.75,-143 348.36,-133.44 360.86,-125.82 372.89,-119.98"/>
<polygon fill="#63b8ff" stroke="#63b8ff" points="374.14,-122.8 381.81,-115.49 371.26,-116.42 374.14,-122.8"/>
</a>
</g>
</g>
<!-- Node14 -->
<g id="Node000014" class="node">
<title>Node14</title>
<g id="a_Node000014"><a xlink:href="class_rbd_device.html#a0f3dad1a0133405e7aec1e9dd2236f0f" target="_top" xlink:title=" ">
<polygon fill="white" stroke="#666666" points="641.5,-58 526.5,-58 526.5,-38 641.5,-38 641.5,-58"/>
<text text-anchor="middle" x="584" y="-44.5" font-family="Helvetica,sans-Serif" font-size="10.00">RbdDevice::next_angle</text>
</a>
</g>
</g>
<!-- Node13&#45;&gt;Node14 -->
<g id="edge15_Node000013_Node000014" class="edge">
<title>Node13&#45;&gt;Node14</title>
<g id="a_edge15_Node000013_Node000014"><a xlink:title=" ">
<path fill="none" stroke="#63b8ff" d="M445.73,-94.63C468.02,-86.96 499.14,-76.29 526.5,-67 531.39,-65.34 536.52,-63.61 541.6,-61.89"/>
<polygon fill="#63b8ff" stroke="#63b8ff" points="542.55,-64.93 550.9,-58.42 540.31,-58.3 542.55,-64.93"/>
</a>
</g>
</g>
<!-- Node16 -->
<g id="Node000016" class="node">
<title>Node16</title>
<g id="a_Node000016"><a xlink:href="class_device_set.html#a9ae5fb89aa8b4913a362c4ad12be1bf3" target="_top" xlink:title=" ">
<polygon fill="white" stroke="#666666" points="467.25,-58 362,-58 362,-38 467.25,-38 467.25,-58"/>
<text text-anchor="middle" x="414.62" y="-44.5" font-family="Helvetica,sans-Serif" font-size="10.00">DeviceSet::next_freq</text>
</a>
</g>
</g>
<!-- Node15&#45;&gt;Node16 -->
<g id="edge17_Node000015_Node000016" class="edge">
<title>Node15&#45;&gt;Node16</title>
<g id="a_edge17_Node000015_Node000016"><a xlink:title=" ">
<path fill="none" stroke="#63b8ff" d="M289.57,-183.6C294.33,-181.27 298.81,-178.44 302.75,-175 334.9,-146.95 309.89,-117.43 338.75,-86 347.68,-76.27 359.68,-68.67 371.44,-62.9"/>
<polygon fill="#63b8ff" stroke="#63b8ff" points="372.53,-65.8 380.2,-58.49 369.65,-59.42 372.53,-65.8"/>
</a>
</g>
</g>
<!-- Node17 -->
<g id="Node000017" class="node">
<title>Node17</title>
<g id="a_Node000017"><a xlink:href="class_gen_device.html#a57adce7e8826e6ae5e6b1612e5f8f750" target="_top" xlink:title=" ">
<polygon fill="white" stroke="#666666" points="638.12,-20 529.88,-20 529.88,0 638.12,0 638.12,-20"/>
<text text-anchor="middle" x="584" y="-6.5" font-family="Helvetica,sans-Serif" font-size="10.00">GenDevice::next_freq</text>
</a>
</g>
</g>
<!-- Node16&#45;&gt;Node17 -->
<g id="edge18_Node000016_Node000017" class="edge">
<title>Node16&#45;&gt;Node17</title>
<g id="a_edge18_Node000016_Node000017"><a xlink:title=" ">
<path fill="none" stroke="#63b8ff" d="M461.8,-37.52C481.74,-32.99 505.27,-27.65 526.26,-22.88"/>
<polygon fill="#63b8ff" stroke="#63b8ff" points="526.99,-26.08 535.97,-20.45 525.44,-19.25 526.99,-26.08"/>
</a>
</g>
</g>
<!-- Node18&#45;&gt;Node3 -->
<g id="edge30_Node000018_Node000003" class="edge">
<title>Node18&#45;&gt;Node3</title>
<g id="a_edge30_Node000018_Node000003"><a xlink:title=" ">
<path fill="none" stroke="#63b8ff" d="M284.45,-355.47C301.83,-358.48 321.04,-361.59 338.75,-364 469.45,-381.79 625.21,-393.97 698.42,-399.17"/>
<polygon fill="#63b8ff" stroke="#63b8ff" points="697.81,-402.7 708.03,-399.91 698.3,-395.72 697.81,-402.7"/>
</a>
</g>
</g>
<!-- Node19 -->
<g id="Node000019" class="node">
<title>Node19</title>
<g id="a_Node000019"><a xlink:href="class_task_manager.html#a77f0d9e4c9363a126cedba6c47cece49" target="_top" xlink:title=" ">
<polygon fill="white" stroke="#666666" points="484.12,-450 345.12,-450 345.12,-430 484.12,-430 484.12,-450"/>
<text text-anchor="middle" x="414.62" y="-436.5" font-family="Helvetica,sans-Serif" font-size="10.00">TaskManager::connect_task</text>
</a>
</g>
</g>
<!-- Node18&#45;&gt;Node19 -->
<g id="edge20_Node000018_Node000019" class="edge">
<title>Node18&#45;&gt;Node19</title>
<g id="a_edge20_Node000018_Node000019"><a xlink:title=" ">
<path fill="none" stroke="#63b8ff" d="M241.55,-355.42C261.83,-370.5 301.52,-398.48 338.75,-416 346.74,-419.76 355.47,-423.15 364.07,-426.12"/>
<polygon fill="#63b8ff" stroke="#63b8ff" points="362.82,-429.73 373.41,-429.53 365.01,-423.08 362.82,-429.73"/>
</a>
</g>
</g>
<!-- Node24 -->
<g id="Node000024" class="node">
<title>Node24</title>
<g id="a_Node000024"><a xlink:href="class_task_manager.html#a87e7ab01c7c2920422402dda863da79c" target="_top" xlink:title=" ">
<polygon fill="white" stroke="#666666" points="490.5,-355 338.75,-355 338.75,-335 490.5,-335 490.5,-355"/>
<text text-anchor="middle" x="414.62" y="-341.5" font-family="Helvetica,sans-Serif" font-size="10.00">TaskManager::disconnect_task</text>
</a>
</g>
</g>
<!-- Node18&#45;&gt;Node24 -->
<g id="edge27_Node000018_Node000024" class="edge">
<title>Node18&#45;&gt;Node24</title>
<g id="a_edge27_Node000018_Node000024"><a xlink:title=" ">
<path fill="none" stroke="#63b8ff" d="M296.78,-345C306.82,-345 317.26,-345 327.58,-345"/>
<polygon fill="#63b8ff" stroke="#63b8ff" points="327.28,-348.5 337.28,-345 327.28,-341.5 327.28,-348.5"/>
</a>
</g>
</g>
<!-- Node26 -->
<g id="Node000026" class="node">
<title>Node26</title>
<g id="a_Node000026"><a xlink:href="class_task_manager.html#aa9dd8d653be63d6f9834fb96057d50a1" target="_top" xlink:title=" ">
<polygon fill="white" stroke="#666666" points="475.88,-538 353.38,-538 353.38,-506 475.88,-506 475.88,-538"/>
<text text-anchor="start" x="361.38" y="-524.5" font-family="Helvetica,sans-Serif" font-size="10.00">TaskManager::set_angle</text>
<text text-anchor="middle" x="414.62" y="-512.5" font-family="Helvetica,sans-Serif" font-size="10.00">_range_task</text>
</a>
</g>
</g>
<!-- Node18&#45;&gt;Node26 -->
<g id="edge31_Node000018_Node000026" class="edge">
<title>Node18&#45;&gt;Node26</title>
<g id="a_edge31_Node000018_Node000026"><a xlink:title=" ">
<path fill="none" stroke="#63b8ff" d="M237.34,-355.4C256.08,-375.86 299.54,-422.51 338.75,-459 353.48,-472.7 370.6,-487.21 384.75,-498.84"/>
<polygon fill="#63b8ff" stroke="#63b8ff" points="382.17,-502.07 392.13,-505.68 386.6,-496.65 382.17,-502.07"/>
</a>
</g>
</g>
<!-- Node29 -->
<g id="Node000029" class="node">
<title>Node29</title>
<g id="a_Node000029"><a xlink:href="class_task_manager.html#aaa0c608c54c59007d9b71fe2b5744bf6" target="_top" xlink:title=" ">
<polygon fill="white" stroke="#666666" points="487.88,-298 341.38,-298 341.38,-278 487.88,-278 487.88,-298"/>
<text text-anchor="middle" x="414.62" y="-284.5" font-family="Helvetica,sans-Serif" font-size="10.00">TaskManager::set_angle_task</text>
</a>
</g>
</g>
<!-- Node18&#45;&gt;Node29 -->
<g id="edge37_Node000018_Node000029" class="edge">
<title>Node18&#45;&gt;Node29</title>
<g id="a_edge37_Node000018_Node000029"><a xlink:title=" ">
<path fill="none" stroke="#63b8ff" d="M261.94,-334.55C292.09,-325.29 336.28,-311.73 369.2,-301.63"/>
<polygon fill="#63b8ff" stroke="#63b8ff" points="369.92,-304.76 378.46,-298.48 367.87,-298.07 369.92,-304.76"/>
</a>
</g>
</g>
<!-- Node32 -->
<g id="Node000032" class="node">
<title>Node32</title>
<g id="a_Node000032"><a xlink:href="class_task_manager.html#afa8af16e4cb8afaee8d3ffb5a16acdb5" target="_top" xlink:title=" ">
<polygon fill="white" stroke="#666666" points="485.62,-222 343.62,-222 343.62,-202 485.62,-202 485.62,-222"/>
<text text-anchor="middle" x="414.62" y="-208.5" font-family="Helvetica,sans-Serif" font-size="10.00">TaskManager::set_path_task</text>
</a>
</g>
</g>
<!-- Node18&#45;&gt;Node32 -->
<g id="edge42_Node000018_Node000032" class="edge">
<title>Node18&#45;&gt;Node32</title>
<g id="a_edge42_Node000018_Node000032"><a xlink:title=" ">
<path fill="none" stroke="#63b8ff" d="M247.93,-334.61C263.4,-326.27 285.07,-313.86 302.75,-301 320.06,-288.41 322.22,-282.6 338.75,-269 355.78,-254.99 375.67,-239.9 390.66,-228.77"/>
<polygon fill="#63b8ff" stroke="#63b8ff" points="392.33,-231.16 398.3,-222.4 388.18,-225.52 392.33,-231.16"/>
</a>
</g>
</g>
<!-- Node19&#45;&gt;Node3 -->
<g id="edge26_Node000019_Node000003" class="edge">
<title>Node19&#45;&gt;Node3</title>
<g id="a_edge26_Node000019_Node000003"><a xlink:title=" ">
<path fill="none" stroke="#63b8ff" d="M484.4,-433.32C529.19,-428.81 588.86,-422.52 641.5,-416 660.31,-413.67 681.08,-410.78 698.71,-408.23"/>
<polygon fill="#63b8ff" stroke="#63b8ff" points="698.85,-411.6 708.24,-406.69 697.84,-404.67 698.85,-411.6"/>
</a>
</g>
</g>
<!-- Node20 -->
<g id="Node000020" class="node">
<title>Node20</title>
<g id="a_Node000020"><a xlink:href="class_device_set.html#a2dab046962f4ada089046e2fa4769c23" target="_top" xlink:title=" ">
<polygon fill="white" stroke="#666666" points="634,-564 534,-564 534,-544 634,-544 634,-564"/>
<text text-anchor="middle" x="584" y="-550.5" font-family="Helvetica,sans-Serif" font-size="10.00">DeviceSet::connect</text>
</a>
</g>
</g>
<!-- Node19&#45;&gt;Node20 -->
<g id="edge21_Node000019_Node000020" class="edge">
<title>Node19&#45;&gt;Node20</title>
<g id="a_edge21_Node000019_Node000020"><a xlink:title=" ">
<path fill="none" stroke="#63b8ff" d="M430.77,-450.32C459.9,-470.16 523.93,-513.77 558.95,-537.62"/>
<polygon fill="#63b8ff" stroke="#63b8ff" points="556.77,-541.05 567.01,-543.79 560.71,-535.27 556.77,-541.05"/>
</a>
</g>
</g>
<!-- Node20&#45;&gt;Node3 -->
<g id="edge24_Node000020_Node000003" class="edge">
<title>Node20&#45;&gt;Node3</title>
<g id="a_edge24_Node000020_Node000003"><a xlink:title=" ">
<path fill="none" stroke="#63b8ff" d="M617.35,-543.59C625.69,-540.04 634.33,-535.54 641.5,-530 681.12,-499.42 713.5,-449.38 729.51,-421.79"/>
<polygon fill="#63b8ff" stroke="#63b8ff" points="732.95,-423.84 734.83,-413.41 726.86,-420.38 732.95,-423.84"/>
</a>
</g>
</g>
<!-- Node21 -->
<g id="Node000021" class="node">
<title>Node21</title>
<g id="a_Node000021"><a xlink:href="class_rbd_device.html#a7f0fc01b4d9a94bae816f55828bd74e9" target="_top" xlink:title=" ">
<polygon fill="white" stroke="#666666" points="804.12,-526 678.62,-526 678.62,-506 804.12,-506 804.12,-526"/>
<text text-anchor="middle" x="741.38" y="-512.5" font-family="Helvetica,sans-Serif" font-size="10.00">RbdDevice::is_connected</text>
</a>
</g>
</g>
<!-- Node20&#45;&gt;Node21 -->
<g id="edge22_Node000020_Node000021" class="edge">
<title>Node20&#45;&gt;Node21</title>
<g id="a_edge22_Node000020_Node000021"><a xlink:title=" ">
<path fill="none" stroke="#63b8ff" d="M627.87,-543.52C646.21,-539.03 667.81,-533.75 687.16,-529.01"/>
<polygon fill="#63b8ff" stroke="#63b8ff" points="687.76,-532.23 696.65,-526.45 686.1,-525.43 687.76,-532.23"/>
</a>
</g>
</g>
<!-- Node22 -->
<g id="Node000022" class="node">
<title>Node22</title>
<g id="a_Node000022"><a xlink:href="class_visa_device.html#aa53bc03ce9be2af514335565d585414e" target="_top" xlink:title="Метод, возвращающий значение флага connected.">
<polygon fill="white" stroke="#666666" points="805.25,-298 677.5,-298 677.5,-278 805.25,-278 805.25,-298"/>
<text text-anchor="middle" x="741.38" y="-284.5" font-family="Helvetica,sans-Serif" font-size="10.00">VisaDevice::is_connected</text>
</a>
</g>
</g>
<!-- Node20&#45;&gt;Node22 -->
<g id="edge23_Node000020_Node000022" class="edge">
<title>Node20&#45;&gt;Node22</title>
<g id="a_edge23_Node000020_Node000022"><a xlink:title=" ">
<path fill="none" stroke="#63b8ff" d="M590.11,-543.8C603.63,-517.02 641.74,-442.63 677.5,-383 693.61,-356.13 713.86,-326.15 726.95,-307.18"/>
<polygon fill="#63b8ff" stroke="#63b8ff" points="730.26,-309.56 733.09,-299.35 724.51,-305.57 730.26,-309.56"/>
</a>
</g>
</g>
<!-- Node23 -->
<g id="Node000023" class="node">
<title>Node23</title>
<g id="a_Node000023"><a xlink:href="class_vna_device.html#a0f7b7885465a905959c560fe1e72681a" target="_top" xlink:title=" ">
<polygon fill="white" stroke="#666666" points="788.75,-564 694,-564 694,-544 788.75,-544 788.75,-564"/>
<text text-anchor="middle" x="741.38" y="-550.5" font-family="Helvetica,sans-Serif" font-size="10.00">VnaDevice::preset</text>
</a>
</g>
</g>
<!-- Node20&#45;&gt;Node23 -->
<g id="edge25_Node000020_Node000023" class="edge">
<title>Node20&#45;&gt;Node23</title>
<g id="a_edge25_Node000020_Node000023"><a xlink:title=" ">
<path fill="none" stroke="#63b8ff" d="M634.16,-554C649.62,-554 666.83,-554 682.82,-554"/>
<polygon fill="#63b8ff" stroke="#63b8ff" points="682.65,-557.5 692.65,-554 682.65,-550.5 682.65,-557.5"/>
</a>
</g>
</g>
<!-- Node24&#45;&gt;Node3 -->
<g id="edge29_Node000024_Node000003" class="edge">
<title>Node24&#45;&gt;Node3</title>
<g id="a_edge29_Node000024_Node000003"><a xlink:title=" ">
<path fill="none" stroke="#63b8ff" d="M490.9,-335.36C535.44,-332.03 592.54,-331.9 641.5,-345 670.48,-352.76 699.77,-371.28 718.86,-385.12"/>
<polygon fill="#63b8ff" stroke="#63b8ff" points="716.51,-388.48 726.62,-391.66 720.7,-382.87 716.51,-388.48"/>
</a>
</g>
</g>
<!-- Node25 -->
<g id="Node000025" class="node">
<title>Node25</title>
<g id="a_Node000025"><a xlink:href="class_device_set.html#a6241d8b37639241e2a370c1f7d533995" target="_top" xlink:title=" ">
<polygon fill="white" stroke="#666666" points="640.38,-374 527.62,-374 527.62,-354 640.38,-354 640.38,-374"/>
<text text-anchor="middle" x="584" y="-360.5" font-family="Helvetica,sans-Serif" font-size="10.00">DeviceSet::disconnect</text>
</a>
</g>
</g>
<!-- Node24&#45;&gt;Node25 -->
<g id="edge28_Node000024_Node000025" class="edge">
<title>Node24&#45;&gt;Node25</title>
<g id="a_edge28_Node000024_Node000025"><a xlink:title=" ">
<path fill="none" stroke="#63b8ff" d="M490.99,-353.56C499.56,-354.53 508.24,-355.51 516.68,-356.47"/>
<polygon fill="#63b8ff" stroke="#63b8ff" points="516.27,-360.06 526.6,-357.71 517.06,-353.11 516.27,-360.06"/>
</a>
</g>
</g>
<!-- Node26&#45;&gt;Node3 -->
<g id="edge32_Node000026_Node000003" class="edge">
<title>Node26&#45;&gt;Node3</title>
<g id="a_edge32_Node000026_Node000003"><a xlink:title=" ">
<path fill="none" stroke="#63b8ff" d="M476.37,-523.62C523.48,-522.64 589.31,-516.27 641.5,-492 676.89,-475.55 708.44,-441.89 725.93,-420.72"/>
<polygon fill="#63b8ff" stroke="#63b8ff" points="729.21,-423.23 732.74,-413.24 723.75,-418.84 729.21,-423.23"/>
</a>
</g>
</g>
<!-- Node26&#45;&gt;Node8 -->
<g id="edge33_Node000026_Node000008" class="edge">
<title>Node26&#45;&gt;Node8</title>
<g id="a_edge33_Node000026_Node000008"><a xlink:title=" ">
<path fill="none" stroke="#63b8ff" d="M470.34,-538.43C477.63,-542.13 484.61,-546.61 490.5,-552 516.6,-575.89 500.83,-598.65 526.5,-623 527.36,-623.81 528.24,-624.6 529.16,-625.37"/>
<polygon fill="#63b8ff" stroke="#63b8ff" points="526.8,-628.7 536.98,-631.64 530.86,-622.99 526.8,-628.7"/>
</a>
</g>
</g>
<!-- Node27 -->
<g id="Node000027" class="node">
<title>Node27</title>
<g id="a_Node000027"><a xlink:href="class_device_set.html#a9b37373d7b0a7c89cd57eca673df7fad" target="_top" xlink:title=" ">
<polygon fill="white" stroke="#666666" points="637.75,-614 530.25,-614 530.25,-582 637.75,-582 637.75,-614"/>
<text text-anchor="start" x="538.25" y="-600.5" font-family="Helvetica,sans-Serif" font-size="10.00">DeviceSet::set_angle</text>
<text text-anchor="middle" x="584" y="-588.5" font-family="Helvetica,sans-Serif" font-size="10.00">_range</text>
</a>
</g>
</g>
<!-- Node26&#45;&gt;Node27 -->
<g id="edge34_Node000026_Node000027" class="edge">
<title>Node26&#45;&gt;Node27</title>
<g id="a_edge34_Node000026_Node000027"><a xlink:title=" ">
<path fill="none" stroke="#63b8ff" d="M459.65,-538.39C469.9,-542.55 480.69,-547.2 490.5,-552 507.14,-560.13 510,-564.57 526.5,-573 529.1,-574.33 531.78,-575.65 534.5,-576.97"/>
<polygon fill="#63b8ff" stroke="#63b8ff" points="532.89,-580.55 543.43,-581.63 535.87,-574.21 532.89,-580.55"/>
</a>
</g>
</g>
<!-- Node27&#45;&gt;Node3 -->
<g id="edge35_Node000027_Node000003" class="edge">
<title>Node27&#45;&gt;Node3</title>
<g id="a_edge35_Node000027_Node000003"><a xlink:title=" ">
<path fill="none" stroke="#63b8ff" d="M630.39,-581.56C634.41,-579.06 638.2,-576.22 641.5,-573 668.27,-546.91 659.14,-529.56 677.5,-497 692.89,-469.71 713.3,-439.83 726.64,-421"/>
<polygon fill="#63b8ff" stroke="#63b8ff" points="729.93,-423.41 732.9,-413.24 724.24,-419.34 729.93,-423.41"/>
</a>
</g>
</g>
<!-- Node28 -->
<g id="Node000028" class="node">
<title>Node28</title>
<g id="a_Node000028"><a xlink:href="class_rbd_device.html#a3ce90b05c72560d35522397fa1295c8c" target="_top" xlink:title=" ">
<polygon fill="white" stroke="#666666" points="796.25,-614 686.5,-614 686.5,-582 796.25,-582 796.25,-614"/>
<text text-anchor="start" x="694.5" y="-600.5" font-family="Helvetica,sans-Serif" font-size="10.00">RbdDevice::set_angle</text>
<text text-anchor="middle" x="741.38" y="-588.5" font-family="Helvetica,sans-Serif" font-size="10.00">_range</text>
</a>
</g>
</g>
<!-- Node27&#45;&gt;Node28 -->
<g id="edge36_Node000027_Node000028" class="edge">
<title>Node27&#45;&gt;Node28</title>
<g id="a_edge36_Node000027_Node000028"><a xlink:title=" ">
<path fill="none" stroke="#63b8ff" d="M638.04,-598C650.07,-598 662.99,-598 675.45,-598"/>
<polygon fill="#63b8ff" stroke="#63b8ff" points="675.26,-601.5 685.26,-598 675.26,-594.5 675.26,-601.5"/>
</a>
</g>
</g>
<!-- Node29&#45;&gt;Node3 -->
<g id="edge38_Node000029_Node000003" class="edge">
<title>Node29&#45;&gt;Node3</title>
<g id="a_edge38_Node000029_Node000003"><a xlink:title=" ">
<path fill="none" stroke="#63b8ff" d="M488.25,-292.74C533.77,-297.73 592.84,-307.98 641.5,-329 672.61,-342.44 703.18,-367.31 721.91,-384.25"/>
<polygon fill="#63b8ff" stroke="#63b8ff" points="719.15,-386.39 728.86,-390.62 723.91,-381.26 719.15,-386.39"/>
</a>
</g>
</g>
<!-- Node30 -->
<g id="Node000030" class="node">
<title>Node30</title>
<g id="a_Node000030"><a xlink:href="class_device_set.html#af831c582c73b80720d69b771c422a7eb" target="_top" xlink:title=" ">
<polygon fill="white" stroke="#666666" points="637.75,-184 530.25,-184 530.25,-164 637.75,-164 637.75,-184"/>
<text text-anchor="middle" x="584" y="-170.5" font-family="Helvetica,sans-Serif" font-size="10.00">DeviceSet::set_angle</text>
</a>
</g>
</g>
<!-- Node29&#45;&gt;Node30 -->
<g id="edge39_Node000029_Node000030" class="edge">
<title>Node29&#45;&gt;Node30</title>
<g id="a_edge39_Node000029_Node000030"><a xlink:title=" ">
<path fill="none" stroke="#63b8ff" d="M430.77,-277.68C459.9,-257.84 523.93,-214.23 558.95,-190.38"/>
<polygon fill="#63b8ff" stroke="#63b8ff" points="560.71,-192.73 567.01,-184.21 556.77,-186.95 560.71,-192.73"/>
</a>
</g>
</g>
<!-- Node30&#45;&gt;Node3 -->
<g id="edge40_Node000030_Node000003" class="edge">
<title>Node30&#45;&gt;Node3</title>
<g id="a_edge40_Node000030_Node000003"><a xlink:title=" ">
<path fill="none" stroke="#63b8ff" d="M622.26,-184.48C629.37,-187.87 636.23,-192.28 641.5,-198 676.05,-235.54 655.22,-261.1 677.5,-307 691.1,-335.03 711.78,-364.54 725.66,-383.09"/>
<polygon fill="#63b8ff" stroke="#63b8ff" points="723.39,-384.89 732.24,-390.73 728.97,-380.65 723.39,-384.89"/>
</a>
</g>
</g>
<!-- Node31 -->
<g id="Node000031" class="node">
<title>Node31</title>
<g id="a_Node000031"><a xlink:href="class_rbd_device.html#a38ac9ca45cdf5ee9526ac2488baa1285" target="_top" xlink:title=" ">
<polygon fill="white" stroke="#666666" points="796.25,-184 686.5,-184 686.5,-164 796.25,-164 796.25,-184"/>
<text text-anchor="middle" x="741.38" y="-170.5" font-family="Helvetica,sans-Serif" font-size="10.00">RbdDevice::set_angle</text>
</a>
</g>
</g>
<!-- Node30&#45;&gt;Node31 -->
<g id="edge41_Node000030_Node000031" class="edge">
<title>Node30&#45;&gt;Node31</title>
<g id="a_edge41_Node000030_Node000031"><a xlink:title=" ">
<path fill="none" stroke="#63b8ff" d="M638.04,-174C650.07,-174 662.99,-174 675.45,-174"/>
<polygon fill="#63b8ff" stroke="#63b8ff" points="675.26,-177.5 685.26,-174 675.26,-170.5 675.26,-177.5"/>
</a>
</g>
</g>
<!-- Node32&#45;&gt;Node3 -->
<g id="edge46_Node000032_Node000003" class="edge">
<title>Node32&#45;&gt;Node3</title>
<g id="a_edge46_Node000032_Node000003"><a xlink:title=" ">
<path fill="none" stroke="#63b8ff" d="M486.02,-202.94C533.89,-200.5 596.46,-204.94 641.5,-236 670.63,-256.08 659.71,-276.42 677.5,-307 693.25,-334.08 713.58,-364.01 726.79,-382.91"/>
<polygon fill="#63b8ff" stroke="#63b8ff" points="724.37,-384.55 732.99,-390.71 730.1,-380.52 724.37,-384.55"/>
</a>
</g>
</g>
<!-- Node33 -->
<g id="Node000033" class="node">
<title>Node33</title>
<g id="a_Node000033"><a xlink:href="class_device_set.html#aeeb8d224788fe0663898a10aad363832" target="_top" xlink:title=" ">
<polygon fill="white" stroke="#666666" points="641.5,-108 526.5,-108 526.5,-76 641.5,-76 641.5,-108"/>
<text text-anchor="start" x="534.5" y="-94.5" font-family="Helvetica,sans-Serif" font-size="10.00">DeviceSet::get_vna</text>
<text text-anchor="middle" x="584" y="-82.5" font-family="Helvetica,sans-Serif" font-size="10.00">_switch_module_count</text>
</a>
</g>
</g>
<!-- Node32&#45;&gt;Node33 -->
<g id="edge43_Node000032_Node000033" class="edge">
<title>Node32&#45;&gt;Node33</title>
<g id="a_edge43_Node000032_Node000033"><a xlink:title=" ">
<path fill="none" stroke="#63b8ff" d="M476.74,-201.53C481.68,-199.22 486.36,-196.41 490.5,-193 519.36,-169.25 499.73,-143.09 526.5,-117 527.33,-116.2 528.18,-115.41 529.06,-114.66"/>
<polygon fill="#63b8ff" stroke="#63b8ff" points="530.58,-117.15 536.61,-108.44 526.46,-111.49 530.58,-117.15"/>
</a>
</g>
</g>
<!-- Node35 -->
<g id="Node000035" class="node">
<title>Node35</title>
<g id="a_Node000035"><a xlink:href="class_device_set.html#a905900391da22efd2f866843c81572d4" target="_top" xlink:title=" ">
<polygon fill="white" stroke="#666666" points="635.5,-146 532.5,-146 532.5,-126 635.5,-126 635.5,-146"/>
<text text-anchor="middle" x="584" y="-132.5" font-family="Helvetica,sans-Serif" font-size="10.00">DeviceSet::set_path</text>
</a>
</g>
</g>
<!-- Node32&#45;&gt;Node35 -->
<g id="edge47_Node000032_Node000035" class="edge">
<title>Node32&#45;&gt;Node35</title>
<g id="a_edge47_Node000032_Node000035"><a xlink:title=" ">
<path fill="none" stroke="#63b8ff" d="M471.42,-201.62C478.08,-199.3 484.6,-196.46 490.5,-193 510.57,-181.23 506.89,-167.52 526.5,-155 528.79,-153.54 531.2,-152.18 533.69,-150.91"/>
<polygon fill="#63b8ff" stroke="#63b8ff" points="534.87,-153.77 542.56,-146.48 532,-147.38 534.87,-153.77"/>
</a>
</g>
</g>
<!-- Node33&#45;&gt;Node22 -->
<g id="edge45_Node000033_Node000022" class="edge">
<title>Node33&#45;&gt;Node22</title>
<g id="a_edge45_Node000033_Node000022"><a xlink:title=" ">
<path fill="none" stroke="#63b8ff" d="M630.39,-108.44C634.41,-110.94 638.2,-113.78 641.5,-117 668.27,-143.09 659.14,-160.44 677.5,-193 692.89,-220.29 713.3,-250.17 726.64,-269"/>
<polygon fill="#63b8ff" stroke="#63b8ff" points="724.24,-270.66 732.9,-276.76 729.93,-266.59 724.24,-270.66"/>
</a>
</g>
</g>
<!-- Node34 -->
<g id="Node000034" class="node">
<title>Node34</title>
<g id="a_Node000034"><a xlink:href="class_vna_device.html#abbe7ac7ab8da8e7c27b7f7525d1d32a4" target="_top" xlink:title=" ">
<polygon fill="white" stroke="#666666" points="798.5,-108 684.25,-108 684.25,-76 798.5,-76 798.5,-108"/>
<text text-anchor="start" x="692.25" y="-94.5" font-family="Helvetica,sans-Serif" font-size="10.00">VnaDevice::get_switch</text>
<text text-anchor="middle" x="741.38" y="-82.5" font-family="Helvetica,sans-Serif" font-size="10.00">_module_count</text>
</a>
</g>
</g>
<!-- Node33&#45;&gt;Node34 -->
<g id="edge44_Node000033_Node000034" class="edge">
<title>Node33&#45;&gt;Node34</title>
<g id="a_edge44_Node000033_Node000034"><a xlink:title=" ">
<path fill="none" stroke="#63b8ff" d="M641.97,-92C652.13,-92 662.8,-92 673.2,-92"/>
<polygon fill="#63b8ff" stroke="#63b8ff" points="672.93,-95.5 682.93,-92 672.93,-88.5 672.93,-95.5"/>
</a>
</g>
</g>
<!-- Node35&#45;&gt;Node3 -->
<g id="edge48_Node000035_Node000003" class="edge">
<title>Node35&#45;&gt;Node3</title>
<g id="a_edge48_Node000035_Node000003"><a xlink:title=" ">
<path fill="none" stroke="#63b8ff" d="M630.48,-146.43C634.58,-148.74 638.36,-151.56 641.5,-155 688.29,-206.29 649.92,-243.29 677.5,-307 689.81,-335.44 710.61,-364.65 724.89,-383.04"/>
<polygon fill="#63b8ff" stroke="#63b8ff" points="722.73,-384.95 731.68,-390.61 728.21,-380.6 722.73,-384.95"/>
</a>
</g>
</g>
<!-- Node36 -->
<g id="Node000036" class="node">
<title>Node36</title>
<g id="a_Node000036"><a xlink:href="class_vna_device.html#a0b803a51b1c38828781291cdcae07495" target="_top" xlink:title=" ">
<polygon fill="white" stroke="#666666" points="794,-146 688.75,-146 688.75,-126 794,-126 794,-146"/>
<text text-anchor="middle" x="741.38" y="-132.5" font-family="Helvetica,sans-Serif" font-size="10.00">VnaDevice::set_path</text>
</a>
</g>
</g>
<!-- Node35&#45;&gt;Node36 -->
<g id="edge49_Node000035_Node000036" class="edge">
<title>Node35&#45;&gt;Node36</title>
<g id="a_edge49_Node000035_Node000036"><a xlink:title=" ">
<path fill="none" stroke="#63b8ff" d="M635.88,-136C649.14,-136 663.6,-136 677.42,-136"/>
<polygon fill="#63b8ff" stroke="#63b8ff" points="677.32,-139.5 687.32,-136 677.32,-132.5 677.32,-139.5"/>
</a>
</g>
</g>
</g>
</svg>

<g id="navigator" transform="translate(0 0)" fill="#404254">
  <rect fill="#f2f5e9" fill-opacity="0.5" stroke="#606060" stroke-width=".5" x="0" y="0" width="60" height="60"/>
  <use id="zoomplus" xlink:href="#zoomPlus" x="17" y="9" onmousedown="handleZoom(evt,'in')"/>
  <use id="zoomminus" xlink:href="#zoomMin" x="42" y="9" onmousedown="handleZoom(evt,'out')"/>
  <use id="reset" xlink:href="#resetDef" x="30" y="36" onmousedown="handleReset()"/>
   <use id="arrowup" xlink:href="#arrowUp" x="0" y="0" onmousedown="handlePan(0,-1)"/>
  <use id="arrowright" xlink:href="#arrowRight" x="0" y="0" onmousedown="handlePan(1,0)"/>
  <use id="arrowdown" xlink:href="#arrowDown" x="0" y="0" onmousedown="handlePan(0,1)"/>
  <use id="arrowleft" xlink:href="#arrowLeft" x="0" y="0" onmousedown="handlePan(-1,0)"/>
</g>
<svg viewBox="0 0 15 15" width="100%" height="30px" preserveAspectRatio="xMaxYMin meet">
 <g id="arrow_out" transform="scale(0.3 0.3)">
  <a xlink:href="class_task_manager_ad9d635ee64d44cc34b619f2e3018e9d1_cgraph_org.svg" target="_base">
   <rect id="button" ry="5" rx="5" y="6" x="6" height="38" width="38"
        fill="#f2f5e9" fill-opacity="0.5" stroke="#606060" stroke-width="1.0"/>
   <path id="arrow"
     d="M 11.500037,31.436501 C 11.940474,20.09759 22.043105,11.32322 32.158766,21.979434 L 37.068811,17.246167 C 37.068811,17.246167 37.088388,32 37.088388,32 L 22.160133,31.978069 C 22.160133,31.978069 26.997745,27.140456 26.997745,27.140456 C 18.528582,18.264221 13.291696,25.230495 11.500037,31.436501 z"
     style="fill:#404040;"/>
  </a>
 </g>
</svg>

<style type='text/css'>
<![CDATA[
[data-mouse-over-selected='false'] { opacity: 0.7; }
[data-mouse-over-selected='true']  { opacity: 1.0; }
]]>
</style>
<script type="application/ecmascript"><![CDATA[
document.addEventListener('DOMContentLoaded', (event) => {
  highlightEdges();
  highlightAdjacentNodes();
});
]]></script>
</svg>
