<?xml version="1.0" encoding="UTF-8" standalone="no"?>
<!DOCTYPE svg PUBLIC "-//W3C//DTD SVG 1.1//EN"
 "http://www.w3.org/Graphics/SVG/1.1/DTD/svg11.dtd">
<!-- Generated by graphviz version 8.0.5 (20230430.1635)
 -->
<!-- Title: TaskManager::next_freq_task Pages: 1 -->
<svg width="438pt" height="28pt"
 viewBox="0.00 0.00 437.75 28.00" xmlns="http://www.w3.org/2000/svg" xmlns:xlink="http://www.w3.org/1999/xlink">
<g id="graph0" class="graph" transform="scale(1 1) rotate(0) translate(4 24)">
<title>TaskManager::next_freq_task</title>
<!-- Node1 -->
<g id="Node000001" class="node">
<title>Node1</title>
<g id="a_Node000001"><a xlink:title=" ">
<polygon fill="#999999" stroke="#666666" points="144.25,-20 0,-20 0,0 144.25,0 144.25,-20"/>
<text text-anchor="middle" x="72.12" y="-6.5" font-family="Helvetica,sans-Serif" font-size="10.00">TaskManager::next_freq_task</text>
</a>
</g>
</g>
<!-- Node2 -->
<g id="Node000002" class="node">
<title>Node2</title>
<g id="a_Node000002"><a xlink:href="class_device_set.html#a9ae5fb89aa8b4913a362c4ad12be1bf3" target="_top" xlink:title="Переход к следующей частотной точке">
<polygon fill="white" stroke="#666666" points="285.5,-20 180.25,-20 180.25,0 285.5,0 285.5,-20"/>
<text text-anchor="middle" x="232.88" y="-6.5" font-family="Helvetica,sans-Serif" font-size="10.00">DeviceSet::next_freq</text>
</a>
</g>
</g>
<!-- Node1&#45;&gt;Node2 -->
<g id="edge1_Node000001_Node000002" class="edge">
<title>Node1&#45;&gt;Node2</title>
<g id="a_edge1_Node000001_Node000002"><a xlink:title=" ">
<path fill="none" stroke="#63b8ff" d="M144.61,-10C152.75,-10 161.01,-10 169.04,-10"/>
<polygon fill="#63b8ff" stroke="#63b8ff" points="168.8,-13.5 178.8,-10 168.8,-6.5 168.8,-13.5"/>
</a>
</g>
</g>
<!-- Node3 -->
<g id="Node000003" class="node">
<title>Node3</title>
<g id="a_Node000003"><a xlink:href="class_gen_device.html#a57adce7e8826e6ae5e6b1612e5f8f750" target="_top" xlink:title=" ">
<polygon fill="white" stroke="#666666" points="429.75,-20 321.5,-20 321.5,0 429.75,0 429.75,-20"/>
<text text-anchor="middle" x="375.62" y="-6.5" font-family="Helvetica,sans-Serif" font-size="10.00">GenDevice::next_freq</text>
</a>
</g>
</g>
<!-- Node2&#45;&gt;Node3 -->
<g id="edge2_Node000002_Node000003" class="edge">
<title>Node2&#45;&gt;Node3</title>
<g id="a_edge2_Node000002_Node000003"><a xlink:title=" ">
<path fill="none" stroke="#63b8ff" d="M285.89,-10C293.94,-10 302.35,-10 310.63,-10"/>
<polygon fill="#63b8ff" stroke="#63b8ff" points="310.42,-13.5 320.42,-10 310.42,-6.5 310.42,-13.5"/>
</a>
</g>
</g>
</g>
</svg>
