<?xml version="1.0" encoding="UTF-8" standalone="no"?>
<!DOCTYPE svg PUBLIC "-//W3C//DTD SVG 1.1//EN"
 "http://www.w3.org/Graphics/SVG/1.1/DTD/svg11.dtd">
<!-- Generated by graphviz version 8.1.0 (20230707.0739)
 -->
<!-- Title: TesartRbd::stop Pages: 1 -->
<svg width="657pt" height="142pt"
 viewBox="0.00 0.00 656.50 142.00" xmlns="http://www.w3.org/2000/svg" xmlns:xlink="http://www.w3.org/1999/xlink">
<g id="graph0" class="graph" transform="scale(1 1) rotate(0) translate(4 138)">
<title>TesartRbd::stop</title>
<!-- Node1 -->
<g id="Node000001" class="node">
<title>Node1</title>
<g id="a_Node000001"><a xlink:title="Остановка всех осей">
<polygon fill="#999999" stroke="#666666" points="85,-58 0,-58 0,-38 85,-38 85,-58"/>
<text text-anchor="middle" x="42.5" y="-44.5" font-family="Helvetica,sans-Serif" font-size="10.00">TesartRbd::stop</text>
</a>
</g>
</g>
<!-- Node2 -->
<g id="Node000002" class="node">
<title>Node2</title>
<g id="a_Node000002"><a xlink:href="class_tesart_rbd.html#a9a7da6f896259d62e9f1b1850371fa5e" target="_top" xlink:title="Метод позволяет проверить, остановлена ли ось">
<polygon fill="white" stroke="#666666" points="234.5,-58 121,-58 121,-38 234.5,-38 234.5,-58"/>
<text text-anchor="middle" x="177.75" y="-44.5" font-family="Helvetica,sans-Serif" font-size="10.00">TesartRbd::is_stopped</text>
</a>
</g>
</g>
<!-- Node1&#45;&gt;Node2 -->
<g id="edge1_Node000001_Node000002" class="edge">
<title>Node1&#45;&gt;Node2</title>
<g id="a_edge1_Node000001_Node000002"><a xlink:title=" ">
<path fill="none" stroke="#63b8ff" d="M85.3,-48C93.15,-48 101.54,-48 109.94,-48"/>
<polygon fill="#63b8ff" stroke="#63b8ff" points="109.93,-51.5 119.93,-48 109.93,-44.5 109.93,-51.5"/>
</a>
</g>
</g>
<!-- Node3 -->
<g id="Node000003" class="node">
<title>Node3</title>
<g id="a_Node000003"><a xlink:href="class_logger.html#af7709105c2708359b7b082218f4cc3e1" target="_top" xlink:title="Метод, осуществляющий логирование">
<polygon fill="white" stroke="#666666" points="476.88,-77 412.88,-77 412.88,-57 476.88,-57 476.88,-77"/>
<text text-anchor="middle" x="444.88" y="-63.5" font-family="Helvetica,sans-Serif" font-size="10.00">Logger::log</text>
</a>
</g>
</g>
<!-- Node2&#45;&gt;Node3 -->
<g id="edge2_Node000002_Node000003" class="edge">
<title>Node2&#45;&gt;Node3</title>
<g id="a_edge2_Node000002_Node000003"><a xlink:title=" ">
<path fill="none" stroke="#63b8ff" d="M234.98,-52.03C284.86,-55.6 356.62,-60.75 401.72,-63.98"/>
<polygon fill="#63b8ff" stroke="#63b8ff" points="401.36,-67.53 411.58,-64.76 401.86,-60.55 401.36,-67.53"/>
</a>
</g>
</g>
<!-- Node8 -->
<g id="Node000008" class="node">
<title>Node8</title>
<g id="a_Node000008"><a xlink:href="class_tesart_rbd.html#affbded46e17aa303601ba7ef885107b8" target="_top" xlink:title="Запрос статуса оси ОПУ по номеру оси">
<polygon fill="white" stroke="#666666" points="363.75,-39 270.5,-39 270.5,-19 363.75,-19 363.75,-39"/>
<text text-anchor="middle" x="317.12" y="-25.5" font-family="Helvetica,sans-Serif" font-size="10.00">TesartRbd::status</text>
</a>
</g>
</g>
<!-- Node2&#45;&gt;Node8 -->
<g id="edge7_Node000002_Node000008" class="edge">
<title>Node2&#45;&gt;Node8</title>
<g id="a_edge7_Node000002_Node000008"><a xlink:title=" ">
<path fill="none" stroke="#63b8ff" d="M234.63,-40.27C242.89,-39.13 251.41,-37.95 259.69,-36.81"/>
<polygon fill="#63b8ff" stroke="#63b8ff" points="259.95,-40.16 269.38,-35.33 259,-33.23 259.95,-40.16"/>
</a>
</g>
</g>
<!-- Node4 -->
<g id="Node000004" class="node">
<title>Node4</title>
<g id="a_Node000004"><a xlink:href="logger_8hpp.html#a49284b7befa8e31f81e01ee8f3735dd0" target="_top" xlink:title="Функция, которая снимает значение текущего времени и конвертирует его в строку с заданным шаблоном.">
<polygon fill="white" stroke="#666666" points="631.62,-134 542.88,-134 542.88,-114 631.62,-114 631.62,-134"/>
<text text-anchor="middle" x="587.25" y="-120.5" font-family="Helvetica,sans-Serif" font-size="10.00">get_current_time</text>
</a>
</g>
</g>
<!-- Node3&#45;&gt;Node4 -->
<g id="edge3_Node000003_Node000004" class="edge">
<title>Node3&#45;&gt;Node4</title>
<g id="a_edge3_Node000003_Node000004"><a xlink:title=" ">
<path fill="none" stroke="#63b8ff" d="M465.95,-77.47C481.96,-85.58 505.08,-96.78 526,-105 530.49,-106.76 535.21,-108.48 539.95,-110.11"/>
<polygon fill="#63b8ff" stroke="#63b8ff" points="538.69,-113.72 549.29,-113.55 540.9,-107.07 538.69,-113.72"/>
</a>
</g>
</g>
<!-- Node5 -->
<g id="Node000005" class="node">
<title>Node5</title>
<g id="a_Node000005"><a xlink:href="class_logger.html#a6edb7b263f080d417b82a537ed50fee4" target="_top" xlink:title="Возвращает тег в зависимости от уровня логирования и от назначения тега.">
<polygon fill="white" stroke="#666666" points="629,-96 545.5,-96 545.5,-76 629,-76 629,-96"/>
<text text-anchor="middle" x="587.25" y="-82.5" font-family="Helvetica,sans-Serif" font-size="10.00">Logger::get_tag</text>
</a>
</g>
</g>
<!-- Node3&#45;&gt;Node5 -->
<g id="edge4_Node000003_Node000005" class="edge">
<title>Node3&#45;&gt;Node5</title>
<g id="a_edge4_Node000003_Node000005"><a xlink:title=" ">
<path fill="none" stroke="#63b8ff" d="M477.03,-71.22C493.85,-73.49 515.06,-76.36 534.31,-78.97"/>
<polygon fill="#63b8ff" stroke="#63b8ff" points="533.68,-82.55 544.06,-80.42 534.62,-75.61 533.68,-82.55"/>
</a>
</g>
</g>
<!-- Node6 -->
<g id="Node000006" class="node">
<title>Node6</title>
<g id="a_Node000006"><a xlink:href="class_logger.html#a4825613142ebb093bf8fa26f21f7f3fc" target="_top" xlink:title="Метод, который выводит сообщение в консоль.">
<polygon fill="white" stroke="#666666" points="648.5,-58 526,-58 526,-38 648.5,-38 648.5,-58"/>
<text text-anchor="middle" x="587.25" y="-44.5" font-family="Helvetica,sans-Serif" font-size="10.00">Logger::print_to_console</text>
</a>
</g>
</g>
<!-- Node3&#45;&gt;Node6 -->
<g id="edge5_Node000003_Node000006" class="edge">
<title>Node3&#45;&gt;Node6</title>
<g id="a_edge5_Node000003_Node000006"><a xlink:title=" ">
<path fill="none" stroke="#63b8ff" d="M477.03,-62.78C488.31,-61.26 501.56,-59.46 514.87,-57.66"/>
<polygon fill="#63b8ff" stroke="#63b8ff" points="515.08,-61.03 524.52,-56.22 514.15,-54.09 515.08,-61.03"/>
</a>
</g>
</g>
<!-- Node7 -->
<g id="Node000007" class="node">
<title>Node7</title>
<g id="a_Node000007"><a xlink:href="class_logger.html#a999bb33f7cf079cb98f32fae6016a2f3" target="_top" xlink:title="Метод, который записывает сообщение в файл.">
<polygon fill="white" stroke="#666666" points="637.62,-20 536.88,-20 536.88,0 637.62,0 637.62,-20"/>
<text text-anchor="middle" x="587.25" y="-6.5" font-family="Helvetica,sans-Serif" font-size="10.00">Logger::print_to_file</text>
</a>
</g>
</g>
<!-- Node3&#45;&gt;Node7 -->
<g id="edge6_Node000003_Node000007" class="edge">
<title>Node3&#45;&gt;Node7</title>
<g id="a_edge6_Node000003_Node000007"><a xlink:title=" ">
<path fill="none" stroke="#63b8ff" d="M470.77,-56.69C477.09,-53.96 483.83,-50.95 490,-48 506.32,-40.19 509.31,-35.97 526,-29 530.33,-27.19 534.9,-25.46 539.5,-23.82"/>
<polygon fill="#63b8ff" stroke="#63b8ff" points="540.2,-26.94 548.55,-20.41 537.95,-20.31 540.2,-26.94"/>
</a>
</g>
</g>
<!-- Node8&#45;&gt;Node3 -->
<g id="edge8_Node000008_Node000003" class="edge">
<title>Node8&#45;&gt;Node3</title>
<g id="a_edge8_Node000008_Node000003"><a xlink:title=" ">
<path fill="none" stroke="#63b8ff" d="M352.82,-39.48C368.21,-44.13 386.43,-49.64 402.52,-54.5"/>
<polygon fill="#63b8ff" stroke="#63b8ff" points="401.14,-58.05 411.73,-57.59 403.17,-51.34 401.14,-58.05"/>
</a>
</g>
</g>
<!-- Node9 -->
<g id="Node000009" class="node">
<title>Node9</title>
<g id="a_Node000009"><a xlink:href="namespacestring__utils.html#a9fe07494ccc7914840b0d615974bc802" target="_top" xlink:title="Делит строку на две части по требуемому символу и возвращает содержимое правой части">
<polygon fill="white" stroke="#666666" points="490,-39 399.75,-39 399.75,-19 490,-19 490,-39"/>
<text text-anchor="middle" x="444.88" y="-25.5" font-family="Helvetica,sans-Serif" font-size="10.00">string_utils::lstrip</text>
</a>
</g>
</g>
<!-- Node8&#45;&gt;Node9 -->
<g id="edge9_Node000008_Node000009" class="edge">
<title>Node8&#45;&gt;Node9</title>
<g id="a_edge9_Node000008_Node000009"><a xlink:title=" ">
<path fill="none" stroke="#63b8ff" d="M364.24,-29C372.14,-29 380.42,-29 388.54,-29"/>
<polygon fill="#63b8ff" stroke="#63b8ff" points="388.45,-32.5 398.45,-29 388.45,-25.5 388.45,-32.5"/>
</a>
</g>
</g>
</g>
</svg>
