<?xml version="1.0" encoding="UTF-8" standalone="no"?>
<!DOCTYPE svg PUBLIC "-//W3C//DTD SVG 1.1//EN"
 "http://www.w3.org/Graphics/SVG/1.1/DTD/svg11.dtd">
<!-- Generated by graphviz version 8.0.5 (20230430.1635)
 -->
<!-- Title: DeviceSet::set_freq Pages: 1 -->
<svg width="406pt" height="161pt"
 viewBox="0.00 0.00 405.50 161.00" xmlns="http://www.w3.org/2000/svg" xmlns:xlink="http://www.w3.org/1999/xlink">

<svg id="main" version="1.1" xmlns="http://www.w3.org/2000/svg" xmlns:xlink="http://www.w3.org/1999/xlink" xml:space="preserve" onload="init(evt)">
<style type="text/css"><![CDATA[
.node, .edge {opacity: 0.7;}
.node.selected, .edge.selected {opacity: 1;}
.edge:hover path { stroke: red; }
.edge:hover polygon { stroke: red; fill: red; }
]]></style>
<script type="application/ecmascript" xlink:href="svg.min.js"/>
<svg id="graph" class="graph">
<g id="graph0" class="graph" transform="scale(1 1) rotate(0) translate(4 157)">
<title>DeviceSet::set_freq</title>
<!-- Node1 -->
<g id="Node000001" class="node">
<title>Node1</title>
<g id="a_Node000001"><a xlink:title=" ">
<polygon fill="#999999" stroke="#666666" points="100,-58 0,-58 0,-38 100,-38 100,-58"/>
<text text-anchor="middle" x="50" y="-44.5" font-family="Helvetica,sans-Serif" font-size="10.00">DeviceSet::set_freq</text>
</a>
</g>
</g>
<!-- Node2 -->
<g id="Node000002" class="node">
<title>Node2</title>
<g id="a_Node000002"><a xlink:href="class_logger.html#af7709105c2708359b7b082218f4cc3e1" target="_top" xlink:title="Метод, осуществляющий логирование">
<polygon fill="white" stroke="#666666" points="219.5,-96 155.5,-96 155.5,-76 219.5,-76 219.5,-96"/>
<text text-anchor="middle" x="187.5" y="-82.5" font-family="Helvetica,sans-Serif" font-size="10.00">Logger::log</text>
</a>
</g>
</g>
<!-- Node1&#45;&gt;Node2 -->
<g id="edge1_Node000001_Node000002" class="edge">
<title>Node1&#45;&gt;Node2</title>
<g id="a_edge1_Node000001_Node000002"><a xlink:title=" ">
<path fill="none" stroke="#63b8ff" d="M88.38,-58.48C105.85,-63.38 126.71,-69.23 144.7,-74.28"/>
<polygon fill="#63b8ff" stroke="#63b8ff" points="143.62,-77.89 154.19,-77.22 145.51,-71.15 143.62,-77.89"/>
</a>
</g>
</g>
<!-- Node7 -->
<g id="Node000007" class="node">
<title>Node7</title>
<g id="a_Node000007"><a xlink:href="class_gen_device.html#a96be6231d276486d30a77fb6f7235994" target="_top" xlink:title=" ">
<polygon fill="white" stroke="#666666" points="239,-58 136,-58 136,-38 239,-38 239,-58"/>
<text text-anchor="middle" x="187.5" y="-44.5" font-family="Helvetica,sans-Serif" font-size="10.00">GenDevice::set_freq</text>
</a>
</g>
</g>
<!-- Node1&#45;&gt;Node7 -->
<g id="edge6_Node000001_Node000007" class="edge">
<title>Node1&#45;&gt;Node7</title>
<g id="a_edge6_Node000001_Node000007"><a xlink:title=" ">
<path fill="none" stroke="#63b8ff" d="M100.3,-48C108.3,-48 116.67,-48 124.91,-48"/>
<polygon fill="#63b8ff" stroke="#63b8ff" points="124.64,-51.5 134.64,-48 124.64,-44.5 124.64,-51.5"/>
</a>
</g>
</g>
<!-- Node8 -->
<g id="Node000008" class="node">
<title>Node8</title>
<g id="a_Node000008"><a xlink:href="class_vna_device.html#a97c03089e22546ff4c832c13a4e2c3a0" target="_top" xlink:title=" ">
<polygon fill="white" stroke="#666666" points="238.62,-20 136.38,-20 136.38,0 238.62,0 238.62,-20"/>
<text text-anchor="middle" x="187.5" y="-6.5" font-family="Helvetica,sans-Serif" font-size="10.00">VnaDevice::set_freq</text>
</a>
</g>
</g>
<!-- Node1&#45;&gt;Node8 -->
<g id="edge7_Node000001_Node000008" class="edge">
<title>Node1&#45;&gt;Node8</title>
<g id="a_edge7_Node000001_Node000008"><a xlink:title=" ">
<path fill="none" stroke="#63b8ff" d="M88.38,-37.52C103.94,-33.15 122.18,-28.04 138.69,-23.41"/>
<polygon fill="#63b8ff" stroke="#63b8ff" points="139.55,-26.52 148.24,-20.45 137.66,-19.78 139.55,-26.52"/>
</a>
</g>
</g>
<!-- Node3 -->
<g id="Node000003" class="node">
<title>Node3</title>
<g id="a_Node000003"><a xlink:href="logger_8hpp.html#a49284b7befa8e31f81e01ee8f3735dd0" target="_top" xlink:title="Функция, которая снимает значение текущего времени и конвертирует его в строку с заданным шаблоном.">
<polygon fill="white" stroke="#666666" points="380.62,-153 291.88,-153 291.88,-133 380.62,-133 380.62,-153"/>
<text text-anchor="middle" x="336.25" y="-139.5" font-family="Helvetica,sans-Serif" font-size="10.00">get_current_time</text>
</a>
</g>
</g>
<!-- Node2&#45;&gt;Node3 -->
<g id="edge2_Node000002_Node000003" class="edge">
<title>Node2&#45;&gt;Node3</title>
<g id="a_edge2_Node000002_Node000003"><a xlink:title=" ">
<path fill="none" stroke="#63b8ff" d="M210.27,-96.35C227.6,-104.4 252.58,-115.57 275,-124 279.75,-125.79 284.76,-127.55 289.77,-129.24"/>
<polygon fill="#63b8ff" stroke="#63b8ff" points="288.39,-132.8 298.99,-132.58 290.57,-126.15 288.39,-132.8"/>
</a>
</g>
</g>
<!-- Node4 -->
<g id="Node000004" class="node">
<title>Node4</title>
<g id="a_Node000004"><a xlink:href="class_logger.html#a6edb7b263f080d417b82a537ed50fee4" target="_top" xlink:title="Возвращает тег в зависимости от уровня логирования и от назначения тега.">
<polygon fill="white" stroke="#666666" points="378,-115 294.5,-115 294.5,-95 378,-95 378,-115"/>
<text text-anchor="middle" x="336.25" y="-101.5" font-family="Helvetica,sans-Serif" font-size="10.00">Logger::get_tag</text>
</a>
</g>
</g>
<!-- Node2&#45;&gt;Node4 -->
<g id="edge3_Node000002_Node000004" class="edge">
<title>Node2&#45;&gt;Node4</title>
<g id="a_edge3_Node000002_Node000004"><a xlink:title=" ">
<path fill="none" stroke="#63b8ff" d="M219.98,-90.08C238.41,-92.46 262.15,-95.54 283.29,-98.27"/>
<polygon fill="#63b8ff" stroke="#63b8ff" points="282.69,-101.85 293.06,-99.67 283.59,-94.91 282.69,-101.85"/>
</a>
</g>
</g>
<!-- Node5 -->
<g id="Node000005" class="node">
<title>Node5</title>
<g id="a_Node000005"><a xlink:href="class_logger.html#a4825613142ebb093bf8fa26f21f7f3fc" target="_top" xlink:title="Метод, который выводит сообщение в консоль.">
<polygon fill="white" stroke="#666666" points="397.5,-77 275,-77 275,-57 397.5,-57 397.5,-77"/>
<text text-anchor="middle" x="336.25" y="-63.5" font-family="Helvetica,sans-Serif" font-size="10.00">Logger::print_to_console</text>
</a>
</g>
</g>
<!-- Node2&#45;&gt;Node5 -->
<g id="edge4_Node000002_Node000005" class="edge">
<title>Node2&#45;&gt;Node5</title>
<g id="a_edge4_Node000002_Node000005"><a xlink:title=" ">
<path fill="none" stroke="#63b8ff" d="M219.98,-81.92C232.91,-80.25 248.46,-78.24 263.88,-76.24"/>
<polygon fill="#63b8ff" stroke="#63b8ff" points="264.04,-79.62 273.51,-74.86 263.14,-72.68 264.04,-79.62"/>
</a>
</g>
</g>
<!-- Node6 -->
<g id="Node000006" class="node">
<title>Node6</title>
<g id="a_Node000006"><a xlink:href="class_logger.html#a999bb33f7cf079cb98f32fae6016a2f3" target="_top" xlink:title="Метод, который записывает сообщение в файл.">
<polygon fill="white" stroke="#666666" points="386.62,-39 285.88,-39 285.88,-19 386.62,-19 386.62,-39"/>
<text text-anchor="middle" x="336.25" y="-25.5" font-family="Helvetica,sans-Serif" font-size="10.00">Logger::print_to_file</text>
</a>
</g>
</g>
<!-- Node2&#45;&gt;Node6 -->
<g id="edge5_Node000002_Node000006" class="edge">
<title>Node2&#45;&gt;Node6</title>
<g id="a_edge5_Node000002_Node000006"><a xlink:title=" ">
<path fill="none" stroke="#63b8ff" d="M218.13,-75.56C225.05,-72.93 232.34,-70 239,-67 255.5,-59.58 258.31,-54.97 275,-48 279.33,-46.19 283.9,-44.46 288.5,-42.82"/>
<polygon fill="#63b8ff" stroke="#63b8ff" points="289.2,-45.94 297.55,-39.41 286.95,-39.31 289.2,-45.94"/>
</a>
</g>
</g>
</g>
</svg>
</svg>

<style type='text/css'>
<![CDATA[
[data-mouse-over-selected='false'] { opacity: 0.7; }
[data-mouse-over-selected='true']  { opacity: 1.0; }
]]>
</style>
<script type="application/ecmascript"><![CDATA[
document.addEventListener('DOMContentLoaded', (event) => {
  highlightEdges();
  highlightAdjacentNodes();
});
]]></script>
</svg>
