<?xml version="1.0" encoding="UTF-8" standalone="no"?>
<!DOCTYPE svg PUBLIC "-//W3C//DTD SVG 1.1//EN"
 "http://www.w3.org/Graphics/SVG/1.1/DTD/svg11.dtd">
<!-- Generated by graphviz version 8.0.5 (20230430.1635)
 -->
<!-- Title: VisaDevice::send_err Pages: 1 -->
<svg width="757pt" height="149pt"
 viewBox="0.00 0.00 757.25 149.12" xmlns="http://www.w3.org/2000/svg" xmlns:xlink="http://www.w3.org/1999/xlink">
<g id="graph0" class="graph" transform="scale(1 1) rotate(0) translate(4 145.12)">
<title>VisaDevice::send_err</title>
<!-- Node1 -->
<g id="Node000001" class="node">
<title>Node1</title>
<g id="a_Node000001"><a xlink:title="Отправка данных на прибор и чтение ответа от прибора. Также, проверяется наличие ошибок на приборе.">
<polygon fill="#999999" stroke="#666666" points="107.5,-103.12 0,-103.12 0,-83.12 107.5,-83.12 107.5,-103.12"/>
<text text-anchor="middle" x="53.75" y="-89.62" font-family="Helvetica,sans-Serif" font-size="10.00">VisaDevice::send_err</text>
</a>
</g>
</g>
<!-- Node2 -->
<g id="Node000002" class="node">
<title>Node2</title>
<g id="a_Node000002"><a xlink:href="class_visa_device.html#aba4642c194cffe2135a133e23960ab63" target="_top" xlink:title="Отправляет команду &quot;SYSTEM:ERROR?&quot; на подключенное устройство и считывает сведения об ошибках,...">
<polygon fill="white" stroke="#666666" points="229.62,-103.12 148.38,-103.12 148.38,-83.12 229.62,-83.12 229.62,-103.12"/>
<text text-anchor="middle" x="189" y="-89.62" font-family="Helvetica,sans-Serif" font-size="10.00">VisaDevice::err</text>
</a>
</g>
</g>
<!-- Node1&#45;&gt;Node2 -->
<g id="edge1_Node000001_Node000002" class="edge">
<title>Node1&#45;&gt;Node2</title>
<g id="a_edge1_Node000001_Node000002"><a xlink:title=" ">
<path fill="none" stroke="#63b8ff" d="M107.8,-93.12C117.6,-93.12 127.82,-93.12 137.55,-93.12"/>
<polygon fill="#63b8ff" stroke="#63b8ff" points="137.28,-96.62 147.28,-93.12 137.28,-89.62 137.28,-96.62"/>
</a>
</g>
</g>
<!-- Node3 -->
<g id="Node000003" class="node">
<title>Node3</title>
<g id="a_Node000003"><a xlink:href="class_logger.html#af7709105c2708359b7b082218f4cc3e1" target="_top" xlink:title="Метод, осуществляющий логирование">
<polygon fill="white" stroke="#666666" points="590.75,-84.12 526.75,-84.12 526.75,-64.12 590.75,-64.12 590.75,-84.12"/>
<text text-anchor="middle" x="558.75" y="-70.62" font-family="Helvetica,sans-Serif" font-size="10.00">Logger::log</text>
</a>
</g>
</g>
<!-- Node1&#45;&gt;Node3 -->
<g id="edge12_Node000001_Node000003" class="edge">
<title>Node1&#45;&gt;Node3</title>
<g id="a_edge12_Node000001_Node000003"><a xlink:title=" ">
<path fill="none" stroke="#63b8ff" d="M95.57,-103.6C110.54,-106.98 127.69,-110.32 143.5,-112.12 296.85,-129.57 341.7,-150.15 490.75,-110.12 506.05,-106.01 521.72,-97.85 534.05,-90.34"/>
<polygon fill="#63b8ff" stroke="#63b8ff" points="535.6,-92.86 542.16,-84.54 531.84,-86.96 535.6,-92.86"/>
</a>
</g>
</g>
<!-- Node11 -->
<g id="Node000011" class="node">
<title>Node11</title>
<g id="a_Node000011"><a xlink:href="class_visa_device.html#ad659ba652605f5c983958400fde8c808" target="_top" xlink:title="Отправка данных на прибор и чтение ответа от прибора.">
<polygon fill="white" stroke="#666666" points="234.5,-46.12 143.5,-46.12 143.5,-26.12 234.5,-26.12 234.5,-46.12"/>
<text text-anchor="middle" x="189" y="-32.62" font-family="Helvetica,sans-Serif" font-size="10.00">VisaDevice::send</text>
</a>
</g>
</g>
<!-- Node1&#45;&gt;Node11 -->
<g id="edge13_Node000001_Node000011" class="edge">
<title>Node1&#45;&gt;Node11</title>
<g id="a_edge13_Node000001_Node000011"><a xlink:title=" ">
<path fill="none" stroke="#63b8ff" d="M79.19,-82.66C100.13,-73.71 130.52,-60.7 153.87,-50.72"/>
<polygon fill="#63b8ff" stroke="#63b8ff" points="154.9,-53.66 162.71,-46.51 152.14,-47.22 154.9,-53.66"/>
</a>
</g>
</g>
<!-- Node2&#45;&gt;Node3 -->
<g id="edge2_Node000002_Node000003" class="edge">
<title>Node2&#45;&gt;Node3</title>
<g id="a_edge2_Node000002_Node000003"><a xlink:title=" ">
<path fill="none" stroke="#63b8ff" d="M229.65,-96.58C287.41,-100.83 397.92,-106.03 490.75,-93.12 499.52,-91.9 508.75,-89.82 517.47,-87.48"/>
<polygon fill="#63b8ff" stroke="#63b8ff" points="518.13,-90.65 526.78,-84.53 516.2,-83.92 518.13,-90.65"/>
</a>
</g>
</g>
<!-- Node8 -->
<g id="Node000008" class="node">
<title>Node8</title>
<g id="a_Node000008"><a xlink:href="class_visa_device.html#aa807192fd9a8c3e6efc458f78de5e73e" target="_top" xlink:title="Метод, совмещающий в себе методы write() и read().">
<polygon fill="white" stroke="#666666" points="364.5,-84.12 270.5,-84.12 270.5,-64.12 364.5,-64.12 364.5,-84.12"/>
<text text-anchor="middle" x="317.5" y="-70.62" font-family="Helvetica,sans-Serif" font-size="10.00">VisaDevice::query</text>
</a>
</g>
</g>
<!-- Node2&#45;&gt;Node8 -->
<g id="edge7_Node000002_Node000008" class="edge">
<title>Node2&#45;&gt;Node8</title>
<g id="a_edge7_Node000002_Node000008"><a xlink:title=" ">
<path fill="none" stroke="#63b8ff" d="M230.03,-87.11C239.38,-85.7 249.52,-84.18 259.46,-82.69"/>
<polygon fill="#63b8ff" stroke="#63b8ff" points="259.75,-86.03 269.11,-81.09 258.71,-79.11 259.75,-86.03"/>
</a>
</g>
</g>
<!-- Node4 -->
<g id="Node000004" class="node">
<title>Node4</title>
<g id="a_Node000004"><a xlink:href="logger_8hpp.html#a49284b7befa8e31f81e01ee8f3735dd0" target="_top" xlink:title="Функция, которая снимает значение текущего времени и конвертирует его в строку с заданным шаблоном.">
<polygon fill="white" stroke="#666666" points="732.38,-141.12 643.62,-141.12 643.62,-121.12 732.38,-121.12 732.38,-141.12"/>
<text text-anchor="middle" x="688" y="-127.62" font-family="Helvetica,sans-Serif" font-size="10.00">get_current_time</text>
</a>
</g>
</g>
<!-- Node3&#45;&gt;Node4 -->
<g id="edge3_Node000003_Node000004" class="edge">
<title>Node3&#45;&gt;Node4</title>
<g id="a_edge3_Node000003_Node000004"><a xlink:title=" ">
<path fill="none" stroke="#63b8ff" d="M575.77,-84.48C589.05,-92.75 608.6,-104.22 626.75,-112.12 630.82,-113.89 635.11,-115.58 639.45,-117.17"/>
<polygon fill="#63b8ff" stroke="#63b8ff" points="637.99,-120.71 648.59,-120.67 640.28,-114.09 637.99,-120.71"/>
</a>
</g>
</g>
<!-- Node5 -->
<g id="Node000005" class="node">
<title>Node5</title>
<g id="a_Node000005"><a xlink:href="class_logger.html#a6edb7b263f080d417b82a537ed50fee4" target="_top" xlink:title="Возвращает тег в зависимости от уровня логирования и от назначения тега.">
<polygon fill="white" stroke="#666666" points="729.75,-103.12 646.25,-103.12 646.25,-83.12 729.75,-83.12 729.75,-103.12"/>
<text text-anchor="middle" x="688" y="-89.62" font-family="Helvetica,sans-Serif" font-size="10.00">Logger::get_tag</text>
</a>
</g>
</g>
<!-- Node3&#45;&gt;Node5 -->
<g id="edge4_Node000003_Node000005" class="edge">
<title>Node3&#45;&gt;Node5</title>
<g id="a_edge4_Node000003_Node000005"><a xlink:title=" ">
<path fill="none" stroke="#63b8ff" d="M591.21,-78.82C604.47,-80.8 620.27,-83.16 635.17,-85.38"/>
<polygon fill="#63b8ff" stroke="#63b8ff" points="634.41,-88.95 644.82,-86.97 635.44,-82.03 634.41,-88.95"/>
</a>
</g>
</g>
<!-- Node6 -->
<g id="Node000006" class="node">
<title>Node6</title>
<g id="a_Node000006"><a xlink:href="class_logger.html#a4825613142ebb093bf8fa26f21f7f3fc" target="_top" xlink:title="Метод, который выводит сообщение в консоль.">
<polygon fill="white" stroke="#666666" points="749.25,-65.12 626.75,-65.12 626.75,-45.12 749.25,-45.12 749.25,-65.12"/>
<text text-anchor="middle" x="688" y="-51.62" font-family="Helvetica,sans-Serif" font-size="10.00">Logger::print_to_console</text>
</a>
</g>
</g>
<!-- Node3&#45;&gt;Node6 -->
<g id="edge5_Node000003_Node000006" class="edge">
<title>Node3&#45;&gt;Node6</title>
<g id="a_edge5_Node000003_Node000006"><a xlink:title=" ">
<path fill="none" stroke="#63b8ff" d="M591.21,-69.42C598.71,-68.3 607.02,-67.06 615.53,-65.79"/>
<polygon fill="#63b8ff" stroke="#63b8ff" points="615.98,-69.11 625.35,-64.17 614.94,-62.19 615.98,-69.11"/>
</a>
</g>
</g>
<!-- Node7 -->
<g id="Node000007" class="node">
<title>Node7</title>
<g id="a_Node000007"><a xlink:href="class_logger.html#a999bb33f7cf079cb98f32fae6016a2f3" target="_top" xlink:title="Метод, который записывает сообщение в файл.">
<polygon fill="white" stroke="#666666" points="738.38,-27.12 637.62,-27.12 637.62,-7.12 738.38,-7.12 738.38,-27.12"/>
<text text-anchor="middle" x="688" y="-13.62" font-family="Helvetica,sans-Serif" font-size="10.00">Logger::print_to_file</text>
</a>
</g>
</g>
<!-- Node3&#45;&gt;Node7 -->
<g id="edge6_Node000003_Node000007" class="edge">
<title>Node3&#45;&gt;Node7</title>
<g id="a_edge6_Node000003_Node000007"><a xlink:title=" ">
<path fill="none" stroke="#63b8ff" d="M575.77,-63.75C589.05,-55.49 608.6,-44.02 626.75,-36.12 630.82,-34.35 635.11,-32.66 639.45,-31.07"/>
<polygon fill="#63b8ff" stroke="#63b8ff" points="640.28,-34.14 648.59,-27.57 637.99,-27.53 640.28,-34.14"/>
</a>
</g>
</g>
<!-- Node9 -->
<g id="Node000009" class="node">
<title>Node9</title>
<g id="a_Node000009"><a xlink:href="class_visa_device.html#aca08d9dbb0469f1143668a485e4adfe2" target="_top" xlink:title="Метод, позволяющий считать данные с устройства">
<polygon fill="white" stroke="#666666" points="490,-84.12 401.25,-84.12 401.25,-64.12 490,-64.12 490,-84.12"/>
<text text-anchor="middle" x="445.62" y="-70.62" font-family="Helvetica,sans-Serif" font-size="10.00">VisaDevice::read</text>
</a>
</g>
</g>
<!-- Node8&#45;&gt;Node9 -->
<g id="edge8_Node000008_Node000009" class="edge">
<title>Node8&#45;&gt;Node9</title>
<g id="a_edge8_Node000008_Node000009"><a xlink:title=" ">
<path fill="none" stroke="#63b8ff" d="M364.75,-74.12C372.96,-74.12 381.58,-74.12 390,-74.12"/>
<polygon fill="#63b8ff" stroke="#63b8ff" points="389.9,-77.62 399.9,-74.12 389.9,-70.62 389.9,-77.62"/>
</a>
</g>
</g>
<!-- Node10 -->
<g id="Node000010" class="node">
<title>Node10</title>
<g id="a_Node000010"><a xlink:href="class_visa_device.html#a29202c3f5e47326386d1d27972e25267" target="_top" xlink:title="Метод, позволяющий отправить команду на устройство">
<polygon fill="white" stroke="#666666" points="490.75,-46.12 400.5,-46.12 400.5,-26.12 490.75,-26.12 490.75,-46.12"/>
<text text-anchor="middle" x="445.62" y="-32.62" font-family="Helvetica,sans-Serif" font-size="10.00">VisaDevice::write</text>
</a>
</g>
</g>
<!-- Node8&#45;&gt;Node10 -->
<g id="edge10_Node000008_Node000010" class="edge">
<title>Node8&#45;&gt;Node10</title>
<g id="a_edge10_Node000008_Node000010"><a xlink:title=" ">
<path fill="none" stroke="#63b8ff" d="M353.3,-63.63C367.63,-59.31 384.43,-54.26 399.68,-49.66"/>
<polygon fill="#63b8ff" stroke="#63b8ff" points="400.38,-52.8 408.94,-46.57 398.36,-46.1 400.38,-52.8"/>
</a>
</g>
</g>
<!-- Node9&#45;&gt;Node3 -->
<g id="edge9_Node000009_Node000003" class="edge">
<title>Node9&#45;&gt;Node3</title>
<g id="a_edge9_Node000009_Node000003"><a xlink:title=" ">
<path fill="none" stroke="#63b8ff" d="M490.23,-74.12C498.5,-74.12 507.15,-74.12 515.39,-74.12"/>
<polygon fill="#63b8ff" stroke="#63b8ff" points="515.29,-77.62 525.29,-74.12 515.29,-70.62 515.29,-77.62"/>
</a>
</g>
</g>
<!-- Node10&#45;&gt;Node3 -->
<g id="edge11_Node000010_Node000003" class="edge">
<title>Node10&#45;&gt;Node3</title>
<g id="a_edge11_Node000010_Node000003"><a xlink:title=" ">
<path fill="none" stroke="#63b8ff" d="M477.28,-46.6C489.55,-50.8 503.86,-55.69 516.98,-60.18"/>
<polygon fill="#63b8ff" stroke="#63b8ff" points="515.6,-63.74 526.19,-63.67 517.86,-57.12 515.6,-63.74"/>
</a>
</g>
</g>
<!-- Node11&#45;&gt;Node3 -->
<g id="edge14_Node000011_Node000003" class="edge">
<title>Node11&#45;&gt;Node3</title>
<g id="a_edge14_Node000011_Node000003"><a xlink:title=" ">
<path fill="none" stroke="#63b8ff" d="M222,-25.73C278.39,-9.22 398.22,17.75 490.75,-17.12 511.38,-24.89 530.05,-42.03 542.41,-55.49"/>
<polygon fill="#63b8ff" stroke="#63b8ff" points="540.36,-57.46 549.58,-62.68 545.62,-52.85 540.36,-57.46"/>
</a>
</g>
</g>
<!-- Node11&#45;&gt;Node8 -->
<g id="edge15_Node000011_Node000008" class="edge">
<title>Node11&#45;&gt;Node8</title>
<g id="a_edge15_Node000011_Node000008"><a xlink:title=" ">
<path fill="none" stroke="#63b8ff" d="M224.9,-46.6C239.28,-50.92 256.13,-55.98 271.42,-60.58"/>
<polygon fill="#63b8ff" stroke="#63b8ff" points="270.13,-64.14 280.71,-63.67 272.14,-57.44 270.13,-64.14"/>
</a>
</g>
</g>
<!-- Node11&#45;&gt;Node9 -->
<g id="edge16_Node000011_Node000009" class="edge">
<title>Node11&#45;&gt;Node9</title>
<g id="a_edge16_Node000011_Node000009"><a xlink:title=" ">
<path fill="none" stroke="#63b8ff" d="M234.68,-39.44C270.06,-42.45 320.65,-47.56 364.5,-55.12 374.23,-56.79 384.53,-58.95 394.4,-61.2"/>
<polygon fill="#63b8ff" stroke="#63b8ff" points="393.35,-64.78 403.89,-63.66 394.95,-57.97 393.35,-64.78"/>
</a>
</g>
</g>
<!-- Node11&#45;&gt;Node10 -->
<g id="edge17_Node000011_Node000010" class="edge">
<title>Node11&#45;&gt;Node10</title>
<g id="a_edge17_Node000011_Node000010"><a xlink:title=" ">
<path fill="none" stroke="#63b8ff" d="M234.95,-26.89C246.49,-24.91 258.91,-23.12 270.5,-22.12 312.12,-18.53 322.88,-18.51 364.5,-22.12 372.62,-22.82 381.15,-23.92 389.49,-25.2"/>
<polygon fill="#63b8ff" stroke="#63b8ff" points="388.87,-28.81 399.3,-26.97 390,-21.9 388.87,-28.81"/>
</a>
</g>
</g>
</g>
</svg>
