<?xml version="1.0" encoding="UTF-8" standalone="no"?>
<!DOCTYPE svg PUBLIC "-//W3C//DTD SVG 1.1//EN"
 "http://www.w3.org/Graphics/SVG/1.1/DTD/svg11.dtd">
<!-- Generated by graphviz version 8.1.0 (20230707.0739)
 -->
<!-- Title: TesartRbd::is_stopped Pages: 1 -->
<svg width="536pt" height="142pt"
 viewBox="0.00 0.00 535.50 142.00" xmlns="http://www.w3.org/2000/svg" xmlns:xlink="http://www.w3.org/1999/xlink">
<g id="graph0" class="graph" transform="scale(1 1) rotate(0) translate(4 138)">
<title>TesartRbd::is_stopped</title>
<!-- Node1 -->
<g id="Node000001" class="node">
<title>Node1</title>
<g id="a_Node000001"><a xlink:title="Метод позволяет проверить, остановлена ли ось">
<polygon fill="#999999" stroke="#666666" points="113.5,-58 0,-58 0,-38 113.5,-38 113.5,-58"/>
<text text-anchor="middle" x="56.75" y="-44.5" font-family="Helvetica,sans-Serif" font-size="10.00">TesartRbd::is_stopped</text>
</a>
</g>
</g>
<!-- Node2 -->
<g id="Node000002" class="node">
<title>Node2</title>
<g id="a_Node000002"><a xlink:href="class_logger.html#af7709105c2708359b7b082218f4cc3e1" target="_top" xlink:title="Метод, осуществляющий логирование">
<polygon fill="white" stroke="#666666" points="355.88,-77 291.88,-77 291.88,-57 355.88,-57 355.88,-77"/>
<text text-anchor="middle" x="323.88" y="-63.5" font-family="Helvetica,sans-Serif" font-size="10.00">Logger::log</text>
</a>
</g>
</g>
<!-- Node1&#45;&gt;Node2 -->
<g id="edge1_Node000001_Node000002" class="edge">
<title>Node1&#45;&gt;Node2</title>
<g id="a_edge1_Node000001_Node000002"><a xlink:title=" ">
<path fill="none" stroke="#63b8ff" d="M113.98,-52.03C163.86,-55.6 235.62,-60.75 280.72,-63.98"/>
<polygon fill="#63b8ff" stroke="#63b8ff" points="280.36,-67.53 290.58,-64.76 280.86,-60.55 280.36,-67.53"/>
</a>
</g>
</g>
<!-- Node7 -->
<g id="Node000007" class="node">
<title>Node7</title>
<g id="a_Node000007"><a xlink:href="class_tesart_rbd.html#affbded46e17aa303601ba7ef885107b8" target="_top" xlink:title="Запрос статуса оси ОПУ по номеру оси">
<polygon fill="white" stroke="#666666" points="242.75,-39 149.5,-39 149.5,-19 242.75,-19 242.75,-39"/>
<text text-anchor="middle" x="196.12" y="-25.5" font-family="Helvetica,sans-Serif" font-size="10.00">TesartRbd::status</text>
</a>
</g>
</g>
<!-- Node1&#45;&gt;Node7 -->
<g id="edge6_Node000001_Node000007" class="edge">
<title>Node1&#45;&gt;Node7</title>
<g id="a_edge6_Node000001_Node000007"><a xlink:title=" ">
<path fill="none" stroke="#63b8ff" d="M113.63,-40.27C121.89,-39.13 130.41,-37.95 138.69,-36.81"/>
<polygon fill="#63b8ff" stroke="#63b8ff" points="138.95,-40.16 148.38,-35.33 138,-33.23 138.95,-40.16"/>
</a>
</g>
</g>
<!-- Node3 -->
<g id="Node000003" class="node">
<title>Node3</title>
<g id="a_Node000003"><a xlink:href="logger_8hpp.html#a49284b7befa8e31f81e01ee8f3735dd0" target="_top" xlink:title="Функция, которая снимает значение текущего времени и конвертирует его в строку с заданным шаблоном.">
<polygon fill="white" stroke="#666666" points="510.62,-134 421.88,-134 421.88,-114 510.62,-114 510.62,-134"/>
<text text-anchor="middle" x="466.25" y="-120.5" font-family="Helvetica,sans-Serif" font-size="10.00">get_current_time</text>
</a>
</g>
</g>
<!-- Node2&#45;&gt;Node3 -->
<g id="edge2_Node000002_Node000003" class="edge">
<title>Node2&#45;&gt;Node3</title>
<g id="a_edge2_Node000002_Node000003"><a xlink:title=" ">
<path fill="none" stroke="#63b8ff" d="M344.95,-77.47C360.96,-85.58 384.08,-96.78 405,-105 409.49,-106.76 414.21,-108.48 418.95,-110.11"/>
<polygon fill="#63b8ff" stroke="#63b8ff" points="417.69,-113.72 428.29,-113.55 419.9,-107.07 417.69,-113.72"/>
</a>
</g>
</g>
<!-- Node4 -->
<g id="Node000004" class="node">
<title>Node4</title>
<g id="a_Node000004"><a xlink:href="class_logger.html#a6edb7b263f080d417b82a537ed50fee4" target="_top" xlink:title="Возвращает тег в зависимости от уровня логирования и от назначения тега.">
<polygon fill="white" stroke="#666666" points="508,-96 424.5,-96 424.5,-76 508,-76 508,-96"/>
<text text-anchor="middle" x="466.25" y="-82.5" font-family="Helvetica,sans-Serif" font-size="10.00">Logger::get_tag</text>
</a>
</g>
</g>
<!-- Node2&#45;&gt;Node4 -->
<g id="edge3_Node000002_Node000004" class="edge">
<title>Node2&#45;&gt;Node4</title>
<g id="a_edge3_Node000002_Node000004"><a xlink:title=" ">
<path fill="none" stroke="#63b8ff" d="M356.03,-71.22C372.85,-73.49 394.06,-76.36 413.31,-78.97"/>
<polygon fill="#63b8ff" stroke="#63b8ff" points="412.68,-82.55 423.06,-80.42 413.62,-75.61 412.68,-82.55"/>
</a>
</g>
</g>
<!-- Node5 -->
<g id="Node000005" class="node">
<title>Node5</title>
<g id="a_Node000005"><a xlink:href="class_logger.html#a4825613142ebb093bf8fa26f21f7f3fc" target="_top" xlink:title="Метод, который выводит сообщение в консоль.">
<polygon fill="white" stroke="#666666" points="527.5,-58 405,-58 405,-38 527.5,-38 527.5,-58"/>
<text text-anchor="middle" x="466.25" y="-44.5" font-family="Helvetica,sans-Serif" font-size="10.00">Logger::print_to_console</text>
</a>
</g>
</g>
<!-- Node2&#45;&gt;Node5 -->
<g id="edge4_Node000002_Node000005" class="edge">
<title>Node2&#45;&gt;Node5</title>
<g id="a_edge4_Node000002_Node000005"><a xlink:title=" ">
<path fill="none" stroke="#63b8ff" d="M356.03,-62.78C367.31,-61.26 380.56,-59.46 393.87,-57.66"/>
<polygon fill="#63b8ff" stroke="#63b8ff" points="394.08,-61.03 403.52,-56.22 393.15,-54.09 394.08,-61.03"/>
</a>
</g>
</g>
<!-- Node6 -->
<g id="Node000006" class="node">
<title>Node6</title>
<g id="a_Node000006"><a xlink:href="class_logger.html#a999bb33f7cf079cb98f32fae6016a2f3" target="_top" xlink:title="Метод, который записывает сообщение в файл.">
<polygon fill="white" stroke="#666666" points="516.62,-20 415.88,-20 415.88,0 516.62,0 516.62,-20"/>
<text text-anchor="middle" x="466.25" y="-6.5" font-family="Helvetica,sans-Serif" font-size="10.00">Logger::print_to_file</text>
</a>
</g>
</g>
<!-- Node2&#45;&gt;Node6 -->
<g id="edge5_Node000002_Node000006" class="edge">
<title>Node2&#45;&gt;Node6</title>
<g id="a_edge5_Node000002_Node000006"><a xlink:title=" ">
<path fill="none" stroke="#63b8ff" d="M349.77,-56.69C356.09,-53.96 362.83,-50.95 369,-48 385.32,-40.19 388.31,-35.97 405,-29 409.33,-27.19 413.9,-25.46 418.5,-23.82"/>
<polygon fill="#63b8ff" stroke="#63b8ff" points="419.2,-26.94 427.55,-20.41 416.95,-20.31 419.2,-26.94"/>
</a>
</g>
</g>
<!-- Node7&#45;&gt;Node2 -->
<g id="edge7_Node000007_Node000002" class="edge">
<title>Node7&#45;&gt;Node2</title>
<g id="a_edge7_Node000007_Node000002"><a xlink:title=" ">
<path fill="none" stroke="#63b8ff" d="M231.82,-39.48C247.21,-44.13 265.43,-49.64 281.52,-54.5"/>
<polygon fill="#63b8ff" stroke="#63b8ff" points="280.14,-58.05 290.73,-57.59 282.17,-51.34 280.14,-58.05"/>
</a>
</g>
</g>
<!-- Node8 -->
<g id="Node000008" class="node">
<title>Node8</title>
<g id="a_Node000008"><a xlink:href="namespacestring__utils.html#a9fe07494ccc7914840b0d615974bc802" target="_top" xlink:title="Делит строку на две части по требуемому символу и возвращает содержимое правой части">
<polygon fill="white" stroke="#666666" points="369,-39 278.75,-39 278.75,-19 369,-19 369,-39"/>
<text text-anchor="middle" x="323.88" y="-25.5" font-family="Helvetica,sans-Serif" font-size="10.00">string_utils::lstrip</text>
</a>
</g>
</g>
<!-- Node7&#45;&gt;Node8 -->
<g id="edge8_Node000007_Node000008" class="edge">
<title>Node7&#45;&gt;Node8</title>
<g id="a_edge8_Node000007_Node000008"><a xlink:title=" ">
<path fill="none" stroke="#63b8ff" d="M243.24,-29C251.14,-29 259.42,-29 267.54,-29"/>
<polygon fill="#63b8ff" stroke="#63b8ff" points="267.45,-32.5 277.45,-29 267.45,-25.5 267.45,-32.5"/>
</a>
</g>
</g>
</g>
</svg>
