<?xml version="1.0" encoding="UTF-8" standalone="no"?>
<!DOCTYPE svg PUBLIC "-//W3C//DTD SVG 1.1//EN"
 "http://www.w3.org/Graphics/SVG/1.1/DTD/svg11.dtd">
<!-- Generated by graphviz version 8.0.5 (20230430.1635)
 -->
<!-- Title: KeysightM9807A::full_preset Pages: 1 -->
<svg width="758pt" height="142pt"
 viewBox="0.00 0.00 758.00 142.00" xmlns="http://www.w3.org/2000/svg" xmlns:xlink="http://www.w3.org/1999/xlink">
<g id="graph0" class="graph" transform="scale(1 1) rotate(0) translate(4 138)">
<title>KeysightM9807A::full_preset</title>
<!-- Node1 -->
<g id="Node000001" class="node">
<title>Node1</title>
<g id="a_Node000001"><a xlink:title="Полный сброс настроек">
<polygon fill="#999999" stroke="#666666" points="108.25,-64 0,-64 0,-32 108.25,-32 108.25,-64"/>
<text text-anchor="start" x="8" y="-50.5" font-family="Helvetica,sans-Serif" font-size="10.00">KeysightM9807A::full</text>
<text text-anchor="middle" x="54.12" y="-38.5" font-family="Helvetica,sans-Serif" font-size="10.00">_preset</text>
</a>
</g>
</g>
<!-- Node2 -->
<g id="Node000002" class="node">
<title>Node2</title>
<g id="a_Node000002"><a xlink:href="class_visa_device.html#ad659ba652605f5c983958400fde8c808" target="_top" xlink:title="Отправка данных на прибор и чтение ответа от прибора.">
<polygon fill="white" stroke="#666666" points="235.25,-58 144.25,-58 144.25,-38 235.25,-38 235.25,-58"/>
<text text-anchor="middle" x="189.75" y="-44.5" font-family="Helvetica,sans-Serif" font-size="10.00">VisaDevice::send</text>
</a>
</g>
</g>
<!-- Node1&#45;&gt;Node2 -->
<g id="edge1_Node000001_Node000002" class="edge">
<title>Node1&#45;&gt;Node2</title>
<g id="a_edge1_Node000001_Node000002"><a xlink:title=" ">
<path fill="none" stroke="#63b8ff" d="M108.71,-48C116.79,-48 125.15,-48 133.27,-48"/>
<polygon fill="#63b8ff" stroke="#63b8ff" points="133.16,-51.5 143.16,-48 133.16,-44.5 133.16,-51.5"/>
</a>
</g>
</g>
<!-- Node3 -->
<g id="Node000003" class="node">
<title>Node3</title>
<g id="a_Node000003"><a xlink:href="class_logger.html#af7709105c2708359b7b082218f4cc3e1" target="_top" xlink:title="Метод, осуществляющий логирование">
<polygon fill="white" stroke="#666666" points="591.5,-77 527.5,-77 527.5,-57 591.5,-57 591.5,-77"/>
<text text-anchor="middle" x="559.5" y="-63.5" font-family="Helvetica,sans-Serif" font-size="10.00">Logger::log</text>
</a>
</g>
</g>
<!-- Node2&#45;&gt;Node3 -->
<g id="edge2_Node000002_Node000003" class="edge">
<title>Node2&#45;&gt;Node3</title>
<g id="a_edge2_Node000002_Node000003"><a xlink:title=" ">
<path fill="none" stroke="#63b8ff" d="M222.58,-58.39C237.26,-62.85 255,-67.76 271.25,-71 367.48,-90.16 394.32,-99.51 491.5,-86 500.27,-84.78 509.5,-82.7 518.22,-80.36"/>
<polygon fill="#63b8ff" stroke="#63b8ff" points="518.88,-83.53 527.53,-77.41 516.95,-76.8 518.88,-83.53"/>
</a>
</g>
</g>
<!-- Node8 -->
<g id="Node000008" class="node">
<title>Node8</title>
<g id="a_Node000008"><a xlink:href="class_visa_device.html#aa807192fd9a8c3e6efc458f78de5e73e" target="_top" xlink:title="Метод, совмещающий в себе методы write() и read().">
<polygon fill="white" stroke="#666666" points="365.25,-39 271.25,-39 271.25,-19 365.25,-19 365.25,-39"/>
<text text-anchor="middle" x="318.25" y="-25.5" font-family="Helvetica,sans-Serif" font-size="10.00">VisaDevice::query</text>
</a>
</g>
</g>
<!-- Node2&#45;&gt;Node8 -->
<g id="edge7_Node000002_Node000008" class="edge">
<title>Node2&#45;&gt;Node8</title>
<g id="a_edge7_Node000002_Node000008"><a xlink:title=" ">
<path fill="none" stroke="#63b8ff" d="M235.71,-41.25C243.7,-40.05 252.13,-38.78 260.41,-37.54"/>
<polygon fill="#63b8ff" stroke="#63b8ff" points="260.79,-40.87 270.16,-35.92 259.75,-33.95 260.79,-40.87"/>
</a>
</g>
</g>
<!-- Node9 -->
<g id="Node000009" class="node">
<title>Node9</title>
<g id="a_Node000009"><a xlink:href="class_visa_device.html#aca08d9dbb0469f1143668a485e4adfe2" target="_top" xlink:title="Метод, позволяющий считать данные с устройства">
<polygon fill="white" stroke="#666666" points="490.75,-77 402,-77 402,-57 490.75,-57 490.75,-77"/>
<text text-anchor="middle" x="446.38" y="-63.5" font-family="Helvetica,sans-Serif" font-size="10.00">VisaDevice::read</text>
</a>
</g>
</g>
<!-- Node2&#45;&gt;Node9 -->
<g id="edge12_Node000002_Node000009" class="edge">
<title>Node2&#45;&gt;Node9</title>
<g id="a_edge12_Node000002_Node000009"><a xlink:title=" ">
<path fill="none" stroke="#63b8ff" d="M235.69,-51.35C279.04,-54.59 344.72,-59.49 391,-62.94"/>
<polygon fill="#63b8ff" stroke="#63b8ff" points="390.51,-66.49 400.74,-63.74 391.03,-59.51 390.51,-66.49"/>
</a>
</g>
</g>
<!-- Node10 -->
<g id="Node000010" class="node">
<title>Node10</title>
<g id="a_Node000010"><a xlink:href="class_visa_device.html#a29202c3f5e47326386d1d27972e25267" target="_top" xlink:title="Метод, позволяющий отправить команду на устройство">
<polygon fill="white" stroke="#666666" points="491.5,-39 401.25,-39 401.25,-19 491.5,-19 491.5,-39"/>
<text text-anchor="middle" x="446.38" y="-25.5" font-family="Helvetica,sans-Serif" font-size="10.00">VisaDevice::write</text>
</a>
</g>
</g>
<!-- Node2&#45;&gt;Node10 -->
<g id="edge13_Node000002_Node000010" class="edge">
<title>Node2&#45;&gt;Node10</title>
<g id="a_edge13_Node000002_Node000010"><a xlink:title=" ">
<path fill="none" stroke="#63b8ff" d="M207.23,-37.55C222.98,-28.23 247.72,-15.27 271.25,-10 314.41,-0.32 364.74,-7.78 400.15,-16.02"/>
<polygon fill="#63b8ff" stroke="#63b8ff" points="399.1,-19.61 409.64,-18.58 400.76,-12.81 399.1,-19.61"/>
</a>
</g>
</g>
<!-- Node4 -->
<g id="Node000004" class="node">
<title>Node4</title>
<g id="a_Node000004"><a xlink:href="logger_8hpp.html#a49284b7befa8e31f81e01ee8f3735dd0" target="_top" xlink:title="Функция, которая снимает значение текущего времени и конвертирует его в строку с заданным шаблоном.">
<polygon fill="white" stroke="#666666" points="733.12,-134 644.38,-134 644.38,-114 733.12,-114 733.12,-134"/>
<text text-anchor="middle" x="688.75" y="-120.5" font-family="Helvetica,sans-Serif" font-size="10.00">get_current_time</text>
</a>
</g>
</g>
<!-- Node3&#45;&gt;Node4 -->
<g id="edge3_Node000003_Node000004" class="edge">
<title>Node3&#45;&gt;Node4</title>
<g id="a_edge3_Node000003_Node000004"><a xlink:title=" ">
<path fill="none" stroke="#63b8ff" d="M576.52,-77.36C589.8,-85.63 609.35,-97.1 627.5,-105 631.57,-106.77 635.86,-108.46 640.2,-110.05"/>
<polygon fill="#63b8ff" stroke="#63b8ff" points="638.74,-113.59 649.34,-113.55 641.03,-106.97 638.74,-113.59"/>
</a>
</g>
</g>
<!-- Node5 -->
<g id="Node000005" class="node">
<title>Node5</title>
<g id="a_Node000005"><a xlink:href="class_logger.html#a6edb7b263f080d417b82a537ed50fee4" target="_top" xlink:title="Возвращает тег в зависимости от уровня логирования и от назначения тега.">
<polygon fill="white" stroke="#666666" points="730.5,-96 647,-96 647,-76 730.5,-76 730.5,-96"/>
<text text-anchor="middle" x="688.75" y="-82.5" font-family="Helvetica,sans-Serif" font-size="10.00">Logger::get_tag</text>
</a>
</g>
</g>
<!-- Node3&#45;&gt;Node5 -->
<g id="edge4_Node000003_Node000005" class="edge">
<title>Node3&#45;&gt;Node5</title>
<g id="a_edge4_Node000003_Node000005"><a xlink:title=" ">
<path fill="none" stroke="#63b8ff" d="M591.96,-71.7C605.22,-73.68 621.02,-76.04 635.92,-78.26"/>
<polygon fill="#63b8ff" stroke="#63b8ff" points="635.16,-81.84 645.57,-79.85 636.19,-74.91 635.16,-81.84"/>
</a>
</g>
</g>
<!-- Node6 -->
<g id="Node000006" class="node">
<title>Node6</title>
<g id="a_Node000006"><a xlink:href="class_logger.html#a4825613142ebb093bf8fa26f21f7f3fc" target="_top" xlink:title="Метод, который выводит сообщение в консоль.">
<polygon fill="white" stroke="#666666" points="750,-58 627.5,-58 627.5,-38 750,-38 750,-58"/>
<text text-anchor="middle" x="688.75" y="-44.5" font-family="Helvetica,sans-Serif" font-size="10.00">Logger::print_to_console</text>
</a>
</g>
</g>
<!-- Node3&#45;&gt;Node6 -->
<g id="edge5_Node000003_Node000006" class="edge">
<title>Node3&#45;&gt;Node6</title>
<g id="a_edge5_Node000003_Node000006"><a xlink:title=" ">
<path fill="none" stroke="#63b8ff" d="M591.96,-62.3C599.46,-61.18 607.77,-59.94 616.28,-58.67"/>
<polygon fill="#63b8ff" stroke="#63b8ff" points="616.73,-61.99 626.1,-57.06 615.69,-55.07 616.73,-61.99"/>
</a>
</g>
</g>
<!-- Node7 -->
<g id="Node000007" class="node">
<title>Node7</title>
<g id="a_Node000007"><a xlink:href="class_logger.html#a999bb33f7cf079cb98f32fae6016a2f3" target="_top" xlink:title="Метод, который записывает сообщение в файл.">
<polygon fill="white" stroke="#666666" points="739.12,-20 638.38,-20 638.38,0 739.12,0 739.12,-20"/>
<text text-anchor="middle" x="688.75" y="-6.5" font-family="Helvetica,sans-Serif" font-size="10.00">Logger::print_to_file</text>
</a>
</g>
</g>
<!-- Node3&#45;&gt;Node7 -->
<g id="edge6_Node000003_Node000007" class="edge">
<title>Node3&#45;&gt;Node7</title>
<g id="a_edge6_Node000003_Node000007"><a xlink:title=" ">
<path fill="none" stroke="#63b8ff" d="M576.52,-56.64C589.8,-48.37 609.35,-36.9 627.5,-29 631.57,-27.23 635.86,-25.54 640.2,-23.95"/>
<polygon fill="#63b8ff" stroke="#63b8ff" points="641.03,-27.03 649.34,-20.45 638.74,-20.41 641.03,-27.03"/>
</a>
</g>
</g>
<!-- Node8&#45;&gt;Node9 -->
<g id="edge8_Node000008_Node000009" class="edge">
<title>Node8&#45;&gt;Node9</title>
<g id="a_edge8_Node000008_Node000009"><a xlink:title=" ">
<path fill="none" stroke="#63b8ff" d="M354.05,-39.48C368.38,-43.8 385.18,-48.86 400.43,-53.46"/>
<polygon fill="#63b8ff" stroke="#63b8ff" points="399.11,-57.02 409.69,-56.55 401.13,-50.31 399.11,-57.02"/>
</a>
</g>
</g>
<!-- Node8&#45;&gt;Node10 -->
<g id="edge10_Node000008_Node000010" class="edge">
<title>Node8&#45;&gt;Node10</title>
<g id="a_edge10_Node000008_Node000010"><a xlink:title=" ">
<path fill="none" stroke="#63b8ff" d="M365.5,-29C373.42,-29 381.73,-29 389.87,-29"/>
<polygon fill="#63b8ff" stroke="#63b8ff" points="389.81,-32.5 399.81,-29 389.81,-25.5 389.81,-32.5"/>
</a>
</g>
</g>
<!-- Node9&#45;&gt;Node3 -->
<g id="edge9_Node000009_Node000003" class="edge">
<title>Node9&#45;&gt;Node3</title>
<g id="a_edge9_Node000009_Node000003"><a xlink:title=" ">
<path fill="none" stroke="#63b8ff" d="M490.98,-67C499.25,-67 507.9,-67 516.14,-67"/>
<polygon fill="#63b8ff" stroke="#63b8ff" points="516.04,-70.5 526.04,-67 516.04,-63.5 516.04,-70.5"/>
</a>
</g>
</g>
<!-- Node10&#45;&gt;Node3 -->
<g id="edge11_Node000010_Node000003" class="edge">
<title>Node10&#45;&gt;Node3</title>
<g id="a_edge11_Node000010_Node000003"><a xlink:title=" ">
<path fill="none" stroke="#63b8ff" d="M478.03,-39.48C490.3,-43.68 504.61,-48.57 517.73,-53.06"/>
<polygon fill="#63b8ff" stroke="#63b8ff" points="516.35,-56.63 526.94,-56.55 518.61,-50 516.35,-56.63"/>
</a>
</g>
</g>
</g>
</svg>
