<?xml version="1.0" encoding="UTF-8" standalone="no"?>
<!DOCTYPE svg PUBLIC "-//W3C//DTD SVG 1.1//EN"
 "http://www.w3.org/Graphics/SVG/1.1/DTD/svg11.dtd">
<!-- Generated by graphviz version 8.0.5 (20230430.1635)
 -->
<!-- Title: VisaDevice::is_connected Pages: 1 -->
<!--zoomable 154 -->

<svg id="main" version="1.1" xmlns="http://www.w3.org/2000/svg" xmlns:xlink="http://www.w3.org/1999/xlink" xml:space="preserve" onload="init(evt)">
<style type="text/css"><![CDATA[
.node, .edge {opacity: 0.7;}
.node.selected, .edge.selected {opacity: 1;}
.edge:hover path { stroke: red; }
.edge:hover polygon { stroke: red; fill: red; }
]]></style>

<defs>
  <circle id="rim" cx="0" cy="0" r="7"/>
  <circle id="rim2" cx="0" cy="0" r="3.5"/>
  <g id="zoomPlus">
    <use xlink:href="#rim" fill="#404040"><set attributeName="fill" to="#808080" begin="zoomplus.mouseover" end="zoomplus.mouseout"/></use>
    <path d="M-4,0h8M0,-4v8" fill="none" stroke="white" stroke-width="1.5" pointer-events="none"/>
  </g>
  <g id="zoomMin">
    <use xlink:href="#rim" fill="#404040"><set attributeName="fill" to="#808080" begin="zoomminus.mouseover" end="zoomminus.mouseout"/></use>
    <path d="M-4,0h8" fill="none" stroke="white" stroke-width="1.5" pointer-events="none"/>
  </g>
  <g id="arrowUp" transform="translate(30 24)">
    <use xlink:href="#rim"/>
    <path pointer-events="none" fill="none" stroke="white" stroke-width="1.5" d="M0,-3.0v7 M-2.5,-0.5L0,-3.0L2.5,-0.5"/>
  </g>
  <g id="arrowRight" transform="rotate(90) translate(36 -43)">
    <use xlink:href="#rim"/>
    <path pointer-events="none" fill="none" stroke="white" stroke-width="1.5" d="M0,-3.0v7 M-2.5,-0.5L0,-3.0L2.5,-0.5"/>
  </g>
  <g id="arrowDown" transform="rotate(180) translate(-30 -48)">
    <use xlink:href="#rim"/>
    <path pointer-events="none" fill="none" stroke="white" stroke-width="1.5" d="M0,-3.0v7 M-2.5,-0.5L0,-3.0L2.5,-0.5"/>
  </g>
  <g id="arrowLeft" transform="rotate(270) translate(-36 17)">
    <use xlink:href="#rim"/>
    <path pointer-events="none" fill="none" stroke="white" stroke-width="1.5" d="M0,-3.0v7 M-2.5,-0.5L0,-3.0L2.5,-0.5"/>
  </g>
  <g id="resetDef">
    <use xlink:href="#rim2" fill="#404040"><set attributeName="fill" to="#808080" begin="reset.mouseover" end="reset.mouseout"/></use>
  </g>
</defs>
<script type="application/ecmascript">
var viewWidth = 1330;
var viewHeight = 154;
var sectionId = 'dynsection-10';
</script>
<script type="application/ecmascript" xlink:href="svg.min.js"/>
<svg id="graph" class="graph">
<g id="viewport">
<title>VisaDevice::is_connected</title>
<!-- Node1 -->
<g id="Node000001" class="node">
<title>Node1</title>
<g id="a_Node000001"><a xlink:title="Метод, возвращающий значение флага connected.">
<polygon fill="#999999" stroke="#666666" points="1322.25,-77 1194.5,-77 1194.5,-57 1322.25,-57 1322.25,-77"/>
<text text-anchor="middle" x="1258.38" y="-63.5" font-family="Helvetica,sans-Serif" font-size="10.00">VisaDevice::is_connected</text>
</a>
</g>
</g>
<!-- Node2 -->
<g id="Node000002" class="node">
<title>Node2</title>
<g id="a_Node000002"><a xlink:href="class_device_set.html#a2dab046962f4ada089046e2fa4769c23" target="_top" xlink:title=" ">
<polygon fill="white" stroke="#666666" points="1140.88,-96 1040.88,-96 1040.88,-76 1140.88,-76 1140.88,-96"/>
<text text-anchor="middle" x="1090.88" y="-82.5" font-family="Helvetica,sans-Serif" font-size="10.00">DeviceSet::connect</text>
</a>
</g>
</g>
<!-- Node1&#45;&gt;Node2 -->
<g id="edge1_Node000001_Node000002" class="edge">
<title>Node1&#45;&gt;Node2</title>
<g id="a_edge1_Node000001_Node000002"><a xlink:title=" ">
<path fill="none" stroke="#63b8ff" d="M1183.52,-75.48C1169.25,-77.12 1154.62,-78.8 1141.36,-80.32"/>
<polygon fill="#63b8ff" stroke="#63b8ff" points="1183.8,-78.86 1193.33,-74.24 1183,-71.9 1183.8,-78.86"/>
</a>
</g>
</g>
<!-- Node10 -->
<g id="Node000010" class="node">
<title>Node10</title>
<g id="a_Node000010"><a xlink:href="class_device_set.html#ae3031b84c03d467918bb40cfcfb3a8c4" target="_top" xlink:title=" ">
<polygon fill="white" stroke="#666666" points="1158.5,-58 1023.25,-58 1023.25,-38 1158.5,-38 1158.5,-58"/>
<text text-anchor="middle" x="1090.88" y="-44.5" font-family="Helvetica,sans-Serif" font-size="10.00">DeviceSet::get_current_freq</text>
</a>
</g>
</g>
<!-- Node1&#45;&gt;Node10 -->
<g id="edge11_Node000001_Node000010" class="edge">
<title>Node1&#45;&gt;Node10</title>
<g id="a_edge11_Node000001_Node000010"><a xlink:title=" ">
<path fill="none" stroke="#63b8ff" d="M1183.61,-58.53C1175.37,-57.59 1167.01,-56.63 1158.87,-55.69"/>
<polygon fill="#63b8ff" stroke="#63b8ff" points="1183,-62.1 1193.33,-59.76 1183.8,-55.14 1183,-62.1"/>
</a>
</g>
</g>
<!-- Node13 -->
<g id="Node000013" class="node">
<title>Node13</title>
<g id="a_Node000013"><a xlink:href="class_device_set.html#aeeb8d224788fe0663898a10aad363832" target="_top" xlink:title=" ">
<polygon fill="white" stroke="#666666" points="1148.38,-146 1033.38,-146 1033.38,-114 1148.38,-114 1148.38,-146"/>
<text text-anchor="start" x="1041.38" y="-132.5" font-family="Helvetica,sans-Serif" font-size="10.00">DeviceSet::get_vna</text>
<text text-anchor="middle" x="1090.88" y="-120.5" font-family="Helvetica,sans-Serif" font-size="10.00">_switch_module_count</text>
</a>
</g>
</g>
<!-- Node1&#45;&gt;Node13 -->
<g id="edge14_Node000001_Node000013" class="edge">
<title>Node1&#45;&gt;Node13</title>
<g id="a_edge14_Node000001_Node000013"><a xlink:title=" ">
<path fill="none" stroke="#63b8ff" d="M1220.43,-81.28C1201.86,-88.44 1179,-97.21 1158.5,-105 1151.22,-107.76 1143.49,-110.68 1135.97,-113.51"/>
<polygon fill="#63b8ff" stroke="#63b8ff" points="1221.47,-84.24 1229.54,-77.38 1218.95,-77.71 1221.47,-84.24"/>
</a>
</g>
</g>
<!-- Node15 -->
<g id="Node000015" class="node">
<title>Node15</title>
<g id="a_Node000015"><a xlink:href="class_vna_device.html#ace1217e26e6e8d1b0e5127227730989b" target="_top" xlink:title=" ">
<polygon fill="white" stroke="#666666" points="1147.62,-20 1034.12,-20 1034.12,0 1147.62,0 1147.62,-20"/>
<text text-anchor="middle" x="1090.88" y="-6.5" font-family="Helvetica,sans-Serif" font-size="10.00">VnaDevice::VnaDevice</text>
</a>
</g>
</g>
<!-- Node1&#45;&gt;Node15 -->
<g id="edge17_Node000001_Node000015" class="edge">
<title>Node1&#45;&gt;Node15</title>
<g id="a_edge17_Node000001_Node000015"><a xlink:title=" ">
<path fill="none" stroke="#63b8ff" d="M1221.85,-52.47C1203.15,-45.04 1179.74,-36.09 1158.5,-29 1149.6,-26.03 1139.94,-23.1 1130.81,-20.47"/>
<polygon fill="#63b8ff" stroke="#63b8ff" points="1220.41,-56.06 1230.99,-56.53 1223.01,-49.56 1220.41,-56.06"/>
</a>
</g>
</g>
<!-- Node3 -->
<g id="Node000003" class="node">
<title>Node3</title>
<g id="a_Node000003"><a xlink:href="class_task_manager.html#a77f0d9e4c9363a126cedba6c47cece49" target="_top" xlink:title=" ">
<polygon fill="white" stroke="#666666" points="985.75,-99 846.75,-99 846.75,-79 985.75,-79 985.75,-99"/>
<text text-anchor="middle" x="916.25" y="-85.5" font-family="Helvetica,sans-Serif" font-size="10.00">TaskManager::connect_task</text>
</a>
</g>
</g>
<!-- Node2&#45;&gt;Node3 -->
<g id="edge2_Node000002_Node000003" class="edge">
<title>Node2&#45;&gt;Node3</title>
<g id="a_edge2_Node000002_Node000003"><a xlink:title=" ">
<path fill="none" stroke="#63b8ff" d="M1029.41,-87.05C1015.39,-87.29 1000.37,-87.56 986.02,-87.8"/>
<polygon fill="#63b8ff" stroke="#63b8ff" points="1029.47,-90.53 1039.41,-86.86 1029.35,-83.53 1029.47,-90.53"/>
</a>
</g>
</g>
<!-- Node4 -->
<g id="Node000004" class="node">
<title>Node4</title>
<g id="a_Node000004"><a xlink:href="class_task_manager.html#abf6a739a56cdc1bdf2cd71666c6f31be" target="_top" xlink:title=" ">
<polygon fill="white" stroke="#666666" points="807.75,-118 668.75,-118 668.75,-98 807.75,-98 807.75,-118"/>
<text text-anchor="middle" x="738.25" y="-104.5" font-family="Helvetica,sans-Serif" font-size="10.00">TaskManager::proceed_task</text>
</a>
</g>
</g>
<!-- Node3&#45;&gt;Node4 -->
<g id="edge3_Node000003_Node000004" class="edge">
<title>Node3&#45;&gt;Node4</title>
<g id="a_edge3_Node000003_Node000004"><a xlink:title=" ">
<path fill="none" stroke="#63b8ff" d="M835.68,-97.59C826.45,-98.59 817.08,-99.6 808,-100.58"/>
<polygon fill="#63b8ff" stroke="#63b8ff" points="835.88,-100.98 845.45,-96.43 835.13,-94.02 835.88,-100.98"/>
</a>
</g>
</g>
<!-- Node5 -->
<g id="Node000005" class="node">
<title>Node5</title>
<g id="a_Node000005"><a xlink:href="class_task_manager.html#a62720d3b2e70353688122cf2b706b3ce" target="_top" xlink:title=" ">
<polygon fill="white" stroke="#666666" points="329.25,-134 214.25,-134 214.25,-114 329.25,-114 329.25,-134"/>
<text text-anchor="middle" x="271.75" y="-120.5" font-family="Helvetica,sans-Serif" font-size="10.00">TaskManager::proceed</text>
</a>
</g>
</g>
<!-- Node4&#45;&gt;Node5 -->
<g id="edge4_Node000004_Node000005" class="edge">
<title>Node4&#45;&gt;Node5</title>
<g id="a_edge4_Node000004_Node000005"><a xlink:title=" ">
<path fill="none" stroke="#63b8ff" d="M657.52,-115.82C648.66,-116.6 639.77,-117.34 631.25,-118 513.31,-127.08 483.52,-128.92 365.25,-127 353.68,-126.81 341.31,-126.49 329.49,-126.13"/>
<polygon fill="#63b8ff" stroke="#63b8ff" points="657.64,-119.23 667.29,-114.85 657.01,-112.26 657.64,-119.23"/>
</a>
</g>
</g>
<!-- Node8 -->
<g id="Node000008" class="node">
<title>Node8</title>
<g id="a_Node000008"><a xlink:href="class_task_manager.html#ad9d635ee64d44cc34b619f2e3018e9d1" target="_top" xlink:title=" ">
<polygon fill="white" stroke="#666666" points="631.25,-80 516.25,-80 516.25,-48 631.25,-48 631.25,-80"/>
<text text-anchor="start" x="524.25" y="-66.5" font-family="Helvetica,sans-Serif" font-size="10.00">TaskManager::proceed</text>
<text text-anchor="middle" x="573.75" y="-54.5" font-family="Helvetica,sans-Serif" font-size="10.00">_nested_task_list</text>
</a>
</g>
</g>
<!-- Node4&#45;&gt;Node8 -->
<g id="edge7_Node000004_Node000008" class="edge">
<title>Node4&#45;&gt;Node8</title>
<g id="a_edge7_Node000004_Node000008"><a xlink:title=" ">
<path fill="none" stroke="#63b8ff" d="M688.24,-94.73C670.35,-89.88 649.96,-84.37 631.45,-79.35"/>
<polygon fill="#63b8ff" stroke="#63b8ff" points="687.17,-98.34 697.74,-97.57 689,-91.58 687.17,-98.34"/>
</a>
</g>
</g>
<!-- Node9 -->
<g id="Node000009" class="node">
<title>Node9</title>
<g id="a_Node000009"><a xlink:href="class_task_manager.html#a4b629612e2a111fdcc964c4eb3f8b1f4" target="_top" xlink:title=" ">
<polygon fill="white" stroke="#666666" points="480.25,-118 365.25,-118 365.25,-86 480.25,-86 480.25,-118"/>
<text text-anchor="start" x="373.25" y="-104.5" font-family="Helvetica,sans-Serif" font-size="10.00">TaskManager::proceed</text>
<text text-anchor="middle" x="422.75" y="-92.5" font-family="Helvetica,sans-Serif" font-size="10.00">_task_list</text>
</a>
</g>
</g>
<!-- Node4&#45;&gt;Node9 -->
<g id="edge10_Node000004_Node000009" class="edge">
<title>Node4&#45;&gt;Node9</title>
<g id="a_edge10_Node000004_Node000009"><a xlink:title=" ">
<path fill="none" stroke="#63b8ff" d="M657.64,-106.48C602.39,-105.42 530.1,-104.04 480.6,-103.09"/>
<polygon fill="#63b8ff" stroke="#63b8ff" points="657.39,-109.99 667.45,-106.68 657.52,-102.99 657.39,-109.99"/>
</a>
</g>
</g>
<!-- Node6 -->
<g id="Node000006" class="node">
<title>Node6</title>
<g id="a_Node000006"><a xlink:href="main_8cpp.html#a205c0f32d26b6f27c711fa201d02c983" target="_top" xlink:title=" ">
<polygon fill="white" stroke="#666666" points="178.25,-134 73,-134 73,-114 178.25,-114 178.25,-134"/>
<text text-anchor="middle" x="125.62" y="-120.5" font-family="Helvetica,sans-Serif" font-size="10.00">data_server_thread_f</text>
</a>
</g>
</g>
<!-- Node5&#45;&gt;Node6 -->
<g id="edge5_Node000005_Node000006" class="edge">
<title>Node5&#45;&gt;Node6</title>
<g id="a_edge5_Node000005_Node000006"><a xlink:title=" ">
<path fill="none" stroke="#63b8ff" d="M203.03,-124C194.78,-124 186.46,-124 178.49,-124"/>
<polygon fill="#63b8ff" stroke="#63b8ff" points="202.79,-127.5 212.79,-124 202.79,-120.5 202.79,-127.5"/>
</a>
</g>
</g>
<!-- Node7 -->
<g id="Node000007" class="node">
<title>Node7</title>
<g id="a_Node000007"><a xlink:href="main_8cpp.html#a0ddf1224851353fc92bfbff6f499fa97" target="_top" xlink:title=" ">
<polygon fill="white" stroke="#666666" points="37,-134 0,-134 0,-114 37,-114 37,-134"/>
<text text-anchor="middle" x="18.5" y="-120.5" font-family="Helvetica,sans-Serif" font-size="10.00">main</text>
</a>
</g>
</g>
<!-- Node6&#45;&gt;Node7 -->
<g id="edge6_Node000006_Node000007" class="edge">
<title>Node6&#45;&gt;Node7</title>
<g id="a_edge6_Node000006_Node000007"><a xlink:title=" ">
<path fill="none" stroke="#63b8ff" d="M61.91,-124C52.84,-124 44.2,-124 37.1,-124"/>
<polygon fill="#63b8ff" stroke="#63b8ff" points="61.68,-127.5 71.68,-124 61.68,-120.5 61.68,-127.5"/>
</a>
</g>
</g>
<!-- Node8&#45;&gt;Node9 -->
<g id="edge8_Node000008_Node000009" class="edge">
<title>Node8&#45;&gt;Node9</title>
<g id="a_edge8_Node000008_Node000009"><a xlink:title=" ">
<path fill="none" stroke="#63b8ff" d="M505.46,-81.16C497.07,-83.3 488.56,-85.47 480.35,-87.57"/>
<polygon fill="#63b8ff" stroke="#63b8ff" points="506.17,-84.34 514.99,-78.47 504.44,-77.55 506.17,-84.34"/>
</a>
</g>
</g>
<!-- Node9&#45;&gt;Node5 -->
<g id="edge9_Node000009_Node000005" class="edge">
<title>Node9&#45;&gt;Node5</title>
<g id="a_edge9_Node000009_Node000005"><a xlink:title=" ">
<path fill="none" stroke="#63b8ff" d="M354.18,-111.98C345.88,-113.2 337.46,-114.44 329.35,-115.64"/>
<polygon fill="#63b8ff" stroke="#63b8ff" points="354.61,-115.3 363.99,-110.38 353.59,-108.38 354.61,-115.3"/>
</a>
</g>
</g>
<!-- Node11 -->
<g id="Node000011" class="node">
<title>Node11</title>
<g id="a_Node000011"><a xlink:href="class_device_set.html#acd9efc5319ee177c97aef57f98469d0d" target="_top" xlink:title=" ">
<polygon fill="white" stroke="#666666" points="967.75,-58 864.75,-58 864.75,-38 967.75,-38 967.75,-58"/>
<text text-anchor="middle" x="916.25" y="-44.5" font-family="Helvetica,sans-Serif" font-size="10.00">DeviceSet::get_data</text>
</a>
</g>
</g>
<!-- Node10&#45;&gt;Node11 -->
<g id="edge12_Node000010_Node000011" class="edge">
<title>Node10&#45;&gt;Node11</title>
<g id="a_edge12_Node000010_Node000011"><a xlink:title=" ">
<path fill="none" stroke="#63b8ff" d="M1012.29,-48C997.27,-48 981.9,-48 968.02,-48"/>
<polygon fill="#63b8ff" stroke="#63b8ff" points="1012.13,-51.5 1022.13,-48 1012.13,-44.5 1012.13,-51.5"/>
</a>
</g>
</g>
<!-- Node12 -->
<g id="Node000012" class="node">
<title>Node12</title>
<g id="a_Node000012"><a xlink:href="class_task_manager.html#a7b3231694b87f589a6e4b9a01e67bfe9" target="_top" xlink:title=" ">
<polygon fill="white" stroke="#666666" points="809.25,-58 667.25,-58 667.25,-38 809.25,-38 809.25,-58"/>
<text text-anchor="middle" x="738.25" y="-44.5" font-family="Helvetica,sans-Serif" font-size="10.00">TaskManager::get_data_task</text>
</a>
</g>
</g>
<!-- Node11&#45;&gt;Node12 -->
<g id="edge13_Node000011_Node000012" class="edge">
<title>Node11&#45;&gt;Node12</title>
<g id="a_edge13_Node000011_Node000012"><a xlink:title=" ">
<path fill="none" stroke="#63b8ff" d="M853.7,-48C839.48,-48 824.24,-48 809.68,-48"/>
<polygon fill="#63b8ff" stroke="#63b8ff" points="853.34,-51.5 863.34,-48 853.34,-44.5 853.34,-51.5"/>
</a>
</g>
</g>
<!-- Node14 -->
<g id="Node000014" class="node">
<title>Node14</title>
<g id="a_Node000014"><a xlink:href="class_task_manager.html#afa8af16e4cb8afaee8d3ffb5a16acdb5" target="_top" xlink:title=" ">
<polygon fill="white" stroke="#666666" points="987.25,-138 845.25,-138 845.25,-118 987.25,-118 987.25,-138"/>
<text text-anchor="middle" x="916.25" y="-124.5" font-family="Helvetica,sans-Serif" font-size="10.00">TaskManager::set_path_task</text>
</a>
</g>
</g>
<!-- Node13&#45;&gt;Node14 -->
<g id="edge15_Node000013_Node000014" class="edge">
<title>Node13&#45;&gt;Node14</title>
<g id="a_edge15_Node000013_Node000014"><a xlink:title=" ">
<path fill="none" stroke="#63b8ff" d="M1022.5,-129.22C1011.01,-129.09 999.05,-128.95 987.48,-128.81"/>
<polygon fill="#63b8ff" stroke="#63b8ff" points="1022.31,-132.73 1032.35,-129.35 1022.39,-125.73 1022.31,-132.73"/>
</a>
</g>
</g>
<!-- Node14&#45;&gt;Node4 -->
<g id="edge16_Node000014_Node000004" class="edge">
<title>Node14&#45;&gt;Node4</title>
<g id="a_edge16_Node000014_Node000004"><a xlink:title=" ">
<path fill="none" stroke="#63b8ff" d="M834,-118.77C825.32,-117.78 816.54,-116.78 808.02,-115.82"/>
<polygon fill="#63b8ff" stroke="#63b8ff" points="833.6,-122.36 843.93,-120.01 834.39,-115.4 833.6,-122.36"/>
</a>
</g>
</g>
</g>
</svg>

<g id="navigator" transform="translate(0 0)" fill="#404254">
  <rect fill="#f2f5e9" fill-opacity="0.5" stroke="#606060" stroke-width=".5" x="0" y="0" width="60" height="60"/>
  <use id="zoomplus" xlink:href="#zoomPlus" x="17" y="9" onmousedown="handleZoom(evt,'in')"/>
  <use id="zoomminus" xlink:href="#zoomMin" x="42" y="9" onmousedown="handleZoom(evt,'out')"/>
  <use id="reset" xlink:href="#resetDef" x="30" y="36" onmousedown="handleReset()"/>
   <use id="arrowup" xlink:href="#arrowUp" x="0" y="0" onmousedown="handlePan(0,-1)"/>
  <use id="arrowright" xlink:href="#arrowRight" x="0" y="0" onmousedown="handlePan(1,0)"/>
  <use id="arrowdown" xlink:href="#arrowDown" x="0" y="0" onmousedown="handlePan(0,1)"/>
  <use id="arrowleft" xlink:href="#arrowLeft" x="0" y="0" onmousedown="handlePan(-1,0)"/>
</g>
<svg viewBox="0 0 15 15" width="100%" height="30px" preserveAspectRatio="xMaxYMin meet">
 <g id="arrow_out" transform="scale(0.3 0.3)">
  <a xlink:href="class_visa_device_aa53bc03ce9be2af514335565d585414e_icgraph_org.svg" target="_base">
   <rect id="button" ry="5" rx="5" y="6" x="6" height="38" width="38"
        fill="#f2f5e9" fill-opacity="0.5" stroke="#606060" stroke-width="1.0"/>
   <path id="arrow"
     d="M 11.500037,31.436501 C 11.940474,20.09759 22.043105,11.32322 32.158766,21.979434 L 37.068811,17.246167 C 37.068811,17.246167 37.088388,32 37.088388,32 L 22.160133,31.978069 C 22.160133,31.978069 26.997745,27.140456 26.997745,27.140456 C 18.528582,18.264221 13.291696,25.230495 11.500037,31.436501 z"
     style="fill:#404040;"/>
  </a>
 </g>
</svg>

<style type='text/css'>
<![CDATA[
[data-mouse-over-selected='false'] { opacity: 0.7; }
[data-mouse-over-selected='true']  { opacity: 1.0; }
]]>
</style>
<script type="application/ecmascript"><![CDATA[
document.addEventListener('DOMContentLoaded', (event) => {
  highlightEdges();
  highlightAdjacentNodes();
});
]]></script>
</svg>
