<?xml version="1.0" encoding="UTF-8" standalone="no"?>
<!DOCTYPE svg PUBLIC "-//W3C//DTD SVG 1.1//EN"
 "http://www.w3.org/Graphics/SVG/1.1/DTD/svg11.dtd">
<!-- Generated by graphviz version 8.0.5 (20230430.1635)
 -->
<!-- Title: VisaDevice::connect Pages: 1 -->
<svg width="371pt" height="142pt"
 viewBox="0.00 0.00 371.00 142.00" xmlns="http://www.w3.org/2000/svg" xmlns:xlink="http://www.w3.org/1999/xlink">
<g id="graph0" class="graph" transform="scale(1 1) rotate(0) translate(4 138)">
<title>VisaDevice::connect</title>
<!-- Node1 -->
<g id="Node000001" class="node">
<title>Node1</title>
<g id="a_Node000001"><a xlink:title=" ">
<polygon fill="#999999" stroke="#666666" points="104.5,-77 0,-77 0,-57 104.5,-57 104.5,-77"/>
<text text-anchor="middle" x="52.25" y="-63.5" font-family="Helvetica,sans-Serif" font-size="10.00">VisaDevice::connect</text>
</a>
</g>
</g>
<!-- Node2 -->
<g id="Node000002" class="node">
<title>Node2</title>
<g id="a_Node000002"><a xlink:href="class_logger.html#af7709105c2708359b7b082218f4cc3e1" target="_top" xlink:title="Функция, осуществляющая логирование">
<polygon fill="white" stroke="#666666" points="204.5,-77 140.5,-77 140.5,-57 204.5,-57 204.5,-77"/>
<text text-anchor="middle" x="172.5" y="-63.5" font-family="Helvetica,sans-Serif" font-size="10.00">Logger::log</text>
</a>
</g>
</g>
<!-- Node1&#45;&gt;Node2 -->
<g id="edge1_Node000001_Node000002" class="edge">
<title>Node1&#45;&gt;Node2</title>
<g id="a_edge1_Node000001_Node000002"><a xlink:title=" ">
<path fill="none" stroke="#63b8ff" d="M104.77,-67C112.98,-67 121.38,-67 129.34,-67"/>
<polygon fill="#63b8ff" stroke="#63b8ff" points="129.23,-70.5 139.23,-67 129.23,-63.5 129.23,-70.5"/>
</a>
</g>
</g>
<!-- Node3 -->
<g id="Node000003" class="node">
<title>Node3</title>
<g id="a_Node000003"><a xlink:href="logger_8hpp.html#a49284b7befa8e31f81e01ee8f3735dd0" target="_top" xlink:title="Функция, которая снимает значение текущего времени и конвертирует его в строку с заданным шаблоном.">
<polygon fill="white" stroke="#666666" points="346.12,-134 257.38,-134 257.38,-114 346.12,-114 346.12,-134"/>
<text text-anchor="middle" x="301.75" y="-120.5" font-family="Helvetica,sans-Serif" font-size="10.00">get_current_time</text>
</a>
</g>
</g>
<!-- Node2&#45;&gt;Node3 -->
<g id="edge2_Node000002_Node000003" class="edge">
<title>Node2&#45;&gt;Node3</title>
<g id="a_edge2_Node000002_Node000003"><a xlink:title=" ">
<path fill="none" stroke="#63b8ff" d="M189.52,-77.36C202.8,-85.63 222.35,-97.1 240.5,-105 244.57,-106.77 248.86,-108.46 253.2,-110.05"/>
<polygon fill="#63b8ff" stroke="#63b8ff" points="251.74,-113.59 262.34,-113.55 254.03,-106.97 251.74,-113.59"/>
</a>
</g>
</g>
<!-- Node4 -->
<g id="Node000004" class="node">
<title>Node4</title>
<g id="a_Node000004"><a xlink:href="class_logger.html#a6edb7b263f080d417b82a537ed50fee4" target="_top" xlink:title="Функция, возвращающая тег в зависимости от уровня логирования и от назначения тега.">
<polygon fill="white" stroke="#666666" points="343.5,-96 260,-96 260,-76 343.5,-76 343.5,-96"/>
<text text-anchor="middle" x="301.75" y="-82.5" font-family="Helvetica,sans-Serif" font-size="10.00">Logger::get_tag</text>
</a>
</g>
</g>
<!-- Node2&#45;&gt;Node4 -->
<g id="edge3_Node000002_Node000004" class="edge">
<title>Node2&#45;&gt;Node4</title>
<g id="a_edge3_Node000002_Node000004"><a xlink:title=" ">
<path fill="none" stroke="#63b8ff" d="M204.96,-71.7C218.22,-73.68 234.02,-76.04 248.92,-78.26"/>
<polygon fill="#63b8ff" stroke="#63b8ff" points="248.16,-81.84 258.57,-79.85 249.19,-74.91 248.16,-81.84"/>
</a>
</g>
</g>
<!-- Node5 -->
<g id="Node000005" class="node">
<title>Node5</title>
<g id="a_Node000005"><a xlink:href="class_logger.html#a4825613142ebb093bf8fa26f21f7f3fc" target="_top" xlink:title="Функция, которая выводит сообщение в консоль.">
<polygon fill="white" stroke="#666666" points="363,-58 240.5,-58 240.5,-38 363,-38 363,-58"/>
<text text-anchor="middle" x="301.75" y="-44.5" font-family="Helvetica,sans-Serif" font-size="10.00">Logger::print_to_console</text>
</a>
</g>
</g>
<!-- Node2&#45;&gt;Node5 -->
<g id="edge4_Node000002_Node000005" class="edge">
<title>Node2&#45;&gt;Node5</title>
<g id="a_edge4_Node000002_Node000005"><a xlink:title=" ">
<path fill="none" stroke="#63b8ff" d="M204.96,-62.3C212.46,-61.18 220.77,-59.94 229.28,-58.67"/>
<polygon fill="#63b8ff" stroke="#63b8ff" points="229.73,-61.99 239.1,-57.06 228.69,-55.07 229.73,-61.99"/>
</a>
</g>
</g>
<!-- Node6 -->
<g id="Node000006" class="node">
<title>Node6</title>
<g id="a_Node000006"><a xlink:href="class_logger.html#a999bb33f7cf079cb98f32fae6016a2f3" target="_top" xlink:title="Функция, которая записывает сообщение в файл.">
<polygon fill="white" stroke="#666666" points="352.12,-20 251.38,-20 251.38,0 352.12,0 352.12,-20"/>
<text text-anchor="middle" x="301.75" y="-6.5" font-family="Helvetica,sans-Serif" font-size="10.00">Logger::print_to_file</text>
</a>
</g>
</g>
<!-- Node2&#45;&gt;Node6 -->
<g id="edge5_Node000002_Node000006" class="edge">
<title>Node2&#45;&gt;Node6</title>
<g id="a_edge5_Node000002_Node000006"><a xlink:title=" ">
<path fill="none" stroke="#63b8ff" d="M189.52,-56.64C202.8,-48.37 222.35,-36.9 240.5,-29 244.57,-27.23 248.86,-25.54 253.2,-23.95"/>
<polygon fill="#63b8ff" stroke="#63b8ff" points="254.03,-27.03 262.34,-20.45 251.74,-20.41 254.03,-27.03"/>
</a>
</g>
</g>
</g>
</svg>
