<?xml version="1.0" encoding="UTF-8" standalone="no"?>
<!DOCTYPE svg PUBLIC "-//W3C//DTD SVG 1.1//EN"
 "http://www.w3.org/Graphics/SVG/1.1/DTD/svg11.dtd">
<!-- Generated by graphviz version 8.0.5 (20230430.1635)
 -->
<!-- Title: DeviceSet::request_stop Pages: 1 -->
<svg width="517pt" height="66pt"
 viewBox="0.00 0.00 516.75 66.00" xmlns="http://www.w3.org/2000/svg" xmlns:xlink="http://www.w3.org/1999/xlink">
<g id="graph0" class="graph" transform="scale(1 1) rotate(0) translate(4 62)">
<title>DeviceSet::request_stop</title>
<!-- Node1 -->
<g id="Node000001" class="node">
<title>Node1</title>
<g id="a_Node000001"><a xlink:title=" ">
<polygon fill="#999999" stroke="#666666" points="508.75,-39 387,-39 387,-19 508.75,-19 508.75,-39"/>
<text text-anchor="middle" x="447.88" y="-25.5" font-family="Helvetica,sans-Serif" font-size="10.00">DeviceSet::request_stop</text>
</a>
</g>
</g>
<!-- Node2 -->
<g id="Node000002" class="node">
<title>Node2</title>
<g id="a_Node000002"><a xlink:href="class_task_manager.html#a601272b5c895a310aec3d430b19c6258" target="_top" xlink:title=" ">
<polygon fill="white" stroke="#666666" points="351,-39 214.25,-39 214.25,-19 351,-19 351,-39"/>
<text text-anchor="middle" x="282.62" y="-25.5" font-family="Helvetica,sans-Serif" font-size="10.00">TaskManager::request_stop</text>
</a>
</g>
</g>
<!-- Node1&#45;&gt;Node2 -->
<g id="edge1_Node000001_Node000002" class="edge">
<title>Node1&#45;&gt;Node2</title>
<g id="a_edge1_Node000001_Node000002"><a xlink:title=" ">
<path fill="none" stroke="#63b8ff" d="M375.68,-29C367.62,-29 359.42,-29 351.4,-29"/>
<polygon fill="#63b8ff" stroke="#63b8ff" points="375.55,-32.5 385.55,-29 375.55,-25.5 375.55,-32.5"/>
</a>
</g>
</g>
<!-- Node3 -->
<g id="Node000003" class="node">
<title>Node3</title>
<g id="a_Node000003"><a xlink:href="main_8cpp.html#a35d7de01106a848cf8a5b3d494b40062" target="_top" xlink:title=" ">
<polygon fill="white" stroke="#666666" points="173.75,-58 77.5,-58 77.5,-38 173.75,-38 173.75,-58"/>
<text text-anchor="middle" x="125.62" y="-44.5" font-family="Helvetica,sans-Serif" font-size="10.00">exit_event_handler</text>
</a>
</g>
</g>
<!-- Node2&#45;&gt;Node3 -->
<g id="edge2_Node000002_Node000003" class="edge">
<title>Node2&#45;&gt;Node3</title>
<g id="a_edge2_Node000002_Node000003"><a xlink:title=" ">
<path fill="none" stroke="#63b8ff" d="M203.24,-38.61C193.22,-39.84 183.23,-41.06 173.92,-42.2"/>
<polygon fill="#63b8ff" stroke="#63b8ff" points="203.59,-41.97 213.09,-37.28 202.74,-35.02 203.59,-41.97"/>
</a>
</g>
</g>
<!-- Node5 -->
<g id="Node000005" class="node">
<title>Node5</title>
<g id="a_Node000005"><a xlink:href="main_8cpp.html#aef72d10ff26fe620d5f0a0f8412d7a2b" target="_top" xlink:title=" ">
<polygon fill="white" stroke="#666666" points="178.25,-20 73,-20 73,0 178.25,0 178.25,-20"/>
<text text-anchor="middle" x="125.62" y="-6.5" font-family="Helvetica,sans-Serif" font-size="10.00">task_server_thread_f</text>
</a>
</g>
</g>
<!-- Node2&#45;&gt;Node5 -->
<g id="edge4_Node000002_Node000005" class="edge">
<title>Node2&#45;&gt;Node5</title>
<g id="a_edge4_Node000002_Node000005"><a xlink:title=" ">
<path fill="none" stroke="#63b8ff" d="M203.43,-19.41C194.99,-18.38 186.57,-17.35 178.55,-16.37"/>
<polygon fill="#63b8ff" stroke="#63b8ff" points="202.74,-22.98 213.09,-20.72 203.59,-16.03 202.74,-22.98"/>
</a>
</g>
</g>
<!-- Node4 -->
<g id="Node000004" class="node">
<title>Node4</title>
<g id="a_Node000004"><a xlink:href="main_8cpp.html#a0ddf1224851353fc92bfbff6f499fa97" target="_top" xlink:title=" ">
<polygon fill="white" stroke="#666666" points="37,-39 0,-39 0,-19 37,-19 37,-39"/>
<text text-anchor="middle" x="18.5" y="-25.5" font-family="Helvetica,sans-Serif" font-size="10.00">main</text>
</a>
</g>
</g>
<!-- Node3&#45;&gt;Node4 -->
<g id="edge3_Node000003_Node000004" class="edge">
<title>Node3&#45;&gt;Node4</title>
<g id="a_edge3_Node000003_Node000004"><a xlink:title=" ">
<path fill="none" stroke="#63b8ff" d="M66.63,-37.52C56.01,-35.6 45.69,-33.73 37.42,-32.24"/>
<polygon fill="#63b8ff" stroke="#63b8ff" points="65.83,-41.11 76.29,-39.44 67.07,-34.22 65.83,-41.11"/>
</a>
</g>
</g>
<!-- Node5&#45;&gt;Node4 -->
<g id="edge5_Node000005_Node000004" class="edge">
<title>Node5&#45;&gt;Node4</title>
<g id="a_edge5_Node000005_Node000004"><a xlink:title=" ">
<path fill="none" stroke="#63b8ff" d="M61.91,-21.33C52.84,-22.97 44.2,-24.54 37.1,-25.82"/>
<polygon fill="#63b8ff" stroke="#63b8ff" points="62.46,-24.61 71.68,-19.39 61.22,-17.72 62.46,-24.61"/>
</a>
</g>
</g>
</g>
</svg>
