<?xml version="1.0" encoding="UTF-8" standalone="no"?>
<!DOCTYPE svg PUBLIC "-//W3C//DTD SVG 1.1//EN"
 "http://www.w3.org/Graphics/SVG/1.1/DTD/svg11.dtd">
<!-- Generated by graphviz version 8.0.5 (20230430.1635)
 -->
<!-- Title: RbdDevice::move_to_start_angle Pages: 1 -->
<svg width="1250pt" height="94pt"
 viewBox="0.00 0.00 1250.00 94.00" xmlns="http://www.w3.org/2000/svg" xmlns:xlink="http://www.w3.org/1999/xlink">
<g id="graph0" class="graph" transform="scale(1 1) rotate(0) translate(4 90)">
<title>RbdDevice::move_to_start_angle</title>
<!-- Node1 -->
<g id="Node000001" class="node">
<title>Node1</title>
<g id="a_Node000001"><a xlink:title=" ">
<polygon fill="#999999" stroke="#666666" points="1242,-64 1138.25,-64 1138.25,-32 1242,-32 1242,-64"/>
<text text-anchor="start" x="1146.25" y="-50.5" font-family="Helvetica,sans-Serif" font-size="10.00">RbdDevice::move_to</text>
<text text-anchor="middle" x="1190.12" y="-38.5" font-family="Helvetica,sans-Serif" font-size="10.00">_start_angle</text>
</a>
</g>
</g>
<!-- Node2 -->
<g id="Node000002" class="node">
<title>Node2</title>
<g id="a_Node000002"><a xlink:href="class_device_set.html#a42484914aabe91a0d030557db440fab0" target="_top" xlink:title="Устанавливает угловую точку, соответствующую началу диапазона.">
<polygon fill="white" stroke="#666666" points="1102.25,-64 1000.75,-64 1000.75,-32 1102.25,-32 1102.25,-64"/>
<text text-anchor="start" x="1008.75" y="-50.5" font-family="Helvetica,sans-Serif" font-size="10.00">DeviceSet::move_to</text>
<text text-anchor="middle" x="1051.5" y="-38.5" font-family="Helvetica,sans-Serif" font-size="10.00">_start_angle</text>
</a>
</g>
</g>
<!-- Node1&#45;&gt;Node2 -->
<g id="edge1_Node000001_Node000002" class="edge">
<title>Node1&#45;&gt;Node2</title>
<g id="a_edge1_Node000001_Node000002"><a xlink:title=" ">
<path fill="none" stroke="#63b8ff" d="M1126.91,-48C1118.8,-48 1110.57,-48 1102.69,-48"/>
<polygon fill="#63b8ff" stroke="#63b8ff" points="1126.86,-51.5 1136.86,-48 1126.86,-44.5 1126.86,-51.5"/>
</a>
</g>
</g>
<!-- Node3 -->
<g id="Node000003" class="node">
<title>Node3</title>
<g id="a_Node000003"><a xlink:href="class_task_manager.html#ad9d635ee64d44cc34b619f2e3018e9d1" target="_top" xlink:title=" ">
<polygon fill="white" stroke="#666666" points="631.25,-86 516.25,-86 516.25,-54 631.25,-54 631.25,-86"/>
<text text-anchor="start" x="524.25" y="-72.5" font-family="Helvetica,sans-Serif" font-size="10.00">TaskManager::proceed</text>
<text text-anchor="middle" x="573.75" y="-60.5" font-family="Helvetica,sans-Serif" font-size="10.00">_nested_task_list</text>
</a>
</g>
</g>
<!-- Node2&#45;&gt;Node3 -->
<g id="edge2_Node000002_Node000003" class="edge">
<title>Node2&#45;&gt;Node3</title>
<g id="a_edge2_Node000002_Node000003"><a xlink:title=" ">
<path fill="none" stroke="#63b8ff" d="M989.6,-50.82C896.87,-55.1 721.56,-63.21 631.42,-67.38"/>
<polygon fill="#63b8ff" stroke="#63b8ff" points="989.66,-54.27 999.49,-50.31 989.33,-47.28 989.66,-54.27"/>
</a>
</g>
</g>
<!-- Node8 -->
<g id="Node000008" class="node">
<title>Node8</title>
<g id="a_Node000008"><a xlink:href="class_task_manager.html#aa9dd8d653be63d6f9834fb96057d50a1" target="_top" xlink:title=" ">
<polygon fill="white" stroke="#666666" points="964.75,-42 842.25,-42 842.25,-10 964.75,-10 964.75,-42"/>
<text text-anchor="start" x="850.25" y="-28.5" font-family="Helvetica,sans-Serif" font-size="10.00">TaskManager::set_angle</text>
<text text-anchor="middle" x="903.5" y="-16.5" font-family="Helvetica,sans-Serif" font-size="10.00">_range_task</text>
</a>
</g>
</g>
<!-- Node2&#45;&gt;Node8 -->
<g id="edge7_Node000002_Node000008" class="edge">
<title>Node2&#45;&gt;Node8</title>
<g id="a_edge7_Node000002_Node000008"><a xlink:title=" ">
<path fill="none" stroke="#63b8ff" d="M989.46,-38.8C981.43,-37.59 973.2,-36.35 965.17,-35.14"/>
<polygon fill="#63b8ff" stroke="#63b8ff" points="988.85,-42.4 999.26,-40.43 989.89,-35.48 988.85,-42.4"/>
</a>
</g>
</g>
<!-- Node4 -->
<g id="Node000004" class="node">
<title>Node4</title>
<g id="a_Node000004"><a xlink:href="class_task_manager.html#a4b629612e2a111fdcc964c4eb3f8b1f4" target="_top" xlink:title=" ">
<polygon fill="white" stroke="#666666" points="480.25,-48 365.25,-48 365.25,-16 480.25,-16 480.25,-48"/>
<text text-anchor="start" x="373.25" y="-34.5" font-family="Helvetica,sans-Serif" font-size="10.00">TaskManager::proceed</text>
<text text-anchor="middle" x="422.75" y="-22.5" font-family="Helvetica,sans-Serif" font-size="10.00">_task_list</text>
</a>
</g>
</g>
<!-- Node3&#45;&gt;Node4 -->
<g id="edge3_Node000003_Node000004" class="edge">
<title>Node3&#45;&gt;Node4</title>
<g id="a_edge3_Node000003_Node000004"><a xlink:title=" ">
<path fill="none" stroke="#63b8ff" d="M505.46,-52.84C497.07,-50.7 488.56,-48.53 480.35,-46.43"/>
<polygon fill="#63b8ff" stroke="#63b8ff" points="504.44,-56.45 514.99,-55.53 506.17,-49.66 504.44,-56.45"/>
</a>
</g>
</g>
<!-- Node5 -->
<g id="Node000005" class="node">
<title>Node5</title>
<g id="a_Node000005"><a xlink:href="class_task_manager.html#a62720d3b2e70353688122cf2b706b3ce" target="_top" xlink:title=" ">
<polygon fill="white" stroke="#666666" points="329.25,-20 214.25,-20 214.25,0 329.25,0 329.25,-20"/>
<text text-anchor="middle" x="271.75" y="-6.5" font-family="Helvetica,sans-Serif" font-size="10.00">TaskManager::proceed</text>
</a>
</g>
</g>
<!-- Node4&#45;&gt;Node5 -->
<g id="edge4_Node000004_Node000005" class="edge">
<title>Node4&#45;&gt;Node5</title>
<g id="a_edge4_Node000004_Node000005"><a xlink:title=" ">
<path fill="none" stroke="#63b8ff" d="M354.18,-22.02C345.88,-20.8 337.46,-19.56 329.35,-18.36"/>
<polygon fill="#63b8ff" stroke="#63b8ff" points="353.59,-25.62 363.99,-23.62 354.61,-18.7 353.59,-25.62"/>
</a>
</g>
</g>
<!-- Node6 -->
<g id="Node000006" class="node">
<title>Node6</title>
<g id="a_Node000006"><a xlink:href="main_8cpp.html#a205c0f32d26b6f27c711fa201d02c983" target="_top" xlink:title=" ">
<polygon fill="white" stroke="#666666" points="178.25,-20 73,-20 73,0 178.25,0 178.25,-20"/>
<text text-anchor="middle" x="125.62" y="-6.5" font-family="Helvetica,sans-Serif" font-size="10.00">data_server_thread_f</text>
</a>
</g>
</g>
<!-- Node5&#45;&gt;Node6 -->
<g id="edge5_Node000005_Node000006" class="edge">
<title>Node5&#45;&gt;Node6</title>
<g id="a_edge5_Node000005_Node000006"><a xlink:title=" ">
<path fill="none" stroke="#63b8ff" d="M203.03,-10C194.78,-10 186.46,-10 178.49,-10"/>
<polygon fill="#63b8ff" stroke="#63b8ff" points="202.79,-13.5 212.79,-10 202.79,-6.5 202.79,-13.5"/>
</a>
</g>
</g>
<!-- Node7 -->
<g id="Node000007" class="node">
<title>Node7</title>
<g id="a_Node000007"><a xlink:href="main_8cpp.html#a0ddf1224851353fc92bfbff6f499fa97" target="_top" xlink:title=" ">
<polygon fill="white" stroke="#666666" points="37,-20 0,-20 0,0 37,0 37,-20"/>
<text text-anchor="middle" x="18.5" y="-6.5" font-family="Helvetica,sans-Serif" font-size="10.00">main</text>
</a>
</g>
</g>
<!-- Node6&#45;&gt;Node7 -->
<g id="edge6_Node000006_Node000007" class="edge">
<title>Node6&#45;&gt;Node7</title>
<g id="a_edge6_Node000006_Node000007"><a xlink:title=" ">
<path fill="none" stroke="#63b8ff" d="M61.91,-10C52.84,-10 44.2,-10 37.1,-10"/>
<polygon fill="#63b8ff" stroke="#63b8ff" points="61.68,-13.5 71.68,-10 61.68,-6.5 61.68,-13.5"/>
</a>
</g>
</g>
<!-- Node9 -->
<g id="Node000009" class="node">
<title>Node9</title>
<g id="a_Node000009"><a xlink:href="class_task_manager.html#abf6a739a56cdc1bdf2cd71666c6f31be" target="_top" xlink:title=" ">
<polygon fill="white" stroke="#666666" points="806.25,-36 667.25,-36 667.25,-16 806.25,-16 806.25,-36"/>
<text text-anchor="middle" x="736.75" y="-22.5" font-family="Helvetica,sans-Serif" font-size="10.00">TaskManager::proceed_task</text>
</a>
</g>
</g>
<!-- Node8&#45;&gt;Node9 -->
<g id="edge8_Node000008_Node000009" class="edge">
<title>Node8&#45;&gt;Node9</title>
<g id="a_edge8_Node000008_Node000009"><a xlink:title=" ">
<path fill="none" stroke="#63b8ff" d="M831.37,-26C823.12,-26 814.72,-26 806.51,-26"/>
<polygon fill="#63b8ff" stroke="#63b8ff" points="831.09,-29.5 841.09,-26 831.09,-22.5 831.09,-29.5"/>
</a>
</g>
</g>
<!-- Node9&#45;&gt;Node3 -->
<g id="edge10_Node000009_Node000003" class="edge">
<title>Node9&#45;&gt;Node3</title>
<g id="a_edge10_Node000009_Node000003"><a xlink:title=" ">
<path fill="none" stroke="#63b8ff" d="M687.05,-39.31C669.55,-44.09 649.67,-49.52 631.55,-54.48"/>
<polygon fill="#63b8ff" stroke="#63b8ff" points="687.87,-42.44 696.6,-36.43 686.03,-35.69 687.87,-42.44"/>
</a>
</g>
</g>
<!-- Node9&#45;&gt;Node4 -->
<g id="edge11_Node000009_Node000004" class="edge">
<title>Node9&#45;&gt;Node4</title>
<g id="a_edge11_Node000009_Node000004"><a xlink:title=" ">
<path fill="none" stroke="#63b8ff" d="M656.17,-27.53C601.36,-28.58 529.84,-29.96 480.69,-30.91"/>
<polygon fill="#63b8ff" stroke="#63b8ff" points="655.96,-31.02 665.89,-27.32 655.83,-24.02 655.96,-31.02"/>
</a>
</g>
</g>
<!-- Node9&#45;&gt;Node5 -->
<g id="edge9_Node000009_Node000005" class="edge">
<title>Node9&#45;&gt;Node5</title>
<g id="a_edge9_Node000009_Node000005"><a xlink:title=" ">
<path fill="none" stroke="#63b8ff" d="M656.15,-18.55C605.78,-14.22 539.26,-9.19 480.25,-7 429.17,-5.1 416.35,-6.17 365.25,-7 353.68,-7.19 341.31,-7.51 329.49,-7.87"/>
<polygon fill="#63b8ff" stroke="#63b8ff" points="655.7,-22.11 665.97,-19.49 656.31,-15.14 655.7,-22.11"/>
</a>
</g>
</g>
</g>
</svg>
