<?xml version="1.0" encoding="UTF-8" standalone="no"?>
<!DOCTYPE svg PUBLIC "-//W3C//DTD SVG 1.1//EN"
 "http://www.w3.org/Graphics/SVG/1.1/DTD/svg11.dtd">
<!-- Generated by graphviz version 8.0.5 (20230430.1635)
 -->
<!-- Title: KeysightGen::set_power Pages: 1 -->
<svg width="772pt" height="142pt"
 viewBox="0.00 0.00 772.25 142.00" xmlns="http://www.w3.org/2000/svg" xmlns:xlink="http://www.w3.org/1999/xlink">
<g id="graph0" class="graph" transform="scale(1 1) rotate(0) translate(4 138)">
<title>KeysightGen::set_power</title>
<!-- Node1 -->
<g id="Node000001" class="node">
<title>Node1</title>
<g id="a_Node000001"><a xlink:title=" ">
<polygon fill="#999999" stroke="#666666" points="122.5,-58 0,-58 0,-38 122.5,-38 122.5,-58"/>
<text text-anchor="middle" x="61.25" y="-44.5" font-family="Helvetica,sans-Serif" font-size="10.00">KeysightGen::set_power</text>
</a>
</g>
</g>
<!-- Node2 -->
<g id="Node000002" class="node">
<title>Node2</title>
<g id="a_Node000002"><a xlink:href="class_visa_device.html#ad659ba652605f5c983958400fde8c808" target="_top" xlink:title=" ">
<polygon fill="white" stroke="#666666" points="249.5,-58 158.5,-58 158.5,-38 249.5,-38 249.5,-58"/>
<text text-anchor="middle" x="204" y="-44.5" font-family="Helvetica,sans-Serif" font-size="10.00">VisaDevice::send</text>
</a>
</g>
</g>
<!-- Node1&#45;&gt;Node2 -->
<g id="edge1_Node000001_Node000002" class="edge">
<title>Node1&#45;&gt;Node2</title>
<g id="a_edge1_Node000001_Node000002"><a xlink:title=" ">
<path fill="none" stroke="#63b8ff" d="M122.76,-48C130.95,-48 139.33,-48 147.44,-48"/>
<polygon fill="#63b8ff" stroke="#63b8ff" points="147.27,-51.5 157.27,-48 147.27,-44.5 147.27,-51.5"/>
</a>
</g>
</g>
<!-- Node3 -->
<g id="Node000003" class="node">
<title>Node3</title>
<g id="a_Node000003"><a xlink:href="class_logger.html#af7709105c2708359b7b082218f4cc3e1" target="_top" xlink:title="Функция, осуществляющая логирование">
<polygon fill="white" stroke="#666666" points="605.75,-77 541.75,-77 541.75,-57 605.75,-57 605.75,-77"/>
<text text-anchor="middle" x="573.75" y="-63.5" font-family="Helvetica,sans-Serif" font-size="10.00">Logger::log</text>
</a>
</g>
</g>
<!-- Node2&#45;&gt;Node3 -->
<g id="edge2_Node000002_Node000003" class="edge">
<title>Node2&#45;&gt;Node3</title>
<g id="a_edge2_Node000002_Node000003"><a xlink:title=" ">
<path fill="none" stroke="#63b8ff" d="M236.83,-58.39C251.51,-62.85 269.25,-67.76 285.5,-71 381.73,-90.16 408.57,-99.51 505.75,-86 514.52,-84.78 523.75,-82.7 532.47,-80.36"/>
<polygon fill="#63b8ff" stroke="#63b8ff" points="533.13,-83.53 541.78,-77.41 531.2,-76.8 533.13,-83.53"/>
</a>
</g>
</g>
<!-- Node8 -->
<g id="Node000008" class="node">
<title>Node8</title>
<g id="a_Node000008"><a xlink:href="class_visa_device.html#aa807192fd9a8c3e6efc458f78de5e73e" target="_top" xlink:title=" ">
<polygon fill="white" stroke="#666666" points="379.5,-39 285.5,-39 285.5,-19 379.5,-19 379.5,-39"/>
<text text-anchor="middle" x="332.5" y="-25.5" font-family="Helvetica,sans-Serif" font-size="10.00">VisaDevice::query</text>
</a>
</g>
</g>
<!-- Node2&#45;&gt;Node8 -->
<g id="edge7_Node000002_Node000008" class="edge">
<title>Node2&#45;&gt;Node8</title>
<g id="a_edge7_Node000002_Node000008"><a xlink:title=" ">
<path fill="none" stroke="#63b8ff" d="M249.96,-41.25C257.95,-40.05 266.38,-38.78 274.66,-37.54"/>
<polygon fill="#63b8ff" stroke="#63b8ff" points="275.04,-40.87 284.41,-35.92 274,-33.95 275.04,-40.87"/>
</a>
</g>
</g>
<!-- Node9 -->
<g id="Node000009" class="node">
<title>Node9</title>
<g id="a_Node000009"><a xlink:href="class_visa_device.html#aca08d9dbb0469f1143668a485e4adfe2" target="_top" xlink:title=" ">
<polygon fill="white" stroke="#666666" points="505,-77 416.25,-77 416.25,-57 505,-57 505,-77"/>
<text text-anchor="middle" x="460.62" y="-63.5" font-family="Helvetica,sans-Serif" font-size="10.00">VisaDevice::read</text>
</a>
</g>
</g>
<!-- Node2&#45;&gt;Node9 -->
<g id="edge12_Node000002_Node000009" class="edge">
<title>Node2&#45;&gt;Node9</title>
<g id="a_edge12_Node000002_Node000009"><a xlink:title=" ">
<path fill="none" stroke="#63b8ff" d="M249.94,-51.35C293.29,-54.59 358.97,-59.49 405.25,-62.94"/>
<polygon fill="#63b8ff" stroke="#63b8ff" points="404.76,-66.49 414.99,-63.74 405.28,-59.51 404.76,-66.49"/>
</a>
</g>
</g>
<!-- Node10 -->
<g id="Node000010" class="node">
<title>Node10</title>
<g id="a_Node000010"><a xlink:href="class_visa_device.html#a29202c3f5e47326386d1d27972e25267" target="_top" xlink:title=" ">
<polygon fill="white" stroke="#666666" points="505.75,-39 415.5,-39 415.5,-19 505.75,-19 505.75,-39"/>
<text text-anchor="middle" x="460.62" y="-25.5" font-family="Helvetica,sans-Serif" font-size="10.00">VisaDevice::write</text>
</a>
</g>
</g>
<!-- Node2&#45;&gt;Node10 -->
<g id="edge13_Node000002_Node000010" class="edge">
<title>Node2&#45;&gt;Node10</title>
<g id="a_edge13_Node000002_Node000010"><a xlink:title=" ">
<path fill="none" stroke="#63b8ff" d="M221.48,-37.55C237.23,-28.23 261.97,-15.27 285.5,-10 328.66,-0.32 378.99,-7.78 414.4,-16.02"/>
<polygon fill="#63b8ff" stroke="#63b8ff" points="413.35,-19.61 423.89,-18.58 415.01,-12.81 413.35,-19.61"/>
</a>
</g>
</g>
<!-- Node4 -->
<g id="Node000004" class="node">
<title>Node4</title>
<g id="a_Node000004"><a xlink:href="logger_8hpp.html#a49284b7befa8e31f81e01ee8f3735dd0" target="_top" xlink:title="Функция, которая снимает значение текущего времени и конвертирует его в строку с заданным шаблоном.">
<polygon fill="white" stroke="#666666" points="747.38,-134 658.62,-134 658.62,-114 747.38,-114 747.38,-134"/>
<text text-anchor="middle" x="703" y="-120.5" font-family="Helvetica,sans-Serif" font-size="10.00">get_current_time</text>
</a>
</g>
</g>
<!-- Node3&#45;&gt;Node4 -->
<g id="edge3_Node000003_Node000004" class="edge">
<title>Node3&#45;&gt;Node4</title>
<g id="a_edge3_Node000003_Node000004"><a xlink:title=" ">
<path fill="none" stroke="#63b8ff" d="M590.77,-77.36C604.05,-85.63 623.6,-97.1 641.75,-105 645.82,-106.77 650.11,-108.46 654.45,-110.05"/>
<polygon fill="#63b8ff" stroke="#63b8ff" points="652.99,-113.59 663.59,-113.55 655.28,-106.97 652.99,-113.59"/>
</a>
</g>
</g>
<!-- Node5 -->
<g id="Node000005" class="node">
<title>Node5</title>
<g id="a_Node000005"><a xlink:href="class_logger.html#a6edb7b263f080d417b82a537ed50fee4" target="_top" xlink:title="Функция, возвращающая тег в зависимости от уровня логирования и от назначения тега.">
<polygon fill="white" stroke="#666666" points="744.75,-96 661.25,-96 661.25,-76 744.75,-76 744.75,-96"/>
<text text-anchor="middle" x="703" y="-82.5" font-family="Helvetica,sans-Serif" font-size="10.00">Logger::get_tag</text>
</a>
</g>
</g>
<!-- Node3&#45;&gt;Node5 -->
<g id="edge4_Node000003_Node000005" class="edge">
<title>Node3&#45;&gt;Node5</title>
<g id="a_edge4_Node000003_Node000005"><a xlink:title=" ">
<path fill="none" stroke="#63b8ff" d="M606.21,-71.7C619.47,-73.68 635.27,-76.04 650.17,-78.26"/>
<polygon fill="#63b8ff" stroke="#63b8ff" points="649.41,-81.84 659.82,-79.85 650.44,-74.91 649.41,-81.84"/>
</a>
</g>
</g>
<!-- Node6 -->
<g id="Node000006" class="node">
<title>Node6</title>
<g id="a_Node000006"><a xlink:href="class_logger.html#a4825613142ebb093bf8fa26f21f7f3fc" target="_top" xlink:title="Функция, которая выводит сообщение в консоль.">
<polygon fill="white" stroke="#666666" points="764.25,-58 641.75,-58 641.75,-38 764.25,-38 764.25,-58"/>
<text text-anchor="middle" x="703" y="-44.5" font-family="Helvetica,sans-Serif" font-size="10.00">Logger::print_to_console</text>
</a>
</g>
</g>
<!-- Node3&#45;&gt;Node6 -->
<g id="edge5_Node000003_Node000006" class="edge">
<title>Node3&#45;&gt;Node6</title>
<g id="a_edge5_Node000003_Node000006"><a xlink:title=" ">
<path fill="none" stroke="#63b8ff" d="M606.21,-62.3C613.71,-61.18 622.02,-59.94 630.53,-58.67"/>
<polygon fill="#63b8ff" stroke="#63b8ff" points="630.98,-61.99 640.35,-57.06 629.94,-55.07 630.98,-61.99"/>
</a>
</g>
</g>
<!-- Node7 -->
<g id="Node000007" class="node">
<title>Node7</title>
<g id="a_Node000007"><a xlink:href="class_logger.html#a999bb33f7cf079cb98f32fae6016a2f3" target="_top" xlink:title="Функция, которая записывает сообщение в файл.">
<polygon fill="white" stroke="#666666" points="753.38,-20 652.62,-20 652.62,0 753.38,0 753.38,-20"/>
<text text-anchor="middle" x="703" y="-6.5" font-family="Helvetica,sans-Serif" font-size="10.00">Logger::print_to_file</text>
</a>
</g>
</g>
<!-- Node3&#45;&gt;Node7 -->
<g id="edge6_Node000003_Node000007" class="edge">
<title>Node3&#45;&gt;Node7</title>
<g id="a_edge6_Node000003_Node000007"><a xlink:title=" ">
<path fill="none" stroke="#63b8ff" d="M590.77,-56.64C604.05,-48.37 623.6,-36.9 641.75,-29 645.82,-27.23 650.11,-25.54 654.45,-23.95"/>
<polygon fill="#63b8ff" stroke="#63b8ff" points="655.28,-27.03 663.59,-20.45 652.99,-20.41 655.28,-27.03"/>
</a>
</g>
</g>
<!-- Node8&#45;&gt;Node9 -->
<g id="edge8_Node000008_Node000009" class="edge">
<title>Node8&#45;&gt;Node9</title>
<g id="a_edge8_Node000008_Node000009"><a xlink:title=" ">
<path fill="none" stroke="#63b8ff" d="M368.3,-39.48C382.63,-43.8 399.43,-48.86 414.68,-53.46"/>
<polygon fill="#63b8ff" stroke="#63b8ff" points="413.36,-57.02 423.94,-56.55 415.38,-50.31 413.36,-57.02"/>
</a>
</g>
</g>
<!-- Node8&#45;&gt;Node10 -->
<g id="edge10_Node000008_Node000010" class="edge">
<title>Node8&#45;&gt;Node10</title>
<g id="a_edge10_Node000008_Node000010"><a xlink:title=" ">
<path fill="none" stroke="#63b8ff" d="M379.75,-29C387.67,-29 395.98,-29 404.12,-29"/>
<polygon fill="#63b8ff" stroke="#63b8ff" points="404.06,-32.5 414.06,-29 404.06,-25.5 404.06,-32.5"/>
</a>
</g>
</g>
<!-- Node9&#45;&gt;Node3 -->
<g id="edge9_Node000009_Node000003" class="edge">
<title>Node9&#45;&gt;Node3</title>
<g id="a_edge9_Node000009_Node000003"><a xlink:title=" ">
<path fill="none" stroke="#63b8ff" d="M505.23,-67C513.5,-67 522.15,-67 530.39,-67"/>
<polygon fill="#63b8ff" stroke="#63b8ff" points="530.29,-70.5 540.29,-67 530.29,-63.5 530.29,-70.5"/>
</a>
</g>
</g>
<!-- Node10&#45;&gt;Node3 -->
<g id="edge11_Node000010_Node000003" class="edge">
<title>Node10&#45;&gt;Node3</title>
<g id="a_edge11_Node000010_Node000003"><a xlink:title=" ">
<path fill="none" stroke="#63b8ff" d="M492.28,-39.48C504.55,-43.68 518.86,-48.57 531.98,-53.06"/>
<polygon fill="#63b8ff" stroke="#63b8ff" points="530.6,-56.63 541.19,-56.55 532.86,-50 530.6,-56.63"/>
</a>
</g>
</g>
</g>
</svg>
