<?xml version="1.0" encoding="UTF-8" standalone="no"?>
<!DOCTYPE svg PUBLIC "-//W3C//DTD SVG 1.1//EN"
 "http://www.w3.org/Graphics/SVG/1.1/DTD/svg11.dtd">
<!-- Generated by graphviz version 8.0.5 (20230430.1635)
 -->
<!-- Title: GenDevice::next_freq Pages: 1 -->
<svg width="1105pt" height="40pt"
 viewBox="0.00 0.00 1105.00 40.00" xmlns="http://www.w3.org/2000/svg" xmlns:xlink="http://www.w3.org/1999/xlink">
<g id="graph0" class="graph" transform="scale(1 1) rotate(0) translate(4 36)">
<title>GenDevice::next_freq</title>
<!-- Node1 -->
<g id="Node000001" class="node">
<title>Node1</title>
<g id="a_Node000001"><a xlink:title="Переход к следующей частотной точке">
<polygon fill="#999999" stroke="#666666" points="1097,-26 988.75,-26 988.75,-6 1097,-6 1097,-26"/>
<text text-anchor="middle" x="1042.88" y="-12.5" font-family="Helvetica,sans-Serif" font-size="10.00">GenDevice::next_freq</text>
</a>
</g>
</g>
<!-- Node2 -->
<g id="Node000002" class="node">
<title>Node2</title>
<g id="a_Node000002"><a xlink:href="class_device_set.html#a9ae5fb89aa8b4913a362c4ad12be1bf3" target="_top" xlink:title="Переход к следующей частотной точке">
<polygon fill="white" stroke="#666666" points="952.75,-26 847.5,-26 847.5,-6 952.75,-6 952.75,-26"/>
<text text-anchor="middle" x="900.12" y="-12.5" font-family="Helvetica,sans-Serif" font-size="10.00">DeviceSet::next_freq</text>
</a>
</g>
</g>
<!-- Node1&#45;&gt;Node2 -->
<g id="edge1_Node000001_Node000002" class="edge">
<title>Node1&#45;&gt;Node2</title>
<g id="a_edge1_Node000001_Node000002"><a xlink:title=" ">
<path fill="none" stroke="#63b8ff" d="M977.34,-16C969.25,-16 961.06,-16 953.19,-16"/>
<polygon fill="#63b8ff" stroke="#63b8ff" points="977.26,-19.5 987.26,-16 977.26,-12.5 977.26,-19.5"/>
</a>
</g>
</g>
<!-- Node3 -->
<g id="Node000003" class="node">
<title>Node3</title>
<g id="a_Node000003"><a xlink:href="class_task_manager.html#a2fde49fc27ecd21717c7deefe4b09dd3" target="_top" xlink:title="Метод, обрабатывающий задание на сдвиг частотной точки">
<polygon fill="white" stroke="#666666" points="811.5,-26 667.25,-26 667.25,-6 811.5,-6 811.5,-26"/>
<text text-anchor="middle" x="739.38" y="-12.5" font-family="Helvetica,sans-Serif" font-size="10.00">TaskManager::next_freq_task</text>
</a>
</g>
</g>
<!-- Node2&#45;&gt;Node3 -->
<g id="edge2_Node000002_Node000003" class="edge">
<title>Node2&#45;&gt;Node3</title>
<g id="a_edge2_Node000002_Node000003"><a xlink:title=" ">
<path fill="none" stroke="#63b8ff" d="M836.33,-16C828.27,-16 819.97,-16 811.79,-16"/>
<polygon fill="#63b8ff" stroke="#63b8ff" points="836.14,-19.5 846.14,-16 836.14,-12.5 836.14,-19.5"/>
</a>
</g>
</g>
<!-- Node4 -->
<g id="Node000004" class="node">
<title>Node4</title>
<g id="a_Node000004"><a xlink:href="class_task_manager.html#ad9d635ee64d44cc34b619f2e3018e9d1" target="_top" xlink:title="Метод, позволяющий произвести обработку списка заданий, с учётом вложенности">
<polygon fill="white" stroke="#666666" points="631.25,-32 516.25,-32 516.25,0 631.25,0 631.25,-32"/>
<text text-anchor="start" x="524.25" y="-18.5" font-family="Helvetica,sans-Serif" font-size="10.00">TaskManager::proceed</text>
<text text-anchor="middle" x="573.75" y="-6.5" font-family="Helvetica,sans-Serif" font-size="10.00">_nested_task_list</text>
</a>
</g>
</g>
<!-- Node3&#45;&gt;Node4 -->
<g id="edge3_Node000003_Node000004" class="edge">
<title>Node3&#45;&gt;Node4</title>
<g id="a_edge3_Node000003_Node000004"><a xlink:title=" ">
<path fill="none" stroke="#63b8ff" d="M656.16,-16C647.84,-16 639.52,-16 631.55,-16"/>
<polygon fill="#63b8ff" stroke="#63b8ff" points="656.08,-19.5 666.08,-16 656.08,-12.5 656.08,-19.5"/>
</a>
</g>
</g>
<!-- Node5 -->
<g id="Node000005" class="node">
<title>Node5</title>
<g id="a_Node000005"><a xlink:href="class_task_manager.html#a4b629612e2a111fdcc964c4eb3f8b1f4" target="_top" xlink:title="Метод, обрабатывающий список заданий.">
<polygon fill="white" stroke="#666666" points="480.25,-32 365.25,-32 365.25,0 480.25,0 480.25,-32"/>
<text text-anchor="start" x="373.25" y="-18.5" font-family="Helvetica,sans-Serif" font-size="10.00">TaskManager::proceed</text>
<text text-anchor="middle" x="422.75" y="-6.5" font-family="Helvetica,sans-Serif" font-size="10.00">_task_list</text>
</a>
</g>
</g>
<!-- Node4&#45;&gt;Node5 -->
<g id="edge4_Node000004_Node000005" class="edge">
<title>Node4&#45;&gt;Node5</title>
<g id="a_edge4_Node000004_Node000005"><a xlink:title=" ">
<path fill="none" stroke="#63b8ff" d="M505.18,-16C496.88,-16 488.46,-16 480.35,-16"/>
<polygon fill="#63b8ff" stroke="#63b8ff" points="504.99,-19.5 514.99,-16 504.99,-12.5 504.99,-19.5"/>
</a>
</g>
</g>
<!-- Node6 -->
<g id="Node000006" class="node">
<title>Node6</title>
<g id="a_Node000006"><a xlink:href="class_task_manager.html#a62720d3b2e70353688122cf2b706b3ce" target="_top" xlink:title="Метод, производящий обработку принятого JSON&#45;объекта">
<polygon fill="white" stroke="#666666" points="329.25,-26 214.25,-26 214.25,-6 329.25,-6 329.25,-26"/>
<text text-anchor="middle" x="271.75" y="-12.5" font-family="Helvetica,sans-Serif" font-size="10.00">TaskManager::proceed</text>
</a>
</g>
</g>
<!-- Node5&#45;&gt;Node6 -->
<g id="edge5_Node000005_Node000006" class="edge">
<title>Node5&#45;&gt;Node6</title>
<g id="a_edge5_Node000005_Node000006"><a xlink:title=" ">
<path fill="none" stroke="#63b8ff" d="M354.18,-16C345.88,-16 337.46,-16 329.35,-16"/>
<polygon fill="#63b8ff" stroke="#63b8ff" points="353.99,-19.5 363.99,-16 353.99,-12.5 353.99,-19.5"/>
</a>
</g>
</g>
<!-- Node7 -->
<g id="Node000007" class="node">
<title>Node7</title>
<g id="a_Node000007"><a xlink:href="main_8cpp.html#a205c0f32d26b6f27c711fa201d02c983" target="_top" xlink:title="Обработка принятых данных и отправка результата обработки клиенту">
<polygon fill="white" stroke="#666666" points="178.25,-26 73,-26 73,-6 178.25,-6 178.25,-26"/>
<text text-anchor="middle" x="125.62" y="-12.5" font-family="Helvetica,sans-Serif" font-size="10.00">data_server_thread_f</text>
</a>
</g>
</g>
<!-- Node6&#45;&gt;Node7 -->
<g id="edge6_Node000006_Node000007" class="edge">
<title>Node6&#45;&gt;Node7</title>
<g id="a_edge6_Node000006_Node000007"><a xlink:title=" ">
<path fill="none" stroke="#63b8ff" d="M203.03,-16C194.78,-16 186.46,-16 178.49,-16"/>
<polygon fill="#63b8ff" stroke="#63b8ff" points="202.79,-19.5 212.79,-16 202.79,-12.5 202.79,-19.5"/>
</a>
</g>
</g>
<!-- Node8 -->
<g id="Node000008" class="node">
<title>Node8</title>
<g id="a_Node000008"><a xlink:href="main_8cpp.html#a0ddf1224851353fc92bfbff6f499fa97" target="_top" xlink:title=" ">
<polygon fill="white" stroke="#666666" points="37,-26 0,-26 0,-6 37,-6 37,-26"/>
<text text-anchor="middle" x="18.5" y="-12.5" font-family="Helvetica,sans-Serif" font-size="10.00">main</text>
</a>
</g>
</g>
<!-- Node7&#45;&gt;Node8 -->
<g id="edge7_Node000007_Node000008" class="edge">
<title>Node7&#45;&gt;Node8</title>
<g id="a_edge7_Node000007_Node000008"><a xlink:title=" ">
<path fill="none" stroke="#63b8ff" d="M61.91,-16C52.84,-16 44.2,-16 37.1,-16"/>
<polygon fill="#63b8ff" stroke="#63b8ff" points="61.68,-19.5 71.68,-16 61.68,-12.5 61.68,-19.5"/>
</a>
</g>
</g>
</g>
</svg>
