<?xml version="1.0" encoding="UTF-8" standalone="no"?>
<!DOCTYPE svg PUBLIC "-//W3C//DTD SVG 1.1//EN"
 "http://www.w3.org/Graphics/SVG/1.1/DTD/svg11.dtd">
<!-- Generated by graphviz version 8.0.5 (20230430.1635)
 -->
<!-- Title: KeysightGen::move_to_start_freq Pages: 1 -->
<svg width="1037pt" height="157pt"
 viewBox="0.00 0.00 1036.75 157.40" xmlns="http://www.w3.org/2000/svg" xmlns:xlink="http://www.w3.org/1999/xlink">
<g id="graph0" class="graph" transform="scale(1 1) rotate(0) translate(4 153.4)">
<title>KeysightGen::move_to_start_freq</title>
<!-- Node1 -->
<g id="Node000001" class="node">
<title>Node1</title>
<g id="a_Node000001"><a xlink:title=" ">
<polygon fill="#999999" stroke="#666666" points="114.25,-102 0,-102 0,-70 114.25,-70 114.25,-102"/>
<text text-anchor="start" x="8" y="-88.5" font-family="Helvetica,sans-Serif" font-size="10.00">KeysightGen::move_to</text>
<text text-anchor="middle" x="57.12" y="-76.5" font-family="Helvetica,sans-Serif" font-size="10.00">_start_freq</text>
</a>
</g>
</g>
<!-- Node2 -->
<g id="Node000002" class="node">
<title>Node2</title>
<g id="a_Node000002"><a xlink:href="class_keysight_gen.html#acb44da0109ba9b90e2e0dd6dcdb552a1" target="_top" xlink:title=" ">
<polygon fill="white" stroke="#666666" points="256.25,-115 157.75,-115 157.75,-95 256.25,-95 256.25,-115"/>
<text text-anchor="middle" x="207" y="-101.5" font-family="Helvetica,sans-Serif" font-size="10.00">KeysightGen::rf_off</text>
</a>
</g>
</g>
<!-- Node1&#45;&gt;Node2 -->
<g id="edge1_Node000001_Node000002" class="edge">
<title>Node1&#45;&gt;Node2</title>
<g id="a_edge1_Node000001_Node000002"><a xlink:title=" ">
<path fill="none" stroke="#63b8ff" d="M114.45,-93.24C124.99,-94.59 136.04,-96.01 146.67,-97.38"/>
<polygon fill="#63b8ff" stroke="#63b8ff" points="146.19,-100.97 156.55,-98.78 147.08,-94.03 146.19,-100.97"/>
</a>
</g>
</g>
<!-- Node12 -->
<g id="Node000012" class="node">
<title>Node12</title>
<g id="a_Node000012"><a xlink:href="class_visa_device.html#a3744ee1e929d6c05b522693c344c76b3" target="_top" xlink:title="Отправка данных на прибор и чтение ответа от прибора. Также, ожидается завершение выполнения действий...">
<polygon fill="white" stroke="#666666" points="263.75,-77 150.25,-77 150.25,-57 263.75,-57 263.75,-77"/>
<text text-anchor="middle" x="207" y="-63.5" font-family="Helvetica,sans-Serif" font-size="10.00">VisaDevice::send_wait</text>
</a>
</g>
</g>
<!-- Node1&#45;&gt;Node12 -->
<g id="edge15_Node000001_Node000012" class="edge">
<title>Node1&#45;&gt;Node12</title>
<g id="a_edge15_Node000001_Node000012"><a xlink:title=" ">
<path fill="none" stroke="#63b8ff" d="M114.45,-78.76C122.51,-77.73 130.87,-76.65 139.1,-75.6"/>
<polygon fill="#63b8ff" stroke="#63b8ff" points="139.36,-78.96 148.83,-74.22 138.47,-72.02 139.36,-78.96"/>
</a>
</g>
</g>
<!-- Node3 -->
<g id="Node000003" class="node">
<title>Node3</title>
<g id="a_Node000003"><a xlink:href="class_visa_device.html#ad659ba652605f5c983958400fde8c808" target="_top" xlink:title="Отправка данных на прибор и чтение ответа от прибора.">
<polygon fill="white" stroke="#666666" points="514,-115 423,-115 423,-95 514,-95 514,-115"/>
<text text-anchor="middle" x="468.5" y="-101.5" font-family="Helvetica,sans-Serif" font-size="10.00">VisaDevice::send</text>
</a>
</g>
</g>
<!-- Node2&#45;&gt;Node3 -->
<g id="edge2_Node000002_Node000003" class="edge">
<title>Node2&#45;&gt;Node3</title>
<g id="a_edge2_Node000002_Node000003"><a xlink:title=" ">
<path fill="none" stroke="#63b8ff" d="M256.51,-105C300.64,-105 365.77,-105 411.97,-105"/>
<polygon fill="#63b8ff" stroke="#63b8ff" points="411.7,-108.5 421.7,-105 411.7,-101.5 411.7,-108.5"/>
</a>
</g>
</g>
<!-- Node4 -->
<g id="Node000004" class="node">
<title>Node4</title>
<g id="a_Node000004"><a xlink:href="class_logger.html#af7709105c2708359b7b082218f4cc3e1" target="_top" xlink:title="Метод, осуществляющий логирование">
<polygon fill="white" stroke="#666666" points="870.25,-77 806.25,-77 806.25,-57 870.25,-57 870.25,-77"/>
<text text-anchor="middle" x="838.25" y="-63.5" font-family="Helvetica,sans-Serif" font-size="10.00">Logger::log</text>
</a>
</g>
</g>
<!-- Node3&#45;&gt;Node4 -->
<g id="edge3_Node000003_Node000004" class="edge">
<title>Node3&#45;&gt;Node4</title>
<g id="a_edge3_Node000003_Node000004"><a xlink:title=" ">
<path fill="none" stroke="#63b8ff" d="M491.83,-115.41C507.67,-122.2 529.66,-130.45 550,-134 646.53,-150.86 679.69,-161.43 770.25,-124 790.63,-115.58 809.33,-98.53 821.77,-85.26"/>
<polygon fill="#63b8ff" stroke="#63b8ff" points="823.91,-87.99 827.99,-78.21 818.7,-83.32 823.91,-87.99"/>
</a>
</g>
</g>
<!-- Node9 -->
<g id="Node000009" class="node">
<title>Node9</title>
<g id="a_Node000009"><a xlink:href="class_visa_device.html#aa807192fd9a8c3e6efc458f78de5e73e" target="_top" xlink:title="Метод, совмещающий в себе методы write() и read().">
<polygon fill="white" stroke="#666666" points="644,-77 550,-77 550,-57 644,-57 644,-77"/>
<text text-anchor="middle" x="597" y="-63.5" font-family="Helvetica,sans-Serif" font-size="10.00">VisaDevice::query</text>
</a>
</g>
</g>
<!-- Node3&#45;&gt;Node9 -->
<g id="edge8_Node000003_Node000009" class="edge">
<title>Node3&#45;&gt;Node9</title>
<g id="a_edge8_Node000003_Node000009"><a xlink:title=" ">
<path fill="none" stroke="#63b8ff" d="M504.4,-94.52C518.78,-90.2 535.63,-85.14 550.92,-80.54"/>
<polygon fill="#63b8ff" stroke="#63b8ff" points="551.64,-83.68 560.21,-77.45 549.63,-76.98 551.64,-83.68"/>
</a>
</g>
</g>
<!-- Node10 -->
<g id="Node000010" class="node">
<title>Node10</title>
<g id="a_Node000010"><a xlink:href="class_visa_device.html#aca08d9dbb0469f1143668a485e4adfe2" target="_top" xlink:title="Метод, позволяющий считать данные с устройства">
<polygon fill="white" stroke="#666666" points="769.5,-115 680.75,-115 680.75,-95 769.5,-95 769.5,-115"/>
<text text-anchor="middle" x="725.12" y="-101.5" font-family="Helvetica,sans-Serif" font-size="10.00">VisaDevice::read</text>
</a>
</g>
</g>
<!-- Node3&#45;&gt;Node10 -->
<g id="edge13_Node000003_Node000010" class="edge">
<title>Node3&#45;&gt;Node10</title>
<g id="a_edge13_Node000003_Node000010"><a xlink:title=" ">
<path fill="none" stroke="#63b8ff" d="M514.45,-114.22C525.99,-116.2 538.41,-118 550,-119 591.62,-122.59 602.38,-122.61 644,-119 652.41,-118.27 661.26,-117.12 669.88,-115.78"/>
<polygon fill="#63b8ff" stroke="#63b8ff" points="670.34,-119.09 679.64,-114.01 669.2,-112.18 670.34,-119.09"/>
</a>
</g>
</g>
<!-- Node11 -->
<g id="Node000011" class="node">
<title>Node11</title>
<g id="a_Node000011"><a xlink:href="class_visa_device.html#a29202c3f5e47326386d1d27972e25267" target="_top" xlink:title="Метод, позволяющий отправить команду на устройство">
<polygon fill="white" stroke="#666666" points="770.25,-77 680,-77 680,-57 770.25,-57 770.25,-77"/>
<text text-anchor="middle" x="725.12" y="-63.5" font-family="Helvetica,sans-Serif" font-size="10.00">VisaDevice::write</text>
</a>
</g>
</g>
<!-- Node3&#45;&gt;Node11 -->
<g id="edge14_Node000003_Node000011" class="edge">
<title>Node3&#45;&gt;Node11</title>
<g id="a_edge14_Node000003_Node000011"><a xlink:title=" ">
<path fill="none" stroke="#63b8ff" d="M514.18,-101.68C549.56,-98.67 600.15,-93.56 644,-86 653.73,-84.32 664.03,-82.17 673.9,-79.92"/>
<polygon fill="#63b8ff" stroke="#63b8ff" points="674.45,-83.15 683.39,-77.45 672.85,-76.33 674.45,-83.15"/>
</a>
</g>
</g>
<!-- Node5 -->
<g id="Node000005" class="node">
<title>Node5</title>
<g id="a_Node000005"><a xlink:href="logger_8hpp.html#a49284b7befa8e31f81e01ee8f3735dd0" target="_top" xlink:title="Функция, которая снимает значение текущего времени и конвертирует его в строку с заданным шаблоном.">
<polygon fill="white" stroke="#666666" points="1011.88,-134 923.12,-134 923.12,-114 1011.88,-114 1011.88,-134"/>
<text text-anchor="middle" x="967.5" y="-120.5" font-family="Helvetica,sans-Serif" font-size="10.00">get_current_time</text>
</a>
</g>
</g>
<!-- Node4&#45;&gt;Node5 -->
<g id="edge4_Node000004_Node000005" class="edge">
<title>Node4&#45;&gt;Node5</title>
<g id="a_edge4_Node000004_Node000005"><a xlink:title=" ">
<path fill="none" stroke="#63b8ff" d="M855.27,-77.36C868.55,-85.63 888.1,-97.1 906.25,-105 910.32,-106.77 914.61,-108.46 918.95,-110.05"/>
<polygon fill="#63b8ff" stroke="#63b8ff" points="917.49,-113.59 928.09,-113.55 919.78,-106.97 917.49,-113.59"/>
</a>
</g>
</g>
<!-- Node6 -->
<g id="Node000006" class="node">
<title>Node6</title>
<g id="a_Node000006"><a xlink:href="class_logger.html#a6edb7b263f080d417b82a537ed50fee4" target="_top" xlink:title="Возвращает тег в зависимости от уровня логирования и от назначения тега.">
<polygon fill="white" stroke="#666666" points="1009.25,-96 925.75,-96 925.75,-76 1009.25,-76 1009.25,-96"/>
<text text-anchor="middle" x="967.5" y="-82.5" font-family="Helvetica,sans-Serif" font-size="10.00">Logger::get_tag</text>
</a>
</g>
</g>
<!-- Node4&#45;&gt;Node6 -->
<g id="edge5_Node000004_Node000006" class="edge">
<title>Node4&#45;&gt;Node6</title>
<g id="a_edge5_Node000004_Node000006"><a xlink:title=" ">
<path fill="none" stroke="#63b8ff" d="M870.71,-71.7C883.97,-73.68 899.77,-76.04 914.67,-78.26"/>
<polygon fill="#63b8ff" stroke="#63b8ff" points="913.91,-81.84 924.32,-79.85 914.94,-74.91 913.91,-81.84"/>
</a>
</g>
</g>
<!-- Node7 -->
<g id="Node000007" class="node">
<title>Node7</title>
<g id="a_Node000007"><a xlink:href="class_logger.html#a4825613142ebb093bf8fa26f21f7f3fc" target="_top" xlink:title="Метод, который выводит сообщение в консоль.">
<polygon fill="white" stroke="#666666" points="1028.75,-58 906.25,-58 906.25,-38 1028.75,-38 1028.75,-58"/>
<text text-anchor="middle" x="967.5" y="-44.5" font-family="Helvetica,sans-Serif" font-size="10.00">Logger::print_to_console</text>
</a>
</g>
</g>
<!-- Node4&#45;&gt;Node7 -->
<g id="edge6_Node000004_Node000007" class="edge">
<title>Node4&#45;&gt;Node7</title>
<g id="a_edge6_Node000004_Node000007"><a xlink:title=" ">
<path fill="none" stroke="#63b8ff" d="M870.71,-62.3C878.21,-61.18 886.52,-59.94 895.03,-58.67"/>
<polygon fill="#63b8ff" stroke="#63b8ff" points="895.48,-61.99 904.85,-57.06 894.44,-55.07 895.48,-61.99"/>
</a>
</g>
</g>
<!-- Node8 -->
<g id="Node000008" class="node">
<title>Node8</title>
<g id="a_Node000008"><a xlink:href="class_logger.html#a999bb33f7cf079cb98f32fae6016a2f3" target="_top" xlink:title="Метод, который записывает сообщение в файл.">
<polygon fill="white" stroke="#666666" points="1017.88,-20 917.12,-20 917.12,0 1017.88,0 1017.88,-20"/>
<text text-anchor="middle" x="967.5" y="-6.5" font-family="Helvetica,sans-Serif" font-size="10.00">Logger::print_to_file</text>
</a>
</g>
</g>
<!-- Node4&#45;&gt;Node8 -->
<g id="edge7_Node000004_Node000008" class="edge">
<title>Node4&#45;&gt;Node8</title>
<g id="a_edge7_Node000004_Node000008"><a xlink:title=" ">
<path fill="none" stroke="#63b8ff" d="M855.27,-56.64C868.55,-48.37 888.1,-36.9 906.25,-29 910.32,-27.23 914.61,-25.54 918.95,-23.95"/>
<polygon fill="#63b8ff" stroke="#63b8ff" points="919.78,-27.03 928.09,-20.45 917.49,-20.41 919.78,-27.03"/>
</a>
</g>
</g>
<!-- Node9&#45;&gt;Node10 -->
<g id="edge9_Node000009_Node000010" class="edge">
<title>Node9&#45;&gt;Node10</title>
<g id="a_edge9_Node000009_Node000010"><a xlink:title=" ">
<path fill="none" stroke="#63b8ff" d="M632.8,-77.48C647.13,-81.8 663.93,-86.86 679.18,-91.46"/>
<polygon fill="#63b8ff" stroke="#63b8ff" points="677.86,-95.02 688.44,-94.55 679.88,-88.31 677.86,-95.02"/>
</a>
</g>
</g>
<!-- Node9&#45;&gt;Node11 -->
<g id="edge11_Node000009_Node000011" class="edge">
<title>Node9&#45;&gt;Node11</title>
<g id="a_edge11_Node000009_Node000011"><a xlink:title=" ">
<path fill="none" stroke="#63b8ff" d="M644.25,-67C652.17,-67 660.48,-67 668.62,-67"/>
<polygon fill="#63b8ff" stroke="#63b8ff" points="668.56,-70.5 678.56,-67 668.56,-63.5 668.56,-70.5"/>
</a>
</g>
</g>
<!-- Node10&#45;&gt;Node4 -->
<g id="edge10_Node000010_Node000004" class="edge">
<title>Node10&#45;&gt;Node4</title>
<g id="a_edge10_Node000010_Node000004"><a xlink:title=" ">
<path fill="none" stroke="#63b8ff" d="M756.78,-94.52C769.05,-90.32 783.36,-85.43 796.48,-80.94"/>
<polygon fill="#63b8ff" stroke="#63b8ff" points="797.36,-84 805.69,-77.45 795.1,-77.37 797.36,-84"/>
</a>
</g>
</g>
<!-- Node11&#45;&gt;Node4 -->
<g id="edge12_Node000011_Node000004" class="edge">
<title>Node11&#45;&gt;Node4</title>
<g id="a_edge12_Node000011_Node000004"><a xlink:title=" ">
<path fill="none" stroke="#63b8ff" d="M770.68,-67C778.73,-67 787.09,-67 795.07,-67"/>
<polygon fill="#63b8ff" stroke="#63b8ff" points="795,-70.5 805,-67 795,-63.5 795,-70.5"/>
</a>
</g>
</g>
<!-- Node12&#45;&gt;Node3 -->
<g id="edge16_Node000012_Node000003" class="edge">
<title>Node12&#45;&gt;Node3</title>
<g id="a_edge16_Node000012_Node000003"><a xlink:title=" ">
<path fill="none" stroke="#63b8ff" d="M263.99,-75.2C307.8,-81.61 368.43,-90.49 412.09,-96.89"/>
<polygon fill="#63b8ff" stroke="#63b8ff" points="411.41,-100.47 421.81,-98.46 412.42,-93.54 411.41,-100.47"/>
</a>
</g>
</g>
<!-- Node13 -->
<g id="Node000013" class="node">
<title>Node13</title>
<g id="a_Node000013"><a xlink:href="class_visa_device.html#ab1f5c0b110fca770dbd5be069453ea82" target="_top" xlink:title="Ожидание завершения выполнения команды.">
<polygon fill="white" stroke="#666666" points="387,-39 299.75,-39 299.75,-19 387,-19 387,-39"/>
<text text-anchor="middle" x="343.38" y="-25.5" font-family="Helvetica,sans-Serif" font-size="10.00">VisaDevice::wait</text>
</a>
</g>
</g>
<!-- Node12&#45;&gt;Node13 -->
<g id="edge17_Node000012_Node000013" class="edge">
<title>Node12&#45;&gt;Node13</title>
<g id="a_edge17_Node000012_Node000013"><a xlink:title=" ">
<path fill="none" stroke="#63b8ff" d="M245.07,-56.52C260.5,-52.15 278.59,-47.04 294.96,-42.41"/>
<polygon fill="#63b8ff" stroke="#63b8ff" points="295.75,-45.54 304.42,-39.45 293.85,-38.8 295.75,-45.54"/>
</a>
</g>
</g>
<!-- Node13&#45;&gt;Node4 -->
<g id="edge18_Node000013_Node000004" class="edge">
<title>Node13&#45;&gt;Node4</title>
<g id="a_edge18_Node000013_Node000004"><a xlink:title=" ">
<path fill="none" stroke="#63b8ff" d="M379.67,-18.59C393.1,-15.12 408.64,-11.71 423,-10 522.6,1.86 767.72,-31.26 770.25,-32 785.06,-36.32 800.4,-44.05 812.66,-51.15"/>
<polygon fill="#63b8ff" stroke="#63b8ff" points="810.39,-54.47 820.76,-56.63 814,-48.48 810.39,-54.47"/>
</a>
</g>
</g>
<!-- Node14 -->
<g id="Node000014" class="node">
<title>Node14</title>
<g id="a_Node000014"><a xlink:href="class_visa_device.html#a70a6c6ace7c5841db420c1e112782a53" target="_top" xlink:title="Отправляет команду &quot;*OPC?&quot; на подключенное устройство, ожидает ответ и, в зависимости от полученного ...">
<polygon fill="white" stroke="#666666" points="511.38,-39 425.62,-39 425.62,-19 511.38,-19 511.38,-39"/>
<text text-anchor="middle" x="468.5" y="-25.5" font-family="Helvetica,sans-Serif" font-size="10.00">VisaDevice::opc</text>
</a>
</g>
</g>
<!-- Node13&#45;&gt;Node14 -->
<g id="edge19_Node000013_Node000014" class="edge">
<title>Node13&#45;&gt;Node14</title>
<g id="a_edge19_Node000013_Node000014"><a xlink:title=" ">
<path fill="none" stroke="#63b8ff" d="M387.44,-29C396.21,-29 405.54,-29 414.61,-29"/>
<polygon fill="#63b8ff" stroke="#63b8ff" points="414.5,-32.5 424.5,-29 414.5,-25.5 414.5,-32.5"/>
</a>
</g>
</g>
<!-- Node14&#45;&gt;Node4 -->
<g id="edge20_Node000014_Node000004" class="edge">
<title>Node14&#45;&gt;Node4</title>
<g id="a_edge20_Node000014_Node000004"><a xlink:title=" ">
<path fill="none" stroke="#63b8ff" d="M511.67,-28.84C570.15,-29.26 678.98,-32.36 770.25,-48 778.45,-49.41 787.09,-51.43 795.33,-53.64"/>
<polygon fill="#63b8ff" stroke="#63b8ff" points="794.3,-57.26 804.87,-56.61 796.2,-50.53 794.3,-57.26"/>
</a>
</g>
</g>
<!-- Node14&#45;&gt;Node9 -->
<g id="edge21_Node000014_Node000009" class="edge">
<title>Node14&#45;&gt;Node9</title>
<g id="a_edge21_Node000014_Node000009"><a xlink:title=" ">
<path fill="none" stroke="#63b8ff" d="M504.4,-39.48C518.78,-43.8 535.63,-48.86 550.92,-53.46"/>
<polygon fill="#63b8ff" stroke="#63b8ff" points="549.63,-57.02 560.21,-56.55 551.64,-50.32 549.63,-57.02"/>
</a>
</g>
</g>
</g>
</svg>
