<?xml version="1.0" encoding="UTF-8" standalone="no"?>
<!DOCTYPE svg PUBLIC "-//W3C//DTD SVG 1.1//EN"
 "http://www.w3.org/Graphics/SVG/1.1/DTD/svg11.dtd">
<!-- Generated by graphviz version 8.0.5 (20230430.1635)
 -->
<!-- Title: KeysightM9807A::configure Pages: 1 -->
<svg width="1224pt" height="251pt"
 viewBox="0.00 0.00 1223.75 250.79" xmlns="http://www.w3.org/2000/svg" xmlns:xlink="http://www.w3.org/1999/xlink">
<g id="graph0" class="graph" transform="scale(1 1) rotate(0) translate(4 246.79)">
<title>KeysightM9807A::configure</title>
<!-- Node1 -->
<g id="Node000001" class="node">
<title>Node1</title>
<g id="a_Node000001"><a xlink:title=" ">
<polygon fill="#999999" stroke="#666666" points="135.25,-195.79 0,-195.79 0,-175.79 135.25,-175.79 135.25,-195.79"/>
<text text-anchor="middle" x="67.62" y="-182.29" font-family="Helvetica,sans-Serif" font-size="10.00">KeysightM9807A::configure</text>
</a>
</g>
</g>
<!-- Node2 -->
<g id="Node000002" class="node">
<title>Node2</title>
<g id="a_Node000002"><a xlink:href="class_visa_device.html#a069e154c5f48779dfd908146db9e66ed" target="_top" xlink:title=" ">
<polygon fill="white" stroke="#666666" points="301.25,-195.79 171.25,-195.79 171.25,-175.79 301.25,-175.79 301.25,-195.79"/>
<text text-anchor="middle" x="236.25" y="-182.29" font-family="Helvetica,sans-Serif" font-size="10.00">VisaDevice::send_wait_err</text>
</a>
</g>
</g>
<!-- Node1&#45;&gt;Node2 -->
<g id="edge1_Node000001_Node000002" class="edge">
<title>Node1&#45;&gt;Node2</title>
<g id="a_edge1_Node000001_Node000002"><a xlink:title=" ">
<path fill="none" stroke="#63b8ff" d="M135.44,-185.79C143.56,-185.79 151.9,-185.79 160.13,-185.79"/>
<polygon fill="#63b8ff" stroke="#63b8ff" points="159.86,-189.29 169.86,-185.79 159.86,-182.29 159.86,-189.29"/>
</a>
</g>
</g>
<!-- Node3 -->
<g id="Node000003" class="node">
<title>Node3</title>
<g id="a_Node000003"><a xlink:href="class_visa_device.html#aba4642c194cffe2135a133e23960ab63" target="_top" xlink:title=" ">
<polygon fill="white" stroke="#666666" points="696.12,-195.79 614.88,-195.79 614.88,-175.79 696.12,-175.79 696.12,-195.79"/>
<text text-anchor="middle" x="655.5" y="-182.29" font-family="Helvetica,sans-Serif" font-size="10.00">VisaDevice::err</text>
</a>
</g>
</g>
<!-- Node2&#45;&gt;Node3 -->
<g id="edge2_Node000002_Node000003" class="edge">
<title>Node2&#45;&gt;Node3</title>
<g id="a_edge2_Node000002_Node000003"><a xlink:title=" ">
<path fill="none" stroke="#63b8ff" d="M301.53,-185.79C384.65,-185.79 527.74,-185.79 603.69,-185.79"/>
<polygon fill="#63b8ff" stroke="#63b8ff" points="603.39,-189.29 613.39,-185.79 603.39,-182.29 603.39,-189.29"/>
</a>
</g>
</g>
<!-- Node4 -->
<g id="Node000004" class="node">
<title>Node4</title>
<g id="a_Node000004"><a xlink:href="class_logger.html#af7709105c2708359b7b082218f4cc3e1" target="_top" xlink:title="Функция, осуществляющая логирование">
<polygon fill="white" stroke="#666666" points="1057.25,-100.79 993.25,-100.79 993.25,-80.79 1057.25,-80.79 1057.25,-100.79"/>
<text text-anchor="middle" x="1025.25" y="-87.29" font-family="Helvetica,sans-Serif" font-size="10.00">Logger::log</text>
</a>
</g>
</g>
<!-- Node2&#45;&gt;Node4 -->
<g id="edge13_Node000002_Node000004" class="edge">
<title>Node2&#45;&gt;Node4</title>
<g id="a_edge13_Node000002_Node000004"><a xlink:title=" ">
<path fill="none" stroke="#63b8ff" d="M269.27,-196.25C322.6,-212.7 433.26,-242.79 529.38,-242.79 529.38,-242.79 529.38,-242.79 785,-242.79 867.31,-242.79 891.07,-223.73 957.25,-174.79 980.91,-157.29 1000.86,-129.46 1012.68,-110.67"/>
<polygon fill="#63b8ff" stroke="#63b8ff" points="1016.18,-112.65 1018.38,-102.29 1010.2,-109.02 1016.18,-112.65"/>
</a>
</g>
</g>
<!-- Node12 -->
<g id="Node000012" class="node">
<title>Node12</title>
<g id="a_Node000012"><a xlink:href="class_visa_device.html#a3744ee1e929d6c05b522693c344c76b3" target="_top" xlink:title=" ">
<polygon fill="white" stroke="#666666" points="450.75,-119.79 337.25,-119.79 337.25,-99.79 450.75,-99.79 450.75,-119.79"/>
<text text-anchor="middle" x="394" y="-106.29" font-family="Helvetica,sans-Serif" font-size="10.00">VisaDevice::send_wait</text>
</a>
</g>
</g>
<!-- Node2&#45;&gt;Node12 -->
<g id="edge14_Node000002_Node000012" class="edge">
<title>Node2&#45;&gt;Node12</title>
<g id="a_edge14_Node000002_Node000012"><a xlink:title=" ">
<path fill="none" stroke="#63b8ff" d="M258.58,-175.39C285.38,-162.31 331.55,-139.78 362.19,-124.83"/>
<polygon fill="#63b8ff" stroke="#63b8ff" points="363.48,-127.61 370.93,-120.08 360.41,-121.32 363.48,-127.61"/>
</a>
</g>
</g>
<!-- Node3&#45;&gt;Node4 -->
<g id="edge3_Node000003_Node000004" class="edge">
<title>Node3&#45;&gt;Node4</title>
<g id="a_edge3_Node000003_Node000004"><a xlink:title=" ">
<path fill="none" stroke="#63b8ff" d="M696.37,-187.82C755.84,-189.32 870.1,-186.24 957.25,-147.79 977.19,-139 995.73,-122.29 1008.22,-109.23"/>
<polygon fill="#63b8ff" stroke="#63b8ff" points="1010.33,-112.02 1014.51,-102.29 1005.17,-107.29 1010.33,-112.02"/>
</a>
</g>
</g>
<!-- Node9 -->
<g id="Node000009" class="node">
<title>Node9</title>
<g id="a_Node000009"><a xlink:href="class_visa_device.html#aa807192fd9a8c3e6efc458f78de5e73e" target="_top" xlink:title=" ">
<polygon fill="white" stroke="#666666" points="831,-138.79 737,-138.79 737,-118.79 831,-118.79 831,-138.79"/>
<text text-anchor="middle" x="784" y="-125.29" font-family="Helvetica,sans-Serif" font-size="10.00">VisaDevice::query</text>
</a>
</g>
</g>
<!-- Node3&#45;&gt;Node9 -->
<g id="edge8_Node000003_Node000009" class="edge">
<title>Node3&#45;&gt;Node9</title>
<g id="a_edge8_Node000003_Node000009"><a xlink:title=" ">
<path fill="none" stroke="#63b8ff" d="M679.7,-175.34C699.41,-166.46 727.92,-153.61 750,-143.66"/>
<polygon fill="#63b8ff" stroke="#63b8ff" points="751.27,-146.48 758.95,-139.18 748.39,-140.1 751.27,-146.48"/>
</a>
</g>
</g>
<!-- Node5 -->
<g id="Node000005" class="node">
<title>Node5</title>
<g id="a_Node000005"><a xlink:href="logger_8hpp.html#a49284b7befa8e31f81e01ee8f3735dd0" target="_top" xlink:title="Функция, которая снимает значение текущего времени и конвертирует его в строку с заданным шаблоном.">
<polygon fill="white" stroke="#666666" points="1198.88,-157.79 1110.12,-157.79 1110.12,-137.79 1198.88,-137.79 1198.88,-157.79"/>
<text text-anchor="middle" x="1154.5" y="-144.29" font-family="Helvetica,sans-Serif" font-size="10.00">get_current_time</text>
</a>
</g>
</g>
<!-- Node4&#45;&gt;Node5 -->
<g id="edge4_Node000004_Node000005" class="edge">
<title>Node4&#45;&gt;Node5</title>
<g id="a_edge4_Node000004_Node000005"><a xlink:title=" ">
<path fill="none" stroke="#63b8ff" d="M1042.27,-101.16C1055.55,-109.43 1075.1,-120.89 1093.25,-128.79 1097.32,-130.57 1101.61,-132.26 1105.95,-133.84"/>
<polygon fill="#63b8ff" stroke="#63b8ff" points="1104.49,-137.38 1115.09,-137.34 1106.78,-130.77 1104.49,-137.38"/>
</a>
</g>
</g>
<!-- Node6 -->
<g id="Node000006" class="node">
<title>Node6</title>
<g id="a_Node000006"><a xlink:href="class_logger.html#a6edb7b263f080d417b82a537ed50fee4" target="_top" xlink:title="Функция, возвращающая тег в зависимости от уровня логирования и от назначения тега.">
<polygon fill="white" stroke="#666666" points="1196.25,-119.79 1112.75,-119.79 1112.75,-99.79 1196.25,-99.79 1196.25,-119.79"/>
<text text-anchor="middle" x="1154.5" y="-106.29" font-family="Helvetica,sans-Serif" font-size="10.00">Logger::get_tag</text>
</a>
</g>
</g>
<!-- Node4&#45;&gt;Node6 -->
<g id="edge5_Node000004_Node000006" class="edge">
<title>Node4&#45;&gt;Node6</title>
<g id="a_edge5_Node000004_Node000006"><a xlink:title=" ">
<path fill="none" stroke="#63b8ff" d="M1057.71,-95.49C1070.97,-97.47 1086.77,-99.83 1101.67,-102.06"/>
<polygon fill="#63b8ff" stroke="#63b8ff" points="1100.91,-105.63 1111.32,-103.65 1101.94,-98.71 1100.91,-105.63"/>
</a>
</g>
</g>
<!-- Node7 -->
<g id="Node000007" class="node">
<title>Node7</title>
<g id="a_Node000007"><a xlink:href="class_logger.html#a4825613142ebb093bf8fa26f21f7f3fc" target="_top" xlink:title="Функция, которая выводит сообщение в консоль.">
<polygon fill="white" stroke="#666666" points="1215.75,-81.79 1093.25,-81.79 1093.25,-61.79 1215.75,-61.79 1215.75,-81.79"/>
<text text-anchor="middle" x="1154.5" y="-68.29" font-family="Helvetica,sans-Serif" font-size="10.00">Logger::print_to_console</text>
</a>
</g>
</g>
<!-- Node4&#45;&gt;Node7 -->
<g id="edge6_Node000004_Node000007" class="edge">
<title>Node4&#45;&gt;Node7</title>
<g id="a_edge6_Node000004_Node000007"><a xlink:title=" ">
<path fill="none" stroke="#63b8ff" d="M1057.71,-86.1C1065.21,-84.98 1073.52,-83.74 1082.03,-82.47"/>
<polygon fill="#63b8ff" stroke="#63b8ff" points="1082.48,-85.79 1091.85,-80.85 1081.44,-78.87 1082.48,-85.79"/>
</a>
</g>
</g>
<!-- Node8 -->
<g id="Node000008" class="node">
<title>Node8</title>
<g id="a_Node000008"><a xlink:href="class_logger.html#a999bb33f7cf079cb98f32fae6016a2f3" target="_top" xlink:title="Функция, которая записывает сообщение в файл.">
<polygon fill="white" stroke="#666666" points="1204.88,-43.79 1104.12,-43.79 1104.12,-23.79 1204.88,-23.79 1204.88,-43.79"/>
<text text-anchor="middle" x="1154.5" y="-30.29" font-family="Helvetica,sans-Serif" font-size="10.00">Logger::print_to_file</text>
</a>
</g>
</g>
<!-- Node4&#45;&gt;Node8 -->
<g id="edge7_Node000004_Node000008" class="edge">
<title>Node4&#45;&gt;Node8</title>
<g id="a_edge7_Node000004_Node000008"><a xlink:title=" ">
<path fill="none" stroke="#63b8ff" d="M1042.27,-80.43C1055.55,-72.16 1075.1,-60.7 1093.25,-52.79 1097.32,-51.02 1101.61,-49.33 1105.95,-47.75"/>
<polygon fill="#63b8ff" stroke="#63b8ff" points="1106.78,-50.82 1115.09,-44.24 1104.49,-44.2 1106.78,-50.82"/>
</a>
</g>
</g>
<!-- Node10 -->
<g id="Node000010" class="node">
<title>Node10</title>
<g id="a_Node000010"><a xlink:href="class_visa_device.html#aca08d9dbb0469f1143668a485e4adfe2" target="_top" xlink:title=" ">
<polygon fill="white" stroke="#666666" points="956.5,-138.79 867.75,-138.79 867.75,-118.79 956.5,-118.79 956.5,-138.79"/>
<text text-anchor="middle" x="912.12" y="-125.29" font-family="Helvetica,sans-Serif" font-size="10.00">VisaDevice::read</text>
</a>
</g>
</g>
<!-- Node9&#45;&gt;Node10 -->
<g id="edge9_Node000009_Node000010" class="edge">
<title>Node9&#45;&gt;Node10</title>
<g id="a_edge9_Node000009_Node000010"><a xlink:title=" ">
<path fill="none" stroke="#63b8ff" d="M831.25,-128.79C839.46,-128.79 848.08,-128.79 856.5,-128.79"/>
<polygon fill="#63b8ff" stroke="#63b8ff" points="856.4,-132.29 866.4,-128.79 856.4,-125.29 856.4,-132.29"/>
</a>
</g>
</g>
<!-- Node11 -->
<g id="Node000011" class="node">
<title>Node11</title>
<g id="a_Node000011"><a xlink:href="class_visa_device.html#a29202c3f5e47326386d1d27972e25267" target="_top" xlink:title=" ">
<polygon fill="white" stroke="#666666" points="957.25,-100.79 867,-100.79 867,-80.79 957.25,-80.79 957.25,-100.79"/>
<text text-anchor="middle" x="912.12" y="-87.29" font-family="Helvetica,sans-Serif" font-size="10.00">VisaDevice::write</text>
</a>
</g>
</g>
<!-- Node9&#45;&gt;Node11 -->
<g id="edge11_Node000009_Node000011" class="edge">
<title>Node9&#45;&gt;Node11</title>
<g id="a_edge11_Node000009_Node000011"><a xlink:title=" ">
<path fill="none" stroke="#63b8ff" d="M819.8,-118.31C834.13,-113.99 850.93,-108.93 866.18,-104.34"/>
<polygon fill="#63b8ff" stroke="#63b8ff" points="866.88,-107.48 875.44,-101.24 864.86,-100.78 866.88,-107.48"/>
</a>
</g>
</g>
<!-- Node10&#45;&gt;Node4 -->
<g id="edge10_Node000010_Node000004" class="edge">
<title>Node10&#45;&gt;Node4</title>
<g id="a_edge10_Node000010_Node000004"><a xlink:title=" ">
<path fill="none" stroke="#63b8ff" d="M943.78,-118.31C956.05,-114.12 970.36,-109.22 983.48,-104.73"/>
<polygon fill="#63b8ff" stroke="#63b8ff" points="984.36,-107.79 992.69,-101.24 982.1,-101.17 984.36,-107.79"/>
</a>
</g>
</g>
<!-- Node11&#45;&gt;Node4 -->
<g id="edge12_Node000011_Node000004" class="edge">
<title>Node11&#45;&gt;Node4</title>
<g id="a_edge12_Node000011_Node000004"><a xlink:title=" ">
<path fill="none" stroke="#63b8ff" d="M957.68,-90.79C965.73,-90.79 974.09,-90.79 982.07,-90.79"/>
<polygon fill="#63b8ff" stroke="#63b8ff" points="982,-94.29 992,-90.79 982,-87.29 982,-94.29"/>
</a>
</g>
</g>
<!-- Node13 -->
<g id="Node000013" class="node">
<title>Node13</title>
<g id="a_Node000013"><a xlink:href="class_visa_device.html#ad659ba652605f5c983958400fde8c808" target="_top" xlink:title=" ">
<polygon fill="white" stroke="#666666" points="701,-119.79 610,-119.79 610,-99.79 701,-99.79 701,-119.79"/>
<text text-anchor="middle" x="655.5" y="-106.29" font-family="Helvetica,sans-Serif" font-size="10.00">VisaDevice::send</text>
</a>
</g>
</g>
<!-- Node12&#45;&gt;Node13 -->
<g id="edge15_Node000012_Node000013" class="edge">
<title>Node12&#45;&gt;Node13</title>
<g id="a_edge15_Node000012_Node000013"><a xlink:title=" ">
<path fill="none" stroke="#63b8ff" d="M450.99,-109.79C494.71,-109.79 555.17,-109.79 598.82,-109.79"/>
<polygon fill="#63b8ff" stroke="#63b8ff" points="598.81,-113.29 608.81,-109.79 598.81,-106.29 598.81,-113.29"/>
</a>
</g>
</g>
<!-- Node14 -->
<g id="Node000014" class="node">
<title>Node14</title>
<g id="a_Node000014"><a xlink:href="class_visa_device.html#ab1f5c0b110fca770dbd5be069453ea82" target="_top" xlink:title=" ">
<polygon fill="white" stroke="#666666" points="574,-43.79 486.75,-43.79 486.75,-23.79 574,-23.79 574,-43.79"/>
<text text-anchor="middle" x="530.38" y="-30.29" font-family="Helvetica,sans-Serif" font-size="10.00">VisaDevice::wait</text>
</a>
</g>
</g>
<!-- Node12&#45;&gt;Node14 -->
<g id="edge20_Node000012_Node000014" class="edge">
<title>Node12&#45;&gt;Node14</title>
<g id="a_edge20_Node000012_Node000014"><a xlink:title=" ">
<path fill="none" stroke="#63b8ff" d="M413.4,-99.39C436.22,-86.48 475.32,-64.36 501.75,-49.42"/>
<polygon fill="#63b8ff" stroke="#63b8ff" points="503.21,-52.05 510.19,-44.08 499.77,-45.95 503.21,-52.05"/>
</a>
</g>
</g>
<!-- Node13&#45;&gt;Node4 -->
<g id="edge16_Node000013_Node000004" class="edge">
<title>Node13&#45;&gt;Node4</title>
<g id="a_edge16_Node000013_Node000004"><a xlink:title=" ">
<path fill="none" stroke="#63b8ff" d="M691.73,-99.3C747.93,-83.92 861.34,-58.46 957.25,-71.79 966.02,-73.01 975.25,-75.09 983.97,-77.43"/>
<polygon fill="#63b8ff" stroke="#63b8ff" points="982.7,-81 993.28,-80.38 984.63,-74.27 982.7,-81"/>
</a>
</g>
</g>
<!-- Node13&#45;&gt;Node9 -->
<g id="edge17_Node000013_Node000009" class="edge">
<title>Node13&#45;&gt;Node9</title>
<g id="a_edge17_Node000013_Node000009"><a xlink:title=" ">
<path fill="none" stroke="#63b8ff" d="M701.46,-116.55C709.45,-117.75 717.88,-119.01 726.16,-120.26"/>
<polygon fill="#63b8ff" stroke="#63b8ff" points="725.5,-123.85 735.91,-121.87 726.54,-116.93 725.5,-123.85"/>
</a>
</g>
</g>
<!-- Node13&#45;&gt;Node10 -->
<g id="edge18_Node000013_Node000010" class="edge">
<title>Node13&#45;&gt;Node10</title>
<g id="a_edge18_Node000013_Node000010"><a xlink:title=" ">
<path fill="none" stroke="#63b8ff" d="M672.98,-120.25C688.73,-129.56 713.47,-142.52 737,-147.79 780.16,-157.47 830.49,-150.02 865.9,-141.78"/>
<polygon fill="#63b8ff" stroke="#63b8ff" points="866.51,-144.99 875.39,-139.21 864.85,-138.19 866.51,-144.99"/>
</a>
</g>
</g>
<!-- Node13&#45;&gt;Node11 -->
<g id="edge19_Node000013_Node000011" class="edge">
<title>Node13&#45;&gt;Node11</title>
<g id="a_edge19_Node000013_Node000011"><a xlink:title=" ">
<path fill="none" stroke="#63b8ff" d="M701.44,-106.44C744.52,-103.23 809.67,-98.36 855.91,-94.91"/>
<polygon fill="#63b8ff" stroke="#63b8ff" points="855.93,-98.35 865.64,-94.11 855.41,-91.37 855.93,-98.35"/>
</a>
</g>
</g>
<!-- Node14&#45;&gt;Node4 -->
<g id="edge21_Node000014_Node000004" class="edge">
<title>Node14&#45;&gt;Node4</title>
<g id="a_edge21_Node000014_Node000004"><a xlink:title=" ">
<path fill="none" stroke="#63b8ff" d="M566.67,-23.38C580.1,-19.92 595.64,-16.51 610,-14.79 763.75,3.52 812.63,12.51 957.25,-42.79 975.28,-49.69 992.91,-62.64 1005.55,-73.36"/>
<polygon fill="#63b8ff" stroke="#63b8ff" points="1002.64,-75.33 1012.46,-79.31 1007.26,-70.08 1002.64,-75.33"/>
</a>
</g>
</g>
<!-- Node15 -->
<g id="Node000015" class="node">
<title>Node15</title>
<g id="a_Node000015"><a xlink:href="class_visa_device.html#a70a6c6ace7c5841db420c1e112782a53" target="_top" xlink:title=" ">
<polygon fill="white" stroke="#666666" points="698.38,-43.79 612.62,-43.79 612.62,-23.79 698.38,-23.79 698.38,-43.79"/>
<text text-anchor="middle" x="655.5" y="-30.29" font-family="Helvetica,sans-Serif" font-size="10.00">VisaDevice::opc</text>
</a>
</g>
</g>
<!-- Node14&#45;&gt;Node15 -->
<g id="edge22_Node000014_Node000015" class="edge">
<title>Node14&#45;&gt;Node15</title>
<g id="a_edge22_Node000014_Node000015"><a xlink:title=" ">
<path fill="none" stroke="#63b8ff" d="M574.44,-33.79C583.21,-33.79 592.54,-33.79 601.61,-33.79"/>
<polygon fill="#63b8ff" stroke="#63b8ff" points="601.5,-37.29 611.5,-33.79 601.5,-30.29 601.5,-37.29"/>
</a>
</g>
</g>
<!-- Node15&#45;&gt;Node4 -->
<g id="edge23_Node000015_Node000004" class="edge">
<title>Node15&#45;&gt;Node4</title>
<g id="a_edge23_Node000015_Node000004"><a xlink:title=" ">
<path fill="none" stroke="#63b8ff" d="M698.48,-34.25C757.2,-35.73 866.81,-41.54 957.25,-63.79 969.15,-66.72 981.74,-71.35 992.74,-75.96"/>
<polygon fill="#63b8ff" stroke="#63b8ff" points="991.18,-79.53 1001.74,-80.31 993.97,-73.11 991.18,-79.53"/>
</a>
</g>
</g>
<!-- Node15&#45;&gt;Node9 -->
<g id="edge24_Node000015_Node000009" class="edge">
<title>Node15&#45;&gt;Node9</title>
<g id="a_edge24_Node000015_Node000009"><a xlink:title=" ">
<path fill="none" stroke="#63b8ff" d="M670.04,-43.96C691.7,-60.23 734.39,-92.29 760.64,-112"/>
<polygon fill="#63b8ff" stroke="#63b8ff" points="758.08,-115.21 768.18,-118.41 762.28,-109.61 758.08,-115.21"/>
</a>
</g>
</g>
</g>
</svg>
