<?xml version="1.0" encoding="UTF-8" standalone="no"?>
<!DOCTYPE svg PUBLIC "-//W3C//DTD SVG 1.1//EN"
 "http://www.w3.org/Graphics/SVG/1.1/DTD/svg11.dtd">
<!-- Generated by graphviz version 8.1.0 (20230707.0739)
 -->
<!-- Title: PlanarS50244::preset Pages: 1 -->
<svg width="760pt" height="142pt"
 viewBox="0.00 0.00 759.50 142.00" xmlns="http://www.w3.org/2000/svg" xmlns:xlink="http://www.w3.org/1999/xlink">
<g id="graph0" class="graph" transform="scale(1 1) rotate(0) translate(4 138)">
<title>PlanarS50244::preset</title>
<!-- Node1 -->
<g id="Node000001" class="node">
<title>Node1</title>
<g id="a_Node000001"><a xlink:title="Сброс настроек">
<polygon fill="#999999" stroke="#666666" points="109.75,-58 0,-58 0,-38 109.75,-38 109.75,-58"/>
<text text-anchor="middle" x="54.88" y="-44.5" font-family="Helvetica,sans-Serif" font-size="10.00">PlanarS50244::preset</text>
</a>
</g>
</g>
<!-- Node2 -->
<g id="Node000002" class="node">
<title>Node2</title>
<g id="a_Node000002"><a xlink:href="class_visa_device.html#ad659ba652605f5c983958400fde8c808" target="_top" xlink:title="Отправка данных на прибор и чтение ответа от прибора.">
<polygon fill="white" stroke="#666666" points="236.75,-58 145.75,-58 145.75,-38 236.75,-38 236.75,-58"/>
<text text-anchor="middle" x="191.25" y="-44.5" font-family="Helvetica,sans-Serif" font-size="10.00">VisaDevice::send</text>
</a>
</g>
</g>
<!-- Node1&#45;&gt;Node2 -->
<g id="edge1_Node000001_Node000002" class="edge">
<title>Node1&#45;&gt;Node2</title>
<g id="a_edge1_Node000001_Node000002"><a xlink:title=" ">
<path fill="none" stroke="#63b8ff" d="M110.14,-48C118.26,-48 126.63,-48 134.77,-48"/>
<polygon fill="#63b8ff" stroke="#63b8ff" points="134.67,-51.5 144.67,-48 134.67,-44.5 134.67,-51.5"/>
</a>
</g>
</g>
<!-- Node3 -->
<g id="Node000003" class="node">
<title>Node3</title>
<g id="a_Node000003"><a xlink:href="class_logger.html#af7709105c2708359b7b082218f4cc3e1" target="_top" xlink:title="Метод, осуществляющий логирование">
<polygon fill="white" stroke="#666666" points="593,-77 529,-77 529,-57 593,-57 593,-77"/>
<text text-anchor="middle" x="561" y="-63.5" font-family="Helvetica,sans-Serif" font-size="10.00">Logger::log</text>
</a>
</g>
</g>
<!-- Node2&#45;&gt;Node3 -->
<g id="edge2_Node000002_Node000003" class="edge">
<title>Node2&#45;&gt;Node3</title>
<g id="a_edge2_Node000002_Node000003"><a xlink:title=" ">
<path fill="none" stroke="#63b8ff" d="M224.08,-58.39C238.76,-62.85 256.5,-67.76 272.75,-71 368.98,-90.16 395.82,-99.51 493,-86 501.77,-84.78 511,-82.7 519.72,-80.36"/>
<polygon fill="#63b8ff" stroke="#63b8ff" points="520.38,-83.53 529.03,-77.41 518.45,-76.8 520.38,-83.53"/>
</a>
</g>
</g>
<!-- Node8 -->
<g id="Node000008" class="node">
<title>Node8</title>
<g id="a_Node000008"><a xlink:href="class_visa_device.html#aa807192fd9a8c3e6efc458f78de5e73e" target="_top" xlink:title="Метод, совмещающий в себе методы write() и read().">
<polygon fill="white" stroke="#666666" points="366.75,-39 272.75,-39 272.75,-19 366.75,-19 366.75,-39"/>
<text text-anchor="middle" x="319.75" y="-25.5" font-family="Helvetica,sans-Serif" font-size="10.00">VisaDevice::query</text>
</a>
</g>
</g>
<!-- Node2&#45;&gt;Node8 -->
<g id="edge7_Node000002_Node000008" class="edge">
<title>Node2&#45;&gt;Node8</title>
<g id="a_edge7_Node000002_Node000008"><a xlink:title=" ">
<path fill="none" stroke="#63b8ff" d="M237.21,-41.25C245.2,-40.05 253.63,-38.78 261.91,-37.54"/>
<polygon fill="#63b8ff" stroke="#63b8ff" points="262.29,-40.87 271.66,-35.92 261.25,-33.95 262.29,-40.87"/>
</a>
</g>
</g>
<!-- Node9 -->
<g id="Node000009" class="node">
<title>Node9</title>
<g id="a_Node000009"><a xlink:href="class_visa_device.html#aca08d9dbb0469f1143668a485e4adfe2" target="_top" xlink:title="Метод, позволяющий считать данные с устройства">
<polygon fill="white" stroke="#666666" points="492.25,-77 403.5,-77 403.5,-57 492.25,-57 492.25,-77"/>
<text text-anchor="middle" x="447.88" y="-63.5" font-family="Helvetica,sans-Serif" font-size="10.00">VisaDevice::read</text>
</a>
</g>
</g>
<!-- Node2&#45;&gt;Node9 -->
<g id="edge12_Node000002_Node000009" class="edge">
<title>Node2&#45;&gt;Node9</title>
<g id="a_edge12_Node000002_Node000009"><a xlink:title=" ">
<path fill="none" stroke="#63b8ff" d="M237.19,-51.35C280.54,-54.59 346.22,-59.49 392.5,-62.94"/>
<polygon fill="#63b8ff" stroke="#63b8ff" points="392.01,-66.49 402.24,-63.74 392.53,-59.51 392.01,-66.49"/>
</a>
</g>
</g>
<!-- Node10 -->
<g id="Node000010" class="node">
<title>Node10</title>
<g id="a_Node000010"><a xlink:href="class_visa_device.html#a29202c3f5e47326386d1d27972e25267" target="_top" xlink:title="Метод, позволяющий отправить команду на устройство">
<polygon fill="white" stroke="#666666" points="493,-39 402.75,-39 402.75,-19 493,-19 493,-39"/>
<text text-anchor="middle" x="447.88" y="-25.5" font-family="Helvetica,sans-Serif" font-size="10.00">VisaDevice::write</text>
</a>
</g>
</g>
<!-- Node2&#45;&gt;Node10 -->
<g id="edge13_Node000002_Node000010" class="edge">
<title>Node2&#45;&gt;Node10</title>
<g id="a_edge13_Node000002_Node000010"><a xlink:title=" ">
<path fill="none" stroke="#63b8ff" d="M208.73,-37.55C224.48,-28.23 249.22,-15.27 272.75,-10 315.91,-0.32 366.24,-7.78 401.65,-16.02"/>
<polygon fill="#63b8ff" stroke="#63b8ff" points="400.6,-19.61 411.14,-18.58 402.26,-12.81 400.6,-19.61"/>
</a>
</g>
</g>
<!-- Node4 -->
<g id="Node000004" class="node">
<title>Node4</title>
<g id="a_Node000004"><a xlink:href="logger_8hpp.html#a49284b7befa8e31f81e01ee8f3735dd0" target="_top" xlink:title="Функция, которая снимает значение текущего времени и конвертирует его в строку с заданным шаблоном.">
<polygon fill="white" stroke="#666666" points="734.62,-134 645.88,-134 645.88,-114 734.62,-114 734.62,-134"/>
<text text-anchor="middle" x="690.25" y="-120.5" font-family="Helvetica,sans-Serif" font-size="10.00">get_current_time</text>
</a>
</g>
</g>
<!-- Node3&#45;&gt;Node4 -->
<g id="edge3_Node000003_Node000004" class="edge">
<title>Node3&#45;&gt;Node4</title>
<g id="a_edge3_Node000003_Node000004"><a xlink:title=" ">
<path fill="none" stroke="#63b8ff" d="M578.02,-77.36C591.3,-85.63 610.85,-97.1 629,-105 633.07,-106.77 637.36,-108.46 641.7,-110.05"/>
<polygon fill="#63b8ff" stroke="#63b8ff" points="640.24,-113.59 650.84,-113.55 642.53,-106.97 640.24,-113.59"/>
</a>
</g>
</g>
<!-- Node5 -->
<g id="Node000005" class="node">
<title>Node5</title>
<g id="a_Node000005"><a xlink:href="class_logger.html#a6edb7b263f080d417b82a537ed50fee4" target="_top" xlink:title="Возвращает тег в зависимости от уровня логирования и от назначения тега.">
<polygon fill="white" stroke="#666666" points="732,-96 648.5,-96 648.5,-76 732,-76 732,-96"/>
<text text-anchor="middle" x="690.25" y="-82.5" font-family="Helvetica,sans-Serif" font-size="10.00">Logger::get_tag</text>
</a>
</g>
</g>
<!-- Node3&#45;&gt;Node5 -->
<g id="edge4_Node000003_Node000005" class="edge">
<title>Node3&#45;&gt;Node5</title>
<g id="a_edge4_Node000003_Node000005"><a xlink:title=" ">
<path fill="none" stroke="#63b8ff" d="M593.46,-71.7C606.72,-73.68 622.52,-76.04 637.42,-78.26"/>
<polygon fill="#63b8ff" stroke="#63b8ff" points="636.66,-81.84 647.07,-79.85 637.69,-74.91 636.66,-81.84"/>
</a>
</g>
</g>
<!-- Node6 -->
<g id="Node000006" class="node">
<title>Node6</title>
<g id="a_Node000006"><a xlink:href="class_logger.html#a4825613142ebb093bf8fa26f21f7f3fc" target="_top" xlink:title="Метод, который выводит сообщение в консоль.">
<polygon fill="white" stroke="#666666" points="751.5,-58 629,-58 629,-38 751.5,-38 751.5,-58"/>
<text text-anchor="middle" x="690.25" y="-44.5" font-family="Helvetica,sans-Serif" font-size="10.00">Logger::print_to_console</text>
</a>
</g>
</g>
<!-- Node3&#45;&gt;Node6 -->
<g id="edge5_Node000003_Node000006" class="edge">
<title>Node3&#45;&gt;Node6</title>
<g id="a_edge5_Node000003_Node000006"><a xlink:title=" ">
<path fill="none" stroke="#63b8ff" d="M593.46,-62.3C600.96,-61.18 609.27,-59.94 617.78,-58.67"/>
<polygon fill="#63b8ff" stroke="#63b8ff" points="618.23,-61.99 627.6,-57.06 617.19,-55.07 618.23,-61.99"/>
</a>
</g>
</g>
<!-- Node7 -->
<g id="Node000007" class="node">
<title>Node7</title>
<g id="a_Node000007"><a xlink:href="class_logger.html#a999bb33f7cf079cb98f32fae6016a2f3" target="_top" xlink:title="Метод, который записывает сообщение в файл.">
<polygon fill="white" stroke="#666666" points="740.62,-20 639.88,-20 639.88,0 740.62,0 740.62,-20"/>
<text text-anchor="middle" x="690.25" y="-6.5" font-family="Helvetica,sans-Serif" font-size="10.00">Logger::print_to_file</text>
</a>
</g>
</g>
<!-- Node3&#45;&gt;Node7 -->
<g id="edge6_Node000003_Node000007" class="edge">
<title>Node3&#45;&gt;Node7</title>
<g id="a_edge6_Node000003_Node000007"><a xlink:title=" ">
<path fill="none" stroke="#63b8ff" d="M578.02,-56.64C591.3,-48.37 610.85,-36.9 629,-29 633.07,-27.23 637.36,-25.54 641.7,-23.95"/>
<polygon fill="#63b8ff" stroke="#63b8ff" points="642.53,-27.03 650.84,-20.45 640.24,-20.41 642.53,-27.03"/>
</a>
</g>
</g>
<!-- Node8&#45;&gt;Node9 -->
<g id="edge8_Node000008_Node000009" class="edge">
<title>Node8&#45;&gt;Node9</title>
<g id="a_edge8_Node000008_Node000009"><a xlink:title=" ">
<path fill="none" stroke="#63b8ff" d="M355.55,-39.48C369.88,-43.8 386.68,-48.86 401.93,-53.46"/>
<polygon fill="#63b8ff" stroke="#63b8ff" points="400.61,-57.02 411.19,-56.55 402.63,-50.31 400.61,-57.02"/>
</a>
</g>
</g>
<!-- Node8&#45;&gt;Node10 -->
<g id="edge10_Node000008_Node000010" class="edge">
<title>Node8&#45;&gt;Node10</title>
<g id="a_edge10_Node000008_Node000010"><a xlink:title=" ">
<path fill="none" stroke="#63b8ff" d="M367,-29C374.92,-29 383.23,-29 391.37,-29"/>
<polygon fill="#63b8ff" stroke="#63b8ff" points="391.31,-32.5 401.31,-29 391.31,-25.5 391.31,-32.5"/>
</a>
</g>
</g>
<!-- Node9&#45;&gt;Node3 -->
<g id="edge9_Node000009_Node000003" class="edge">
<title>Node9&#45;&gt;Node3</title>
<g id="a_edge9_Node000009_Node000003"><a xlink:title=" ">
<path fill="none" stroke="#63b8ff" d="M492.48,-67C500.75,-67 509.4,-67 517.64,-67"/>
<polygon fill="#63b8ff" stroke="#63b8ff" points="517.54,-70.5 527.54,-67 517.54,-63.5 517.54,-70.5"/>
</a>
</g>
</g>
<!-- Node10&#45;&gt;Node3 -->
<g id="edge11_Node000010_Node000003" class="edge">
<title>Node10&#45;&gt;Node3</title>
<g id="a_edge11_Node000010_Node000003"><a xlink:title=" ">
<path fill="none" stroke="#63b8ff" d="M479.53,-39.48C491.8,-43.68 506.11,-48.57 519.23,-53.06"/>
<polygon fill="#63b8ff" stroke="#63b8ff" points="517.85,-56.63 528.44,-56.55 520.11,-50 517.85,-56.63"/>
</a>
</g>
</g>
</g>
</svg>
