<?xml version="1.0" encoding="UTF-8" standalone="no"?>
<!DOCTYPE svg PUBLIC "-//W3C//DTD SVG 1.1//EN"
 "http://www.w3.org/Graphics/SVG/1.1/DTD/svg11.dtd">
<!-- Generated by graphviz version 8.0.5 (20230430.1635)
 -->
<!-- Title: DeviceSet::get_data Pages: 1 -->
<svg width="617pt" height="572pt"
 viewBox="0.00 0.00 617.25 572.00" xmlns="http://www.w3.org/2000/svg" xmlns:xlink="http://www.w3.org/1999/xlink">
<g id="graph0" class="graph" transform="scale(1 1) rotate(0) translate(4 568)">
<title>DeviceSet::get_data</title>
<!-- Node1 -->
<g id="Node000001" class="node">
<title>Node1</title>
<g id="a_Node000001"><a xlink:title="Метод, осуществляющий проведение измерения и получение результатов измерения">
<polygon fill="#999999" stroke="#666666" points="103,-248 0,-248 0,-228 103,-228 103,-248"/>
<text text-anchor="middle" x="51.5" y="-234.5" font-family="Helvetica,sans-Serif" font-size="10.00">DeviceSet::get_data</text>
</a>
</g>
</g>
<!-- Node2 -->
<g id="Node000002" class="node">
<title>Node2</title>
<g id="a_Node000002"><a xlink:href="class_vna_device.html#a305e9719412a43677b2d660c507c20c0" target="_top" xlink:title="Создание необходимых трасс, в зависимости от того, используется ли внешний генератор">
<polygon fill="white" stroke="#666666" points="271.25,-520 144.25,-520 144.25,-500 271.25,-500 271.25,-520"/>
<text text-anchor="middle" x="207.75" y="-506.5" font-family="Helvetica,sans-Serif" font-size="10.00">VnaDevice::create_traces</text>
</a>
</g>
</g>
<!-- Node1&#45;&gt;Node2 -->
<g id="edge1_Node000001_Node000002" class="edge">
<title>Node1&#45;&gt;Node2</title>
<g id="a_edge1_Node000001_Node000002"><a xlink:title=" ">
<path fill="none" stroke="#63b8ff" d="M52.79,-248.47C54.44,-286.89 65.47,-421.48 139,-491 140.02,-491.97 141.09,-492.89 142.2,-493.76"/>
<polygon fill="#63b8ff" stroke="#63b8ff" points="140.04,-497.17 150.36,-499.59 143.8,-491.27 140.04,-497.17"/>
</a>
</g>
</g>
<!-- Node3 -->
<g id="Node000003" class="node">
<title>Node3</title>
<g id="a_Node000003"><a xlink:href="class_device_set.html#a3d6e4e4745a60475d3ec2d778e48ff51" target="_top" xlink:title="Получает список углов, на которые развёрнуты оси ОПУ">
<polygon fill="white" stroke="#666666" points="264.88,-482 150.62,-482 150.62,-450 264.88,-450 264.88,-482"/>
<text text-anchor="start" x="158.62" y="-468.5" font-family="Helvetica,sans-Serif" font-size="10.00">DeviceSet::get_current</text>
<text text-anchor="middle" x="207.75" y="-456.5" font-family="Helvetica,sans-Serif" font-size="10.00">_angles</text>
</a>
</g>
</g>
<!-- Node1&#45;&gt;Node3 -->
<g id="edge2_Node000001_Node000003" class="edge">
<title>Node1&#45;&gt;Node3</title>
<g id="a_edge2_Node000001_Node000003"><a xlink:title=" ">
<path fill="none" stroke="#63b8ff" d="M56.09,-248.46C66.08,-276.53 96.24,-355.01 139,-409 148.98,-421.61 162.12,-433.43 174.17,-443"/>
<polygon fill="#63b8ff" stroke="#63b8ff" points="171.62,-446.23 181.69,-449.55 175.89,-440.68 171.62,-446.23"/>
</a>
</g>
</g>
<!-- Node7 -->
<g id="Node000007" class="node">
<title>Node7</title>
<g id="a_Node000007"><a xlink:href="class_device_set.html#ae3031b84c03d467918bb40cfcfb3a8c4" target="_top" xlink:title="Получает текущее значение частоты зондирующего сигнала на подключенном генераторе">
<polygon fill="white" stroke="#666666" points="275.38,-400 140.12,-400 140.12,-380 275.38,-380 275.38,-400"/>
<text text-anchor="middle" x="207.75" y="-386.5" font-family="Helvetica,sans-Serif" font-size="10.00">DeviceSet::get_current_freq</text>
</a>
</g>
</g>
<!-- Node1&#45;&gt;Node7 -->
<g id="edge6_Node000001_Node000007" class="edge">
<title>Node1&#45;&gt;Node7</title>
<g id="a_edge6_Node000001_Node000007"><a xlink:title=" ">
<path fill="none" stroke="#63b8ff" d="M56.7,-248.26C67.07,-272.32 96.15,-332.85 139,-366 143.63,-369.58 148.83,-372.65 154.24,-375.28"/>
<polygon fill="#63b8ff" stroke="#63b8ff" points="152.57,-378.81 163.14,-379.56 155.35,-372.38 152.57,-378.81"/>
</a>
</g>
</g>
<!-- Node10 -->
<g id="Node000010" class="node">
<title>Node10</title>
<g id="a_Node000010"><a xlink:href="class_logger.html#af7709105c2708359b7b082218f4cc3e1" target="_top" xlink:title="Метод, осуществляющий логирование">
<polygon fill="white" stroke="#666666" points="413.62,-362 349.62,-362 349.62,-342 413.62,-342 413.62,-362"/>
<text text-anchor="middle" x="381.62" y="-348.5" font-family="Helvetica,sans-Serif" font-size="10.00">Logger::log</text>
</a>
</g>
</g>
<!-- Node1&#45;&gt;Node10 -->
<g id="edge21_Node000001_Node000010" class="edge">
<title>Node1&#45;&gt;Node10</title>
<g id="a_edge21_Node000001_Node000010"><a xlink:title=" ">
<path fill="none" stroke="#63b8ff" d="M58.24,-248.35C70.19,-268.76 99.94,-313.87 139,-333 203.12,-364.4 288.38,-362.52 338.6,-357.69"/>
<polygon fill="#63b8ff" stroke="#63b8ff" points="338.79,-361.08 348.36,-356.55 338.05,-354.12 338.79,-361.08"/>
</a>
</g>
</g>
<!-- Node15 -->
<g id="Node000015" class="node">
<title>Node15</title>
<g id="a_Node000015"><a xlink:href="class_vna_device.html#a57dfdf98bf3ce296b5d71672d98e6c2d" target="_top" xlink:title="Сбор данных, полученных в результате измерения, для одного порта">
<polygon fill="white" stroke="#666666" points="260.38,-324 155.12,-324 155.12,-304 260.38,-304 260.38,-324"/>
<text text-anchor="middle" x="207.75" y="-310.5" font-family="Helvetica,sans-Serif" font-size="10.00">VnaDevice::get_data</text>
</a>
</g>
</g>
<!-- Node1&#45;&gt;Node15 -->
<g id="edge14_Node000001_Node000015" class="edge">
<title>Node1&#45;&gt;Node15</title>
<g id="a_edge14_Node000001_Node000015"><a xlink:title=" ">
<path fill="none" stroke="#63b8ff" d="M65.52,-248.46C81.83,-261.09 111.02,-282.23 139,-295 143.06,-296.85 147.35,-298.57 151.71,-300.14"/>
<polygon fill="#63b8ff" stroke="#63b8ff" points="150.36,-303.71 160.95,-303.56 152.57,-297.07 150.36,-303.71"/>
</a>
</g>
</g>
<!-- Node16 -->
<g id="Node000016" class="node">
<title>Node16</title>
<g id="a_Node000016"><a xlink:href="class_device_set.html#a1f38931a5bc51dd54a661412cca9959c" target="_top" xlink:title="Получает вектор частотных точек">
<polygon fill="white" stroke="#666666" points="266.75,-286 148.75,-286 148.75,-266 266.75,-266 266.75,-286"/>
<text text-anchor="middle" x="207.75" y="-272.5" font-family="Helvetica,sans-Serif" font-size="10.00">DeviceSet::get_freq_list</text>
</a>
</g>
</g>
<!-- Node1&#45;&gt;Node16 -->
<g id="edge15_Node000001_Node000016" class="edge">
<title>Node1&#45;&gt;Node16</title>
<g id="a_edge15_Node000001_Node000016"><a xlink:title=" ">
<path fill="none" stroke="#63b8ff" d="M95.06,-248.48C113.18,-252.95 134.52,-258.21 153.66,-262.92"/>
<polygon fill="#63b8ff" stroke="#63b8ff" points="152.78,-266.56 163.33,-265.55 154.46,-259.76 152.78,-266.56"/>
</a>
</g>
</g>
<!-- Node20 -->
<g id="Node000020" class="node">
<title>Node20</title>
<g id="a_Node000020"><a xlink:href="class_vna_device.html#ae729cfabb9f5e9fc856e63351090bf8b" target="_top" xlink:title="Запрос номера зондирующего порта">
<polygon fill="white" stroke="#666666" points="276.5,-248 139,-248 139,-228 276.5,-228 276.5,-248"/>
<text text-anchor="middle" x="207.75" y="-234.5" font-family="Helvetica,sans-Serif" font-size="10.00">VnaDevice::get_source_port</text>
</a>
</g>
</g>
<!-- Node1&#45;&gt;Node20 -->
<g id="edge19_Node000001_Node000020" class="edge">
<title>Node1&#45;&gt;Node20</title>
<g id="a_edge19_Node000001_Node000020"><a xlink:title=" ">
<path fill="none" stroke="#63b8ff" d="M103.43,-238C111.24,-238 119.46,-238 127.71,-238"/>
<polygon fill="#63b8ff" stroke="#63b8ff" points="127.53,-241.5 137.53,-238 127.53,-234.5 127.53,-241.5"/>
</a>
</g>
</g>
<!-- Node21 -->
<g id="Node000021" class="node">
<title>Node21</title>
<g id="a_Node000021"><a xlink:href="class_vna_device.html#ac77ad0af5fcffde75ad9e53d5b2b8189" target="_top" xlink:title="Запуск измерения">
<polygon fill="white" stroke="#666666" points="248,-210 167.5,-210 167.5,-190 248,-190 248,-210"/>
<text text-anchor="middle" x="207.75" y="-196.5" font-family="Helvetica,sans-Serif" font-size="10.00">VnaDevice::init</text>
</a>
</g>
</g>
<!-- Node1&#45;&gt;Node21 -->
<g id="edge20_Node000001_Node000021" class="edge">
<title>Node1&#45;&gt;Node21</title>
<g id="a_edge20_Node000001_Node000021"><a xlink:title=" ">
<path fill="none" stroke="#63b8ff" d="M95.06,-227.52C114.18,-222.8 136.88,-217.21 156.81,-212.3"/>
<polygon fill="#63b8ff" stroke="#63b8ff" points="157.37,-215.52 166.24,-209.73 155.7,-208.73 157.37,-215.52"/>
</a>
</g>
</g>
<!-- Node22 -->
<g id="Node000022" class="node">
<title>Node22</title>
<g id="a_Node000022"><a xlink:href="class_gen_device.html#a3556133ef6b21e99831af31010de2492" target="_top" xlink:title=" ">
<polygon fill="white" stroke="#666666" points="252.12,-172 163.38,-172 163.38,-152 252.12,-152 252.12,-172"/>
<text text-anchor="middle" x="207.75" y="-158.5" font-family="Helvetica,sans-Serif" font-size="10.00">GenDevice::rf_off</text>
</a>
</g>
</g>
<!-- Node1&#45;&gt;Node22 -->
<g id="edge22_Node000001_Node000022" class="edge">
<title>Node1&#45;&gt;Node22</title>
<g id="a_edge22_Node000001_Node000022"><a xlink:title=" ">
<path fill="none" stroke="#63b8ff" d="M65.52,-227.54C81.83,-214.91 111.02,-193.77 139,-181 143.37,-179.01 147.99,-177.18 152.69,-175.51"/>
<polygon fill="#63b8ff" stroke="#63b8ff" points="153.62,-178.56 162.03,-172.11 151.44,-171.91 153.62,-178.56"/>
</a>
</g>
</g>
<!-- Node23 -->
<g id="Node000023" class="node">
<title>Node23</title>
<g id="a_Node000023"><a xlink:href="class_vna_device.html#a925f4c70172ee7f9d24e19465c03b33b" target="_top" xlink:title="Отключает все порты">
<polygon fill="white" stroke="#666666" points="251.75,-134 163.75,-134 163.75,-114 251.75,-114 251.75,-134"/>
<text text-anchor="middle" x="207.75" y="-120.5" font-family="Helvetica,sans-Serif" font-size="10.00">VnaDevice::rf_off</text>
</a>
</g>
</g>
<!-- Node1&#45;&gt;Node23 -->
<g id="edge23_Node000001_Node000023" class="edge">
<title>Node1&#45;&gt;Node23</title>
<g id="a_edge23_Node000001_Node000023"><a xlink:title=" ">
<path fill="none" stroke="#63b8ff" d="M58.98,-227.68C71.8,-208.12 102.36,-165.6 139,-143 143.38,-140.3 148.16,-137.97 153.08,-135.96"/>
<polygon fill="#63b8ff" stroke="#63b8ff" points="154.08,-138.96 162.31,-132.29 151.71,-132.38 154.08,-138.96"/>
</a>
</g>
</g>
<!-- Node24 -->
<g id="Node000024" class="node">
<title>Node24</title>
<g id="a_Node000024"><a xlink:href="class_gen_device.html#a4f7c81bd6bb61ce8c639dfd9fdc16766" target="_top" xlink:title=" ">
<polygon fill="white" stroke="#666666" points="252.5,-96 163,-96 163,-76 252.5,-76 252.5,-96"/>
<text text-anchor="middle" x="207.75" y="-82.5" font-family="Helvetica,sans-Serif" font-size="10.00">GenDevice::rf_on</text>
</a>
</g>
</g>
<!-- Node1&#45;&gt;Node24 -->
<g id="edge24_Node000001_Node000024" class="edge">
<title>Node1&#45;&gt;Node24</title>
<g id="a_edge24_Node000001_Node000024"><a xlink:title=" ">
<path fill="none" stroke="#63b8ff" d="M56.29,-227.52C65.95,-202.34 93.94,-138.11 139,-105 143.15,-101.95 147.77,-99.39 152.59,-97.24"/>
<polygon fill="#63b8ff" stroke="#63b8ff" points="153.6,-100.22 161.69,-93.38 151.1,-93.68 153.6,-100.22"/>
</a>
</g>
</g>
<!-- Node25 -->
<g id="Node000025" class="node">
<title>Node25</title>
<g id="a_Node000025"><a xlink:href="class_vna_device.html#a54c899426e88e979532978d36fcfa582" target="_top" xlink:title="Включает все порты">
<polygon fill="white" stroke="#666666" points="252.12,-58 163.38,-58 163.38,-38 252.12,-38 252.12,-58"/>
<text text-anchor="middle" x="207.75" y="-44.5" font-family="Helvetica,sans-Serif" font-size="10.00">VnaDevice::rf_on</text>
</a>
</g>
</g>
<!-- Node1&#45;&gt;Node25 -->
<g id="edge25_Node000001_Node000025" class="edge">
<title>Node1&#45;&gt;Node25</title>
<g id="a_edge25_Node000001_Node000025"><a xlink:title=" ">
<path fill="none" stroke="#63b8ff" d="M54.65,-227.72C61.4,-198.01 85.02,-111.36 139,-67 143.2,-63.55 147.98,-60.72 153.02,-58.41"/>
<polygon fill="#63b8ff" stroke="#63b8ff" points="153.89,-61.44 161.95,-54.57 151.36,-54.92 153.89,-61.44"/>
</a>
</g>
</g>
<!-- Node26 -->
<g id="Node000026" class="node">
<title>Node26</title>
<g id="a_Node000026"><a xlink:href="class_vna_device.html#a2141273efb5e7aa19f67bf06dc323546" target="_top" xlink:title="Перевод триггера в режим manual.">
<polygon fill="white" stroke="#666666" points="255.12,-20 160.38,-20 160.38,0 255.12,0 255.12,-20"/>
<text text-anchor="middle" x="207.75" y="-6.5" font-family="Helvetica,sans-Serif" font-size="10.00">VnaDevice::trigger</text>
</a>
</g>
</g>
<!-- Node1&#45;&gt;Node26 -->
<g id="edge26_Node000001_Node000026" class="edge">
<title>Node1&#45;&gt;Node26</title>
<g id="a_edge26_Node000001_Node000026"><a xlink:title=" ">
<path fill="none" stroke="#63b8ff" d="M53.59,-227.95C57.76,-194.37 75.86,-85.05 139,-29 142.39,-25.99 146.22,-23.45 150.3,-21.32"/>
<polygon fill="#63b8ff" stroke="#63b8ff" points="151.39,-24.22 159.15,-17.02 148.59,-17.81 151.39,-24.22"/>
</a>
</g>
</g>
<!-- Node4 -->
<g id="Node000004" class="node">
<title>Node4</title>
<g id="a_Node000004"><a xlink:href="class_rbd_device.html#ae5b34a03ceb0a14f39724a60fcd6ac3b" target="_top" xlink:title=" ">
<polygon fill="white" stroke="#666666" points="435.38,-564 327.88,-564 327.88,-532 435.38,-532 435.38,-564"/>
<text text-anchor="start" x="335.88" y="-550.5" font-family="Helvetica,sans-Serif" font-size="10.00">RbdDevice::get_axes</text>
<text text-anchor="middle" x="381.62" y="-538.5" font-family="Helvetica,sans-Serif" font-size="10.00">_count</text>
</a>
</g>
</g>
<!-- Node3&#45;&gt;Node4 -->
<g id="edge3_Node000003_Node000004" class="edge">
<title>Node3&#45;&gt;Node4</title>
<g id="a_edge3_Node000003_Node000004"><a xlink:title=" ">
<path fill="none" stroke="#63b8ff" d="M259.67,-482.41C265.5,-484.98 271.23,-487.84 276.5,-491 294.86,-502.01 294.13,-512.01 312.5,-523 314.82,-524.39 317.22,-525.72 319.69,-526.99"/>
<polygon fill="#63b8ff" stroke="#63b8ff" points="317.89,-530.48 328.42,-531.61 320.89,-524.16 317.89,-530.48"/>
</a>
</g>
</g>
<!-- Node5 -->
<g id="Node000005" class="node">
<title>Node5</title>
<g id="a_Node000005"><a xlink:href="class_rbd_device.html#a5ae75a0b5418270decd335a47c853cad" target="_top" xlink:title=" ">
<polygon fill="white" stroke="#666666" points="432.75,-514 330.5,-514 330.5,-494 432.75,-494 432.75,-514"/>
<text text-anchor="middle" x="381.62" y="-500.5" font-family="Helvetica,sans-Serif" font-size="10.00">RbdDevice::get_pos</text>
</a>
</g>
</g>
<!-- Node3&#45;&gt;Node5 -->
<g id="edge4_Node000003_Node000005" class="edge">
<title>Node3&#45;&gt;Node5</title>
<g id="a_edge4_Node000003_Node000005"><a xlink:title=" ">
<path fill="none" stroke="#63b8ff" d="M265.03,-478.44C283.44,-482.51 303.93,-487.04 322.48,-491.14"/>
<polygon fill="#63b8ff" stroke="#63b8ff" points="321.62,-494.76 332.14,-493.5 323.14,-487.93 321.62,-494.76"/>
</a>
</g>
</g>
<!-- Node6 -->
<g id="Node000006" class="node">
<title>Node6</title>
<g id="a_Node000006"><a xlink:href="class_rbd_device.html#a7f0fc01b4d9a94bae816f55828bd74e9" target="_top" xlink:title=" ">
<polygon fill="white" stroke="#666666" points="444.38,-476 318.88,-476 318.88,-456 444.38,-456 444.38,-476"/>
<text text-anchor="middle" x="381.62" y="-462.5" font-family="Helvetica,sans-Serif" font-size="10.00">RbdDevice::is_connected</text>
</a>
</g>
</g>
<!-- Node3&#45;&gt;Node6 -->
<g id="edge5_Node000003_Node000006" class="edge">
<title>Node3&#45;&gt;Node6</title>
<g id="a_edge5_Node000003_Node000006"><a xlink:title=" ">
<path fill="none" stroke="#63b8ff" d="M265.03,-466C278.68,-466 293.47,-466 307.77,-466"/>
<polygon fill="#63b8ff" stroke="#63b8ff" points="307.58,-469.5 317.58,-466 307.58,-462.5 307.58,-469.5"/>
</a>
</g>
</g>
<!-- Node8 -->
<g id="Node000008" class="node">
<title>Node8</title>
<g id="a_Node000008"><a xlink:href="class_gen_device.html#a497e5597ec277ac910051ee066920a8f" target="_top" xlink:title=" ">
<polygon fill="white" stroke="#666666" points="450.75,-438 312.5,-438 312.5,-418 450.75,-418 450.75,-438"/>
<text text-anchor="middle" x="381.62" y="-424.5" font-family="Helvetica,sans-Serif" font-size="10.00">GenDevice::get_current_freq</text>
</a>
</g>
</g>
<!-- Node7&#45;&gt;Node8 -->
<g id="edge7_Node000007_Node000008" class="edge">
<title>Node7&#45;&gt;Node8</title>
<g id="a_edge7_Node000007_Node000008"><a xlink:title=" ">
<path fill="none" stroke="#63b8ff" d="M256.17,-400.48C276.74,-405.03 301.02,-410.4 322.65,-415.18"/>
<polygon fill="#63b8ff" stroke="#63b8ff" points="321.84,-418.81 332.36,-417.55 323.35,-411.97 321.84,-418.81"/>
</a>
</g>
</g>
<!-- Node9 -->
<g id="Node000009" class="node">
<title>Node9</title>
<g id="a_Node000009"><a xlink:href="class_visa_device.html#aa53bc03ce9be2af514335565d585414e" target="_top" xlink:title="Метод, возвращающий значение флага connected.">
<polygon fill="white" stroke="#666666" points="445.5,-400 317.75,-400 317.75,-380 445.5,-380 445.5,-400"/>
<text text-anchor="middle" x="381.62" y="-386.5" font-family="Helvetica,sans-Serif" font-size="10.00">VisaDevice::is_connected</text>
</a>
</g>
</g>
<!-- Node7&#45;&gt;Node9 -->
<g id="edge8_Node000007_Node000009" class="edge">
<title>Node7&#45;&gt;Node9</title>
<g id="a_edge8_Node000007_Node000009"><a xlink:title=" ">
<path fill="none" stroke="#63b8ff" d="M275.69,-390C285.91,-390 296.5,-390 306.85,-390"/>
<polygon fill="#63b8ff" stroke="#63b8ff" points="306.52,-393.5 316.52,-390 306.52,-386.5 306.52,-393.5"/>
</a>
</g>
</g>
<!-- Node7&#45;&gt;Node10 -->
<g id="edge9_Node000007_Node000010" class="edge">
<title>Node7&#45;&gt;Node10</title>
<g id="a_edge9_Node000007_Node000010"><a xlink:title=" ">
<path fill="none" stroke="#63b8ff" d="M256.17,-379.52C282.05,-373.79 313.81,-366.77 338.76,-361.26"/>
<polygon fill="#63b8ff" stroke="#63b8ff" points="339.35,-364.49 348.35,-358.91 337.83,-357.66 339.35,-364.49"/>
</a>
</g>
</g>
<!-- Node11 -->
<g id="Node000011" class="node">
<title>Node11</title>
<g id="a_Node000011"><a xlink:href="logger_8hpp.html#a49284b7befa8e31f81e01ee8f3735dd0" target="_top" xlink:title="Функция, которая снимает значение текущего времени и конвертирует его в строку с заданным шаблоном.">
<polygon fill="white" stroke="#666666" points="592.38,-419 503.62,-419 503.62,-399 592.38,-399 592.38,-419"/>
<text text-anchor="middle" x="548" y="-405.5" font-family="Helvetica,sans-Serif" font-size="10.00">get_current_time</text>
</a>
</g>
</g>
<!-- Node10&#45;&gt;Node11 -->
<g id="edge10_Node000010_Node000011" class="edge">
<title>Node10&#45;&gt;Node11</title>
<g id="a_edge10_Node000010_Node000011"><a xlink:title=" ">
<path fill="none" stroke="#63b8ff" d="M413.95,-359.24C425.68,-362.33 439,-366.32 450.75,-371 467.56,-377.69 470.06,-383.03 486.75,-390 491.08,-391.81 495.65,-393.54 500.25,-395.18"/>
<polygon fill="#63b8ff" stroke="#63b8ff" points="498.7,-398.69 509.3,-398.59 500.95,-392.06 498.7,-398.69"/>
</a>
</g>
</g>
<!-- Node12 -->
<g id="Node000012" class="node">
<title>Node12</title>
<g id="a_Node000012"><a xlink:href="class_logger.html#a6edb7b263f080d417b82a537ed50fee4" target="_top" xlink:title="Возвращает тег в зависимости от уровня логирования и от назначения тега.">
<polygon fill="white" stroke="#666666" points="589.75,-381 506.25,-381 506.25,-361 589.75,-361 589.75,-381"/>
<text text-anchor="middle" x="548" y="-367.5" font-family="Helvetica,sans-Serif" font-size="10.00">Logger::get_tag</text>
</a>
</g>
</g>
<!-- Node10&#45;&gt;Node12 -->
<g id="edge11_Node000010_Node000012" class="edge">
<title>Node10&#45;&gt;Node12</title>
<g id="a_edge11_Node000010_Node000012"><a xlink:title=" ">
<path fill="none" stroke="#63b8ff" d="M413.93,-355.62C436.85,-358.27 468.48,-361.92 495.15,-365.01"/>
<polygon fill="#63b8ff" stroke="#63b8ff" points="494.52,-368.57 504.86,-366.24 495.33,-361.62 494.52,-368.57"/>
</a>
</g>
</g>
<!-- Node13 -->
<g id="Node000013" class="node">
<title>Node13</title>
<g id="a_Node000013"><a xlink:href="class_logger.html#a4825613142ebb093bf8fa26f21f7f3fc" target="_top" xlink:title="Метод, который выводит сообщение в консоль.">
<polygon fill="white" stroke="#666666" points="609.25,-343 486.75,-343 486.75,-323 609.25,-323 609.25,-343"/>
<text text-anchor="middle" x="548" y="-329.5" font-family="Helvetica,sans-Serif" font-size="10.00">Logger::print_to_console</text>
</a>
</g>
</g>
<!-- Node10&#45;&gt;Node13 -->
<g id="edge12_Node000010_Node000013" class="edge">
<title>Node10&#45;&gt;Node13</title>
<g id="a_edge12_Node000010_Node000013"><a xlink:title=" ">
<path fill="none" stroke="#63b8ff" d="M413.93,-348.38C431.46,-346.36 454.08,-343.74 475.69,-341.24"/>
<polygon fill="#63b8ff" stroke="#63b8ff" points="475.99,-344.62 485.52,-339.99 475.18,-337.66 475.99,-344.62"/>
</a>
</g>
</g>
<!-- Node14 -->
<g id="Node000014" class="node">
<title>Node14</title>
<g id="a_Node000014"><a xlink:href="class_logger.html#a999bb33f7cf079cb98f32fae6016a2f3" target="_top" xlink:title="Метод, который записывает сообщение в файл.">
<polygon fill="white" stroke="#666666" points="598.38,-305 497.62,-305 497.62,-285 598.38,-285 598.38,-305"/>
<text text-anchor="middle" x="548" y="-291.5" font-family="Helvetica,sans-Serif" font-size="10.00">Logger::print_to_file</text>
</a>
</g>
</g>
<!-- Node10&#45;&gt;Node14 -->
<g id="edge13_Node000010_Node000014" class="edge">
<title>Node10&#45;&gt;Node14</title>
<g id="a_edge13_Node000010_Node000014"><a xlink:title=" ">
<path fill="none" stroke="#63b8ff" d="M413.95,-344.76C425.68,-341.67 439,-337.68 450.75,-333 467.56,-326.31 470.06,-320.97 486.75,-314 491.08,-312.19 495.65,-310.46 500.25,-308.82"/>
<polygon fill="#63b8ff" stroke="#63b8ff" points="500.95,-311.94 509.3,-305.41 498.7,-305.31 500.95,-311.94"/>
</a>
</g>
</g>
<!-- Node17 -->
<g id="Node000017" class="node">
<title>Node17</title>
<g id="a_Node000017"><a xlink:href="class_vna_device.html#a596313270ef036ba566dd7975008b1d5" target="_top" xlink:title="Запрос ширины шага по частоте">
<polygon fill="white" stroke="#666666" points="444.75,-324 318.5,-324 318.5,-304 444.75,-304 444.75,-324"/>
<text text-anchor="middle" x="381.62" y="-310.5" font-family="Helvetica,sans-Serif" font-size="10.00">VnaDevice::get_freq_step</text>
</a>
</g>
</g>
<!-- Node16&#45;&gt;Node17 -->
<g id="edge16_Node000016_Node000017" class="edge">
<title>Node16&#45;&gt;Node17</title>
<g id="a_edge16_Node000016_Node000017"><a xlink:title=" ">
<path fill="none" stroke="#63b8ff" d="M256.17,-286.48C276.74,-291.03 301.02,-296.4 322.65,-301.18"/>
<polygon fill="#63b8ff" stroke="#63b8ff" points="321.84,-304.81 332.36,-303.55 323.35,-297.97 321.84,-304.81"/>
</a>
</g>
</g>
<!-- Node18 -->
<g id="Node000018" class="node">
<title>Node18</title>
<g id="a_Node000018"><a xlink:href="class_vna_device.html#afdeaa8974791094f16a034695d9f7035" target="_top" xlink:title="Запрос количества точек трассы">
<polygon fill="white" stroke="#666666" points="438,-286 325.25,-286 325.25,-266 438,-266 438,-286"/>
<text text-anchor="middle" x="381.62" y="-272.5" font-family="Helvetica,sans-Serif" font-size="10.00">VnaDevice::get_points</text>
</a>
</g>
</g>
<!-- Node16&#45;&gt;Node18 -->
<g id="edge17_Node000016_Node000018" class="edge">
<title>Node16&#45;&gt;Node18</title>
<g id="a_edge17_Node000016_Node000018"><a xlink:title=" ">
<path fill="none" stroke="#63b8ff" d="M266.94,-276C282.13,-276 298.62,-276 314.2,-276"/>
<polygon fill="#63b8ff" stroke="#63b8ff" points="313.82,-279.5 323.82,-276 313.82,-272.5 313.82,-279.5"/>
</a>
</g>
</g>
<!-- Node19 -->
<g id="Node000019" class="node">
<title>Node19</title>
<g id="a_Node000019"><a xlink:href="class_vna_device.html#a8fe6434c79a0188c98fce52d152aef76" target="_top" xlink:title="Запрос начальной частоты диапазона">
<polygon fill="white" stroke="#666666" points="445.12,-248 318.12,-248 318.12,-228 445.12,-228 445.12,-248"/>
<text text-anchor="middle" x="381.62" y="-234.5" font-family="Helvetica,sans-Serif" font-size="10.00">VnaDevice::get_start_freq</text>
</a>
</g>
</g>
<!-- Node16&#45;&gt;Node19 -->
<g id="edge18_Node000016_Node000019" class="edge">
<title>Node16&#45;&gt;Node19</title>
<g id="a_edge18_Node000016_Node000019"><a xlink:title=" ">
<path fill="none" stroke="#63b8ff" d="M256.17,-265.52C276.74,-260.97 301.02,-255.6 322.65,-250.82"/>
<polygon fill="#63b8ff" stroke="#63b8ff" points="323.35,-254.03 332.36,-248.45 321.84,-247.19 323.35,-254.03"/>
</a>
</g>
</g>
</g>
</svg>
