<?xml version="1.0" encoding="UTF-8" standalone="no"?>
<!DOCTYPE svg PUBLIC "-//W3C//DTD SVG 1.1//EN"
 "http://www.w3.org/Graphics/SVG/1.1/DTD/svg11.dtd">
<!-- Generated by graphviz version 8.0.5 (20230430.1635)
 -->
<!-- Title: TaskManager::proceed_task Pages: 1 -->
<svg width="808pt" height="558pt"
 viewBox="0.00 0.00 808.00 558.00" xmlns="http://www.w3.org/2000/svg" xmlns:xlink="http://www.w3.org/1999/xlink">
<g id="graph0" class="graph" transform="scale(1 1) rotate(0) translate(4 554)">
<title>TaskManager::proceed_task</title>
<!-- Node1 -->
<g id="Node000001" class="node">
<title>Node1</title>
<g id="a_Node000001"><a xlink:title=" ">
<polygon fill="#999999" stroke="#666666" points="139,-291 0,-291 0,-271 139,-271 139,-291"/>
<text text-anchor="middle" x="69.5" y="-277.5" font-family="Helvetica,sans-Serif" font-size="10.00">TaskManager::proceed_task</text>
</a>
</g>
</g>
<!-- Node2 -->
<g id="Node000002" class="node">
<title>Node2</title>
<g id="a_Node000002"><a xlink:href="class_task_manager.html#a77f0d9e4c9363a126cedba6c47cece49" target="_top" xlink:title=" ">
<polygon fill="white" stroke="#666666" points="320.38,-424 181.38,-424 181.38,-404 320.38,-404 320.38,-424"/>
<text text-anchor="middle" x="250.88" y="-410.5" font-family="Helvetica,sans-Serif" font-size="10.00">TaskManager::connect_task</text>
</a>
</g>
</g>
<!-- Node1&#45;&gt;Node2 -->
<g id="edge1_Node000001_Node000002" class="edge">
<title>Node1&#45;&gt;Node2</title>
<g id="a_edge1_Node000001_Node000002"><a xlink:title=" ">
<path fill="none" stroke="#63b8ff" d="M80.11,-291.41C97.66,-310.03 136.65,-349.55 175,-376 187.62,-384.71 202.51,-392.67 215.68,-399.04"/>
<polygon fill="#63b8ff" stroke="#63b8ff" points="213.8,-402.49 224.34,-403.58 216.78,-396.16 213.8,-402.49"/>
</a>
</g>
</g>
<!-- Node6 -->
<g id="Node000006" class="node">
<title>Node6</title>
<g id="a_Node000006"><a xlink:href="class_logger.html#af7709105c2708359b7b082218f4cc3e1" target="_top" xlink:title="Метод, осуществляющий логирование">
<polygon fill="white" stroke="#666666" points="609.62,-234 545.62,-234 545.62,-214 609.62,-214 609.62,-234"/>
<text text-anchor="middle" x="577.62" y="-220.5" font-family="Helvetica,sans-Serif" font-size="10.00">Logger::log</text>
</a>
</g>
</g>
<!-- Node1&#45;&gt;Node6 -->
<g id="edge15_Node000001_Node000006" class="edge">
<title>Node1&#45;&gt;Node6</title>
<g id="a_edge15_Node000001_Node000006"><a xlink:title=" ">
<path fill="none" stroke="#63b8ff" d="M137.83,-291.47C219.73,-301.85 361.47,-312.12 477.75,-281 506.73,-273.24 536.02,-254.72 555.11,-240.88"/>
<polygon fill="#63b8ff" stroke="#63b8ff" points="556.95,-243.13 562.87,-234.34 552.76,-237.52 556.95,-243.13"/>
</a>
</g>
</g>
<!-- Node12 -->
<g id="Node000012" class="node">
<title>Node12</title>
<g id="a_Node000012"><a xlink:href="class_task_manager.html#a87e7ab01c7c2920422402dda863da79c" target="_top" xlink:title=" ">
<polygon fill="white" stroke="#666666" points="326.75,-272 175,-272 175,-252 326.75,-252 326.75,-272"/>
<text text-anchor="middle" x="250.88" y="-258.5" font-family="Helvetica,sans-Serif" font-size="10.00">TaskManager::disconnect_task</text>
</a>
</g>
</g>
<!-- Node1&#45;&gt;Node12 -->
<g id="edge12_Node000001_Node000012" class="edge">
<title>Node1&#45;&gt;Node12</title>
<g id="a_edge12_Node000001_Node000012"><a xlink:title=" ">
<path fill="none" stroke="#63b8ff" d="M139.34,-273.71C147.38,-272.86 155.65,-271.98 163.88,-271.11"/>
<polygon fill="#63b8ff" stroke="#63b8ff" points="164.08,-274.5 173.66,-269.97 163.34,-267.54 164.08,-274.5"/>
</a>
</g>
</g>
<!-- Node14 -->
<g id="Node000014" class="node">
<title>Node14</title>
<g id="a_Node000014"><a xlink:href="class_task_manager.html#aa9dd8d653be63d6f9834fb96057d50a1" target="_top" xlink:title=" ">
<polygon fill="white" stroke="#666666" points="312.12,-104 189.62,-104 189.62,-72 312.12,-72 312.12,-104"/>
<text text-anchor="start" x="197.62" y="-90.5" font-family="Helvetica,sans-Serif" font-size="10.00">TaskManager::set_angle</text>
<text text-anchor="middle" x="250.88" y="-78.5" font-family="Helvetica,sans-Serif" font-size="10.00">_range_task</text>
</a>
</g>
</g>
<!-- Node1&#45;&gt;Node14 -->
<g id="edge16_Node000001_Node000014" class="edge">
<title>Node1&#45;&gt;Node14</title>
<g id="a_edge16_Node000001_Node000014"><a xlink:title=" ">
<path fill="none" stroke="#63b8ff" d="M79.95,-270.57C98.22,-250.45 139.67,-204.91 175,-167 192.34,-148.4 212.13,-127.53 227.01,-111.91"/>
<polygon fill="#63b8ff" stroke="#63b8ff" points="228.94,-114.92 233.31,-105.27 223.87,-110.09 228.94,-114.92"/>
</a>
</g>
</g>
<!-- Node19 -->
<g id="Node000019" class="node">
<title>Node19</title>
<g id="a_Node000019"><a xlink:href="class_task_manager.html#aaa0c608c54c59007d9b71fe2b5744bf6" target="_top" xlink:title=" ">
<polygon fill="white" stroke="#666666" points="324.12,-196 177.62,-196 177.62,-176 324.12,-176 324.12,-196"/>
<text text-anchor="middle" x="250.88" y="-182.5" font-family="Helvetica,sans-Serif" font-size="10.00">TaskManager::set_angle_task</text>
</a>
</g>
</g>
<!-- Node1&#45;&gt;Node19 -->
<g id="edge24_Node000001_Node000019" class="edge">
<title>Node1&#45;&gt;Node19</title>
<g id="a_edge24_Node000001_Node000019"><a xlink:title=" ">
<path fill="none" stroke="#63b8ff" d="M90.04,-270.65C121.49,-253.99 183.56,-221.12 220.41,-201.61"/>
<polygon fill="#63b8ff" stroke="#63b8ff" points="221.89,-204.25 229.09,-196.48 218.61,-198.07 221.89,-204.25"/>
</a>
</g>
</g>
<!-- Node22 -->
<g id="Node000022" class="node">
<title>Node22</title>
<g id="a_Node000022"><a xlink:href="class_task_manager.html#afa8af16e4cb8afaee8d3ffb5a16acdb5" target="_top" xlink:title=" ">
<polygon fill="white" stroke="#666666" points="321.88,-367 179.88,-367 179.88,-347 321.88,-347 321.88,-367"/>
<text text-anchor="middle" x="250.88" y="-353.5" font-family="Helvetica,sans-Serif" font-size="10.00">TaskManager::set_path_task</text>
</a>
</g>
</g>
<!-- Node1&#45;&gt;Node22 -->
<g id="edge29_Node000001_Node000022" class="edge">
<title>Node1&#45;&gt;Node22</title>
<g id="a_edge29_Node000001_Node000022"><a xlink:title=" ">
<path fill="none" stroke="#63b8ff" d="M95.07,-291.41C126.24,-304.62 180.2,-327.48 215.46,-342.42"/>
<polygon fill="#63b8ff" stroke="#63b8ff" points="213.75,-345.92 224.32,-346.6 216.48,-339.47 213.75,-345.92"/>
</a>
</g>
</g>
<!-- Node3 -->
<g id="Node000003" class="node">
<title>Node3</title>
<g id="a_Node000003"><a xlink:href="class_device_set.html#a2dab046962f4ada089046e2fa4769c23" target="_top" xlink:title="Метод, позволяющий осуществить подключение к устройству.">
<polygon fill="white" stroke="#666666" points="470.25,-512 370.25,-512 370.25,-492 470.25,-492 470.25,-512"/>
<text text-anchor="middle" x="420.25" y="-498.5" font-family="Helvetica,sans-Serif" font-size="10.00">DeviceSet::connect</text>
</a>
</g>
</g>
<!-- Node2&#45;&gt;Node3 -->
<g id="edge2_Node000002_Node000003" class="edge">
<title>Node2&#45;&gt;Node3</title>
<g id="a_edge2_Node000002_Node000003"><a xlink:title=" ">
<path fill="none" stroke="#63b8ff" d="M265.97,-424.28C286.46,-438.85 326.04,-465.69 362.75,-483 366.33,-484.69 370.1,-486.3 373.93,-487.81"/>
<polygon fill="#63b8ff" stroke="#63b8ff" points="372.5,-491.38 383.09,-491.59 374.94,-484.82 372.5,-491.38"/>
</a>
</g>
</g>
<!-- Node2&#45;&gt;Node6 -->
<g id="edge11_Node000002_Node000006" class="edge">
<title>Node2&#45;&gt;Node6</title>
<g id="a_edge11_Node000002_Node000006"><a xlink:title=" ">
<path fill="none" stroke="#63b8ff" d="M320.83,-424.05C368.49,-427.4 431.39,-424.4 477.75,-395 506.27,-376.91 549.42,-285.45 567.82,-244.21"/>
<polygon fill="#63b8ff" stroke="#63b8ff" points="571.39,-245.8 572.22,-235.23 564.98,-242.97 571.39,-245.8"/>
</a>
</g>
</g>
<!-- Node4 -->
<g id="Node000004" class="node">
<title>Node4</title>
<g id="a_Node000004"><a xlink:href="class_rbd_device.html#a7f0fc01b4d9a94bae816f55828bd74e9" target="_top" xlink:title=" ">
<polygon fill="white" stroke="#666666" points="640.38,-512 514.88,-512 514.88,-492 640.38,-492 640.38,-512"/>
<text text-anchor="middle" x="577.62" y="-498.5" font-family="Helvetica,sans-Serif" font-size="10.00">RbdDevice::is_connected</text>
</a>
</g>
</g>
<!-- Node3&#45;&gt;Node4 -->
<g id="edge3_Node000003_Node000004" class="edge">
<title>Node3&#45;&gt;Node4</title>
<g id="a_edge3_Node000003_Node000004"><a xlink:title=" ">
<path fill="none" stroke="#63b8ff" d="M470.41,-502C480.99,-502 492.39,-502 503.65,-502"/>
<polygon fill="#63b8ff" stroke="#63b8ff" points="503.38,-505.5 513.38,-502 503.38,-498.5 503.38,-505.5"/>
</a>
</g>
</g>
<!-- Node5 -->
<g id="Node000005" class="node">
<title>Node5</title>
<g id="a_Node000005"><a xlink:href="class_visa_device.html#aa53bc03ce9be2af514335565d585414e" target="_top" xlink:title="Метод, возвращающий значение флага connected.">
<polygon fill="white" stroke="#666666" points="641.5,-474 513.75,-474 513.75,-454 641.5,-454 641.5,-474"/>
<text text-anchor="middle" x="577.62" y="-460.5" font-family="Helvetica,sans-Serif" font-size="10.00">VisaDevice::is_connected</text>
</a>
</g>
</g>
<!-- Node3&#45;&gt;Node5 -->
<g id="edge4_Node000003_Node000005" class="edge">
<title>Node3&#45;&gt;Node5</title>
<g id="a_edge4_Node000003_Node000005"><a xlink:title=" ">
<path fill="none" stroke="#63b8ff" d="M464.12,-491.52C482.46,-487.03 504.06,-481.75 523.41,-477.01"/>
<polygon fill="#63b8ff" stroke="#63b8ff" points="524.01,-480.23 532.9,-474.45 522.35,-473.43 524.01,-480.23"/>
</a>
</g>
</g>
<!-- Node3&#45;&gt;Node6 -->
<g id="edge5_Node000003_Node000006" class="edge">
<title>Node3&#45;&gt;Node6</title>
<g id="a_edge5_Node000003_Node000006"><a xlink:title=" ">
<path fill="none" stroke="#63b8ff" d="M466.3,-491.57C470.53,-489.26 474.46,-486.44 477.75,-483 517.97,-440.88 493.24,-411.51 513.75,-357 529.26,-315.8 552.39,-269.78 565.84,-244.11"/>
<polygon fill="#63b8ff" stroke="#63b8ff" points="569.38,-245.91 570.97,-235.43 563.2,-242.63 569.38,-245.91"/>
</a>
</g>
</g>
<!-- Node11 -->
<g id="Node000011" class="node">
<title>Node11</title>
<g id="a_Node000011"><a xlink:href="class_vna_device.html#a0f7b7885465a905959c560fe1e72681a" target="_top" xlink:title="Сброс настроек">
<polygon fill="white" stroke="#666666" points="625,-550 530.25,-550 530.25,-530 625,-530 625,-550"/>
<text text-anchor="middle" x="577.62" y="-536.5" font-family="Helvetica,sans-Serif" font-size="10.00">VnaDevice::preset</text>
</a>
</g>
</g>
<!-- Node3&#45;&gt;Node11 -->
<g id="edge10_Node000003_Node000011" class="edge">
<title>Node3&#45;&gt;Node11</title>
<g id="a_edge10_Node000003_Node000011"><a xlink:title=" ">
<path fill="none" stroke="#63b8ff" d="M464.12,-512.48C482.46,-516.97 504.06,-522.25 523.41,-526.99"/>
<polygon fill="#63b8ff" stroke="#63b8ff" points="522.35,-530.57 532.9,-529.55 524.01,-523.77 522.35,-530.57"/>
</a>
</g>
</g>
<!-- Node7 -->
<g id="Node000007" class="node">
<title>Node7</title>
<g id="a_Node000007"><a xlink:href="logger_8hpp.html#a49284b7befa8e31f81e01ee8f3735dd0" target="_top" xlink:title="Функция, которая снимает значение текущего времени и конвертирует его в строку с заданным шаблоном.">
<polygon fill="white" stroke="#666666" points="783.12,-291 694.38,-291 694.38,-271 783.12,-271 783.12,-291"/>
<text text-anchor="middle" x="738.75" y="-277.5" font-family="Helvetica,sans-Serif" font-size="10.00">get_current_time</text>
</a>
</g>
</g>
<!-- Node6&#45;&gt;Node7 -->
<g id="edge6_Node000006_Node000007" class="edge">
<title>Node6&#45;&gt;Node7</title>
<g id="a_edge6_Node000006_Node000007"><a xlink:title=" ">
<path fill="none" stroke="#63b8ff" d="M604.49,-234.44C624.34,-242.33 652.5,-253.26 677.5,-262 682.55,-263.76 687.86,-265.55 693.15,-267.27"/>
<polygon fill="#63b8ff" stroke="#63b8ff" points="691.63,-270.78 702.22,-270.51 693.77,-264.12 691.63,-270.78"/>
</a>
</g>
</g>
<!-- Node8 -->
<g id="Node000008" class="node">
<title>Node8</title>
<g id="a_Node000008"><a xlink:href="class_logger.html#a6edb7b263f080d417b82a537ed50fee4" target="_top" xlink:title="Возвращает тег в зависимости от уровня логирования и от назначения тега.">
<polygon fill="white" stroke="#666666" points="780.5,-253 697,-253 697,-233 780.5,-233 780.5,-253"/>
<text text-anchor="middle" x="738.75" y="-239.5" font-family="Helvetica,sans-Serif" font-size="10.00">Logger::get_tag</text>
</a>
</g>
</g>
<!-- Node6&#45;&gt;Node8 -->
<g id="edge7_Node000006_Node000008" class="edge">
<title>Node6&#45;&gt;Node8</title>
<g id="a_edge7_Node000006_Node000008"><a xlink:title=" ">
<path fill="none" stroke="#63b8ff" d="M610.06,-227.75C631.68,-230.34 660.89,-233.82 685.92,-236.81"/>
<polygon fill="#63b8ff" stroke="#63b8ff" points="685.37,-240.39 695.72,-238.1 686.2,-233.44 685.37,-240.39"/>
</a>
</g>
</g>
<!-- Node9 -->
<g id="Node000009" class="node">
<title>Node9</title>
<g id="a_Node000009"><a xlink:href="class_logger.html#a4825613142ebb093bf8fa26f21f7f3fc" target="_top" xlink:title="Метод, который выводит сообщение в консоль.">
<polygon fill="white" stroke="#666666" points="800,-215 677.5,-215 677.5,-195 800,-195 800,-215"/>
<text text-anchor="middle" x="738.75" y="-201.5" font-family="Helvetica,sans-Serif" font-size="10.00">Logger::print_to_console</text>
</a>
</g>
</g>
<!-- Node6&#45;&gt;Node9 -->
<g id="edge8_Node000006_Node000009" class="edge">
<title>Node6&#45;&gt;Node9</title>
<g id="a_edge8_Node000006_Node000009"><a xlink:title=" ">
<path fill="none" stroke="#63b8ff" d="M610.06,-220.25C626.19,-218.32 646.54,-215.89 666.22,-213.54"/>
<polygon fill="#63b8ff" stroke="#63b8ff" points="666.55,-216.91 676.06,-212.25 665.72,-209.96 666.55,-216.91"/>
</a>
</g>
</g>
<!-- Node10 -->
<g id="Node000010" class="node">
<title>Node10</title>
<g id="a_Node000010"><a xlink:href="class_logger.html#a999bb33f7cf079cb98f32fae6016a2f3" target="_top" xlink:title="Метод, который записывает сообщение в файл.">
<polygon fill="white" stroke="#666666" points="789.12,-177 688.38,-177 688.38,-157 789.12,-157 789.12,-177"/>
<text text-anchor="middle" x="738.75" y="-163.5" font-family="Helvetica,sans-Serif" font-size="10.00">Logger::print_to_file</text>
</a>
</g>
</g>
<!-- Node6&#45;&gt;Node10 -->
<g id="edge9_Node000006_Node000010" class="edge">
<title>Node6&#45;&gt;Node10</title>
<g id="a_edge9_Node000006_Node000010"><a xlink:title=" ">
<path fill="none" stroke="#63b8ff" d="M604.49,-213.56C624.34,-205.67 652.5,-194.74 677.5,-186 682.55,-184.24 687.86,-182.45 693.15,-180.73"/>
<polygon fill="#63b8ff" stroke="#63b8ff" points="693.77,-183.88 702.22,-177.49 691.63,-177.22 693.77,-183.88"/>
</a>
</g>
</g>
<!-- Node12&#45;&gt;Node6 -->
<g id="edge14_Node000012_Node000006" class="edge">
<title>Node12&#45;&gt;Node6</title>
<g id="a_edge14_Node000012_Node000006"><a xlink:title=" ">
<path fill="none" stroke="#63b8ff" d="M307.58,-251.55C325.18,-248.49 344.74,-245.34 362.75,-243 422.14,-235.29 491.21,-229.77 534.43,-226.73"/>
<polygon fill="#63b8ff" stroke="#63b8ff" points="534.63,-230.16 544.37,-225.98 534.15,-223.18 534.63,-230.16"/>
</a>
</g>
</g>
<!-- Node13 -->
<g id="Node000013" class="node">
<title>Node13</title>
<g id="a_Node000013"><a xlink:href="class_device_set.html#a6241d8b37639241e2a370c1f7d533995" target="_top" xlink:title="Отключает все устройства и уничтожает созданные объекты">
<polygon fill="white" stroke="#666666" points="476.62,-272 363.88,-272 363.88,-252 476.62,-252 476.62,-272"/>
<text text-anchor="middle" x="420.25" y="-258.5" font-family="Helvetica,sans-Serif" font-size="10.00">DeviceSet::disconnect</text>
</a>
</g>
</g>
<!-- Node12&#45;&gt;Node13 -->
<g id="edge13_Node000012_Node000013" class="edge">
<title>Node12&#45;&gt;Node13</title>
<g id="a_edge13_Node000012_Node000013"><a xlink:title=" ">
<path fill="none" stroke="#63b8ff" d="M327.24,-262C335.81,-262 344.49,-262 352.93,-262"/>
<polygon fill="#63b8ff" stroke="#63b8ff" points="352.85,-265.5 362.85,-262 352.85,-258.5 352.85,-265.5"/>
</a>
</g>
</g>
<!-- Node14&#45;&gt;Node6 -->
<g id="edge17_Node000014_Node000006" class="edge">
<title>Node14&#45;&gt;Node6</title>
<g id="a_edge17_Node000014_Node000006"><a xlink:title=" ">
<path fill="none" stroke="#63b8ff" d="M312.31,-88.84C359.85,-91.8 426.4,-101.21 477.75,-129 498.21,-140.07 497.12,-150.73 513.75,-167 527.78,-180.73 544.24,-195.61 556.8,-206.72"/>
<polygon fill="#63b8ff" stroke="#63b8ff" points="553.97,-209.78 563.79,-213.75 558.6,-204.52 553.97,-209.78"/>
</a>
</g>
</g>
<!-- Node15 -->
<g id="Node000015" class="node">
<title>Node15</title>
<g id="a_Node000015"><a xlink:href="class_device_set.html#a42484914aabe91a0d030557db440fab0" target="_top" xlink:title="Устанавливает угловую точку, соответствующую началу диапазона.">
<polygon fill="white" stroke="#666666" points="471,-82 369.5,-82 369.5,-50 471,-50 471,-82"/>
<text text-anchor="start" x="377.5" y="-68.5" font-family="Helvetica,sans-Serif" font-size="10.00">DeviceSet::move_to</text>
<text text-anchor="middle" x="420.25" y="-56.5" font-family="Helvetica,sans-Serif" font-size="10.00">_start_angle</text>
</a>
</g>
</g>
<!-- Node14&#45;&gt;Node15 -->
<g id="edge18_Node000014_Node000015" class="edge">
<title>Node14&#45;&gt;Node15</title>
<g id="a_edge18_Node000014_Node000015"><a xlink:title=" ">
<path fill="none" stroke="#63b8ff" d="M312.3,-80.06C327.3,-78.09 343.37,-75.97 358.39,-74"/>
<polygon fill="#63b8ff" stroke="#63b8ff" points="358.64,-77.36 368.1,-72.59 357.73,-70.42 358.64,-77.36"/>
</a>
</g>
</g>
<!-- Node17 -->
<g id="Node000017" class="node">
<title>Node17</title>
<g id="a_Node000017"><a xlink:href="class_device_set.html#a9b37373d7b0a7c89cd57eca673df7fad" target="_top" xlink:title="Устанавливает диапазон изменения угла на определённой оси ОПУ">
<polygon fill="white" stroke="#666666" points="474,-32 366.5,-32 366.5,0 474,0 474,-32"/>
<text text-anchor="start" x="374.5" y="-18.5" font-family="Helvetica,sans-Serif" font-size="10.00">DeviceSet::set_angle</text>
<text text-anchor="middle" x="420.25" y="-6.5" font-family="Helvetica,sans-Serif" font-size="10.00">_range</text>
</a>
</g>
</g>
<!-- Node14&#45;&gt;Node17 -->
<g id="edge21_Node000014_Node000017" class="edge">
<title>Node14&#45;&gt;Node17</title>
<g id="a_edge21_Node000014_Node000017"><a xlink:title=" ">
<path fill="none" stroke="#63b8ff" d="M289.85,-71.66C313.95,-61.3 345.34,-47.79 371.17,-36.68"/>
<polygon fill="#63b8ff" stroke="#63b8ff" points="372.33,-39.56 380.13,-32.4 369.56,-33.13 372.33,-39.56"/>
</a>
</g>
</g>
<!-- Node15&#45;&gt;Node6 -->
<g id="edge19_Node000015_Node000006" class="edge">
<title>Node15&#45;&gt;Node6</title>
<g id="a_edge19_Node000015_Node000006"><a xlink:title=" ">
<path fill="none" stroke="#63b8ff" d="M459.94,-82.4C466.37,-86.24 472.62,-90.77 477.75,-96 502.53,-121.25 492.29,-138.87 513.75,-167 525.3,-182.13 541.2,-196.51 554.13,-207.04"/>
<polygon fill="#63b8ff" stroke="#63b8ff" points="551.49,-210.21 561.51,-213.67 555.84,-204.72 551.49,-210.21"/>
</a>
</g>
</g>
<!-- Node16 -->
<g id="Node000016" class="node">
<title>Node16</title>
<g id="a_Node000016"><a xlink:href="class_rbd_device.html#a54fd10b47f6c13d1ff985792799763f0" target="_top" xlink:title=" ">
<polygon fill="white" stroke="#666666" points="629.5,-82 525.75,-82 525.75,-50 629.5,-50 629.5,-82"/>
<text text-anchor="start" x="533.75" y="-68.5" font-family="Helvetica,sans-Serif" font-size="10.00">RbdDevice::move_to</text>
<text text-anchor="middle" x="577.62" y="-56.5" font-family="Helvetica,sans-Serif" font-size="10.00">_start_angle</text>
</a>
</g>
</g>
<!-- Node15&#45;&gt;Node16 -->
<g id="edge20_Node000015_Node000016" class="edge">
<title>Node15&#45;&gt;Node16</title>
<g id="a_edge20_Node000015_Node000016"><a xlink:title=" ">
<path fill="none" stroke="#63b8ff" d="M471.27,-66C485.05,-66 500.17,-66 514.55,-66"/>
<polygon fill="#63b8ff" stroke="#63b8ff" points="514.37,-69.5 524.37,-66 514.37,-62.5 514.37,-69.5"/>
</a>
</g>
</g>
<!-- Node17&#45;&gt;Node6 -->
<g id="edge22_Node000017_Node000006" class="edge">
<title>Node17&#45;&gt;Node6</title>
<g id="a_edge22_Node000017_Node000006"><a xlink:title=" ">
<path fill="none" stroke="#63b8ff" d="M468.03,-32.45C471.62,-34.93 474.93,-37.76 477.75,-41 515.99,-84.93 482.99,-117.54 513.75,-167 523.61,-182.86 539.12,-196.99 552.27,-207.21"/>
<polygon fill="#63b8ff" stroke="#63b8ff" points="549.78,-210.47 559.89,-213.64 553.97,-204.86 549.78,-210.47"/>
</a>
</g>
</g>
<!-- Node18 -->
<g id="Node000018" class="node">
<title>Node18</title>
<g id="a_Node000018"><a xlink:href="class_rbd_device.html#a3ce90b05c72560d35522397fa1295c8c" target="_top" xlink:title=" ">
<polygon fill="white" stroke="#666666" points="632.5,-32 522.75,-32 522.75,0 632.5,0 632.5,-32"/>
<text text-anchor="start" x="530.75" y="-18.5" font-family="Helvetica,sans-Serif" font-size="10.00">RbdDevice::set_angle</text>
<text text-anchor="middle" x="577.62" y="-6.5" font-family="Helvetica,sans-Serif" font-size="10.00">_range</text>
</a>
</g>
</g>
<!-- Node17&#45;&gt;Node18 -->
<g id="edge23_Node000017_Node000018" class="edge">
<title>Node17&#45;&gt;Node18</title>
<g id="a_edge23_Node000017_Node000018"><a xlink:title=" ">
<path fill="none" stroke="#63b8ff" d="M474.29,-16C486.32,-16 499.24,-16 511.7,-16"/>
<polygon fill="#63b8ff" stroke="#63b8ff" points="511.51,-19.5 521.51,-16 511.51,-12.5 511.51,-19.5"/>
</a>
</g>
</g>
<!-- Node19&#45;&gt;Node6 -->
<g id="edge25_Node000019_Node000006" class="edge">
<title>Node19&#45;&gt;Node6</title>
<g id="a_edge25_Node000019_Node000006"><a xlink:title=" ">
<path fill="none" stroke="#63b8ff" d="M324.35,-194.48C388.92,-202.04 481.2,-212.83 534.4,-219.06"/>
<polygon fill="#63b8ff" stroke="#63b8ff" points="533.8,-222.63 544.13,-220.32 534.61,-215.68 533.8,-222.63"/>
</a>
</g>
</g>
<!-- Node20 -->
<g id="Node000020" class="node">
<title>Node20</title>
<g id="a_Node000020"><a xlink:href="class_device_set.html#af831c582c73b80720d69b771c422a7eb" target="_top" xlink:title="Устанавливает требуемое значение угла у определённой оси ОПУ">
<polygon fill="white" stroke="#666666" points="474,-158 366.5,-158 366.5,-138 474,-138 474,-158"/>
<text text-anchor="middle" x="420.25" y="-144.5" font-family="Helvetica,sans-Serif" font-size="10.00">DeviceSet::set_angle</text>
</a>
</g>
</g>
<!-- Node19&#45;&gt;Node20 -->
<g id="edge26_Node000019_Node000020" class="edge">
<title>Node19&#45;&gt;Node20</title>
<g id="a_edge26_Node000019_Node000020"><a xlink:title=" ">
<path fill="none" stroke="#63b8ff" d="M298.05,-175.52C317.99,-170.99 341.52,-165.65 362.51,-160.88"/>
<polygon fill="#63b8ff" stroke="#63b8ff" points="363.24,-164.08 372.22,-158.45 361.69,-157.25 363.24,-164.08"/>
</a>
</g>
</g>
<!-- Node20&#45;&gt;Node6 -->
<g id="edge27_Node000020_Node000006" class="edge">
<title>Node20&#45;&gt;Node6</title>
<g id="a_edge27_Node000020_Node000006"><a xlink:title=" ">
<path fill="none" stroke="#63b8ff" d="M447.04,-158.43C456.75,-162.49 467.83,-167.3 477.75,-172 501.92,-183.47 528.76,-197.68 548.36,-208.34"/>
<polygon fill="#63b8ff" stroke="#63b8ff" points="546.45,-211.83 556.9,-213.56 549.81,-205.69 546.45,-211.83"/>
</a>
</g>
</g>
<!-- Node21 -->
<g id="Node000021" class="node">
<title>Node21</title>
<g id="a_Node000021"><a xlink:href="class_rbd_device.html#a38ac9ca45cdf5ee9526ac2488baa1285" target="_top" xlink:title=" ">
<polygon fill="white" stroke="#666666" points="632.5,-158 522.75,-158 522.75,-138 632.5,-138 632.5,-158"/>
<text text-anchor="middle" x="577.62" y="-144.5" font-family="Helvetica,sans-Serif" font-size="10.00">RbdDevice::set_angle</text>
</a>
</g>
</g>
<!-- Node20&#45;&gt;Node21 -->
<g id="edge28_Node000020_Node000021" class="edge">
<title>Node20&#45;&gt;Node21</title>
<g id="a_edge28_Node000020_Node000021"><a xlink:title=" ">
<path fill="none" stroke="#63b8ff" d="M474.29,-148C486.32,-148 499.24,-148 511.7,-148"/>
<polygon fill="#63b8ff" stroke="#63b8ff" points="511.51,-151.5 521.51,-148 511.51,-144.5 511.51,-151.5"/>
</a>
</g>
</g>
<!-- Node22&#45;&gt;Node6 -->
<g id="edge33_Node000022_Node000006" class="edge">
<title>Node22&#45;&gt;Node6</title>
<g id="a_edge33_Node000022_Node000006"><a xlink:title=" ">
<path fill="none" stroke="#63b8ff" d="M322.22,-353.51C368.47,-348.88 429.18,-338.26 477.75,-314 512.48,-296.65 544.03,-263.56 561.74,-242.7"/>
<polygon fill="#63b8ff" stroke="#63b8ff" points="564.98,-245.27 568.65,-235.33 559.58,-240.81 564.98,-245.27"/>
</a>
</g>
</g>
<!-- Node23 -->
<g id="Node000023" class="node">
<title>Node23</title>
<g id="a_Node000023"><a xlink:href="class_device_set.html#aeeb8d224788fe0663898a10aad363832" target="_top" xlink:title="Метод позволяет получить число переключателей, подключенных к ВАЦ.">
<polygon fill="white" stroke="#666666" points="477.75,-474 362.75,-474 362.75,-442 477.75,-442 477.75,-474"/>
<text text-anchor="start" x="370.75" y="-460.5" font-family="Helvetica,sans-Serif" font-size="10.00">DeviceSet::get_vna</text>
<text text-anchor="middle" x="420.25" y="-448.5" font-family="Helvetica,sans-Serif" font-size="10.00">_switch_module_count</text>
</a>
</g>
</g>
<!-- Node22&#45;&gt;Node23 -->
<g id="edge30_Node000022_Node000023" class="edge">
<title>Node22&#45;&gt;Node23</title>
<g id="a_edge30_Node000022_Node000023"><a xlink:title=" ">
<path fill="none" stroke="#63b8ff" d="M274.23,-367.41C289.32,-374.67 309.56,-384.84 326.75,-395 347.83,-407.46 370.57,-422.92 388.23,-435.41"/>
<polygon fill="#63b8ff" stroke="#63b8ff" points="385.8,-438.68 395.97,-441.63 389.86,-432.98 385.8,-438.68"/>
</a>
</g>
</g>
<!-- Node25 -->
<g id="Node000025" class="node">
<title>Node25</title>
<g id="a_Node000025"><a xlink:href="class_device_set.html#a905900391da22efd2f866843c81572d4" target="_top" xlink:title="Переводит переключатели в заданные положения">
<polygon fill="white" stroke="#666666" points="471.75,-386 368.75,-386 368.75,-366 471.75,-366 471.75,-386"/>
<text text-anchor="middle" x="420.25" y="-372.5" font-family="Helvetica,sans-Serif" font-size="10.00">DeviceSet::set_path</text>
</a>
</g>
</g>
<!-- Node22&#45;&gt;Node25 -->
<g id="edge34_Node000022_Node000025" class="edge">
<title>Node22&#45;&gt;Node25</title>
<g id="a_edge34_Node000022_Node000025"><a xlink:title=" ">
<path fill="none" stroke="#63b8ff" d="M322.37,-365C334.08,-366.33 346.15,-367.7 357.62,-369"/>
<polygon fill="#63b8ff" stroke="#63b8ff" points="357.08,-372.58 367.41,-370.23 357.86,-365.62 357.08,-372.58"/>
</a>
</g>
</g>
<!-- Node23&#45;&gt;Node5 -->
<g id="edge32_Node000023_Node000005" class="edge">
<title>Node23&#45;&gt;Node5</title>
<g id="a_edge32_Node000023_Node000005"><a xlink:title=" ">
<path fill="none" stroke="#63b8ff" d="M478.22,-460.2C486.17,-460.51 494.43,-460.83 502.64,-461.14"/>
<polygon fill="#63b8ff" stroke="#63b8ff" points="502.24,-464.67 512.37,-461.56 502.51,-457.67 502.24,-464.67"/>
</a>
</g>
</g>
<!-- Node24 -->
<g id="Node000024" class="node">
<title>Node24</title>
<g id="a_Node000024"><a xlink:href="class_vna_device.html#abbe7ac7ab8da8e7c27b7f7525d1d32a4" target="_top" xlink:title="Запрос количества переключателей, подключенных к ВАЦ">
<polygon fill="white" stroke="#666666" points="634.75,-436 520.5,-436 520.5,-404 634.75,-404 634.75,-436"/>
<text text-anchor="start" x="528.5" y="-422.5" font-family="Helvetica,sans-Serif" font-size="10.00">VnaDevice::get_switch</text>
<text text-anchor="middle" x="577.62" y="-410.5" font-family="Helvetica,sans-Serif" font-size="10.00">_module_count</text>
</a>
</g>
</g>
<!-- Node23&#45;&gt;Node24 -->
<g id="edge31_Node000023_Node000024" class="edge">
<title>Node23&#45;&gt;Node24</title>
<g id="a_edge31_Node000023_Node000024"><a xlink:title=" ">
<path fill="none" stroke="#63b8ff" d="M478.22,-444.07C488.49,-441.56 499.27,-438.92 509.78,-436.35"/>
<polygon fill="#63b8ff" stroke="#63b8ff" points="510.3,-439.58 519.18,-433.81 508.63,-432.78 510.3,-439.58"/>
</a>
</g>
</g>
<!-- Node25&#45;&gt;Node6 -->
<g id="edge35_Node000025_Node000006" class="edge">
<title>Node25&#45;&gt;Node6</title>
<g id="a_edge35_Node000025_Node000006"><a xlink:title=" ">
<path fill="none" stroke="#63b8ff" d="M453.6,-365.59C461.94,-362.04 470.58,-357.54 477.75,-352 517.37,-321.42 549.75,-271.38 565.76,-243.79"/>
<polygon fill="#63b8ff" stroke="#63b8ff" points="569.2,-245.84 571.08,-235.41 563.11,-242.38 569.2,-245.84"/>
</a>
</g>
</g>
<!-- Node26 -->
<g id="Node000026" class="node">
<title>Node26</title>
<g id="a_Node000026"><a xlink:href="class_vna_device.html#a0b803a51b1c38828781291cdcae07495" target="_top" xlink:title="Установка положений переключателей в определённые позиции">
<polygon fill="white" stroke="#666666" points="630.25,-386 525,-386 525,-366 630.25,-366 630.25,-386"/>
<text text-anchor="middle" x="577.62" y="-372.5" font-family="Helvetica,sans-Serif" font-size="10.00">VnaDevice::set_path</text>
</a>
</g>
</g>
<!-- Node25&#45;&gt;Node26 -->
<g id="edge36_Node000025_Node000026" class="edge">
<title>Node25&#45;&gt;Node26</title>
<g id="a_edge36_Node000025_Node000026"><a xlink:title=" ">
<path fill="none" stroke="#63b8ff" d="M472.13,-376C485.39,-376 499.85,-376 513.67,-376"/>
<polygon fill="#63b8ff" stroke="#63b8ff" points="513.57,-379.5 523.57,-376 513.57,-372.5 513.57,-379.5"/>
</a>
</g>
</g>
</g>
</svg>
