<?xml version="1.0" encoding="UTF-8" standalone="no"?>
<!DOCTYPE svg PUBLIC "-//W3C//DTD SVG 1.1//EN"
 "http://www.w3.org/Graphics/SVG/1.1/DTD/svg11.dtd">
<!-- Generated by graphviz version 8.0.5 (20230430.1635)
 -->
<!-- Title: VnaDevice::VnaDevice Pages: 1 -->
<svg width="811pt" height="180pt"
 viewBox="0.00 0.00 810.50 180.00" xmlns="http://www.w3.org/2000/svg" xmlns:xlink="http://www.w3.org/1999/xlink">
<g id="graph0" class="graph" transform="scale(1 1) rotate(0) translate(4 176)">
<title>VnaDevice::VnaDevice</title>
<!-- Node1 -->
<g id="Node000001" class="node">
<title>Node1</title>
<g id="a_Node000001"><a xlink:title=" ">
<polygon fill="#999999" stroke="#666666" points="113.5,-115 0,-115 0,-95 113.5,-95 113.5,-115"/>
<text text-anchor="middle" x="56.75" y="-101.5" font-family="Helvetica,sans-Serif" font-size="10.00">VnaDevice::VnaDevice</text>
</a>
</g>
</g>
<!-- Node2 -->
<g id="Node000002" class="node">
<title>Node2</title>
<g id="a_Node000002"><a xlink:href="class_visa_device.html#abdcf5ce2846fecd0908bf7419c73c595" target="_top" xlink:title=" ">
<polygon fill="white" stroke="#666666" points="417.75,-172 313.25,-172 313.25,-152 417.75,-152 417.75,-172"/>
<text text-anchor="middle" x="365.5" y="-158.5" font-family="Helvetica,sans-Serif" font-size="10.00">VisaDevice::connect</text>
</a>
</g>
</g>
<!-- Node1&#45;&gt;Node2 -->
<g id="edge1_Node000001_Node000002" class="edge">
<title>Node1&#45;&gt;Node2</title>
<g id="a_edge1_Node000001_Node000002"><a xlink:title=" ">
<path fill="none" stroke="#63b8ff" d="M81.82,-115.41C100.06,-122.87 125.92,-132.52 149.5,-138 200.15,-149.76 258.9,-155.82 302.17,-158.91"/>
<polygon fill="#63b8ff" stroke="#63b8ff" points="301.89,-162.46 312.11,-159.65 302.36,-155.48 301.89,-162.46"/>
</a>
</g>
</g>
<!-- Node3 -->
<g id="Node000003" class="node">
<title>Node3</title>
<g id="a_Node000003"><a xlink:href="class_logger.html#af7709105c2708359b7b082218f4cc3e1" target="_top" xlink:title="Функция, осуществляющая логирование">
<polygon fill="white" stroke="#666666" points="644,-96 580,-96 580,-76 644,-76 644,-96"/>
<text text-anchor="middle" x="612" y="-82.5" font-family="Helvetica,sans-Serif" font-size="10.00">Logger::log</text>
</a>
</g>
</g>
<!-- Node1&#45;&gt;Node3 -->
<g id="edge15_Node000001_Node000003" class="edge">
<title>Node1&#45;&gt;Node3</title>
<g id="a_edge15_Node000001_Node000003"><a xlink:title=" ">
<path fill="none" stroke="#63b8ff" d="M113.76,-108.12C204.48,-112.34 389.01,-117.49 544,-100 552.13,-99.08 560.73,-97.65 568.96,-96.04"/>
<polygon fill="#63b8ff" stroke="#63b8ff" points="569.42,-99.31 578.5,-93.85 568,-92.45 569.42,-99.31"/>
</a>
</g>
</g>
<!-- Node8 -->
<g id="Node000008" class="node">
<title>Node8</title>
<g id="a_Node000008"><a xlink:href="class_visa_device.html#a3f6602a4daf668fa4a06a1fe2821d0c7" target="_top" xlink:title=" ">
<polygon fill="white" stroke="#666666" points="254.75,-96 172,-96 172,-76 254.75,-76 254.75,-96"/>
<text text-anchor="middle" x="213.38" y="-82.5" font-family="Helvetica,sans-Serif" font-size="10.00">VisaDevice::idn</text>
</a>
</g>
</g>
<!-- Node1&#45;&gt;Node8 -->
<g id="edge7_Node000001_Node000008" class="edge">
<title>Node1&#45;&gt;Node8</title>
<g id="a_edge7_Node000001_Node000008"><a xlink:title=" ">
<path fill="none" stroke="#63b8ff" d="M113.57,-98.14C129.03,-96.24 145.72,-94.19 160.92,-92.32"/>
<polygon fill="#63b8ff" stroke="#63b8ff" points="161.17,-95.69 170.67,-91 160.32,-88.75 161.17,-95.69"/>
</a>
</g>
</g>
<!-- Node12 -->
<g id="Node000012" class="node">
<title>Node12</title>
<g id="a_Node000012"><a xlink:href="class_visa_device.html#aa53bc03ce9be2af514335565d585414e" target="_top" xlink:title=" ">
<polygon fill="white" stroke="#666666" points="277.25,-58 149.5,-58 149.5,-38 277.25,-38 277.25,-58"/>
<text text-anchor="middle" x="213.38" y="-44.5" font-family="Helvetica,sans-Serif" font-size="10.00">VisaDevice::is_connected</text>
</a>
</g>
</g>
<!-- Node1&#45;&gt;Node12 -->
<g id="edge14_Node000001_Node000012" class="edge">
<title>Node1&#45;&gt;Node12</title>
<g id="a_edge14_Node000001_Node000012"><a xlink:title=" ">
<path fill="none" stroke="#63b8ff" d="M81.26,-94.51C99.65,-86.48 125.96,-75.41 149.5,-67 154.6,-65.18 159.98,-63.38 165.35,-61.65"/>
<polygon fill="#63b8ff" stroke="#63b8ff" points="166.1,-64.77 174.6,-58.44 164.01,-58.09 166.1,-64.77"/>
</a>
</g>
</g>
<!-- Node2&#45;&gt;Node3 -->
<g id="edge2_Node000002_Node000003" class="edge">
<title>Node2&#45;&gt;Node3</title>
<g id="a_edge2_Node000002_Node000003"><a xlink:title=" ">
<path fill="none" stroke="#63b8ff" d="M418.08,-162.06C454.53,-160.44 503.85,-154.84 544,-138 562.75,-130.13 580.78,-115.62 593.4,-103.92"/>
<polygon fill="#63b8ff" stroke="#63b8ff" points="595.44,-106.84 600.21,-97.38 590.58,-101.8 595.44,-106.84"/>
</a>
</g>
</g>
<!-- Node4 -->
<g id="Node000004" class="node">
<title>Node4</title>
<g id="a_Node000004"><a xlink:href="logger_8hpp.html#a49284b7befa8e31f81e01ee8f3735dd0" target="_top" xlink:title="Функция, которая снимает значение текущего времени и конвертирует его в строку с заданным шаблоном.">
<polygon fill="white" stroke="#666666" points="785.62,-153 696.88,-153 696.88,-133 785.62,-133 785.62,-153"/>
<text text-anchor="middle" x="741.25" y="-139.5" font-family="Helvetica,sans-Serif" font-size="10.00">get_current_time</text>
</a>
</g>
</g>
<!-- Node3&#45;&gt;Node4 -->
<g id="edge3_Node000003_Node000004" class="edge">
<title>Node3&#45;&gt;Node4</title>
<g id="a_edge3_Node000003_Node000004"><a xlink:title=" ">
<path fill="none" stroke="#63b8ff" d="M629.02,-96.36C642.3,-104.63 661.85,-116.1 680,-124 684.07,-125.77 688.36,-127.46 692.7,-129.05"/>
<polygon fill="#63b8ff" stroke="#63b8ff" points="691.24,-132.59 701.84,-132.55 693.53,-125.97 691.24,-132.59"/>
</a>
</g>
</g>
<!-- Node5 -->
<g id="Node000005" class="node">
<title>Node5</title>
<g id="a_Node000005"><a xlink:href="class_logger.html#a6edb7b263f080d417b82a537ed50fee4" target="_top" xlink:title="Функция, возвращающая тег в зависимости от уровня логирования и от назначения тега.">
<polygon fill="white" stroke="#666666" points="783,-115 699.5,-115 699.5,-95 783,-95 783,-115"/>
<text text-anchor="middle" x="741.25" y="-101.5" font-family="Helvetica,sans-Serif" font-size="10.00">Logger::get_tag</text>
</a>
</g>
</g>
<!-- Node3&#45;&gt;Node5 -->
<g id="edge4_Node000003_Node000005" class="edge">
<title>Node3&#45;&gt;Node5</title>
<g id="a_edge4_Node000003_Node000005"><a xlink:title=" ">
<path fill="none" stroke="#63b8ff" d="M644.46,-90.7C657.72,-92.68 673.52,-95.04 688.42,-97.26"/>
<polygon fill="#63b8ff" stroke="#63b8ff" points="687.66,-100.84 698.07,-98.85 688.69,-93.91 687.66,-100.84"/>
</a>
</g>
</g>
<!-- Node6 -->
<g id="Node000006" class="node">
<title>Node6</title>
<g id="a_Node000006"><a xlink:href="class_logger.html#a4825613142ebb093bf8fa26f21f7f3fc" target="_top" xlink:title="Функция, которая выводит сообщение в консоль.">
<polygon fill="white" stroke="#666666" points="802.5,-77 680,-77 680,-57 802.5,-57 802.5,-77"/>
<text text-anchor="middle" x="741.25" y="-63.5" font-family="Helvetica,sans-Serif" font-size="10.00">Logger::print_to_console</text>
</a>
</g>
</g>
<!-- Node3&#45;&gt;Node6 -->
<g id="edge5_Node000003_Node000006" class="edge">
<title>Node3&#45;&gt;Node6</title>
<g id="a_edge5_Node000003_Node000006"><a xlink:title=" ">
<path fill="none" stroke="#63b8ff" d="M644.46,-81.3C651.96,-80.18 660.27,-78.94 668.78,-77.67"/>
<polygon fill="#63b8ff" stroke="#63b8ff" points="669.23,-80.99 678.6,-76.06 668.19,-74.07 669.23,-80.99"/>
</a>
</g>
</g>
<!-- Node7 -->
<g id="Node000007" class="node">
<title>Node7</title>
<g id="a_Node000007"><a xlink:href="class_logger.html#a999bb33f7cf079cb98f32fae6016a2f3" target="_top" xlink:title="Функция, которая записывает сообщение в файл.">
<polygon fill="white" stroke="#666666" points="791.62,-39 690.88,-39 690.88,-19 791.62,-19 791.62,-39"/>
<text text-anchor="middle" x="741.25" y="-25.5" font-family="Helvetica,sans-Serif" font-size="10.00">Logger::print_to_file</text>
</a>
</g>
</g>
<!-- Node3&#45;&gt;Node7 -->
<g id="edge6_Node000003_Node000007" class="edge">
<title>Node3&#45;&gt;Node7</title>
<g id="a_edge6_Node000003_Node000007"><a xlink:title=" ">
<path fill="none" stroke="#63b8ff" d="M629.02,-75.64C642.3,-67.37 661.85,-55.9 680,-48 684.07,-46.23 688.36,-44.54 692.7,-42.95"/>
<polygon fill="#63b8ff" stroke="#63b8ff" points="693.53,-46.03 701.84,-39.45 691.24,-39.41 693.53,-46.03"/>
</a>
</g>
</g>
<!-- Node8&#45;&gt;Node3 -->
<g id="edge8_Node000008_Node000003" class="edge">
<title>Node8&#45;&gt;Node3</title>
<g id="a_edge8_Node000008_Node000003"><a xlink:title=" ">
<path fill="none" stroke="#63b8ff" d="M254.96,-86C330.61,-86 492.43,-86 569.08,-86"/>
<polygon fill="#63b8ff" stroke="#63b8ff" points="568.75,-89.5 578.75,-86 568.75,-82.5 568.75,-89.5"/>
</a>
</g>
</g>
<!-- Node9 -->
<g id="Node000009" class="node">
<title>Node9</title>
<g id="a_Node000009"><a xlink:href="class_visa_device.html#aa807192fd9a8c3e6efc458f78de5e73e" target="_top" xlink:title=" ">
<polygon fill="white" stroke="#666666" points="412.5,-58 318.5,-58 318.5,-38 412.5,-38 412.5,-58"/>
<text text-anchor="middle" x="365.5" y="-44.5" font-family="Helvetica,sans-Serif" font-size="10.00">VisaDevice::query</text>
</a>
</g>
</g>
<!-- Node8&#45;&gt;Node9 -->
<g id="edge9_Node000008_Node000009" class="edge">
<title>Node8&#45;&gt;Node9</title>
<g id="a_edge9_Node000008_Node000009"><a xlink:title=" ">
<path fill="none" stroke="#63b8ff" d="M255,-75.72C272.72,-71.23 293.71,-65.92 312.55,-61.15"/>
<polygon fill="#63b8ff" stroke="#63b8ff" points="313.22,-64.34 322.06,-58.49 311.5,-57.55 313.22,-64.34"/>
</a>
</g>
</g>
<!-- Node10 -->
<g id="Node000010" class="node">
<title>Node10</title>
<g id="a_Node000010"><a xlink:href="class_visa_device.html#aca08d9dbb0469f1143668a485e4adfe2" target="_top" xlink:title=" ">
<polygon fill="white" stroke="#666666" points="543.25,-58 454.5,-58 454.5,-38 543.25,-38 543.25,-58"/>
<text text-anchor="middle" x="498.88" y="-44.5" font-family="Helvetica,sans-Serif" font-size="10.00">VisaDevice::read</text>
</a>
</g>
</g>
<!-- Node9&#45;&gt;Node10 -->
<g id="edge10_Node000009_Node000010" class="edge">
<title>Node9&#45;&gt;Node10</title>
<g id="a_edge10_Node000009_Node000010"><a xlink:title=" ">
<path fill="none" stroke="#63b8ff" d="M412.82,-48C422.69,-48 433.21,-48 443.36,-48"/>
<polygon fill="#63b8ff" stroke="#63b8ff" points="443.18,-51.5 453.18,-48 443.18,-44.5 443.18,-51.5"/>
</a>
</g>
</g>
<!-- Node11 -->
<g id="Node000011" class="node">
<title>Node11</title>
<g id="a_Node000011"><a xlink:href="class_visa_device.html#a29202c3f5e47326386d1d27972e25267" target="_top" xlink:title=" ">
<polygon fill="white" stroke="#666666" points="544,-20 453.75,-20 453.75,0 544,0 544,-20"/>
<text text-anchor="middle" x="498.88" y="-6.5" font-family="Helvetica,sans-Serif" font-size="10.00">VisaDevice::write</text>
</a>
</g>
</g>
<!-- Node9&#45;&gt;Node11 -->
<g id="edge12_Node000009_Node000011" class="edge">
<title>Node9&#45;&gt;Node11</title>
<g id="a_edge12_Node000009_Node000011"><a xlink:title=" ">
<path fill="none" stroke="#63b8ff" d="M402.75,-37.52C417.82,-33.15 435.51,-28.04 451.52,-23.41"/>
<polygon fill="#63b8ff" stroke="#63b8ff" points="452.11,-26.59 460.75,-20.45 450.17,-19.87 452.11,-26.59"/>
</a>
</g>
</g>
<!-- Node10&#45;&gt;Node3 -->
<g id="edge11_Node000010_Node000003" class="edge">
<title>Node10&#45;&gt;Node3</title>
<g id="a_edge11_Node000010_Node000003"><a xlink:title=" ">
<path fill="none" stroke="#63b8ff" d="M530.53,-58.48C542.8,-62.68 557.11,-67.57 570.23,-72.06"/>
<polygon fill="#63b8ff" stroke="#63b8ff" points="568.85,-75.63 579.44,-75.55 571.11,-69 568.85,-75.63"/>
</a>
</g>
</g>
<!-- Node11&#45;&gt;Node3 -->
<g id="edge13_Node000011_Node000003" class="edge">
<title>Node11&#45;&gt;Node3</title>
<g id="a_edge13_Node000011_Node000003"><a xlink:title=" ">
<path fill="none" stroke="#63b8ff" d="M527.59,-20.43C533.18,-22.94 538.9,-25.83 544,-29 562.09,-40.24 580.35,-56.14 593.23,-68.3"/>
<polygon fill="#63b8ff" stroke="#63b8ff" points="590.24,-70.24 599.86,-74.66 595.1,-65.2 590.24,-70.24"/>
</a>
</g>
</g>
</g>
</svg>
