<?xml version="1.0" encoding="UTF-8" standalone="no"?>
<!DOCTYPE svg PUBLIC "-//W3C//DTD SVG 1.1//EN"
 "http://www.w3.org/Graphics/SVG/1.1/DTD/svg11.dtd">
<!-- Generated by graphviz version 8.0.5 (20230430.1635)
 -->
<!-- Title: RbdDevice::set_angle_range Pages: 1 -->
<!--zoomable 71 -->

<svg id="main" version="1.1" xmlns="http://www.w3.org/2000/svg" xmlns:xlink="http://www.w3.org/1999/xlink" xml:space="preserve" onload="init(evt)">
<style type="text/css"><![CDATA[
.node, .edge {opacity: 0.7;}
.node.selected, .edge.selected {opacity: 1;}
.edge:hover path { stroke: red; }
.edge:hover polygon { stroke: red; fill: red; }
]]></style>

<defs>
  <circle id="rim" cx="0" cy="0" r="7"/>
  <circle id="rim2" cx="0" cy="0" r="3.5"/>
  <g id="zoomPlus">
    <use xlink:href="#rim" fill="#404040"><set attributeName="fill" to="#808080" begin="zoomplus.mouseover" end="zoomplus.mouseout"/></use>
    <path d="M-4,0h8M0,-4v8" fill="none" stroke="white" stroke-width="1.5" pointer-events="none"/>
  </g>
  <g id="zoomMin">
    <use xlink:href="#rim" fill="#404040"><set attributeName="fill" to="#808080" begin="zoomminus.mouseover" end="zoomminus.mouseout"/></use>
    <path d="M-4,0h8" fill="none" stroke="white" stroke-width="1.5" pointer-events="none"/>
  </g>
  <g id="arrowUp" transform="translate(30 24)">
    <use xlink:href="#rim"/>
    <path pointer-events="none" fill="none" stroke="white" stroke-width="1.5" d="M0,-3.0v7 M-2.5,-0.5L0,-3.0L2.5,-0.5"/>
  </g>
  <g id="arrowRight" transform="rotate(90) translate(36 -43)">
    <use xlink:href="#rim"/>
    <path pointer-events="none" fill="none" stroke="white" stroke-width="1.5" d="M0,-3.0v7 M-2.5,-0.5L0,-3.0L2.5,-0.5"/>
  </g>
  <g id="arrowDown" transform="rotate(180) translate(-30 -48)">
    <use xlink:href="#rim"/>
    <path pointer-events="none" fill="none" stroke="white" stroke-width="1.5" d="M0,-3.0v7 M-2.5,-0.5L0,-3.0L2.5,-0.5"/>
  </g>
  <g id="arrowLeft" transform="rotate(270) translate(-36 17)">
    <use xlink:href="#rim"/>
    <path pointer-events="none" fill="none" stroke="white" stroke-width="1.5" d="M0,-3.0v7 M-2.5,-0.5L0,-3.0L2.5,-0.5"/>
  </g>
  <g id="resetDef">
    <use xlink:href="#rim2" fill="#404040"><set attributeName="fill" to="#808080" begin="reset.mouseover" end="reset.mouseout"/></use>
  </g>
</defs>
<script type="application/ecmascript">
var viewWidth = 1262;
var viewHeight = 71;
var sectionId = 'dynsection-4';
</script>
<script type="application/ecmascript" xlink:href="svg.min.js"/>
<svg id="graph" class="graph">
<g id="viewport">
<title>RbdDevice::set_angle_range</title>
<!-- Node1 -->
<g id="Node000001" class="node">
<title>Node1</title>
<g id="a_Node000001"><a xlink:title="Задаёт диапазон изменения угла для определённой оси">
<polygon fill="#999999" stroke="#666666" points="1254,-45.86 1144.25,-45.86 1144.25,-13.86 1254,-13.86 1254,-45.86"/>
<text text-anchor="start" x="1152.25" y="-32.36" font-family="Helvetica,sans-Serif" font-size="10.00">RbdDevice::set_angle</text>
<text text-anchor="middle" x="1199.12" y="-20.36" font-family="Helvetica,sans-Serif" font-size="10.00">_range</text>
</a>
</g>
</g>
<!-- Node2 -->
<g id="Node000002" class="node">
<title>Node2</title>
<g id="a_Node000002"><a xlink:href="class_device_set.html#a9b37373d7b0a7c89cd57eca673df7fad" target="_top" xlink:title="Устанавливает диапазон изменения угла на определённой оси ОПУ">
<polygon fill="white" stroke="#666666" points="1108.25,-45.86 1000.75,-45.86 1000.75,-13.86 1108.25,-13.86 1108.25,-45.86"/>
<text text-anchor="start" x="1008.75" y="-32.36" font-family="Helvetica,sans-Serif" font-size="10.00">DeviceSet::set_angle</text>
<text text-anchor="middle" x="1054.5" y="-20.36" font-family="Helvetica,sans-Serif" font-size="10.00">_range</text>
</a>
</g>
</g>
<!-- Node1&#45;&gt;Node2 -->
<g id="edge1_Node000001_Node000002" class="edge">
<title>Node1&#45;&gt;Node2</title>
<g id="a_edge1_Node000001_Node000002"><a xlink:title=" ">
<path fill="none" stroke="#63b8ff" d="M1132.88,-29.86C1124.8,-29.86 1116.61,-29.86 1108.73,-29.86"/>
<polygon fill="#63b8ff" stroke="#63b8ff" points="1132.8,-33.36 1142.8,-29.86 1132.8,-26.36 1132.8,-33.36"/>
</a>
</g>
</g>
<!-- Node3 -->
<g id="Node000003" class="node">
<title>Node3</title>
<g id="a_Node000003"><a xlink:href="class_task_manager.html#aa9dd8d653be63d6f9834fb96057d50a1" target="_top" xlink:title="Метод, обрабатывающий задание на изменение углового диапазона">
<polygon fill="white" stroke="#666666" points="964.75,-45.86 842.25,-45.86 842.25,-13.86 964.75,-13.86 964.75,-45.86"/>
<text text-anchor="start" x="850.25" y="-32.36" font-family="Helvetica,sans-Serif" font-size="10.00">TaskManager::set_angle</text>
<text text-anchor="middle" x="903.5" y="-20.36" font-family="Helvetica,sans-Serif" font-size="10.00">_range_task</text>
</a>
</g>
</g>
<!-- Node2&#45;&gt;Node3 -->
<g id="edge2_Node000002_Node000003" class="edge">
<title>Node2&#45;&gt;Node3</title>
<g id="a_edge2_Node000002_Node000003"><a xlink:title=" ">
<path fill="none" stroke="#63b8ff" d="M989.62,-29.86C981.51,-29.86 973.22,-29.86 965.16,-29.86"/>
<polygon fill="#63b8ff" stroke="#63b8ff" points="989.55,-33.36 999.55,-29.86 989.55,-26.36 989.55,-33.36"/>
</a>
</g>
</g>
<!-- Node4 -->
<g id="Node000004" class="node">
<title>Node4</title>
<g id="a_Node000004"><a xlink:href="class_task_manager.html#abf6a739a56cdc1bdf2cd71666c6f31be" target="_top" xlink:title="Метод, обрабатывающий пришедшее задание.">
<polygon fill="white" stroke="#666666" points="806.25,-39.86 667.25,-39.86 667.25,-19.86 806.25,-19.86 806.25,-39.86"/>
<text text-anchor="middle" x="736.75" y="-26.36" font-family="Helvetica,sans-Serif" font-size="10.00">TaskManager::proceed_task</text>
</a>
</g>
</g>
<!-- Node3&#45;&gt;Node4 -->
<g id="edge3_Node000003_Node000004" class="edge">
<title>Node3&#45;&gt;Node4</title>
<g id="a_edge3_Node000003_Node000004"><a xlink:title=" ">
<path fill="none" stroke="#63b8ff" d="M831.37,-29.86C823.12,-29.86 814.72,-29.86 806.51,-29.86"/>
<polygon fill="#63b8ff" stroke="#63b8ff" points="831.09,-33.36 841.09,-29.86 831.09,-26.36 831.09,-33.36"/>
</a>
</g>
</g>
<!-- Node5 -->
<g id="Node000005" class="node">
<title>Node5</title>
<g id="a_Node000005"><a xlink:href="class_task_manager.html#a62720d3b2e70353688122cf2b706b3ce" target="_top" xlink:title="Метод, производящий обработку принятого JSON&#45;объекта">
<polygon fill="white" stroke="#666666" points="329.25,-61.86 214.25,-61.86 214.25,-41.86 329.25,-41.86 329.25,-61.86"/>
<text text-anchor="middle" x="271.75" y="-48.36" font-family="Helvetica,sans-Serif" font-size="10.00">TaskManager::proceed</text>
</a>
</g>
</g>
<!-- Node4&#45;&gt;Node5 -->
<g id="edge4_Node000004_Node000005" class="edge">
<title>Node4&#45;&gt;Node5</title>
<g id="a_edge4_Node000004_Node000005"><a xlink:title=" ">
<path fill="none" stroke="#63b8ff" d="M690.9,-43.03C672.58,-47.77 651.07,-52.52 631.25,-54.86 525.24,-67.36 400.37,-61.77 329.49,-56.71"/>
<polygon fill="#63b8ff" stroke="#63b8ff" points="691.53,-46.22 700.28,-40.26 689.72,-39.46 691.53,-46.22"/>
</a>
</g>
</g>
<!-- Node8 -->
<g id="Node000008" class="node">
<title>Node8</title>
<g id="a_Node000008"><a xlink:href="class_task_manager.html#ad9d635ee64d44cc34b619f2e3018e9d1" target="_top" xlink:title="Метод, позволяющий произвести обработку списка заданий, с учётом вложенности">
<polygon fill="white" stroke="#666666" points="631.25,-45.86 516.25,-45.86 516.25,-13.86 631.25,-13.86 631.25,-45.86"/>
<text text-anchor="start" x="524.25" y="-32.36" font-family="Helvetica,sans-Serif" font-size="10.00">TaskManager::proceed</text>
<text text-anchor="middle" x="573.75" y="-20.36" font-family="Helvetica,sans-Serif" font-size="10.00">_nested_task_list</text>
</a>
</g>
</g>
<!-- Node4&#45;&gt;Node8 -->
<g id="edge7_Node000004_Node000008" class="edge">
<title>Node4&#45;&gt;Node8</title>
<g id="a_edge7_Node000004_Node000008"><a xlink:title=" ">
<path fill="none" stroke="#63b8ff" d="M656.16,-29.86C647.88,-29.86 639.59,-29.86 631.63,-29.86"/>
<polygon fill="#63b8ff" stroke="#63b8ff" points="656,-33.36 666,-29.86 656,-26.36 656,-33.36"/>
</a>
</g>
</g>
<!-- Node9 -->
<g id="Node000009" class="node">
<title>Node9</title>
<g id="a_Node000009"><a xlink:href="class_task_manager.html#a4b629612e2a111fdcc964c4eb3f8b1f4" target="_top" xlink:title="Метод, обрабатывающий список заданий.">
<polygon fill="white" stroke="#666666" points="480.25,-45.86 365.25,-45.86 365.25,-13.86 480.25,-13.86 480.25,-45.86"/>
<text text-anchor="start" x="373.25" y="-32.36" font-family="Helvetica,sans-Serif" font-size="10.00">TaskManager::proceed</text>
<text text-anchor="middle" x="422.75" y="-20.36" font-family="Helvetica,sans-Serif" font-size="10.00">_task_list</text>
</a>
</g>
</g>
<!-- Node4&#45;&gt;Node9 -->
<g id="edge10_Node000004_Node000009" class="edge">
<title>Node4&#45;&gt;Node9</title>
<g id="a_edge10_Node000004_Node000009"><a xlink:title=" ">
<path fill="none" stroke="#63b8ff" d="M690.9,-16.69C672.58,-11.95 651.07,-7.2 631.25,-4.86 580.49,1.13 566.92,1.87 516.25,-4.86 502.73,-6.66 488.38,-9.87 475.12,-13.4"/>
<polygon fill="#63b8ff" stroke="#63b8ff" points="689.72,-20.26 700.28,-19.46 691.53,-13.5 689.72,-20.26"/>
</a>
</g>
</g>
<!-- Node6 -->
<g id="Node000006" class="node">
<title>Node6</title>
<g id="a_Node000006"><a xlink:href="main_8cpp.html#a205c0f32d26b6f27c711fa201d02c983" target="_top" xlink:title="Обработка принятых данных и отправка результата обработки клиенту">
<polygon fill="white" stroke="#666666" points="178.25,-61.86 73,-61.86 73,-41.86 178.25,-41.86 178.25,-61.86"/>
<text text-anchor="middle" x="125.62" y="-48.36" font-family="Helvetica,sans-Serif" font-size="10.00">data_server_thread_f</text>
</a>
</g>
</g>
<!-- Node5&#45;&gt;Node6 -->
<g id="edge5_Node000005_Node000006" class="edge">
<title>Node5&#45;&gt;Node6</title>
<g id="a_edge5_Node000005_Node000006"><a xlink:title=" ">
<path fill="none" stroke="#63b8ff" d="M203.03,-51.86C194.78,-51.86 186.46,-51.86 178.49,-51.86"/>
<polygon fill="#63b8ff" stroke="#63b8ff" points="202.79,-55.36 212.79,-51.86 202.79,-48.36 202.79,-55.36"/>
</a>
</g>
</g>
<!-- Node7 -->
<g id="Node000007" class="node">
<title>Node7</title>
<g id="a_Node000007"><a xlink:href="main_8cpp.html#a0ddf1224851353fc92bfbff6f499fa97" target="_top" xlink:title=" ">
<polygon fill="white" stroke="#666666" points="37,-61.86 0,-61.86 0,-41.86 37,-41.86 37,-61.86"/>
<text text-anchor="middle" x="18.5" y="-48.36" font-family="Helvetica,sans-Serif" font-size="10.00">main</text>
</a>
</g>
</g>
<!-- Node6&#45;&gt;Node7 -->
<g id="edge6_Node000006_Node000007" class="edge">
<title>Node6&#45;&gt;Node7</title>
<g id="a_edge6_Node000006_Node000007"><a xlink:title=" ">
<path fill="none" stroke="#63b8ff" d="M61.91,-51.86C52.84,-51.86 44.2,-51.86 37.1,-51.86"/>
<polygon fill="#63b8ff" stroke="#63b8ff" points="61.68,-55.36 71.68,-51.86 61.68,-48.36 61.68,-55.36"/>
</a>
</g>
</g>
<!-- Node8&#45;&gt;Node9 -->
<g id="edge8_Node000008_Node000009" class="edge">
<title>Node8&#45;&gt;Node9</title>
<g id="a_edge8_Node000008_Node000009"><a xlink:title=" ">
<path fill="none" stroke="#63b8ff" d="M505.18,-29.86C496.88,-29.86 488.46,-29.86 480.35,-29.86"/>
<polygon fill="#63b8ff" stroke="#63b8ff" points="504.99,-33.36 514.99,-29.86 504.99,-26.36 504.99,-33.36"/>
</a>
</g>
</g>
<!-- Node9&#45;&gt;Node5 -->
<g id="edge9_Node000009_Node000005" class="edge">
<title>Node9&#45;&gt;Node5</title>
<g id="a_edge9_Node000009_Node000005"><a xlink:title=" ">
<path fill="none" stroke="#63b8ff" d="M354.18,-39.84C345.88,-41.06 337.46,-42.3 329.35,-43.5"/>
<polygon fill="#63b8ff" stroke="#63b8ff" points="354.61,-43.16 363.99,-38.24 353.59,-36.24 354.61,-43.16"/>
</a>
</g>
</g>
</g>
</svg>

<g id="navigator" transform="translate(0 0)" fill="#404254">
  <rect fill="#f2f5e9" fill-opacity="0.5" stroke="#606060" stroke-width=".5" x="0" y="0" width="60" height="60"/>
  <use id="zoomplus" xlink:href="#zoomPlus" x="17" y="9" onmousedown="handleZoom(evt,'in')"/>
  <use id="zoomminus" xlink:href="#zoomMin" x="42" y="9" onmousedown="handleZoom(evt,'out')"/>
  <use id="reset" xlink:href="#resetDef" x="30" y="36" onmousedown="handleReset()"/>
   <use id="arrowup" xlink:href="#arrowUp" x="0" y="0" onmousedown="handlePan(0,-1)"/>
  <use id="arrowright" xlink:href="#arrowRight" x="0" y="0" onmousedown="handlePan(1,0)"/>
  <use id="arrowdown" xlink:href="#arrowDown" x="0" y="0" onmousedown="handlePan(0,1)"/>
  <use id="arrowleft" xlink:href="#arrowLeft" x="0" y="0" onmousedown="handlePan(-1,0)"/>
</g>
<svg viewBox="0 0 15 15" width="100%" height="30px" preserveAspectRatio="xMaxYMin meet">
 <g id="arrow_out" transform="scale(0.3 0.3)">
  <a xlink:href="class_rbd_device_a3ce90b05c72560d35522397fa1295c8c_icgraph_org.svg" target="_base">
   <rect id="button" ry="5" rx="5" y="6" x="6" height="38" width="38"
        fill="#f2f5e9" fill-opacity="0.5" stroke="#606060" stroke-width="1.0"/>
   <path id="arrow"
     d="M 11.500037,31.436501 C 11.940474,20.09759 22.043105,11.32322 32.158766,21.979434 L 37.068811,17.246167 C 37.068811,17.246167 37.088388,32 37.088388,32 L 22.160133,31.978069 C 22.160133,31.978069 26.997745,27.140456 26.997745,27.140456 C 18.528582,18.264221 13.291696,25.230495 11.500037,31.436501 z"
     style="fill:#404040;"/>
  </a>
 </g>
</svg>

<style type='text/css'>
<![CDATA[
[data-mouse-over-selected='false'] { opacity: 0.7; }
[data-mouse-over-selected='true']  { opacity: 1.0; }
]]>
</style>
<script type="application/ecmascript"><![CDATA[
document.addEventListener('DOMContentLoaded', (event) => {
  highlightEdges();
  highlightAdjacentNodes();
});
]]></script>
</svg>
