<?xml version="1.0" encoding="UTF-8" standalone="no"?>
<!DOCTYPE svg PUBLIC "-//W3C//DTD SVG 1.1//EN"
 "http://www.w3.org/Graphics/SVG/1.1/DTD/svg11.dtd">
<!-- Generated by graphviz version 8.1.0 (20230707.0739)
 -->
<!-- Title: PlanarS50244::get_data Pages: 1 -->
<svg width="770pt" height="142pt"
 viewBox="0.00 0.00 770.00 142.00" xmlns="http://www.w3.org/2000/svg" xmlns:xlink="http://www.w3.org/1999/xlink">
<g id="graph0" class="graph" transform="scale(1 1) rotate(0) translate(4 138)">
<title>PlanarS50244::get_data</title>
<!-- Node1 -->
<g id="Node000001" class="node">
<title>Node1</title>
<g id="a_Node000001"><a xlink:title="Сбор данных, полученных в результате измерения, для одного порта">
<polygon fill="#999999" stroke="#666666" points="120.25,-39 0,-39 0,-19 120.25,-19 120.25,-39"/>
<text text-anchor="middle" x="60.12" y="-25.5" font-family="Helvetica,sans-Serif" font-size="10.00">PlanarS50244::get_data</text>
</a>
</g>
</g>
<!-- Node2 -->
<g id="Node000002" class="node">
<title>Node2</title>
<g id="a_Node000002"><a xlink:href="class_visa_device.html#ad659ba652605f5c983958400fde8c808" target="_top" xlink:title="Отправка данных на прибор и чтение ответа от прибора.">
<polygon fill="white" stroke="#666666" points="247.25,-58 156.25,-58 156.25,-38 247.25,-38 247.25,-58"/>
<text text-anchor="middle" x="201.75" y="-44.5" font-family="Helvetica,sans-Serif" font-size="10.00">VisaDevice::send</text>
</a>
</g>
</g>
<!-- Node1&#45;&gt;Node2 -->
<g id="edge1_Node000001_Node000002" class="edge">
<title>Node1&#45;&gt;Node2</title>
<g id="a_edge1_Node000001_Node000002"><a xlink:title=" ">
<path fill="none" stroke="#63b8ff" d="M120.74,-37.11C128.9,-38.22 137.24,-39.36 145.31,-40.46"/>
<polygon fill="#63b8ff" stroke="#63b8ff" points="144.74,-44.05 155.12,-41.93 145.68,-37.11 144.74,-44.05"/>
</a>
</g>
</g>
<!-- Node11 -->
<g id="Node000011" class="node">
<title>Node11</title>
<g id="a_Node000011"><a xlink:href="namespacestring__utils.html#a95dbb7f33d4ea2396617ddd7953302d0" target="_top" xlink:title="Деление строки на вектор строк по заданному делителю">
<polygon fill="white" stroke="#666666" points="245.38,-20 158.12,-20 158.12,0 245.38,0 245.38,-20"/>
<text text-anchor="middle" x="201.75" y="-6.5" font-family="Helvetica,sans-Serif" font-size="10.00">string_utils::split</text>
</a>
</g>
</g>
<!-- Node1&#45;&gt;Node11 -->
<g id="edge14_Node000001_Node000011" class="edge">
<title>Node1&#45;&gt;Node11</title>
<g id="a_edge14_Node000001_Node000011"><a xlink:title=" ">
<path fill="none" stroke="#63b8ff" d="M120.74,-20.89C129.5,-19.7 138.47,-18.47 147.1,-17.3"/>
<polygon fill="#63b8ff" stroke="#63b8ff" points="147.36,-20.66 156.8,-15.85 146.42,-13.73 147.36,-20.66"/>
</a>
</g>
</g>
<!-- Node3 -->
<g id="Node000003" class="node">
<title>Node3</title>
<g id="a_Node000003"><a xlink:href="class_logger.html#af7709105c2708359b7b082218f4cc3e1" target="_top" xlink:title="Метод, осуществляющий логирование">
<polygon fill="white" stroke="#666666" points="603.5,-77 539.5,-77 539.5,-57 603.5,-57 603.5,-77"/>
<text text-anchor="middle" x="571.5" y="-63.5" font-family="Helvetica,sans-Serif" font-size="10.00">Logger::log</text>
</a>
</g>
</g>
<!-- Node2&#45;&gt;Node3 -->
<g id="edge2_Node000002_Node000003" class="edge">
<title>Node2&#45;&gt;Node3</title>
<g id="a_edge2_Node000002_Node000003"><a xlink:title=" ">
<path fill="none" stroke="#63b8ff" d="M234.58,-58.39C249.26,-62.85 267,-67.76 283.25,-71 379.48,-90.16 406.32,-99.51 503.5,-86 512.27,-84.78 521.5,-82.7 530.22,-80.36"/>
<polygon fill="#63b8ff" stroke="#63b8ff" points="530.88,-83.53 539.53,-77.41 528.95,-76.8 530.88,-83.53"/>
</a>
</g>
</g>
<!-- Node8 -->
<g id="Node000008" class="node">
<title>Node8</title>
<g id="a_Node000008"><a xlink:href="class_visa_device.html#aa807192fd9a8c3e6efc458f78de5e73e" target="_top" xlink:title="Метод, совмещающий в себе методы write() и read().">
<polygon fill="white" stroke="#666666" points="377.25,-39 283.25,-39 283.25,-19 377.25,-19 377.25,-39"/>
<text text-anchor="middle" x="330.25" y="-25.5" font-family="Helvetica,sans-Serif" font-size="10.00">VisaDevice::query</text>
</a>
</g>
</g>
<!-- Node2&#45;&gt;Node8 -->
<g id="edge7_Node000002_Node000008" class="edge">
<title>Node2&#45;&gt;Node8</title>
<g id="a_edge7_Node000002_Node000008"><a xlink:title=" ">
<path fill="none" stroke="#63b8ff" d="M247.71,-41.25C255.7,-40.05 264.13,-38.78 272.41,-37.54"/>
<polygon fill="#63b8ff" stroke="#63b8ff" points="272.79,-40.87 282.16,-35.92 271.75,-33.95 272.79,-40.87"/>
</a>
</g>
</g>
<!-- Node9 -->
<g id="Node000009" class="node">
<title>Node9</title>
<g id="a_Node000009"><a xlink:href="class_visa_device.html#aca08d9dbb0469f1143668a485e4adfe2" target="_top" xlink:title="Метод, позволяющий считать данные с устройства">
<polygon fill="white" stroke="#666666" points="502.75,-77 414,-77 414,-57 502.75,-57 502.75,-77"/>
<text text-anchor="middle" x="458.38" y="-63.5" font-family="Helvetica,sans-Serif" font-size="10.00">VisaDevice::read</text>
</a>
</g>
</g>
<!-- Node2&#45;&gt;Node9 -->
<g id="edge12_Node000002_Node000009" class="edge">
<title>Node2&#45;&gt;Node9</title>
<g id="a_edge12_Node000002_Node000009"><a xlink:title=" ">
<path fill="none" stroke="#63b8ff" d="M247.69,-51.35C291.04,-54.59 356.72,-59.49 403,-62.94"/>
<polygon fill="#63b8ff" stroke="#63b8ff" points="402.51,-66.49 412.74,-63.74 403.03,-59.51 402.51,-66.49"/>
</a>
</g>
</g>
<!-- Node10 -->
<g id="Node000010" class="node">
<title>Node10</title>
<g id="a_Node000010"><a xlink:href="class_visa_device.html#a29202c3f5e47326386d1d27972e25267" target="_top" xlink:title="Метод, позволяющий отправить команду на устройство">
<polygon fill="white" stroke="#666666" points="503.5,-39 413.25,-39 413.25,-19 503.5,-19 503.5,-39"/>
<text text-anchor="middle" x="458.38" y="-25.5" font-family="Helvetica,sans-Serif" font-size="10.00">VisaDevice::write</text>
</a>
</g>
</g>
<!-- Node2&#45;&gt;Node10 -->
<g id="edge13_Node000002_Node000010" class="edge">
<title>Node2&#45;&gt;Node10</title>
<g id="a_edge13_Node000002_Node000010"><a xlink:title=" ">
<path fill="none" stroke="#63b8ff" d="M228.33,-37.51C234.56,-34.83 241.18,-31.89 247.25,-29 263.58,-21.22 265.69,-14.35 283.25,-10 326.85,0.8 378.11,-7.19 413.67,-15.88"/>
<polygon fill="#63b8ff" stroke="#63b8ff" points="412.62,-19.48 423.18,-18.58 414.37,-12.7 412.62,-19.48"/>
</a>
</g>
</g>
<!-- Node4 -->
<g id="Node000004" class="node">
<title>Node4</title>
<g id="a_Node000004"><a xlink:href="logger_8hpp.html#a49284b7befa8e31f81e01ee8f3735dd0" target="_top" xlink:title="Функция, которая снимает значение текущего времени и конвертирует его в строку с заданным шаблоном.">
<polygon fill="white" stroke="#666666" points="745.12,-134 656.38,-134 656.38,-114 745.12,-114 745.12,-134"/>
<text text-anchor="middle" x="700.75" y="-120.5" font-family="Helvetica,sans-Serif" font-size="10.00">get_current_time</text>
</a>
</g>
</g>
<!-- Node3&#45;&gt;Node4 -->
<g id="edge3_Node000003_Node000004" class="edge">
<title>Node3&#45;&gt;Node4</title>
<g id="a_edge3_Node000003_Node000004"><a xlink:title=" ">
<path fill="none" stroke="#63b8ff" d="M588.52,-77.36C601.8,-85.63 621.35,-97.1 639.5,-105 643.57,-106.77 647.86,-108.46 652.2,-110.05"/>
<polygon fill="#63b8ff" stroke="#63b8ff" points="650.74,-113.59 661.34,-113.55 653.03,-106.97 650.74,-113.59"/>
</a>
</g>
</g>
<!-- Node5 -->
<g id="Node000005" class="node">
<title>Node5</title>
<g id="a_Node000005"><a xlink:href="class_logger.html#a6edb7b263f080d417b82a537ed50fee4" target="_top" xlink:title="Возвращает тег в зависимости от уровня логирования и от назначения тега.">
<polygon fill="white" stroke="#666666" points="742.5,-96 659,-96 659,-76 742.5,-76 742.5,-96"/>
<text text-anchor="middle" x="700.75" y="-82.5" font-family="Helvetica,sans-Serif" font-size="10.00">Logger::get_tag</text>
</a>
</g>
</g>
<!-- Node3&#45;&gt;Node5 -->
<g id="edge4_Node000003_Node000005" class="edge">
<title>Node3&#45;&gt;Node5</title>
<g id="a_edge4_Node000003_Node000005"><a xlink:title=" ">
<path fill="none" stroke="#63b8ff" d="M603.96,-71.7C617.22,-73.68 633.02,-76.04 647.92,-78.26"/>
<polygon fill="#63b8ff" stroke="#63b8ff" points="647.16,-81.84 657.57,-79.85 648.19,-74.91 647.16,-81.84"/>
</a>
</g>
</g>
<!-- Node6 -->
<g id="Node000006" class="node">
<title>Node6</title>
<g id="a_Node000006"><a xlink:href="class_logger.html#a4825613142ebb093bf8fa26f21f7f3fc" target="_top" xlink:title="Метод, который выводит сообщение в консоль.">
<polygon fill="white" stroke="#666666" points="762,-58 639.5,-58 639.5,-38 762,-38 762,-58"/>
<text text-anchor="middle" x="700.75" y="-44.5" font-family="Helvetica,sans-Serif" font-size="10.00">Logger::print_to_console</text>
</a>
</g>
</g>
<!-- Node3&#45;&gt;Node6 -->
<g id="edge5_Node000003_Node000006" class="edge">
<title>Node3&#45;&gt;Node6</title>
<g id="a_edge5_Node000003_Node000006"><a xlink:title=" ">
<path fill="none" stroke="#63b8ff" d="M603.96,-62.3C611.46,-61.18 619.77,-59.94 628.28,-58.67"/>
<polygon fill="#63b8ff" stroke="#63b8ff" points="628.73,-61.99 638.1,-57.06 627.69,-55.07 628.73,-61.99"/>
</a>
</g>
</g>
<!-- Node7 -->
<g id="Node000007" class="node">
<title>Node7</title>
<g id="a_Node000007"><a xlink:href="class_logger.html#a999bb33f7cf079cb98f32fae6016a2f3" target="_top" xlink:title="Метод, который записывает сообщение в файл.">
<polygon fill="white" stroke="#666666" points="751.12,-20 650.38,-20 650.38,0 751.12,0 751.12,-20"/>
<text text-anchor="middle" x="700.75" y="-6.5" font-family="Helvetica,sans-Serif" font-size="10.00">Logger::print_to_file</text>
</a>
</g>
</g>
<!-- Node3&#45;&gt;Node7 -->
<g id="edge6_Node000003_Node000007" class="edge">
<title>Node3&#45;&gt;Node7</title>
<g id="a_edge6_Node000003_Node000007"><a xlink:title=" ">
<path fill="none" stroke="#63b8ff" d="M588.52,-56.64C601.8,-48.37 621.35,-36.9 639.5,-29 643.57,-27.23 647.86,-25.54 652.2,-23.95"/>
<polygon fill="#63b8ff" stroke="#63b8ff" points="653.03,-27.03 661.34,-20.45 650.74,-20.41 653.03,-27.03"/>
</a>
</g>
</g>
<!-- Node8&#45;&gt;Node9 -->
<g id="edge8_Node000008_Node000009" class="edge">
<title>Node8&#45;&gt;Node9</title>
<g id="a_edge8_Node000008_Node000009"><a xlink:title=" ">
<path fill="none" stroke="#63b8ff" d="M366.05,-39.48C380.38,-43.8 397.18,-48.86 412.43,-53.46"/>
<polygon fill="#63b8ff" stroke="#63b8ff" points="411.11,-57.02 421.69,-56.55 413.13,-50.31 411.11,-57.02"/>
</a>
</g>
</g>
<!-- Node8&#45;&gt;Node10 -->
<g id="edge10_Node000008_Node000010" class="edge">
<title>Node8&#45;&gt;Node10</title>
<g id="a_edge10_Node000008_Node000010"><a xlink:title=" ">
<path fill="none" stroke="#63b8ff" d="M377.5,-29C385.42,-29 393.73,-29 401.87,-29"/>
<polygon fill="#63b8ff" stroke="#63b8ff" points="401.81,-32.5 411.81,-29 401.81,-25.5 401.81,-32.5"/>
</a>
</g>
</g>
<!-- Node9&#45;&gt;Node3 -->
<g id="edge9_Node000009_Node000003" class="edge">
<title>Node9&#45;&gt;Node3</title>
<g id="a_edge9_Node000009_Node000003"><a xlink:title=" ">
<path fill="none" stroke="#63b8ff" d="M502.98,-67C511.25,-67 519.9,-67 528.14,-67"/>
<polygon fill="#63b8ff" stroke="#63b8ff" points="528.04,-70.5 538.04,-67 528.04,-63.5 528.04,-70.5"/>
</a>
</g>
</g>
<!-- Node10&#45;&gt;Node3 -->
<g id="edge11_Node000010_Node000003" class="edge">
<title>Node10&#45;&gt;Node3</title>
<g id="a_edge11_Node000010_Node000003"><a xlink:title=" ">
<path fill="none" stroke="#63b8ff" d="M490.03,-39.48C502.3,-43.68 516.61,-48.57 529.73,-53.06"/>
<polygon fill="#63b8ff" stroke="#63b8ff" points="528.35,-56.63 538.94,-56.55 530.61,-50 528.35,-56.63"/>
</a>
</g>
</g>
</g>
</svg>
