<?xml version="1.0" encoding="UTF-8" standalone="no"?>
<!DOCTYPE svg PUBLIC "-//W3C//DTD SVG 1.1//EN"
 "http://www.w3.org/Graphics/SVG/1.1/DTD/svg11.dtd">
<!-- Generated by graphviz version 8.0.5 (20230430.1635)
 -->
<!-- Title: SocketServer::close Pages: 1 -->
<svg width="325pt" height="66pt"
 viewBox="0.00 0.00 325.25 66.00" xmlns="http://www.w3.org/2000/svg" xmlns:xlink="http://www.w3.org/1999/xlink">

<svg id="main" version="1.1" xmlns="http://www.w3.org/2000/svg" xmlns:xlink="http://www.w3.org/1999/xlink" xml:space="preserve" onload="init(evt)">
<style type="text/css"><![CDATA[
.node, .edge {opacity: 0.7;}
.node.selected, .edge.selected {opacity: 1;}
.edge:hover path { stroke: red; }
.edge:hover polygon { stroke: red; fill: red; }
]]></style>
<script type="application/ecmascript" xlink:href="svg.min.js"/>
<svg id="graph" class="graph">
<g id="graph0" class="graph" transform="scale(1 1) rotate(0) translate(4 62)">
<title>SocketServer::close</title>
<!-- Node1 -->
<g id="Node000001" class="node">
<title>Node1</title>
<g id="a_Node000001"><a xlink:title="Закрытие сокета">
<polygon fill="#999999" stroke="#666666" points="317.25,-39 214.25,-39 214.25,-19 317.25,-19 317.25,-39"/>
<text text-anchor="middle" x="265.75" y="-25.5" font-family="Helvetica,sans-Serif" font-size="10.00">SocketServer::close</text>
</a>
</g>
</g>
<!-- Node2 -->
<g id="Node000002" class="node">
<title>Node2</title>
<g id="a_Node000002"><a xlink:href="main_8cpp.html#a205c0f32d26b6f27c711fa201d02c983" target="_top" xlink:title="Обработка принятых данных и отправка результата обработки клиенту">
<polygon fill="white" stroke="#666666" points="178.25,-58 73,-58 73,-38 178.25,-38 178.25,-58"/>
<text text-anchor="middle" x="125.62" y="-44.5" font-family="Helvetica,sans-Serif" font-size="10.00">data_server_thread_f</text>
</a>
</g>
</g>
<!-- Node1&#45;&gt;Node2 -->
<g id="edge1_Node000001_Node000002" class="edge">
<title>Node1&#45;&gt;Node2</title>
<g id="a_edge1_Node000001_Node000002"><a xlink:title=" ">
<path fill="none" stroke="#63b8ff" d="M203.38,-37.44C195.13,-38.58 186.73,-39.73 178.66,-40.84"/>
<polygon fill="#63b8ff" stroke="#63b8ff" points="203.67,-40.8 213.1,-35.97 202.72,-33.86 203.67,-40.8"/>
</a>
</g>
</g>
<!-- Node4 -->
<g id="Node000004" class="node">
<title>Node4</title>
<g id="a_Node000004"><a xlink:href="main_8cpp.html#a35d7de01106a848cf8a5b3d494b40062" target="_top" xlink:title="Функция, вызываемая при нажатии сочетания клавиш Ctrl+C.">
<polygon fill="white" stroke="#666666" points="173.75,-20 77.5,-20 77.5,0 173.75,0 173.75,-20"/>
<text text-anchor="middle" x="125.62" y="-6.5" font-family="Helvetica,sans-Serif" font-size="10.00">exit_event_handler</text>
</a>
</g>
</g>
<!-- Node1&#45;&gt;Node4 -->
<g id="edge3_Node000001_Node000004" class="edge">
<title>Node1&#45;&gt;Node4</title>
<g id="a_edge3_Node000001_Node000004"><a xlink:title=" ">
<path fill="none" stroke="#63b8ff" d="M203.51,-20.58C193.63,-19.22 183.54,-17.83 174.05,-16.52"/>
<polygon fill="#63b8ff" stroke="#63b8ff" points="202.72,-24.14 213.1,-22.03 203.67,-17.2 202.72,-24.14"/>
</a>
</g>
</g>
<!-- Node3 -->
<g id="Node000003" class="node">
<title>Node3</title>
<g id="a_Node000003"><a xlink:href="main_8cpp.html#a0ddf1224851353fc92bfbff6f499fa97" target="_top" xlink:title=" ">
<polygon fill="white" stroke="#666666" points="37,-39 0,-39 0,-19 37,-19 37,-39"/>
<text text-anchor="middle" x="18.5" y="-25.5" font-family="Helvetica,sans-Serif" font-size="10.00">main</text>
</a>
</g>
</g>
<!-- Node2&#45;&gt;Node3 -->
<g id="edge2_Node000002_Node000003" class="edge">
<title>Node2&#45;&gt;Node3</title>
<g id="a_edge2_Node000002_Node000003"><a xlink:title=" ">
<path fill="none" stroke="#63b8ff" d="M61.91,-36.67C52.84,-35.03 44.2,-33.46 37.1,-32.18"/>
<polygon fill="#63b8ff" stroke="#63b8ff" points="61.22,-40.28 71.68,-38.61 62.46,-33.39 61.22,-40.28"/>
</a>
</g>
</g>
<!-- Node4&#45;&gt;Node3 -->
<g id="edge4_Node000004_Node000003" class="edge">
<title>Node4&#45;&gt;Node3</title>
<g id="a_edge4_Node000004_Node000003"><a xlink:title=" ">
<path fill="none" stroke="#63b8ff" d="M66.63,-20.48C56.01,-22.4 45.69,-24.27 37.42,-25.76"/>
<polygon fill="#63b8ff" stroke="#63b8ff" points="67.07,-23.78 76.29,-18.56 65.83,-16.89 67.07,-23.78"/>
</a>
</g>
</g>
</g>
</svg>
</svg>

<style type='text/css'>
<![CDATA[
[data-mouse-over-selected='false'] { opacity: 0.7; }
[data-mouse-over-selected='true']  { opacity: 1.0; }
]]>
</style>
<script type="application/ecmascript"><![CDATA[
document.addEventListener('DOMContentLoaded', (event) => {
  highlightEdges();
  highlightAdjacentNodes();
});
]]></script>
</svg>
