<?xml version="1.0" encoding="UTF-8" standalone="no"?>
<!DOCTYPE svg PUBLIC "-//W3C//DTD SVG 1.1//EN"
 "http://www.w3.org/Graphics/SVG/1.1/DTD/svg11.dtd">
<!-- Generated by graphviz version 8.1.0 (20230707.0739)
 -->
<!-- Title: VisaDevice::send_wait Pages: 1 -->
<svg width="459pt" height="986pt"
 viewBox="0.00 0.00 458.75 986.00" xmlns="http://www.w3.org/2000/svg" xmlns:xlink="http://www.w3.org/1999/xlink">
<g id="graph0" class="graph" transform="scale(1 1) rotate(0) translate(4 982)">
<title>VisaDevice::send_wait</title>
<!-- Node1 -->
<g id="Node000001" class="node">
<title>Node1</title>
<g id="a_Node000001"><a xlink:title="Отправка данных на прибор и чтение ответа от прибора. Также, ожидается завершение выполнения действий...">
<polygon fill="#999999" stroke="#666666" points="450.75,-569 337.25,-569 337.25,-549 450.75,-549 450.75,-569"/>
<text text-anchor="middle" x="394" y="-555.5" font-family="Helvetica,sans-Serif" font-size="10.00">VisaDevice::send_wait</text>
</a>
</g>
</g>
<!-- Node2 -->
<g id="Node000002" class="node">
<title>Node2</title>
<g id="a_Node000002"><a xlink:href="class_keysight_gen.html#a8bbdbb1eba9f85c5e9efa9bd5df0313f" target="_top" xlink:title="Устанавливает частотную точку, соответствующую началу диапазона.">
<polygon fill="white" stroke="#666666" points="293.38,-707 179.12,-707 179.12,-675 293.38,-675 293.38,-707"/>
<text text-anchor="start" x="187.12" y="-693.5" font-family="Helvetica,sans-Serif" font-size="10.00">KeysightGen::move_to</text>
<text text-anchor="middle" x="236.25" y="-681.5" font-family="Helvetica,sans-Serif" font-size="10.00">_start_freq</text>
</a>
</g>
</g>
<!-- Node1&#45;&gt;Node2 -->
<g id="edge1_Node000001_Node000002" class="edge">
<title>Node1&#45;&gt;Node2</title>
<g id="a_edge1_Node000001_Node000002"><a xlink:title=" ">
<path fill="none" stroke="#63b8ff" d="M380.8,-578.34C365.02,-601.94 335.47,-641.71 301.25,-666 296.78,-669.18 291.84,-672.02 286.76,-674.54"/>
<polygon fill="#63b8ff" stroke="#63b8ff" points="384.16,-580.59 386.69,-570.3 378.29,-576.77 384.16,-580.59"/>
</a>
</g>
</g>
<!-- Node3 -->
<g id="Node000003" class="node">
<title>Node3</title>
<g id="a_Node000003"><a xlink:href="class_keysight_gen.html#a7e1a018b3518d03e94504b48ea444b6f" target="_top" xlink:title="Устанавливает частотную точку, соответствующую началу диапазона.">
<polygon fill="white" stroke="#666666" points="293.38,-657 179.12,-657 179.12,-625 293.38,-625 293.38,-657"/>
<text text-anchor="start" x="187.12" y="-643.5" font-family="Helvetica,sans-Serif" font-size="10.00">KeysightGen::move_to</text>
<text text-anchor="middle" x="236.25" y="-631.5" font-family="Helvetica,sans-Serif" font-size="10.00">_stop_freq</text>
</a>
</g>
</g>
<!-- Node1&#45;&gt;Node3 -->
<g id="edge2_Node000001_Node000003" class="edge">
<title>Node1&#45;&gt;Node3</title>
<g id="a_edge2_Node000001_Node000003"><a xlink:title=" ">
<path fill="none" stroke="#63b8ff" d="M369.51,-575.26C351.38,-587.41 325.38,-603.92 301.25,-616 295.28,-618.99 288.85,-621.87 282.46,-624.54"/>
<polygon fill="#63b8ff" stroke="#63b8ff" points="370.92,-577.87 377.23,-569.36 366.99,-572.07 370.92,-577.87"/>
</a>
</g>
</g>
<!-- Node4 -->
<g id="Node000004" class="node">
<title>Node4</title>
<g id="a_Node000004"><a xlink:href="class_keysight_gen.html#a218a478d0600e3fc2985adf86a049435" target="_top" xlink:title="Переход к следующей частотной точке">
<polygon fill="white" stroke="#666666" points="295.25,-607 177.25,-607 177.25,-587 295.25,-587 295.25,-607"/>
<text text-anchor="middle" x="236.25" y="-593.5" font-family="Helvetica,sans-Serif" font-size="10.00">KeysightGen::next_freq</text>
</a>
</g>
</g>
<!-- Node1&#45;&gt;Node4 -->
<g id="edge3_Node000001_Node000004" class="edge">
<title>Node1&#45;&gt;Node4</title>
<g id="a_edge3_Node000001_Node000004"><a xlink:title=" ">
<path fill="none" stroke="#63b8ff" d="M339.51,-572.05C320.11,-576.78 298.45,-582.07 280.08,-586.55"/>
<polygon fill="#63b8ff" stroke="#63b8ff" points="340.14,-575.25 349.03,-569.48 338.48,-568.45 340.14,-575.25"/>
</a>
</g>
</g>
<!-- Node5 -->
<g id="Node000005" class="node">
<title>Node5</title>
<g id="a_Node000005"><a xlink:href="class_keysight_gen.html#aa243d66cc8ba6c1d87359f4db4f371ac" target="_top" xlink:title="Переход к предыдущей частотной точке">
<polygon fill="white" stroke="#666666" points="294.5,-569 178,-569 178,-549 294.5,-549 294.5,-569"/>
<text text-anchor="middle" x="236.25" y="-555.5" font-family="Helvetica,sans-Serif" font-size="10.00">KeysightGen::prev_freq</text>
</a>
</g>
</g>
<!-- Node1&#45;&gt;Node5 -->
<g id="edge4_Node000001_Node000005" class="edge">
<title>Node1&#45;&gt;Node5</title>
<g id="a_edge4_Node000001_Node000005"><a xlink:title=" ">
<path fill="none" stroke="#63b8ff" d="M325.77,-559C315.51,-559 305,-559 294.97,-559"/>
<polygon fill="#63b8ff" stroke="#63b8ff" points="325.77,-562.5 335.77,-559 325.77,-555.5 325.77,-562.5"/>
</a>
</g>
</g>
<!-- Node6 -->
<g id="Node000006" class="node">
<title>Node6</title>
<g id="a_Node000006"><a xlink:href="class_visa_device.html#aff290be3fb61e9679a548aafc571985d" target="_top" xlink:title="Отправка данных на прибор и чтение ответа от прибора. Также, ожидается завершение выполнения действий...">
<polygon fill="white" stroke="#666666" points="293,-531 179.5,-531 179.5,-511 293,-511 293,-531"/>
<text text-anchor="middle" x="236.25" y="-517.5" font-family="Helvetica,sans-Serif" font-size="10.00">VisaDevice::send_wait</text>
</a>
</g>
</g>
<!-- Node1&#45;&gt;Node6 -->
<g id="edge5_Node000001_Node000006" class="edge">
<title>Node1&#45;&gt;Node6</title>
<g id="a_edge5_Node000001_Node000006"><a xlink:title=" ">
<path fill="none" stroke="#63b8ff" d="M339.51,-545.95C320.11,-541.22 298.45,-535.93 280.08,-531.45"/>
<polygon fill="#63b8ff" stroke="#63b8ff" points="338.48,-549.55 349.03,-548.52 340.14,-542.75 338.48,-549.55"/>
</a>
</g>
</g>
<!-- Node7 -->
<g id="Node000007" class="node">
<title>Node7</title>
<g id="a_Node000007"><a xlink:href="class_visa_device.html#a069e154c5f48779dfd908146db9e66ed" target="_top" xlink:title="Отправка данных на прибор и чтение ответа от прибора. Также, ожидается завершение выполнения действий...">
<polygon fill="white" stroke="#666666" points="301.25,-493 171.25,-493 171.25,-473 301.25,-473 301.25,-493"/>
<text text-anchor="middle" x="236.25" y="-479.5" font-family="Helvetica,sans-Serif" font-size="10.00">VisaDevice::send_wait_err</text>
</a>
</g>
</g>
<!-- Node1&#45;&gt;Node7 -->
<g id="edge6_Node000001_Node000007" class="edge">
<title>Node1&#45;&gt;Node7</title>
<g id="a_edge6_Node000001_Node000007"><a xlink:title=" ">
<path fill="none" stroke="#63b8ff" d="M370.43,-542.59C352.42,-530.09 326.16,-513.19 301.25,-502 294.06,-498.77 286.18,-495.92 278.47,-493.46"/>
<polygon fill="#63b8ff" stroke="#63b8ff" points="367.86,-545.76 378.05,-548.67 371.89,-540.04 367.86,-545.76"/>
</a>
</g>
</g>
<!-- Node32 -->
<g id="Node000032" class="node">
<title>Node32</title>
<g id="a_Node000032"><a xlink:href="class_keysight_gen.html#aada9855525b00c8b30b9f27baa216464" target="_top" xlink:title="Установка определённого значения частоты">
<polygon fill="white" stroke="#666666" points="292.62,-455 179.88,-455 179.88,-435 292.62,-435 292.62,-455"/>
<text text-anchor="middle" x="236.25" y="-441.5" font-family="Helvetica,sans-Serif" font-size="10.00">KeysightGen::set_freq</text>
</a>
</g>
</g>
<!-- Node1&#45;&gt;Node32 -->
<g id="edge31_Node000001_Node000032" class="edge">
<title>Node1&#45;&gt;Node32</title>
<g id="a_edge31_Node000001_Node000032"><a xlink:title=" ">
<path fill="none" stroke="#63b8ff" d="M379.64,-540.17C363.44,-518.71 334.2,-484.01 301.25,-464 295.6,-460.57 289.3,-457.73 282.91,-455.38"/>
<polygon fill="#63b8ff" stroke="#63b8ff" points="377.19,-541.76 385.94,-547.74 382.83,-537.61 377.19,-541.76"/>
</a>
</g>
</g>
<!-- Node8 -->
<g id="Node000008" class="node">
<title>Node8</title>
<g id="a_Node000008"><a xlink:href="class_keysight_m9807_a.html#a85c78a42ccfda3bb9b69cb60b79358f4" target="_top" xlink:title="Настройка ВАЦ для измерения">
<polygon fill="white" stroke="#666666" points="135.25,-978 0,-978 0,-958 135.25,-958 135.25,-978"/>
<text text-anchor="middle" x="67.62" y="-964.5" font-family="Helvetica,sans-Serif" font-size="10.00">KeysightM9807A::configure</text>
</a>
</g>
</g>
<!-- Node7&#45;&gt;Node8 -->
<g id="edge7_Node000007_Node000008" class="edge">
<title>Node7&#45;&gt;Node8</title>
<g id="a_edge7_Node000007_Node000008"><a xlink:title=" ">
<path fill="none" stroke="#63b8ff" d="M172.87,-500.14C172.31,-500.74 171.77,-501.36 171.25,-502 108.49,-579.41 198.43,-871.93 135.25,-949 132.43,-952.44 129.03,-955.29 125.28,-957.63"/>
<polygon fill="#63b8ff" stroke="#63b8ff" points="174.56,-502.46 180.1,-493.43 170.14,-497.04 174.56,-502.46"/>
</a>
</g>
</g>
<!-- Node9 -->
<g id="Node000009" class="node">
<title>Node9</title>
<g id="a_Node000009"><a xlink:href="class_planar_s50244.html#a9092c8dda103df83d5e407e768b887b7" target="_top" xlink:title="Настройка ВАЦ для измерения">
<polygon fill="white" stroke="#666666" points="128.5,-940 6.75,-940 6.75,-920 128.5,-920 128.5,-940"/>
<text text-anchor="middle" x="67.62" y="-926.5" font-family="Helvetica,sans-Serif" font-size="10.00">PlanarS50244::configure</text>
</a>
</g>
</g>
<!-- Node7&#45;&gt;Node9 -->
<g id="edge8_Node000007_Node000009" class="edge">
<title>Node7&#45;&gt;Node9</title>
<g id="a_edge8_Node000007_Node000009"><a xlink:title=" ">
<path fill="none" stroke="#63b8ff" d="M172.88,-500.14C172.32,-500.74 171.77,-501.36 171.25,-502 113.52,-572.66 193.36,-840.65 135.25,-911 132.42,-914.43 129.01,-917.27 125.25,-919.61"/>
<polygon fill="#63b8ff" stroke="#63b8ff" points="174.57,-502.47 180.12,-493.45 170.15,-497.03 174.57,-502.47"/>
</a>
</g>
</g>
<!-- Node10 -->
<g id="Node000010" class="node">
<title>Node10</title>
<g id="a_Node000010"><a xlink:href="class_keysight_m9807_a.html#ad492f043e51d3e760209af6d59fe7829" target="_top" xlink:title="Создание необходимых трасс, в зависимости от того, используется ли внешний генератор">
<polygon fill="white" stroke="#666666" points="129.25,-902 6,-902 6,-870 129.25,-870 129.25,-902"/>
<text text-anchor="start" x="14" y="-888.5" font-family="Helvetica,sans-Serif" font-size="10.00">KeysightM9807A::create</text>
<text text-anchor="middle" x="67.62" y="-876.5" font-family="Helvetica,sans-Serif" font-size="10.00">_traces</text>
</a>
</g>
</g>
<!-- Node7&#45;&gt;Node10 -->
<g id="edge9_Node000007_Node000010" class="edge">
<title>Node7&#45;&gt;Node10</title>
<g id="a_edge9_Node000007_Node000010"><a xlink:title=" ">
<path fill="none" stroke="#63b8ff" d="M172.89,-500.15C172.32,-500.75 171.78,-501.36 171.25,-502 69.04,-625.56 233.04,-733.92 135.25,-861 132.69,-864.33 129.63,-867.21 126.26,-869.72"/>
<polygon fill="#63b8ff" stroke="#63b8ff" points="174.57,-502.48 180.17,-493.49 170.18,-497.03 174.57,-502.48"/>
</a>
</g>
</g>
<!-- Node11 -->
<g id="Node000011" class="node">
<title>Node11</title>
<g id="a_Node000011"><a xlink:href="class_planar_s50244.html#a665b4601aa0b252835220280da8d0635" target="_top" xlink:title="Создание необходимых трасс, в зависимости от того, используется ли внешний генератор">
<polygon fill="white" stroke="#666666" points="122.5,-852 12.75,-852 12.75,-820 122.5,-820 122.5,-852"/>
<text text-anchor="start" x="20.75" y="-838.5" font-family="Helvetica,sans-Serif" font-size="10.00">PlanarS50244::create</text>
<text text-anchor="middle" x="67.62" y="-826.5" font-family="Helvetica,sans-Serif" font-size="10.00">_traces</text>
</a>
</g>
</g>
<!-- Node7&#45;&gt;Node11 -->
<g id="edge10_Node000007_Node000011" class="edge">
<title>Node7&#45;&gt;Node11</title>
<g id="a_edge10_Node000007_Node000011"><a xlink:title=" ">
<path fill="none" stroke="#63b8ff" d="M172.95,-500.12C172.36,-500.72 171.8,-501.35 171.25,-502 82.27,-607.83 220.45,-702.11 135.25,-811 131.82,-815.38 127.54,-818.99 122.82,-821.97"/>
<polygon fill="#63b8ff" stroke="#63b8ff" points="174.84,-502.29 180.52,-493.35 170.5,-496.8 174.84,-502.29"/>
</a>
</g>
</g>
<!-- Node12 -->
<g id="Node000012" class="node">
<title>Node12</title>
<g id="a_Node000012"><a xlink:href="class_keysight_m9807_a.html#ae9df428776abd1cc65fa24e57fb713e1" target="_top" xlink:title="Запуск измерения">
<polygon fill="white" stroke="#666666" points="122.12,-802 13.12,-802 13.12,-782 122.12,-782 122.12,-802"/>
<text text-anchor="middle" x="67.62" y="-788.5" font-family="Helvetica,sans-Serif" font-size="10.00">KeysightM9807A::init</text>
</a>
</g>
</g>
<!-- Node7&#45;&gt;Node12 -->
<g id="edge11_Node000007_Node000012" class="edge">
<title>Node7&#45;&gt;Node12</title>
<g id="a_edge11_Node000007_Node000012"><a xlink:title=" ">
<path fill="none" stroke="#63b8ff" d="M172.96,-500.13C172.37,-500.73 171.8,-501.36 171.25,-502 92.31,-594.37 214.68,-681.06 135.25,-773 131.71,-777.1 127.36,-780.34 122.59,-782.9"/>
<polygon fill="#63b8ff" stroke="#63b8ff" points="174.85,-502.31 180.58,-493.4 170.55,-496.8 174.85,-502.31"/>
</a>
</g>
</g>
<!-- Node13 -->
<g id="Node000013" class="node">
<title>Node13</title>
<g id="a_Node000013"><a xlink:href="class_keysight_m9807_a.html#ad48b95d00b8a2ecee1e95dc300d25203" target="_top" xlink:title="Инициализация канала для измерений">
<polygon fill="white" stroke="#666666" points="122.12,-764 13.12,-764 13.12,-732 122.12,-732 122.12,-764"/>
<text text-anchor="start" x="21.12" y="-750.5" font-family="Helvetica,sans-Serif" font-size="10.00">KeysightM9807A::init</text>
<text text-anchor="middle" x="67.62" y="-738.5" font-family="Helvetica,sans-Serif" font-size="10.00">_channel</text>
</a>
</g>
</g>
<!-- Node7&#45;&gt;Node13 -->
<g id="edge12_Node000007_Node000013" class="edge">
<title>Node7&#45;&gt;Node13</title>
<g id="a_edge12_Node000007_Node000013"><a xlink:title=" ">
<path fill="none" stroke="#63b8ff" d="M172.99,-500.15C172.39,-500.75 171.81,-501.36 171.25,-502 105.49,-576.7 198.34,-646.04 135.25,-723 131.73,-727.3 127.38,-730.86 122.62,-733.81"/>
<polygon fill="#63b8ff" stroke="#63b8ff" points="174.87,-502.35 180.69,-493.5 170.62,-496.79 174.87,-502.35"/>
</a>
</g>
</g>
<!-- Node14 -->
<g id="Node000014" class="node">
<title>Node14</title>
<g id="a_Node000014"><a xlink:href="class_planar_s50244.html#a152d5516596ddd1f784ffdd28699c9c3" target="_top" xlink:title="Инициализация канала для измерений">
<polygon fill="white" stroke="#666666" points="115.38,-714 19.88,-714 19.88,-682 115.38,-682 115.38,-714"/>
<text text-anchor="start" x="27.88" y="-700.5" font-family="Helvetica,sans-Serif" font-size="10.00">PlanarS50244::init</text>
<text text-anchor="middle" x="67.62" y="-688.5" font-family="Helvetica,sans-Serif" font-size="10.00">_channel</text>
</a>
</g>
</g>
<!-- Node7&#45;&gt;Node14 -->
<g id="edge13_Node000007_Node000014" class="edge">
<title>Node7&#45;&gt;Node14</title>
<g id="a_edge13_Node000007_Node000014"><a xlink:title=" ">
<path fill="none" stroke="#63b8ff" d="M173.39,-499.85C172.65,-500.54 171.94,-501.25 171.25,-502 118.6,-559.1 185.86,-614.08 135.25,-673 130.02,-679.09 123.15,-683.7 115.81,-687.19"/>
<polygon fill="#63b8ff" stroke="#63b8ff" points="175.13,-502.19 181.16,-493.47 171.01,-496.52 175.13,-502.19"/>
</a>
</g>
</g>
<!-- Node15 -->
<g id="Node000015" class="node">
<title>Node15</title>
<g id="a_Node000015"><a xlink:href="class_keysight_m9807_a.html#ad4dc40466fecabae451e88d763692076" target="_top" xlink:title="Отключает все порты">
<polygon fill="white" stroke="#666666" points="125.88,-664 9.38,-664 9.38,-644 125.88,-644 125.88,-664"/>
<text text-anchor="middle" x="67.62" y="-650.5" font-family="Helvetica,sans-Serif" font-size="10.00">KeysightM9807A::rf_off</text>
</a>
</g>
</g>
<!-- Node7&#45;&gt;Node15 -->
<g id="edge14_Node000007_Node000015" class="edge">
<title>Node7&#45;&gt;Node15</title>
<g id="a_edge14_Node000007_Node000015"><a xlink:title=" ">
<path fill="none" stroke="#63b8ff" d="M173.84,-499.56C172.95,-500.34 172.08,-501.15 171.25,-502 128.48,-545.82 178.26,-591.41 135.25,-635 131.87,-638.42 127.92,-641.24 123.66,-643.56"/>
<polygon fill="#63b8ff" stroke="#63b8ff" points="175.41,-502.04 181.67,-493.5 171.45,-496.27 175.41,-502.04"/>
</a>
</g>
</g>
<!-- Node16 -->
<g id="Node000016" class="node">
<title>Node16</title>
<g id="a_Node000016"><a xlink:href="class_planar_s50244.html#a3099a6c00551bb147ff03388dceb4743" target="_top" xlink:title="Отключает все порты">
<polygon fill="white" stroke="#666666" points="119.12,-626 16.12,-626 16.12,-606 119.12,-606 119.12,-626"/>
<text text-anchor="middle" x="67.62" y="-612.5" font-family="Helvetica,sans-Serif" font-size="10.00">PlanarS50244::rf_off</text>
</a>
</g>
</g>
<!-- Node7&#45;&gt;Node16 -->
<g id="edge15_Node000007_Node000016" class="edge">
<title>Node7&#45;&gt;Node16</title>
<g id="a_edge15_Node000007_Node000016"><a xlink:title=" ">
<path fill="none" stroke="#63b8ff" d="M174.92,-498.93C173.64,-499.89 172.42,-500.92 171.25,-502 138.17,-532.73 168.5,-566.45 135.25,-597 130.64,-601.23 125.16,-604.53 119.35,-607.1"/>
<polygon fill="#63b8ff" stroke="#63b8ff" points="176.28,-501.59 182.96,-493.37 172.61,-495.63 176.28,-501.59"/>
</a>
</g>
</g>
<!-- Node17 -->
<g id="Node000017" class="node">
<title>Node17</title>
<g id="a_Node000017"><a xlink:href="class_keysight_m9807_a.html#a861c82a08c49f54dd245db73d87181c8" target="_top" xlink:title="Отключает выбранный порт">
<polygon fill="white" stroke="#666666" points="125.88,-588 9.38,-588 9.38,-568 125.88,-568 125.88,-588"/>
<text text-anchor="middle" x="67.62" y="-574.5" font-family="Helvetica,sans-Serif" font-size="10.00">KeysightM9807A::rf_off</text>
</a>
</g>
</g>
<!-- Node7&#45;&gt;Node17 -->
<g id="edge16_Node000007_Node000017" class="edge">
<title>Node7&#45;&gt;Node17</title>
<g id="a_edge16_Node000007_Node000017"><a xlink:title=" ">
<path fill="none" stroke="#63b8ff" d="M176.58,-498.4C174.73,-499.52 172.95,-500.71 171.25,-502 147.36,-520.09 159.24,-541.04 135.25,-559 130.63,-562.46 125.4,-565.29 119.95,-567.61"/>
<polygon fill="#63b8ff" stroke="#63b8ff" points="177.95,-501.12 185.27,-493.45 174.77,-494.88 177.95,-501.12"/>
</a>
</g>
</g>
<!-- Node18 -->
<g id="Node000018" class="node">
<title>Node18</title>
<g id="a_Node000018"><a xlink:href="class_planar_s50244.html#a7cef78ad66899bf7d1ebc675bbacf18d" target="_top" xlink:title="Отключает выбранный порт">
<polygon fill="white" stroke="#666666" points="119.12,-550 16.12,-550 16.12,-530 119.12,-530 119.12,-550"/>
<text text-anchor="middle" x="67.62" y="-536.5" font-family="Helvetica,sans-Serif" font-size="10.00">PlanarS50244::rf_off</text>
</a>
</g>
</g>
<!-- Node7&#45;&gt;Node18 -->
<g id="edge17_Node000007_Node000018" class="edge">
<title>Node7&#45;&gt;Node18</title>
<g id="a_edge17_Node000007_Node000018"><a xlink:title=" ">
<path fill="none" stroke="#63b8ff" d="M185.17,-496.82C180.42,-498.45 175.72,-500.18 171.25,-502 154.5,-508.83 152.04,-514.26 135.25,-521 127.32,-524.18 118.67,-527.06 110.3,-529.56"/>
<polygon fill="#63b8ff" stroke="#63b8ff" points="186.13,-499.87 194.57,-493.45 183.97,-493.21 186.13,-499.87"/>
</a>
</g>
</g>
<!-- Node19 -->
<g id="Node000019" class="node">
<title>Node19</title>
<g id="a_Node000019"><a xlink:href="class_keysight_m9807_a.html#adf9e166699c89ec3c7f53fae5ec81b0c" target="_top" xlink:title="Включает все порты">
<polygon fill="white" stroke="#666666" points="126.25,-512 9,-512 9,-492 126.25,-492 126.25,-512"/>
<text text-anchor="middle" x="67.62" y="-498.5" font-family="Helvetica,sans-Serif" font-size="10.00">KeysightM9807A::rf_on</text>
</a>
</g>
</g>
<!-- Node7&#45;&gt;Node19 -->
<g id="edge18_Node000007_Node000019" class="edge">
<title>Node7&#45;&gt;Node19</title>
<g id="a_edge18_Node000007_Node000019"><a xlink:title=" ">
<path fill="none" stroke="#63b8ff" d="M160.13,-491.57C148.89,-492.85 137.44,-494.15 126.62,-495.39"/>
<polygon fill="#63b8ff" stroke="#63b8ff" points="160.29,-494.96 169.83,-490.35 159.5,-488 160.29,-494.96"/>
</a>
</g>
</g>
<!-- Node20 -->
<g id="Node000020" class="node">
<title>Node20</title>
<g id="a_Node000020"><a xlink:href="class_planar_s50244.html#a92cf563ce580b8508cad2cdff68ad084" target="_top" xlink:title="Включает все порты">
<polygon fill="white" stroke="#666666" points="119.5,-474 15.75,-474 15.75,-454 119.5,-454 119.5,-474"/>
<text text-anchor="middle" x="67.62" y="-460.5" font-family="Helvetica,sans-Serif" font-size="10.00">PlanarS50244::rf_on</text>
</a>
</g>
</g>
<!-- Node7&#45;&gt;Node20 -->
<g id="edge19_Node000007_Node000020" class="edge">
<title>Node7&#45;&gt;Node20</title>
<g id="a_edge19_Node000007_Node000020"><a xlink:title=" ">
<path fill="none" stroke="#63b8ff" d="M160.05,-474.42C146.49,-472.88 132.65,-471.3 119.97,-469.85"/>
<polygon fill="#63b8ff" stroke="#63b8ff" points="159.5,-478 169.83,-475.65 160.29,-471.04 159.5,-478"/>
</a>
</g>
</g>
<!-- Node21 -->
<g id="Node000021" class="node">
<title>Node21</title>
<g id="a_Node000021"><a xlink:href="class_keysight_m9807_a.html#ac6105e309ba2f11a360797e19d34a592" target="_top" xlink:title="Включает выбранный порт">
<polygon fill="white" stroke="#666666" points="126.25,-436 9,-436 9,-416 126.25,-416 126.25,-436"/>
<text text-anchor="middle" x="67.62" y="-422.5" font-family="Helvetica,sans-Serif" font-size="10.00">KeysightM9807A::rf_on</text>
</a>
</g>
</g>
<!-- Node7&#45;&gt;Node21 -->
<g id="edge20_Node000007_Node000021" class="edge">
<title>Node7&#45;&gt;Node21</title>
<g id="a_edge20_Node000007_Node000021"><a xlink:title=" ">
<path fill="none" stroke="#63b8ff" d="M185.17,-469.18C180.42,-467.55 175.72,-465.82 171.25,-464 154.5,-457.17 152.04,-451.74 135.25,-445 127.32,-441.82 118.67,-438.94 110.3,-436.44"/>
<polygon fill="#63b8ff" stroke="#63b8ff" points="183.97,-472.79 194.57,-472.55 186.13,-466.13 183.97,-472.79"/>
</a>
</g>
</g>
<!-- Node22 -->
<g id="Node000022" class="node">
<title>Node22</title>
<g id="a_Node000022"><a xlink:href="class_planar_s50244.html#aeec8379aa2d84a196836a99d13d43bf9" target="_top" xlink:title="Включает выбранный порт">
<polygon fill="white" stroke="#666666" points="119.5,-398 15.75,-398 15.75,-378 119.5,-378 119.5,-398"/>
<text text-anchor="middle" x="67.62" y="-384.5" font-family="Helvetica,sans-Serif" font-size="10.00">PlanarS50244::rf_on</text>
</a>
</g>
</g>
<!-- Node7&#45;&gt;Node22 -->
<g id="edge21_Node000007_Node000022" class="edge">
<title>Node7&#45;&gt;Node22</title>
<g id="a_edge21_Node000007_Node000022"><a xlink:title=" ">
<path fill="none" stroke="#63b8ff" d="M176.58,-467.6C174.73,-466.48 172.95,-465.29 171.25,-464 147.36,-445.91 159.24,-424.96 135.25,-407 130.63,-403.54 125.4,-400.71 119.95,-398.39"/>
<polygon fill="#63b8ff" stroke="#63b8ff" points="174.77,-471.12 185.27,-472.55 177.95,-464.88 174.77,-471.12"/>
</a>
</g>
</g>
<!-- Node23 -->
<g id="Node000023" class="node">
<title>Node23</title>
<g id="a_Node000023"><a xlink:href="class_visa_device.html#ab95d81d2e1ebab67621ac7aac769bc64" target="_top" xlink:title="Отправка данных на прибор и чтение ответа от прибора. Также, ожидается завершение выполнения действий...">
<polygon fill="white" stroke="#666666" points="132.62,-360 2.62,-360 2.62,-340 132.62,-340 132.62,-360"/>
<text text-anchor="middle" x="67.62" y="-346.5" font-family="Helvetica,sans-Serif" font-size="10.00">VisaDevice::send_wait_err</text>
</a>
</g>
</g>
<!-- Node7&#45;&gt;Node23 -->
<g id="edge22_Node000007_Node000023" class="edge">
<title>Node7&#45;&gt;Node23</title>
<g id="a_edge22_Node000007_Node000023"><a xlink:title=" ">
<path fill="none" stroke="#63b8ff" d="M174.92,-467.07C173.64,-466.11 172.42,-465.08 171.25,-464 138.17,-433.27 168.5,-399.55 135.25,-369 131.53,-365.58 127.24,-362.77 122.66,-360.47"/>
<polygon fill="#63b8ff" stroke="#63b8ff" points="172.61,-470.37 182.96,-472.63 176.28,-464.41 172.61,-470.37"/>
</a>
</g>
</g>
<!-- Node24 -->
<g id="Node000024" class="node">
<title>Node24</title>
<g id="a_Node000024"><a xlink:href="class_keysight_m9807_a.html#a752f62baec908e4e421a95b3c75422fc" target="_top" xlink:title="Установка определённого значения частоты">
<polygon fill="white" stroke="#666666" points="133,-322 2.25,-322 2.25,-302 133,-302 133,-322"/>
<text text-anchor="middle" x="67.62" y="-308.5" font-family="Helvetica,sans-Serif" font-size="10.00">KeysightM9807A::set_freq</text>
</a>
</g>
</g>
<!-- Node7&#45;&gt;Node24 -->
<g id="edge23_Node000007_Node000024" class="edge">
<title>Node7&#45;&gt;Node24</title>
<g id="a_edge23_Node000007_Node000024"><a xlink:title=" ">
<path fill="none" stroke="#63b8ff" d="M173.84,-466.44C172.95,-465.66 172.08,-464.85 171.25,-464 128.48,-420.18 178.26,-374.59 135.25,-331 131.87,-327.58 127.92,-324.76 123.66,-322.44"/>
<polygon fill="#63b8ff" stroke="#63b8ff" points="171.45,-469.73 181.67,-472.5 175.41,-463.96 171.45,-469.73"/>
</a>
</g>
</g>
<!-- Node25 -->
<g id="Node000025" class="node">
<title>Node25</title>
<g id="a_Node000025"><a xlink:href="class_planar_s50244.html#a0060e852dd3374f9b4c3c6c93da8c01c" target="_top" xlink:title="Установка определённого значения частоты">
<polygon fill="white" stroke="#666666" points="126.25,-284 9,-284 9,-264 126.25,-264 126.25,-284"/>
<text text-anchor="middle" x="67.62" y="-270.5" font-family="Helvetica,sans-Serif" font-size="10.00">PlanarS50244::set_freq</text>
</a>
</g>
</g>
<!-- Node7&#45;&gt;Node25 -->
<g id="edge24_Node000007_Node000025" class="edge">
<title>Node7&#45;&gt;Node25</title>
<g id="a_edge24_Node000007_Node000025"><a xlink:title=" ">
<path fill="none" stroke="#63b8ff" d="M173.39,-466.15C172.65,-465.46 171.94,-464.75 171.25,-464 118.6,-406.9 188.2,-349.81 135.25,-293 132.05,-289.57 128.28,-286.74 124.19,-284.41"/>
<polygon fill="#63b8ff" stroke="#63b8ff" points="171.01,-469.48 181.16,-472.53 175.13,-463.81 171.01,-469.48"/>
</a>
</g>
</g>
<!-- Node26 -->
<g id="Node000026" class="node">
<title>Node26</title>
<g id="a_Node000026"><a xlink:href="class_keysight_m9807_a.html#a2b1761a2a4b4dc696a74590c2cb028de" target="_top" xlink:title="Установка частотного диапазона">
<polygon fill="white" stroke="#666666" points="122.5,-246 12.75,-246 12.75,-214 122.5,-214 122.5,-246"/>
<text text-anchor="start" x="20.75" y="-232.5" font-family="Helvetica,sans-Serif" font-size="10.00">KeysightM9807A::set</text>
<text text-anchor="middle" x="67.62" y="-220.5" font-family="Helvetica,sans-Serif" font-size="10.00">_freq_range</text>
</a>
</g>
</g>
<!-- Node7&#45;&gt;Node26 -->
<g id="edge25_Node000007_Node000026" class="edge">
<title>Node7&#45;&gt;Node26</title>
<g id="a_edge25_Node000007_Node000026"><a xlink:title=" ">
<path fill="none" stroke="#63b8ff" d="M173.35,-466.19C172.63,-465.49 171.92,-464.76 171.25,-464 108.65,-393.54 195.33,-327.62 135.25,-255 131.78,-250.81 127.54,-247.32 122.89,-244.42"/>
<polygon fill="#63b8ff" stroke="#63b8ff" points="170.92,-469.48 181.03,-472.65 175.1,-463.87 170.92,-469.48"/>
</a>
</g>
</g>
<!-- Node27 -->
<g id="Node000027" class="node">
<title>Node27</title>
<g id="a_Node000027"><a xlink:href="class_planar_s50244.html#af52408a261d6845f6d44653f4e429f31" target="_top" xlink:title="Установка частотного диапазона">
<polygon fill="white" stroke="#666666" points="126.25,-196 9,-196 9,-164 126.25,-164 126.25,-196"/>
<text text-anchor="start" x="17" y="-182.5" font-family="Helvetica,sans-Serif" font-size="10.00">PlanarS50244::set_freq</text>
<text text-anchor="middle" x="67.62" y="-170.5" font-family="Helvetica,sans-Serif" font-size="10.00">_range</text>
</a>
</g>
</g>
<!-- Node7&#45;&gt;Node27 -->
<g id="edge26_Node000007_Node000027" class="edge">
<title>Node7&#45;&gt;Node27</title>
<g id="a_edge26_Node000007_Node000027"><a xlink:title=" ">
<path fill="none" stroke="#63b8ff" d="M172.97,-465.87C172.38,-465.26 171.8,-464.64 171.25,-464 95.48,-375.88 207.87,-295.73 135.25,-205 132.63,-201.72 129.52,-198.87 126.11,-196.4"/>
<polygon fill="#63b8ff" stroke="#63b8ff" points="170.56,-469.2 180.61,-472.58 174.86,-463.68 170.56,-469.2"/>
</a>
</g>
</g>
<!-- Node28 -->
<g id="Node000028" class="node">
<title>Node28</title>
<g id="a_Node000028"><a xlink:href="class_keysight_m9807_a.html#a148ac915640756d3ef0c33d92c1b1205" target="_top" xlink:title="Установка положений переключателей в определённые позиции">
<polygon fill="white" stroke="#666666" points="134.5,-146 0.75,-146 0.75,-126 134.5,-126 134.5,-146"/>
<text text-anchor="middle" x="67.62" y="-132.5" font-family="Helvetica,sans-Serif" font-size="10.00">KeysightM9807A::set_path</text>
</a>
</g>
</g>
<!-- Node7&#45;&gt;Node28 -->
<g id="edge27_Node000007_Node000028" class="edge">
<title>Node7&#45;&gt;Node28</title>
<g id="a_edge27_Node000007_Node000028"><a xlink:title=" ">
<path fill="none" stroke="#63b8ff" d="M172.95,-465.88C172.36,-465.28 171.8,-464.65 171.25,-464 82.27,-358.17 224.79,-260.35 135.25,-155 132.37,-151.61 128.93,-148.8 125.15,-146.48"/>
<polygon fill="#63b8ff" stroke="#63b8ff" points="170.5,-469.2 180.52,-472.65 174.84,-463.71 170.5,-469.2"/>
</a>
</g>
</g>
<!-- Node29 -->
<g id="Node000029" class="node">
<title>Node29</title>
<g id="a_Node000029"><a xlink:href="class_keysight_m9807_a.html#ab3a0a48c7e439fab722d902479ff78eb" target="_top" xlink:title="Установка требуемой мощности зондирующего порта">
<polygon fill="white" stroke="#666666" points="122.5,-108 12.75,-108 12.75,-76 122.5,-76 122.5,-108"/>
<text text-anchor="start" x="20.75" y="-94.5" font-family="Helvetica,sans-Serif" font-size="10.00">KeysightM9807A::set</text>
<text text-anchor="middle" x="67.62" y="-82.5" font-family="Helvetica,sans-Serif" font-size="10.00">_power</text>
</a>
</g>
</g>
<!-- Node7&#45;&gt;Node29 -->
<g id="edge28_Node000007_Node000029" class="edge">
<title>Node7&#45;&gt;Node29</title>
<g id="a_edge28_Node000007_Node000029"><a xlink:title=" ">
<path fill="none" stroke="#63b8ff" d="M172.89,-465.85C172.33,-465.25 171.78,-464.64 171.25,-464 72.22,-344.69 230.02,-239.72 135.25,-117 131.85,-112.6 127.59,-108.97 122.87,-105.99"/>
<polygon fill="#63b8ff" stroke="#63b8ff" points="170.19,-468.97 180.18,-472.5 174.58,-463.51 170.19,-468.97"/>
</a>
</g>
</g>
<!-- Node30 -->
<g id="Node000030" class="node">
<title>Node30</title>
<g id="a_Node000030"><a xlink:href="class_planar_s50244.html#ad1f033021449cf6c4e0a1eaeafc6dbe3" target="_top" xlink:title="Установка требуемой мощности зондирующего порта">
<polygon fill="white" stroke="#666666" points="131.12,-58 4.12,-58 4.12,-38 131.12,-38 131.12,-58"/>
<text text-anchor="middle" x="67.62" y="-44.5" font-family="Helvetica,sans-Serif" font-size="10.00">PlanarS50244::set_power</text>
</a>
</g>
</g>
<!-- Node7&#45;&gt;Node30 -->
<g id="edge29_Node000007_Node000030" class="edge">
<title>Node7&#45;&gt;Node30</title>
<g id="a_edge29_Node000007_Node000030"><a xlink:title=" ">
<path fill="none" stroke="#63b8ff" d="M172.88,-465.85C172.32,-465.26 171.77,-464.64 171.25,-464 115.11,-395.47 191.75,-135.22 135.25,-67 132.41,-63.57 129,-60.74 125.24,-58.4"/>
<polygon fill="#63b8ff" stroke="#63b8ff" points="170.16,-468.97 180.13,-472.54 174.57,-463.53 170.16,-468.97"/>
</a>
</g>
</g>
<!-- Node31 -->
<g id="Node000031" class="node">
<title>Node31</title>
<g id="a_Node000031"><a xlink:href="class_keysight_m9807_a.html#a83a1f840e34e3ecb56c319649725efb8" target="_top" xlink:title="Перевод триггера в режим manual.">
<polygon fill="white" stroke="#666666" points="129.25,-20 6,-20 6,0 129.25,0 129.25,-20"/>
<text text-anchor="middle" x="67.62" y="-6.5" font-family="Helvetica,sans-Serif" font-size="10.00">KeysightM9807A::trigger</text>
</a>
</g>
</g>
<!-- Node7&#45;&gt;Node31 -->
<g id="edge30_Node000007_Node000031" class="edge">
<title>Node7&#45;&gt;Node31</title>
<g id="a_edge30_Node000007_Node000031"><a xlink:title=" ">
<path fill="none" stroke="#63b8ff" d="M172.87,-465.86C172.31,-465.26 171.77,-464.64 171.25,-464 110.08,-388.72 196.83,-103.95 135.25,-29 132.42,-25.56 129.02,-22.72 125.27,-20.37"/>
<polygon fill="#63b8ff" stroke="#63b8ff" points="170.14,-468.96 180.1,-472.57 174.56,-463.54 170.14,-468.96"/>
</a>
</g>
</g>
</g>
</svg>
