<?xml version="1.0" encoding="UTF-8" standalone="no"?>
<!DOCTYPE svg PUBLIC "-//W3C//DTD SVG 1.1//EN"
 "http://www.w3.org/Graphics/SVG/1.1/DTD/svg11.dtd">
<!-- Generated by graphviz version 8.0.5 (20230430.1635)
 -->
<!-- Title: KeysightM9807A::set_freq Pages: 1 -->
<svg width="1219pt" height="251pt"
 viewBox="0.00 0.00 1219.25 250.79" xmlns="http://www.w3.org/2000/svg" xmlns:xlink="http://www.w3.org/1999/xlink">
<g id="graph0" class="graph" transform="scale(1 1) rotate(0) translate(4 246.79)">
<title>KeysightM9807A::set_freq</title>
<!-- Node1 -->
<g id="Node000001" class="node">
<title>Node1</title>
<g id="a_Node000001"><a xlink:title=" ">
<polygon fill="#999999" stroke="#666666" points="130.75,-195.79 0,-195.79 0,-175.79 130.75,-175.79 130.75,-195.79"/>
<text text-anchor="middle" x="65.38" y="-182.29" font-family="Helvetica,sans-Serif" font-size="10.00">KeysightM9807A::set_freq</text>
</a>
</g>
</g>
<!-- Node2 -->
<g id="Node000002" class="node">
<title>Node2</title>
<g id="a_Node000002"><a xlink:href="class_visa_device.html#a069e154c5f48779dfd908146db9e66ed" target="_top" xlink:title="Отправка данных на прибор и чтение ответа от прибора. Также, ожидается завершение выполнения действий...">
<polygon fill="white" stroke="#666666" points="296.75,-195.79 166.75,-195.79 166.75,-175.79 296.75,-175.79 296.75,-195.79"/>
<text text-anchor="middle" x="231.75" y="-182.29" font-family="Helvetica,sans-Serif" font-size="10.00">VisaDevice::send_wait_err</text>
</a>
</g>
</g>
<!-- Node1&#45;&gt;Node2 -->
<g id="edge1_Node000001_Node000002" class="edge">
<title>Node1&#45;&gt;Node2</title>
<g id="a_edge1_Node000001_Node000002"><a xlink:title=" ">
<path fill="none" stroke="#63b8ff" d="M130.87,-185.79C139,-185.79 147.37,-185.79 155.65,-185.79"/>
<polygon fill="#63b8ff" stroke="#63b8ff" points="155.44,-189.29 165.44,-185.79 155.44,-182.29 155.44,-189.29"/>
</a>
</g>
</g>
<!-- Node3 -->
<g id="Node000003" class="node">
<title>Node3</title>
<g id="a_Node000003"><a xlink:href="class_visa_device.html#aba4642c194cffe2135a133e23960ab63" target="_top" xlink:title="Отправляет команду &quot;SYSTEM:ERROR?&quot; на подключенное устройство и считывает сведения об ошибках,...">
<polygon fill="white" stroke="#666666" points="691.62,-195.79 610.38,-195.79 610.38,-175.79 691.62,-175.79 691.62,-195.79"/>
<text text-anchor="middle" x="651" y="-182.29" font-family="Helvetica,sans-Serif" font-size="10.00">VisaDevice::err</text>
</a>
</g>
</g>
<!-- Node2&#45;&gt;Node3 -->
<g id="edge2_Node000002_Node000003" class="edge">
<title>Node2&#45;&gt;Node3</title>
<g id="a_edge2_Node000002_Node000003"><a xlink:title=" ">
<path fill="none" stroke="#63b8ff" d="M297.03,-185.79C380.15,-185.79 523.24,-185.79 599.19,-185.79"/>
<polygon fill="#63b8ff" stroke="#63b8ff" points="598.89,-189.29 608.89,-185.79 598.89,-182.29 598.89,-189.29"/>
</a>
</g>
</g>
<!-- Node4 -->
<g id="Node000004" class="node">
<title>Node4</title>
<g id="a_Node000004"><a xlink:href="class_logger.html#af7709105c2708359b7b082218f4cc3e1" target="_top" xlink:title="Метод, осуществляющий логирование">
<polygon fill="white" stroke="#666666" points="1052.75,-100.79 988.75,-100.79 988.75,-80.79 1052.75,-80.79 1052.75,-100.79"/>
<text text-anchor="middle" x="1020.75" y="-87.29" font-family="Helvetica,sans-Serif" font-size="10.00">Logger::log</text>
</a>
</g>
</g>
<!-- Node2&#45;&gt;Node4 -->
<g id="edge13_Node000002_Node000004" class="edge">
<title>Node2&#45;&gt;Node4</title>
<g id="a_edge13_Node000002_Node000004"><a xlink:title=" ">
<path fill="none" stroke="#63b8ff" d="M264.77,-196.25C318.1,-212.7 428.76,-242.79 524.88,-242.79 524.88,-242.79 524.88,-242.79 780.5,-242.79 862.81,-242.79 886.57,-223.73 952.75,-174.79 976.41,-157.29 996.36,-129.46 1008.18,-110.67"/>
<polygon fill="#63b8ff" stroke="#63b8ff" points="1011.68,-112.65 1013.88,-102.29 1005.7,-109.02 1011.68,-112.65"/>
</a>
</g>
</g>
<!-- Node12 -->
<g id="Node000012" class="node">
<title>Node12</title>
<g id="a_Node000012"><a xlink:href="class_visa_device.html#a3744ee1e929d6c05b522693c344c76b3" target="_top" xlink:title="Отправка данных на прибор и чтение ответа от прибора. Также, ожидается завершение выполнения действий...">
<polygon fill="white" stroke="#666666" points="446.25,-119.79 332.75,-119.79 332.75,-99.79 446.25,-99.79 446.25,-119.79"/>
<text text-anchor="middle" x="389.5" y="-106.29" font-family="Helvetica,sans-Serif" font-size="10.00">VisaDevice::send_wait</text>
</a>
</g>
</g>
<!-- Node2&#45;&gt;Node12 -->
<g id="edge14_Node000002_Node000012" class="edge">
<title>Node2&#45;&gt;Node12</title>
<g id="a_edge14_Node000002_Node000012"><a xlink:title=" ">
<path fill="none" stroke="#63b8ff" d="M254.08,-175.39C280.88,-162.31 327.05,-139.78 357.69,-124.83"/>
<polygon fill="#63b8ff" stroke="#63b8ff" points="358.98,-127.61 366.43,-120.08 355.91,-121.32 358.98,-127.61"/>
</a>
</g>
</g>
<!-- Node3&#45;&gt;Node4 -->
<g id="edge3_Node000003_Node000004" class="edge">
<title>Node3&#45;&gt;Node4</title>
<g id="a_edge3_Node000003_Node000004"><a xlink:title=" ">
<path fill="none" stroke="#63b8ff" d="M691.87,-187.82C751.34,-189.32 865.6,-186.24 952.75,-147.79 972.69,-139 991.23,-122.29 1003.72,-109.23"/>
<polygon fill="#63b8ff" stroke="#63b8ff" points="1005.83,-112.02 1010.01,-102.29 1000.67,-107.29 1005.83,-112.02"/>
</a>
</g>
</g>
<!-- Node9 -->
<g id="Node000009" class="node">
<title>Node9</title>
<g id="a_Node000009"><a xlink:href="class_visa_device.html#aa807192fd9a8c3e6efc458f78de5e73e" target="_top" xlink:title="Метод, совмещающий в себе методы write() и read().">
<polygon fill="white" stroke="#666666" points="826.5,-138.79 732.5,-138.79 732.5,-118.79 826.5,-118.79 826.5,-138.79"/>
<text text-anchor="middle" x="779.5" y="-125.29" font-family="Helvetica,sans-Serif" font-size="10.00">VisaDevice::query</text>
</a>
</g>
</g>
<!-- Node3&#45;&gt;Node9 -->
<g id="edge8_Node000003_Node000009" class="edge">
<title>Node3&#45;&gt;Node9</title>
<g id="a_edge8_Node000003_Node000009"><a xlink:title=" ">
<path fill="none" stroke="#63b8ff" d="M675.2,-175.34C694.91,-166.46 723.42,-153.61 745.5,-143.66"/>
<polygon fill="#63b8ff" stroke="#63b8ff" points="746.77,-146.48 754.45,-139.18 743.89,-140.1 746.77,-146.48"/>
</a>
</g>
</g>
<!-- Node5 -->
<g id="Node000005" class="node">
<title>Node5</title>
<g id="a_Node000005"><a xlink:href="logger_8hpp.html#a49284b7befa8e31f81e01ee8f3735dd0" target="_top" xlink:title="Функция, которая снимает значение текущего времени и конвертирует его в строку с заданным шаблоном.">
<polygon fill="white" stroke="#666666" points="1194.38,-157.79 1105.62,-157.79 1105.62,-137.79 1194.38,-137.79 1194.38,-157.79"/>
<text text-anchor="middle" x="1150" y="-144.29" font-family="Helvetica,sans-Serif" font-size="10.00">get_current_time</text>
</a>
</g>
</g>
<!-- Node4&#45;&gt;Node5 -->
<g id="edge4_Node000004_Node000005" class="edge">
<title>Node4&#45;&gt;Node5</title>
<g id="a_edge4_Node000004_Node000005"><a xlink:title=" ">
<path fill="none" stroke="#63b8ff" d="M1037.77,-101.16C1051.05,-109.43 1070.6,-120.89 1088.75,-128.79 1092.82,-130.57 1097.11,-132.26 1101.45,-133.84"/>
<polygon fill="#63b8ff" stroke="#63b8ff" points="1099.99,-137.38 1110.59,-137.34 1102.28,-130.77 1099.99,-137.38"/>
</a>
</g>
</g>
<!-- Node6 -->
<g id="Node000006" class="node">
<title>Node6</title>
<g id="a_Node000006"><a xlink:href="class_logger.html#a6edb7b263f080d417b82a537ed50fee4" target="_top" xlink:title="Возвращает тег в зависимости от уровня логирования и от назначения тега.">
<polygon fill="white" stroke="#666666" points="1191.75,-119.79 1108.25,-119.79 1108.25,-99.79 1191.75,-99.79 1191.75,-119.79"/>
<text text-anchor="middle" x="1150" y="-106.29" font-family="Helvetica,sans-Serif" font-size="10.00">Logger::get_tag</text>
</a>
</g>
</g>
<!-- Node4&#45;&gt;Node6 -->
<g id="edge5_Node000004_Node000006" class="edge">
<title>Node4&#45;&gt;Node6</title>
<g id="a_edge5_Node000004_Node000006"><a xlink:title=" ">
<path fill="none" stroke="#63b8ff" d="M1053.21,-95.49C1066.47,-97.47 1082.27,-99.83 1097.17,-102.06"/>
<polygon fill="#63b8ff" stroke="#63b8ff" points="1096.41,-105.63 1106.82,-103.65 1097.44,-98.71 1096.41,-105.63"/>
</a>
</g>
</g>
<!-- Node7 -->
<g id="Node000007" class="node">
<title>Node7</title>
<g id="a_Node000007"><a xlink:href="class_logger.html#a4825613142ebb093bf8fa26f21f7f3fc" target="_top" xlink:title="Метод, который выводит сообщение в консоль.">
<polygon fill="white" stroke="#666666" points="1211.25,-81.79 1088.75,-81.79 1088.75,-61.79 1211.25,-61.79 1211.25,-81.79"/>
<text text-anchor="middle" x="1150" y="-68.29" font-family="Helvetica,sans-Serif" font-size="10.00">Logger::print_to_console</text>
</a>
</g>
</g>
<!-- Node4&#45;&gt;Node7 -->
<g id="edge6_Node000004_Node000007" class="edge">
<title>Node4&#45;&gt;Node7</title>
<g id="a_edge6_Node000004_Node000007"><a xlink:title=" ">
<path fill="none" stroke="#63b8ff" d="M1053.21,-86.1C1060.71,-84.98 1069.02,-83.74 1077.53,-82.47"/>
<polygon fill="#63b8ff" stroke="#63b8ff" points="1077.98,-85.79 1087.35,-80.85 1076.94,-78.87 1077.98,-85.79"/>
</a>
</g>
</g>
<!-- Node8 -->
<g id="Node000008" class="node">
<title>Node8</title>
<g id="a_Node000008"><a xlink:href="class_logger.html#a999bb33f7cf079cb98f32fae6016a2f3" target="_top" xlink:title="Метод, который записывает сообщение в файл.">
<polygon fill="white" stroke="#666666" points="1200.38,-43.79 1099.62,-43.79 1099.62,-23.79 1200.38,-23.79 1200.38,-43.79"/>
<text text-anchor="middle" x="1150" y="-30.29" font-family="Helvetica,sans-Serif" font-size="10.00">Logger::print_to_file</text>
</a>
</g>
</g>
<!-- Node4&#45;&gt;Node8 -->
<g id="edge7_Node000004_Node000008" class="edge">
<title>Node4&#45;&gt;Node8</title>
<g id="a_edge7_Node000004_Node000008"><a xlink:title=" ">
<path fill="none" stroke="#63b8ff" d="M1037.77,-80.43C1051.05,-72.16 1070.6,-60.7 1088.75,-52.79 1092.82,-51.02 1097.11,-49.33 1101.45,-47.75"/>
<polygon fill="#63b8ff" stroke="#63b8ff" points="1102.28,-50.82 1110.59,-44.24 1099.99,-44.2 1102.28,-50.82"/>
</a>
</g>
</g>
<!-- Node10 -->
<g id="Node000010" class="node">
<title>Node10</title>
<g id="a_Node000010"><a xlink:href="class_visa_device.html#aca08d9dbb0469f1143668a485e4adfe2" target="_top" xlink:title="Метод, позволяющий считать данные с устройства">
<polygon fill="white" stroke="#666666" points="952,-138.79 863.25,-138.79 863.25,-118.79 952,-118.79 952,-138.79"/>
<text text-anchor="middle" x="907.62" y="-125.29" font-family="Helvetica,sans-Serif" font-size="10.00">VisaDevice::read</text>
</a>
</g>
</g>
<!-- Node9&#45;&gt;Node10 -->
<g id="edge9_Node000009_Node000010" class="edge">
<title>Node9&#45;&gt;Node10</title>
<g id="a_edge9_Node000009_Node000010"><a xlink:title=" ">
<path fill="none" stroke="#63b8ff" d="M826.75,-128.79C834.96,-128.79 843.58,-128.79 852,-128.79"/>
<polygon fill="#63b8ff" stroke="#63b8ff" points="851.9,-132.29 861.9,-128.79 851.9,-125.29 851.9,-132.29"/>
</a>
</g>
</g>
<!-- Node11 -->
<g id="Node000011" class="node">
<title>Node11</title>
<g id="a_Node000011"><a xlink:href="class_visa_device.html#a29202c3f5e47326386d1d27972e25267" target="_top" xlink:title="Метод, позволяющий отправить команду на устройство">
<polygon fill="white" stroke="#666666" points="952.75,-100.79 862.5,-100.79 862.5,-80.79 952.75,-80.79 952.75,-100.79"/>
<text text-anchor="middle" x="907.62" y="-87.29" font-family="Helvetica,sans-Serif" font-size="10.00">VisaDevice::write</text>
</a>
</g>
</g>
<!-- Node9&#45;&gt;Node11 -->
<g id="edge11_Node000009_Node000011" class="edge">
<title>Node9&#45;&gt;Node11</title>
<g id="a_edge11_Node000009_Node000011"><a xlink:title=" ">
<path fill="none" stroke="#63b8ff" d="M815.3,-118.31C829.63,-113.99 846.43,-108.93 861.68,-104.34"/>
<polygon fill="#63b8ff" stroke="#63b8ff" points="862.38,-107.48 870.94,-101.24 860.36,-100.78 862.38,-107.48"/>
</a>
</g>
</g>
<!-- Node10&#45;&gt;Node4 -->
<g id="edge10_Node000010_Node000004" class="edge">
<title>Node10&#45;&gt;Node4</title>
<g id="a_edge10_Node000010_Node000004"><a xlink:title=" ">
<path fill="none" stroke="#63b8ff" d="M939.28,-118.31C951.55,-114.12 965.86,-109.22 978.98,-104.73"/>
<polygon fill="#63b8ff" stroke="#63b8ff" points="979.86,-107.79 988.19,-101.24 977.6,-101.17 979.86,-107.79"/>
</a>
</g>
</g>
<!-- Node11&#45;&gt;Node4 -->
<g id="edge12_Node000011_Node000004" class="edge">
<title>Node11&#45;&gt;Node4</title>
<g id="a_edge12_Node000011_Node000004"><a xlink:title=" ">
<path fill="none" stroke="#63b8ff" d="M953.18,-90.79C961.23,-90.79 969.59,-90.79 977.57,-90.79"/>
<polygon fill="#63b8ff" stroke="#63b8ff" points="977.5,-94.29 987.5,-90.79 977.5,-87.29 977.5,-94.29"/>
</a>
</g>
</g>
<!-- Node13 -->
<g id="Node000013" class="node">
<title>Node13</title>
<g id="a_Node000013"><a xlink:href="class_visa_device.html#ad659ba652605f5c983958400fde8c808" target="_top" xlink:title="Отправка данных на прибор и чтение ответа от прибора.">
<polygon fill="white" stroke="#666666" points="696.5,-119.79 605.5,-119.79 605.5,-99.79 696.5,-99.79 696.5,-119.79"/>
<text text-anchor="middle" x="651" y="-106.29" font-family="Helvetica,sans-Serif" font-size="10.00">VisaDevice::send</text>
</a>
</g>
</g>
<!-- Node12&#45;&gt;Node13 -->
<g id="edge15_Node000012_Node000013" class="edge">
<title>Node12&#45;&gt;Node13</title>
<g id="a_edge15_Node000012_Node000013"><a xlink:title=" ">
<path fill="none" stroke="#63b8ff" d="M446.49,-109.79C490.21,-109.79 550.67,-109.79 594.32,-109.79"/>
<polygon fill="#63b8ff" stroke="#63b8ff" points="594.31,-113.29 604.31,-109.79 594.31,-106.29 594.31,-113.29"/>
</a>
</g>
</g>
<!-- Node14 -->
<g id="Node000014" class="node">
<title>Node14</title>
<g id="a_Node000014"><a xlink:href="class_visa_device.html#ab1f5c0b110fca770dbd5be069453ea82" target="_top" xlink:title="Ожидание завершения выполнения команды.">
<polygon fill="white" stroke="#666666" points="569.5,-43.79 482.25,-43.79 482.25,-23.79 569.5,-23.79 569.5,-43.79"/>
<text text-anchor="middle" x="525.88" y="-30.29" font-family="Helvetica,sans-Serif" font-size="10.00">VisaDevice::wait</text>
</a>
</g>
</g>
<!-- Node12&#45;&gt;Node14 -->
<g id="edge20_Node000012_Node000014" class="edge">
<title>Node12&#45;&gt;Node14</title>
<g id="a_edge20_Node000012_Node000014"><a xlink:title=" ">
<path fill="none" stroke="#63b8ff" d="M408.9,-99.39C431.72,-86.48 470.82,-64.36 497.25,-49.42"/>
<polygon fill="#63b8ff" stroke="#63b8ff" points="498.71,-52.05 505.69,-44.08 495.27,-45.95 498.71,-52.05"/>
</a>
</g>
</g>
<!-- Node13&#45;&gt;Node4 -->
<g id="edge16_Node000013_Node000004" class="edge">
<title>Node13&#45;&gt;Node4</title>
<g id="a_edge16_Node000013_Node000004"><a xlink:title=" ">
<path fill="none" stroke="#63b8ff" d="M687.23,-99.3C743.43,-83.92 856.84,-58.46 952.75,-71.79 961.52,-73.01 970.75,-75.09 979.47,-77.43"/>
<polygon fill="#63b8ff" stroke="#63b8ff" points="978.2,-81 988.78,-80.38 980.13,-74.27 978.2,-81"/>
</a>
</g>
</g>
<!-- Node13&#45;&gt;Node9 -->
<g id="edge17_Node000013_Node000009" class="edge">
<title>Node13&#45;&gt;Node9</title>
<g id="a_edge17_Node000013_Node000009"><a xlink:title=" ">
<path fill="none" stroke="#63b8ff" d="M696.96,-116.55C704.95,-117.75 713.38,-119.01 721.66,-120.26"/>
<polygon fill="#63b8ff" stroke="#63b8ff" points="721,-123.85 731.41,-121.87 722.04,-116.93 721,-123.85"/>
</a>
</g>
</g>
<!-- Node13&#45;&gt;Node10 -->
<g id="edge18_Node000013_Node000010" class="edge">
<title>Node13&#45;&gt;Node10</title>
<g id="a_edge18_Node000013_Node000010"><a xlink:title=" ">
<path fill="none" stroke="#63b8ff" d="M668.48,-120.25C684.23,-129.56 708.97,-142.52 732.5,-147.79 775.66,-157.47 825.99,-150.02 861.4,-141.78"/>
<polygon fill="#63b8ff" stroke="#63b8ff" points="862.01,-144.99 870.89,-139.21 860.35,-138.19 862.01,-144.99"/>
</a>
</g>
</g>
<!-- Node13&#45;&gt;Node11 -->
<g id="edge19_Node000013_Node000011" class="edge">
<title>Node13&#45;&gt;Node11</title>
<g id="a_edge19_Node000013_Node000011"><a xlink:title=" ">
<path fill="none" stroke="#63b8ff" d="M696.94,-106.44C740.02,-103.23 805.17,-98.36 851.41,-94.91"/>
<polygon fill="#63b8ff" stroke="#63b8ff" points="851.43,-98.35 861.14,-94.11 850.91,-91.37 851.43,-98.35"/>
</a>
</g>
</g>
<!-- Node14&#45;&gt;Node4 -->
<g id="edge21_Node000014_Node000004" class="edge">
<title>Node14&#45;&gt;Node4</title>
<g id="a_edge21_Node000014_Node000004"><a xlink:title=" ">
<path fill="none" stroke="#63b8ff" d="M562.17,-23.38C575.6,-19.92 591.14,-16.51 605.5,-14.79 759.25,3.52 808.13,12.51 952.75,-42.79 970.78,-49.69 988.41,-62.64 1001.05,-73.36"/>
<polygon fill="#63b8ff" stroke="#63b8ff" points="998.14,-75.33 1007.96,-79.31 1002.76,-70.08 998.14,-75.33"/>
</a>
</g>
</g>
<!-- Node15 -->
<g id="Node000015" class="node">
<title>Node15</title>
<g id="a_Node000015"><a xlink:href="class_visa_device.html#a70a6c6ace7c5841db420c1e112782a53" target="_top" xlink:title="Отправляет команду &quot;*OPC?&quot; на подключенное устройство, ожидает ответ и, в зависимости от полученного ...">
<polygon fill="white" stroke="#666666" points="693.88,-43.79 608.12,-43.79 608.12,-23.79 693.88,-23.79 693.88,-43.79"/>
<text text-anchor="middle" x="651" y="-30.29" font-family="Helvetica,sans-Serif" font-size="10.00">VisaDevice::opc</text>
</a>
</g>
</g>
<!-- Node14&#45;&gt;Node15 -->
<g id="edge22_Node000014_Node000015" class="edge">
<title>Node14&#45;&gt;Node15</title>
<g id="a_edge22_Node000014_Node000015"><a xlink:title=" ">
<path fill="none" stroke="#63b8ff" d="M569.94,-33.79C578.71,-33.79 588.04,-33.79 597.11,-33.79"/>
<polygon fill="#63b8ff" stroke="#63b8ff" points="597,-37.29 607,-33.79 597,-30.29 597,-37.29"/>
</a>
</g>
</g>
<!-- Node15&#45;&gt;Node4 -->
<g id="edge23_Node000015_Node000004" class="edge">
<title>Node15&#45;&gt;Node4</title>
<g id="a_edge23_Node000015_Node000004"><a xlink:title=" ">
<path fill="none" stroke="#63b8ff" d="M693.98,-34.25C752.7,-35.73 862.31,-41.54 952.75,-63.79 964.65,-66.72 977.24,-71.35 988.24,-75.96"/>
<polygon fill="#63b8ff" stroke="#63b8ff" points="986.68,-79.53 997.24,-80.31 989.47,-73.11 986.68,-79.53"/>
</a>
</g>
</g>
<!-- Node15&#45;&gt;Node9 -->
<g id="edge24_Node000015_Node000009" class="edge">
<title>Node15&#45;&gt;Node9</title>
<g id="a_edge24_Node000015_Node000009"><a xlink:title=" ">
<path fill="none" stroke="#63b8ff" d="M665.54,-43.96C687.2,-60.23 729.89,-92.29 756.14,-112"/>
<polygon fill="#63b8ff" stroke="#63b8ff" points="753.58,-115.21 763.68,-118.41 757.78,-109.61 753.58,-115.21"/>
</a>
</g>
</g>
</g>
</svg>
