<?xml version="1.0" encoding="UTF-8" standalone="no"?>
<!DOCTYPE svg PUBLIC "-//W3C//DTD SVG 1.1//EN"
 "http://www.w3.org/Graphics/SVG/1.1/DTD/svg11.dtd">
<!-- Generated by graphviz version 8.0.5 (20230430.1635)
 -->
<!-- Title: DeviceSet::get_vna_switch_module_count Pages: 1 -->
<svg width="1143pt" height="71pt"
 viewBox="0.00 0.00 1143.25 70.61" xmlns="http://www.w3.org/2000/svg" xmlns:xlink="http://www.w3.org/1999/xlink">
<g id="graph0" class="graph" transform="scale(1 1) rotate(0) translate(4 66.61)">
<title>DeviceSet::get_vna_switch_module_count</title>
<!-- Node1 -->
<g id="Node000001" class="node">
<title>Node1</title>
<g id="a_Node000001"><a xlink:title=" ">
<polygon fill="#999999" stroke="#666666" points="1135.25,-45.86 1020.25,-45.86 1020.25,-13.86 1135.25,-13.86 1135.25,-45.86"/>
<text text-anchor="start" x="1028.25" y="-32.36" font-family="Helvetica,sans-Serif" font-size="10.00">DeviceSet::get_vna</text>
<text text-anchor="middle" x="1077.75" y="-20.36" font-family="Helvetica,sans-Serif" font-size="10.00">_switch_module_count</text>
</a>
</g>
</g>
<!-- Node2 -->
<g id="Node000002" class="node">
<title>Node2</title>
<g id="a_Node000002"><a xlink:href="class_task_manager.html#afa8af16e4cb8afaee8d3ffb5a16acdb5" target="_top" xlink:title=" ">
<polygon fill="white" stroke="#666666" points="984.25,-39.86 842.25,-39.86 842.25,-19.86 984.25,-19.86 984.25,-39.86"/>
<text text-anchor="middle" x="913.25" y="-26.36" font-family="Helvetica,sans-Serif" font-size="10.00">TaskManager::set_path_task</text>
</a>
</g>
</g>
<!-- Node1&#45;&gt;Node2 -->
<g id="edge1_Node000001_Node000002" class="edge">
<title>Node1&#45;&gt;Node2</title>
<g id="a_edge1_Node000001_Node000002"><a xlink:title=" ">
<path fill="none" stroke="#63b8ff" d="M1009.01,-29.86C1000.91,-29.86 992.62,-29.86 984.49,-29.86"/>
<polygon fill="#63b8ff" stroke="#63b8ff" points="1008.92,-33.36 1018.92,-29.86 1008.92,-26.36 1008.92,-33.36"/>
</a>
</g>
</g>
<!-- Node3 -->
<g id="Node000003" class="node">
<title>Node3</title>
<g id="a_Node000003"><a xlink:href="class_task_manager.html#abf6a739a56cdc1bdf2cd71666c6f31be" target="_top" xlink:title=" ">
<polygon fill="white" stroke="#666666" points="806.25,-39.86 667.25,-39.86 667.25,-19.86 806.25,-19.86 806.25,-39.86"/>
<text text-anchor="middle" x="736.75" y="-26.36" font-family="Helvetica,sans-Serif" font-size="10.00">TaskManager::proceed_task</text>
</a>
</g>
</g>
<!-- Node2&#45;&gt;Node3 -->
<g id="edge2_Node000002_Node000003" class="edge">
<title>Node2&#45;&gt;Node3</title>
<g id="a_edge2_Node000002_Node000003"><a xlink:title=" ">
<path fill="none" stroke="#63b8ff" d="M831.05,-29.86C822.84,-29.86 814.56,-29.86 806.5,-29.86"/>
<polygon fill="#63b8ff" stroke="#63b8ff" points="830.78,-33.36 840.78,-29.86 830.78,-26.36 830.78,-33.36"/>
</a>
</g>
</g>
<!-- Node4 -->
<g id="Node000004" class="node">
<title>Node4</title>
<g id="a_Node000004"><a xlink:href="class_task_manager.html#a62720d3b2e70353688122cf2b706b3ce" target="_top" xlink:title=" ">
<polygon fill="white" stroke="#666666" points="329.25,-61.86 214.25,-61.86 214.25,-41.86 329.25,-41.86 329.25,-61.86"/>
<text text-anchor="middle" x="271.75" y="-48.36" font-family="Helvetica,sans-Serif" font-size="10.00">TaskManager::proceed</text>
</a>
</g>
</g>
<!-- Node3&#45;&gt;Node4 -->
<g id="edge3_Node000003_Node000004" class="edge">
<title>Node3&#45;&gt;Node4</title>
<g id="a_edge3_Node000003_Node000004"><a xlink:title=" ">
<path fill="none" stroke="#63b8ff" d="M690.9,-43.03C672.58,-47.77 651.07,-52.52 631.25,-54.86 525.24,-67.36 400.37,-61.77 329.49,-56.71"/>
<polygon fill="#63b8ff" stroke="#63b8ff" points="691.53,-46.22 700.28,-40.26 689.72,-39.46 691.53,-46.22"/>
</a>
</g>
</g>
<!-- Node7 -->
<g id="Node000007" class="node">
<title>Node7</title>
<g id="a_Node000007"><a xlink:href="class_task_manager.html#ad9d635ee64d44cc34b619f2e3018e9d1" target="_top" xlink:title=" ">
<polygon fill="white" stroke="#666666" points="631.25,-45.86 516.25,-45.86 516.25,-13.86 631.25,-13.86 631.25,-45.86"/>
<text text-anchor="start" x="524.25" y="-32.36" font-family="Helvetica,sans-Serif" font-size="10.00">TaskManager::proceed</text>
<text text-anchor="middle" x="573.75" y="-20.36" font-family="Helvetica,sans-Serif" font-size="10.00">_nested_task_list</text>
</a>
</g>
</g>
<!-- Node3&#45;&gt;Node7 -->
<g id="edge6_Node000003_Node000007" class="edge">
<title>Node3&#45;&gt;Node7</title>
<g id="a_edge6_Node000003_Node000007"><a xlink:title=" ">
<path fill="none" stroke="#63b8ff" d="M656.16,-29.86C647.88,-29.86 639.59,-29.86 631.63,-29.86"/>
<polygon fill="#63b8ff" stroke="#63b8ff" points="656,-33.36 666,-29.86 656,-26.36 656,-33.36"/>
</a>
</g>
</g>
<!-- Node8 -->
<g id="Node000008" class="node">
<title>Node8</title>
<g id="a_Node000008"><a xlink:href="class_task_manager.html#a4b629612e2a111fdcc964c4eb3f8b1f4" target="_top" xlink:title=" ">
<polygon fill="white" stroke="#666666" points="480.25,-45.86 365.25,-45.86 365.25,-13.86 480.25,-13.86 480.25,-45.86"/>
<text text-anchor="start" x="373.25" y="-32.36" font-family="Helvetica,sans-Serif" font-size="10.00">TaskManager::proceed</text>
<text text-anchor="middle" x="422.75" y="-20.36" font-family="Helvetica,sans-Serif" font-size="10.00">_task_list</text>
</a>
</g>
</g>
<!-- Node3&#45;&gt;Node8 -->
<g id="edge9_Node000003_Node000008" class="edge">
<title>Node3&#45;&gt;Node8</title>
<g id="a_edge9_Node000003_Node000008"><a xlink:title=" ">
<path fill="none" stroke="#63b8ff" d="M690.9,-16.69C672.58,-11.95 651.07,-7.2 631.25,-4.86 580.49,1.13 566.92,1.87 516.25,-4.86 502.73,-6.66 488.38,-9.87 475.12,-13.4"/>
<polygon fill="#63b8ff" stroke="#63b8ff" points="689.72,-20.26 700.28,-19.46 691.53,-13.5 689.72,-20.26"/>
</a>
</g>
</g>
<!-- Node5 -->
<g id="Node000005" class="node">
<title>Node5</title>
<g id="a_Node000005"><a xlink:href="main_8cpp.html#a205c0f32d26b6f27c711fa201d02c983" target="_top" xlink:title=" ">
<polygon fill="white" stroke="#666666" points="178.25,-61.86 73,-61.86 73,-41.86 178.25,-41.86 178.25,-61.86"/>
<text text-anchor="middle" x="125.62" y="-48.36" font-family="Helvetica,sans-Serif" font-size="10.00">data_server_thread_f</text>
</a>
</g>
</g>
<!-- Node4&#45;&gt;Node5 -->
<g id="edge4_Node000004_Node000005" class="edge">
<title>Node4&#45;&gt;Node5</title>
<g id="a_edge4_Node000004_Node000005"><a xlink:title=" ">
<path fill="none" stroke="#63b8ff" d="M203.03,-51.86C194.78,-51.86 186.46,-51.86 178.49,-51.86"/>
<polygon fill="#63b8ff" stroke="#63b8ff" points="202.79,-55.36 212.79,-51.86 202.79,-48.36 202.79,-55.36"/>
</a>
</g>
</g>
<!-- Node6 -->
<g id="Node000006" class="node">
<title>Node6</title>
<g id="a_Node000006"><a xlink:href="main_8cpp.html#a0ddf1224851353fc92bfbff6f499fa97" target="_top" xlink:title=" ">
<polygon fill="white" stroke="#666666" points="37,-61.86 0,-61.86 0,-41.86 37,-41.86 37,-61.86"/>
<text text-anchor="middle" x="18.5" y="-48.36" font-family="Helvetica,sans-Serif" font-size="10.00">main</text>
</a>
</g>
</g>
<!-- Node5&#45;&gt;Node6 -->
<g id="edge5_Node000005_Node000006" class="edge">
<title>Node5&#45;&gt;Node6</title>
<g id="a_edge5_Node000005_Node000006"><a xlink:title=" ">
<path fill="none" stroke="#63b8ff" d="M61.91,-51.86C52.84,-51.86 44.2,-51.86 37.1,-51.86"/>
<polygon fill="#63b8ff" stroke="#63b8ff" points="61.68,-55.36 71.68,-51.86 61.68,-48.36 61.68,-55.36"/>
</a>
</g>
</g>
<!-- Node7&#45;&gt;Node8 -->
<g id="edge7_Node000007_Node000008" class="edge">
<title>Node7&#45;&gt;Node8</title>
<g id="a_edge7_Node000007_Node000008"><a xlink:title=" ">
<path fill="none" stroke="#63b8ff" d="M505.18,-29.86C496.88,-29.86 488.46,-29.86 480.35,-29.86"/>
<polygon fill="#63b8ff" stroke="#63b8ff" points="504.99,-33.36 514.99,-29.86 504.99,-26.36 504.99,-33.36"/>
</a>
</g>
</g>
<!-- Node8&#45;&gt;Node4 -->
<g id="edge8_Node000008_Node000004" class="edge">
<title>Node8&#45;&gt;Node4</title>
<g id="a_edge8_Node000008_Node000004"><a xlink:title=" ">
<path fill="none" stroke="#63b8ff" d="M354.18,-39.84C345.88,-41.06 337.46,-42.3 329.35,-43.5"/>
<polygon fill="#63b8ff" stroke="#63b8ff" points="354.61,-43.16 363.99,-38.24 353.59,-36.24 354.61,-43.16"/>
</a>
</g>
</g>
</g>
</svg>
