<?xml version="1.0" encoding="UTF-8" standalone="no"?>
<!DOCTYPE svg PUBLIC "-//W3C//DTD SVG 1.1//EN"
 "http://www.w3.org/Graphics/SVG/1.1/DTD/svg11.dtd">
<!-- Generated by graphviz version 8.0.5 (20230430.1635)
 -->
<!-- Title: DeviceSet::get_vna_switch_module_count Pages: 1 -->
<svg width="287pt" height="78pt"
 viewBox="0.00 0.00 286.75 78.00" xmlns="http://www.w3.org/2000/svg" xmlns:xlink="http://www.w3.org/1999/xlink">
<g id="graph0" class="graph" transform="scale(1 1) rotate(0) translate(4 74)">
<title>DeviceSet::get_vna_switch_module_count</title>
<!-- Node1 -->
<g id="Node000001" class="node">
<title>Node1</title>
<g id="a_Node000001"><a xlink:title="Метод позволяет получить число переключателей, подключенных к ВАЦ.">
<polygon fill="#999999" stroke="#666666" points="115,-48 0,-48 0,-16 115,-16 115,-48"/>
<text text-anchor="start" x="8" y="-34.5" font-family="Helvetica,sans-Serif" font-size="10.00">DeviceSet::get_vna</text>
<text text-anchor="middle" x="57.5" y="-22.5" font-family="Helvetica,sans-Serif" font-size="10.00">_switch_module_count</text>
</a>
</g>
</g>
<!-- Node2 -->
<g id="Node000002" class="node">
<title>Node2</title>
<g id="a_Node000002"><a xlink:href="class_vna_device.html#abbe7ac7ab8da8e7c27b7f7525d1d32a4" target="_top" xlink:title="Запрос количества переключателей, подключенных к ВАЦ">
<polygon fill="white" stroke="#666666" points="272,-70 157.75,-70 157.75,-38 272,-38 272,-70"/>
<text text-anchor="start" x="165.75" y="-56.5" font-family="Helvetica,sans-Serif" font-size="10.00">VnaDevice::get_switch</text>
<text text-anchor="middle" x="214.88" y="-44.5" font-family="Helvetica,sans-Serif" font-size="10.00">_module_count</text>
</a>
</g>
</g>
<!-- Node1&#45;&gt;Node2 -->
<g id="edge1_Node000001_Node000002" class="edge">
<title>Node1&#45;&gt;Node2</title>
<g id="a_edge1_Node000001_Node000002"><a xlink:title=" ">
<path fill="none" stroke="#63b8ff" d="M115.47,-40.07C125.63,-41.51 136.3,-43.02 146.7,-44.49"/>
<polygon fill="#63b8ff" stroke="#63b8ff" points="146.04,-48.07 156.43,-46.01 147.02,-41.14 146.04,-48.07"/>
</a>
</g>
</g>
<!-- Node3 -->
<g id="Node000003" class="node">
<title>Node3</title>
<g id="a_Node000003"><a xlink:href="class_visa_device.html#aa53bc03ce9be2af514335565d585414e" target="_top" xlink:title="Метод, возвращающий значение флага connected.">
<polygon fill="white" stroke="#666666" points="278.75,-20 151,-20 151,0 278.75,0 278.75,-20"/>
<text text-anchor="middle" x="214.88" y="-6.5" font-family="Helvetica,sans-Serif" font-size="10.00">VisaDevice::is_connected</text>
</a>
</g>
</g>
<!-- Node1&#45;&gt;Node3 -->
<g id="edge2_Node000001_Node000003" class="edge">
<title>Node1&#45;&gt;Node3</title>
<g id="a_edge2_Node000001_Node000003"><a xlink:title=" ">
<path fill="none" stroke="#63b8ff" d="M115.47,-23.93C123.42,-22.81 131.68,-21.64 139.89,-20.48"/>
<polygon fill="#63b8ff" stroke="#63b8ff" points="140.2,-23.82 149.62,-18.96 139.22,-16.89 140.2,-23.82"/>
</a>
</g>
</g>
</g>
</svg>
