<?xml version="1.0" encoding="UTF-8" standalone="no"?>
<!DOCTYPE svg PUBLIC "-//W3C//DTD SVG 1.1//EN"
 "http://www.w3.org/Graphics/SVG/1.1/DTD/svg11.dtd">
<!-- Generated by graphviz version 8.0.5 (20230430.1635)
 -->
<!-- Title: VisaDevice::opc Pages: 1 -->
<svg width="609pt" height="142pt"
 viewBox="0.00 0.00 608.50 142.00" xmlns="http://www.w3.org/2000/svg" xmlns:xlink="http://www.w3.org/1999/xlink">
<g id="graph0" class="graph" transform="scale(1 1) rotate(0) translate(4 138)">
<title>VisaDevice::opc</title>
<!-- Node1 -->
<g id="Node000001" class="node">
<title>Node1</title>
<g id="a_Node000001"><a xlink:title=" ">
<polygon fill="#999999" stroke="#666666" points="85.75,-96 0,-96 0,-76 85.75,-76 85.75,-96"/>
<text text-anchor="middle" x="42.88" y="-82.5" font-family="Helvetica,sans-Serif" font-size="10.00">VisaDevice::opc</text>
</a>
</g>
</g>
<!-- Node2 -->
<g id="Node000002" class="node">
<title>Node2</title>
<g id="a_Node000002"><a xlink:href="class_logger.html#af7709105c2708359b7b082218f4cc3e1" target="_top" xlink:title="Функция, осуществляющая логирование">
<polygon fill="white" stroke="#666666" points="442,-77 378,-77 378,-57 442,-57 442,-77"/>
<text text-anchor="middle" x="410" y="-63.5" font-family="Helvetica,sans-Serif" font-size="10.00">Logger::log</text>
</a>
</g>
</g>
<!-- Node1&#45;&gt;Node2 -->
<g id="edge1_Node000001_Node000002" class="edge">
<title>Node1&#45;&gt;Node2</title>
<g id="a_edge1_Node000001_Node000002"><a xlink:title=" ">
<path fill="none" stroke="#63b8ff" d="M86.09,-89.64C144.09,-93.81 251.52,-98.58 342,-86 350.77,-84.78 360,-82.7 368.72,-80.36"/>
<polygon fill="#63b8ff" stroke="#63b8ff" points="369.38,-83.53 378.03,-77.41 367.45,-76.8 369.38,-83.53"/>
</a>
</g>
</g>
<!-- Node7 -->
<g id="Node000007" class="node">
<title>Node7</title>
<g id="a_Node000007"><a xlink:href="class_visa_device.html#aa807192fd9a8c3e6efc458f78de5e73e" target="_top" xlink:title=" ">
<polygon fill="white" stroke="#666666" points="215.75,-77 121.75,-77 121.75,-57 215.75,-57 215.75,-77"/>
<text text-anchor="middle" x="168.75" y="-63.5" font-family="Helvetica,sans-Serif" font-size="10.00">VisaDevice::query</text>
</a>
</g>
</g>
<!-- Node1&#45;&gt;Node7 -->
<g id="edge6_Node000001_Node000007" class="edge">
<title>Node1&#45;&gt;Node7</title>
<g id="a_edge6_Node000001_Node000007"><a xlink:title=" ">
<path fill="none" stroke="#63b8ff" d="M86.16,-79.51C94.05,-78.3 102.42,-77.02 110.68,-75.75"/>
<polygon fill="#63b8ff" stroke="#63b8ff" points="111.06,-79.08 120.41,-74.11 110,-72.16 111.06,-79.08"/>
</a>
</g>
</g>
<!-- Node3 -->
<g id="Node000003" class="node">
<title>Node3</title>
<g id="a_Node000003"><a xlink:href="logger_8hpp.html#a49284b7befa8e31f81e01ee8f3735dd0" target="_top" xlink:title="Функция, которая снимает значение текущего времени и конвертирует его в строку с заданным шаблоном.">
<polygon fill="white" stroke="#666666" points="583.62,-134 494.88,-134 494.88,-114 583.62,-114 583.62,-134"/>
<text text-anchor="middle" x="539.25" y="-120.5" font-family="Helvetica,sans-Serif" font-size="10.00">get_current_time</text>
</a>
</g>
</g>
<!-- Node2&#45;&gt;Node3 -->
<g id="edge2_Node000002_Node000003" class="edge">
<title>Node2&#45;&gt;Node3</title>
<g id="a_edge2_Node000002_Node000003"><a xlink:title=" ">
<path fill="none" stroke="#63b8ff" d="M427.02,-77.36C440.3,-85.63 459.85,-97.1 478,-105 482.07,-106.77 486.36,-108.46 490.7,-110.05"/>
<polygon fill="#63b8ff" stroke="#63b8ff" points="489.24,-113.59 499.84,-113.55 491.53,-106.97 489.24,-113.59"/>
</a>
</g>
</g>
<!-- Node4 -->
<g id="Node000004" class="node">
<title>Node4</title>
<g id="a_Node000004"><a xlink:href="class_logger.html#a6edb7b263f080d417b82a537ed50fee4" target="_top" xlink:title="Функция, возвращающая тег в зависимости от уровня логирования и от назначения тега.">
<polygon fill="white" stroke="#666666" points="581,-96 497.5,-96 497.5,-76 581,-76 581,-96"/>
<text text-anchor="middle" x="539.25" y="-82.5" font-family="Helvetica,sans-Serif" font-size="10.00">Logger::get_tag</text>
</a>
</g>
</g>
<!-- Node2&#45;&gt;Node4 -->
<g id="edge3_Node000002_Node000004" class="edge">
<title>Node2&#45;&gt;Node4</title>
<g id="a_edge3_Node000002_Node000004"><a xlink:title=" ">
<path fill="none" stroke="#63b8ff" d="M442.46,-71.7C455.72,-73.68 471.52,-76.04 486.42,-78.26"/>
<polygon fill="#63b8ff" stroke="#63b8ff" points="485.66,-81.84 496.07,-79.85 486.69,-74.91 485.66,-81.84"/>
</a>
</g>
</g>
<!-- Node5 -->
<g id="Node000005" class="node">
<title>Node5</title>
<g id="a_Node000005"><a xlink:href="class_logger.html#a4825613142ebb093bf8fa26f21f7f3fc" target="_top" xlink:title="Функция, которая выводит сообщение в консоль.">
<polygon fill="white" stroke="#666666" points="600.5,-58 478,-58 478,-38 600.5,-38 600.5,-58"/>
<text text-anchor="middle" x="539.25" y="-44.5" font-family="Helvetica,sans-Serif" font-size="10.00">Logger::print_to_console</text>
</a>
</g>
</g>
<!-- Node2&#45;&gt;Node5 -->
<g id="edge4_Node000002_Node000005" class="edge">
<title>Node2&#45;&gt;Node5</title>
<g id="a_edge4_Node000002_Node000005"><a xlink:title=" ">
<path fill="none" stroke="#63b8ff" d="M442.46,-62.3C449.96,-61.18 458.27,-59.94 466.78,-58.67"/>
<polygon fill="#63b8ff" stroke="#63b8ff" points="467.23,-61.99 476.6,-57.06 466.19,-55.07 467.23,-61.99"/>
</a>
</g>
</g>
<!-- Node6 -->
<g id="Node000006" class="node">
<title>Node6</title>
<g id="a_Node000006"><a xlink:href="class_logger.html#a999bb33f7cf079cb98f32fae6016a2f3" target="_top" xlink:title="Функция, которая записывает сообщение в файл.">
<polygon fill="white" stroke="#666666" points="589.62,-20 488.88,-20 488.88,0 589.62,0 589.62,-20"/>
<text text-anchor="middle" x="539.25" y="-6.5" font-family="Helvetica,sans-Serif" font-size="10.00">Logger::print_to_file</text>
</a>
</g>
</g>
<!-- Node2&#45;&gt;Node6 -->
<g id="edge5_Node000002_Node000006" class="edge">
<title>Node2&#45;&gt;Node6</title>
<g id="a_edge5_Node000002_Node000006"><a xlink:title=" ">
<path fill="none" stroke="#63b8ff" d="M427.02,-56.64C440.3,-48.37 459.85,-36.9 478,-29 482.07,-27.23 486.36,-25.54 490.7,-23.95"/>
<polygon fill="#63b8ff" stroke="#63b8ff" points="491.53,-27.03 499.84,-20.45 489.24,-20.41 491.53,-27.03"/>
</a>
</g>
</g>
<!-- Node8 -->
<g id="Node000008" class="node">
<title>Node8</title>
<g id="a_Node000008"><a xlink:href="class_visa_device.html#aca08d9dbb0469f1143668a485e4adfe2" target="_top" xlink:title=" ">
<polygon fill="white" stroke="#666666" points="341.25,-77 252.5,-77 252.5,-57 341.25,-57 341.25,-77"/>
<text text-anchor="middle" x="296.88" y="-63.5" font-family="Helvetica,sans-Serif" font-size="10.00">VisaDevice::read</text>
</a>
</g>
</g>
<!-- Node7&#45;&gt;Node8 -->
<g id="edge7_Node000007_Node000008" class="edge">
<title>Node7&#45;&gt;Node8</title>
<g id="a_edge7_Node000007_Node000008"><a xlink:title=" ">
<path fill="none" stroke="#63b8ff" d="M216,-67C224.21,-67 232.83,-67 241.25,-67"/>
<polygon fill="#63b8ff" stroke="#63b8ff" points="241.15,-70.5 251.15,-67 241.15,-63.5 241.15,-70.5"/>
</a>
</g>
</g>
<!-- Node9 -->
<g id="Node000009" class="node">
<title>Node9</title>
<g id="a_Node000009"><a xlink:href="class_visa_device.html#a29202c3f5e47326386d1d27972e25267" target="_top" xlink:title=" ">
<polygon fill="white" stroke="#666666" points="342,-39 251.75,-39 251.75,-19 342,-19 342,-39"/>
<text text-anchor="middle" x="296.88" y="-25.5" font-family="Helvetica,sans-Serif" font-size="10.00">VisaDevice::write</text>
</a>
</g>
</g>
<!-- Node7&#45;&gt;Node9 -->
<g id="edge9_Node000007_Node000009" class="edge">
<title>Node7&#45;&gt;Node9</title>
<g id="a_edge9_Node000007_Node000009"><a xlink:title=" ">
<path fill="none" stroke="#63b8ff" d="M204.55,-56.52C218.88,-52.2 235.68,-47.14 250.93,-42.54"/>
<polygon fill="#63b8ff" stroke="#63b8ff" points="251.63,-45.69 260.19,-39.45 249.61,-38.98 251.63,-45.69"/>
</a>
</g>
</g>
<!-- Node8&#45;&gt;Node2 -->
<g id="edge8_Node000008_Node000002" class="edge">
<title>Node8&#45;&gt;Node2</title>
<g id="a_edge8_Node000008_Node000002"><a xlink:title=" ">
<path fill="none" stroke="#63b8ff" d="M341.48,-67C349.75,-67 358.4,-67 366.64,-67"/>
<polygon fill="#63b8ff" stroke="#63b8ff" points="366.54,-70.5 376.54,-67 366.54,-63.5 366.54,-70.5"/>
</a>
</g>
</g>
<!-- Node9&#45;&gt;Node2 -->
<g id="edge10_Node000009_Node000002" class="edge">
<title>Node9&#45;&gt;Node2</title>
<g id="a_edge10_Node000009_Node000002"><a xlink:title=" ">
<path fill="none" stroke="#63b8ff" d="M328.53,-39.48C340.8,-43.68 355.11,-48.57 368.23,-53.06"/>
<polygon fill="#63b8ff" stroke="#63b8ff" points="366.85,-56.63 377.44,-56.55 369.11,-50 366.85,-56.63"/>
</a>
</g>
</g>
</g>
</svg>
