<?xml version="1.0" encoding="UTF-8" standalone="no"?>
<!DOCTYPE svg PUBLIC "-//W3C//DTD SVG 1.1//EN"
 "http://www.w3.org/Graphics/SVG/1.1/DTD/svg11.dtd">
<!-- Generated by graphviz version 8.1.0 (20230707.0739)
 -->
<!-- Title: TesartRbd::move_to_start_angle Pages: 1 -->
<svg width="799pt" height="142pt"
 viewBox="0.00 0.00 798.50 142.00" xmlns="http://www.w3.org/2000/svg" xmlns:xlink="http://www.w3.org/1999/xlink">
<g id="graph0" class="graph" transform="scale(1 1) rotate(0) translate(4 138)">
<title>TesartRbd::move_to_start_angle</title>
<!-- Node1 -->
<g id="Node000001" class="node">
<title>Node1</title>
<g id="a_Node000001"><a xlink:title="Устанавливает угловую точку, соответствующую началу диапазона.">
<polygon fill="#999999" stroke="#666666" points="102.25,-64 0,-64 0,-32 102.25,-32 102.25,-64"/>
<text text-anchor="start" x="8" y="-50.5" font-family="Helvetica,sans-Serif" font-size="10.00">TesartRbd::move_to</text>
<text text-anchor="middle" x="51.12" y="-38.5" font-family="Helvetica,sans-Serif" font-size="10.00">_start_angle</text>
</a>
</g>
</g>
<!-- Node2 -->
<g id="Node000002" class="node">
<title>Node2</title>
<g id="a_Node000002"><a xlink:href="class_tesart_rbd.html#a1317670f51c7e529ca5960e69b7563a7" target="_top" xlink:title="Поворачивает ось до тех пор, пока она не достигнет требуемого угла">
<polygon fill="white" stroke="#666666" points="227,-58 138.25,-58 138.25,-38 227,-38 227,-58"/>
<text text-anchor="middle" x="182.62" y="-44.5" font-family="Helvetica,sans-Serif" font-size="10.00">TesartRbd::move</text>
</a>
</g>
</g>
<!-- Node1&#45;&gt;Node2 -->
<g id="edge1_Node000001_Node000002" class="edge">
<title>Node1&#45;&gt;Node2</title>
<g id="a_edge1_Node000001_Node000002"><a xlink:title=" ">
<path fill="none" stroke="#63b8ff" d="M102.56,-48C110.57,-48 118.89,-48 126.98,-48"/>
<polygon fill="#63b8ff" stroke="#63b8ff" points="126.84,-51.5 136.84,-48 126.84,-44.5 126.84,-51.5"/>
</a>
</g>
</g>
<!-- Node3 -->
<g id="Node000003" class="node">
<title>Node3</title>
<g id="a_Node000003"><a xlink:href="class_tesart_rbd.html#a9a7da6f896259d62e9f1b1850371fa5e" target="_top" xlink:title="Метод позволяет проверить, остановлена ли ось">
<polygon fill="white" stroke="#666666" points="376.5,-77 263,-77 263,-57 376.5,-57 376.5,-77"/>
<text text-anchor="middle" x="319.75" y="-63.5" font-family="Helvetica,sans-Serif" font-size="10.00">TesartRbd::is_stopped</text>
</a>
</g>
</g>
<!-- Node2&#45;&gt;Node3 -->
<g id="edge2_Node000002_Node000003" class="edge">
<title>Node2&#45;&gt;Node3</title>
<g id="a_edge2_Node000002_Node000003"><a xlink:title=" ">
<path fill="none" stroke="#63b8ff" d="M227.5,-54.17C235.32,-55.27 243.63,-56.44 251.92,-57.6"/>
<polygon fill="#63b8ff" stroke="#63b8ff" points="251.38,-61.2 261.77,-59.13 252.36,-54.27 251.38,-61.2"/>
</a>
</g>
</g>
<!-- Node4 -->
<g id="Node000004" class="node">
<title>Node4</title>
<g id="a_Node000004"><a xlink:href="class_logger.html#af7709105c2708359b7b082218f4cc3e1" target="_top" xlink:title="Метод, осуществляющий логирование">
<polygon fill="white" stroke="#666666" points="618.88,-77 554.88,-77 554.88,-57 618.88,-57 618.88,-77"/>
<text text-anchor="middle" x="586.88" y="-63.5" font-family="Helvetica,sans-Serif" font-size="10.00">Logger::log</text>
</a>
</g>
</g>
<!-- Node2&#45;&gt;Node4 -->
<g id="edge11_Node000002_Node000004" class="edge">
<title>Node2&#45;&gt;Node4</title>
<g id="a_edge11_Node000002_Node000004"><a xlink:title=" ">
<path fill="none" stroke="#63b8ff" d="M227.31,-46.87C266.42,-46.14 325.32,-45.68 376.5,-48 434.74,-50.64 501.81,-57.38 544.02,-62.08"/>
<polygon fill="#63b8ff" stroke="#63b8ff" points="543.39,-65.64 553.72,-63.28 544.17,-58.69 543.39,-65.64"/>
</a>
</g>
</g>
<!-- Node3&#45;&gt;Node4 -->
<g id="edge3_Node000003_Node000004" class="edge">
<title>Node3&#45;&gt;Node4</title>
<g id="a_edge3_Node000003_Node000004"><a xlink:title=" ">
<path fill="none" stroke="#63b8ff" d="M376.98,-67C426.86,-67 498.62,-67 543.72,-67"/>
<polygon fill="#63b8ff" stroke="#63b8ff" points="543.58,-70.5 553.58,-67 543.58,-63.5 543.58,-70.5"/>
</a>
</g>
</g>
<!-- Node9 -->
<g id="Node000009" class="node">
<title>Node9</title>
<g id="a_Node000009"><a xlink:href="class_tesart_rbd.html#affbded46e17aa303601ba7ef885107b8" target="_top" xlink:title="Запрос статуса оси ОПУ по номеру оси">
<polygon fill="white" stroke="#666666" points="505.75,-115 412.5,-115 412.5,-95 505.75,-95 505.75,-115"/>
<text text-anchor="middle" x="459.12" y="-101.5" font-family="Helvetica,sans-Serif" font-size="10.00">TesartRbd::status</text>
</a>
</g>
</g>
<!-- Node3&#45;&gt;Node9 -->
<g id="edge8_Node000003_Node000009" class="edge">
<title>Node3&#45;&gt;Node9</title>
<g id="a_edge8_Node000003_Node000009"><a xlink:title=" ">
<path fill="none" stroke="#63b8ff" d="M358.65,-77.48C374.57,-81.89 393.26,-87.06 410.13,-91.72"/>
<polygon fill="#63b8ff" stroke="#63b8ff" points="408.78,-95.26 419.35,-94.55 410.64,-88.51 408.78,-95.26"/>
</a>
</g>
</g>
<!-- Node5 -->
<g id="Node000005" class="node">
<title>Node5</title>
<g id="a_Node000005"><a xlink:href="logger_8hpp.html#a49284b7befa8e31f81e01ee8f3735dd0" target="_top" xlink:title="Функция, которая снимает значение текущего времени и конвертирует его в строку с заданным шаблоном.">
<polygon fill="white" stroke="#666666" points="773.62,-134 684.88,-134 684.88,-114 773.62,-114 773.62,-134"/>
<text text-anchor="middle" x="729.25" y="-120.5" font-family="Helvetica,sans-Serif" font-size="10.00">get_current_time</text>
</a>
</g>
</g>
<!-- Node4&#45;&gt;Node5 -->
<g id="edge4_Node000004_Node000005" class="edge">
<title>Node4&#45;&gt;Node5</title>
<g id="a_edge4_Node000004_Node000005"><a xlink:title=" ">
<path fill="none" stroke="#63b8ff" d="M612.77,-77.31C619.09,-80.04 625.83,-83.05 632,-86 648.32,-93.81 651.31,-98.03 668,-105 672.33,-106.81 676.9,-108.54 681.5,-110.18"/>
<polygon fill="#63b8ff" stroke="#63b8ff" points="679.95,-113.69 690.55,-113.59 682.2,-107.06 679.95,-113.69"/>
</a>
</g>
</g>
<!-- Node6 -->
<g id="Node000006" class="node">
<title>Node6</title>
<g id="a_Node000006"><a xlink:href="class_logger.html#a6edb7b263f080d417b82a537ed50fee4" target="_top" xlink:title="Возвращает тег в зависимости от уровня логирования и от назначения тега.">
<polygon fill="white" stroke="#666666" points="771,-96 687.5,-96 687.5,-76 771,-76 771,-96"/>
<text text-anchor="middle" x="729.25" y="-82.5" font-family="Helvetica,sans-Serif" font-size="10.00">Logger::get_tag</text>
</a>
</g>
</g>
<!-- Node4&#45;&gt;Node6 -->
<g id="edge5_Node000004_Node000006" class="edge">
<title>Node4&#45;&gt;Node6</title>
<g id="a_edge5_Node000004_Node000006"><a xlink:title=" ">
<path fill="none" stroke="#63b8ff" d="M619.03,-71.22C635.85,-73.49 657.06,-76.36 676.31,-78.97"/>
<polygon fill="#63b8ff" stroke="#63b8ff" points="675.68,-82.55 686.06,-80.42 676.62,-75.61 675.68,-82.55"/>
</a>
</g>
</g>
<!-- Node7 -->
<g id="Node000007" class="node">
<title>Node7</title>
<g id="a_Node000007"><a xlink:href="class_logger.html#a4825613142ebb093bf8fa26f21f7f3fc" target="_top" xlink:title="Метод, который выводит сообщение в консоль.">
<polygon fill="white" stroke="#666666" points="790.5,-58 668,-58 668,-38 790.5,-38 790.5,-58"/>
<text text-anchor="middle" x="729.25" y="-44.5" font-family="Helvetica,sans-Serif" font-size="10.00">Logger::print_to_console</text>
</a>
</g>
</g>
<!-- Node4&#45;&gt;Node7 -->
<g id="edge6_Node000004_Node000007" class="edge">
<title>Node4&#45;&gt;Node7</title>
<g id="a_edge6_Node000004_Node000007"><a xlink:title=" ">
<path fill="none" stroke="#63b8ff" d="M619.03,-62.78C630.31,-61.26 643.56,-59.46 656.87,-57.66"/>
<polygon fill="#63b8ff" stroke="#63b8ff" points="657.08,-61.03 666.52,-56.22 656.15,-54.09 657.08,-61.03"/>
</a>
</g>
</g>
<!-- Node8 -->
<g id="Node000008" class="node">
<title>Node8</title>
<g id="a_Node000008"><a xlink:href="class_logger.html#a999bb33f7cf079cb98f32fae6016a2f3" target="_top" xlink:title="Метод, который записывает сообщение в файл.">
<polygon fill="white" stroke="#666666" points="779.62,-20 678.88,-20 678.88,0 779.62,0 779.62,-20"/>
<text text-anchor="middle" x="729.25" y="-6.5" font-family="Helvetica,sans-Serif" font-size="10.00">Logger::print_to_file</text>
</a>
</g>
</g>
<!-- Node4&#45;&gt;Node8 -->
<g id="edge7_Node000004_Node000008" class="edge">
<title>Node4&#45;&gt;Node8</title>
<g id="a_edge7_Node000004_Node000008"><a xlink:title=" ">
<path fill="none" stroke="#63b8ff" d="M607.95,-56.53C623.96,-48.42 647.08,-37.22 668,-29 672.49,-27.24 677.21,-25.52 681.95,-23.89"/>
<polygon fill="#63b8ff" stroke="#63b8ff" points="682.9,-26.93 691.29,-20.45 680.69,-20.28 682.9,-26.93"/>
</a>
</g>
</g>
<!-- Node9&#45;&gt;Node4 -->
<g id="edge9_Node000009_Node000004" class="edge">
<title>Node9&#45;&gt;Node4</title>
<g id="a_edge9_Node000009_Node000004"><a xlink:title=" ">
<path fill="none" stroke="#63b8ff" d="M494.82,-94.52C510.21,-89.87 528.43,-84.36 544.52,-79.5"/>
<polygon fill="#63b8ff" stroke="#63b8ff" points="545.17,-82.66 553.73,-76.41 543.14,-75.95 545.17,-82.66"/>
</a>
</g>
</g>
<!-- Node10 -->
<g id="Node000010" class="node">
<title>Node10</title>
<g id="a_Node000010"><a xlink:href="namespacestring__utils.html#a9fe07494ccc7914840b0d615974bc802" target="_top" xlink:title="Делит строку на две части по требуемому символу и возвращает содержимое правой части">
<polygon fill="white" stroke="#666666" points="632,-115 541.75,-115 541.75,-95 632,-95 632,-115"/>
<text text-anchor="middle" x="586.88" y="-101.5" font-family="Helvetica,sans-Serif" font-size="10.00">string_utils::lstrip</text>
</a>
</g>
</g>
<!-- Node9&#45;&gt;Node10 -->
<g id="edge10_Node000009_Node000010" class="edge">
<title>Node9&#45;&gt;Node10</title>
<g id="a_edge10_Node000009_Node000010"><a xlink:title=" ">
<path fill="none" stroke="#63b8ff" d="M506.24,-105C514.14,-105 522.42,-105 530.54,-105"/>
<polygon fill="#63b8ff" stroke="#63b8ff" points="530.45,-108.5 540.45,-105 530.45,-101.5 530.45,-108.5"/>
</a>
</g>
</g>
</g>
</svg>
