<?xml version="1.0" encoding="UTF-8" standalone="no"?>
<!DOCTYPE svg PUBLIC "-//W3C//DTD SVG 1.1//EN"
 "http://www.w3.org/Graphics/SVG/1.1/DTD/svg11.dtd">
<!-- Generated by graphviz version 8.0.5 (20230430.1635)
 -->
<!-- Title: KeysightM9807A::create_traces Pages: 1 -->
<svg width="1212pt" height="251pt"
 viewBox="0.00 0.00 1211.75 250.79" xmlns="http://www.w3.org/2000/svg" xmlns:xlink="http://www.w3.org/1999/xlink">
<g id="graph0" class="graph" transform="scale(1 1) rotate(0) translate(4 246.79)">
<title>KeysightM9807A::create_traces</title>
<!-- Node1 -->
<g id="Node000001" class="node">
<title>Node1</title>
<g id="a_Node000001"><a xlink:title=" ">
<polygon fill="#999999" stroke="#666666" points="123.25,-220.79 0,-220.79 0,-188.79 123.25,-188.79 123.25,-220.79"/>
<text text-anchor="start" x="8" y="-207.29" font-family="Helvetica,sans-Serif" font-size="10.00">KeysightM9807A::create</text>
<text text-anchor="middle" x="61.62" y="-195.29" font-family="Helvetica,sans-Serif" font-size="10.00">_traces</text>
</a>
</g>
</g>
<!-- Node2 -->
<g id="Node000002" class="node">
<title>Node2</title>
<g id="a_Node000002"><a xlink:href="namespacearray__utils.html#acc51bcd934d5180b0733c6335deaa8a7" target="_top" xlink:title="Функция, которая позволяет найти индекс требуемого элемента">
<polygon fill="white" stroke="#666666" points="269.38,-233.79 179.12,-233.79 179.12,-213.79 269.38,-213.79 269.38,-233.79"/>
<text text-anchor="middle" x="224.25" y="-220.29" font-family="Helvetica,sans-Serif" font-size="10.00">array_utils::index</text>
</a>
</g>
</g>
<!-- Node1&#45;&gt;Node2 -->
<g id="edge1_Node000001_Node000002" class="edge">
<title>Node1&#45;&gt;Node2</title>
<g id="a_edge1_Node000001_Node000002"><a xlink:title=" ">
<path fill="none" stroke="#63b8ff" d="M123.35,-211.98C138.08,-213.72 153.74,-215.57 168.18,-217.28"/>
<polygon fill="#63b8ff" stroke="#63b8ff" points="167.62,-220.86 177.96,-218.56 168.44,-213.9 167.62,-220.86"/>
</a>
</g>
</g>
<!-- Node3 -->
<g id="Node000003" class="node">
<title>Node3</title>
<g id="a_Node000003"><a xlink:href="class_visa_device.html#a069e154c5f48779dfd908146db9e66ed" target="_top" xlink:title=" ">
<polygon fill="white" stroke="#666666" points="289.25,-195.79 159.25,-195.79 159.25,-175.79 289.25,-175.79 289.25,-195.79"/>
<text text-anchor="middle" x="224.25" y="-182.29" font-family="Helvetica,sans-Serif" font-size="10.00">VisaDevice::send_wait_err</text>
</a>
</g>
</g>
<!-- Node1&#45;&gt;Node3 -->
<g id="edge2_Node000001_Node000003" class="edge">
<title>Node1&#45;&gt;Node3</title>
<g id="a_edge2_Node000001_Node000003"><a xlink:title=" ">
<path fill="none" stroke="#63b8ff" d="M123.35,-197.61C131.44,-196.65 139.82,-195.66 148.12,-194.68"/>
<polygon fill="#63b8ff" stroke="#63b8ff" points="148.44,-198.05 157.96,-193.4 147.61,-191.1 148.44,-198.05"/>
</a>
</g>
</g>
<!-- Node4 -->
<g id="Node000004" class="node">
<title>Node4</title>
<g id="a_Node000004"><a xlink:href="class_visa_device.html#aba4642c194cffe2135a133e23960ab63" target="_top" xlink:title=" ">
<polygon fill="white" stroke="#666666" points="684.12,-195.79 602.88,-195.79 602.88,-175.79 684.12,-175.79 684.12,-195.79"/>
<text text-anchor="middle" x="643.5" y="-182.29" font-family="Helvetica,sans-Serif" font-size="10.00">VisaDevice::err</text>
</a>
</g>
</g>
<!-- Node3&#45;&gt;Node4 -->
<g id="edge3_Node000003_Node000004" class="edge">
<title>Node3&#45;&gt;Node4</title>
<g id="a_edge3_Node000003_Node000004"><a xlink:title=" ">
<path fill="none" stroke="#63b8ff" d="M289.53,-185.79C372.65,-185.79 515.74,-185.79 591.69,-185.79"/>
<polygon fill="#63b8ff" stroke="#63b8ff" points="591.39,-189.29 601.39,-185.79 591.39,-182.29 591.39,-189.29"/>
</a>
</g>
</g>
<!-- Node5 -->
<g id="Node000005" class="node">
<title>Node5</title>
<g id="a_Node000005"><a xlink:href="class_logger.html#af7709105c2708359b7b082218f4cc3e1" target="_top" xlink:title="Функция, осуществляющая логирование">
<polygon fill="white" stroke="#666666" points="1045.25,-100.79 981.25,-100.79 981.25,-80.79 1045.25,-80.79 1045.25,-100.79"/>
<text text-anchor="middle" x="1013.25" y="-87.29" font-family="Helvetica,sans-Serif" font-size="10.00">Logger::log</text>
</a>
</g>
</g>
<!-- Node3&#45;&gt;Node5 -->
<g id="edge14_Node000003_Node000005" class="edge">
<title>Node3&#45;&gt;Node5</title>
<g id="a_edge14_Node000003_Node000005"><a xlink:title=" ">
<path fill="none" stroke="#63b8ff" d="M268.05,-196.25C336.88,-212.7 469.32,-242.79 517.38,-242.79 517.38,-242.79 517.38,-242.79 773,-242.79 855.31,-242.79 879.07,-223.73 945.25,-174.79 968.91,-157.29 988.86,-129.46 1000.68,-110.67"/>
<polygon fill="#63b8ff" stroke="#63b8ff" points="1004.18,-112.65 1006.38,-102.29 998.2,-109.02 1004.18,-112.65"/>
</a>
</g>
</g>
<!-- Node13 -->
<g id="Node000013" class="node">
<title>Node13</title>
<g id="a_Node000013"><a xlink:href="class_visa_device.html#a3744ee1e929d6c05b522693c344c76b3" target="_top" xlink:title=" ">
<polygon fill="white" stroke="#666666" points="438.75,-119.79 325.25,-119.79 325.25,-99.79 438.75,-99.79 438.75,-119.79"/>
<text text-anchor="middle" x="382" y="-106.29" font-family="Helvetica,sans-Serif" font-size="10.00">VisaDevice::send_wait</text>
</a>
</g>
</g>
<!-- Node3&#45;&gt;Node13 -->
<g id="edge15_Node000003_Node000013" class="edge">
<title>Node3&#45;&gt;Node13</title>
<g id="a_edge15_Node000003_Node000013"><a xlink:title=" ">
<path fill="none" stroke="#63b8ff" d="M246.58,-175.39C273.38,-162.31 319.55,-139.78 350.19,-124.83"/>
<polygon fill="#63b8ff" stroke="#63b8ff" points="351.48,-127.61 358.93,-120.08 348.41,-121.32 351.48,-127.61"/>
</a>
</g>
</g>
<!-- Node4&#45;&gt;Node5 -->
<g id="edge4_Node000004_Node000005" class="edge">
<title>Node4&#45;&gt;Node5</title>
<g id="a_edge4_Node000004_Node000005"><a xlink:title=" ">
<path fill="none" stroke="#63b8ff" d="M684.37,-187.82C743.84,-189.32 858.1,-186.24 945.25,-147.79 965.19,-139 983.73,-122.29 996.22,-109.23"/>
<polygon fill="#63b8ff" stroke="#63b8ff" points="998.33,-112.02 1002.51,-102.29 993.17,-107.29 998.33,-112.02"/>
</a>
</g>
</g>
<!-- Node10 -->
<g id="Node000010" class="node">
<title>Node10</title>
<g id="a_Node000010"><a xlink:href="class_visa_device.html#aa807192fd9a8c3e6efc458f78de5e73e" target="_top" xlink:title=" ">
<polygon fill="white" stroke="#666666" points="819,-138.79 725,-138.79 725,-118.79 819,-118.79 819,-138.79"/>
<text text-anchor="middle" x="772" y="-125.29" font-family="Helvetica,sans-Serif" font-size="10.00">VisaDevice::query</text>
</a>
</g>
</g>
<!-- Node4&#45;&gt;Node10 -->
<g id="edge9_Node000004_Node000010" class="edge">
<title>Node4&#45;&gt;Node10</title>
<g id="a_edge9_Node000004_Node000010"><a xlink:title=" ">
<path fill="none" stroke="#63b8ff" d="M667.7,-175.34C687.41,-166.46 715.92,-153.61 738,-143.66"/>
<polygon fill="#63b8ff" stroke="#63b8ff" points="739.27,-146.48 746.95,-139.18 736.39,-140.1 739.27,-146.48"/>
</a>
</g>
</g>
<!-- Node6 -->
<g id="Node000006" class="node">
<title>Node6</title>
<g id="a_Node000006"><a xlink:href="logger_8hpp.html#a49284b7befa8e31f81e01ee8f3735dd0" target="_top" xlink:title="Функция, которая снимает значение текущего времени и конвертирует его в строку с заданным шаблоном.">
<polygon fill="white" stroke="#666666" points="1186.88,-157.79 1098.12,-157.79 1098.12,-137.79 1186.88,-137.79 1186.88,-157.79"/>
<text text-anchor="middle" x="1142.5" y="-144.29" font-family="Helvetica,sans-Serif" font-size="10.00">get_current_time</text>
</a>
</g>
</g>
<!-- Node5&#45;&gt;Node6 -->
<g id="edge5_Node000005_Node000006" class="edge">
<title>Node5&#45;&gt;Node6</title>
<g id="a_edge5_Node000005_Node000006"><a xlink:title=" ">
<path fill="none" stroke="#63b8ff" d="M1030.27,-101.16C1043.55,-109.43 1063.1,-120.89 1081.25,-128.79 1085.32,-130.57 1089.61,-132.26 1093.95,-133.84"/>
<polygon fill="#63b8ff" stroke="#63b8ff" points="1092.49,-137.38 1103.09,-137.34 1094.78,-130.77 1092.49,-137.38"/>
</a>
</g>
</g>
<!-- Node7 -->
<g id="Node000007" class="node">
<title>Node7</title>
<g id="a_Node000007"><a xlink:href="class_logger.html#a6edb7b263f080d417b82a537ed50fee4" target="_top" xlink:title="Функция, возвращающая тег в зависимости от уровня логирования и от назначения тега.">
<polygon fill="white" stroke="#666666" points="1184.25,-119.79 1100.75,-119.79 1100.75,-99.79 1184.25,-99.79 1184.25,-119.79"/>
<text text-anchor="middle" x="1142.5" y="-106.29" font-family="Helvetica,sans-Serif" font-size="10.00">Logger::get_tag</text>
</a>
</g>
</g>
<!-- Node5&#45;&gt;Node7 -->
<g id="edge6_Node000005_Node000007" class="edge">
<title>Node5&#45;&gt;Node7</title>
<g id="a_edge6_Node000005_Node000007"><a xlink:title=" ">
<path fill="none" stroke="#63b8ff" d="M1045.71,-95.49C1058.97,-97.47 1074.77,-99.83 1089.67,-102.06"/>
<polygon fill="#63b8ff" stroke="#63b8ff" points="1088.91,-105.63 1099.32,-103.65 1089.94,-98.71 1088.91,-105.63"/>
</a>
</g>
</g>
<!-- Node8 -->
<g id="Node000008" class="node">
<title>Node8</title>
<g id="a_Node000008"><a xlink:href="class_logger.html#a4825613142ebb093bf8fa26f21f7f3fc" target="_top" xlink:title="Функция, которая выводит сообщение в консоль.">
<polygon fill="white" stroke="#666666" points="1203.75,-81.79 1081.25,-81.79 1081.25,-61.79 1203.75,-61.79 1203.75,-81.79"/>
<text text-anchor="middle" x="1142.5" y="-68.29" font-family="Helvetica,sans-Serif" font-size="10.00">Logger::print_to_console</text>
</a>
</g>
</g>
<!-- Node5&#45;&gt;Node8 -->
<g id="edge7_Node000005_Node000008" class="edge">
<title>Node5&#45;&gt;Node8</title>
<g id="a_edge7_Node000005_Node000008"><a xlink:title=" ">
<path fill="none" stroke="#63b8ff" d="M1045.71,-86.1C1053.21,-84.98 1061.52,-83.74 1070.03,-82.47"/>
<polygon fill="#63b8ff" stroke="#63b8ff" points="1070.48,-85.79 1079.85,-80.85 1069.44,-78.87 1070.48,-85.79"/>
</a>
</g>
</g>
<!-- Node9 -->
<g id="Node000009" class="node">
<title>Node9</title>
<g id="a_Node000009"><a xlink:href="class_logger.html#a999bb33f7cf079cb98f32fae6016a2f3" target="_top" xlink:title="Функция, которая записывает сообщение в файл.">
<polygon fill="white" stroke="#666666" points="1192.88,-43.79 1092.12,-43.79 1092.12,-23.79 1192.88,-23.79 1192.88,-43.79"/>
<text text-anchor="middle" x="1142.5" y="-30.29" font-family="Helvetica,sans-Serif" font-size="10.00">Logger::print_to_file</text>
</a>
</g>
</g>
<!-- Node5&#45;&gt;Node9 -->
<g id="edge8_Node000005_Node000009" class="edge">
<title>Node5&#45;&gt;Node9</title>
<g id="a_edge8_Node000005_Node000009"><a xlink:title=" ">
<path fill="none" stroke="#63b8ff" d="M1030.27,-80.43C1043.55,-72.16 1063.1,-60.7 1081.25,-52.79 1085.32,-51.02 1089.61,-49.33 1093.95,-47.75"/>
<polygon fill="#63b8ff" stroke="#63b8ff" points="1094.78,-50.82 1103.09,-44.24 1092.49,-44.2 1094.78,-50.82"/>
</a>
</g>
</g>
<!-- Node11 -->
<g id="Node000011" class="node">
<title>Node11</title>
<g id="a_Node000011"><a xlink:href="class_visa_device.html#aca08d9dbb0469f1143668a485e4adfe2" target="_top" xlink:title=" ">
<polygon fill="white" stroke="#666666" points="944.5,-138.79 855.75,-138.79 855.75,-118.79 944.5,-118.79 944.5,-138.79"/>
<text text-anchor="middle" x="900.12" y="-125.29" font-family="Helvetica,sans-Serif" font-size="10.00">VisaDevice::read</text>
</a>
</g>
</g>
<!-- Node10&#45;&gt;Node11 -->
<g id="edge10_Node000010_Node000011" class="edge">
<title>Node10&#45;&gt;Node11</title>
<g id="a_edge10_Node000010_Node000011"><a xlink:title=" ">
<path fill="none" stroke="#63b8ff" d="M819.25,-128.79C827.46,-128.79 836.08,-128.79 844.5,-128.79"/>
<polygon fill="#63b8ff" stroke="#63b8ff" points="844.4,-132.29 854.4,-128.79 844.4,-125.29 844.4,-132.29"/>
</a>
</g>
</g>
<!-- Node12 -->
<g id="Node000012" class="node">
<title>Node12</title>
<g id="a_Node000012"><a xlink:href="class_visa_device.html#a29202c3f5e47326386d1d27972e25267" target="_top" xlink:title=" ">
<polygon fill="white" stroke="#666666" points="945.25,-100.79 855,-100.79 855,-80.79 945.25,-80.79 945.25,-100.79"/>
<text text-anchor="middle" x="900.12" y="-87.29" font-family="Helvetica,sans-Serif" font-size="10.00">VisaDevice::write</text>
</a>
</g>
</g>
<!-- Node10&#45;&gt;Node12 -->
<g id="edge12_Node000010_Node000012" class="edge">
<title>Node10&#45;&gt;Node12</title>
<g id="a_edge12_Node000010_Node000012"><a xlink:title=" ">
<path fill="none" stroke="#63b8ff" d="M807.8,-118.31C822.13,-113.99 838.93,-108.93 854.18,-104.34"/>
<polygon fill="#63b8ff" stroke="#63b8ff" points="854.88,-107.48 863.44,-101.24 852.86,-100.78 854.88,-107.48"/>
</a>
</g>
</g>
<!-- Node11&#45;&gt;Node5 -->
<g id="edge11_Node000011_Node000005" class="edge">
<title>Node11&#45;&gt;Node5</title>
<g id="a_edge11_Node000011_Node000005"><a xlink:title=" ">
<path fill="none" stroke="#63b8ff" d="M931.78,-118.31C944.05,-114.12 958.36,-109.22 971.48,-104.73"/>
<polygon fill="#63b8ff" stroke="#63b8ff" points="972.36,-107.79 980.69,-101.24 970.1,-101.17 972.36,-107.79"/>
</a>
</g>
</g>
<!-- Node12&#45;&gt;Node5 -->
<g id="edge13_Node000012_Node000005" class="edge">
<title>Node12&#45;&gt;Node5</title>
<g id="a_edge13_Node000012_Node000005"><a xlink:title=" ">
<path fill="none" stroke="#63b8ff" d="M945.68,-90.79C953.73,-90.79 962.09,-90.79 970.07,-90.79"/>
<polygon fill="#63b8ff" stroke="#63b8ff" points="970,-94.29 980,-90.79 970,-87.29 970,-94.29"/>
</a>
</g>
</g>
<!-- Node14 -->
<g id="Node000014" class="node">
<title>Node14</title>
<g id="a_Node000014"><a xlink:href="class_visa_device.html#ad659ba652605f5c983958400fde8c808" target="_top" xlink:title=" ">
<polygon fill="white" stroke="#666666" points="689,-119.79 598,-119.79 598,-99.79 689,-99.79 689,-119.79"/>
<text text-anchor="middle" x="643.5" y="-106.29" font-family="Helvetica,sans-Serif" font-size="10.00">VisaDevice::send</text>
</a>
</g>
</g>
<!-- Node13&#45;&gt;Node14 -->
<g id="edge16_Node000013_Node000014" class="edge">
<title>Node13&#45;&gt;Node14</title>
<g id="a_edge16_Node000013_Node000014"><a xlink:title=" ">
<path fill="none" stroke="#63b8ff" d="M438.99,-109.79C482.71,-109.79 543.17,-109.79 586.82,-109.79"/>
<polygon fill="#63b8ff" stroke="#63b8ff" points="586.81,-113.29 596.81,-109.79 586.81,-106.29 586.81,-113.29"/>
</a>
</g>
</g>
<!-- Node15 -->
<g id="Node000015" class="node">
<title>Node15</title>
<g id="a_Node000015"><a xlink:href="class_visa_device.html#ab1f5c0b110fca770dbd5be069453ea82" target="_top" xlink:title=" ">
<polygon fill="white" stroke="#666666" points="562,-43.79 474.75,-43.79 474.75,-23.79 562,-23.79 562,-43.79"/>
<text text-anchor="middle" x="518.38" y="-30.29" font-family="Helvetica,sans-Serif" font-size="10.00">VisaDevice::wait</text>
</a>
</g>
</g>
<!-- Node13&#45;&gt;Node15 -->
<g id="edge21_Node000013_Node000015" class="edge">
<title>Node13&#45;&gt;Node15</title>
<g id="a_edge21_Node000013_Node000015"><a xlink:title=" ">
<path fill="none" stroke="#63b8ff" d="M401.4,-99.39C424.22,-86.48 463.32,-64.36 489.75,-49.42"/>
<polygon fill="#63b8ff" stroke="#63b8ff" points="491.21,-52.05 498.19,-44.08 487.77,-45.95 491.21,-52.05"/>
</a>
</g>
</g>
<!-- Node14&#45;&gt;Node5 -->
<g id="edge17_Node000014_Node000005" class="edge">
<title>Node14&#45;&gt;Node5</title>
<g id="a_edge17_Node000014_Node000005"><a xlink:title=" ">
<path fill="none" stroke="#63b8ff" d="M679.73,-99.3C735.93,-83.92 849.34,-58.46 945.25,-71.79 954.02,-73.01 963.25,-75.09 971.97,-77.43"/>
<polygon fill="#63b8ff" stroke="#63b8ff" points="970.7,-81 981.28,-80.38 972.63,-74.27 970.7,-81"/>
</a>
</g>
</g>
<!-- Node14&#45;&gt;Node10 -->
<g id="edge18_Node000014_Node000010" class="edge">
<title>Node14&#45;&gt;Node10</title>
<g id="a_edge18_Node000014_Node000010"><a xlink:title=" ">
<path fill="none" stroke="#63b8ff" d="M689.46,-116.55C697.45,-117.75 705.88,-119.01 714.16,-120.26"/>
<polygon fill="#63b8ff" stroke="#63b8ff" points="713.5,-123.85 723.91,-121.87 714.54,-116.93 713.5,-123.85"/>
</a>
</g>
</g>
<!-- Node14&#45;&gt;Node11 -->
<g id="edge19_Node000014_Node000011" class="edge">
<title>Node14&#45;&gt;Node11</title>
<g id="a_edge19_Node000014_Node000011"><a xlink:title=" ">
<path fill="none" stroke="#63b8ff" d="M660.98,-120.25C676.73,-129.56 701.47,-142.52 725,-147.79 768.16,-157.47 818.49,-150.02 853.9,-141.78"/>
<polygon fill="#63b8ff" stroke="#63b8ff" points="854.51,-144.99 863.39,-139.21 852.85,-138.19 854.51,-144.99"/>
</a>
</g>
</g>
<!-- Node14&#45;&gt;Node12 -->
<g id="edge20_Node000014_Node000012" class="edge">
<title>Node14&#45;&gt;Node12</title>
<g id="a_edge20_Node000014_Node000012"><a xlink:title=" ">
<path fill="none" stroke="#63b8ff" d="M689.44,-106.44C732.52,-103.23 797.67,-98.36 843.91,-94.91"/>
<polygon fill="#63b8ff" stroke="#63b8ff" points="843.93,-98.35 853.64,-94.11 843.41,-91.37 843.93,-98.35"/>
</a>
</g>
</g>
<!-- Node15&#45;&gt;Node5 -->
<g id="edge22_Node000015_Node000005" class="edge">
<title>Node15&#45;&gt;Node5</title>
<g id="a_edge22_Node000015_Node000005"><a xlink:title=" ">
<path fill="none" stroke="#63b8ff" d="M554.67,-23.38C568.1,-19.92 583.64,-16.51 598,-14.79 751.75,3.52 800.63,12.51 945.25,-42.79 963.28,-49.69 980.91,-62.64 993.55,-73.36"/>
<polygon fill="#63b8ff" stroke="#63b8ff" points="990.64,-75.33 1000.46,-79.31 995.26,-70.08 990.64,-75.33"/>
</a>
</g>
</g>
<!-- Node16 -->
<g id="Node000016" class="node">
<title>Node16</title>
<g id="a_Node000016"><a xlink:href="class_visa_device.html#a70a6c6ace7c5841db420c1e112782a53" target="_top" xlink:title=" ">
<polygon fill="white" stroke="#666666" points="686.38,-43.79 600.62,-43.79 600.62,-23.79 686.38,-23.79 686.38,-43.79"/>
<text text-anchor="middle" x="643.5" y="-30.29" font-family="Helvetica,sans-Serif" font-size="10.00">VisaDevice::opc</text>
</a>
</g>
</g>
<!-- Node15&#45;&gt;Node16 -->
<g id="edge23_Node000015_Node000016" class="edge">
<title>Node15&#45;&gt;Node16</title>
<g id="a_edge23_Node000015_Node000016"><a xlink:title=" ">
<path fill="none" stroke="#63b8ff" d="M562.44,-33.79C571.21,-33.79 580.54,-33.79 589.61,-33.79"/>
<polygon fill="#63b8ff" stroke="#63b8ff" points="589.5,-37.29 599.5,-33.79 589.5,-30.29 589.5,-37.29"/>
</a>
</g>
</g>
<!-- Node16&#45;&gt;Node5 -->
<g id="edge24_Node000016_Node000005" class="edge">
<title>Node16&#45;&gt;Node5</title>
<g id="a_edge24_Node000016_Node000005"><a xlink:title=" ">
<path fill="none" stroke="#63b8ff" d="M686.48,-34.25C745.2,-35.73 854.81,-41.54 945.25,-63.79 957.15,-66.72 969.74,-71.35 980.74,-75.96"/>
<polygon fill="#63b8ff" stroke="#63b8ff" points="979.18,-79.53 989.74,-80.31 981.97,-73.11 979.18,-79.53"/>
</a>
</g>
</g>
<!-- Node16&#45;&gt;Node10 -->
<g id="edge25_Node000016_Node000010" class="edge">
<title>Node16&#45;&gt;Node10</title>
<g id="a_edge25_Node000016_Node000010"><a xlink:title=" ">
<path fill="none" stroke="#63b8ff" d="M658.04,-43.96C679.7,-60.23 722.39,-92.29 748.64,-112"/>
<polygon fill="#63b8ff" stroke="#63b8ff" points="746.08,-115.21 756.18,-118.41 750.28,-109.61 746.08,-115.21"/>
</a>
</g>
</g>
</g>
</svg>
