<?xml version="1.0" encoding="UTF-8" standalone="no"?>
<!DOCTYPE svg PUBLIC "-//W3C//DTD SVG 1.1//EN"
 "http://www.w3.org/Graphics/SVG/1.1/DTD/svg11.dtd">
<!-- Generated by graphviz version 8.0.5 (20230430.1635)
 -->
<!-- Title: VisaDevice::send_err Pages: 1 -->
<svg width="901pt" height="149pt"
 viewBox="0.00 0.00 900.75 149.12" xmlns="http://www.w3.org/2000/svg" xmlns:xlink="http://www.w3.org/1999/xlink">
<g id="graph0" class="graph" transform="scale(1 1) rotate(0) translate(4 145.12)">
<title>VisaDevice::send_err</title>
<!-- Node1 -->
<g id="Node000001" class="node">
<title>Node1</title>
<g id="a_Node000001"><a xlink:title="Отправка данных на прибор и чтение ответа от прибора. Также, проверяется наличие ошибок на приборе.">
<polygon fill="#999999" stroke="#666666" points="107.5,-103.12 0,-103.12 0,-83.12 107.5,-83.12 107.5,-103.12"/>
<text text-anchor="middle" x="53.75" y="-89.62" font-family="Helvetica,sans-Serif" font-size="10.00">VisaDevice::send_err</text>
</a>
</g>
</g>
<!-- Node2 -->
<g id="Node000002" class="node">
<title>Node2</title>
<g id="a_Node000002"><a xlink:href="class_visa_device.html#aa8ab94835c465376d5b775478b3b04bf" target="_top" xlink:title="Отправка данных на прибор и чтение ответа от прибора. Также, проверяется наличие ошибок на приборе.">
<polygon fill="white" stroke="#666666" points="251,-103.12 143.5,-103.12 143.5,-83.12 251,-83.12 251,-103.12"/>
<text text-anchor="middle" x="197.25" y="-89.62" font-family="Helvetica,sans-Serif" font-size="10.00">VisaDevice::send_err</text>
</a>
</g>
</g>
<!-- Node1&#45;&gt;Node2 -->
<g id="edge1_Node000001_Node000002" class="edge">
<title>Node1&#45;&gt;Node2</title>
<g id="a_edge1_Node000001_Node000002"><a xlink:title=" ">
<path fill="none" stroke="#63b8ff" d="M107.84,-93.12C115.91,-93.12 124.31,-93.12 132.58,-93.12"/>
<polygon fill="#63b8ff" stroke="#63b8ff" points="132.33,-96.62 142.33,-93.12 132.33,-89.62 132.33,-96.62"/>
</a>
</g>
</g>
<!-- Node3 -->
<g id="Node000003" class="node">
<title>Node3</title>
<g id="a_Node000003"><a xlink:href="class_visa_device.html#aba4642c194cffe2135a133e23960ab63" target="_top" xlink:title="Отправляет команду &quot;SYSTEM:ERROR?&quot; на подключенное устройство и считывает сведения об ошибках,...">
<polygon fill="white" stroke="#666666" points="373.12,-103.12 291.88,-103.12 291.88,-83.12 373.12,-83.12 373.12,-103.12"/>
<text text-anchor="middle" x="332.5" y="-89.62" font-family="Helvetica,sans-Serif" font-size="10.00">VisaDevice::err</text>
</a>
</g>
</g>
<!-- Node2&#45;&gt;Node3 -->
<g id="edge2_Node000002_Node000003" class="edge">
<title>Node2&#45;&gt;Node3</title>
<g id="a_edge2_Node000002_Node000003"><a xlink:title=" ">
<path fill="none" stroke="#63b8ff" d="M251.3,-93.12C261.1,-93.12 271.32,-93.12 281.05,-93.12"/>
<polygon fill="#63b8ff" stroke="#63b8ff" points="280.78,-96.62 290.78,-93.12 280.78,-89.62 280.78,-96.62"/>
</a>
</g>
</g>
<!-- Node4 -->
<g id="Node000004" class="node">
<title>Node4</title>
<g id="a_Node000004"><a xlink:href="class_logger.html#af7709105c2708359b7b082218f4cc3e1" target="_top" xlink:title="Метод, осуществляющий логирование">
<polygon fill="white" stroke="#666666" points="734.25,-84.12 670.25,-84.12 670.25,-64.12 734.25,-64.12 734.25,-84.12"/>
<text text-anchor="middle" x="702.25" y="-70.62" font-family="Helvetica,sans-Serif" font-size="10.00">Logger::log</text>
</a>
</g>
</g>
<!-- Node2&#45;&gt;Node4 -->
<g id="edge13_Node000002_Node000004" class="edge">
<title>Node2&#45;&gt;Node4</title>
<g id="a_edge13_Node000002_Node000004"><a xlink:title=" ">
<path fill="none" stroke="#63b8ff" d="M239.07,-103.6C254.04,-106.98 271.19,-110.32 287,-112.12 440.35,-129.57 485.2,-150.15 634.25,-110.12 649.55,-106.01 665.22,-97.85 677.55,-90.34"/>
<polygon fill="#63b8ff" stroke="#63b8ff" points="679.1,-92.86 685.66,-84.54 675.34,-86.96 679.1,-92.86"/>
</a>
</g>
</g>
<!-- Node12 -->
<g id="Node000012" class="node">
<title>Node12</title>
<g id="a_Node000012"><a xlink:href="class_visa_device.html#ad659ba652605f5c983958400fde8c808" target="_top" xlink:title="Отправка данных на прибор и чтение ответа от прибора.">
<polygon fill="white" stroke="#666666" points="378,-46.12 287,-46.12 287,-26.12 378,-26.12 378,-46.12"/>
<text text-anchor="middle" x="332.5" y="-32.62" font-family="Helvetica,sans-Serif" font-size="10.00">VisaDevice::send</text>
</a>
</g>
</g>
<!-- Node2&#45;&gt;Node12 -->
<g id="edge14_Node000002_Node000012" class="edge">
<title>Node2&#45;&gt;Node12</title>
<g id="a_edge14_Node000002_Node000012"><a xlink:title=" ">
<path fill="none" stroke="#63b8ff" d="M222.69,-82.66C243.63,-73.71 274.02,-60.7 297.37,-50.72"/>
<polygon fill="#63b8ff" stroke="#63b8ff" points="298.4,-53.66 306.21,-46.51 295.64,-47.22 298.4,-53.66"/>
</a>
</g>
</g>
<!-- Node3&#45;&gt;Node4 -->
<g id="edge3_Node000003_Node000004" class="edge">
<title>Node3&#45;&gt;Node4</title>
<g id="a_edge3_Node000003_Node000004"><a xlink:title=" ">
<path fill="none" stroke="#63b8ff" d="M373.15,-96.58C430.91,-100.83 541.42,-106.03 634.25,-93.12 643.02,-91.9 652.25,-89.82 660.97,-87.48"/>
<polygon fill="#63b8ff" stroke="#63b8ff" points="661.63,-90.65 670.28,-84.53 659.7,-83.92 661.63,-90.65"/>
</a>
</g>
</g>
<!-- Node9 -->
<g id="Node000009" class="node">
<title>Node9</title>
<g id="a_Node000009"><a xlink:href="class_visa_device.html#aa807192fd9a8c3e6efc458f78de5e73e" target="_top" xlink:title="Метод, совмещающий в себе методы write() и read().">
<polygon fill="white" stroke="#666666" points="508,-84.12 414,-84.12 414,-64.12 508,-64.12 508,-84.12"/>
<text text-anchor="middle" x="461" y="-70.62" font-family="Helvetica,sans-Serif" font-size="10.00">VisaDevice::query</text>
</a>
</g>
</g>
<!-- Node3&#45;&gt;Node9 -->
<g id="edge8_Node000003_Node000009" class="edge">
<title>Node3&#45;&gt;Node9</title>
<g id="a_edge8_Node000003_Node000009"><a xlink:title=" ">
<path fill="none" stroke="#63b8ff" d="M373.53,-87.11C382.88,-85.7 393.02,-84.18 402.96,-82.69"/>
<polygon fill="#63b8ff" stroke="#63b8ff" points="403.25,-86.03 412.61,-81.09 402.21,-79.11 403.25,-86.03"/>
</a>
</g>
</g>
<!-- Node5 -->
<g id="Node000005" class="node">
<title>Node5</title>
<g id="a_Node000005"><a xlink:href="logger_8hpp.html#a49284b7befa8e31f81e01ee8f3735dd0" target="_top" xlink:title="Функция, которая снимает значение текущего времени и конвертирует его в строку с заданным шаблоном.">
<polygon fill="white" stroke="#666666" points="875.88,-141.12 787.12,-141.12 787.12,-121.12 875.88,-121.12 875.88,-141.12"/>
<text text-anchor="middle" x="831.5" y="-127.62" font-family="Helvetica,sans-Serif" font-size="10.00">get_current_time</text>
</a>
</g>
</g>
<!-- Node4&#45;&gt;Node5 -->
<g id="edge4_Node000004_Node000005" class="edge">
<title>Node4&#45;&gt;Node5</title>
<g id="a_edge4_Node000004_Node000005"><a xlink:title=" ">
<path fill="none" stroke="#63b8ff" d="M719.27,-84.48C732.55,-92.75 752.1,-104.22 770.25,-112.12 774.32,-113.89 778.61,-115.58 782.95,-117.17"/>
<polygon fill="#63b8ff" stroke="#63b8ff" points="781.49,-120.71 792.09,-120.67 783.78,-114.09 781.49,-120.71"/>
</a>
</g>
</g>
<!-- Node6 -->
<g id="Node000006" class="node">
<title>Node6</title>
<g id="a_Node000006"><a xlink:href="class_logger.html#a6edb7b263f080d417b82a537ed50fee4" target="_top" xlink:title="Возвращает тег в зависимости от уровня логирования и от назначения тега.">
<polygon fill="white" stroke="#666666" points="873.25,-103.12 789.75,-103.12 789.75,-83.12 873.25,-83.12 873.25,-103.12"/>
<text text-anchor="middle" x="831.5" y="-89.62" font-family="Helvetica,sans-Serif" font-size="10.00">Logger::get_tag</text>
</a>
</g>
</g>
<!-- Node4&#45;&gt;Node6 -->
<g id="edge5_Node000004_Node000006" class="edge">
<title>Node4&#45;&gt;Node6</title>
<g id="a_edge5_Node000004_Node000006"><a xlink:title=" ">
<path fill="none" stroke="#63b8ff" d="M734.71,-78.82C747.97,-80.8 763.77,-83.16 778.67,-85.38"/>
<polygon fill="#63b8ff" stroke="#63b8ff" points="777.91,-88.95 788.32,-86.97 778.94,-82.03 777.91,-88.95"/>
</a>
</g>
</g>
<!-- Node7 -->
<g id="Node000007" class="node">
<title>Node7</title>
<g id="a_Node000007"><a xlink:href="class_logger.html#a4825613142ebb093bf8fa26f21f7f3fc" target="_top" xlink:title="Метод, который выводит сообщение в консоль.">
<polygon fill="white" stroke="#666666" points="892.75,-65.12 770.25,-65.12 770.25,-45.12 892.75,-45.12 892.75,-65.12"/>
<text text-anchor="middle" x="831.5" y="-51.62" font-family="Helvetica,sans-Serif" font-size="10.00">Logger::print_to_console</text>
</a>
</g>
</g>
<!-- Node4&#45;&gt;Node7 -->
<g id="edge6_Node000004_Node000007" class="edge">
<title>Node4&#45;&gt;Node7</title>
<g id="a_edge6_Node000004_Node000007"><a xlink:title=" ">
<path fill="none" stroke="#63b8ff" d="M734.71,-69.42C742.21,-68.3 750.52,-67.06 759.03,-65.79"/>
<polygon fill="#63b8ff" stroke="#63b8ff" points="759.48,-69.11 768.85,-64.17 758.44,-62.19 759.48,-69.11"/>
</a>
</g>
</g>
<!-- Node8 -->
<g id="Node000008" class="node">
<title>Node8</title>
<g id="a_Node000008"><a xlink:href="class_logger.html#a999bb33f7cf079cb98f32fae6016a2f3" target="_top" xlink:title="Метод, который записывает сообщение в файл.">
<polygon fill="white" stroke="#666666" points="881.88,-27.12 781.12,-27.12 781.12,-7.12 881.88,-7.12 881.88,-27.12"/>
<text text-anchor="middle" x="831.5" y="-13.62" font-family="Helvetica,sans-Serif" font-size="10.00">Logger::print_to_file</text>
</a>
</g>
</g>
<!-- Node4&#45;&gt;Node8 -->
<g id="edge7_Node000004_Node000008" class="edge">
<title>Node4&#45;&gt;Node8</title>
<g id="a_edge7_Node000004_Node000008"><a xlink:title=" ">
<path fill="none" stroke="#63b8ff" d="M719.27,-63.75C732.55,-55.49 752.1,-44.02 770.25,-36.12 774.32,-34.35 778.61,-32.66 782.95,-31.07"/>
<polygon fill="#63b8ff" stroke="#63b8ff" points="783.78,-34.14 792.09,-27.57 781.49,-27.53 783.78,-34.14"/>
</a>
</g>
</g>
<!-- Node10 -->
<g id="Node000010" class="node">
<title>Node10</title>
<g id="a_Node000010"><a xlink:href="class_visa_device.html#aca08d9dbb0469f1143668a485e4adfe2" target="_top" xlink:title="Метод, позволяющий считать данные с устройства">
<polygon fill="white" stroke="#666666" points="633.5,-84.12 544.75,-84.12 544.75,-64.12 633.5,-64.12 633.5,-84.12"/>
<text text-anchor="middle" x="589.12" y="-70.62" font-family="Helvetica,sans-Serif" font-size="10.00">VisaDevice::read</text>
</a>
</g>
</g>
<!-- Node9&#45;&gt;Node10 -->
<g id="edge9_Node000009_Node000010" class="edge">
<title>Node9&#45;&gt;Node10</title>
<g id="a_edge9_Node000009_Node000010"><a xlink:title=" ">
<path fill="none" stroke="#63b8ff" d="M508.25,-74.12C516.46,-74.12 525.08,-74.12 533.5,-74.12"/>
<polygon fill="#63b8ff" stroke="#63b8ff" points="533.4,-77.62 543.4,-74.12 533.4,-70.62 533.4,-77.62"/>
</a>
</g>
</g>
<!-- Node11 -->
<g id="Node000011" class="node">
<title>Node11</title>
<g id="a_Node000011"><a xlink:href="class_visa_device.html#a29202c3f5e47326386d1d27972e25267" target="_top" xlink:title="Метод, позволяющий отправить команду на устройство">
<polygon fill="white" stroke="#666666" points="634.25,-46.12 544,-46.12 544,-26.12 634.25,-26.12 634.25,-46.12"/>
<text text-anchor="middle" x="589.12" y="-32.62" font-family="Helvetica,sans-Serif" font-size="10.00">VisaDevice::write</text>
</a>
</g>
</g>
<!-- Node9&#45;&gt;Node11 -->
<g id="edge11_Node000009_Node000011" class="edge">
<title>Node9&#45;&gt;Node11</title>
<g id="a_edge11_Node000009_Node000011"><a xlink:title=" ">
<path fill="none" stroke="#63b8ff" d="M496.8,-63.63C511.13,-59.31 527.93,-54.26 543.18,-49.66"/>
<polygon fill="#63b8ff" stroke="#63b8ff" points="543.88,-52.8 552.44,-46.57 541.86,-46.1 543.88,-52.8"/>
</a>
</g>
</g>
<!-- Node10&#45;&gt;Node4 -->
<g id="edge10_Node000010_Node000004" class="edge">
<title>Node10&#45;&gt;Node4</title>
<g id="a_edge10_Node000010_Node000004"><a xlink:title=" ">
<path fill="none" stroke="#63b8ff" d="M633.73,-74.12C642,-74.12 650.65,-74.12 658.89,-74.12"/>
<polygon fill="#63b8ff" stroke="#63b8ff" points="658.79,-77.62 668.79,-74.12 658.79,-70.62 658.79,-77.62"/>
</a>
</g>
</g>
<!-- Node11&#45;&gt;Node4 -->
<g id="edge12_Node000011_Node000004" class="edge">
<title>Node11&#45;&gt;Node4</title>
<g id="a_edge12_Node000011_Node000004"><a xlink:title=" ">
<path fill="none" stroke="#63b8ff" d="M620.78,-46.6C633.05,-50.8 647.36,-55.69 660.48,-60.18"/>
<polygon fill="#63b8ff" stroke="#63b8ff" points="659.1,-63.74 669.69,-63.67 661.36,-57.12 659.1,-63.74"/>
</a>
</g>
</g>
<!-- Node12&#45;&gt;Node4 -->
<g id="edge15_Node000012_Node000004" class="edge">
<title>Node12&#45;&gt;Node4</title>
<g id="a_edge15_Node000012_Node000004"><a xlink:title=" ">
<path fill="none" stroke="#63b8ff" d="M365.5,-25.73C421.89,-9.22 541.72,17.75 634.25,-17.12 654.88,-24.89 673.55,-42.03 685.91,-55.49"/>
<polygon fill="#63b8ff" stroke="#63b8ff" points="683.86,-57.46 693.08,-62.68 689.12,-52.85 683.86,-57.46"/>
</a>
</g>
</g>
<!-- Node12&#45;&gt;Node9 -->
<g id="edge16_Node000012_Node000009" class="edge">
<title>Node12&#45;&gt;Node9</title>
<g id="a_edge16_Node000012_Node000009"><a xlink:title=" ">
<path fill="none" stroke="#63b8ff" d="M368.4,-46.6C382.78,-50.92 399.63,-55.98 414.92,-60.58"/>
<polygon fill="#63b8ff" stroke="#63b8ff" points="413.63,-64.14 424.21,-63.67 415.64,-57.44 413.63,-64.14"/>
</a>
</g>
</g>
<!-- Node12&#45;&gt;Node10 -->
<g id="edge17_Node000012_Node000010" class="edge">
<title>Node12&#45;&gt;Node10</title>
<g id="a_edge17_Node000012_Node000010"><a xlink:title=" ">
<path fill="none" stroke="#63b8ff" d="M378.18,-39.44C413.56,-42.45 464.15,-47.56 508,-55.12 517.73,-56.79 528.03,-58.95 537.9,-61.2"/>
<polygon fill="#63b8ff" stroke="#63b8ff" points="536.85,-64.78 547.39,-63.66 538.45,-57.97 536.85,-64.78"/>
</a>
</g>
</g>
<!-- Node12&#45;&gt;Node11 -->
<g id="edge18_Node000012_Node000011" class="edge">
<title>Node12&#45;&gt;Node11</title>
<g id="a_edge18_Node000012_Node000011"><a xlink:title=" ">
<path fill="none" stroke="#63b8ff" d="M378.45,-26.89C389.99,-24.91 402.41,-23.12 414,-22.12 455.62,-18.53 466.38,-18.51 508,-22.12 516.12,-22.82 524.65,-23.92 532.99,-25.2"/>
<polygon fill="#63b8ff" stroke="#63b8ff" points="532.37,-28.81 542.8,-26.97 533.5,-21.9 532.37,-28.81"/>
</a>
</g>
</g>
</g>
</svg>
