<?xml version="1.0" encoding="UTF-8" standalone="no"?>
<!DOCTYPE svg PUBLIC "-//W3C//DTD SVG 1.1//EN"
 "http://www.w3.org/Graphics/SVG/1.1/DTD/svg11.dtd">
<!-- Generated by graphviz version 8.1.0 (20230707.0739)
 -->
<!-- Title: SocketServer::close Pages: 1 -->
<svg width="325pt" height="104pt"
 viewBox="0.00 0.00 325.25 104.00" xmlns="http://www.w3.org/2000/svg" xmlns:xlink="http://www.w3.org/1999/xlink">

<svg id="main" version="1.1" xmlns="http://www.w3.org/2000/svg" xmlns:xlink="http://www.w3.org/1999/xlink" xml:space="preserve" onload="init(evt)">
<style type="text/css"><![CDATA[
.node, .edge {opacity: 0.7;}
.node.selected, .edge.selected {opacity: 1;}
.edge:hover path { stroke: red; }
.edge:hover polygon { stroke: red; fill: red; }
]]></style>
<script type="application/ecmascript" xlink:href="svg.min.js"/>
<svg id="graph" class="graph">
<g id="graph0" class="graph" transform="scale(1 1) rotate(0) translate(4 100)">
<title>SocketServer::close</title>
<!-- Node1 -->
<g id="Node000001" class="node">
<title>Node1</title>
<g id="a_Node000001"><a xlink:title="Закрытие сокета">
<polygon fill="#999999" stroke="#666666" points="317.25,-58 214.25,-58 214.25,-38 317.25,-38 317.25,-58"/>
<text text-anchor="middle" x="265.75" y="-44.5" font-family="Helvetica,sans-Serif" font-size="10.00">SocketServer::close</text>
</a>
</g>
</g>
<!-- Node2 -->
<g id="Node000002" class="node">
<title>Node2</title>
<g id="a_Node000002"><a xlink:href="main_8cpp.html#a205c0f32d26b6f27c711fa201d02c983" target="_top" xlink:title="Обработка принятых данных и отправка результата обработки клиенту">
<polygon fill="white" stroke="#666666" points="178.25,-96 73,-96 73,-76 178.25,-76 178.25,-96"/>
<text text-anchor="middle" x="125.62" y="-82.5" font-family="Helvetica,sans-Serif" font-size="10.00">data_server_thread_f</text>
</a>
</g>
</g>
<!-- Node1&#45;&gt;Node2 -->
<g id="edge1_Node000001_Node000002" class="edge">
<title>Node1&#45;&gt;Node2</title>
<g id="a_edge1_Node000001_Node000002"><a xlink:title=" ">
<path fill="none" stroke="#63b8ff" d="M216.36,-61.31C199.39,-65.98 180.6,-71.15 164.61,-75.55"/>
<polygon fill="#63b8ff" stroke="#63b8ff" points="216.93,-64.51 225.64,-58.48 215.07,-57.76 216.93,-64.51"/>
</a>
</g>
</g>
<!-- Node4 -->
<g id="Node000004" class="node">
<title>Node4</title>
<g id="a_Node000004"><a xlink:href="main_8cpp.html#a35d7de01106a848cf8a5b3d494b40062" target="_top" xlink:title="Функция, вызываемая при нажатии сочетания клавиш Ctrl+C.">
<polygon fill="white" stroke="#666666" points="173.75,-58 77.5,-58 77.5,-38 173.75,-38 173.75,-58"/>
<text text-anchor="middle" x="125.62" y="-44.5" font-family="Helvetica,sans-Serif" font-size="10.00">exit_event_handler</text>
</a>
</g>
</g>
<!-- Node1&#45;&gt;Node4 -->
<g id="edge3_Node000001_Node000004" class="edge">
<title>Node1&#45;&gt;Node4</title>
<g id="a_edge3_Node000001_Node000004"><a xlink:title=" ">
<path fill="none" stroke="#63b8ff" d="M203.19,-48C193.42,-48 183.44,-48 174.05,-48"/>
<polygon fill="#63b8ff" stroke="#63b8ff" points="203.1,-51.5 213.1,-48 203.1,-44.5 203.1,-51.5"/>
</a>
</g>
</g>
<!-- Node5 -->
<g id="Node000005" class="node">
<title>Node5</title>
<g id="a_Node000005"><a xlink:href="main_8cpp.html#aef72d10ff26fe620d5f0a0f8412d7a2b" target="_top" xlink:title="Приём данных от клиента и передача их потоку обработки">
<polygon fill="white" stroke="#666666" points="178.25,-20 73,-20 73,0 178.25,0 178.25,-20"/>
<text text-anchor="middle" x="125.62" y="-6.5" font-family="Helvetica,sans-Serif" font-size="10.00">task_server_thread_f</text>
</a>
</g>
</g>
<!-- Node1&#45;&gt;Node5 -->
<g id="edge5_Node000001_Node000005" class="edge">
<title>Node1&#45;&gt;Node5</title>
<g id="a_edge5_Node000001_Node000005"><a xlink:title=" ">
<path fill="none" stroke="#63b8ff" d="M216.36,-34.69C199.39,-30.02 180.6,-24.85 164.61,-20.45"/>
<polygon fill="#63b8ff" stroke="#63b8ff" points="215.07,-38.24 225.64,-37.52 216.93,-31.49 215.07,-38.24"/>
</a>
</g>
</g>
<!-- Node3 -->
<g id="Node000003" class="node">
<title>Node3</title>
<g id="a_Node000003"><a xlink:href="main_8cpp.html#a0ddf1224851353fc92bfbff6f499fa97" target="_top" xlink:title=" ">
<polygon fill="white" stroke="#666666" points="37,-58 0,-58 0,-38 37,-38 37,-58"/>
<text text-anchor="middle" x="18.5" y="-44.5" font-family="Helvetica,sans-Serif" font-size="10.00">main</text>
</a>
</g>
</g>
<!-- Node2&#45;&gt;Node3 -->
<g id="edge2_Node000002_Node000003" class="edge">
<title>Node2&#45;&gt;Node3</title>
<g id="a_edge2_Node000002_Node000003"><a xlink:title=" ">
<path fill="none" stroke="#63b8ff" d="M85.59,-71.89C68.97,-65.88 50.42,-59.18 37.21,-54.4"/>
<polygon fill="#63b8ff" stroke="#63b8ff" points="84.03,-75.41 94.62,-75.52 86.41,-68.82 84.03,-75.41"/>
</a>
</g>
</g>
<!-- Node4&#45;&gt;Node3 -->
<g id="edge4_Node000004_Node000003" class="edge">
<title>Node4&#45;&gt;Node3</title>
<g id="a_edge4_Node000004_Node000003"><a xlink:title=" ">
<path fill="none" stroke="#63b8ff" d="M66.3,-48C55.79,-48 45.6,-48 37.42,-48"/>
<polygon fill="#63b8ff" stroke="#63b8ff" points="66.29,-51.5 76.29,-48 66.29,-44.5 66.29,-51.5"/>
</a>
</g>
</g>
<!-- Node5&#45;&gt;Node3 -->
<g id="edge6_Node000005_Node000003" class="edge">
<title>Node5&#45;&gt;Node3</title>
<g id="a_edge6_Node000005_Node000003"><a xlink:title=" ">
<path fill="none" stroke="#63b8ff" d="M85.59,-24.11C68.97,-30.12 50.42,-36.82 37.21,-41.6"/>
<polygon fill="#63b8ff" stroke="#63b8ff" points="86.41,-27.18 94.62,-20.48 84.03,-20.59 86.41,-27.18"/>
</a>
</g>
</g>
</g>
</svg>
</svg>

<style type='text/css'>
<![CDATA[
[data-mouse-over-selected='false'] { opacity: 0.7; }
[data-mouse-over-selected='true']  { opacity: 1.0; }
]]>
</style>
<script type="application/ecmascript"><![CDATA[
document.addEventListener('DOMContentLoaded', (event) => {
  highlightEdges();
  highlightAdjacentNodes();
});
]]></script>
</svg>
