<?xml version="1.0" encoding="UTF-8" standalone="no"?>
<!DOCTYPE svg PUBLIC "-//W3C//DTD SVG 1.1//EN"
 "http://www.w3.org/Graphics/SVG/1.1/DTD/svg11.dtd">
<!-- Generated by graphviz version 8.0.5 (20230430.1635)
 -->
<!-- Title: VisaDevice::send_wait_err Pages: 1 -->
<svg width="1219pt" height="251pt"
 viewBox="0.00 0.00 1218.50 250.79" xmlns="http://www.w3.org/2000/svg" xmlns:xlink="http://www.w3.org/1999/xlink">
<g id="graph0" class="graph" transform="scale(1 1) rotate(0) translate(4 246.79)">
<title>VisaDevice::send_wait_err</title>
<!-- Node1 -->
<g id="Node000001" class="node">
<title>Node1</title>
<g id="a_Node000001"><a xlink:title=" ">
<polygon fill="#999999" stroke="#666666" points="130,-195.79 0,-195.79 0,-175.79 130,-175.79 130,-195.79"/>
<text text-anchor="middle" x="65" y="-182.29" font-family="Helvetica,sans-Serif" font-size="10.00">VisaDevice::send_wait_err</text>
</a>
</g>
</g>
<!-- Node2 -->
<g id="Node000002" class="node">
<title>Node2</title>
<g id="a_Node000002"><a xlink:href="class_visa_device.html#a069e154c5f48779dfd908146db9e66ed" target="_top" xlink:title=" ">
<polygon fill="white" stroke="#666666" points="296,-195.79 166,-195.79 166,-175.79 296,-175.79 296,-195.79"/>
<text text-anchor="middle" x="231" y="-182.29" font-family="Helvetica,sans-Serif" font-size="10.00">VisaDevice::send_wait_err</text>
</a>
</g>
</g>
<!-- Node1&#45;&gt;Node2 -->
<g id="edge1_Node000001_Node000002" class="edge">
<title>Node1&#45;&gt;Node2</title>
<g id="a_edge1_Node000001_Node000002"><a xlink:title=" ">
<path fill="none" stroke="#63b8ff" d="M130.35,-185.79C138.31,-185.79 146.5,-185.79 154.6,-185.79"/>
<polygon fill="#63b8ff" stroke="#63b8ff" points="154.57,-189.29 164.57,-185.79 154.57,-182.29 154.57,-189.29"/>
</a>
</g>
</g>
<!-- Node3 -->
<g id="Node000003" class="node">
<title>Node3</title>
<g id="a_Node000003"><a xlink:href="class_visa_device.html#aba4642c194cffe2135a133e23960ab63" target="_top" xlink:title=" ">
<polygon fill="white" stroke="#666666" points="690.88,-195.79 609.62,-195.79 609.62,-175.79 690.88,-175.79 690.88,-195.79"/>
<text text-anchor="middle" x="650.25" y="-182.29" font-family="Helvetica,sans-Serif" font-size="10.00">VisaDevice::err</text>
</a>
</g>
</g>
<!-- Node2&#45;&gt;Node3 -->
<g id="edge2_Node000002_Node000003" class="edge">
<title>Node2&#45;&gt;Node3</title>
<g id="a_edge2_Node000002_Node000003"><a xlink:title=" ">
<path fill="none" stroke="#63b8ff" d="M296.28,-185.79C379.4,-185.79 522.49,-185.79 598.44,-185.79"/>
<polygon fill="#63b8ff" stroke="#63b8ff" points="598.14,-189.29 608.14,-185.79 598.14,-182.29 598.14,-189.29"/>
</a>
</g>
</g>
<!-- Node4 -->
<g id="Node000004" class="node">
<title>Node4</title>
<g id="a_Node000004"><a xlink:href="class_logger.html#af7709105c2708359b7b082218f4cc3e1" target="_top" xlink:title="Функция, осуществляющая логирование">
<polygon fill="white" stroke="#666666" points="1052,-100.79 988,-100.79 988,-80.79 1052,-80.79 1052,-100.79"/>
<text text-anchor="middle" x="1020" y="-87.29" font-family="Helvetica,sans-Serif" font-size="10.00">Logger::log</text>
</a>
</g>
</g>
<!-- Node2&#45;&gt;Node4 -->
<g id="edge13_Node000002_Node000004" class="edge">
<title>Node2&#45;&gt;Node4</title>
<g id="a_edge13_Node000002_Node000004"><a xlink:title=" ">
<path fill="none" stroke="#63b8ff" d="M264.02,-196.25C317.35,-212.7 428.01,-242.79 524.12,-242.79 524.12,-242.79 524.12,-242.79 779.75,-242.79 862.06,-242.79 885.82,-223.73 952,-174.79 975.66,-157.29 995.61,-129.46 1007.43,-110.67"/>
<polygon fill="#63b8ff" stroke="#63b8ff" points="1010.93,-112.65 1013.13,-102.29 1004.95,-109.02 1010.93,-112.65"/>
</a>
</g>
</g>
<!-- Node12 -->
<g id="Node000012" class="node">
<title>Node12</title>
<g id="a_Node000012"><a xlink:href="class_visa_device.html#a3744ee1e929d6c05b522693c344c76b3" target="_top" xlink:title=" ">
<polygon fill="white" stroke="#666666" points="445.5,-119.79 332,-119.79 332,-99.79 445.5,-99.79 445.5,-119.79"/>
<text text-anchor="middle" x="388.75" y="-106.29" font-family="Helvetica,sans-Serif" font-size="10.00">VisaDevice::send_wait</text>
</a>
</g>
</g>
<!-- Node2&#45;&gt;Node12 -->
<g id="edge14_Node000002_Node000012" class="edge">
<title>Node2&#45;&gt;Node12</title>
<g id="a_edge14_Node000002_Node000012"><a xlink:title=" ">
<path fill="none" stroke="#63b8ff" d="M253.33,-175.39C280.13,-162.31 326.3,-139.78 356.94,-124.83"/>
<polygon fill="#63b8ff" stroke="#63b8ff" points="358.23,-127.61 365.68,-120.08 355.16,-121.32 358.23,-127.61"/>
</a>
</g>
</g>
<!-- Node3&#45;&gt;Node4 -->
<g id="edge3_Node000003_Node000004" class="edge">
<title>Node3&#45;&gt;Node4</title>
<g id="a_edge3_Node000003_Node000004"><a xlink:title=" ">
<path fill="none" stroke="#63b8ff" d="M691.12,-187.82C750.59,-189.32 864.85,-186.24 952,-147.79 971.94,-139 990.48,-122.29 1002.97,-109.23"/>
<polygon fill="#63b8ff" stroke="#63b8ff" points="1005.08,-112.02 1009.26,-102.29 999.92,-107.29 1005.08,-112.02"/>
</a>
</g>
</g>
<!-- Node9 -->
<g id="Node000009" class="node">
<title>Node9</title>
<g id="a_Node000009"><a xlink:href="class_visa_device.html#aa807192fd9a8c3e6efc458f78de5e73e" target="_top" xlink:title=" ">
<polygon fill="white" stroke="#666666" points="825.75,-138.79 731.75,-138.79 731.75,-118.79 825.75,-118.79 825.75,-138.79"/>
<text text-anchor="middle" x="778.75" y="-125.29" font-family="Helvetica,sans-Serif" font-size="10.00">VisaDevice::query</text>
</a>
</g>
</g>
<!-- Node3&#45;&gt;Node9 -->
<g id="edge8_Node000003_Node000009" class="edge">
<title>Node3&#45;&gt;Node9</title>
<g id="a_edge8_Node000003_Node000009"><a xlink:title=" ">
<path fill="none" stroke="#63b8ff" d="M674.45,-175.34C694.16,-166.46 722.67,-153.61 744.75,-143.66"/>
<polygon fill="#63b8ff" stroke="#63b8ff" points="746.02,-146.48 753.7,-139.18 743.14,-140.1 746.02,-146.48"/>
</a>
</g>
</g>
<!-- Node5 -->
<g id="Node000005" class="node">
<title>Node5</title>
<g id="a_Node000005"><a xlink:href="logger_8hpp.html#a49284b7befa8e31f81e01ee8f3735dd0" target="_top" xlink:title="Функция, которая снимает значение текущего времени и конвертирует его в строку с заданным шаблоном.">
<polygon fill="white" stroke="#666666" points="1193.62,-157.79 1104.88,-157.79 1104.88,-137.79 1193.62,-137.79 1193.62,-157.79"/>
<text text-anchor="middle" x="1149.25" y="-144.29" font-family="Helvetica,sans-Serif" font-size="10.00">get_current_time</text>
</a>
</g>
</g>
<!-- Node4&#45;&gt;Node5 -->
<g id="edge4_Node000004_Node000005" class="edge">
<title>Node4&#45;&gt;Node5</title>
<g id="a_edge4_Node000004_Node000005"><a xlink:title=" ">
<path fill="none" stroke="#63b8ff" d="M1037.02,-101.16C1050.3,-109.43 1069.85,-120.89 1088,-128.79 1092.07,-130.57 1096.36,-132.26 1100.7,-133.84"/>
<polygon fill="#63b8ff" stroke="#63b8ff" points="1099.24,-137.38 1109.84,-137.34 1101.53,-130.77 1099.24,-137.38"/>
</a>
</g>
</g>
<!-- Node6 -->
<g id="Node000006" class="node">
<title>Node6</title>
<g id="a_Node000006"><a xlink:href="class_logger.html#a6edb7b263f080d417b82a537ed50fee4" target="_top" xlink:title="Функция, возвращающая тег в зависимости от уровня логирования и от назначения тега.">
<polygon fill="white" stroke="#666666" points="1191,-119.79 1107.5,-119.79 1107.5,-99.79 1191,-99.79 1191,-119.79"/>
<text text-anchor="middle" x="1149.25" y="-106.29" font-family="Helvetica,sans-Serif" font-size="10.00">Logger::get_tag</text>
</a>
</g>
</g>
<!-- Node4&#45;&gt;Node6 -->
<g id="edge5_Node000004_Node000006" class="edge">
<title>Node4&#45;&gt;Node6</title>
<g id="a_edge5_Node000004_Node000006"><a xlink:title=" ">
<path fill="none" stroke="#63b8ff" d="M1052.46,-95.49C1065.72,-97.47 1081.52,-99.83 1096.42,-102.06"/>
<polygon fill="#63b8ff" stroke="#63b8ff" points="1095.66,-105.63 1106.07,-103.65 1096.69,-98.71 1095.66,-105.63"/>
</a>
</g>
</g>
<!-- Node7 -->
<g id="Node000007" class="node">
<title>Node7</title>
<g id="a_Node000007"><a xlink:href="class_logger.html#a4825613142ebb093bf8fa26f21f7f3fc" target="_top" xlink:title="Функция, которая выводит сообщение в консоль.">
<polygon fill="white" stroke="#666666" points="1210.5,-81.79 1088,-81.79 1088,-61.79 1210.5,-61.79 1210.5,-81.79"/>
<text text-anchor="middle" x="1149.25" y="-68.29" font-family="Helvetica,sans-Serif" font-size="10.00">Logger::print_to_console</text>
</a>
</g>
</g>
<!-- Node4&#45;&gt;Node7 -->
<g id="edge6_Node000004_Node000007" class="edge">
<title>Node4&#45;&gt;Node7</title>
<g id="a_edge6_Node000004_Node000007"><a xlink:title=" ">
<path fill="none" stroke="#63b8ff" d="M1052.46,-86.1C1059.96,-84.98 1068.27,-83.74 1076.78,-82.47"/>
<polygon fill="#63b8ff" stroke="#63b8ff" points="1077.23,-85.79 1086.6,-80.85 1076.19,-78.87 1077.23,-85.79"/>
</a>
</g>
</g>
<!-- Node8 -->
<g id="Node000008" class="node">
<title>Node8</title>
<g id="a_Node000008"><a xlink:href="class_logger.html#a999bb33f7cf079cb98f32fae6016a2f3" target="_top" xlink:title="Функция, которая записывает сообщение в файл.">
<polygon fill="white" stroke="#666666" points="1199.62,-43.79 1098.88,-43.79 1098.88,-23.79 1199.62,-23.79 1199.62,-43.79"/>
<text text-anchor="middle" x="1149.25" y="-30.29" font-family="Helvetica,sans-Serif" font-size="10.00">Logger::print_to_file</text>
</a>
</g>
</g>
<!-- Node4&#45;&gt;Node8 -->
<g id="edge7_Node000004_Node000008" class="edge">
<title>Node4&#45;&gt;Node8</title>
<g id="a_edge7_Node000004_Node000008"><a xlink:title=" ">
<path fill="none" stroke="#63b8ff" d="M1037.02,-80.43C1050.3,-72.16 1069.85,-60.7 1088,-52.79 1092.07,-51.02 1096.36,-49.33 1100.7,-47.75"/>
<polygon fill="#63b8ff" stroke="#63b8ff" points="1101.53,-50.82 1109.84,-44.24 1099.24,-44.2 1101.53,-50.82"/>
</a>
</g>
</g>
<!-- Node10 -->
<g id="Node000010" class="node">
<title>Node10</title>
<g id="a_Node000010"><a xlink:href="class_visa_device.html#aca08d9dbb0469f1143668a485e4adfe2" target="_top" xlink:title=" ">
<polygon fill="white" stroke="#666666" points="951.25,-138.79 862.5,-138.79 862.5,-118.79 951.25,-118.79 951.25,-138.79"/>
<text text-anchor="middle" x="906.88" y="-125.29" font-family="Helvetica,sans-Serif" font-size="10.00">VisaDevice::read</text>
</a>
</g>
</g>
<!-- Node9&#45;&gt;Node10 -->
<g id="edge9_Node000009_Node000010" class="edge">
<title>Node9&#45;&gt;Node10</title>
<g id="a_edge9_Node000009_Node000010"><a xlink:title=" ">
<path fill="none" stroke="#63b8ff" d="M826,-128.79C834.21,-128.79 842.83,-128.79 851.25,-128.79"/>
<polygon fill="#63b8ff" stroke="#63b8ff" points="851.15,-132.29 861.15,-128.79 851.15,-125.29 851.15,-132.29"/>
</a>
</g>
</g>
<!-- Node11 -->
<g id="Node000011" class="node">
<title>Node11</title>
<g id="a_Node000011"><a xlink:href="class_visa_device.html#a29202c3f5e47326386d1d27972e25267" target="_top" xlink:title=" ">
<polygon fill="white" stroke="#666666" points="952,-100.79 861.75,-100.79 861.75,-80.79 952,-80.79 952,-100.79"/>
<text text-anchor="middle" x="906.88" y="-87.29" font-family="Helvetica,sans-Serif" font-size="10.00">VisaDevice::write</text>
</a>
</g>
</g>
<!-- Node9&#45;&gt;Node11 -->
<g id="edge11_Node000009_Node000011" class="edge">
<title>Node9&#45;&gt;Node11</title>
<g id="a_edge11_Node000009_Node000011"><a xlink:title=" ">
<path fill="none" stroke="#63b8ff" d="M814.55,-118.31C828.88,-113.99 845.68,-108.93 860.93,-104.34"/>
<polygon fill="#63b8ff" stroke="#63b8ff" points="861.63,-107.48 870.19,-101.24 859.61,-100.78 861.63,-107.48"/>
</a>
</g>
</g>
<!-- Node10&#45;&gt;Node4 -->
<g id="edge10_Node000010_Node000004" class="edge">
<title>Node10&#45;&gt;Node4</title>
<g id="a_edge10_Node000010_Node000004"><a xlink:title=" ">
<path fill="none" stroke="#63b8ff" d="M938.53,-118.31C950.8,-114.12 965.11,-109.22 978.23,-104.73"/>
<polygon fill="#63b8ff" stroke="#63b8ff" points="979.11,-107.79 987.44,-101.24 976.85,-101.17 979.11,-107.79"/>
</a>
</g>
</g>
<!-- Node11&#45;&gt;Node4 -->
<g id="edge12_Node000011_Node000004" class="edge">
<title>Node11&#45;&gt;Node4</title>
<g id="a_edge12_Node000011_Node000004"><a xlink:title=" ">
<path fill="none" stroke="#63b8ff" d="M952.43,-90.79C960.48,-90.79 968.84,-90.79 976.82,-90.79"/>
<polygon fill="#63b8ff" stroke="#63b8ff" points="976.75,-94.29 986.75,-90.79 976.75,-87.29 976.75,-94.29"/>
</a>
</g>
</g>
<!-- Node13 -->
<g id="Node000013" class="node">
<title>Node13</title>
<g id="a_Node000013"><a xlink:href="class_visa_device.html#ad659ba652605f5c983958400fde8c808" target="_top" xlink:title=" ">
<polygon fill="white" stroke="#666666" points="695.75,-119.79 604.75,-119.79 604.75,-99.79 695.75,-99.79 695.75,-119.79"/>
<text text-anchor="middle" x="650.25" y="-106.29" font-family="Helvetica,sans-Serif" font-size="10.00">VisaDevice::send</text>
</a>
</g>
</g>
<!-- Node12&#45;&gt;Node13 -->
<g id="edge15_Node000012_Node000013" class="edge">
<title>Node12&#45;&gt;Node13</title>
<g id="a_edge15_Node000012_Node000013"><a xlink:title=" ">
<path fill="none" stroke="#63b8ff" d="M445.74,-109.79C489.46,-109.79 549.92,-109.79 593.57,-109.79"/>
<polygon fill="#63b8ff" stroke="#63b8ff" points="593.56,-113.29 603.56,-109.79 593.56,-106.29 593.56,-113.29"/>
</a>
</g>
</g>
<!-- Node14 -->
<g id="Node000014" class="node">
<title>Node14</title>
<g id="a_Node000014"><a xlink:href="class_visa_device.html#ab1f5c0b110fca770dbd5be069453ea82" target="_top" xlink:title=" ">
<polygon fill="white" stroke="#666666" points="568.75,-43.79 481.5,-43.79 481.5,-23.79 568.75,-23.79 568.75,-43.79"/>
<text text-anchor="middle" x="525.12" y="-30.29" font-family="Helvetica,sans-Serif" font-size="10.00">VisaDevice::wait</text>
</a>
</g>
</g>
<!-- Node12&#45;&gt;Node14 -->
<g id="edge20_Node000012_Node000014" class="edge">
<title>Node12&#45;&gt;Node14</title>
<g id="a_edge20_Node000012_Node000014"><a xlink:title=" ">
<path fill="none" stroke="#63b8ff" d="M408.15,-99.39C430.97,-86.48 470.07,-64.36 496.5,-49.42"/>
<polygon fill="#63b8ff" stroke="#63b8ff" points="497.96,-52.05 504.94,-44.08 494.52,-45.95 497.96,-52.05"/>
</a>
</g>
</g>
<!-- Node13&#45;&gt;Node4 -->
<g id="edge16_Node000013_Node000004" class="edge">
<title>Node13&#45;&gt;Node4</title>
<g id="a_edge16_Node000013_Node000004"><a xlink:title=" ">
<path fill="none" stroke="#63b8ff" d="M686.48,-99.3C742.68,-83.92 856.09,-58.46 952,-71.79 960.77,-73.01 970,-75.09 978.72,-77.43"/>
<polygon fill="#63b8ff" stroke="#63b8ff" points="977.45,-81 988.03,-80.38 979.38,-74.27 977.45,-81"/>
</a>
</g>
</g>
<!-- Node13&#45;&gt;Node9 -->
<g id="edge17_Node000013_Node000009" class="edge">
<title>Node13&#45;&gt;Node9</title>
<g id="a_edge17_Node000013_Node000009"><a xlink:title=" ">
<path fill="none" stroke="#63b8ff" d="M696.21,-116.55C704.2,-117.75 712.63,-119.01 720.91,-120.26"/>
<polygon fill="#63b8ff" stroke="#63b8ff" points="720.25,-123.85 730.66,-121.87 721.29,-116.93 720.25,-123.85"/>
</a>
</g>
</g>
<!-- Node13&#45;&gt;Node10 -->
<g id="edge18_Node000013_Node000010" class="edge">
<title>Node13&#45;&gt;Node10</title>
<g id="a_edge18_Node000013_Node000010"><a xlink:title=" ">
<path fill="none" stroke="#63b8ff" d="M667.73,-120.25C683.48,-129.56 708.22,-142.52 731.75,-147.79 774.91,-157.47 825.24,-150.02 860.65,-141.78"/>
<polygon fill="#63b8ff" stroke="#63b8ff" points="861.26,-144.99 870.14,-139.21 859.6,-138.19 861.26,-144.99"/>
</a>
</g>
</g>
<!-- Node13&#45;&gt;Node11 -->
<g id="edge19_Node000013_Node000011" class="edge">
<title>Node13&#45;&gt;Node11</title>
<g id="a_edge19_Node000013_Node000011"><a xlink:title=" ">
<path fill="none" stroke="#63b8ff" d="M696.19,-106.44C739.27,-103.23 804.42,-98.36 850.66,-94.91"/>
<polygon fill="#63b8ff" stroke="#63b8ff" points="850.68,-98.35 860.39,-94.11 850.16,-91.37 850.68,-98.35"/>
</a>
</g>
</g>
<!-- Node14&#45;&gt;Node4 -->
<g id="edge21_Node000014_Node000004" class="edge">
<title>Node14&#45;&gt;Node4</title>
<g id="a_edge21_Node000014_Node000004"><a xlink:title=" ">
<path fill="none" stroke="#63b8ff" d="M561.42,-23.38C574.85,-19.92 590.39,-16.51 604.75,-14.79 758.5,3.52 807.38,12.51 952,-42.79 970.03,-49.69 987.66,-62.64 1000.3,-73.36"/>
<polygon fill="#63b8ff" stroke="#63b8ff" points="997.39,-75.33 1007.21,-79.31 1002.01,-70.08 997.39,-75.33"/>
</a>
</g>
</g>
<!-- Node15 -->
<g id="Node000015" class="node">
<title>Node15</title>
<g id="a_Node000015"><a xlink:href="class_visa_device.html#a70a6c6ace7c5841db420c1e112782a53" target="_top" xlink:title=" ">
<polygon fill="white" stroke="#666666" points="693.12,-43.79 607.38,-43.79 607.38,-23.79 693.12,-23.79 693.12,-43.79"/>
<text text-anchor="middle" x="650.25" y="-30.29" font-family="Helvetica,sans-Serif" font-size="10.00">VisaDevice::opc</text>
</a>
</g>
</g>
<!-- Node14&#45;&gt;Node15 -->
<g id="edge22_Node000014_Node000015" class="edge">
<title>Node14&#45;&gt;Node15</title>
<g id="a_edge22_Node000014_Node000015"><a xlink:title=" ">
<path fill="none" stroke="#63b8ff" d="M569.19,-33.79C577.96,-33.79 587.29,-33.79 596.36,-33.79"/>
<polygon fill="#63b8ff" stroke="#63b8ff" points="596.25,-37.29 606.25,-33.79 596.25,-30.29 596.25,-37.29"/>
</a>
</g>
</g>
<!-- Node15&#45;&gt;Node4 -->
<g id="edge23_Node000015_Node000004" class="edge">
<title>Node15&#45;&gt;Node4</title>
<g id="a_edge23_Node000015_Node000004"><a xlink:title=" ">
<path fill="none" stroke="#63b8ff" d="M693.23,-34.25C751.95,-35.73 861.56,-41.54 952,-63.79 963.9,-66.72 976.49,-71.35 987.49,-75.96"/>
<polygon fill="#63b8ff" stroke="#63b8ff" points="985.93,-79.53 996.49,-80.31 988.72,-73.11 985.93,-79.53"/>
</a>
</g>
</g>
<!-- Node15&#45;&gt;Node9 -->
<g id="edge24_Node000015_Node000009" class="edge">
<title>Node15&#45;&gt;Node9</title>
<g id="a_edge24_Node000015_Node000009"><a xlink:title=" ">
<path fill="none" stroke="#63b8ff" d="M664.79,-43.96C686.45,-60.23 729.14,-92.29 755.39,-112"/>
<polygon fill="#63b8ff" stroke="#63b8ff" points="752.83,-115.21 762.93,-118.41 757.03,-109.61 752.83,-115.21"/>
</a>
</g>
</g>
</g>
</svg>
