<?xml version="1.0" encoding="UTF-8" standalone="no"?>
<!DOCTYPE svg PUBLIC "-//W3C//DTD SVG 1.1//EN"
 "http://www.w3.org/Graphics/SVG/1.1/DTD/svg11.dtd">
<!-- Generated by graphviz version 8.0.5 (20230430.1635)
 -->
<!-- Title: KeysightGen::next_freq Pages: 1 -->
<svg width="1041pt" height="160pt"
 viewBox="0.00 0.00 1040.50 160.11" xmlns="http://www.w3.org/2000/svg" xmlns:xlink="http://www.w3.org/1999/xlink">
<g id="graph0" class="graph" transform="scale(1 1) rotate(0) translate(4 156.11)">
<title>KeysightGen::next_freq</title>
<!-- Node1 -->
<g id="Node000001" class="node">
<title>Node1</title>
<g id="a_Node000001"><a xlink:title=" ">
<polygon fill="#999999" stroke="#666666" points="118,-117.72 0,-117.72 0,-97.72 118,-97.72 118,-117.72"/>
<text text-anchor="middle" x="59" y="-104.22" font-family="Helvetica,sans-Serif" font-size="10.00">KeysightGen::next_freq</text>
</a>
</g>
</g>
<!-- Node2 -->
<g id="Node000002" class="node">
<title>Node2</title>
<g id="a_Node000002"><a xlink:href="class_keysight_gen.html#acb44da0109ba9b90e2e0dd6dcdb552a1" target="_top" xlink:title=" ">
<polygon fill="white" stroke="#666666" points="260,-117.72 161.5,-117.72 161.5,-97.72 260,-97.72 260,-117.72"/>
<text text-anchor="middle" x="210.75" y="-104.22" font-family="Helvetica,sans-Serif" font-size="10.00">KeysightGen::rf_off</text>
</a>
</g>
</g>
<!-- Node1&#45;&gt;Node2 -->
<g id="edge1_Node000001_Node000002" class="edge">
<title>Node1&#45;&gt;Node2</title>
<g id="a_edge1_Node000001_Node000002"><a xlink:title=" ">
<path fill="none" stroke="#63b8ff" d="M118.33,-107.72C128.81,-107.72 139.75,-107.72 150.26,-107.72"/>
<polygon fill="#63b8ff" stroke="#63b8ff" points="150.03,-111.22 160.03,-107.72 150.03,-104.22 150.03,-111.22"/>
</a>
</g>
</g>
<!-- Node3 -->
<g id="Node000003" class="node">
<title>Node3</title>
<g id="a_Node000003"><a xlink:href="class_visa_device.html#ad659ba652605f5c983958400fde8c808" target="_top" xlink:title=" ">
<polygon fill="white" stroke="#666666" points="517.75,-117.72 426.75,-117.72 426.75,-97.72 517.75,-97.72 517.75,-117.72"/>
<text text-anchor="middle" x="472.25" y="-104.22" font-family="Helvetica,sans-Serif" font-size="10.00">VisaDevice::send</text>
</a>
</g>
</g>
<!-- Node1&#45;&gt;Node3 -->
<g id="edge15_Node000001_Node000003" class="edge">
<title>Node1&#45;&gt;Node3</title>
<g id="a_edge15_Node000001_Node000003"><a xlink:title=" ">
<path fill="none" stroke="#63b8ff" d="M102.31,-118.13C118.39,-121.6 136.94,-125.01 154,-126.72 258.72,-137.19 286.1,-132.89 390.75,-121.72 398.79,-120.86 407.25,-119.69 415.53,-118.39"/>
<polygon fill="#63b8ff" stroke="#63b8ff" points="415.97,-121.69 425.27,-116.62 414.83,-114.79 415.97,-121.69"/>
</a>
</g>
</g>
<!-- Node12 -->
<g id="Node000012" class="node">
<title>Node12</title>
<g id="a_Node000012"><a xlink:href="class_visa_device.html#a3744ee1e929d6c05b522693c344c76b3" target="_top" xlink:title=" ">
<polygon fill="white" stroke="#666666" points="267.5,-79.72 154,-79.72 154,-59.72 267.5,-59.72 267.5,-79.72"/>
<text text-anchor="middle" x="210.75" y="-66.22" font-family="Helvetica,sans-Serif" font-size="10.00">VisaDevice::send_wait</text>
</a>
</g>
</g>
<!-- Node1&#45;&gt;Node12 -->
<g id="edge16_Node000001_Node000012" class="edge">
<title>Node1&#45;&gt;Node12</title>
<g id="a_edge16_Node000001_Node000012"><a xlink:title=" ">
<path fill="none" stroke="#63b8ff" d="M101.32,-97.23C118.83,-92.79 139.43,-87.56 157.95,-82.86"/>
<polygon fill="#63b8ff" stroke="#63b8ff" points="158.74,-86.02 167.57,-80.17 157.01,-79.23 158.74,-86.02"/>
</a>
</g>
</g>
<!-- Node2&#45;&gt;Node3 -->
<g id="edge2_Node000002_Node000003" class="edge">
<title>Node2&#45;&gt;Node3</title>
<g id="a_edge2_Node000002_Node000003"><a xlink:title=" ">
<path fill="none" stroke="#63b8ff" d="M260.26,-107.72C304.39,-107.72 369.52,-107.72 415.72,-107.72"/>
<polygon fill="#63b8ff" stroke="#63b8ff" points="415.45,-111.22 425.45,-107.72 415.45,-104.22 415.45,-111.22"/>
</a>
</g>
</g>
<!-- Node4 -->
<g id="Node000004" class="node">
<title>Node4</title>
<g id="a_Node000004"><a xlink:href="class_logger.html#af7709105c2708359b7b082218f4cc3e1" target="_top" xlink:title="Функция, осуществляющая логирование">
<polygon fill="white" stroke="#666666" points="874,-79.72 810,-79.72 810,-59.72 874,-59.72 874,-79.72"/>
<text text-anchor="middle" x="842" y="-66.22" font-family="Helvetica,sans-Serif" font-size="10.00">Logger::log</text>
</a>
</g>
</g>
<!-- Node3&#45;&gt;Node4 -->
<g id="edge3_Node000003_Node000004" class="edge">
<title>Node3&#45;&gt;Node4</title>
<g id="a_edge3_Node000003_Node000004"><a xlink:title=" ">
<path fill="none" stroke="#63b8ff" d="M495.58,-118.13C511.42,-124.92 533.41,-133.16 553.75,-136.72 650.28,-153.57 683.44,-164.15 774,-126.72 794.38,-118.29 813.08,-101.24 825.52,-87.97"/>
<polygon fill="#63b8ff" stroke="#63b8ff" points="827.66,-90.71 831.74,-80.93 822.45,-86.03 827.66,-90.71"/>
</a>
</g>
</g>
<!-- Node9 -->
<g id="Node000009" class="node">
<title>Node9</title>
<g id="a_Node000009"><a xlink:href="class_visa_device.html#aa807192fd9a8c3e6efc458f78de5e73e" target="_top" xlink:title=" ">
<polygon fill="white" stroke="#666666" points="647.75,-79.72 553.75,-79.72 553.75,-59.72 647.75,-59.72 647.75,-79.72"/>
<text text-anchor="middle" x="600.75" y="-66.22" font-family="Helvetica,sans-Serif" font-size="10.00">VisaDevice::query</text>
</a>
</g>
</g>
<!-- Node3&#45;&gt;Node9 -->
<g id="edge8_Node000003_Node000009" class="edge">
<title>Node3&#45;&gt;Node9</title>
<g id="a_edge8_Node000003_Node000009"><a xlink:title=" ">
<path fill="none" stroke="#63b8ff" d="M508.15,-97.23C522.53,-92.91 539.38,-87.85 554.67,-83.26"/>
<polygon fill="#63b8ff" stroke="#63b8ff" points="555.39,-86.39 563.96,-80.17 553.38,-79.69 555.39,-86.39"/>
</a>
</g>
</g>
<!-- Node10 -->
<g id="Node000010" class="node">
<title>Node10</title>
<g id="a_Node000010"><a xlink:href="class_visa_device.html#aca08d9dbb0469f1143668a485e4adfe2" target="_top" xlink:title=" ">
<polygon fill="white" stroke="#666666" points="773.25,-117.72 684.5,-117.72 684.5,-97.72 773.25,-97.72 773.25,-117.72"/>
<text text-anchor="middle" x="728.88" y="-104.22" font-family="Helvetica,sans-Serif" font-size="10.00">VisaDevice::read</text>
</a>
</g>
</g>
<!-- Node3&#45;&gt;Node10 -->
<g id="edge13_Node000003_Node000010" class="edge">
<title>Node3&#45;&gt;Node10</title>
<g id="a_edge13_Node000003_Node000010"><a xlink:title=" ">
<path fill="none" stroke="#63b8ff" d="M518.2,-116.94C529.74,-118.92 542.16,-120.72 553.75,-121.72 595.37,-125.31 606.13,-125.32 647.75,-121.72 656.16,-120.99 665.01,-119.83 673.63,-118.5"/>
<polygon fill="#63b8ff" stroke="#63b8ff" points="674.09,-121.8 683.39,-116.72 672.95,-114.9 674.09,-121.8"/>
</a>
</g>
</g>
<!-- Node11 -->
<g id="Node000011" class="node">
<title>Node11</title>
<g id="a_Node000011"><a xlink:href="class_visa_device.html#a29202c3f5e47326386d1d27972e25267" target="_top" xlink:title=" ">
<polygon fill="white" stroke="#666666" points="774,-79.72 683.75,-79.72 683.75,-59.72 774,-59.72 774,-79.72"/>
<text text-anchor="middle" x="728.88" y="-66.22" font-family="Helvetica,sans-Serif" font-size="10.00">VisaDevice::write</text>
</a>
</g>
</g>
<!-- Node3&#45;&gt;Node11 -->
<g id="edge14_Node000003_Node000011" class="edge">
<title>Node3&#45;&gt;Node11</title>
<g id="a_edge14_Node000003_Node000011"><a xlink:title=" ">
<path fill="none" stroke="#63b8ff" d="M517.93,-104.39C553.31,-101.39 603.9,-96.27 647.75,-88.72 657.48,-87.04 667.78,-84.89 677.65,-82.63"/>
<polygon fill="#63b8ff" stroke="#63b8ff" points="678.2,-85.87 687.14,-80.17 676.6,-79.05 678.2,-85.87"/>
</a>
</g>
</g>
<!-- Node5 -->
<g id="Node000005" class="node">
<title>Node5</title>
<g id="a_Node000005"><a xlink:href="logger_8hpp.html#a49284b7befa8e31f81e01ee8f3735dd0" target="_top" xlink:title="Функция, которая снимает значение текущего времени и конвертирует его в строку с заданным шаблоном.">
<polygon fill="white" stroke="#666666" points="1015.62,-136.72 926.88,-136.72 926.88,-116.72 1015.62,-116.72 1015.62,-136.72"/>
<text text-anchor="middle" x="971.25" y="-123.22" font-family="Helvetica,sans-Serif" font-size="10.00">get_current_time</text>
</a>
</g>
</g>
<!-- Node4&#45;&gt;Node5 -->
<g id="edge4_Node000004_Node000005" class="edge">
<title>Node4&#45;&gt;Node5</title>
<g id="a_edge4_Node000004_Node000005"><a xlink:title=" ">
<path fill="none" stroke="#63b8ff" d="M859.02,-80.08C872.3,-88.35 891.85,-99.81 910,-107.72 914.07,-109.49 918.36,-111.18 922.7,-112.76"/>
<polygon fill="#63b8ff" stroke="#63b8ff" points="921.24,-116.31 931.84,-116.27 923.53,-109.69 921.24,-116.31"/>
</a>
</g>
</g>
<!-- Node6 -->
<g id="Node000006" class="node">
<title>Node6</title>
<g id="a_Node000006"><a xlink:href="class_logger.html#a6edb7b263f080d417b82a537ed50fee4" target="_top" xlink:title="Функция, возвращающая тег в зависимости от уровня логирования и от назначения тега.">
<polygon fill="white" stroke="#666666" points="1013,-98.72 929.5,-98.72 929.5,-78.72 1013,-78.72 1013,-98.72"/>
<text text-anchor="middle" x="971.25" y="-85.22" font-family="Helvetica,sans-Serif" font-size="10.00">Logger::get_tag</text>
</a>
</g>
</g>
<!-- Node4&#45;&gt;Node6 -->
<g id="edge5_Node000004_Node000006" class="edge">
<title>Node4&#45;&gt;Node6</title>
<g id="a_edge5_Node000004_Node000006"><a xlink:title=" ">
<path fill="none" stroke="#63b8ff" d="M874.46,-74.41C887.72,-76.39 903.52,-78.75 918.42,-80.98"/>
<polygon fill="#63b8ff" stroke="#63b8ff" points="917.66,-84.55 928.07,-82.57 918.69,-77.63 917.66,-84.55"/>
</a>
</g>
</g>
<!-- Node7 -->
<g id="Node000007" class="node">
<title>Node7</title>
<g id="a_Node000007"><a xlink:href="class_logger.html#a4825613142ebb093bf8fa26f21f7f3fc" target="_top" xlink:title="Функция, которая выводит сообщение в консоль.">
<polygon fill="white" stroke="#666666" points="1032.5,-60.72 910,-60.72 910,-40.72 1032.5,-40.72 1032.5,-60.72"/>
<text text-anchor="middle" x="971.25" y="-47.22" font-family="Helvetica,sans-Serif" font-size="10.00">Logger::print_to_console</text>
</a>
</g>
</g>
<!-- Node4&#45;&gt;Node7 -->
<g id="edge6_Node000004_Node000007" class="edge">
<title>Node4&#45;&gt;Node7</title>
<g id="a_edge6_Node000004_Node000007"><a xlink:title=" ">
<path fill="none" stroke="#63b8ff" d="M874.46,-65.02C881.96,-63.9 890.27,-62.66 898.78,-61.39"/>
<polygon fill="#63b8ff" stroke="#63b8ff" points="899.23,-64.71 908.6,-59.77 898.19,-57.79 899.23,-64.71"/>
</a>
</g>
</g>
<!-- Node8 -->
<g id="Node000008" class="node">
<title>Node8</title>
<g id="a_Node000008"><a xlink:href="class_logger.html#a999bb33f7cf079cb98f32fae6016a2f3" target="_top" xlink:title="Функция, которая записывает сообщение в файл.">
<polygon fill="white" stroke="#666666" points="1021.62,-22.72 920.88,-22.72 920.88,-2.72 1021.62,-2.72 1021.62,-22.72"/>
<text text-anchor="middle" x="971.25" y="-9.22" font-family="Helvetica,sans-Serif" font-size="10.00">Logger::print_to_file</text>
</a>
</g>
</g>
<!-- Node4&#45;&gt;Node8 -->
<g id="edge7_Node000004_Node000008" class="edge">
<title>Node4&#45;&gt;Node8</title>
<g id="a_edge7_Node000004_Node000008"><a xlink:title=" ">
<path fill="none" stroke="#63b8ff" d="M859.02,-59.35C872.3,-51.08 891.85,-39.62 910,-31.72 914.07,-29.94 918.36,-28.25 922.7,-26.67"/>
<polygon fill="#63b8ff" stroke="#63b8ff" points="923.53,-29.74 931.84,-23.17 921.24,-23.13 923.53,-29.74"/>
</a>
</g>
</g>
<!-- Node9&#45;&gt;Node10 -->
<g id="edge9_Node000009_Node000010" class="edge">
<title>Node9&#45;&gt;Node10</title>
<g id="a_edge9_Node000009_Node000010"><a xlink:title=" ">
<path fill="none" stroke="#63b8ff" d="M636.55,-80.2C650.88,-84.52 667.68,-89.58 682.93,-94.17"/>
<polygon fill="#63b8ff" stroke="#63b8ff" points="681.61,-97.73 692.19,-97.27 683.63,-91.03 681.61,-97.73"/>
</a>
</g>
</g>
<!-- Node9&#45;&gt;Node11 -->
<g id="edge11_Node000009_Node000011" class="edge">
<title>Node9&#45;&gt;Node11</title>
<g id="a_edge11_Node000009_Node000011"><a xlink:title=" ">
<path fill="none" stroke="#63b8ff" d="M648,-69.72C655.92,-69.72 664.23,-69.72 672.37,-69.72"/>
<polygon fill="#63b8ff" stroke="#63b8ff" points="672.31,-73.22 682.31,-69.72 672.31,-66.22 672.31,-73.22"/>
</a>
</g>
</g>
<!-- Node10&#45;&gt;Node4 -->
<g id="edge10_Node000010_Node000004" class="edge">
<title>Node10&#45;&gt;Node4</title>
<g id="a_edge10_Node000010_Node000004"><a xlink:title=" ">
<path fill="none" stroke="#63b8ff" d="M760.53,-97.23C772.8,-93.04 787.11,-88.14 800.23,-83.66"/>
<polygon fill="#63b8ff" stroke="#63b8ff" points="801.11,-86.71 809.44,-80.17 798.85,-80.09 801.11,-86.71"/>
</a>
</g>
</g>
<!-- Node11&#45;&gt;Node4 -->
<g id="edge12_Node000011_Node000004" class="edge">
<title>Node11&#45;&gt;Node4</title>
<g id="a_edge12_Node000011_Node000004"><a xlink:title=" ">
<path fill="none" stroke="#63b8ff" d="M774.43,-69.72C782.48,-69.72 790.84,-69.72 798.82,-69.72"/>
<polygon fill="#63b8ff" stroke="#63b8ff" points="798.75,-73.22 808.75,-69.72 798.75,-66.22 798.75,-73.22"/>
</a>
</g>
</g>
<!-- Node12&#45;&gt;Node3 -->
<g id="edge17_Node000012_Node000003" class="edge">
<title>Node12&#45;&gt;Node3</title>
<g id="a_edge17_Node000012_Node000003"><a xlink:title=" ">
<path fill="none" stroke="#63b8ff" d="M267.74,-77.91C311.55,-84.33 372.18,-93.21 415.84,-99.6"/>
<polygon fill="#63b8ff" stroke="#63b8ff" points="415.16,-103.19 425.56,-101.17 416.17,-96.26 415.16,-103.19"/>
</a>
</g>
</g>
<!-- Node13 -->
<g id="Node000013" class="node">
<title>Node13</title>
<g id="a_Node000013"><a xlink:href="class_visa_device.html#ab1f5c0b110fca770dbd5be069453ea82" target="_top" xlink:title=" ">
<polygon fill="white" stroke="#666666" points="390.75,-41.72 303.5,-41.72 303.5,-21.72 390.75,-21.72 390.75,-41.72"/>
<text text-anchor="middle" x="347.12" y="-28.22" font-family="Helvetica,sans-Serif" font-size="10.00">VisaDevice::wait</text>
</a>
</g>
</g>
<!-- Node12&#45;&gt;Node13 -->
<g id="edge18_Node000012_Node000013" class="edge">
<title>Node12&#45;&gt;Node13</title>
<g id="a_edge18_Node000012_Node000013"><a xlink:title=" ">
<path fill="none" stroke="#63b8ff" d="M248.82,-59.23C264.25,-54.87 282.34,-49.75 298.71,-45.13"/>
<polygon fill="#63b8ff" stroke="#63b8ff" points="299.5,-48.25 308.17,-42.17 297.6,-41.52 299.5,-48.25"/>
</a>
</g>
</g>
<!-- Node13&#45;&gt;Node4 -->
<g id="edge19_Node000013_Node000004" class="edge">
<title>Node13&#45;&gt;Node4</title>
<g id="a_edge19_Node000013_Node000004"><a xlink:title=" ">
<path fill="none" stroke="#63b8ff" d="M383.42,-21.3C396.85,-17.84 412.39,-14.43 426.75,-12.72 580.34,5.58 625.33,6.96 774,-35.72 788.4,-39.85 803.36,-47.12 815.49,-53.87"/>
<polygon fill="#63b8ff" stroke="#63b8ff" points="813.52,-57.36 823.93,-59.35 817.03,-51.31 813.52,-57.36"/>
</a>
</g>
</g>
<!-- Node14 -->
<g id="Node000014" class="node">
<title>Node14</title>
<g id="a_Node000014"><a xlink:href="class_visa_device.html#a70a6c6ace7c5841db420c1e112782a53" target="_top" xlink:title=" ">
<polygon fill="white" stroke="#666666" points="515.12,-41.72 429.38,-41.72 429.38,-21.72 515.12,-21.72 515.12,-41.72"/>
<text text-anchor="middle" x="472.25" y="-28.22" font-family="Helvetica,sans-Serif" font-size="10.00">VisaDevice::opc</text>
</a>
</g>
</g>
<!-- Node13&#45;&gt;Node14 -->
<g id="edge20_Node000013_Node000014" class="edge">
<title>Node13&#45;&gt;Node14</title>
<g id="a_edge20_Node000013_Node000014"><a xlink:title=" ">
<path fill="none" stroke="#63b8ff" d="M391.19,-31.72C399.96,-31.72 409.29,-31.72 418.36,-31.72"/>
<polygon fill="#63b8ff" stroke="#63b8ff" points="418.25,-35.22 428.25,-31.72 418.25,-28.22 418.25,-35.22"/>
</a>
</g>
</g>
<!-- Node14&#45;&gt;Node4 -->
<g id="edge21_Node000014_Node000004" class="edge">
<title>Node14&#45;&gt;Node4</title>
<g id="a_edge21_Node000014_Node000004"><a xlink:title=" ">
<path fill="none" stroke="#63b8ff" d="M515.42,-31.56C573.9,-31.98 682.73,-35.08 774,-50.72 782.2,-52.12 790.84,-54.14 799.08,-56.35"/>
<polygon fill="#63b8ff" stroke="#63b8ff" points="798.05,-59.98 808.62,-59.32 799.95,-53.24 798.05,-59.98"/>
</a>
</g>
</g>
<!-- Node14&#45;&gt;Node9 -->
<g id="edge22_Node000014_Node000009" class="edge">
<title>Node14&#45;&gt;Node9</title>
<g id="a_edge22_Node000014_Node000009"><a xlink:title=" ">
<path fill="none" stroke="#63b8ff" d="M508.15,-42.2C522.53,-46.52 539.38,-51.58 554.67,-56.17"/>
<polygon fill="#63b8ff" stroke="#63b8ff" points="553.38,-59.74 563.96,-59.27 555.39,-53.04 553.38,-59.74"/>
</a>
</g>
</g>
</g>
</svg>
