<?xml version="1.0" encoding="UTF-8" standalone="no"?>
<!DOCTYPE svg PUBLIC "-//W3C//DTD SVG 1.1//EN"
 "http://www.w3.org/Graphics/SVG/1.1/DTD/svg11.dtd">
<!-- Generated by graphviz version 8.0.5 (20230430.1635)
 -->
<!-- Title: VisaDevice::query Pages: 1 -->
<!--zoomable 843 -->

<svg id="main" version="1.1" xmlns="http://www.w3.org/2000/svg" xmlns:xlink="http://www.w3.org/1999/xlink" xml:space="preserve" onload="init(evt)">
<style type="text/css"><![CDATA[
.node, .edge {opacity: 0.7;}
.node.selected, .edge.selected {opacity: 1;}
.edge:hover path { stroke: red; }
.edge:hover polygon { stroke: red; fill: red; }
]]></style>

<defs>
  <circle id="rim" cx="0" cy="0" r="7"/>
  <circle id="rim2" cx="0" cy="0" r="3.5"/>
  <g id="zoomPlus">
    <use xlink:href="#rim" fill="#404040"><set attributeName="fill" to="#808080" begin="zoomplus.mouseover" end="zoomplus.mouseout"/></use>
    <path d="M-4,0h8M0,-4v8" fill="none" stroke="white" stroke-width="1.5" pointer-events="none"/>
  </g>
  <g id="zoomMin">
    <use xlink:href="#rim" fill="#404040"><set attributeName="fill" to="#808080" begin="zoomminus.mouseover" end="zoomminus.mouseout"/></use>
    <path d="M-4,0h8" fill="none" stroke="white" stroke-width="1.5" pointer-events="none"/>
  </g>
  <g id="arrowUp" transform="translate(30 24)">
    <use xlink:href="#rim"/>
    <path pointer-events="none" fill="none" stroke="white" stroke-width="1.5" d="M0,-3.0v7 M-2.5,-0.5L0,-3.0L2.5,-0.5"/>
  </g>
  <g id="arrowRight" transform="rotate(90) translate(36 -43)">
    <use xlink:href="#rim"/>
    <path pointer-events="none" fill="none" stroke="white" stroke-width="1.5" d="M0,-3.0v7 M-2.5,-0.5L0,-3.0L2.5,-0.5"/>
  </g>
  <g id="arrowDown" transform="rotate(180) translate(-30 -48)">
    <use xlink:href="#rim"/>
    <path pointer-events="none" fill="none" stroke="white" stroke-width="1.5" d="M0,-3.0v7 M-2.5,-0.5L0,-3.0L2.5,-0.5"/>
  </g>
  <g id="arrowLeft" transform="rotate(270) translate(-36 17)">
    <use xlink:href="#rim"/>
    <path pointer-events="none" fill="none" stroke="white" stroke-width="1.5" d="M0,-3.0v7 M-2.5,-0.5L0,-3.0L2.5,-0.5"/>
  </g>
  <g id="resetDef">
    <use xlink:href="#rim2" fill="#404040"><set attributeName="fill" to="#808080" begin="reset.mouseover" end="reset.mouseout"/></use>
  </g>
</defs>
<script type="application/ecmascript">
var viewWidth = 896;
var viewHeight = 843;
var sectionId = 'dynsection-7';
</script>
<script type="application/ecmascript" xlink:href="svg.min.js"/>
<svg id="graph" class="graph">
<g id="viewport">
<title>VisaDevice::query</title>
<!-- Node1 -->
<g id="Node000001" class="node">
<title>Node1</title>
<g id="a_Node000001"><a xlink:title="Метод, совмещающий в себе методы write() и read().">
<polygon fill="#999999" stroke="#666666" points="888,-369 794,-369 794,-349 888,-349 888,-369"/>
<text text-anchor="middle" x="841" y="-355.5" font-family="Helvetica,sans-Serif" font-size="10.00">VisaDevice::query</text>
</a>
</g>
</g>
<!-- Node2 -->
<g id="Node000002" class="node">
<title>Node2</title>
<g id="a_Node000002"><a xlink:href="class_visa_device.html#aba4642c194cffe2135a133e23960ab63" target="_top" xlink:title="Отправляет команду &quot;SYSTEM:ERROR?&quot; на подключенное устройство и считывает сведения об ошибках,...">
<polygon fill="white" stroke="#666666" points="619.38,-526 538.12,-526 538.12,-506 619.38,-506 619.38,-526"/>
<text text-anchor="middle" x="578.75" y="-512.5" font-family="Helvetica,sans-Serif" font-size="10.00">VisaDevice::err</text>
</a>
</g>
</g>
<!-- Node1&#45;&gt;Node2 -->
<g id="edge1_Node000001_Node000002" class="edge">
<title>Node1&#45;&gt;Node2</title>
<g id="a_edge1_Node000001_Node000002"><a xlink:title=" ">
<path fill="none" stroke="#63b8ff" d="M816.29,-375.56C800.07,-386.72 777.97,-401.61 758,-414 701.19,-449.24 631.98,-487.58 599.01,-505.57"/>
<polygon fill="#63b8ff" stroke="#63b8ff" points="817.86,-378.03 824.1,-369.46 813.88,-372.27 817.86,-378.03"/>
</a>
</g>
</g>
<!-- Node20 -->
<g id="Node000020" class="node">
<title>Node20</title>
<g id="a_Node000020"><a xlink:href="class_visa_device.html#a3f6602a4daf668fa4a06a1fe2821d0c7" target="_top" xlink:title="Отправляет команду &quot;*IDN?&quot; на подключенное устройство и ожидает ответа">
<polygon fill="white" stroke="#666666" points="756.5,-279 673.75,-279 673.75,-259 756.5,-259 756.5,-279"/>
<text text-anchor="middle" x="715.12" y="-265.5" font-family="Helvetica,sans-Serif" font-size="10.00">VisaDevice::idn</text>
</a>
</g>
</g>
<!-- Node1&#45;&gt;Node20 -->
<g id="edge19_Node000001_Node000020" class="edge">
<title>Node1&#45;&gt;Node20</title>
<g id="a_edge19_Node000001_Node000020"><a xlink:title=" ">
<path fill="none" stroke="#63b8ff" d="M817.2,-342.43C791.9,-324.05 751.85,-294.95 730.55,-279.48"/>
<polygon fill="#63b8ff" stroke="#63b8ff" points="814.64,-345.63 824.79,-348.68 818.76,-339.97 814.64,-345.63"/>
</a>
</g>
</g>
<!-- Node23 -->
<g id="Node000023" class="node">
<title>Node23</title>
<g id="a_Node000023"><a xlink:href="class_visa_device.html#a70a6c6ace7c5841db420c1e112782a53" target="_top" xlink:title="Отправляет команду &quot;*OPC?&quot; на подключенное устройство, ожидает ответ и, в зависимости от полученного ...">
<polygon fill="white" stroke="#666666" points="758,-405 672.25,-405 672.25,-385 758,-385 758,-405"/>
<text text-anchor="middle" x="715.12" y="-391.5" font-family="Helvetica,sans-Serif" font-size="10.00">VisaDevice::opc</text>
</a>
</g>
</g>
<!-- Node1&#45;&gt;Node23 -->
<g id="edge22_Node000001_Node000023" class="edge">
<title>Node1&#45;&gt;Node23</title>
<g id="a_edge22_Node000001_Node000023"><a xlink:title=" ">
<path fill="none" stroke="#63b8ff" d="M793.83,-372.42C779.96,-376.45 764.96,-380.81 751.87,-384.61"/>
<polygon fill="#63b8ff" stroke="#63b8ff" points="794.54,-375.56 803.17,-369.41 792.59,-368.84 794.54,-375.56"/>
</a>
</g>
</g>
<!-- Node32 -->
<g id="Node000032" class="node">
<title>Node32</title>
<g id="a_Node000032"><a xlink:href="class_visa_device.html#ad659ba652605f5c983958400fde8c808" target="_top" xlink:title="Отправка данных на прибор и чтение ответа от прибора.">
<polygon fill="white" stroke="#666666" points="624.25,-317 533.25,-317 533.25,-297 624.25,-297 624.25,-317"/>
<text text-anchor="middle" x="578.75" y="-303.5" font-family="Helvetica,sans-Serif" font-size="10.00">VisaDevice::send</text>
</a>
</g>
</g>
<!-- Node1&#45;&gt;Node32 -->
<g id="edge32_Node000001_Node000032" class="edge">
<title>Node1&#45;&gt;Node32</title>
<g id="a_edge32_Node000001_Node000032"><a xlink:title=" ">
<path fill="none" stroke="#63b8ff" d="M783.03,-347.62C735.45,-338.11 668.54,-324.74 624.68,-315.98"/>
<polygon fill="#63b8ff" stroke="#63b8ff" points="782.28,-351.24 792.77,-349.76 783.65,-344.37 782.28,-351.24"/>
</a>
</g>
</g>
<!-- Node3 -->
<g id="Node000003" class="node">
<title>Node3</title>
<g id="a_Node000003"><a xlink:href="class_visa_device.html#aa8ab94835c465376d5b775478b3b04bf" target="_top" xlink:title="Отправка данных на прибор и чтение ответа от прибора. Также, проверяется наличие ошибок на приборе.">
<polygon fill="white" stroke="#666666" points="465,-526 357.5,-526 357.5,-506 465,-506 465,-526"/>
<text text-anchor="middle" x="411.25" y="-512.5" font-family="Helvetica,sans-Serif" font-size="10.00">VisaDevice::send_err</text>
</a>
</g>
</g>
<!-- Node2&#45;&gt;Node3 -->
<g id="edge2_Node000002_Node000003" class="edge">
<title>Node2&#45;&gt;Node3</title>
<g id="a_edge2_Node000002_Node000003"><a xlink:title=" ">
<path fill="none" stroke="#63b8ff" d="M526.87,-516C507.38,-516 485.1,-516 465.39,-516"/>
<polygon fill="#63b8ff" stroke="#63b8ff" points="526.69,-519.5 536.69,-516 526.69,-512.5 526.69,-519.5"/>
</a>
</g>
</g>
<!-- Node5 -->
<g id="Node000005" class="node">
<title>Node5</title>
<g id="a_Node000005"><a xlink:href="class_visa_device.html#a069e154c5f48779dfd908146db9e66ed" target="_top" xlink:title="Отправка данных на прибор и чтение ответа от прибора. Также, ожидается завершение выполнения действий...">
<polygon fill="white" stroke="#666666" points="301.25,-564 171.25,-564 171.25,-544 301.25,-544 301.25,-564"/>
<text text-anchor="middle" x="236.25" y="-550.5" font-family="Helvetica,sans-Serif" font-size="10.00">VisaDevice::send_wait_err</text>
</a>
</g>
</g>
<!-- Node2&#45;&gt;Node5 -->
<g id="edge4_Node000002_Node000005" class="edge">
<title>Node2&#45;&gt;Node5</title>
<g id="a_edge4_Node000002_Node000005"><a xlink:title=" ">
<path fill="none" stroke="#63b8ff" d="M527.27,-527.57C513.68,-530.35 498.96,-533.07 485.25,-535 423.24,-543.71 351.92,-548.65 301.72,-551.29"/>
<polygon fill="#63b8ff" stroke="#63b8ff" points="527.81,-530.82 536.87,-525.34 526.37,-523.97 527.81,-530.82"/>
</a>
</g>
</g>
<!-- Node4 -->
<g id="Node000004" class="node">
<title>Node4</title>
<g id="a_Node000004"><a xlink:href="class_visa_device.html#a743747ee232e8ff9723d25539852f94d" target="_top" xlink:title="Отправка данных на прибор и чтение ответа от прибора. Также, проверяется наличие ошибок на приборе.">
<polygon fill="white" stroke="#666666" points="290,-526 182.5,-526 182.5,-506 290,-506 290,-526"/>
<text text-anchor="middle" x="236.25" y="-512.5" font-family="Helvetica,sans-Serif" font-size="10.00">VisaDevice::send_err</text>
</a>
</g>
</g>
<!-- Node3&#45;&gt;Node4 -->
<g id="edge3_Node000003_Node000004" class="edge">
<title>Node3&#45;&gt;Node4</title>
<g id="a_edge3_Node000003_Node000004"><a xlink:title=" ">
<path fill="none" stroke="#63b8ff" d="M346.45,-516C328.01,-516 308.08,-516 290.37,-516"/>
<polygon fill="#63b8ff" stroke="#63b8ff" points="346.4,-519.5 356.4,-516 346.4,-512.5 346.4,-519.5"/>
</a>
</g>
</g>
<!-- Node6 -->
<g id="Node000006" class="node">
<title>Node6</title>
<g id="a_Node000006"><a xlink:href="class_keysight_m9807_a.html#a85c78a42ccfda3bb9b69cb60b79358f4" target="_top" xlink:title="Настройка ВАЦ для измерения">
<polygon fill="white" stroke="#666666" points="135.25,-835 0,-835 0,-815 135.25,-815 135.25,-835"/>
<text text-anchor="middle" x="67.62" y="-821.5" font-family="Helvetica,sans-Serif" font-size="10.00">KeysightM9807A::configure</text>
</a>
</g>
</g>
<!-- Node5&#45;&gt;Node6 -->
<g id="edge5_Node000005_Node000006" class="edge">
<title>Node5&#45;&gt;Node6</title>
<g id="a_edge5_Node000005_Node000006"><a xlink:title=" ">
<path fill="none" stroke="#63b8ff" d="M233.1,-575.13C227.04,-623.41 205.4,-742.54 135.25,-806 131.41,-809.47 126.99,-812.31 122.28,-814.63"/>
<polygon fill="#63b8ff" stroke="#63b8ff" points="236.66,-575.79 234.32,-565.46 229.71,-574.99 236.66,-575.79"/>
</a>
</g>
</g>
<!-- Node7 -->
<g id="Node000007" class="node">
<title>Node7</title>
<g id="a_Node000007"><a xlink:href="class_keysight_m9807_a.html#ad492f043e51d3e760209af6d59fe7829" target="_top" xlink:title="Создание необходимых трасс, в зависимости от того, используется ли внешний генератор">
<polygon fill="white" stroke="#666666" points="129.25,-797 6,-797 6,-765 129.25,-765 129.25,-797"/>
<text text-anchor="start" x="14" y="-783.5" font-family="Helvetica,sans-Serif" font-size="10.00">KeysightM9807A::create</text>
<text text-anchor="middle" x="67.62" y="-771.5" font-family="Helvetica,sans-Serif" font-size="10.00">_traces</text>
</a>
</g>
</g>
<!-- Node5&#45;&gt;Node7 -->
<g id="edge6_Node000005_Node000007" class="edge">
<title>Node5&#45;&gt;Node7</title>
<g id="a_edge6_Node000005_Node000007"><a xlink:title=" ">
<path fill="none" stroke="#63b8ff" d="M230.38,-574.93C219.91,-615.46 191.52,-705.13 135.25,-756 131.68,-759.23 127.64,-762.06 123.38,-764.53"/>
<polygon fill="#63b8ff" stroke="#63b8ff" points="233.97,-576 232.97,-565.45 227.17,-574.32 233.97,-576"/>
</a>
</g>
</g>
<!-- Node8 -->
<g id="Node000008" class="node">
<title>Node8</title>
<g id="a_Node000008"><a xlink:href="class_keysight_m9807_a.html#ae9df428776abd1cc65fa24e57fb713e1" target="_top" xlink:title="Запуск измерения">
<polygon fill="white" stroke="#666666" points="122.12,-747 13.12,-747 13.12,-727 122.12,-727 122.12,-747"/>
<text text-anchor="middle" x="67.62" y="-733.5" font-family="Helvetica,sans-Serif" font-size="10.00">KeysightM9807A::init</text>
</a>
</g>
</g>
<!-- Node5&#45;&gt;Node8 -->
<g id="edge7_Node000005_Node000008" class="edge">
<title>Node5&#45;&gt;Node8</title>
<g id="a_edge7_Node000005_Node000008"><a xlink:title=" ">
<path fill="none" stroke="#63b8ff" d="M228.35,-574.66C215.61,-609.55 185.08,-680.08 135.25,-718 130.75,-721.42 125.66,-724.23 120.34,-726.53"/>
<polygon fill="#63b8ff" stroke="#63b8ff" points="231.98,-575.88 231.98,-565.29 225.37,-573.56 231.98,-575.88"/>
</a>
</g>
</g>
<!-- Node9 -->
<g id="Node000009" class="node">
<title>Node9</title>
<g id="a_Node000009"><a xlink:href="class_keysight_m9807_a.html#ad48b95d00b8a2ecee1e95dc300d25203" target="_top" xlink:title="Инициализация канала для измерений">
<polygon fill="white" stroke="#666666" points="122.12,-709 13.12,-709 13.12,-677 122.12,-677 122.12,-709"/>
<text text-anchor="start" x="21.12" y="-695.5" font-family="Helvetica,sans-Serif" font-size="10.00">KeysightM9807A::init</text>
<text text-anchor="middle" x="67.62" y="-683.5" font-family="Helvetica,sans-Serif" font-size="10.00">_channel</text>
</a>
</g>
</g>
<!-- Node5&#45;&gt;Node9 -->
<g id="edge8_Node000005_Node000009" class="edge">
<title>Node5&#45;&gt;Node9</title>
<g id="a_edge8_Node000005_Node000009"><a xlink:title=" ">
<path fill="none" stroke="#63b8ff" d="M222.87,-573.24C205.89,-598.25 173.1,-641.83 135.25,-668 130.58,-671.23 125.43,-674.11 120.13,-676.66"/>
<polygon fill="#63b8ff" stroke="#63b8ff" points="226.17,-575.61 228.78,-565.34 220.33,-571.73 226.17,-575.61"/>
</a>
</g>
</g>
<!-- Node10 -->
<g id="Node000010" class="node">
<title>Node10</title>
<g id="a_Node000010"><a xlink:href="class_keysight_m9807_a.html#ad4dc40466fecabae451e88d763692076" target="_top" xlink:title="Отключает все порты">
<polygon fill="white" stroke="#666666" points="125.88,-659 9.38,-659 9.38,-639 125.88,-639 125.88,-659"/>
<text text-anchor="middle" x="67.62" y="-645.5" font-family="Helvetica,sans-Serif" font-size="10.00">KeysightM9807A::rf_off</text>
</a>
</g>
</g>
<!-- Node5&#45;&gt;Node10 -->
<g id="edge9_Node000005_Node000010" class="edge">
<title>Node5&#45;&gt;Node10</title>
<g id="a_edge9_Node000005_Node000010"><a xlink:title=" ">
<path fill="none" stroke="#63b8ff" d="M216.62,-571.6C197.54,-588.75 166.37,-614.43 135.25,-630 128.58,-633.34 121.23,-636.17 113.93,-638.55"/>
<polygon fill="#63b8ff" stroke="#63b8ff" points="218.48,-574.73 223.48,-565.39 213.75,-569.57 218.48,-574.73"/>
</a>
</g>
</g>
<!-- Node11 -->
<g id="Node000011" class="node">
<title>Node11</title>
<g id="a_Node000011"><a xlink:href="class_keysight_m9807_a.html#a861c82a08c49f54dd245db73d87181c8" target="_top" xlink:title="Отключает выбранный порт">
<polygon fill="white" stroke="#666666" points="125.88,-621 9.38,-621 9.38,-601 125.88,-601 125.88,-621"/>
<text text-anchor="middle" x="67.62" y="-607.5" font-family="Helvetica,sans-Serif" font-size="10.00">KeysightM9807A::rf_off</text>
</a>
</g>
</g>
<!-- Node5&#45;&gt;Node11 -->
<g id="edge10_Node000005_Node000011" class="edge">
<title>Node5&#45;&gt;Node11</title>
<g id="a_edge10_Node000005_Node000011"><a xlink:title=" ">
<path fill="none" stroke="#63b8ff" d="M199.57,-568.41C180.61,-575.85 156.82,-584.84 135.25,-592 126.35,-594.96 116.68,-597.87 107.55,-600.5"/>
<polygon fill="#63b8ff" stroke="#63b8ff" points="200.56,-571.38 208.57,-564.45 197.98,-564.88 200.56,-571.38"/>
</a>
</g>
</g>
<!-- Node12 -->
<g id="Node000012" class="node">
<title>Node12</title>
<g id="a_Node000012"><a xlink:href="class_keysight_m9807_a.html#adf9e166699c89ec3c7f53fae5ec81b0c" target="_top" xlink:title="Включает все порты">
<polygon fill="white" stroke="#666666" points="126.25,-583 9,-583 9,-563 126.25,-563 126.25,-583"/>
<text text-anchor="middle" x="67.62" y="-569.5" font-family="Helvetica,sans-Serif" font-size="10.00">KeysightM9807A::rf_on</text>
</a>
</g>
</g>
<!-- Node5&#45;&gt;Node12 -->
<g id="edge11_Node000005_Node000012" class="edge">
<title>Node5&#45;&gt;Node12</title>
<g id="a_edge11_Node000005_Node000012"><a xlink:title=" ">
<path fill="none" stroke="#63b8ff" d="M160.13,-562.57C148.89,-563.85 137.44,-565.15 126.62,-566.39"/>
<polygon fill="#63b8ff" stroke="#63b8ff" points="160.29,-565.96 169.83,-561.35 159.5,-559 160.29,-565.96"/>
</a>
</g>
</g>
<!-- Node13 -->
<g id="Node000013" class="node">
<title>Node13</title>
<g id="a_Node000013"><a xlink:href="class_keysight_m9807_a.html#ac6105e309ba2f11a360797e19d34a592" target="_top" xlink:title="Включает выбранный порт">
<polygon fill="white" stroke="#666666" points="126.25,-545 9,-545 9,-525 126.25,-525 126.25,-545"/>
<text text-anchor="middle" x="67.62" y="-531.5" font-family="Helvetica,sans-Serif" font-size="10.00">KeysightM9807A::rf_on</text>
</a>
</g>
</g>
<!-- Node5&#45;&gt;Node13 -->
<g id="edge12_Node000005_Node000013" class="edge">
<title>Node5&#45;&gt;Node13</title>
<g id="a_edge12_Node000005_Node000013"><a xlink:title=" ">
<path fill="none" stroke="#63b8ff" d="M160.13,-545.43C148.89,-544.15 137.44,-542.85 126.62,-541.61"/>
<polygon fill="#63b8ff" stroke="#63b8ff" points="159.5,-549 169.83,-546.65 160.29,-542.04 159.5,-549"/>
</a>
</g>
</g>
<!-- Node14 -->
<g id="Node000014" class="node">
<title>Node14</title>
<g id="a_Node000014"><a xlink:href="class_visa_device.html#ab95d81d2e1ebab67621ac7aac769bc64" target="_top" xlink:title="Отправка данных на прибор и чтение ответа от прибора. Также, ожидается завершение выполнения действий...">
<polygon fill="white" stroke="#666666" points="132.62,-507 2.62,-507 2.62,-487 132.62,-487 132.62,-507"/>
<text text-anchor="middle" x="67.62" y="-493.5" font-family="Helvetica,sans-Serif" font-size="10.00">VisaDevice::send_wait_err</text>
</a>
</g>
</g>
<!-- Node5&#45;&gt;Node14 -->
<g id="edge13_Node000005_Node000014" class="edge">
<title>Node5&#45;&gt;Node14</title>
<g id="a_edge13_Node000005_Node000014"><a xlink:title=" ">
<path fill="none" stroke="#63b8ff" d="M185.17,-540.18C180.42,-538.55 175.72,-536.82 171.25,-535 154.5,-528.17 152.04,-522.74 135.25,-516 127.32,-512.82 118.67,-509.94 110.3,-507.44"/>
<polygon fill="#63b8ff" stroke="#63b8ff" points="183.97,-543.79 194.57,-543.55 186.13,-537.13 183.97,-543.79"/>
</a>
</g>
</g>
<!-- Node15 -->
<g id="Node000015" class="node">
<title>Node15</title>
<g id="a_Node000015"><a xlink:href="class_keysight_m9807_a.html#a752f62baec908e4e421a95b3c75422fc" target="_top" xlink:title="Установка определённого значения частоты">
<polygon fill="white" stroke="#666666" points="133,-469 2.25,-469 2.25,-449 133,-449 133,-469"/>
<text text-anchor="middle" x="67.62" y="-455.5" font-family="Helvetica,sans-Serif" font-size="10.00">KeysightM9807A::set_freq</text>
</a>
</g>
</g>
<!-- Node5&#45;&gt;Node15 -->
<g id="edge14_Node000005_Node000015" class="edge">
<title>Node5&#45;&gt;Node15</title>
<g id="a_edge14_Node000005_Node000015"><a xlink:title=" ">
<path fill="none" stroke="#63b8ff" d="M176.58,-538.6C174.73,-537.48 172.95,-536.29 171.25,-535 147.36,-516.91 159.24,-495.96 135.25,-478 130.63,-474.54 125.4,-471.71 119.95,-469.39"/>
<polygon fill="#63b8ff" stroke="#63b8ff" points="174.77,-542.12 185.27,-543.55 177.95,-535.88 174.77,-542.12"/>
</a>
</g>
</g>
<!-- Node16 -->
<g id="Node000016" class="node">
<title>Node16</title>
<g id="a_Node000016"><a xlink:href="class_keysight_m9807_a.html#a2b1761a2a4b4dc696a74590c2cb028de" target="_top" xlink:title="Установка частотного диапазона">
<polygon fill="white" stroke="#666666" points="122.5,-431 12.75,-431 12.75,-399 122.5,-399 122.5,-431"/>
<text text-anchor="start" x="20.75" y="-417.5" font-family="Helvetica,sans-Serif" font-size="10.00">KeysightM9807A::set</text>
<text text-anchor="middle" x="67.62" y="-405.5" font-family="Helvetica,sans-Serif" font-size="10.00">_freq_range</text>
</a>
</g>
</g>
<!-- Node5&#45;&gt;Node16 -->
<g id="edge15_Node000005_Node000016" class="edge">
<title>Node5&#45;&gt;Node16</title>
<g id="a_edge15_Node000005_Node000016"><a xlink:title=" ">
<path fill="none" stroke="#63b8ff" d="M174.92,-538.07C173.64,-537.11 172.42,-536.08 171.25,-535 138.17,-504.27 167.23,-471.88 135.25,-440 131.57,-436.34 127.31,-433.2 122.75,-430.52"/>
<polygon fill="#63b8ff" stroke="#63b8ff" points="172.61,-541.37 182.96,-543.63 176.28,-535.41 172.61,-541.37"/>
</a>
</g>
</g>
<!-- Node17 -->
<g id="Node000017" class="node">
<title>Node17</title>
<g id="a_Node000017"><a xlink:href="class_keysight_m9807_a.html#a148ac915640756d3ef0c33d92c1b1205" target="_top" xlink:title="Установка положений переключателей в определённые позиции">
<polygon fill="white" stroke="#666666" points="134.5,-381 0.75,-381 0.75,-361 134.5,-361 134.5,-381"/>
<text text-anchor="middle" x="67.62" y="-367.5" font-family="Helvetica,sans-Serif" font-size="10.00">KeysightM9807A::set_path</text>
</a>
</g>
</g>
<!-- Node5&#45;&gt;Node17 -->
<g id="edge16_Node000005_Node000017" class="edge">
<title>Node5&#45;&gt;Node17</title>
<g id="a_edge16_Node000005_Node000017"><a xlink:title=" ">
<path fill="none" stroke="#63b8ff" d="M173.82,-537.46C172.93,-536.68 172.07,-535.86 171.25,-535 125.37,-487 181.39,-437.75 135.25,-390 131.91,-386.54 127.98,-383.7 123.74,-381.36"/>
<polygon fill="#63b8ff" stroke="#63b8ff" points="171.39,-540.73 181.6,-543.58 175.39,-534.99 171.39,-540.73"/>
</a>
</g>
</g>
<!-- Node18 -->
<g id="Node000018" class="node">
<title>Node18</title>
<g id="a_Node000018"><a xlink:href="class_keysight_m9807_a.html#ab3a0a48c7e439fab722d902479ff78eb" target="_top" xlink:title="Установка требуемой мощности зондирующего порта">
<polygon fill="white" stroke="#666666" points="122.5,-343 12.75,-343 12.75,-311 122.5,-311 122.5,-343"/>
<text text-anchor="start" x="20.75" y="-329.5" font-family="Helvetica,sans-Serif" font-size="10.00">KeysightM9807A::set</text>
<text text-anchor="middle" x="67.62" y="-317.5" font-family="Helvetica,sans-Serif" font-size="10.00">_power</text>
</a>
</g>
</g>
<!-- Node5&#45;&gt;Node18 -->
<g id="edge17_Node000005_Node000018" class="edge">
<title>Node5&#45;&gt;Node18</title>
<g id="a_edge17_Node000005_Node000018"><a xlink:title=" ">
<path fill="none" stroke="#63b8ff" d="M173.38,-537.16C172.64,-536.47 171.93,-535.75 171.25,-535 115.47,-473.69 188.84,-415.24 135.25,-352 131.74,-347.85 127.46,-344.39 122.79,-341.51"/>
<polygon fill="#63b8ff" stroke="#63b8ff" points="170.98,-540.48 181.11,-543.57 175.12,-534.83 170.98,-540.48"/>
</a>
</g>
</g>
<!-- Node19 -->
<g id="Node000019" class="node">
<title>Node19</title>
<g id="a_Node000019"><a xlink:href="class_keysight_m9807_a.html#a83a1f840e34e3ecb56c319649725efb8" target="_top" xlink:title="Перевод триггера в режим manual.">
<polygon fill="white" stroke="#666666" points="129.25,-293 6,-293 6,-273 129.25,-273 129.25,-293"/>
<text text-anchor="middle" x="67.62" y="-279.5" font-family="Helvetica,sans-Serif" font-size="10.00">KeysightM9807A::trigger</text>
</a>
</g>
</g>
<!-- Node5&#45;&gt;Node19 -->
<g id="edge18_Node000005_Node000019" class="edge">
<title>Node5&#45;&gt;Node19</title>
<g id="a_edge18_Node000005_Node000019"><a xlink:title=" ">
<path fill="none" stroke="#63b8ff" d="M172.98,-536.85C172.39,-536.26 171.81,-535.64 171.25,-535 102.33,-456.07 204.59,-380.56 135.25,-302 132.23,-298.57 128.63,-295.75 124.7,-293.41"/>
<polygon fill="#63b8ff" stroke="#63b8ff" points="170.6,-540.21 180.66,-543.53 174.87,-534.66 170.6,-540.21"/>
</a>
</g>
</g>
<!-- Node21 -->
<g id="Node000021" class="node">
<title>Node21</title>
<g id="a_Node000021"><a xlink:href="class_gen_device.html#ae42dc0c930a6d23322ffbe223d81ab36" target="_top" xlink:title="Конструктор, в котором реализовано создание объекта с определённым адресом, а после &#45; осуществляет по...">
<polygon fill="white" stroke="#666666" points="636.25,-241 521.25,-241 521.25,-221 636.25,-221 636.25,-241"/>
<text text-anchor="middle" x="578.75" y="-227.5" font-family="Helvetica,sans-Serif" font-size="10.00">GenDevice::GenDevice</text>
</a>
</g>
</g>
<!-- Node20&#45;&gt;Node21 -->
<g id="edge20_Node000020_Node000021" class="edge">
<title>Node20&#45;&gt;Node21</title>
<g id="a_edge20_Node000020_Node000021"><a xlink:title=" ">
<path fill="none" stroke="#63b8ff" d="M666.58,-255.55C650.2,-250.92 632.11,-245.81 616.7,-241.45"/>
<polygon fill="#63b8ff" stroke="#63b8ff" points="665.48,-259.16 676.05,-258.52 667.38,-252.43 665.48,-259.16"/>
</a>
</g>
</g>
<!-- Node22 -->
<g id="Node000022" class="node">
<title>Node22</title>
<g id="a_Node000022"><a xlink:href="class_vna_device.html#ace1217e26e6e8d1b0e5127227730989b" target="_top" xlink:title="Конструктор, в котором реализовано создание объекта с определённым адресом, а после &#45; осуществляет по...">
<polygon fill="white" stroke="#666666" points="635.5,-279 522,-279 522,-259 635.5,-259 635.5,-279"/>
<text text-anchor="middle" x="578.75" y="-265.5" font-family="Helvetica,sans-Serif" font-size="10.00">VnaDevice::VnaDevice</text>
</a>
</g>
</g>
<!-- Node20&#45;&gt;Node22 -->
<g id="edge21_Node000020_Node000022" class="edge">
<title>Node20&#45;&gt;Node22</title>
<g id="a_edge21_Node000020_Node000022"><a xlink:title=" ">
<path fill="none" stroke="#63b8ff" d="M662.55,-269C653.75,-269 644.57,-269 635.67,-269"/>
<polygon fill="#63b8ff" stroke="#63b8ff" points="662.44,-272.5 672.44,-269 662.44,-265.5 662.44,-272.5"/>
</a>
</g>
</g>
<!-- Node24 -->
<g id="Node000024" class="node">
<title>Node24</title>
<g id="a_Node000024"><a xlink:href="class_visa_device.html#ab1f5c0b110fca770dbd5be069453ea82" target="_top" xlink:title="Ожидание завершения выполнения команды.">
<polygon fill="white" stroke="#666666" points="622.38,-422 535.12,-422 535.12,-402 622.38,-402 622.38,-422"/>
<text text-anchor="middle" x="578.75" y="-408.5" font-family="Helvetica,sans-Serif" font-size="10.00">VisaDevice::wait</text>
</a>
</g>
</g>
<!-- Node23&#45;&gt;Node24 -->
<g id="edge23_Node000023_Node000024" class="edge">
<title>Node23&#45;&gt;Node24</title>
<g id="a_edge23_Node000023_Node000024"><a xlink:title=" ">
<path fill="none" stroke="#63b8ff" d="M661.41,-401.67C648.57,-403.29 634.99,-405.01 622.67,-406.57"/>
<polygon fill="#63b8ff" stroke="#63b8ff" points="661.49,-405.06 670.98,-400.33 660.62,-398.12 661.49,-405.06"/>
</a>
</g>
</g>
<!-- Node25 -->
<g id="Node000025" class="node">
<title>Node25</title>
<g id="a_Node000025"><a xlink:href="class_visa_device.html#a3744ee1e929d6c05b522693c344c76b3" target="_top" xlink:title="Отправка данных на прибор и чтение ответа от прибора. Также, ожидается завершение выполнения действий...">
<polygon fill="white" stroke="#666666" points="468,-488 354.5,-488 354.5,-468 468,-468 468,-488"/>
<text text-anchor="middle" x="411.25" y="-474.5" font-family="Helvetica,sans-Serif" font-size="10.00">VisaDevice::send_wait</text>
</a>
</g>
</g>
<!-- Node24&#45;&gt;Node25 -->
<g id="edge24_Node000024_Node000025" class="edge">
<title>Node24&#45;&gt;Node25</title>
<g id="a_edge24_Node000024_Node000025"><a xlink:title=" ">
<path fill="none" stroke="#63b8ff" d="M550.62,-427.75C532.55,-437.74 508.02,-450.37 485.25,-459 476.8,-462.2 467.6,-465.06 458.67,-467.52"/>
<polygon fill="#63b8ff" stroke="#63b8ff" points="552.19,-430.32 559.19,-422.37 548.76,-424.21 552.19,-430.32"/>
</a>
</g>
</g>
<!-- Node25&#45;&gt;Node5 -->
<g id="edge30_Node000025_Node000005" class="edge">
<title>Node25&#45;&gt;Node5</title>
<g id="a_edge30_Node000025_Node000005"><a xlink:title=" ">
<path fill="none" stroke="#63b8ff" d="M346.16,-492.39C343.08,-493.79 340.09,-495.32 337.25,-497 317.22,-508.83 321.08,-522.83 301.25,-535 295.72,-538.4 289.54,-541.21 283.27,-543.55"/>
<polygon fill="#63b8ff" stroke="#63b8ff" points="347.24,-495.33 355.23,-488.37 344.65,-488.83 347.24,-495.33"/>
</a>
</g>
</g>
<!-- Node26 -->
<g id="Node000026" class="node">
<title>Node26</title>
<g id="a_Node000026"><a xlink:href="class_keysight_gen.html#a8bbdbb1eba9f85c5e9efa9bd5df0313f" target="_top" xlink:title="Устанавливает частотную точку, соответствующую началу диапазона.">
<polygon fill="white" stroke="#666666" points="293.38,-326 179.12,-326 179.12,-294 293.38,-294 293.38,-326"/>
<text text-anchor="start" x="187.12" y="-312.5" font-family="Helvetica,sans-Serif" font-size="10.00">KeysightGen::move_to</text>
<text text-anchor="middle" x="236.25" y="-300.5" font-family="Helvetica,sans-Serif" font-size="10.00">_start_freq</text>
</a>
</g>
</g>
<!-- Node25&#45;&gt;Node26 -->
<g id="edge25_Node000025_Node000026" class="edge">
<title>Node25&#45;&gt;Node26</title>
<g id="a_edge25_Node000025_Node000026"><a xlink:title=" ">
<path fill="none" stroke="#63b8ff" d="M344.39,-464.33C341.87,-462.74 339.47,-460.97 337.25,-459 304.42,-429.84 326.33,-403.04 301.25,-367 290.2,-351.12 273.87,-336.67 260.47,-326.29"/>
<polygon fill="#63b8ff" stroke="#63b8ff" points="342.54,-467.83 353.03,-469.34 345.77,-461.62 342.54,-467.83"/>
</a>
</g>
</g>
<!-- Node27 -->
<g id="Node000027" class="node">
<title>Node27</title>
<g id="a_Node000027"><a xlink:href="class_keysight_gen.html#a7e1a018b3518d03e94504b48ea444b6f" target="_top" xlink:title="Устанавливает частотную точку, соответствующую началу диапазона.">
<polygon fill="white" stroke="#666666" points="293.38,-212 179.12,-212 179.12,-180 293.38,-180 293.38,-212"/>
<text text-anchor="start" x="187.12" y="-198.5" font-family="Helvetica,sans-Serif" font-size="10.00">KeysightGen::move_to</text>
<text text-anchor="middle" x="236.25" y="-186.5" font-family="Helvetica,sans-Serif" font-size="10.00">_stop_freq</text>
</a>
</g>
</g>
<!-- Node25&#45;&gt;Node27 -->
<g id="edge26_Node000025_Node000027" class="edge">
<title>Node25&#45;&gt;Node27</title>
<g id="a_edge26_Node000025_Node000027"><a xlink:title=" ">
<path fill="none" stroke="#63b8ff" d="M344.51,-465.17C341.89,-463.36 339.45,-461.31 337.25,-459 282.84,-401.76 333,-357.31 301.25,-285 289.01,-257.12 267.07,-229.32 252.34,-212.4"/>
<polygon fill="#63b8ff" stroke="#63b8ff" points="342.56,-468.64 353,-470.44 345.96,-462.52 342.56,-468.64"/>
</a>
</g>
</g>
<!-- Node28 -->
<g id="Node000028" class="node">
<title>Node28</title>
<g id="a_Node000028"><a xlink:href="class_keysight_gen.html#a218a478d0600e3fc2985adf86a049435" target="_top" xlink:title="Переход к следующей частотной точке">
<polygon fill="white" stroke="#666666" points="295.25,-146 177.25,-146 177.25,-126 295.25,-126 295.25,-146"/>
<text text-anchor="middle" x="236.25" y="-132.5" font-family="Helvetica,sans-Serif" font-size="10.00">KeysightGen::next_freq</text>
</a>
</g>
</g>
<!-- Node25&#45;&gt;Node28 -->
<g id="edge27_Node000025_Node000028" class="edge">
<title>Node25&#45;&gt;Node28</title>
<g id="a_edge27_Node000025_Node000028"><a xlink:title=" ">
<path fill="none" stroke="#63b8ff" d="M344.84,-465.78C342.07,-463.82 339.51,-461.57 337.25,-459 252.17,-362.04 373.8,-277.66 301.25,-171 293.63,-159.8 281.2,-151.84 269.31,-146.38"/>
<polygon fill="#63b8ff" stroke="#63b8ff" points="342.9,-469.27 353.34,-471.11 346.33,-463.16 342.9,-469.27"/>
</a>
</g>
</g>
<!-- Node29 -->
<g id="Node000029" class="node">
<title>Node29</title>
<g id="a_Node000029"><a xlink:href="class_keysight_gen.html#aa243d66cc8ba6c1d87359f4db4f371ac" target="_top" xlink:title="Переход к предыдущей частотной точке">
<polygon fill="white" stroke="#666666" points="294.5,-396 178,-396 178,-376 294.5,-376 294.5,-396"/>
<text text-anchor="middle" x="236.25" y="-382.5" font-family="Helvetica,sans-Serif" font-size="10.00">KeysightGen::prev_freq</text>
</a>
</g>
</g>
<!-- Node25&#45;&gt;Node29 -->
<g id="edge28_Node000025_Node000029" class="edge">
<title>Node25&#45;&gt;Node29</title>
<g id="a_edge28_Node000025_Node000029"><a xlink:title=" ">
<path fill="none" stroke="#63b8ff" d="M346.16,-463.61C343.08,-462.21 340.09,-460.68 337.25,-459 317.22,-447.17 319.68,-435.2 301.25,-421 288.61,-411.26 272.91,-402.63 260.22,-396.38"/>
<polygon fill="#63b8ff" stroke="#63b8ff" points="344.65,-467.17 355.23,-467.63 347.24,-460.67 344.65,-467.17"/>
</a>
</g>
</g>
<!-- Node30 -->
<g id="Node000030" class="node">
<title>Node30</title>
<g id="a_Node000030"><a xlink:href="class_visa_device.html#aff290be3fb61e9679a548aafc571985d" target="_top" xlink:title="Отправка данных на прибор и чтение ответа от прибора. Также, ожидается завершение выполнения действий...">
<polygon fill="white" stroke="#666666" points="293,-488 179.5,-488 179.5,-468 293,-468 293,-488"/>
<text text-anchor="middle" x="236.25" y="-474.5" font-family="Helvetica,sans-Serif" font-size="10.00">VisaDevice::send_wait</text>
</a>
</g>
</g>
<!-- Node25&#45;&gt;Node30 -->
<g id="edge29_Node000025_Node000030" class="edge">
<title>Node25&#45;&gt;Node30</title>
<g id="a_edge29_Node000025_Node000030"><a xlink:title=" ">
<path fill="none" stroke="#63b8ff" d="M343.4,-478C326.9,-478 309.38,-478 293.43,-478"/>
<polygon fill="#63b8ff" stroke="#63b8ff" points="343.08,-481.5 353.08,-478 343.08,-474.5 343.08,-481.5"/>
</a>
</g>
</g>
<!-- Node31 -->
<g id="Node000031" class="node">
<title>Node31</title>
<g id="a_Node000031"><a xlink:href="class_keysight_gen.html#aada9855525b00c8b30b9f27baa216464" target="_top" xlink:title="Установка определённого значения частоты">
<polygon fill="white" stroke="#666666" points="292.62,-450 179.88,-450 179.88,-430 292.62,-430 292.62,-450"/>
<text text-anchor="middle" x="236.25" y="-436.5" font-family="Helvetica,sans-Serif" font-size="10.00">KeysightGen::set_freq</text>
</a>
</g>
</g>
<!-- Node25&#45;&gt;Node31 -->
<g id="edge31_Node000025_Node000031" class="edge">
<title>Node25&#45;&gt;Node31</title>
<g id="a_edge31_Node000025_Node000031"><a xlink:title=" ">
<path fill="none" stroke="#63b8ff" d="M352.03,-465.21C330.17,-460.41 305.61,-455.01 284.83,-450.45"/>
<polygon fill="#63b8ff" stroke="#63b8ff" points="351,-468.79 361.52,-467.52 352.5,-461.95 351,-468.79"/>
</a>
</g>
</g>
<!-- Node32&#45;&gt;Node3 -->
<g id="edge46_Node000032_Node000003" class="edge">
<title>Node32&#45;&gt;Node3</title>
<g id="a_edge46_Node000032_Node000003"><a xlink:title=" ">
<path fill="none" stroke="#63b8ff" d="M563.46,-325.75C551.08,-342.64 533.29,-368.52 521.25,-393 499.66,-436.89 521.17,-463.8 485.25,-497 479.58,-502.24 472.64,-506.08 465.32,-508.88"/>
<polygon fill="#63b8ff" stroke="#63b8ff" points="566.55,-328.46 569.72,-318.35 560.94,-324.28 566.55,-328.46"/>
</a>
</g>
</g>
<!-- Node32&#45;&gt;Node25 -->
<g id="edge47_Node000032_Node000025" class="edge">
<title>Node32&#45;&gt;Node25</title>
<g id="a_edge47_Node000032_Node000025"><a xlink:title=" ">
<path fill="none" stroke="#63b8ff" d="M564.3,-326.47C552.55,-343.71 535.23,-369.69 521.25,-393 504.06,-421.65 511.58,-438.43 485.25,-459 480.19,-462.95 474.4,-466.08 468.33,-468.57"/>
<polygon fill="#63b8ff" stroke="#63b8ff" points="567.74,-328.64 570.51,-318.41 561.97,-324.68 567.74,-328.64"/>
</a>
</g>
</g>
<!-- Node32&#45;&gt;Node28 -->
<g id="edge36_Node000032_Node000028" class="edge">
<title>Node32&#45;&gt;Node28</title>
<g id="a_edge36_Node000032_Node000028"><a xlink:title=" ">
<path fill="none" stroke="#63b8ff" d="M524.15,-291.01C523.13,-290.06 522.16,-289.06 521.25,-288 459.92,-216.43 557.33,-139.73 485.25,-79 414.13,-19.08 292.29,-96.24 251.23,-125.56"/>
<polygon fill="#63b8ff" stroke="#63b8ff" points="521.69,-294.27 531.87,-297.22 525.76,-288.57 521.69,-294.27"/>
</a>
</g>
</g>
<!-- Node33 -->
<g id="Node000033" class="node">
<title>Node33</title>
<g id="a_Node000033"><a xlink:href="class_keysight_m9807_a.html#a0f54d9bad1ad1923606ff767f70de3e1" target="_top" xlink:title="Полный сброс настроек">
<polygon fill="white" stroke="#666666" points="465.38,-32 357.12,-32 357.12,0 465.38,0 465.38,-32"/>
<text text-anchor="start" x="365.12" y="-18.5" font-family="Helvetica,sans-Serif" font-size="10.00">KeysightM9807A::full</text>
<text text-anchor="middle" x="411.25" y="-6.5" font-family="Helvetica,sans-Serif" font-size="10.00">_preset</text>
</a>
</g>
</g>
<!-- Node32&#45;&gt;Node33 -->
<g id="edge33_Node000032_Node000033" class="edge">
<title>Node32&#45;&gt;Node33</title>
<g id="a_edge33_Node000032_Node000033"><a xlink:title=" ">
<path fill="none" stroke="#63b8ff" d="M524.12,-291.04C523.11,-290.08 522.15,-289.07 521.25,-288 451.45,-204.62 552.29,-131.62 485.25,-46 480.1,-39.42 473.26,-34.27 465.82,-30.25"/>
<polygon fill="#63b8ff" stroke="#63b8ff" points="521.62,-294.27 531.78,-297.3 525.73,-288.6 521.62,-294.27"/>
</a>
</g>
</g>
<!-- Node34 -->
<g id="Node000034" class="node">
<title>Node34</title>
<g id="a_Node000034"><a xlink:href="class_keysight_gen.html#a22afec59890f93fe8ce3800a6ec9a453" target="_top" xlink:title="Получает текущее значение частоты сигнала">
<polygon fill="white" stroke="#666666" points="485.25,-450 337.25,-450 337.25,-430 485.25,-430 485.25,-450"/>
<text text-anchor="middle" x="411.25" y="-436.5" font-family="Helvetica,sans-Serif" font-size="10.00">KeysightGen::get_current_freq</text>
</a>
</g>
</g>
<!-- Node32&#45;&gt;Node34 -->
<g id="edge34_Node000032_Node000034" class="edge">
<title>Node32&#45;&gt;Node34</title>
<g id="a_edge34_Node000032_Node000034"><a xlink:title=" ">
<path fill="none" stroke="#63b8ff" d="M567.07,-326.81C552.18,-352.5 522.73,-396.87 485.25,-421 479.85,-424.47 473.85,-427.31 467.67,-429.63"/>
<polygon fill="#63b8ff" stroke="#63b8ff" points="570.53,-328.79 572.38,-318.36 564.43,-325.36 570.53,-328.79"/>
</a>
</g>
</g>
<!-- Node35 -->
<g id="Node000035" class="node">
<title>Node35</title>
<g id="a_Node000035"><a xlink:href="class_keysight_m9807_a.html#a9a23e8c51407edd1aba3cf734d9ea71b" target="_top" xlink:title="Сбор данных, полученных в результате измерения, для одного порта">
<polygon fill="white" stroke="#666666" points="478.12,-412 344.38,-412 344.38,-392 478.12,-392 478.12,-412"/>
<text text-anchor="middle" x="411.25" y="-398.5" font-family="Helvetica,sans-Serif" font-size="10.00">KeysightM9807A::get_data</text>
</a>
</g>
</g>
<!-- Node32&#45;&gt;Node35 -->
<g id="edge35_Node000032_Node000035" class="edge">
<title>Node32&#45;&gt;Node35</title>
<g id="a_edge35_Node000032_Node000035"><a xlink:title=" ">
<path fill="none" stroke="#63b8ff" d="M560.65,-325.01C543.24,-342.32 514.69,-368 485.25,-383 478.6,-386.39 471.29,-389.21 463.95,-391.55"/>
<polygon fill="#63b8ff" stroke="#63b8ff" points="562.75,-327.85 567.26,-318.27 557.75,-322.95 562.75,-327.85"/>
</a>
</g>
</g>
<!-- Node36 -->
<g id="Node000036" class="node">
<title>Node36</title>
<g id="a_Node000036"><a xlink:href="class_keysight_gen.html#ab60f56567bec59f39cceb9c0b7d7d892" target="_top" xlink:title="Сброс настроек">
<polygon fill="white" stroke="#666666" points="463.88,-374 358.62,-374 358.62,-354 463.88,-354 463.88,-374"/>
<text text-anchor="middle" x="411.25" y="-360.5" font-family="Helvetica,sans-Serif" font-size="10.00">KeysightGen::preset</text>
</a>
</g>
</g>
<!-- Node32&#45;&gt;Node36 -->
<g id="edge37_Node000032_Node000036" class="edge">
<title>Node32&#45;&gt;Node36</title>
<g id="a_edge37_Node000032_Node000036"><a xlink:title=" ">
<path fill="none" stroke="#63b8ff" d="M545.14,-321.66C527.61,-329.22 505.49,-338.24 485.25,-345 475.93,-348.11 465.81,-351.03 456.15,-353.6"/>
<polygon fill="#63b8ff" stroke="#63b8ff" points="546.12,-324.61 553.89,-317.41 543.32,-318.2 546.12,-324.61"/>
</a>
</g>
</g>
<!-- Node37 -->
<g id="Node000037" class="node">
<title>Node37</title>
<g id="a_Node000037"><a xlink:href="class_keysight_m9807_a.html#a6048408088bc8fc73c986dd812c86328" target="_top" xlink:title="Сброс настроек">
<polygon fill="white" stroke="#666666" points="472.88,-336 349.62,-336 349.62,-316 472.88,-316 472.88,-336"/>
<text text-anchor="middle" x="411.25" y="-322.5" font-family="Helvetica,sans-Serif" font-size="10.00">KeysightM9807A::preset</text>
</a>
</g>
</g>
<!-- Node32&#45;&gt;Node37 -->
<g id="edge38_Node000032_Node000037" class="edge">
<title>Node32&#45;&gt;Node37</title>
<g id="a_edge38_Node000032_Node000037"><a xlink:title=" ">
<path fill="none" stroke="#63b8ff" d="M522.32,-313.36C506.56,-315.17 489.3,-317.15 473.23,-319"/>
<polygon fill="#63b8ff" stroke="#63b8ff" points="522.43,-316.76 531.96,-312.14 521.63,-309.81 522.43,-316.76"/>
</a>
</g>
</g>
<!-- Node38 -->
<g id="Node000038" class="node">
<title>Node38</title>
<g id="a_Node000038"><a xlink:href="class_keysight_gen.html#acb44da0109ba9b90e2e0dd6dcdb552a1" target="_top" xlink:title="Отключает порт">
<polygon fill="white" stroke="#666666" points="460.5,-146 362,-146 362,-126 460.5,-126 460.5,-146"/>
<text text-anchor="middle" x="411.25" y="-132.5" font-family="Helvetica,sans-Serif" font-size="10.00">KeysightGen::rf_off</text>
</a>
</g>
</g>
<!-- Node32&#45;&gt;Node38 -->
<g id="edge39_Node000032_Node000038" class="edge">
<title>Node32&#45;&gt;Node38</title>
<g id="a_edge39_Node000032_Node000038"><a xlink:title=" ">
<path fill="none" stroke="#63b8ff" d="M523.87,-290.53C522.96,-289.73 522.08,-288.89 521.25,-288 479.27,-243.42 528.76,-198.09 485.25,-155 478.55,-148.37 469.84,-143.96 460.79,-141.05"/>
<polygon fill="#63b8ff" stroke="#63b8ff" points="521.71,-293.98 531.93,-296.77 525.68,-288.21 521.71,-293.98"/>
</a>
</g>
</g>
<!-- Node39 -->
<g id="Node000039" class="node">
<title>Node39</title>
<g id="a_Node000039"><a xlink:href="class_keysight_gen.html#a27f8ef0b4486e9402d4a2491cef702e7" target="_top" xlink:title="Включает порт">
<polygon fill="white" stroke="#666666" points="460.88,-298 361.62,-298 361.62,-278 460.88,-278 460.88,-298"/>
<text text-anchor="middle" x="411.25" y="-284.5" font-family="Helvetica,sans-Serif" font-size="10.00">KeysightGen::rf_on</text>
</a>
</g>
</g>
<!-- Node32&#45;&gt;Node39 -->
<g id="edge44_Node000032_Node000039" class="edge">
<title>Node32&#45;&gt;Node39</title>
<g id="a_edge44_Node000032_Node000039"><a xlink:title=" ">
<path fill="none" stroke="#63b8ff" d="M522.25,-300.63C502.46,-298.36 480.33,-295.82 461.14,-293.61"/>
<polygon fill="#63b8ff" stroke="#63b8ff" points="521.63,-304.19 531.96,-301.86 522.43,-297.24 521.63,-304.19"/>
</a>
</g>
</g>
<!-- Node40 -->
<g id="Node000040" class="node">
<title>Node40</title>
<g id="a_Node000040"><a xlink:href="class_visa_device.html#ae09de9a813b559eedad4587afbc64741" target="_top" xlink:title="Отправка данных на прибор и чтение ответа от прибора.">
<polygon fill="white" stroke="#666666" points="456.75,-260 365.75,-260 365.75,-240 456.75,-240 456.75,-260"/>
<text text-anchor="middle" x="411.25" y="-246.5" font-family="Helvetica,sans-Serif" font-size="10.00">VisaDevice::send</text>
</a>
</g>
</g>
<!-- Node32&#45;&gt;Node40 -->
<g id="edge45_Node000032_Node000040" class="edge">
<title>Node32&#45;&gt;Node40</title>
<g id="a_edge45_Node000032_Node000040"><a xlink:title=" ">
<path fill="none" stroke="#63b8ff" d="M533.39,-292.85C529.25,-291.3 525.15,-289.67 521.25,-288 504.62,-280.87 502.12,-275.54 485.25,-269 476.34,-265.54 466.57,-262.51 457.16,-259.94"/>
<polygon fill="#63b8ff" stroke="#63b8ff" points="532.06,-296.45 542.66,-296.52 534.42,-289.86 532.06,-296.45"/>
</a>
</g>
</g>
<!-- Node41 -->
<g id="Node000041" class="node">
<title>Node41</title>
<g id="a_Node000041"><a xlink:href="class_keysight_gen.html#a6f4ac8651f6a5409ad317480bdce022f" target="_top" xlink:title="Установка требуемой мощности сигнала">
<polygon fill="white" stroke="#666666" points="472.5,-222 350,-222 350,-202 472.5,-202 472.5,-222"/>
<text text-anchor="middle" x="411.25" y="-208.5" font-family="Helvetica,sans-Serif" font-size="10.00">KeysightGen::set_power</text>
</a>
</g>
</g>
<!-- Node32&#45;&gt;Node41 -->
<g id="edge48_Node000032_Node000041" class="edge">
<title>Node32&#45;&gt;Node41</title>
<g id="a_edge48_Node000032_Node000041"><a xlink:title=" ">
<path fill="none" stroke="#63b8ff" d="M526.45,-291.63C524.64,-290.5 522.9,-289.29 521.25,-288 497.69,-269.49 509.44,-248.68 485.25,-231 480.49,-227.52 475.15,-224.68 469.58,-222.36"/>
<polygon fill="#63b8ff" stroke="#63b8ff" points="524.46,-295.07 534.94,-296.63 527.72,-288.87 524.46,-295.07"/>
</a>
</g>
</g>
<!-- Node42 -->
<g id="Node000042" class="node">
<title>Node42</title>
<g id="a_Node000042"><a xlink:href="class_tesart_rbd.html#a149160a31d947bef5d67b8bec64c52b2" target="_top" xlink:title="Запрос статуса оси ОПУ по номеру оси по указателю на нужную ось">
<polygon fill="white" stroke="#666666" points="457.88,-184 364.62,-184 364.62,-164 457.88,-164 457.88,-184"/>
<text text-anchor="middle" x="411.25" y="-170.5" font-family="Helvetica,sans-Serif" font-size="10.00">TesartRbd::status</text>
</a>
</g>
</g>
<!-- Node32&#45;&gt;Node42 -->
<g id="edge49_Node000032_Node000042" class="edge">
<title>Node32&#45;&gt;Node42</title>
<g id="a_edge49_Node000032_Node000042"><a xlink:title=" ">
<path fill="none" stroke="#63b8ff" d="M524.41,-290.76C523.31,-289.89 522.26,-288.97 521.25,-288 488.72,-256.68 518.85,-223.16 485.25,-193 477.65,-186.18 467.9,-181.75 458.02,-178.89"/>
<polygon fill="#63b8ff" stroke="#63b8ff" points="522.24,-294.16 532.55,-296.58 525.99,-288.25 522.24,-294.16"/>
</a>
</g>
</g>
<!-- Node43 -->
<g id="Node000043" class="node">
<title>Node43</title>
<g id="a_Node000043"><a xlink:href="class_tesart_rbd.html#a592c41abaa2f8d44ffecb17434644d51" target="_top" xlink:title="Конструктор, в который передаётся адрес (или список одресов, разделённых символом &#39;;&#39;)">
<polygon fill="white" stroke="#666666" points="466.5,-108 356,-108 356,-88 466.5,-88 466.5,-108"/>
<text text-anchor="middle" x="411.25" y="-94.5" font-family="Helvetica,sans-Serif" font-size="10.00">TesartRbd::TesartRbd</text>
</a>
</g>
</g>
<!-- Node32&#45;&gt;Node43 -->
<g id="edge50_Node000032_Node000043" class="edge">
<title>Node32&#45;&gt;Node43</title>
<g id="a_edge50_Node000032_Node000043"><a xlink:title=" ">
<path fill="none" stroke="#63b8ff" d="M524.2,-290.96C523.17,-290.03 522.18,-289.04 521.25,-288 469.63,-229.97 538.86,-173.2 485.25,-117 480.1,-111.6 473.62,-107.66 466.66,-104.8"/>
<polygon fill="#63b8ff" stroke="#63b8ff" points="521.8,-294.25 532,-297.1 525.81,-288.51 521.8,-294.25"/>
</a>
</g>
</g>
<!-- Node38&#45;&gt;Node26 -->
<g id="edge40_Node000038_Node000026" class="edge">
<title>Node38&#45;&gt;Node26</title>
<g id="a_edge40_Node000038_Node000026"><a xlink:title=" ">
<path fill="none" stroke="#63b8ff" d="M351.6,-146.53C346.47,-148.82 341.59,-151.61 337.25,-155 310.92,-175.57 319.04,-192.72 301.25,-221 284.74,-247.26 263.3,-276.16 249.91,-293.69"/>
<polygon fill="#63b8ff" stroke="#63b8ff" points="352.59,-149.52 360.7,-142.7 350.11,-142.97 352.59,-149.52"/>
</a>
</g>
</g>
<!-- Node38&#45;&gt;Node27 -->
<g id="edge41_Node000038_Node000027" class="edge">
<title>Node38&#45;&gt;Node27</title>
<g id="a_edge41_Node000038_Node000027"><a xlink:title=" ">
<path fill="none" stroke="#63b8ff" d="M355.82,-149.3C349.52,-151.1 343.22,-153.01 337.25,-155 315.89,-162.12 292.58,-171.58 273.85,-179.61"/>
<polygon fill="#63b8ff" stroke="#63b8ff" points="356.64,-152.43 365.35,-146.4 354.78,-145.68 356.64,-152.43"/>
</a>
</g>
</g>
<!-- Node38&#45;&gt;Node28 -->
<g id="edge42_Node000038_Node000028" class="edge">
<title>Node38&#45;&gt;Node28</title>
<g id="a_edge42_Node000038_Node000028"><a xlink:title=" ">
<path fill="none" stroke="#63b8ff" d="M350.75,-136C332.93,-136 313.41,-136 295.66,-136"/>
<polygon fill="#63b8ff" stroke="#63b8ff" points="350.6,-139.5 360.6,-136 350.6,-132.5 350.6,-139.5"/>
</a>
</g>
</g>
<!-- Node38&#45;&gt;Node29 -->
<g id="edge43_Node000038_Node000029" class="edge">
<title>Node38&#45;&gt;Node29</title>
<g id="a_edge43_Node000038_Node000029"><a xlink:title=" ">
<path fill="none" stroke="#63b8ff" d="M351.69,-144.6C346.31,-147.26 341.35,-150.66 337.25,-155 281.24,-214.32 343.73,-265.35 301.25,-335 290.45,-352.71 271.15,-366.81 256.56,-375.65"/>
<polygon fill="#63b8ff" stroke="#63b8ff" points="352.75,-147.55 360.73,-140.59 350.15,-141.05 352.75,-147.55"/>
</a>
</g>
</g>
</g>
</svg>

<g id="navigator" transform="translate(0 0)" fill="#404254">
  <rect fill="#f2f5e9" fill-opacity="0.5" stroke="#606060" stroke-width=".5" x="0" y="0" width="60" height="60"/>
  <use id="zoomplus" xlink:href="#zoomPlus" x="17" y="9" onmousedown="handleZoom(evt,'in')"/>
  <use id="zoomminus" xlink:href="#zoomMin" x="42" y="9" onmousedown="handleZoom(evt,'out')"/>
  <use id="reset" xlink:href="#resetDef" x="30" y="36" onmousedown="handleReset()"/>
   <use id="arrowup" xlink:href="#arrowUp" x="0" y="0" onmousedown="handlePan(0,-1)"/>
  <use id="arrowright" xlink:href="#arrowRight" x="0" y="0" onmousedown="handlePan(1,0)"/>
  <use id="arrowdown" xlink:href="#arrowDown" x="0" y="0" onmousedown="handlePan(0,1)"/>
  <use id="arrowleft" xlink:href="#arrowLeft" x="0" y="0" onmousedown="handlePan(-1,0)"/>
</g>
<svg viewBox="0 0 15 15" width="100%" height="30px" preserveAspectRatio="xMaxYMin meet">
 <g id="arrow_out" transform="scale(0.3 0.3)">
  <a xlink:href="class_visa_device_aa807192fd9a8c3e6efc458f78de5e73e_icgraph_org.svg" target="_base">
   <rect id="button" ry="5" rx="5" y="6" x="6" height="38" width="38"
        fill="#f2f5e9" fill-opacity="0.5" stroke="#606060" stroke-width="1.0"/>
   <path id="arrow"
     d="M 11.500037,31.436501 C 11.940474,20.09759 22.043105,11.32322 32.158766,21.979434 L 37.068811,17.246167 C 37.068811,17.246167 37.088388,32 37.088388,32 L 22.160133,31.978069 C 22.160133,31.978069 26.997745,27.140456 26.997745,27.140456 C 18.528582,18.264221 13.291696,25.230495 11.500037,31.436501 z"
     style="fill:#404040;"/>
  </a>
 </g>
</svg>

<style type='text/css'>
<![CDATA[
[data-mouse-over-selected='false'] { opacity: 0.7; }
[data-mouse-over-selected='true']  { opacity: 1.0; }
]]>
</style>
<script type="application/ecmascript"><![CDATA[
document.addEventListener('DOMContentLoaded', (event) => {
  highlightEdges();
  highlightAdjacentNodes();
});
]]></script>
</svg>
