<?xml version="1.0" encoding="UTF-8" standalone="no"?>
<!DOCTYPE svg PUBLIC "-//W3C//DTD SVG 1.1//EN"
 "http://www.w3.org/Graphics/SVG/1.1/DTD/svg11.dtd">
<!-- Generated by graphviz version 8.0.5 (20230430.1635)
 -->
<!-- Title: TaskManager::proceed_task_list Pages: 1 -->
<svg width="1123pt" height="760pt"
 viewBox="0.00 0.00 1122.75 760.00" xmlns="http://www.w3.org/2000/svg" xmlns:xlink="http://www.w3.org/1999/xlink">
<g id="graph0" class="graph" transform="scale(1 1) rotate(0) translate(4 756)">
<title>TaskManager::proceed_task_list</title>
<!-- Node1 -->
<g id="Node000001" class="node">
<title>Node1</title>
<g id="a_Node000001"><a xlink:title="Метод, обрабатывающий список заданий.">
<polygon fill="#999999" stroke="#666666" points="115,-487 0,-487 0,-455 115,-455 115,-487"/>
<text text-anchor="start" x="8" y="-473.5" font-family="Helvetica,sans-Serif" font-size="10.00">TaskManager::proceed</text>
<text text-anchor="middle" x="57.5" y="-461.5" font-family="Helvetica,sans-Serif" font-size="10.00">_task_list</text>
</a>
</g>
</g>
<!-- Node2 -->
<g id="Node000002" class="node">
<title>Node2</title>
<g id="a_Node000002"><a xlink:href="namespacearray__utils.html#a1e33a0a2262dcc16869a564112ff43f3" target="_top" xlink:title="Функция для сравнения величины вложенности двух заданий">
<polygon fill="white" stroke="#666666" points="260.75,-752 156.25,-752 156.25,-720 260.75,-720 260.75,-752"/>
<text text-anchor="start" x="164.25" y="-738.5" font-family="Helvetica,sans-Serif" font-size="10.00">array_utils::compare</text>
<text text-anchor="middle" x="208.5" y="-726.5" font-family="Helvetica,sans-Serif" font-size="10.00">_nested</text>
</a>
</g>
</g>
<!-- Node1&#45;&gt;Node2 -->
<g id="edge1_Node000001_Node000002" class="edge">
<title>Node1&#45;&gt;Node2</title>
<g id="a_edge1_Node000001_Node000002"><a xlink:title=" ">
<path fill="none" stroke="#63b8ff" d="M60.92,-487.28C67.83,-528.59 91.14,-638.95 151,-706 153.37,-708.65 156.02,-711.11 158.86,-713.38"/>
<polygon fill="#63b8ff" stroke="#63b8ff" points="156.61,-716.78 166.82,-719.63 160.62,-711.04 156.61,-716.78"/>
</a>
</g>
</g>
<!-- Node3 -->
<g id="Node000003" class="node">
<title>Node3</title>
<g id="a_Node000003"><a xlink:href="class_logger.html#af7709105c2708359b7b082218f4cc3e1" target="_top" xlink:title="Метод, осуществляющий логирование">
<polygon fill="white" stroke="#666666" points="924.38,-443 860.38,-443 860.38,-423 924.38,-423 924.38,-443"/>
<text text-anchor="middle" x="892.38" y="-429.5" font-family="Helvetica,sans-Serif" font-size="10.00">Logger::log</text>
</a>
</g>
</g>
<!-- Node1&#45;&gt;Node3 -->
<g id="edge2_Node000001_Node000003" class="edge">
<title>Node1&#45;&gt;Node3</title>
<g id="a_edge2_Node000001_Node000003"><a xlink:title=" ">
<path fill="none" stroke="#63b8ff" d="M70.03,-487.25C107.74,-538.29 233.22,-692 376.88,-692 376.88,-692 376.88,-692 566.62,-692 668.35,-692 711.95,-717.14 792.5,-655 801.15,-648.32 860.6,-506.95 882.93,-453.35"/>
<polygon fill="#63b8ff" stroke="#63b8ff" points="886.49,-454.91 887.1,-444.33 880.02,-452.22 886.49,-454.91"/>
</a>
</g>
</g>
<!-- Node8 -->
<g id="Node000008" class="node">
<title>Node8</title>
<g id="a_Node000008"><a xlink:href="class_task_manager.html#ad9d635ee64d44cc34b619f2e3018e9d1" target="_top" xlink:title="Метод, позволяющий произвести обработку списка заданий, с учётом вложенности">
<polygon fill="white" stroke="#666666" points="266,-443 151,-443 151,-411 266,-411 266,-443"/>
<text text-anchor="start" x="159" y="-429.5" font-family="Helvetica,sans-Serif" font-size="10.00">TaskManager::proceed</text>
<text text-anchor="middle" x="208.5" y="-417.5" font-family="Helvetica,sans-Serif" font-size="10.00">_nested_task_list</text>
</a>
</g>
</g>
<!-- Node1&#45;&gt;Node8 -->
<g id="edge7_Node000001_Node000008" class="edge">
<title>Node1&#45;&gt;Node8</title>
<g id="a_edge7_Node000001_Node000008"><a xlink:title=" ">
<path fill="none" stroke="#63b8ff" d="M113.98,-454.62C123,-451.95 132.42,-449.17 141.65,-446.45"/>
<polygon fill="#63b8ff" stroke="#63b8ff" points="142.37,-449.59 150.97,-443.4 140.39,-442.87 142.37,-449.59"/>
</a>
</g>
</g>
<!-- Node20 -->
<g id="Node000020" class="node">
<title>Node20</title>
<g id="a_Node000020"><a xlink:href="class_task_manager.html#abf6a739a56cdc1bdf2cd71666c6f31be" target="_top" xlink:title="Метод, обрабатывающий пришедшее задание.">
<polygon fill="white" stroke="#666666" points="447.38,-481 308.38,-481 308.38,-461 447.38,-461 447.38,-481"/>
<text text-anchor="middle" x="377.88" y="-467.5" font-family="Helvetica,sans-Serif" font-size="10.00">TaskManager::proceed_task</text>
</a>
</g>
</g>
<!-- Node1&#45;&gt;Node20 -->
<g id="edge54_Node000001_Node000020" class="edge">
<title>Node1&#45;&gt;Node20</title>
<g id="a_edge54_Node000001_Node000020"><a xlink:title=" ">
<path fill="none" stroke="#63b8ff" d="M115.42,-471C166.08,-471 240.71,-471 297.28,-471"/>
<polygon fill="#63b8ff" stroke="#63b8ff" points="296.98,-474.5 306.98,-471 296.98,-467.5 296.98,-474.5"/>
</a>
</g>
</g>
<!-- Node39 -->
<g id="Node000039" class="node">
<title>Node39</title>
<g id="a_Node000039"><a xlink:href="class_device_set.html#adee7ff2a8a80e6ddf44274d6c2828a2c" target="_top" xlink:title="Сбрасывает флаг stop_request (присваивает значение false)">
<polygon fill="white" stroke="#666666" points="433.5,-267 322.25,-267 322.25,-235 433.5,-235 433.5,-267"/>
<text text-anchor="start" x="330.25" y="-253.5" font-family="Helvetica,sans-Serif" font-size="10.00">DeviceSet::reset_stop</text>
<text text-anchor="middle" x="377.88" y="-241.5" font-family="Helvetica,sans-Serif" font-size="10.00">_request</text>
</a>
</g>
</g>
<!-- Node1&#45;&gt;Node39 -->
<g id="edge55_Node000001_Node000039" class="edge">
<title>Node1&#45;&gt;Node39</title>
<g id="a_edge55_Node000001_Node000039"><a xlink:title=" ">
<path fill="none" stroke="#63b8ff" d="M74.7,-454.53C111.76,-417.69 206.88,-327.81 302,-276 305.23,-274.24 308.6,-272.58 312.05,-271.01"/>
<polygon fill="#63b8ff" stroke="#63b8ff" points="313.09,-273.95 320.94,-266.83 310.36,-267.5 313.09,-273.95"/>
</a>
</g>
</g>
<!-- Node4 -->
<g id="Node000004" class="node">
<title>Node4</title>
<g id="a_Node000004"><a xlink:href="logger_8hpp.html#a49284b7befa8e31f81e01ee8f3735dd0" target="_top" xlink:title="Функция, которая снимает значение текущего времени и конвертирует его в строку с заданным шаблоном.">
<polygon fill="white" stroke="#666666" points="1097.88,-500 1009.12,-500 1009.12,-480 1097.88,-480 1097.88,-500"/>
<text text-anchor="middle" x="1053.5" y="-486.5" font-family="Helvetica,sans-Serif" font-size="10.00">get_current_time</text>
</a>
</g>
</g>
<!-- Node3&#45;&gt;Node4 -->
<g id="edge3_Node000003_Node000004" class="edge">
<title>Node3&#45;&gt;Node4</title>
<g id="a_edge3_Node000003_Node000004"><a xlink:title=" ">
<path fill="none" stroke="#63b8ff" d="M919.24,-443.44C939.09,-451.33 967.25,-462.26 992.25,-471 997.3,-472.76 1002.61,-474.55 1007.9,-476.27"/>
<polygon fill="#63b8ff" stroke="#63b8ff" points="1006.38,-479.78 1016.97,-479.51 1008.52,-473.12 1006.38,-479.78"/>
</a>
</g>
</g>
<!-- Node5 -->
<g id="Node000005" class="node">
<title>Node5</title>
<g id="a_Node000005"><a xlink:href="class_logger.html#a6edb7b263f080d417b82a537ed50fee4" target="_top" xlink:title="Возвращает тег в зависимости от уровня логирования и от назначения тега.">
<polygon fill="white" stroke="#666666" points="1095.25,-462 1011.75,-462 1011.75,-442 1095.25,-442 1095.25,-462"/>
<text text-anchor="middle" x="1053.5" y="-448.5" font-family="Helvetica,sans-Serif" font-size="10.00">Logger::get_tag</text>
</a>
</g>
</g>
<!-- Node3&#45;&gt;Node5 -->
<g id="edge4_Node000003_Node000005" class="edge">
<title>Node3&#45;&gt;Node5</title>
<g id="a_edge4_Node000003_Node000005"><a xlink:title=" ">
<path fill="none" stroke="#63b8ff" d="M924.81,-436.75C946.43,-439.34 975.64,-442.82 1000.67,-445.81"/>
<polygon fill="#63b8ff" stroke="#63b8ff" points="1000.12,-449.39 1010.47,-447.1 1000.95,-442.44 1000.12,-449.39"/>
</a>
</g>
</g>
<!-- Node6 -->
<g id="Node000006" class="node">
<title>Node6</title>
<g id="a_Node000006"><a xlink:href="class_logger.html#a4825613142ebb093bf8fa26f21f7f3fc" target="_top" xlink:title="Метод, который выводит сообщение в консоль.">
<polygon fill="white" stroke="#666666" points="1114.75,-424 992.25,-424 992.25,-404 1114.75,-404 1114.75,-424"/>
<text text-anchor="middle" x="1053.5" y="-410.5" font-family="Helvetica,sans-Serif" font-size="10.00">Logger::print_to_console</text>
</a>
</g>
</g>
<!-- Node3&#45;&gt;Node6 -->
<g id="edge5_Node000003_Node000006" class="edge">
<title>Node3&#45;&gt;Node6</title>
<g id="a_edge5_Node000003_Node000006"><a xlink:title=" ">
<path fill="none" stroke="#63b8ff" d="M924.81,-429.25C940.94,-427.32 961.29,-424.89 980.97,-422.54"/>
<polygon fill="#63b8ff" stroke="#63b8ff" points="981.3,-425.91 990.81,-421.25 980.47,-418.96 981.3,-425.91"/>
</a>
</g>
</g>
<!-- Node7 -->
<g id="Node000007" class="node">
<title>Node7</title>
<g id="a_Node000007"><a xlink:href="class_logger.html#a999bb33f7cf079cb98f32fae6016a2f3" target="_top" xlink:title="Метод, который записывает сообщение в файл.">
<polygon fill="white" stroke="#666666" points="1103.88,-386 1003.12,-386 1003.12,-366 1103.88,-366 1103.88,-386"/>
<text text-anchor="middle" x="1053.5" y="-372.5" font-family="Helvetica,sans-Serif" font-size="10.00">Logger::print_to_file</text>
</a>
</g>
</g>
<!-- Node3&#45;&gt;Node7 -->
<g id="edge6_Node000003_Node000007" class="edge">
<title>Node3&#45;&gt;Node7</title>
<g id="a_edge6_Node000003_Node000007"><a xlink:title=" ">
<path fill="none" stroke="#63b8ff" d="M919.24,-422.56C939.09,-414.67 967.25,-403.74 992.25,-395 997.3,-393.24 1002.61,-391.45 1007.9,-389.73"/>
<polygon fill="#63b8ff" stroke="#63b8ff" points="1008.52,-392.88 1016.97,-386.49 1006.38,-386.22 1008.52,-392.88"/>
</a>
</g>
</g>
<!-- Node8&#45;&gt;Node3 -->
<g id="edge9_Node000008_Node000003" class="edge">
<title>Node8&#45;&gt;Node3</title>
<g id="a_edge9_Node000008_Node000003"><a xlink:title=" ">
<path fill="none" stroke="#63b8ff" d="M217.02,-443.37C230.34,-470.61 260.62,-525.28 302,-556 438.93,-657.66 507.09,-628.2 677.5,-635 728.57,-637.04 749.14,-662.05 792.5,-635 809.36,-624.48 861.96,-502.88 882.77,-453.58"/>
<polygon fill="#63b8ff" stroke="#63b8ff" points="886.38,-455.03 887.03,-444.46 879.93,-452.32 886.38,-455.03"/>
</a>
</g>
</g>
<!-- Node9 -->
<g id="Node000009" class="node">
<title>Node9</title>
<g id="a_Node000009"><a xlink:href="class_device_set.html#a548166665d062dc3a5a468ca184d8e08" target="_top" xlink:title="Метод позволяет проверить, используется ли внешний генератор">
<polygon fill="white" stroke="#666666" points="428.62,-393 327.12,-393 327.12,-361 428.62,-361 428.62,-393"/>
<text text-anchor="start" x="335.12" y="-379.5" font-family="Helvetica,sans-Serif" font-size="10.00">DeviceSet::is_using</text>
<text text-anchor="middle" x="377.88" y="-367.5" font-family="Helvetica,sans-Serif" font-size="10.00">_ext_gen</text>
</a>
</g>
</g>
<!-- Node8&#45;&gt;Node9 -->
<g id="edge8_Node000008_Node000009" class="edge">
<title>Node8&#45;&gt;Node9</title>
<g id="a_edge8_Node000008_Node000009"><a xlink:title=" ">
<path fill="none" stroke="#63b8ff" d="M264.3,-410.63C280.96,-405.65 299.36,-400.16 316.37,-395.07"/>
<polygon fill="#63b8ff" stroke="#63b8ff" points="317.18,-398.19 325.76,-391.97 315.18,-391.48 317.18,-398.19"/>
</a>
</g>
</g>
<!-- Node10 -->
<g id="Node000010" class="node">
<title>Node10</title>
<g id="a_Node000010"><a xlink:href="class_device_set.html#a42484914aabe91a0d030557db440fab0" target="_top" xlink:title="Устанавливает угловую точку, соответствующую началу диапазона.">
<polygon fill="white" stroke="#666666" points="785.75,-626 684.25,-626 684.25,-594 785.75,-594 785.75,-626"/>
<text text-anchor="start" x="692.25" y="-612.5" font-family="Helvetica,sans-Serif" font-size="10.00">DeviceSet::move_to</text>
<text text-anchor="middle" x="735" y="-600.5" font-family="Helvetica,sans-Serif" font-size="10.00">_start_angle</text>
</a>
</g>
</g>
<!-- Node8&#45;&gt;Node10 -->
<g id="edge10_Node000008_Node000010" class="edge">
<title>Node8&#45;&gt;Node10</title>
<g id="a_edge10_Node000008_Node000010"><a xlink:title=" ">
<path fill="none" stroke="#63b8ff" d="M228.19,-443.24C270.92,-479.21 380.55,-564.94 489.75,-597 550.48,-614.83 623.3,-616.31 673.54,-614.42"/>
<polygon fill="#63b8ff" stroke="#63b8ff" points="673.38,-617.89 683.22,-613.96 673.08,-610.9 673.38,-617.89"/>
</a>
</g>
</g>
<!-- Node12 -->
<g id="Node000012" class="node">
<title>Node12</title>
<g id="a_Node000012"><a xlink:href="class_device_set.html#a6b558cdb43f83e3948cd1154a15841ad" target="_top" xlink:title="Устанавливает частотную точку, соответствующую началу диапазона.">
<polygon fill="white" stroke="#666666" points="428.62,-443 327.12,-443 327.12,-411 428.62,-411 428.62,-443"/>
<text text-anchor="start" x="335.12" y="-429.5" font-family="Helvetica,sans-Serif" font-size="10.00">DeviceSet::move_to</text>
<text text-anchor="middle" x="377.88" y="-417.5" font-family="Helvetica,sans-Serif" font-size="10.00">_start_freq</text>
</a>
</g>
</g>
<!-- Node8&#45;&gt;Node12 -->
<g id="edge13_Node000008_Node000012" class="edge">
<title>Node8&#45;&gt;Node12</title>
<g id="a_edge13_Node000008_Node000012"><a xlink:title=" ">
<path fill="none" stroke="#63b8ff" d="M266.17,-427C282.12,-427 299.53,-427 315.73,-427"/>
<polygon fill="#63b8ff" stroke="#63b8ff" points="315.72,-430.5 325.72,-427 315.72,-423.5 315.72,-430.5"/>
</a>
</g>
</g>
<!-- Node14 -->
<g id="Node000014" class="node">
<title>Node14</title>
<g id="a_Node000014"><a xlink:href="class_task_manager.html#a0ad340d364ac4e25a7abb94aea073cb1" target="_top" xlink:title="Метод, обрабатывающий задание на сдвиг угловой точки">
<polygon fill="white" stroke="#666666" points="453.75,-343 302,-343 302,-323 453.75,-323 453.75,-343"/>
<text text-anchor="middle" x="377.88" y="-329.5" font-family="Helvetica,sans-Serif" font-size="10.00">TaskManager::next_angle_task</text>
</a>
</g>
</g>
<!-- Node8&#45;&gt;Node14 -->
<g id="edge16_Node000008_Node000014" class="edge">
<title>Node8&#45;&gt;Node14</title>
<g id="a_edge16_Node000008_Node000014"><a xlink:title=" ">
<path fill="none" stroke="#63b8ff" d="M225.01,-410.79C242.25,-393.71 271.69,-367.2 302,-352 305.74,-350.13 309.67,-348.43 313.71,-346.89"/>
<polygon fill="#63b8ff" stroke="#63b8ff" points="314.56,-349.95 322.87,-343.38 312.28,-343.33 314.56,-349.95"/>
</a>
</g>
</g>
<!-- Node17 -->
<g id="Node000017" class="node">
<title>Node17</title>
<g id="a_Node000017"><a xlink:href="class_task_manager.html#a2fde49fc27ecd21717c7deefe4b09dd3" target="_top" xlink:title="Метод, обрабатывающий задание на сдвиг частотной точки">
<polygon fill="white" stroke="#666666" points="450,-305 305.75,-305 305.75,-285 450,-285 450,-305"/>
<text text-anchor="middle" x="377.88" y="-291.5" font-family="Helvetica,sans-Serif" font-size="10.00">TaskManager::next_freq_task</text>
</a>
</g>
</g>
<!-- Node8&#45;&gt;Node17 -->
<g id="edge19_Node000008_Node000017" class="edge">
<title>Node8&#45;&gt;Node17</title>
<g id="a_edge19_Node000008_Node000017"><a xlink:title=" ">
<path fill="none" stroke="#63b8ff" d="M218.23,-410.75C232.41,-385.95 262.86,-338.91 302,-314 304.46,-312.43 307.04,-311 309.71,-309.68"/>
<polygon fill="#63b8ff" stroke="#63b8ff" points="310.86,-312.57 318.67,-305.4 308.1,-306.13 310.86,-312.57"/>
</a>
</g>
</g>
<!-- Node8&#45;&gt;Node20 -->
<g id="edge22_Node000008_Node000020" class="edge">
<title>Node8&#45;&gt;Node20</title>
<g id="a_edge22_Node000008_Node000020"><a xlink:title=" ">
<path fill="none" stroke="#63b8ff" d="M266.21,-442.48C278.03,-445.66 290.41,-448.96 302,-452 309.32,-453.92 317.05,-455.91 324.65,-457.86"/>
<polygon fill="#63b8ff" stroke="#63b8ff" points="323.71,-461.48 334.26,-460.56 325.43,-454.7 323.71,-461.48"/>
</a>
</g>
</g>
<!-- Node8&#45;&gt;Node39 -->
<g id="edge53_Node000008_Node000039" class="edge">
<title>Node8&#45;&gt;Node39</title>
<g id="a_edge53_Node000008_Node000039"><a xlink:title=" ">
<path fill="none" stroke="#63b8ff" d="M219.13,-410.61C241.58,-372.51 295.91,-280.84 302,-276 305.13,-273.51 308.53,-271.26 312.08,-269.23"/>
<polygon fill="#63b8ff" stroke="#63b8ff" points="313.43,-271.97 320.79,-264.36 310.29,-265.71 313.43,-271.97"/>
</a>
</g>
</g>
<!-- Node10&#45;&gt;Node3 -->
<g id="edge11_Node000010_Node000003" class="edge">
<title>Node10&#45;&gt;Node3</title>
<g id="a_edge11_Node000010_Node000003"><a xlink:title=" ">
<path fill="none" stroke="#63b8ff" d="M773.29,-593.57C780.08,-589.67 786.81,-585.13 792.5,-580 834.4,-542.24 867.01,-483.15 882.13,-452.66"/>
<polygon fill="#63b8ff" stroke="#63b8ff" points="885.53,-454.68 886.74,-444.15 879.23,-451.63 885.53,-454.68"/>
</a>
</g>
</g>
<!-- Node11 -->
<g id="Node000011" class="node">
<title>Node11</title>
<g id="a_Node000011"><a xlink:href="class_rbd_device.html#a54fd10b47f6c13d1ff985792799763f0" target="_top" xlink:title="Устанавливает угловую точку, соответствующую началу диапазона.">
<polygon fill="white" stroke="#666666" points="944.25,-626 840.5,-626 840.5,-594 944.25,-594 944.25,-626"/>
<text text-anchor="start" x="848.5" y="-612.5" font-family="Helvetica,sans-Serif" font-size="10.00">RbdDevice::move_to</text>
<text text-anchor="middle" x="892.38" y="-600.5" font-family="Helvetica,sans-Serif" font-size="10.00">_start_angle</text>
</a>
</g>
</g>
<!-- Node10&#45;&gt;Node11 -->
<g id="edge12_Node000010_Node000011" class="edge">
<title>Node10&#45;&gt;Node11</title>
<g id="a_edge12_Node000010_Node000011"><a xlink:title=" ">
<path fill="none" stroke="#63b8ff" d="M786.02,-610C799.8,-610 814.92,-610 829.3,-610"/>
<polygon fill="#63b8ff" stroke="#63b8ff" points="829.12,-613.5 839.12,-610 829.12,-606.5 829.12,-613.5"/>
</a>
</g>
</g>
<!-- Node12&#45;&gt;Node3 -->
<g id="edge14_Node000012_Node000003" class="edge">
<title>Node12&#45;&gt;Node3</title>
<g id="a_edge14_Node000012_Node000003"><a xlink:title=" ">
<path fill="none" stroke="#63b8ff" d="M428.84,-442.42C437.24,-445.37 445.81,-448.61 453.75,-452 470.39,-459.11 472.19,-466.65 489.75,-471 618.37,-502.86 776.24,-466.87 849.88,-445.92"/>
<polygon fill="#63b8ff" stroke="#63b8ff" points="850.49,-449.1 859.12,-442.95 848.54,-442.38 850.49,-449.1"/>
</a>
</g>
</g>
<!-- Node13 -->
<g id="Node000013" class="node">
<title>Node13</title>
<g id="a_Node000013"><a xlink:href="class_gen_device.html#ae8f3f5e85a477915c09854a73e730a3e" target="_top" xlink:title="Устанавливает частотную точку, соответствующую началу диапазона.">
<polygon fill="white" stroke="#666666" points="617.88,-146 513.38,-146 513.38,-114 617.88,-114 617.88,-146"/>
<text text-anchor="start" x="521.38" y="-132.5" font-family="Helvetica,sans-Serif" font-size="10.00">GenDevice::move_to</text>
<text text-anchor="middle" x="565.62" y="-120.5" font-family="Helvetica,sans-Serif" font-size="10.00">_start_freq</text>
</a>
</g>
</g>
<!-- Node12&#45;&gt;Node13 -->
<g id="edge15_Node000012_Node000013" class="edge">
<title>Node12&#45;&gt;Node13</title>
<g id="a_edge15_Node000012_Node000013"><a xlink:title=" ">
<path fill="none" stroke="#63b8ff" d="M429.12,-418.7C438.48,-415 447.33,-409.67 453.75,-402 524.93,-316.91 418.57,-240.09 489.75,-155 493.6,-150.4 498.32,-146.64 503.5,-143.58"/>
<polygon fill="#63b8ff" stroke="#63b8ff" points="504.82,-146.33 512.23,-138.76 501.72,-140.06 504.82,-146.33"/>
</a>
</g>
</g>
<!-- Node15 -->
<g id="Node000015" class="node">
<title>Node15</title>
<g id="a_Node000015"><a xlink:href="class_device_set.html#a79dae996c60d5844ec3bf2da84f8c164" target="_top" xlink:title="Переход к следующей угловой точке">
<polygon fill="white" stroke="#666666" points="622,-86 509.25,-86 509.25,-66 622,-66 622,-86"/>
<text text-anchor="middle" x="565.62" y="-72.5" font-family="Helvetica,sans-Serif" font-size="10.00">DeviceSet::next_angle</text>
</a>
</g>
</g>
<!-- Node14&#45;&gt;Node15 -->
<g id="edge17_Node000014_Node000015" class="edge">
<title>Node14&#45;&gt;Node15</title>
<g id="a_edge17_Node000014_Node000015"><a xlink:title=" ">
<path fill="none" stroke="#63b8ff" d="M442.81,-322.67C446.85,-320.3 450.56,-317.45 453.75,-314 517.75,-244.8 430.05,-177.94 489.75,-105 494.38,-99.35 500.25,-94.79 506.66,-91.12"/>
<polygon fill="#63b8ff" stroke="#63b8ff" points="507.92,-93.91 515.36,-86.36 504.84,-87.63 507.92,-93.91"/>
</a>
</g>
</g>
<!-- Node16 -->
<g id="Node000016" class="node">
<title>Node16</title>
<g id="a_Node000016"><a xlink:href="class_rbd_device.html#a0f3dad1a0133405e7aec1e9dd2236f0f" target="_top" xlink:title="Переход к следующей угловой точке">
<polygon fill="white" stroke="#666666" points="792.5,-58 677.5,-58 677.5,-38 792.5,-38 792.5,-58"/>
<text text-anchor="middle" x="735" y="-44.5" font-family="Helvetica,sans-Serif" font-size="10.00">RbdDevice::next_angle</text>
</a>
</g>
</g>
<!-- Node15&#45;&gt;Node16 -->
<g id="edge18_Node000015_Node000016" class="edge">
<title>Node15&#45;&gt;Node16</title>
<g id="a_edge18_Node000015_Node000016"><a xlink:title=" ">
<path fill="none" stroke="#63b8ff" d="M622.36,-66.68C636.52,-64.31 651.88,-61.74 666.55,-59.28"/>
<polygon fill="#63b8ff" stroke="#63b8ff" points="666.8,-62.62 676.08,-57.52 665.64,-55.72 666.8,-62.62"/>
</a>
</g>
</g>
<!-- Node18 -->
<g id="Node000018" class="node">
<title>Node18</title>
<g id="a_Node000018"><a xlink:href="class_device_set.html#a9ae5fb89aa8b4913a362c4ad12be1bf3" target="_top" xlink:title="Переход к следующей частотной точке">
<polygon fill="white" stroke="#666666" points="618.25,-39 513,-39 513,-19 618.25,-19 618.25,-39"/>
<text text-anchor="middle" x="565.62" y="-25.5" font-family="Helvetica,sans-Serif" font-size="10.00">DeviceSet::next_freq</text>
</a>
</g>
</g>
<!-- Node17&#45;&gt;Node18 -->
<g id="edge20_Node000017_Node000018" class="edge">
<title>Node17&#45;&gt;Node18</title>
<g id="a_edge20_Node000017_Node000018"><a xlink:title=" ">
<path fill="none" stroke="#63b8ff" d="M442.84,-284.7C446.87,-282.33 450.58,-279.46 453.75,-276 520.45,-203.33 427.12,-133.21 489.75,-57 493.97,-51.86 499.24,-47.67 505,-44.24"/>
<polygon fill="#63b8ff" stroke="#63b8ff" points="506.07,-47.12 513.4,-39.47 502.9,-40.88 506.07,-47.12"/>
</a>
</g>
</g>
<!-- Node19 -->
<g id="Node000019" class="node">
<title>Node19</title>
<g id="a_Node000019"><a xlink:href="class_gen_device.html#a57adce7e8826e6ae5e6b1612e5f8f750" target="_top" xlink:title="Переход к следующей частотной точке">
<polygon fill="white" stroke="#666666" points="789.12,-20 680.88,-20 680.88,0 789.12,0 789.12,-20"/>
<text text-anchor="middle" x="735" y="-6.5" font-family="Helvetica,sans-Serif" font-size="10.00">GenDevice::next_freq</text>
</a>
</g>
</g>
<!-- Node18&#45;&gt;Node19 -->
<g id="edge21_Node000018_Node000019" class="edge">
<title>Node18&#45;&gt;Node19</title>
<g id="a_edge21_Node000018_Node000019"><a xlink:title=" ">
<path fill="none" stroke="#63b8ff" d="M618.67,-23.09C634.8,-21.26 652.78,-19.22 669.65,-17.3"/>
<polygon fill="#63b8ff" stroke="#63b8ff" points="670.01,-20.67 679.55,-16.07 669.22,-13.72 670.01,-20.67"/>
</a>
</g>
</g>
<!-- Node20&#45;&gt;Node3 -->
<g id="edge33_Node000020_Node000003" class="edge">
<title>Node20&#45;&gt;Node3</title>
<g id="a_edge33_Node000020_Node000003"><a xlink:title=" ">
<path fill="none" stroke="#63b8ff" d="M447.84,-473.83C530.38,-476 672.51,-475.83 792.5,-456 811.36,-452.88 832,-448.28 849.51,-444"/>
<polygon fill="#63b8ff" stroke="#63b8ff" points="850.11,-447.21 858.97,-441.4 848.42,-440.42 850.11,-447.21"/>
</a>
</g>
</g>
<!-- Node21 -->
<g id="Node000021" class="node">
<title>Node21</title>
<g id="a_Node000021"><a xlink:href="class_task_manager.html#a77f0d9e4c9363a126cedba6c47cece49" target="_top" xlink:title="Метод, обрабатывающий задание на подключение">
<polygon fill="white" stroke="#666666" points="635.12,-462 496.12,-462 496.12,-442 635.12,-442 635.12,-462"/>
<text text-anchor="middle" x="565.62" y="-448.5" font-family="Helvetica,sans-Serif" font-size="10.00">TaskManager::connect_task</text>
</a>
</g>
</g>
<!-- Node20&#45;&gt;Node21 -->
<g id="edge23_Node000020_Node000021" class="edge">
<title>Node20&#45;&gt;Node21</title>
<g id="a_edge23_Node000020_Node000021"><a xlink:title=" ">
<path fill="none" stroke="#63b8ff" d="M447.78,-463.95C459.92,-462.71 472.64,-461.41 485.04,-460.14"/>
<polygon fill="#63b8ff" stroke="#63b8ff" points="485.24,-463.54 494.83,-459.04 484.53,-456.57 485.24,-463.54"/>
</a>
</g>
</g>
<!-- Node26 -->
<g id="Node000026" class="node">
<title>Node26</title>
<g id="a_Node000026"><a xlink:href="class_task_manager.html#a87e7ab01c7c2920422402dda863da79c" target="_top" xlink:title="Метод, обрабатывающий задание на отключение">
<polygon fill="white" stroke="#666666" points="641.5,-424 489.75,-424 489.75,-404 641.5,-404 641.5,-424"/>
<text text-anchor="middle" x="565.62" y="-410.5" font-family="Helvetica,sans-Serif" font-size="10.00">TaskManager::disconnect_task</text>
</a>
</g>
</g>
<!-- Node20&#45;&gt;Node26 -->
<g id="edge30_Node000020_Node000026" class="edge">
<title>Node20&#45;&gt;Node26</title>
<g id="a_edge30_Node000020_Node000026"><a xlink:title=" ">
<path fill="none" stroke="#63b8ff" d="M426.94,-460.6C435.96,-458.15 445.24,-455.27 453.75,-452 470.64,-445.51 472.86,-439.49 489.75,-433 495.07,-430.95 500.69,-429.06 506.36,-427.33"/>
<polygon fill="#63b8ff" stroke="#63b8ff" points="506.92,-430.53 515.56,-424.4 504.99,-423.8 506.92,-430.53"/>
</a>
</g>
</g>
<!-- Node28 -->
<g id="Node000028" class="node">
<title>Node28</title>
<g id="a_Node000028"><a xlink:href="class_task_manager.html#aa9dd8d653be63d6f9834fb96057d50a1" target="_top" xlink:title="Метод, обрабатывающий задание на изменение углового диапазона">
<polygon fill="white" stroke="#666666" points="626.88,-588 504.38,-588 504.38,-556 626.88,-556 626.88,-588"/>
<text text-anchor="start" x="512.38" y="-574.5" font-family="Helvetica,sans-Serif" font-size="10.00">TaskManager::set_angle</text>
<text text-anchor="middle" x="565.62" y="-562.5" font-family="Helvetica,sans-Serif" font-size="10.00">_range_task</text>
</a>
</g>
</g>
<!-- Node20&#45;&gt;Node28 -->
<g id="edge34_Node000020_Node000028" class="edge">
<title>Node20&#45;&gt;Node28</title>
<g id="a_edge34_Node000020_Node000028"><a xlink:title=" ">
<path fill="none" stroke="#63b8ff" d="M393.06,-481.32C413.66,-496.02 453.37,-523.28 489.75,-542 496.11,-545.27 502.91,-548.43 509.72,-551.4"/>
<polygon fill="#63b8ff" stroke="#63b8ff" points="508.09,-554.93 518.66,-555.59 510.81,-548.48 508.09,-554.93"/>
</a>
</g>
</g>
<!-- Node31 -->
<g id="Node000031" class="node">
<title>Node31</title>
<g id="a_Node000031"><a xlink:href="class_task_manager.html#aaa0c608c54c59007d9b71fe2b5744bf6" target="_top" xlink:title="Метод, обрабатывающий задание на изменение угла">
<polygon fill="white" stroke="#666666" points="638.88,-260 492.38,-260 492.38,-240 638.88,-240 638.88,-260"/>
<text text-anchor="middle" x="565.62" y="-246.5" font-family="Helvetica,sans-Serif" font-size="10.00">TaskManager::set_angle_task</text>
</a>
</g>
</g>
<!-- Node20&#45;&gt;Node31 -->
<g id="edge40_Node000020_Node000031" class="edge">
<title>Node20&#45;&gt;Node31</title>
<g id="a_edge40_Node000020_Node000031"><a xlink:title=" ">
<path fill="none" stroke="#63b8ff" d="M439.03,-460.59C444.29,-458.28 449.3,-455.45 453.75,-452 461.86,-445.73 528.05,-320.02 554.13,-270.14"/>
<polygon fill="#63b8ff" stroke="#63b8ff" points="557.65,-271.95 559.18,-261.46 551.45,-268.71 557.65,-271.95"/>
</a>
</g>
</g>
<!-- Node34 -->
<g id="Node000034" class="node">
<title>Node34</title>
<g id="a_Node000034"><a xlink:href="class_task_manager.html#afa8af16e4cb8afaee8d3ffb5a16acdb5" target="_top" xlink:title="Метод, обрабатывающий задание на изменение положений переключателей">
<polygon fill="white" stroke="#666666" points="636.62,-184 494.62,-184 494.62,-164 636.62,-164 636.62,-184"/>
<text text-anchor="middle" x="565.62" y="-170.5" font-family="Helvetica,sans-Serif" font-size="10.00">TaskManager::set_path_task</text>
</a>
</g>
</g>
<!-- Node20&#45;&gt;Node34 -->
<g id="edge45_Node000020_Node000034" class="edge">
<title>Node20&#45;&gt;Node34</title>
<g id="a_edge45_Node000020_Node000034"><a xlink:title=" ">
<path fill="none" stroke="#63b8ff" d="M443.19,-460.5C447.09,-458.17 450.67,-455.36 453.75,-452 520.99,-378.64 438.52,-316.32 489.75,-231 500.2,-213.6 518.14,-199.67 533.83,-189.93"/>
<polygon fill="#63b8ff" stroke="#63b8ff" points="535.38,-192.5 542.23,-184.42 531.84,-186.46 535.38,-192.5"/>
</a>
</g>
</g>
<!-- Node21&#45;&gt;Node3 -->
<g id="edge29_Node000021_Node000003" class="edge">
<title>Node21&#45;&gt;Node3</title>
<g id="a_edge29_Node000021_Node000003"><a xlink:title=" ">
<path fill="none" stroke="#63b8ff" d="M635.5,-447.97C700.16,-444.19 794.83,-438.65 849.05,-435.48"/>
<polygon fill="#63b8ff" stroke="#63b8ff" points="849.2,-438.92 858.98,-434.84 848.79,-431.93 849.2,-438.92"/>
</a>
</g>
</g>
<!-- Node22 -->
<g id="Node000022" class="node">
<title>Node22</title>
<g id="a_Node000022"><a xlink:href="class_device_set.html#a2dab046962f4ada089046e2fa4769c23" target="_top" xlink:title="Метод, позволяющий осуществить подключение к устройству.">
<polygon fill="white" stroke="#666666" points="785,-336 685,-336 685,-316 785,-316 785,-336"/>
<text text-anchor="middle" x="735" y="-322.5" font-family="Helvetica,sans-Serif" font-size="10.00">DeviceSet::connect</text>
</a>
</g>
</g>
<!-- Node21&#45;&gt;Node22 -->
<g id="edge24_Node000021_Node000022" class="edge">
<title>Node21&#45;&gt;Node22</title>
<g id="a_edge24_Node000021_Node000022"><a xlink:title=" ">
<path fill="none" stroke="#63b8ff" d="M628.31,-441.58C633.07,-439.26 637.55,-436.43 641.5,-433 673.39,-405.28 646.68,-373.91 677.5,-345 678.66,-343.92 679.88,-342.89 681.15,-341.93"/>
<polygon fill="#63b8ff" stroke="#63b8ff" points="682.49,-344.6 689.17,-336.37 678.82,-338.64 682.49,-344.6"/>
</a>
</g>
</g>
<!-- Node22&#45;&gt;Node3 -->
<g id="edge27_Node000022_Node000003" class="edge">
<title>Node22&#45;&gt;Node3</title>
<g id="a_edge27_Node000022_Node000003"><a xlink:title=" ">
<path fill="none" stroke="#63b8ff" d="M777.33,-336.5C782.7,-338.82 787.92,-341.62 792.5,-345 814.54,-361.26 808.37,-376.43 828.5,-395 837.83,-403.61 849.41,-411.27 860.08,-417.41"/>
<polygon fill="#63b8ff" stroke="#63b8ff" points="858.08,-420.86 868.53,-422.62 861.46,-414.73 858.08,-420.86"/>
</a>
</g>
</g>
<!-- Node23 -->
<g id="Node000023" class="node">
<title>Node23</title>
<g id="a_Node000023"><a xlink:href="class_rbd_device.html#a7f0fc01b4d9a94bae816f55828bd74e9" target="_top" xlink:title="Метод, возвращающий значение флага connected.">
<polygon fill="white" stroke="#666666" points="955.12,-336 829.62,-336 829.62,-316 955.12,-316 955.12,-336"/>
<text text-anchor="middle" x="892.38" y="-322.5" font-family="Helvetica,sans-Serif" font-size="10.00">RbdDevice::is_connected</text>
</a>
</g>
</g>
<!-- Node22&#45;&gt;Node23 -->
<g id="edge25_Node000022_Node000023" class="edge">
<title>Node22&#45;&gt;Node23</title>
<g id="a_edge25_Node000022_Node000023"><a xlink:title=" ">
<path fill="none" stroke="#63b8ff" d="M785.16,-326C795.74,-326 807.14,-326 818.4,-326"/>
<polygon fill="#63b8ff" stroke="#63b8ff" points="818.13,-329.5 828.13,-326 818.13,-322.5 818.13,-329.5"/>
</a>
</g>
</g>
<!-- Node24 -->
<g id="Node000024" class="node">
<title>Node24</title>
<g id="a_Node000024"><a xlink:href="class_visa_device.html#aa53bc03ce9be2af514335565d585414e" target="_top" xlink:title="Метод, возвращающий значение флага connected.">
<polygon fill="white" stroke="#666666" points="956.25,-260 828.5,-260 828.5,-240 956.25,-240 956.25,-260"/>
<text text-anchor="middle" x="892.38" y="-246.5" font-family="Helvetica,sans-Serif" font-size="10.00">VisaDevice::is_connected</text>
</a>
</g>
</g>
<!-- Node22&#45;&gt;Node24 -->
<g id="edge26_Node000022_Node000024" class="edge">
<title>Node22&#45;&gt;Node24</title>
<g id="a_edge26_Node000022_Node000024"><a xlink:title=" ">
<path fill="none" stroke="#63b8ff" d="M775.44,-315.52C781.38,-313.16 787.27,-310.34 792.5,-307 812.11,-294.48 808.7,-281.22 828.5,-269 831.01,-267.45 833.65,-266.03 836.37,-264.71"/>
<polygon fill="#63b8ff" stroke="#63b8ff" points="837.66,-267.54 845.49,-260.41 834.92,-261.1 837.66,-267.54"/>
</a>
</g>
</g>
<!-- Node25 -->
<g id="Node000025" class="node">
<title>Node25</title>
<g id="a_Node000025"><a xlink:href="class_vna_device.html#a0f7b7885465a905959c560fe1e72681a" target="_top" xlink:title="Сброс настроек">
<polygon fill="white" stroke="#666666" points="939.75,-298 845,-298 845,-278 939.75,-278 939.75,-298"/>
<text text-anchor="middle" x="892.38" y="-284.5" font-family="Helvetica,sans-Serif" font-size="10.00">VnaDevice::preset</text>
</a>
</g>
</g>
<!-- Node22&#45;&gt;Node25 -->
<g id="edge28_Node000022_Node000025" class="edge">
<title>Node22&#45;&gt;Node25</title>
<g id="a_edge28_Node000022_Node000025"><a xlink:title=" ">
<path fill="none" stroke="#63b8ff" d="M778.87,-315.52C797.21,-311.03 818.81,-305.75 838.16,-301.01"/>
<polygon fill="#63b8ff" stroke="#63b8ff" points="838.76,-304.23 847.65,-298.45 837.1,-297.43 838.76,-304.23"/>
</a>
</g>
</g>
<!-- Node26&#45;&gt;Node3 -->
<g id="edge32_Node000026_Node000003" class="edge">
<title>Node26&#45;&gt;Node3</title>
<g id="a_edge32_Node000026_Node000003"><a xlink:title=" ">
<path fill="none" stroke="#63b8ff" d="M641.95,-418.41C706.36,-422.18 796.72,-427.46 849.15,-430.53"/>
<polygon fill="#63b8ff" stroke="#63b8ff" points="848.86,-434.08 859.05,-431.17 849.27,-427.09 848.86,-434.08"/>
</a>
</g>
</g>
<!-- Node27 -->
<g id="Node000027" class="node">
<title>Node27</title>
<g id="a_Node000027"><a xlink:href="class_device_set.html#a6241d8b37639241e2a370c1f7d533995" target="_top" xlink:title="Отключает все устройства и уничтожает созданные объекты">
<polygon fill="white" stroke="#666666" points="791.38,-298 678.62,-298 678.62,-278 791.38,-278 791.38,-298"/>
<text text-anchor="middle" x="735" y="-284.5" font-family="Helvetica,sans-Serif" font-size="10.00">DeviceSet::disconnect</text>
</a>
</g>
</g>
<!-- Node26&#45;&gt;Node27 -->
<g id="edge31_Node000026_Node000027" class="edge">
<title>Node26&#45;&gt;Node27</title>
<g id="a_edge31_Node000026_Node000027"><a xlink:title=" ">
<path fill="none" stroke="#63b8ff" d="M574.66,-403.61C591.5,-382.48 632.69,-334.23 677.5,-307 679.98,-305.49 682.6,-304.08 685.3,-302.77"/>
<polygon fill="#63b8ff" stroke="#63b8ff" points="686.49,-305.64 694.28,-298.46 683.72,-299.21 686.49,-305.64"/>
</a>
</g>
</g>
<!-- Node28&#45;&gt;Node3 -->
<g id="edge35_Node000028_Node000003" class="edge">
<title>Node28&#45;&gt;Node3</title>
<g id="a_edge35_Node000028_Node000003"><a xlink:title=" ">
<path fill="none" stroke="#63b8ff" d="M627.08,-575C674.62,-574.85 741.18,-568.92 792.5,-542 832.07,-521.24 863.73,-477.97 879.81,-452.64"/>
<polygon fill="#63b8ff" stroke="#63b8ff" points="883.3,-454.65 885.55,-444.29 877.33,-450.98 883.3,-454.65"/>
</a>
</g>
</g>
<!-- Node28&#45;&gt;Node10 -->
<g id="edge36_Node000028_Node000010" class="edge">
<title>Node28&#45;&gt;Node10</title>
<g id="a_edge36_Node000028_Node000010"><a xlink:title=" ">
<path fill="none" stroke="#63b8ff" d="M627.05,-585.72C642.05,-589.12 658.12,-592.77 673.14,-596.18"/>
<polygon fill="#63b8ff" stroke="#63b8ff" points="672.33,-599.81 682.85,-598.61 673.88,-592.99 672.33,-599.81"/>
</a>
</g>
</g>
<!-- Node29 -->
<g id="Node000029" class="node">
<title>Node29</title>
<g id="a_Node000029"><a xlink:href="class_device_set.html#a9b37373d7b0a7c89cd57eca673df7fad" target="_top" xlink:title="Устанавливает диапазон изменения угла на определённой оси ОПУ">
<polygon fill="white" stroke="#666666" points="788.75,-386 681.25,-386 681.25,-354 788.75,-354 788.75,-386"/>
<text text-anchor="start" x="689.25" y="-372.5" font-family="Helvetica,sans-Serif" font-size="10.00">DeviceSet::set_angle</text>
<text text-anchor="middle" x="735" y="-360.5" font-family="Helvetica,sans-Serif" font-size="10.00">_range</text>
</a>
</g>
</g>
<!-- Node28&#45;&gt;Node29 -->
<g id="edge37_Node000028_Node000029" class="edge">
<title>Node28&#45;&gt;Node29</title>
<g id="a_edge37_Node000028_Node000029"><a xlink:title=" ">
<path fill="none" stroke="#63b8ff" d="M580.04,-555.81C609.3,-520.5 679,-436.38 713.68,-394.52"/>
<polygon fill="#63b8ff" stroke="#63b8ff" points="716.84,-397.2 720.52,-387.27 711.45,-392.73 716.84,-397.2"/>
</a>
</g>
</g>
<!-- Node29&#45;&gt;Node3 -->
<g id="edge38_Node000029_Node000003" class="edge">
<title>Node29&#45;&gt;Node3</title>
<g id="a_edge38_Node000029_Node000003"><a xlink:title=" ">
<path fill="none" stroke="#63b8ff" d="M776.42,-386.39C801.01,-396.36 832.14,-408.98 855.8,-418.57"/>
<polygon fill="#63b8ff" stroke="#63b8ff" points="854.18,-422.1 864.76,-422.62 856.81,-415.61 854.18,-422.1"/>
</a>
</g>
</g>
<!-- Node30 -->
<g id="Node000030" class="node">
<title>Node30</title>
<g id="a_Node000030"><a xlink:href="class_rbd_device.html#a3ce90b05c72560d35522397fa1295c8c" target="_top" xlink:title="Задаёт диапазон изменения угла для определённой оси">
<polygon fill="white" stroke="#666666" points="947.25,-386 837.5,-386 837.5,-354 947.25,-354 947.25,-386"/>
<text text-anchor="start" x="845.5" y="-372.5" font-family="Helvetica,sans-Serif" font-size="10.00">RbdDevice::set_angle</text>
<text text-anchor="middle" x="892.38" y="-360.5" font-family="Helvetica,sans-Serif" font-size="10.00">_range</text>
</a>
</g>
</g>
<!-- Node29&#45;&gt;Node30 -->
<g id="edge39_Node000029_Node000030" class="edge">
<title>Node29&#45;&gt;Node30</title>
<g id="a_edge39_Node000029_Node000030"><a xlink:title=" ">
<path fill="none" stroke="#63b8ff" d="M789.04,-370C801.07,-370 813.99,-370 826.45,-370"/>
<polygon fill="#63b8ff" stroke="#63b8ff" points="826.26,-373.5 836.26,-370 826.26,-366.5 826.26,-373.5"/>
</a>
</g>
</g>
<!-- Node31&#45;&gt;Node3 -->
<g id="edge41_Node000031_Node000003" class="edge">
<title>Node31&#45;&gt;Node3</title>
<g id="a_edge41_Node000031_Node000003"><a xlink:title=" ">
<path fill="none" stroke="#63b8ff" d="M614.78,-239.57C664.93,-231.7 742.96,-228.26 792.5,-269 837.48,-305.99 793.13,-348.73 828.5,-395 835.54,-404.21 845.52,-411.68 855.45,-417.47"/>
<polygon fill="#63b8ff" stroke="#63b8ff" points="853.4,-420.88 863.86,-422.52 856.7,-414.71 853.4,-420.88"/>
</a>
</g>
</g>
<!-- Node32 -->
<g id="Node000032" class="node">
<title>Node32</title>
<g id="a_Node000032"><a xlink:href="class_device_set.html#af831c582c73b80720d69b771c422a7eb" target="_top" xlink:title="Устанавливает требуемое значение угла у определённой оси ОПУ">
<polygon fill="white" stroke="#666666" points="788.75,-222 681.25,-222 681.25,-202 788.75,-202 788.75,-222"/>
<text text-anchor="middle" x="735" y="-208.5" font-family="Helvetica,sans-Serif" font-size="10.00">DeviceSet::set_angle</text>
</a>
</g>
</g>
<!-- Node31&#45;&gt;Node32 -->
<g id="edge42_Node000031_Node000032" class="edge">
<title>Node31&#45;&gt;Node32</title>
<g id="a_edge42_Node000031_Node000032"><a xlink:title=" ">
<path fill="none" stroke="#63b8ff" d="M612.8,-239.52C632.74,-234.99 656.27,-229.65 677.26,-224.88"/>
<polygon fill="#63b8ff" stroke="#63b8ff" points="677.99,-228.08 686.97,-222.45 676.44,-221.25 677.99,-228.08"/>
</a>
</g>
</g>
<!-- Node32&#45;&gt;Node3 -->
<g id="edge43_Node000032_Node000003" class="edge">
<title>Node32&#45;&gt;Node3</title>
<g id="a_edge43_Node000032_Node000003"><a xlink:title=" ">
<path fill="none" stroke="#63b8ff" d="M774.27,-222.39C781.14,-225.76 787.65,-230.19 792.5,-236 838.95,-291.61 786.11,-336.24 828.5,-395 835.16,-404.23 844.82,-411.65 854.57,-417.39"/>
<polygon fill="#63b8ff" stroke="#63b8ff" points="852.79,-420.94 863.26,-422.58 856.1,-414.77 852.79,-420.94"/>
</a>
</g>
</g>
<!-- Node33 -->
<g id="Node000033" class="node">
<title>Node33</title>
<g id="a_Node000033"><a xlink:href="class_rbd_device.html#a38ac9ca45cdf5ee9526ac2488baa1285" target="_top" xlink:title="Поворачивает ось ОПУ на требуемый угол">
<polygon fill="white" stroke="#666666" points="947.25,-222 837.5,-222 837.5,-202 947.25,-202 947.25,-222"/>
<text text-anchor="middle" x="892.38" y="-208.5" font-family="Helvetica,sans-Serif" font-size="10.00">RbdDevice::set_angle</text>
</a>
</g>
</g>
<!-- Node32&#45;&gt;Node33 -->
<g id="edge44_Node000032_Node000033" class="edge">
<title>Node32&#45;&gt;Node33</title>
<g id="a_edge44_Node000032_Node000033"><a xlink:title=" ">
<path fill="none" stroke="#63b8ff" d="M789.04,-212C801.07,-212 813.99,-212 826.45,-212"/>
<polygon fill="#63b8ff" stroke="#63b8ff" points="826.26,-215.5 836.26,-212 826.26,-208.5 826.26,-215.5"/>
</a>
</g>
</g>
<!-- Node34&#45;&gt;Node3 -->
<g id="edge49_Node000034_Node000003" class="edge">
<title>Node34&#45;&gt;Node3</title>
<g id="a_edge49_Node000034_Node000003"><a xlink:title=" ">
<path fill="none" stroke="#63b8ff" d="M610.13,-163.57C660.66,-154.27 743.35,-148.2 792.5,-193 859.89,-254.43 776.88,-319.83 828.5,-395 834.89,-404.3 844.38,-411.72 854.05,-417.43"/>
<polygon fill="#63b8ff" stroke="#63b8ff" points="852.22,-420.96 862.69,-422.59 855.52,-414.79 852.22,-420.96"/>
</a>
</g>
</g>
<!-- Node35 -->
<g id="Node000035" class="node">
<title>Node35</title>
<g id="a_Node000035"><a xlink:href="class_device_set.html#aeeb8d224788fe0663898a10aad363832" target="_top" xlink:title="Метод позволяет получить число переключателей, подключенных к ВАЦ.">
<polygon fill="white" stroke="#666666" points="792.5,-108 677.5,-108 677.5,-76 792.5,-76 792.5,-108"/>
<text text-anchor="start" x="685.5" y="-94.5" font-family="Helvetica,sans-Serif" font-size="10.00">DeviceSet::get_vna</text>
<text text-anchor="middle" x="735" y="-82.5" font-family="Helvetica,sans-Serif" font-size="10.00">_switch_module_count</text>
</a>
</g>
</g>
<!-- Node34&#45;&gt;Node35 -->
<g id="edge46_Node000034_Node000035" class="edge">
<title>Node34&#45;&gt;Node35</title>
<g id="a_edge46_Node000034_Node000035"><a xlink:title=" ">
<path fill="none" stroke="#63b8ff" d="M622.42,-163.62C629.08,-161.3 635.6,-158.46 641.5,-155 661.57,-143.23 658.49,-130.41 677.5,-117 679.18,-115.82 680.92,-114.67 682.7,-113.56"/>
<polygon fill="#63b8ff" stroke="#63b8ff" points="683.95,-116.32 690.93,-108.35 680.5,-110.22 683.95,-116.32"/>
</a>
</g>
</g>
<!-- Node37 -->
<g id="Node000037" class="node">
<title>Node37</title>
<g id="a_Node000037"><a xlink:href="class_device_set.html#a905900391da22efd2f866843c81572d4" target="_top" xlink:title="Переводит переключатели в заданные положения">
<polygon fill="white" stroke="#666666" points="786.5,-146 683.5,-146 683.5,-126 786.5,-126 786.5,-146"/>
<text text-anchor="middle" x="735" y="-132.5" font-family="Helvetica,sans-Serif" font-size="10.00">DeviceSet::set_path</text>
</a>
</g>
</g>
<!-- Node34&#45;&gt;Node37 -->
<g id="edge50_Node000034_Node000037" class="edge">
<title>Node34&#45;&gt;Node37</title>
<g id="a_edge50_Node000034_Node000037"><a xlink:title=" ">
<path fill="none" stroke="#63b8ff" d="M612.8,-163.52C632.74,-158.99 656.27,-153.65 677.26,-148.88"/>
<polygon fill="#63b8ff" stroke="#63b8ff" points="677.99,-152.08 686.97,-146.45 676.44,-145.25 677.99,-152.08"/>
</a>
</g>
</g>
<!-- Node35&#45;&gt;Node24 -->
<g id="edge48_Node000035_Node000024" class="edge">
<title>Node35&#45;&gt;Node24</title>
<g id="a_edge48_Node000035_Node000024"><a xlink:title=" ">
<path fill="none" stroke="#63b8ff" d="M782.41,-108.35C786.12,-110.85 789.57,-113.72 792.5,-117 827.93,-156.59 790.7,-193.66 828.5,-231 829.48,-231.97 830.51,-232.89 831.58,-233.76"/>
<polygon fill="#63b8ff" stroke="#63b8ff" points="829.19,-237.03 839.47,-239.58 833.02,-231.18 829.19,-237.03"/>
</a>
</g>
</g>
<!-- Node36 -->
<g id="Node000036" class="node">
<title>Node36</title>
<g id="a_Node000036"><a xlink:href="class_vna_device.html#abbe7ac7ab8da8e7c27b7f7525d1d32a4" target="_top" xlink:title="Запрос количества переключателей, подключенных к ВАЦ">
<polygon fill="white" stroke="#666666" points="949.5,-108 835.25,-108 835.25,-76 949.5,-76 949.5,-108"/>
<text text-anchor="start" x="843.25" y="-94.5" font-family="Helvetica,sans-Serif" font-size="10.00">VnaDevice::get_switch</text>
<text text-anchor="middle" x="892.38" y="-82.5" font-family="Helvetica,sans-Serif" font-size="10.00">_module_count</text>
</a>
</g>
</g>
<!-- Node35&#45;&gt;Node36 -->
<g id="edge47_Node000035_Node000036" class="edge">
<title>Node35&#45;&gt;Node36</title>
<g id="a_edge47_Node000035_Node000036"><a xlink:title=" ">
<path fill="none" stroke="#63b8ff" d="M792.97,-92C803.13,-92 813.8,-92 824.2,-92"/>
<polygon fill="#63b8ff" stroke="#63b8ff" points="823.93,-95.5 833.93,-92 823.93,-88.5 823.93,-95.5"/>
</a>
</g>
</g>
<!-- Node37&#45;&gt;Node3 -->
<g id="edge51_Node000037_Node000003" class="edge">
<title>Node37&#45;&gt;Node3</title>
<g id="a_edge51_Node000037_Node000003"><a xlink:title=" ">
<path fill="none" stroke="#63b8ff" d="M775.18,-146.41C781.8,-149.77 787.99,-154.19 792.5,-160 857.33,-243.44 769.75,-307.18 828.5,-395 834.72,-404.3 844.07,-411.69 853.66,-417.39"/>
<polygon fill="#63b8ff" stroke="#63b8ff" points="851.77,-420.88 862.23,-422.53 855.08,-414.71 851.77,-420.88"/>
</a>
</g>
</g>
<!-- Node38 -->
<g id="Node000038" class="node">
<title>Node38</title>
<g id="a_Node000038"><a xlink:href="class_vna_device.html#a0b803a51b1c38828781291cdcae07495" target="_top" xlink:title="Установка положений переключателей в определённые позиции">
<polygon fill="white" stroke="#666666" points="945,-146 839.75,-146 839.75,-126 945,-126 945,-146"/>
<text text-anchor="middle" x="892.38" y="-132.5" font-family="Helvetica,sans-Serif" font-size="10.00">VnaDevice::set_path</text>
</a>
</g>
</g>
<!-- Node37&#45;&gt;Node38 -->
<g id="edge52_Node000037_Node000038" class="edge">
<title>Node37&#45;&gt;Node38</title>
<g id="a_edge52_Node000037_Node000038"><a xlink:title=" ">
<path fill="none" stroke="#63b8ff" d="M786.88,-136C800.14,-136 814.6,-136 828.42,-136"/>
<polygon fill="#63b8ff" stroke="#63b8ff" points="828.32,-139.5 838.32,-136 828.32,-132.5 828.32,-139.5"/>
</a>
</g>
</g>
</g>
</svg>
