<?xml version="1.0" encoding="UTF-8" standalone="no"?>
<!DOCTYPE svg PUBLIC "-//W3C//DTD SVG 1.1//EN"
 "http://www.w3.org/Graphics/SVG/1.1/DTD/svg11.dtd">
<!-- Generated by graphviz version 8.0.5 (20230430.1635)
 -->
<!-- Title: TaskManager::set_power_task Pages: 1 -->
<svg width="610pt" height="161pt"
 viewBox="0.00 0.00 609.75 161.00" xmlns="http://www.w3.org/2000/svg" xmlns:xlink="http://www.w3.org/1999/xlink">
<g id="graph0" class="graph" transform="scale(1 1) rotate(0) translate(4 157)">
<title>TaskManager::set_power_task</title>
<!-- Node1 -->
<g id="Node000001" class="node">
<title>Node1</title>
<g id="a_Node000001"><a xlink:title=" ">
<polygon fill="#999999" stroke="#666666" points="148.75,-77 0,-77 0,-57 148.75,-57 148.75,-77"/>
<text text-anchor="middle" x="74.38" y="-63.5" font-family="Helvetica,sans-Serif" font-size="10.00">TaskManager::set_power_task</text>
</a>
</g>
</g>
<!-- Node2 -->
<g id="Node000002" class="node">
<title>Node2</title>
<g id="a_Node000002"><a xlink:href="class_logger.html#af7709105c2708359b7b082218f4cc3e1" target="_top" xlink:title="Метод, осуществляющий логирование">
<polygon fill="white" stroke="#666666" points="418.88,-96 354.88,-96 354.88,-76 418.88,-76 418.88,-96"/>
<text text-anchor="middle" x="386.88" y="-82.5" font-family="Helvetica,sans-Serif" font-size="10.00">Logger::log</text>
</a>
</g>
</g>
<!-- Node1&#45;&gt;Node2 -->
<g id="edge1_Node000001_Node000002" class="edge">
<title>Node1&#45;&gt;Node2</title>
<g id="a_edge1_Node000001_Node000002"><a xlink:title=" ">
<path fill="none" stroke="#63b8ff" d="M148.96,-71.5C209.81,-75.23 294.07,-80.38 343.98,-83.44"/>
<polygon fill="#63b8ff" stroke="#63b8ff" points="343.49,-86.97 353.69,-84.09 343.92,-79.99 343.49,-86.97"/>
</a>
</g>
</g>
<!-- Node7 -->
<g id="Node000007" class="node">
<title>Node7</title>
<g id="a_Node000007"><a xlink:href="class_device_set.html#ad6bfe5b8dc269b2632221811a23a0379" target="_top" xlink:title=" ">
<polygon fill="white" stroke="#666666" points="294.5,-58 184.75,-58 184.75,-38 294.5,-38 294.5,-58"/>
<text text-anchor="middle" x="239.62" y="-44.5" font-family="Helvetica,sans-Serif" font-size="10.00">DeviceSet::set_power</text>
</a>
</g>
</g>
<!-- Node1&#45;&gt;Node7 -->
<g id="edge6_Node000001_Node000007" class="edge">
<title>Node1&#45;&gt;Node7</title>
<g id="a_edge6_Node000001_Node000007"><a xlink:title=" ">
<path fill="none" stroke="#63b8ff" d="M148.88,-58.44C157.24,-57.47 165.71,-56.49 173.94,-55.53"/>
<polygon fill="#63b8ff" stroke="#63b8ff" points="174.06,-58.92 183.59,-54.29 173.25,-51.97 174.06,-58.92"/>
</a>
</g>
</g>
<!-- Node3 -->
<g id="Node000003" class="node">
<title>Node3</title>
<g id="a_Node000003"><a xlink:href="logger_8hpp.html#a49284b7befa8e31f81e01ee8f3735dd0" target="_top" xlink:title="Функция, которая снимает значение текущего времени и конвертирует его в строку с заданным шаблоном.">
<polygon fill="white" stroke="#666666" points="584.88,-153 496.12,-153 496.12,-133 584.88,-133 584.88,-153"/>
<text text-anchor="middle" x="540.5" y="-139.5" font-family="Helvetica,sans-Serif" font-size="10.00">get_current_time</text>
</a>
</g>
</g>
<!-- Node2&#45;&gt;Node3 -->
<g id="edge2_Node000002_Node000003" class="edge">
<title>Node2&#45;&gt;Node3</title>
<g id="a_edge2_Node000002_Node000003"><a xlink:title=" ">
<path fill="none" stroke="#63b8ff" d="M411.31,-96.42C429.64,-104.41 455.85,-115.46 479.25,-124 484.08,-125.76 489.17,-127.52 494.25,-129.21"/>
<polygon fill="#63b8ff" stroke="#63b8ff" points="493,-132.81 503.6,-132.57 495.17,-126.15 493,-132.81"/>
</a>
</g>
</g>
<!-- Node4 -->
<g id="Node000004" class="node">
<title>Node4</title>
<g id="a_Node000004"><a xlink:href="class_logger.html#a6edb7b263f080d417b82a537ed50fee4" target="_top" xlink:title="Возвращает тег в зависимости от уровня логирования и от назначения тега.">
<polygon fill="white" stroke="#666666" points="582.25,-115 498.75,-115 498.75,-95 582.25,-95 582.25,-115"/>
<text text-anchor="middle" x="540.5" y="-101.5" font-family="Helvetica,sans-Serif" font-size="10.00">Logger::get_tag</text>
</a>
</g>
</g>
<!-- Node2&#45;&gt;Node4 -->
<g id="edge3_Node000002_Node000004" class="edge">
<title>Node2&#45;&gt;Node4</title>
<g id="a_edge3_Node000002_Node000004"><a xlink:title=" ">
<path fill="none" stroke="#63b8ff" d="M419.29,-89.94C438.97,-92.4 464.81,-95.64 487.49,-98.48"/>
<polygon fill="#63b8ff" stroke="#63b8ff" points="486.97,-102.07 497.33,-99.84 487.84,-95.12 486.97,-102.07"/>
</a>
</g>
</g>
<!-- Node5 -->
<g id="Node000005" class="node">
<title>Node5</title>
<g id="a_Node000005"><a xlink:href="class_logger.html#a4825613142ebb093bf8fa26f21f7f3fc" target="_top" xlink:title="Метод, который выводит сообщение в консоль.">
<polygon fill="white" stroke="#666666" points="601.75,-77 479.25,-77 479.25,-57 601.75,-57 601.75,-77"/>
<text text-anchor="middle" x="540.5" y="-63.5" font-family="Helvetica,sans-Serif" font-size="10.00">Logger::print_to_console</text>
</a>
</g>
</g>
<!-- Node2&#45;&gt;Node5 -->
<g id="edge4_Node000002_Node000005" class="edge">
<title>Node2&#45;&gt;Node5</title>
<g id="a_edge4_Node000002_Node000005"><a xlink:title=" ">
<path fill="none" stroke="#63b8ff" d="M419.29,-82.06C433.59,-80.27 451.13,-78.07 468.36,-75.91"/>
<polygon fill="#63b8ff" stroke="#63b8ff" points="468.52,-79.3 478.01,-74.58 467.65,-72.35 468.52,-79.3"/>
</a>
</g>
</g>
<!-- Node6 -->
<g id="Node000006" class="node">
<title>Node6</title>
<g id="a_Node000006"><a xlink:href="class_logger.html#a999bb33f7cf079cb98f32fae6016a2f3" target="_top" xlink:title="Метод, который записывает сообщение в файл.">
<polygon fill="white" stroke="#666666" points="590.88,-39 490.12,-39 490.12,-19 590.88,-19 590.88,-39"/>
<text text-anchor="middle" x="540.5" y="-25.5" font-family="Helvetica,sans-Serif" font-size="10.00">Logger::print_to_file</text>
</a>
</g>
</g>
<!-- Node2&#45;&gt;Node6 -->
<g id="edge5_Node000002_Node000006" class="edge">
<title>Node2&#45;&gt;Node6</title>
<g id="a_edge5_Node000002_Node000006"><a xlink:title=" ">
<path fill="none" stroke="#63b8ff" d="M419.24,-76.18C427.17,-73.45 435.6,-70.31 443.25,-67 459.86,-59.82 462.56,-54.97 479.25,-48 483.58,-46.19 488.15,-44.46 492.75,-42.82"/>
<polygon fill="#63b8ff" stroke="#63b8ff" points="493.45,-45.94 501.8,-39.41 491.2,-39.31 493.45,-45.94"/>
</a>
</g>
</g>
<!-- Node7&#45;&gt;Node2 -->
<g id="edge7_Node000007_Node000002" class="edge">
<title>Node7&#45;&gt;Node2</title>
<g id="a_edge7_Node000007_Node000002"><a xlink:title=" ">
<path fill="none" stroke="#63b8ff" d="M280.7,-58.48C300.4,-63.64 324.12,-69.84 344.05,-75.06"/>
<polygon fill="#63b8ff" stroke="#63b8ff" points="343.12,-78.69 353.68,-77.84 344.89,-71.92 343.12,-78.69"/>
</a>
</g>
</g>
<!-- Node8 -->
<g id="Node000008" class="node">
<title>Node8</title>
<g id="a_Node000008"><a xlink:href="class_gen_device.html#a7ffc7d45d181a233832ba42c76f09c9d" target="_top" xlink:title=" ">
<polygon fill="white" stroke="#666666" points="443.25,-58 330.5,-58 330.5,-38 443.25,-38 443.25,-58"/>
<text text-anchor="middle" x="386.88" y="-44.5" font-family="Helvetica,sans-Serif" font-size="10.00">GenDevice::set_power</text>
</a>
</g>
</g>
<!-- Node7&#45;&gt;Node8 -->
<g id="edge8_Node000007_Node000008" class="edge">
<title>Node7&#45;&gt;Node8</title>
<g id="a_edge8_Node000007_Node000008"><a xlink:title=" ">
<path fill="none" stroke="#63b8ff" d="M294.71,-48C302.79,-48 311.19,-48 319.48,-48"/>
<polygon fill="#63b8ff" stroke="#63b8ff" points="319.29,-51.5 329.29,-48 319.29,-44.5 319.29,-51.5"/>
</a>
</g>
</g>
<!-- Node9 -->
<g id="Node000009" class="node">
<title>Node9</title>
<g id="a_Node000009"><a xlink:href="class_vna_device.html#a06da46754f53a7067560523dea6e5129" target="_top" xlink:title=" ">
<polygon fill="white" stroke="#666666" points="442.88,-20 330.88,-20 330.88,0 442.88,0 442.88,-20"/>
<text text-anchor="middle" x="386.88" y="-6.5" font-family="Helvetica,sans-Serif" font-size="10.00">VnaDevice::set_power</text>
</a>
</g>
</g>
<!-- Node7&#45;&gt;Node9 -->
<g id="edge9_Node000007_Node000009" class="edge">
<title>Node7&#45;&gt;Node9</title>
<g id="a_edge9_Node000007_Node000009"><a xlink:title=" ">
<path fill="none" stroke="#63b8ff" d="M280.7,-37.52C297.61,-33.09 317.48,-27.89 335.38,-23.21"/>
<polygon fill="#63b8ff" stroke="#63b8ff" points="336.14,-26.37 344.93,-20.45 334.37,-19.6 336.14,-26.37"/>
</a>
</g>
</g>
</g>
</svg>
