<?xml version="1.0" encoding="UTF-8" standalone="no"?>
<!DOCTYPE svg PUBLIC "-//W3C//DTD SVG 1.1//EN"
 "http://www.w3.org/Graphics/SVG/1.1/DTD/svg11.dtd">
<!-- Generated by graphviz version 8.0.5 (20230430.1635)
 -->
<!-- Title: GenDevice Pages: 1 -->
<svg width="149pt" height="997pt"
 viewBox="0.00 0.00 149.00 997.00" xmlns="http://www.w3.org/2000/svg" xmlns:xlink="http://www.w3.org/1999/xlink">
<g id="graph0" class="graph" transform="scale(1 1) rotate(0) translate(4 993)">
<title>GenDevice</title>
<!-- Node1 -->
<g id="Node000001" class="node">
<title>Node1</title>
<g id="a_Node000001"><a xlink:title="Класс, в котором представлены методы для управления генератором">
<polygon fill="#999999" stroke="none" points="141,-436 0,-436 0,0 141,0 141,-436"/>
<text text-anchor="start" x="47.25" y="-422.5" font-family="Helvetica,sans-Serif" font-size="10.00">GenDevice</text>
<text text-anchor="start" x="4.38" y="-406.5" font-family="Helvetica,sans-Serif" font-size="10.00">#</text>
<text text-anchor="start" x="14" y="-406.5" font-family="Helvetica,sans-Serif" font-size="10.00">float power</text>
<text text-anchor="start" x="4.38" y="-390.5" font-family="Helvetica,sans-Serif" font-size="10.00">#</text>
<text text-anchor="start" x="14" y="-390.5" font-family="Helvetica,sans-Serif" font-size="10.00">double start_freq</text>
<text text-anchor="start" x="4.38" y="-374.5" font-family="Helvetica,sans-Serif" font-size="10.00">#</text>
<text text-anchor="start" x="14" y="-374.5" font-family="Helvetica,sans-Serif" font-size="10.00">double stop_freq</text>
<text text-anchor="start" x="4.38" y="-358.5" font-family="Helvetica,sans-Serif" font-size="10.00">#</text>
<text text-anchor="start" x="14" y="-358.5" font-family="Helvetica,sans-Serif" font-size="10.00">double freq_step</text>
<text text-anchor="start" x="4.38" y="-342.5" font-family="Helvetica,sans-Serif" font-size="10.00">#</text>
<text text-anchor="start" x="14" y="-342.5" font-family="Helvetica,sans-Serif" font-size="10.00">double current_freq</text>
<text text-anchor="start" x="4.38" y="-326.5" font-family="Helvetica,sans-Serif" font-size="10.00">#</text>
<text text-anchor="start" x="14" y="-326.5" font-family="Helvetica,sans-Serif" font-size="10.00">int points</text>
<text text-anchor="start" x="4.38" y="-310.5" font-family="Helvetica,sans-Serif" font-size="10.00">#</text>
<text text-anchor="start" x="14" y="-310.5" font-family="Helvetica,sans-Serif" font-size="10.00">int current_point</text>
<text text-anchor="start" x="4" y="-294.5" font-family="Helvetica,sans-Serif" font-size="10.00">+</text>
<text text-anchor="start" x="14" y="-294.5" font-family="Helvetica,sans-Serif" font-size="10.00">GenDevice()=default</text>
<text text-anchor="start" x="4" y="-278.5" font-family="Helvetica,sans-Serif" font-size="10.00">+</text>
<text text-anchor="start" x="14" y="-278.5" font-family="Helvetica,sans-Serif" font-size="10.00">GenDevice(std::string</text>
<text text-anchor="start" x="14" y="-266.5" font-family="Helvetica,sans-Serif" font-size="10.00"> device_address)</text>
<text text-anchor="start" x="4" y="-250.5" font-family="Helvetica,sans-Serif" font-size="10.00">+</text>
<text text-anchor="start" x="14" y="-250.5" font-family="Helvetica,sans-Serif" font-size="10.00">virtual void preset()</text>
<text text-anchor="start" x="4" y="-234.5" font-family="Helvetica,sans-Serif" font-size="10.00">+</text>
<text text-anchor="start" x="14" y="-234.5" font-family="Helvetica,sans-Serif" font-size="10.00">virtual void set_freq</text>
<text text-anchor="start" x="14" y="-222.5" font-family="Helvetica,sans-Serif" font-size="10.00">(double freq)</text>
<text text-anchor="start" x="4" y="-206.5" font-family="Helvetica,sans-Serif" font-size="10.00">+</text>
<text text-anchor="start" x="14" y="-206.5" font-family="Helvetica,sans-Serif" font-size="10.00">virtual void set_freq</text>
<text text-anchor="start" x="14" y="-194.5" font-family="Helvetica,sans-Serif" font-size="10.00">_range(double start_freq,</text>
<text text-anchor="start" x="14" y="-182.5" font-family="Helvetica,sans-Serif" font-size="10.00"> double stop_freq, int points)</text>
<text text-anchor="start" x="4" y="-166.5" font-family="Helvetica,sans-Serif" font-size="10.00">+</text>
<text text-anchor="start" x="14" y="-166.5" font-family="Helvetica,sans-Serif" font-size="10.00">virtual void set_power</text>
<text text-anchor="start" x="14" y="-154.5" font-family="Helvetica,sans-Serif" font-size="10.00">(float power)</text>
<text text-anchor="start" x="4" y="-138.5" font-family="Helvetica,sans-Serif" font-size="10.00">+</text>
<text text-anchor="start" x="14" y="-138.5" font-family="Helvetica,sans-Serif" font-size="10.00">virtual void rf_off()</text>
<text text-anchor="start" x="4" y="-122.5" font-family="Helvetica,sans-Serif" font-size="10.00">+</text>
<text text-anchor="start" x="14" y="-122.5" font-family="Helvetica,sans-Serif" font-size="10.00">virtual void rf_on()</text>
<text text-anchor="start" x="4" y="-106.5" font-family="Helvetica,sans-Serif" font-size="10.00">+</text>
<text text-anchor="start" x="14" y="-106.5" font-family="Helvetica,sans-Serif" font-size="10.00">virtual int next_freq()</text>
<text text-anchor="start" x="4" y="-90.5" font-family="Helvetica,sans-Serif" font-size="10.00">+</text>
<text text-anchor="start" x="14" y="-90.5" font-family="Helvetica,sans-Serif" font-size="10.00">virtual int prev_freq()</text>
<text text-anchor="start" x="4" y="-74.5" font-family="Helvetica,sans-Serif" font-size="10.00">+</text>
<text text-anchor="start" x="14" y="-74.5" font-family="Helvetica,sans-Serif" font-size="10.00">virtual void move_to</text>
<text text-anchor="start" x="14" y="-62.5" font-family="Helvetica,sans-Serif" font-size="10.00">_start_freq()</text>
<text text-anchor="start" x="4" y="-46.5" font-family="Helvetica,sans-Serif" font-size="10.00">+</text>
<text text-anchor="start" x="14" y="-46.5" font-family="Helvetica,sans-Serif" font-size="10.00">virtual void move_to</text>
<text text-anchor="start" x="14" y="-34.5" font-family="Helvetica,sans-Serif" font-size="10.00">_stop_freq()</text>
<text text-anchor="start" x="4" y="-18.5" font-family="Helvetica,sans-Serif" font-size="10.00">+</text>
<text text-anchor="start" x="14" y="-18.5" font-family="Helvetica,sans-Serif" font-size="10.00">virtual double get</text>
<text text-anchor="start" x="14" y="-6.5" font-family="Helvetica,sans-Serif" font-size="10.00">_current_freq()</text>
<polygon fill="#666666" stroke="#666666" points="0,-418 0,-418 141,-418 141,-418 0,-418"/>
<polygon fill="#666666" stroke="#666666" points="0,-306 0,-306 12,-306 12,-306 0,-306"/>
<polygon fill="#666666" stroke="#666666" points="12,-306 12,-306 141,-306 141,-306 12,-306"/>
<polygon fill="none" stroke="#666666" points="0,0 0,-436 141,-436 141,0 0,0"/>
</a>
</g>
</g>
<!-- Node2 -->
<g id="Node000002" class="node">
<title>Node2</title>
<g id="a_Node000002"><a xlink:href="class_visa_device.html" target="_top" xlink:title="Класс, в котором реализованы методы для управления устройством с помощью API VISA.">
<polygon fill="white" stroke="none" points="126.5,-857 14.5,-857 14.5,-473 126.5,-473 126.5,-857"/>
<text text-anchor="start" x="46.5" y="-843.5" font-family="Helvetica,sans-Serif" font-size="10.00">VisaDevice</text>
<text text-anchor="start" x="18.88" y="-827.5" font-family="Helvetica,sans-Serif" font-size="10.00">#</text>
<text text-anchor="start" x="28.5" y="-827.5" font-family="Helvetica,sans-Serif" font-size="10.00">bool connected</text>
<text text-anchor="start" x="20" y="-811.5" font-family="Helvetica,sans-Serif" font-size="10.00">&#45;</text>
<text text-anchor="start" x="28.5" y="-811.5" font-family="Helvetica,sans-Serif" font-size="10.00">ViSession resource</text>
<text text-anchor="start" x="28.5" y="-799.5" font-family="Helvetica,sans-Serif" font-size="10.00">_manager</text>
<text text-anchor="start" x="20" y="-783.5" font-family="Helvetica,sans-Serif" font-size="10.00">&#45;</text>
<text text-anchor="start" x="28.5" y="-783.5" font-family="Helvetica,sans-Serif" font-size="10.00">ViSession device</text>
<text text-anchor="start" x="20" y="-767.5" font-family="Helvetica,sans-Serif" font-size="10.00">&#45;</text>
<text text-anchor="start" x="28.5" y="-767.5" font-family="Helvetica,sans-Serif" font-size="10.00">ViStatus status</text>
<text text-anchor="start" x="20" y="-751.5" font-family="Helvetica,sans-Serif" font-size="10.00">&#45;</text>
<text text-anchor="start" x="28.5" y="-751.5" font-family="Helvetica,sans-Serif" font-size="10.00">ViPUInt32 ret_count</text>
<text text-anchor="start" x="18.5" y="-735.5" font-family="Helvetica,sans-Serif" font-size="10.00">+</text>
<text text-anchor="start" x="28.5" y="-735.5" font-family="Helvetica,sans-Serif" font-size="10.00">VisaDevice()=default</text>
<text text-anchor="start" x="18.5" y="-719.5" font-family="Helvetica,sans-Serif" font-size="10.00">+</text>
<text text-anchor="start" x="28.5" y="-719.5" font-family="Helvetica,sans-Serif" font-size="10.00">VisaDevice(std::string</text>
<text text-anchor="start" x="28.5" y="-707.5" font-family="Helvetica,sans-Serif" font-size="10.00"> device_address)</text>
<text text-anchor="start" x="18.5" y="-691.5" font-family="Helvetica,sans-Serif" font-size="10.00">+</text>
<text text-anchor="start" x="28.5" y="-691.5" font-family="Helvetica,sans-Serif" font-size="10.00">~VisaDevice()</text>
<text text-anchor="start" x="18.5" y="-675.5" font-family="Helvetica,sans-Serif" font-size="10.00">+</text>
<text text-anchor="start" x="28.5" y="-675.5" font-family="Helvetica,sans-Serif" font-size="10.00">virtual void connect()</text>
<text text-anchor="start" x="18.5" y="-659.5" font-family="Helvetica,sans-Serif" font-size="10.00">+</text>
<text text-anchor="start" x="28.5" y="-659.5" font-family="Helvetica,sans-Serif" font-size="10.00">bool is_connected()</text>
<text text-anchor="start" x="28.5" y="-647.5" font-family="Helvetica,sans-Serif" font-size="10.00"> const</text>
<text text-anchor="start" x="18.5" y="-631.5" font-family="Helvetica,sans-Serif" font-size="10.00">+</text>
<text text-anchor="start" x="28.5" y="-631.5" font-family="Helvetica,sans-Serif" font-size="10.00">void clear() const</text>
<text text-anchor="start" x="18.5" y="-615.5" font-family="Helvetica,sans-Serif" font-size="10.00">+</text>
<text text-anchor="start" x="28.5" y="-615.5" font-family="Helvetica,sans-Serif" font-size="10.00">std::string idn()</text>
<text text-anchor="start" x="18.5" y="-599.5" font-family="Helvetica,sans-Serif" font-size="10.00">+</text>
<text text-anchor="start" x="28.5" y="-599.5" font-family="Helvetica,sans-Serif" font-size="10.00">int opc()</text>
<text text-anchor="start" x="18.5" y="-583.5" font-family="Helvetica,sans-Serif" font-size="10.00">+</text>
<text text-anchor="start" x="28.5" y="-583.5" font-family="Helvetica,sans-Serif" font-size="10.00">int err()</text>
<text text-anchor="start" x="18.5" y="-567.5" font-family="Helvetica,sans-Serif" font-size="10.00">+</text>
<text text-anchor="start" x="28.5" y="-567.5" font-family="Helvetica,sans-Serif" font-size="10.00">void wait()</text>
<text text-anchor="start" x="28.5" y="-551.5" font-family="Helvetica,sans-Serif" font-size="10.00">и 8 больше...</text>
<text text-anchor="start" x="20" y="-535.5" font-family="Helvetica,sans-Serif" font-size="10.00">&#45;</text>
<text text-anchor="start" x="28.5" y="-535.5" font-family="Helvetica,sans-Serif" font-size="10.00">int write(std::string</text>
<text text-anchor="start" x="28.5" y="-523.5" font-family="Helvetica,sans-Serif" font-size="10.00"> command)</text>
<text text-anchor="start" x="20" y="-507.5" font-family="Helvetica,sans-Serif" font-size="10.00">&#45;</text>
<text text-anchor="start" x="28.5" y="-507.5" font-family="Helvetica,sans-Serif" font-size="10.00">std::string read()</text>
<text text-anchor="start" x="20" y="-491.5" font-family="Helvetica,sans-Serif" font-size="10.00">&#45;</text>
<text text-anchor="start" x="28.5" y="-491.5" font-family="Helvetica,sans-Serif" font-size="10.00">std::string query(std</text>
<text text-anchor="start" x="28.5" y="-479.5" font-family="Helvetica,sans-Serif" font-size="10.00">::string command)</text>
<polygon fill="#666666" stroke="#666666" points="14.5,-839 14.5,-839 126.5,-839 126.5,-839 14.5,-839"/>
<polygon fill="#666666" stroke="#666666" points="14.5,-747 14.5,-747 26.5,-747 26.5,-747 14.5,-747"/>
<polygon fill="#666666" stroke="#666666" points="26.5,-747 26.5,-747 126.5,-747 126.5,-747 26.5,-747"/>
<polygon fill="none" stroke="#666666" points="14.5,-473 14.5,-857 126.5,-857 126.5,-473 14.5,-473"/>
</a>
</g>
</g>
<!-- Node2&#45;&gt;Node1 -->
<g id="edge1_Node000001_Node000002" class="edge">
<title>Node2&#45;&gt;Node1</title>
<g id="a_edge1_Node000001_Node000002"><a xlink:title=" ">
<path fill="none" stroke="#63b8ff" d="M70.5,-462.26C70.5,-453.41 70.5,-444.53 70.5,-435.65"/>
<polygon fill="none" stroke="#63b8ff" points="67,-462.02 70.5,-472.02 74,-462.02 67,-462.02"/>
</a>
</g>
</g>
<!-- Node3 -->
<g id="Node000003" class="node">
<title>Node3</title>
<g id="a_Node000003"><a xlink:href="structvisa__config.html" target="_top" xlink:title="Структура конфигурации прибора">
<polygon fill="white" stroke="none" points="120,-989 21,-989 21,-905 120,-905 120,-989"/>
<text text-anchor="start" x="46.88" y="-975.5" font-family="Helvetica,sans-Serif" font-size="10.00">visa_config</text>
<text text-anchor="start" x="25" y="-959.5" font-family="Helvetica,sans-Serif" font-size="10.00">+</text>
<text text-anchor="start" x="35" y="-959.5" font-family="Helvetica,sans-Serif" font-size="10.00">std::string address</text>
<text text-anchor="start" x="25" y="-943.5" font-family="Helvetica,sans-Serif" font-size="10.00">+</text>
<text text-anchor="start" x="35" y="-943.5" font-family="Helvetica,sans-Serif" font-size="10.00">int timeout</text>
<text text-anchor="start" x="25" y="-927.5" font-family="Helvetica,sans-Serif" font-size="10.00">+</text>
<text text-anchor="start" x="35" y="-927.5" font-family="Helvetica,sans-Serif" font-size="10.00">char termination</text>
<text text-anchor="start" x="69" y="-911.5" font-family="Helvetica,sans-Serif" font-size="10.00"> </text>
<polygon fill="#666666" stroke="#666666" points="21,-971 21,-971 120,-971 120,-971 21,-971"/>
<polygon fill="#666666" stroke="#666666" points="21,-923 21,-923 33,-923 33,-923 21,-923"/>
<polygon fill="#666666" stroke="#666666" points="33,-923 33,-923 120,-923 120,-923 33,-923"/>
<polygon fill="none" stroke="#666666" points="21,-905 21,-989 120,-989 120,-905 21,-905"/>
</a>
</g>
</g>
<!-- Node3&#45;&gt;Node2 -->
<g id="edge2_Node000002_Node000003" class="edge">
<title>Node3&#45;&gt;Node2</title>
<g id="a_edge2_Node000002_Node000003"><a xlink:title=" ">
<path fill="none" stroke="#63b8ff" d="M70.5,-905.29C70.5,-894.71 70.5,-882.58 70.5,-869.51"/>
<polygon fill="none" stroke="#63b8ff" points="70.5,-869.62 66.5,-863.62 70.5,-857.62 74.5,-863.62 70.5,-869.62"/>
</a>
</g>
<text text-anchor="middle" x="102.38" y="-877.5" font-family="Helvetica,sans-Serif" font-size="10.00" fill="grey"> &#45;device_config</text>
</g>
</g>
</svg>
