<?xml version="1.0" encoding="UTF-8" standalone="no"?>
<!DOCTYPE svg PUBLIC "-//W3C//DTD SVG 1.1//EN"
 "http://www.w3.org/Graphics/SVG/1.1/DTD/svg11.dtd">
<!-- Generated by graphviz version 8.1.0 (20230707.0739)
 -->
<!-- Title: SocketServer::is_connected Pages: 1 -->
<svg width="360pt" height="66pt"
 viewBox="0.00 0.00 359.75 66.00" xmlns="http://www.w3.org/2000/svg" xmlns:xlink="http://www.w3.org/1999/xlink">
<g id="graph0" class="graph" transform="scale(1 1) rotate(0) translate(4 62)">
<title>SocketServer::is_connected</title>
<!-- Node1 -->
<g id="Node000001" class="node">
<title>Node1</title>
<g id="a_Node000001"><a xlink:title="Проверка, подключен ли клиент">
<polygon fill="#999999" stroke="#666666" points="351.75,-39 214.25,-39 214.25,-19 351.75,-19 351.75,-39"/>
<text text-anchor="middle" x="283" y="-25.5" font-family="Helvetica,sans-Serif" font-size="10.00">SocketServer::is_connected</text>
</a>
</g>
</g>
<!-- Node2 -->
<g id="Node000002" class="node">
<title>Node2</title>
<g id="a_Node000002"><a xlink:href="main_8cpp.html#a205c0f32d26b6f27c711fa201d02c983" target="_top" xlink:title="Обработка принятых данных и отправка результата обработки клиенту">
<polygon fill="white" stroke="#666666" points="178.25,-58 73,-58 73,-38 178.25,-38 178.25,-58"/>
<text text-anchor="middle" x="125.62" y="-44.5" font-family="Helvetica,sans-Serif" font-size="10.00">data_server_thread_f</text>
</a>
</g>
</g>
<!-- Node1&#45;&gt;Node2 -->
<g id="edge1_Node000001_Node000002" class="edge">
<title>Node1&#45;&gt;Node2</title>
<g id="a_edge1_Node000001_Node000002"><a xlink:title=" ">
<path fill="none" stroke="#63b8ff" d="M203.2,-38.64C194.77,-39.67 186.36,-40.7 178.37,-41.67"/>
<polygon fill="#63b8ff" stroke="#63b8ff" points="203.35,-42.02 212.85,-37.33 202.5,-35.07 203.35,-42.02"/>
</a>
</g>
</g>
<!-- Node4 -->
<g id="Node000004" class="node">
<title>Node4</title>
<g id="a_Node000004"><a xlink:href="main_8cpp.html#aef72d10ff26fe620d5f0a0f8412d7a2b" target="_top" xlink:title="Приём данных от клиента и передача их потоку обработки">
<polygon fill="white" stroke="#666666" points="178.25,-20 73,-20 73,0 178.25,0 178.25,-20"/>
<text text-anchor="middle" x="125.62" y="-6.5" font-family="Helvetica,sans-Serif" font-size="10.00">task_server_thread_f</text>
</a>
</g>
</g>
<!-- Node1&#45;&gt;Node4 -->
<g id="edge3_Node000001_Node000004" class="edge">
<title>Node1&#45;&gt;Node4</title>
<g id="a_edge3_Node000001_Node000004"><a xlink:title=" ">
<path fill="none" stroke="#63b8ff" d="M203.2,-19.36C194.77,-18.33 186.36,-17.3 178.37,-16.33"/>
<polygon fill="#63b8ff" stroke="#63b8ff" points="202.5,-22.93 212.85,-20.67 203.35,-15.98 202.5,-22.93"/>
</a>
</g>
</g>
<!-- Node3 -->
<g id="Node000003" class="node">
<title>Node3</title>
<g id="a_Node000003"><a xlink:href="main_8cpp.html#a0ddf1224851353fc92bfbff6f499fa97" target="_top" xlink:title=" ">
<polygon fill="white" stroke="#666666" points="37,-39 0,-39 0,-19 37,-19 37,-39"/>
<text text-anchor="middle" x="18.5" y="-25.5" font-family="Helvetica,sans-Serif" font-size="10.00">main</text>
</a>
</g>
</g>
<!-- Node2&#45;&gt;Node3 -->
<g id="edge2_Node000002_Node000003" class="edge">
<title>Node2&#45;&gt;Node3</title>
<g id="a_edge2_Node000002_Node000003"><a xlink:title=" ">
<path fill="none" stroke="#63b8ff" d="M61.91,-36.67C52.84,-35.03 44.2,-33.46 37.1,-32.18"/>
<polygon fill="#63b8ff" stroke="#63b8ff" points="61.22,-40.28 71.68,-38.61 62.46,-33.39 61.22,-40.28"/>
</a>
</g>
</g>
<!-- Node4&#45;&gt;Node3 -->
<g id="edge4_Node000004_Node000003" class="edge">
<title>Node4&#45;&gt;Node3</title>
<g id="a_edge4_Node000004_Node000003"><a xlink:title=" ">
<path fill="none" stroke="#63b8ff" d="M61.91,-21.33C52.84,-22.97 44.2,-24.54 37.1,-25.82"/>
<polygon fill="#63b8ff" stroke="#63b8ff" points="62.46,-24.61 71.68,-19.39 61.22,-17.72 62.46,-24.61"/>
</a>
</g>
</g>
</g>
</svg>
