<?xml version="1.0" encoding="UTF-8" standalone="no"?>
<!DOCTYPE svg PUBLIC "-//W3C//DTD SVG 1.1//EN"
 "http://www.w3.org/Graphics/SVG/1.1/DTD/svg11.dtd">
<!-- Generated by graphviz version 8.0.5 (20230430.1635)
 -->
<!-- Title: KeysightGen::prev_freq Pages: 1 -->
<svg width="1039pt" height="157pt"
 viewBox="0.00 0.00 1039.00 157.40" xmlns="http://www.w3.org/2000/svg" xmlns:xlink="http://www.w3.org/1999/xlink">
<g id="graph0" class="graph" transform="scale(1 1) rotate(0) translate(4 153.4)">
<title>KeysightGen::prev_freq</title>
<!-- Node1 -->
<g id="Node000001" class="node">
<title>Node1</title>
<g id="a_Node000001"><a xlink:title=" ">
<polygon fill="#999999" stroke="#666666" points="116.5,-96 0,-96 0,-76 116.5,-76 116.5,-96"/>
<text text-anchor="middle" x="58.25" y="-82.5" font-family="Helvetica,sans-Serif" font-size="10.00">KeysightGen::prev_freq</text>
</a>
</g>
</g>
<!-- Node2 -->
<g id="Node000002" class="node">
<title>Node2</title>
<g id="a_Node000002"><a xlink:href="class_keysight_gen.html#acb44da0109ba9b90e2e0dd6dcdb552a1" target="_top" xlink:title=" ">
<polygon fill="white" stroke="#666666" points="258.5,-115 160,-115 160,-95 258.5,-95 258.5,-115"/>
<text text-anchor="middle" x="209.25" y="-101.5" font-family="Helvetica,sans-Serif" font-size="10.00">KeysightGen::rf_off</text>
</a>
</g>
</g>
<!-- Node1&#45;&gt;Node2 -->
<g id="edge1_Node000001_Node000002" class="edge">
<title>Node1&#45;&gt;Node2</title>
<g id="a_edge1_Node000001_Node000002"><a xlink:title=" ">
<path fill="none" stroke="#63b8ff" d="M116.86,-93.35C127.31,-94.68 138.23,-96.07 148.74,-97.41"/>
<polygon fill="#63b8ff" stroke="#63b8ff" points="148.14,-100.99 158.5,-98.78 149.03,-94.05 148.14,-100.99"/>
</a>
</g>
</g>
<!-- Node12 -->
<g id="Node000012" class="node">
<title>Node12</title>
<g id="a_Node000012"><a xlink:href="class_visa_device.html#a3744ee1e929d6c05b522693c344c76b3" target="_top" xlink:title=" ">
<polygon fill="white" stroke="#666666" points="266,-77 152.5,-77 152.5,-57 266,-57 266,-77"/>
<text text-anchor="middle" x="209.25" y="-63.5" font-family="Helvetica,sans-Serif" font-size="10.00">VisaDevice::send_wait</text>
</a>
</g>
</g>
<!-- Node1&#45;&gt;Node12 -->
<g id="edge15_Node000001_Node000012" class="edge">
<title>Node1&#45;&gt;Node12</title>
<g id="a_edge15_Node000001_Node000012"><a xlink:title=" ">
<path fill="none" stroke="#63b8ff" d="M116.86,-78.65C124.94,-77.62 133.31,-76.56 141.55,-75.51"/>
<polygon fill="#63b8ff" stroke="#63b8ff" points="141.79,-78.88 151.27,-74.14 140.9,-71.93 141.79,-78.88"/>
</a>
</g>
</g>
<!-- Node3 -->
<g id="Node000003" class="node">
<title>Node3</title>
<g id="a_Node000003"><a xlink:href="class_visa_device.html#ad659ba652605f5c983958400fde8c808" target="_top" xlink:title=" ">
<polygon fill="white" stroke="#666666" points="516.25,-115 425.25,-115 425.25,-95 516.25,-95 516.25,-115"/>
<text text-anchor="middle" x="470.75" y="-101.5" font-family="Helvetica,sans-Serif" font-size="10.00">VisaDevice::send</text>
</a>
</g>
</g>
<!-- Node2&#45;&gt;Node3 -->
<g id="edge2_Node000002_Node000003" class="edge">
<title>Node2&#45;&gt;Node3</title>
<g id="a_edge2_Node000002_Node000003"><a xlink:title=" ">
<path fill="none" stroke="#63b8ff" d="M258.76,-105C302.89,-105 368.02,-105 414.22,-105"/>
<polygon fill="#63b8ff" stroke="#63b8ff" points="413.95,-108.5 423.95,-105 413.95,-101.5 413.95,-108.5"/>
</a>
</g>
</g>
<!-- Node4 -->
<g id="Node000004" class="node">
<title>Node4</title>
<g id="a_Node000004"><a xlink:href="class_logger.html#af7709105c2708359b7b082218f4cc3e1" target="_top" xlink:title="Функция, осуществляющая логирование">
<polygon fill="white" stroke="#666666" points="872.5,-77 808.5,-77 808.5,-57 872.5,-57 872.5,-77"/>
<text text-anchor="middle" x="840.5" y="-63.5" font-family="Helvetica,sans-Serif" font-size="10.00">Logger::log</text>
</a>
</g>
</g>
<!-- Node3&#45;&gt;Node4 -->
<g id="edge3_Node000003_Node000004" class="edge">
<title>Node3&#45;&gt;Node4</title>
<g id="a_edge3_Node000003_Node000004"><a xlink:title=" ">
<path fill="none" stroke="#63b8ff" d="M494.08,-115.41C509.92,-122.2 531.91,-130.45 552.25,-134 648.78,-150.86 681.94,-161.43 772.5,-124 792.88,-115.58 811.58,-98.53 824.02,-85.26"/>
<polygon fill="#63b8ff" stroke="#63b8ff" points="826.16,-87.99 830.24,-78.21 820.95,-83.32 826.16,-87.99"/>
</a>
</g>
</g>
<!-- Node9 -->
<g id="Node000009" class="node">
<title>Node9</title>
<g id="a_Node000009"><a xlink:href="class_visa_device.html#aa807192fd9a8c3e6efc458f78de5e73e" target="_top" xlink:title=" ">
<polygon fill="white" stroke="#666666" points="646.25,-77 552.25,-77 552.25,-57 646.25,-57 646.25,-77"/>
<text text-anchor="middle" x="599.25" y="-63.5" font-family="Helvetica,sans-Serif" font-size="10.00">VisaDevice::query</text>
</a>
</g>
</g>
<!-- Node3&#45;&gt;Node9 -->
<g id="edge8_Node000003_Node000009" class="edge">
<title>Node3&#45;&gt;Node9</title>
<g id="a_edge8_Node000003_Node000009"><a xlink:title=" ">
<path fill="none" stroke="#63b8ff" d="M506.65,-94.52C521.03,-90.2 537.88,-85.14 553.17,-80.54"/>
<polygon fill="#63b8ff" stroke="#63b8ff" points="553.89,-83.68 562.46,-77.45 551.88,-76.98 553.89,-83.68"/>
</a>
</g>
</g>
<!-- Node10 -->
<g id="Node000010" class="node">
<title>Node10</title>
<g id="a_Node000010"><a xlink:href="class_visa_device.html#aca08d9dbb0469f1143668a485e4adfe2" target="_top" xlink:title=" ">
<polygon fill="white" stroke="#666666" points="771.75,-115 683,-115 683,-95 771.75,-95 771.75,-115"/>
<text text-anchor="middle" x="727.38" y="-101.5" font-family="Helvetica,sans-Serif" font-size="10.00">VisaDevice::read</text>
</a>
</g>
</g>
<!-- Node3&#45;&gt;Node10 -->
<g id="edge13_Node000003_Node000010" class="edge">
<title>Node3&#45;&gt;Node10</title>
<g id="a_edge13_Node000003_Node000010"><a xlink:title=" ">
<path fill="none" stroke="#63b8ff" d="M516.7,-114.22C528.24,-116.2 540.66,-118 552.25,-119 593.87,-122.59 604.63,-122.61 646.25,-119 654.66,-118.27 663.51,-117.12 672.13,-115.78"/>
<polygon fill="#63b8ff" stroke="#63b8ff" points="672.59,-119.09 681.89,-114.01 671.45,-112.18 672.59,-119.09"/>
</a>
</g>
</g>
<!-- Node11 -->
<g id="Node000011" class="node">
<title>Node11</title>
<g id="a_Node000011"><a xlink:href="class_visa_device.html#a29202c3f5e47326386d1d27972e25267" target="_top" xlink:title=" ">
<polygon fill="white" stroke="#666666" points="772.5,-77 682.25,-77 682.25,-57 772.5,-57 772.5,-77"/>
<text text-anchor="middle" x="727.38" y="-63.5" font-family="Helvetica,sans-Serif" font-size="10.00">VisaDevice::write</text>
</a>
</g>
</g>
<!-- Node3&#45;&gt;Node11 -->
<g id="edge14_Node000003_Node000011" class="edge">
<title>Node3&#45;&gt;Node11</title>
<g id="a_edge14_Node000003_Node000011"><a xlink:title=" ">
<path fill="none" stroke="#63b8ff" d="M516.43,-101.68C551.81,-98.67 602.4,-93.56 646.25,-86 655.98,-84.32 666.28,-82.17 676.15,-79.92"/>
<polygon fill="#63b8ff" stroke="#63b8ff" points="676.7,-83.15 685.64,-77.45 675.1,-76.33 676.7,-83.15"/>
</a>
</g>
</g>
<!-- Node5 -->
<g id="Node000005" class="node">
<title>Node5</title>
<g id="a_Node000005"><a xlink:href="logger_8hpp.html#a49284b7befa8e31f81e01ee8f3735dd0" target="_top" xlink:title="Функция, которая снимает значение текущего времени и конвертирует его в строку с заданным шаблоном.">
<polygon fill="white" stroke="#666666" points="1014.12,-134 925.38,-134 925.38,-114 1014.12,-114 1014.12,-134"/>
<text text-anchor="middle" x="969.75" y="-120.5" font-family="Helvetica,sans-Serif" font-size="10.00">get_current_time</text>
</a>
</g>
</g>
<!-- Node4&#45;&gt;Node5 -->
<g id="edge4_Node000004_Node000005" class="edge">
<title>Node4&#45;&gt;Node5</title>
<g id="a_edge4_Node000004_Node000005"><a xlink:title=" ">
<path fill="none" stroke="#63b8ff" d="M857.52,-77.36C870.8,-85.63 890.35,-97.1 908.5,-105 912.57,-106.77 916.86,-108.46 921.2,-110.05"/>
<polygon fill="#63b8ff" stroke="#63b8ff" points="919.74,-113.59 930.34,-113.55 922.03,-106.97 919.74,-113.59"/>
</a>
</g>
</g>
<!-- Node6 -->
<g id="Node000006" class="node">
<title>Node6</title>
<g id="a_Node000006"><a xlink:href="class_logger.html#a6edb7b263f080d417b82a537ed50fee4" target="_top" xlink:title="Функция, возвращающая тег в зависимости от уровня логирования и от назначения тега.">
<polygon fill="white" stroke="#666666" points="1011.5,-96 928,-96 928,-76 1011.5,-76 1011.5,-96"/>
<text text-anchor="middle" x="969.75" y="-82.5" font-family="Helvetica,sans-Serif" font-size="10.00">Logger::get_tag</text>
</a>
</g>
</g>
<!-- Node4&#45;&gt;Node6 -->
<g id="edge5_Node000004_Node000006" class="edge">
<title>Node4&#45;&gt;Node6</title>
<g id="a_edge5_Node000004_Node000006"><a xlink:title=" ">
<path fill="none" stroke="#63b8ff" d="M872.96,-71.7C886.22,-73.68 902.02,-76.04 916.92,-78.26"/>
<polygon fill="#63b8ff" stroke="#63b8ff" points="916.16,-81.84 926.57,-79.85 917.19,-74.91 916.16,-81.84"/>
</a>
</g>
</g>
<!-- Node7 -->
<g id="Node000007" class="node">
<title>Node7</title>
<g id="a_Node000007"><a xlink:href="class_logger.html#a4825613142ebb093bf8fa26f21f7f3fc" target="_top" xlink:title="Функция, которая выводит сообщение в консоль.">
<polygon fill="white" stroke="#666666" points="1031,-58 908.5,-58 908.5,-38 1031,-38 1031,-58"/>
<text text-anchor="middle" x="969.75" y="-44.5" font-family="Helvetica,sans-Serif" font-size="10.00">Logger::print_to_console</text>
</a>
</g>
</g>
<!-- Node4&#45;&gt;Node7 -->
<g id="edge6_Node000004_Node000007" class="edge">
<title>Node4&#45;&gt;Node7</title>
<g id="a_edge6_Node000004_Node000007"><a xlink:title=" ">
<path fill="none" stroke="#63b8ff" d="M872.96,-62.3C880.46,-61.18 888.77,-59.94 897.28,-58.67"/>
<polygon fill="#63b8ff" stroke="#63b8ff" points="897.73,-61.99 907.1,-57.06 896.69,-55.07 897.73,-61.99"/>
</a>
</g>
</g>
<!-- Node8 -->
<g id="Node000008" class="node">
<title>Node8</title>
<g id="a_Node000008"><a xlink:href="class_logger.html#a999bb33f7cf079cb98f32fae6016a2f3" target="_top" xlink:title="Функция, которая записывает сообщение в файл.">
<polygon fill="white" stroke="#666666" points="1020.12,-20 919.38,-20 919.38,0 1020.12,0 1020.12,-20"/>
<text text-anchor="middle" x="969.75" y="-6.5" font-family="Helvetica,sans-Serif" font-size="10.00">Logger::print_to_file</text>
</a>
</g>
</g>
<!-- Node4&#45;&gt;Node8 -->
<g id="edge7_Node000004_Node000008" class="edge">
<title>Node4&#45;&gt;Node8</title>
<g id="a_edge7_Node000004_Node000008"><a xlink:title=" ">
<path fill="none" stroke="#63b8ff" d="M857.52,-56.64C870.8,-48.37 890.35,-36.9 908.5,-29 912.57,-27.23 916.86,-25.54 921.2,-23.95"/>
<polygon fill="#63b8ff" stroke="#63b8ff" points="922.03,-27.03 930.34,-20.45 919.74,-20.41 922.03,-27.03"/>
</a>
</g>
</g>
<!-- Node9&#45;&gt;Node10 -->
<g id="edge9_Node000009_Node000010" class="edge">
<title>Node9&#45;&gt;Node10</title>
<g id="a_edge9_Node000009_Node000010"><a xlink:title=" ">
<path fill="none" stroke="#63b8ff" d="M635.05,-77.48C649.38,-81.8 666.18,-86.86 681.43,-91.46"/>
<polygon fill="#63b8ff" stroke="#63b8ff" points="680.11,-95.02 690.69,-94.55 682.13,-88.31 680.11,-95.02"/>
</a>
</g>
</g>
<!-- Node9&#45;&gt;Node11 -->
<g id="edge11_Node000009_Node000011" class="edge">
<title>Node9&#45;&gt;Node11</title>
<g id="a_edge11_Node000009_Node000011"><a xlink:title=" ">
<path fill="none" stroke="#63b8ff" d="M646.5,-67C654.42,-67 662.73,-67 670.87,-67"/>
<polygon fill="#63b8ff" stroke="#63b8ff" points="670.81,-70.5 680.81,-67 670.81,-63.5 670.81,-70.5"/>
</a>
</g>
</g>
<!-- Node10&#45;&gt;Node4 -->
<g id="edge10_Node000010_Node000004" class="edge">
<title>Node10&#45;&gt;Node4</title>
<g id="a_edge10_Node000010_Node000004"><a xlink:title=" ">
<path fill="none" stroke="#63b8ff" d="M759.03,-94.52C771.3,-90.32 785.61,-85.43 798.73,-80.94"/>
<polygon fill="#63b8ff" stroke="#63b8ff" points="799.61,-84 807.94,-77.45 797.35,-77.37 799.61,-84"/>
</a>
</g>
</g>
<!-- Node11&#45;&gt;Node4 -->
<g id="edge12_Node000011_Node000004" class="edge">
<title>Node11&#45;&gt;Node4</title>
<g id="a_edge12_Node000011_Node000004"><a xlink:title=" ">
<path fill="none" stroke="#63b8ff" d="M772.93,-67C780.98,-67 789.34,-67 797.32,-67"/>
<polygon fill="#63b8ff" stroke="#63b8ff" points="797.25,-70.5 807.25,-67 797.25,-63.5 797.25,-70.5"/>
</a>
</g>
</g>
<!-- Node12&#45;&gt;Node3 -->
<g id="edge16_Node000012_Node000003" class="edge">
<title>Node12&#45;&gt;Node3</title>
<g id="a_edge16_Node000012_Node000003"><a xlink:title=" ">
<path fill="none" stroke="#63b8ff" d="M266.24,-75.2C310.05,-81.61 370.68,-90.49 414.34,-96.89"/>
<polygon fill="#63b8ff" stroke="#63b8ff" points="413.66,-100.47 424.06,-98.46 414.67,-93.54 413.66,-100.47"/>
</a>
</g>
</g>
<!-- Node13 -->
<g id="Node000013" class="node">
<title>Node13</title>
<g id="a_Node000013"><a xlink:href="class_visa_device.html#ab1f5c0b110fca770dbd5be069453ea82" target="_top" xlink:title=" ">
<polygon fill="white" stroke="#666666" points="389.25,-39 302,-39 302,-19 389.25,-19 389.25,-39"/>
<text text-anchor="middle" x="345.62" y="-25.5" font-family="Helvetica,sans-Serif" font-size="10.00">VisaDevice::wait</text>
</a>
</g>
</g>
<!-- Node12&#45;&gt;Node13 -->
<g id="edge17_Node000012_Node000013" class="edge">
<title>Node12&#45;&gt;Node13</title>
<g id="a_edge17_Node000012_Node000013"><a xlink:title=" ">
<path fill="none" stroke="#63b8ff" d="M247.32,-56.52C262.75,-52.15 280.84,-47.04 297.21,-42.41"/>
<polygon fill="#63b8ff" stroke="#63b8ff" points="298,-45.54 306.67,-39.45 296.1,-38.8 298,-45.54"/>
</a>
</g>
</g>
<!-- Node13&#45;&gt;Node4 -->
<g id="edge18_Node000013_Node000004" class="edge">
<title>Node13&#45;&gt;Node4</title>
<g id="a_edge18_Node000013_Node000004"><a xlink:title=" ">
<path fill="none" stroke="#63b8ff" d="M381.92,-18.59C395.35,-15.12 410.89,-11.71 425.25,-10 524.85,1.86 769.97,-31.26 772.5,-32 787.31,-36.32 802.65,-44.05 814.91,-51.15"/>
<polygon fill="#63b8ff" stroke="#63b8ff" points="812.64,-54.47 823.01,-56.63 816.25,-48.48 812.64,-54.47"/>
</a>
</g>
</g>
<!-- Node14 -->
<g id="Node000014" class="node">
<title>Node14</title>
<g id="a_Node000014"><a xlink:href="class_visa_device.html#a70a6c6ace7c5841db420c1e112782a53" target="_top" xlink:title=" ">
<polygon fill="white" stroke="#666666" points="513.62,-39 427.88,-39 427.88,-19 513.62,-19 513.62,-39"/>
<text text-anchor="middle" x="470.75" y="-25.5" font-family="Helvetica,sans-Serif" font-size="10.00">VisaDevice::opc</text>
</a>
</g>
</g>
<!-- Node13&#45;&gt;Node14 -->
<g id="edge19_Node000013_Node000014" class="edge">
<title>Node13&#45;&gt;Node14</title>
<g id="a_edge19_Node000013_Node000014"><a xlink:title=" ">
<path fill="none" stroke="#63b8ff" d="M389.69,-29C398.46,-29 407.79,-29 416.86,-29"/>
<polygon fill="#63b8ff" stroke="#63b8ff" points="416.75,-32.5 426.75,-29 416.75,-25.5 416.75,-32.5"/>
</a>
</g>
</g>
<!-- Node14&#45;&gt;Node4 -->
<g id="edge20_Node000014_Node000004" class="edge">
<title>Node14&#45;&gt;Node4</title>
<g id="a_edge20_Node000014_Node000004"><a xlink:title=" ">
<path fill="none" stroke="#63b8ff" d="M513.92,-28.84C572.4,-29.26 681.23,-32.36 772.5,-48 780.7,-49.41 789.34,-51.43 797.58,-53.64"/>
<polygon fill="#63b8ff" stroke="#63b8ff" points="796.55,-57.26 807.12,-56.61 798.45,-50.53 796.55,-57.26"/>
</a>
</g>
</g>
<!-- Node14&#45;&gt;Node9 -->
<g id="edge21_Node000014_Node000009" class="edge">
<title>Node14&#45;&gt;Node9</title>
<g id="a_edge21_Node000014_Node000009"><a xlink:title=" ">
<path fill="none" stroke="#63b8ff" d="M506.65,-39.48C521.03,-43.8 537.88,-48.86 553.17,-53.46"/>
<polygon fill="#63b8ff" stroke="#63b8ff" points="551.88,-57.02 562.46,-56.55 553.89,-50.32 551.88,-57.02"/>
</a>
</g>
</g>
</g>
</svg>
