<?xml version="1.0" encoding="UTF-8" standalone="no"?>
<!DOCTYPE svg PUBLIC "-//W3C//DTD SVG 1.1//EN"
 "http://www.w3.org/Graphics/SVG/1.1/DTD/svg11.dtd">
<!-- Generated by graphviz version 8.0.5 (20230430.1635)
 -->
<!-- Title: TaskManager::connect_task Pages: 1 -->
<svg width="605pt" height="199pt"
 viewBox="0.00 0.00 605.25 199.00" xmlns="http://www.w3.org/2000/svg" xmlns:xlink="http://www.w3.org/1999/xlink">
<g id="graph0" class="graph" transform="scale(1 1) rotate(0) translate(4 195)">
<title>TaskManager::connect_task</title>
<!-- Node1 -->
<g id="Node000001" class="node">
<title>Node1</title>
<g id="a_Node000001"><a xlink:title="Метод, обрабатывающий задание на подключение">
<polygon fill="#999999" stroke="#666666" points="139,-96 0,-96 0,-76 139,-76 139,-96"/>
<text text-anchor="middle" x="69.5" y="-82.5" font-family="Helvetica,sans-Serif" font-size="10.00">TaskManager::connect_task</text>
</a>
</g>
</g>
<!-- Node2 -->
<g id="Node000002" class="node">
<title>Node2</title>
<g id="a_Node000002"><a xlink:href="class_device_set.html#a2dab046962f4ada089046e2fa4769c23" target="_top" xlink:title="Метод, позволяющий осуществить подключение к устройству.">
<polygon fill="white" stroke="#666666" points="275,-115 175,-115 175,-95 275,-95 275,-115"/>
<text text-anchor="middle" x="225" y="-101.5" font-family="Helvetica,sans-Serif" font-size="10.00">DeviceSet::connect</text>
</a>
</g>
</g>
<!-- Node1&#45;&gt;Node2 -->
<g id="edge1_Node000001_Node000002" class="edge">
<title>Node1&#45;&gt;Node2</title>
<g id="a_edge1_Node000001_Node000002"><a xlink:title=" ">
<path fill="none" stroke="#63b8ff" d="M139.17,-94.5C147.4,-95.52 155.76,-96.55 163.86,-97.56"/>
<polygon fill="#63b8ff" stroke="#63b8ff" points="163.35,-101.14 173.7,-98.9 164.21,-94.2 163.35,-101.14"/>
</a>
</g>
</g>
<!-- Node5 -->
<g id="Node000005" class="node">
<title>Node5</title>
<g id="a_Node000005"><a xlink:href="class_logger.html#af7709105c2708359b7b082218f4cc3e1" target="_top" xlink:title="Метод, осуществляющий логирование">
<polygon fill="white" stroke="#666666" points="406.88,-77 342.88,-77 342.88,-57 406.88,-57 406.88,-77"/>
<text text-anchor="middle" x="374.88" y="-63.5" font-family="Helvetica,sans-Serif" font-size="10.00">Logger::log</text>
</a>
</g>
</g>
<!-- Node1&#45;&gt;Node5 -->
<g id="edge10_Node000001_Node000005" class="edge">
<title>Node1&#45;&gt;Node5</title>
<g id="a_edge10_Node000001_Node000005"><a xlink:title=" ">
<path fill="none" stroke="#63b8ff" d="M139.34,-81.69C198.66,-77.97 282.37,-72.73 332.09,-69.62"/>
<polygon fill="#63b8ff" stroke="#63b8ff" points="332,-73.07 341.76,-68.95 331.56,-66.08 332,-73.07"/>
</a>
</g>
</g>
<!-- Node3 -->
<g id="Node000003" class="node">
<title>Node3</title>
<g id="a_Node000003"><a xlink:href="class_rbd_device.html#a7f0fc01b4d9a94bae816f55828bd74e9" target="_top" xlink:title="Метод, возвращающий значение флага connected.">
<polygon fill="white" stroke="#666666" points="437.62,-191 312.12,-191 312.12,-171 437.62,-171 437.62,-191"/>
<text text-anchor="middle" x="374.88" y="-177.5" font-family="Helvetica,sans-Serif" font-size="10.00">RbdDevice::is_connected</text>
</a>
</g>
</g>
<!-- Node2&#45;&gt;Node3 -->
<g id="edge2_Node000002_Node000003" class="edge">
<title>Node2&#45;&gt;Node3</title>
<g id="a_edge2_Node000002_Node000003"><a xlink:title=" ">
<path fill="none" stroke="#63b8ff" d="M238.81,-115.38C254.84,-127.94 283.54,-149 311,-162 314.78,-163.79 318.76,-165.45 322.81,-166.99"/>
<polygon fill="#63b8ff" stroke="#63b8ff" points="321.36,-170.55 331.96,-170.57 323.69,-163.94 321.36,-170.55"/>
</a>
</g>
</g>
<!-- Node4 -->
<g id="Node000004" class="node">
<title>Node4</title>
<g id="a_Node000004"><a xlink:href="class_visa_device.html#aa53bc03ce9be2af514335565d585414e" target="_top" xlink:title="Метод, возвращающий значение флага connected.">
<polygon fill="white" stroke="#666666" points="438.75,-153 311,-153 311,-133 438.75,-133 438.75,-153"/>
<text text-anchor="middle" x="374.88" y="-139.5" font-family="Helvetica,sans-Serif" font-size="10.00">VisaDevice::is_connected</text>
</a>
</g>
</g>
<!-- Node2&#45;&gt;Node4 -->
<g id="edge3_Node000002_Node000004" class="edge">
<title>Node2&#45;&gt;Node4</title>
<g id="a_edge3_Node000002_Node000004"><a xlink:title=" ">
<path fill="none" stroke="#63b8ff" d="M266.8,-115.48C284.09,-119.93 304.44,-125.16 322.72,-129.85"/>
<polygon fill="#63b8ff" stroke="#63b8ff" points="321.65,-133.45 332.21,-132.55 323.4,-126.67 321.65,-133.45"/>
</a>
</g>
</g>
<!-- Node2&#45;&gt;Node5 -->
<g id="edge4_Node000002_Node000005" class="edge">
<title>Node2&#45;&gt;Node5</title>
<g id="a_edge4_Node000002_Node000005"><a xlink:title=" ">
<path fill="none" stroke="#63b8ff" d="M266.8,-94.52C287.09,-89.3 311.58,-83.01 332.01,-77.76"/>
<polygon fill="#63b8ff" stroke="#63b8ff" points="332.77,-80.92 341.59,-75.04 331.03,-74.14 332.77,-80.92"/>
</a>
</g>
</g>
<!-- Node10 -->
<g id="Node000010" class="node">
<title>Node10</title>
<g id="a_Node000010"><a xlink:href="class_vna_device.html#a0f7b7885465a905959c560fe1e72681a" target="_top" xlink:title="Сброс настроек">
<polygon fill="white" stroke="#666666" points="422.25,-115 327.5,-115 327.5,-95 422.25,-95 422.25,-115"/>
<text text-anchor="middle" x="374.88" y="-101.5" font-family="Helvetica,sans-Serif" font-size="10.00">VnaDevice::preset</text>
</a>
</g>
</g>
<!-- Node2&#45;&gt;Node10 -->
<g id="edge9_Node000002_Node000010" class="edge">
<title>Node2&#45;&gt;Node10</title>
<g id="a_edge9_Node000002_Node000010"><a xlink:title=" ">
<path fill="none" stroke="#63b8ff" d="M275.24,-105C288.5,-105 302.96,-105 316.61,-105"/>
<polygon fill="#63b8ff" stroke="#63b8ff" points="316.35,-108.5 326.35,-105 316.35,-101.5 316.35,-108.5"/>
</a>
</g>
</g>
<!-- Node6 -->
<g id="Node000006" class="node">
<title>Node6</title>
<g id="a_Node000006"><a xlink:href="logger_8hpp.html#a49284b7befa8e31f81e01ee8f3735dd0" target="_top" xlink:title="Функция, которая снимает значение текущего времени и конвертирует его в строку с заданным шаблоном.">
<polygon fill="white" stroke="#666666" points="580.38,-134 491.62,-134 491.62,-114 580.38,-114 580.38,-134"/>
<text text-anchor="middle" x="536" y="-120.5" font-family="Helvetica,sans-Serif" font-size="10.00">get_current_time</text>
</a>
</g>
</g>
<!-- Node5&#45;&gt;Node6 -->
<g id="edge5_Node000005_Node000006" class="edge">
<title>Node5&#45;&gt;Node6</title>
<g id="a_edge5_Node000005_Node000006"><a xlink:title=" ">
<path fill="none" stroke="#63b8ff" d="M407.31,-75.21C417.49,-78.21 428.73,-81.89 438.75,-86 455.49,-92.87 458.06,-98.03 474.75,-105 479.08,-106.81 483.65,-108.54 488.25,-110.18"/>
<polygon fill="#63b8ff" stroke="#63b8ff" points="486.7,-113.69 497.3,-113.59 488.95,-107.06 486.7,-113.69"/>
</a>
</g>
</g>
<!-- Node7 -->
<g id="Node000007" class="node">
<title>Node7</title>
<g id="a_Node000007"><a xlink:href="class_logger.html#a6edb7b263f080d417b82a537ed50fee4" target="_top" xlink:title="Возвращает тег в зависимости от уровня логирования и от назначения тега.">
<polygon fill="white" stroke="#666666" points="577.75,-96 494.25,-96 494.25,-76 577.75,-76 577.75,-96"/>
<text text-anchor="middle" x="536" y="-82.5" font-family="Helvetica,sans-Serif" font-size="10.00">Logger::get_tag</text>
</a>
</g>
</g>
<!-- Node5&#45;&gt;Node7 -->
<g id="edge6_Node000005_Node000007" class="edge">
<title>Node5&#45;&gt;Node7</title>
<g id="a_edge6_Node000005_Node000007"><a xlink:title=" ">
<path fill="none" stroke="#63b8ff" d="M407.31,-70.75C428.93,-73.34 458.14,-76.82 483.17,-79.81"/>
<polygon fill="#63b8ff" stroke="#63b8ff" points="482.62,-83.39 492.97,-81.1 483.45,-76.44 482.62,-83.39"/>
</a>
</g>
</g>
<!-- Node8 -->
<g id="Node000008" class="node">
<title>Node8</title>
<g id="a_Node000008"><a xlink:href="class_logger.html#a4825613142ebb093bf8fa26f21f7f3fc" target="_top" xlink:title="Метод, который выводит сообщение в консоль.">
<polygon fill="white" stroke="#666666" points="597.25,-58 474.75,-58 474.75,-38 597.25,-38 597.25,-58"/>
<text text-anchor="middle" x="536" y="-44.5" font-family="Helvetica,sans-Serif" font-size="10.00">Logger::print_to_console</text>
</a>
</g>
</g>
<!-- Node5&#45;&gt;Node8 -->
<g id="edge7_Node000005_Node000008" class="edge">
<title>Node5&#45;&gt;Node8</title>
<g id="a_edge7_Node000005_Node000008"><a xlink:title=" ">
<path fill="none" stroke="#63b8ff" d="M407.31,-63.25C423.44,-61.32 443.79,-58.89 463.47,-56.54"/>
<polygon fill="#63b8ff" stroke="#63b8ff" points="463.8,-59.91 473.31,-55.25 462.97,-52.96 463.8,-59.91"/>
</a>
</g>
</g>
<!-- Node9 -->
<g id="Node000009" class="node">
<title>Node9</title>
<g id="a_Node000009"><a xlink:href="class_logger.html#a999bb33f7cf079cb98f32fae6016a2f3" target="_top" xlink:title="Метод, который записывает сообщение в файл.">
<polygon fill="white" stroke="#666666" points="586.38,-20 485.62,-20 485.62,0 586.38,0 586.38,-20"/>
<text text-anchor="middle" x="536" y="-6.5" font-family="Helvetica,sans-Serif" font-size="10.00">Logger::print_to_file</text>
</a>
</g>
</g>
<!-- Node5&#45;&gt;Node9 -->
<g id="edge8_Node000005_Node000009" class="edge">
<title>Node5&#45;&gt;Node9</title>
<g id="a_edge8_Node000005_Node000009"><a xlink:title=" ">
<path fill="none" stroke="#63b8ff" d="M401.74,-56.56C421.59,-48.67 449.75,-37.74 474.75,-29 479.8,-27.24 485.11,-25.45 490.4,-23.73"/>
<polygon fill="#63b8ff" stroke="#63b8ff" points="491.02,-26.88 499.47,-20.49 488.88,-20.22 491.02,-26.88"/>
</a>
</g>
</g>
</g>
</svg>
