<?xml version="1.0" encoding="UTF-8" standalone="no"?>
<!DOCTYPE svg PUBLIC "-//W3C//DTD SVG 1.1//EN"
 "http://www.w3.org/Graphics/SVG/1.1/DTD/svg11.dtd">
<!-- Generated by graphviz version 8.1.0 (20230707.0739)
 -->
<!-- Title: PlanarS50244::full_preset Pages: 1 -->
<svg width="745pt" height="142pt"
 viewBox="0.00 0.00 744.50 142.00" xmlns="http://www.w3.org/2000/svg" xmlns:xlink="http://www.w3.org/1999/xlink">
<g id="graph0" class="graph" transform="scale(1 1) rotate(0) translate(4 138)">
<title>PlanarS50244::full_preset</title>
<!-- Node1 -->
<g id="Node000001" class="node">
<title>Node1</title>
<g id="a_Node000001"><a xlink:title="Полный сброс настроек">
<polygon fill="#999999" stroke="#666666" points="94.75,-64 0,-64 0,-32 94.75,-32 94.75,-64"/>
<text text-anchor="start" x="8" y="-50.5" font-family="Helvetica,sans-Serif" font-size="10.00">PlanarS50244::full</text>
<text text-anchor="middle" x="47.38" y="-38.5" font-family="Helvetica,sans-Serif" font-size="10.00">_preset</text>
</a>
</g>
</g>
<!-- Node2 -->
<g id="Node000002" class="node">
<title>Node2</title>
<g id="a_Node000002"><a xlink:href="class_visa_device.html#ad659ba652605f5c983958400fde8c808" target="_top" xlink:title="Отправка данных на прибор и чтение ответа от прибора.">
<polygon fill="white" stroke="#666666" points="221.75,-58 130.75,-58 130.75,-38 221.75,-38 221.75,-58"/>
<text text-anchor="middle" x="176.25" y="-44.5" font-family="Helvetica,sans-Serif" font-size="10.00">VisaDevice::send</text>
</a>
</g>
</g>
<!-- Node1&#45;&gt;Node2 -->
<g id="edge1_Node000001_Node000002" class="edge">
<title>Node1&#45;&gt;Node2</title>
<g id="a_edge1_Node000001_Node000002"><a xlink:title=" ">
<path fill="none" stroke="#63b8ff" d="M94.9,-48C102.96,-48 111.42,-48 119.7,-48"/>
<polygon fill="#63b8ff" stroke="#63b8ff" points="119.42,-51.5 129.42,-48 119.42,-44.5 119.42,-51.5"/>
</a>
</g>
</g>
<!-- Node3 -->
<g id="Node000003" class="node">
<title>Node3</title>
<g id="a_Node000003"><a xlink:href="class_logger.html#af7709105c2708359b7b082218f4cc3e1" target="_top" xlink:title="Метод, осуществляющий логирование">
<polygon fill="white" stroke="#666666" points="578,-77 514,-77 514,-57 578,-57 578,-77"/>
<text text-anchor="middle" x="546" y="-63.5" font-family="Helvetica,sans-Serif" font-size="10.00">Logger::log</text>
</a>
</g>
</g>
<!-- Node2&#45;&gt;Node3 -->
<g id="edge2_Node000002_Node000003" class="edge">
<title>Node2&#45;&gt;Node3</title>
<g id="a_edge2_Node000002_Node000003"><a xlink:title=" ">
<path fill="none" stroke="#63b8ff" d="M209.08,-58.39C223.76,-62.85 241.5,-67.76 257.75,-71 353.98,-90.16 380.82,-99.51 478,-86 486.77,-84.78 496,-82.7 504.72,-80.36"/>
<polygon fill="#63b8ff" stroke="#63b8ff" points="505.38,-83.53 514.03,-77.41 503.45,-76.8 505.38,-83.53"/>
</a>
</g>
</g>
<!-- Node8 -->
<g id="Node000008" class="node">
<title>Node8</title>
<g id="a_Node000008"><a xlink:href="class_visa_device.html#aa807192fd9a8c3e6efc458f78de5e73e" target="_top" xlink:title="Метод, совмещающий в себе методы write() и read().">
<polygon fill="white" stroke="#666666" points="351.75,-39 257.75,-39 257.75,-19 351.75,-19 351.75,-39"/>
<text text-anchor="middle" x="304.75" y="-25.5" font-family="Helvetica,sans-Serif" font-size="10.00">VisaDevice::query</text>
</a>
</g>
</g>
<!-- Node2&#45;&gt;Node8 -->
<g id="edge7_Node000002_Node000008" class="edge">
<title>Node2&#45;&gt;Node8</title>
<g id="a_edge7_Node000002_Node000008"><a xlink:title=" ">
<path fill="none" stroke="#63b8ff" d="M222.21,-41.25C230.2,-40.05 238.63,-38.78 246.91,-37.54"/>
<polygon fill="#63b8ff" stroke="#63b8ff" points="247.29,-40.87 256.66,-35.92 246.25,-33.95 247.29,-40.87"/>
</a>
</g>
</g>
<!-- Node9 -->
<g id="Node000009" class="node">
<title>Node9</title>
<g id="a_Node000009"><a xlink:href="class_visa_device.html#aca08d9dbb0469f1143668a485e4adfe2" target="_top" xlink:title="Метод, позволяющий считать данные с устройства">
<polygon fill="white" stroke="#666666" points="477.25,-77 388.5,-77 388.5,-57 477.25,-57 477.25,-77"/>
<text text-anchor="middle" x="432.88" y="-63.5" font-family="Helvetica,sans-Serif" font-size="10.00">VisaDevice::read</text>
</a>
</g>
</g>
<!-- Node2&#45;&gt;Node9 -->
<g id="edge12_Node000002_Node000009" class="edge">
<title>Node2&#45;&gt;Node9</title>
<g id="a_edge12_Node000002_Node000009"><a xlink:title=" ">
<path fill="none" stroke="#63b8ff" d="M222.19,-51.35C265.54,-54.59 331.22,-59.49 377.5,-62.94"/>
<polygon fill="#63b8ff" stroke="#63b8ff" points="377.01,-66.49 387.24,-63.74 377.53,-59.51 377.01,-66.49"/>
</a>
</g>
</g>
<!-- Node10 -->
<g id="Node000010" class="node">
<title>Node10</title>
<g id="a_Node000010"><a xlink:href="class_visa_device.html#a29202c3f5e47326386d1d27972e25267" target="_top" xlink:title="Метод, позволяющий отправить команду на устройство">
<polygon fill="white" stroke="#666666" points="478,-39 387.75,-39 387.75,-19 478,-19 478,-39"/>
<text text-anchor="middle" x="432.88" y="-25.5" font-family="Helvetica,sans-Serif" font-size="10.00">VisaDevice::write</text>
</a>
</g>
</g>
<!-- Node2&#45;&gt;Node10 -->
<g id="edge13_Node000002_Node000010" class="edge">
<title>Node2&#45;&gt;Node10</title>
<g id="a_edge13_Node000002_Node000010"><a xlink:title=" ">
<path fill="none" stroke="#63b8ff" d="M193.73,-37.55C209.48,-28.23 234.22,-15.27 257.75,-10 300.91,-0.32 351.24,-7.78 386.65,-16.02"/>
<polygon fill="#63b8ff" stroke="#63b8ff" points="385.6,-19.61 396.14,-18.58 387.26,-12.81 385.6,-19.61"/>
</a>
</g>
</g>
<!-- Node4 -->
<g id="Node000004" class="node">
<title>Node4</title>
<g id="a_Node000004"><a xlink:href="logger_8hpp.html#a49284b7befa8e31f81e01ee8f3735dd0" target="_top" xlink:title="Функция, которая снимает значение текущего времени и конвертирует его в строку с заданным шаблоном.">
<polygon fill="white" stroke="#666666" points="719.62,-134 630.88,-134 630.88,-114 719.62,-114 719.62,-134"/>
<text text-anchor="middle" x="675.25" y="-120.5" font-family="Helvetica,sans-Serif" font-size="10.00">get_current_time</text>
</a>
</g>
</g>
<!-- Node3&#45;&gt;Node4 -->
<g id="edge3_Node000003_Node000004" class="edge">
<title>Node3&#45;&gt;Node4</title>
<g id="a_edge3_Node000003_Node000004"><a xlink:title=" ">
<path fill="none" stroke="#63b8ff" d="M563.02,-77.36C576.3,-85.63 595.85,-97.1 614,-105 618.07,-106.77 622.36,-108.46 626.7,-110.05"/>
<polygon fill="#63b8ff" stroke="#63b8ff" points="625.24,-113.59 635.84,-113.55 627.53,-106.97 625.24,-113.59"/>
</a>
</g>
</g>
<!-- Node5 -->
<g id="Node000005" class="node">
<title>Node5</title>
<g id="a_Node000005"><a xlink:href="class_logger.html#a6edb7b263f080d417b82a537ed50fee4" target="_top" xlink:title="Возвращает тег в зависимости от уровня логирования и от назначения тега.">
<polygon fill="white" stroke="#666666" points="717,-96 633.5,-96 633.5,-76 717,-76 717,-96"/>
<text text-anchor="middle" x="675.25" y="-82.5" font-family="Helvetica,sans-Serif" font-size="10.00">Logger::get_tag</text>
</a>
</g>
</g>
<!-- Node3&#45;&gt;Node5 -->
<g id="edge4_Node000003_Node000005" class="edge">
<title>Node3&#45;&gt;Node5</title>
<g id="a_edge4_Node000003_Node000005"><a xlink:title=" ">
<path fill="none" stroke="#63b8ff" d="M578.46,-71.7C591.72,-73.68 607.52,-76.04 622.42,-78.26"/>
<polygon fill="#63b8ff" stroke="#63b8ff" points="621.66,-81.84 632.07,-79.85 622.69,-74.91 621.66,-81.84"/>
</a>
</g>
</g>
<!-- Node6 -->
<g id="Node000006" class="node">
<title>Node6</title>
<g id="a_Node000006"><a xlink:href="class_logger.html#a4825613142ebb093bf8fa26f21f7f3fc" target="_top" xlink:title="Метод, который выводит сообщение в консоль.">
<polygon fill="white" stroke="#666666" points="736.5,-58 614,-58 614,-38 736.5,-38 736.5,-58"/>
<text text-anchor="middle" x="675.25" y="-44.5" font-family="Helvetica,sans-Serif" font-size="10.00">Logger::print_to_console</text>
</a>
</g>
</g>
<!-- Node3&#45;&gt;Node6 -->
<g id="edge5_Node000003_Node000006" class="edge">
<title>Node3&#45;&gt;Node6</title>
<g id="a_edge5_Node000003_Node000006"><a xlink:title=" ">
<path fill="none" stroke="#63b8ff" d="M578.46,-62.3C585.96,-61.18 594.27,-59.94 602.78,-58.67"/>
<polygon fill="#63b8ff" stroke="#63b8ff" points="603.23,-61.99 612.6,-57.06 602.19,-55.07 603.23,-61.99"/>
</a>
</g>
</g>
<!-- Node7 -->
<g id="Node000007" class="node">
<title>Node7</title>
<g id="a_Node000007"><a xlink:href="class_logger.html#a999bb33f7cf079cb98f32fae6016a2f3" target="_top" xlink:title="Метод, который записывает сообщение в файл.">
<polygon fill="white" stroke="#666666" points="725.62,-20 624.88,-20 624.88,0 725.62,0 725.62,-20"/>
<text text-anchor="middle" x="675.25" y="-6.5" font-family="Helvetica,sans-Serif" font-size="10.00">Logger::print_to_file</text>
</a>
</g>
</g>
<!-- Node3&#45;&gt;Node7 -->
<g id="edge6_Node000003_Node000007" class="edge">
<title>Node3&#45;&gt;Node7</title>
<g id="a_edge6_Node000003_Node000007"><a xlink:title=" ">
<path fill="none" stroke="#63b8ff" d="M563.02,-56.64C576.3,-48.37 595.85,-36.9 614,-29 618.07,-27.23 622.36,-25.54 626.7,-23.95"/>
<polygon fill="#63b8ff" stroke="#63b8ff" points="627.53,-27.03 635.84,-20.45 625.24,-20.41 627.53,-27.03"/>
</a>
</g>
</g>
<!-- Node8&#45;&gt;Node9 -->
<g id="edge8_Node000008_Node000009" class="edge">
<title>Node8&#45;&gt;Node9</title>
<g id="a_edge8_Node000008_Node000009"><a xlink:title=" ">
<path fill="none" stroke="#63b8ff" d="M340.55,-39.48C354.88,-43.8 371.68,-48.86 386.93,-53.46"/>
<polygon fill="#63b8ff" stroke="#63b8ff" points="385.61,-57.02 396.19,-56.55 387.63,-50.31 385.61,-57.02"/>
</a>
</g>
</g>
<!-- Node8&#45;&gt;Node10 -->
<g id="edge10_Node000008_Node000010" class="edge">
<title>Node8&#45;&gt;Node10</title>
<g id="a_edge10_Node000008_Node000010"><a xlink:title=" ">
<path fill="none" stroke="#63b8ff" d="M352,-29C359.92,-29 368.23,-29 376.37,-29"/>
<polygon fill="#63b8ff" stroke="#63b8ff" points="376.31,-32.5 386.31,-29 376.31,-25.5 376.31,-32.5"/>
</a>
</g>
</g>
<!-- Node9&#45;&gt;Node3 -->
<g id="edge9_Node000009_Node000003" class="edge">
<title>Node9&#45;&gt;Node3</title>
<g id="a_edge9_Node000009_Node000003"><a xlink:title=" ">
<path fill="none" stroke="#63b8ff" d="M477.48,-67C485.75,-67 494.4,-67 502.64,-67"/>
<polygon fill="#63b8ff" stroke="#63b8ff" points="502.54,-70.5 512.54,-67 502.54,-63.5 502.54,-70.5"/>
</a>
</g>
</g>
<!-- Node10&#45;&gt;Node3 -->
<g id="edge11_Node000010_Node000003" class="edge">
<title>Node10&#45;&gt;Node3</title>
<g id="a_edge11_Node000010_Node000003"><a xlink:title=" ">
<path fill="none" stroke="#63b8ff" d="M464.53,-39.48C476.8,-43.68 491.11,-48.57 504.23,-53.06"/>
<polygon fill="#63b8ff" stroke="#63b8ff" points="502.85,-56.63 513.44,-56.55 505.11,-50 502.85,-56.63"/>
</a>
</g>
</g>
</g>
</svg>
