<?xml version="1.0" encoding="UTF-8" standalone="no"?>
<!DOCTYPE svg PUBLIC "-//W3C//DTD SVG 1.1//EN"
 "http://www.w3.org/Graphics/SVG/1.1/DTD/svg11.dtd">
<!-- Generated by graphviz version 8.0.5 (20230430.1635)
 -->
<!-- Title: KeysightM9807A::set_freq_range Pages: 1 -->
<svg width="1198pt" height="251pt"
 viewBox="0.00 0.00 1198.25 250.79" xmlns="http://www.w3.org/2000/svg" xmlns:xlink="http://www.w3.org/1999/xlink">
<g id="graph0" class="graph" transform="scale(1 1) rotate(0) translate(4 246.79)">
<title>KeysightM9807A::set_freq_range</title>
<!-- Node1 -->
<g id="Node000001" class="node">
<title>Node1</title>
<g id="a_Node000001"><a xlink:title="Установка частотного диапазона">
<polygon fill="#999999" stroke="#666666" points="109.75,-201.79 0,-201.79 0,-169.79 109.75,-169.79 109.75,-201.79"/>
<text text-anchor="start" x="8" y="-188.29" font-family="Helvetica,sans-Serif" font-size="10.00">KeysightM9807A::set</text>
<text text-anchor="middle" x="54.88" y="-176.29" font-family="Helvetica,sans-Serif" font-size="10.00">_freq_range</text>
</a>
</g>
</g>
<!-- Node2 -->
<g id="Node000002" class="node">
<title>Node2</title>
<g id="a_Node000002"><a xlink:href="class_visa_device.html#a069e154c5f48779dfd908146db9e66ed" target="_top" xlink:title="Отправка данных на прибор и чтение ответа от прибора. Также, ожидается завершение выполнения действий...">
<polygon fill="white" stroke="#666666" points="275.75,-195.79 145.75,-195.79 145.75,-175.79 275.75,-175.79 275.75,-195.79"/>
<text text-anchor="middle" x="210.75" y="-182.29" font-family="Helvetica,sans-Serif" font-size="10.00">VisaDevice::send_wait_err</text>
</a>
</g>
</g>
<!-- Node1&#45;&gt;Node2 -->
<g id="edge1_Node000001_Node000002" class="edge">
<title>Node1&#45;&gt;Node2</title>
<g id="a_edge1_Node000001_Node000002"><a xlink:title=" ">
<path fill="none" stroke="#63b8ff" d="M110.13,-185.79C118.07,-185.79 126.36,-185.79 134.63,-185.79"/>
<polygon fill="#63b8ff" stroke="#63b8ff" points="134.45,-189.29 144.45,-185.79 134.45,-182.29 134.45,-189.29"/>
</a>
</g>
</g>
<!-- Node3 -->
<g id="Node000003" class="node">
<title>Node3</title>
<g id="a_Node000003"><a xlink:href="class_visa_device.html#aba4642c194cffe2135a133e23960ab63" target="_top" xlink:title="Отправляет команду &quot;SYSTEM:ERROR?&quot; на подключенное устройство и считывает сведения об ошибках,...">
<polygon fill="white" stroke="#666666" points="670.62,-195.79 589.38,-195.79 589.38,-175.79 670.62,-175.79 670.62,-195.79"/>
<text text-anchor="middle" x="630" y="-182.29" font-family="Helvetica,sans-Serif" font-size="10.00">VisaDevice::err</text>
</a>
</g>
</g>
<!-- Node2&#45;&gt;Node3 -->
<g id="edge2_Node000002_Node000003" class="edge">
<title>Node2&#45;&gt;Node3</title>
<g id="a_edge2_Node000002_Node000003"><a xlink:title=" ">
<path fill="none" stroke="#63b8ff" d="M276.03,-185.79C359.15,-185.79 502.24,-185.79 578.19,-185.79"/>
<polygon fill="#63b8ff" stroke="#63b8ff" points="577.89,-189.29 587.89,-185.79 577.89,-182.29 577.89,-189.29"/>
</a>
</g>
</g>
<!-- Node4 -->
<g id="Node000004" class="node">
<title>Node4</title>
<g id="a_Node000004"><a xlink:href="class_logger.html#af7709105c2708359b7b082218f4cc3e1" target="_top" xlink:title="Метод, осуществляющий логирование">
<polygon fill="white" stroke="#666666" points="1031.75,-100.79 967.75,-100.79 967.75,-80.79 1031.75,-80.79 1031.75,-100.79"/>
<text text-anchor="middle" x="999.75" y="-87.29" font-family="Helvetica,sans-Serif" font-size="10.00">Logger::log</text>
</a>
</g>
</g>
<!-- Node2&#45;&gt;Node4 -->
<g id="edge13_Node000002_Node000004" class="edge">
<title>Node2&#45;&gt;Node4</title>
<g id="a_edge13_Node000002_Node000004"><a xlink:title=" ">
<path fill="none" stroke="#63b8ff" d="M243.77,-196.25C297.1,-212.7 407.76,-242.79 503.88,-242.79 503.88,-242.79 503.88,-242.79 759.5,-242.79 841.81,-242.79 865.57,-223.73 931.75,-174.79 955.41,-157.29 975.36,-129.46 987.18,-110.67"/>
<polygon fill="#63b8ff" stroke="#63b8ff" points="990.68,-112.65 992.88,-102.29 984.7,-109.02 990.68,-112.65"/>
</a>
</g>
</g>
<!-- Node12 -->
<g id="Node000012" class="node">
<title>Node12</title>
<g id="a_Node000012"><a xlink:href="class_visa_device.html#a3744ee1e929d6c05b522693c344c76b3" target="_top" xlink:title="Отправка данных на прибор и чтение ответа от прибора. Также, ожидается завершение выполнения действий...">
<polygon fill="white" stroke="#666666" points="425.25,-119.79 311.75,-119.79 311.75,-99.79 425.25,-99.79 425.25,-119.79"/>
<text text-anchor="middle" x="368.5" y="-106.29" font-family="Helvetica,sans-Serif" font-size="10.00">VisaDevice::send_wait</text>
</a>
</g>
</g>
<!-- Node2&#45;&gt;Node12 -->
<g id="edge14_Node000002_Node000012" class="edge">
<title>Node2&#45;&gt;Node12</title>
<g id="a_edge14_Node000002_Node000012"><a xlink:title=" ">
<path fill="none" stroke="#63b8ff" d="M233.08,-175.39C259.88,-162.31 306.05,-139.78 336.69,-124.83"/>
<polygon fill="#63b8ff" stroke="#63b8ff" points="337.98,-127.61 345.43,-120.08 334.91,-121.32 337.98,-127.61"/>
</a>
</g>
</g>
<!-- Node3&#45;&gt;Node4 -->
<g id="edge3_Node000003_Node000004" class="edge">
<title>Node3&#45;&gt;Node4</title>
<g id="a_edge3_Node000003_Node000004"><a xlink:title=" ">
<path fill="none" stroke="#63b8ff" d="M670.87,-187.82C730.34,-189.32 844.6,-186.24 931.75,-147.79 951.69,-139 970.23,-122.29 982.72,-109.23"/>
<polygon fill="#63b8ff" stroke="#63b8ff" points="984.83,-112.02 989.01,-102.29 979.67,-107.29 984.83,-112.02"/>
</a>
</g>
</g>
<!-- Node9 -->
<g id="Node000009" class="node">
<title>Node9</title>
<g id="a_Node000009"><a xlink:href="class_visa_device.html#aa807192fd9a8c3e6efc458f78de5e73e" target="_top" xlink:title="Метод, совмещающий в себе методы write() и read().">
<polygon fill="white" stroke="#666666" points="805.5,-138.79 711.5,-138.79 711.5,-118.79 805.5,-118.79 805.5,-138.79"/>
<text text-anchor="middle" x="758.5" y="-125.29" font-family="Helvetica,sans-Serif" font-size="10.00">VisaDevice::query</text>
</a>
</g>
</g>
<!-- Node3&#45;&gt;Node9 -->
<g id="edge8_Node000003_Node000009" class="edge">
<title>Node3&#45;&gt;Node9</title>
<g id="a_edge8_Node000003_Node000009"><a xlink:title=" ">
<path fill="none" stroke="#63b8ff" d="M654.2,-175.34C673.91,-166.46 702.42,-153.61 724.5,-143.66"/>
<polygon fill="#63b8ff" stroke="#63b8ff" points="725.77,-146.48 733.45,-139.18 722.89,-140.1 725.77,-146.48"/>
</a>
</g>
</g>
<!-- Node5 -->
<g id="Node000005" class="node">
<title>Node5</title>
<g id="a_Node000005"><a xlink:href="logger_8hpp.html#a49284b7befa8e31f81e01ee8f3735dd0" target="_top" xlink:title="Функция, которая снимает значение текущего времени и конвертирует его в строку с заданным шаблоном.">
<polygon fill="white" stroke="#666666" points="1173.38,-157.79 1084.62,-157.79 1084.62,-137.79 1173.38,-137.79 1173.38,-157.79"/>
<text text-anchor="middle" x="1129" y="-144.29" font-family="Helvetica,sans-Serif" font-size="10.00">get_current_time</text>
</a>
</g>
</g>
<!-- Node4&#45;&gt;Node5 -->
<g id="edge4_Node000004_Node000005" class="edge">
<title>Node4&#45;&gt;Node5</title>
<g id="a_edge4_Node000004_Node000005"><a xlink:title=" ">
<path fill="none" stroke="#63b8ff" d="M1016.77,-101.16C1030.05,-109.43 1049.6,-120.89 1067.75,-128.79 1071.82,-130.57 1076.11,-132.26 1080.45,-133.84"/>
<polygon fill="#63b8ff" stroke="#63b8ff" points="1078.99,-137.38 1089.59,-137.34 1081.28,-130.77 1078.99,-137.38"/>
</a>
</g>
</g>
<!-- Node6 -->
<g id="Node000006" class="node">
<title>Node6</title>
<g id="a_Node000006"><a xlink:href="class_logger.html#a6edb7b263f080d417b82a537ed50fee4" target="_top" xlink:title="Возвращает тег в зависимости от уровня логирования и от назначения тега.">
<polygon fill="white" stroke="#666666" points="1170.75,-119.79 1087.25,-119.79 1087.25,-99.79 1170.75,-99.79 1170.75,-119.79"/>
<text text-anchor="middle" x="1129" y="-106.29" font-family="Helvetica,sans-Serif" font-size="10.00">Logger::get_tag</text>
</a>
</g>
</g>
<!-- Node4&#45;&gt;Node6 -->
<g id="edge5_Node000004_Node000006" class="edge">
<title>Node4&#45;&gt;Node6</title>
<g id="a_edge5_Node000004_Node000006"><a xlink:title=" ">
<path fill="none" stroke="#63b8ff" d="M1032.21,-95.49C1045.47,-97.47 1061.27,-99.83 1076.17,-102.06"/>
<polygon fill="#63b8ff" stroke="#63b8ff" points="1075.41,-105.63 1085.82,-103.65 1076.44,-98.71 1075.41,-105.63"/>
</a>
</g>
</g>
<!-- Node7 -->
<g id="Node000007" class="node">
<title>Node7</title>
<g id="a_Node000007"><a xlink:href="class_logger.html#a4825613142ebb093bf8fa26f21f7f3fc" target="_top" xlink:title="Метод, который выводит сообщение в консоль.">
<polygon fill="white" stroke="#666666" points="1190.25,-81.79 1067.75,-81.79 1067.75,-61.79 1190.25,-61.79 1190.25,-81.79"/>
<text text-anchor="middle" x="1129" y="-68.29" font-family="Helvetica,sans-Serif" font-size="10.00">Logger::print_to_console</text>
</a>
</g>
</g>
<!-- Node4&#45;&gt;Node7 -->
<g id="edge6_Node000004_Node000007" class="edge">
<title>Node4&#45;&gt;Node7</title>
<g id="a_edge6_Node000004_Node000007"><a xlink:title=" ">
<path fill="none" stroke="#63b8ff" d="M1032.21,-86.1C1039.71,-84.98 1048.02,-83.74 1056.53,-82.47"/>
<polygon fill="#63b8ff" stroke="#63b8ff" points="1056.98,-85.79 1066.35,-80.85 1055.94,-78.87 1056.98,-85.79"/>
</a>
</g>
</g>
<!-- Node8 -->
<g id="Node000008" class="node">
<title>Node8</title>
<g id="a_Node000008"><a xlink:href="class_logger.html#a999bb33f7cf079cb98f32fae6016a2f3" target="_top" xlink:title="Метод, который записывает сообщение в файл.">
<polygon fill="white" stroke="#666666" points="1179.38,-43.79 1078.62,-43.79 1078.62,-23.79 1179.38,-23.79 1179.38,-43.79"/>
<text text-anchor="middle" x="1129" y="-30.29" font-family="Helvetica,sans-Serif" font-size="10.00">Logger::print_to_file</text>
</a>
</g>
</g>
<!-- Node4&#45;&gt;Node8 -->
<g id="edge7_Node000004_Node000008" class="edge">
<title>Node4&#45;&gt;Node8</title>
<g id="a_edge7_Node000004_Node000008"><a xlink:title=" ">
<path fill="none" stroke="#63b8ff" d="M1016.77,-80.43C1030.05,-72.16 1049.6,-60.7 1067.75,-52.79 1071.82,-51.02 1076.11,-49.33 1080.45,-47.75"/>
<polygon fill="#63b8ff" stroke="#63b8ff" points="1081.28,-50.82 1089.59,-44.24 1078.99,-44.2 1081.28,-50.82"/>
</a>
</g>
</g>
<!-- Node10 -->
<g id="Node000010" class="node">
<title>Node10</title>
<g id="a_Node000010"><a xlink:href="class_visa_device.html#aca08d9dbb0469f1143668a485e4adfe2" target="_top" xlink:title="Метод, позволяющий считать данные с устройства">
<polygon fill="white" stroke="#666666" points="931,-138.79 842.25,-138.79 842.25,-118.79 931,-118.79 931,-138.79"/>
<text text-anchor="middle" x="886.62" y="-125.29" font-family="Helvetica,sans-Serif" font-size="10.00">VisaDevice::read</text>
</a>
</g>
</g>
<!-- Node9&#45;&gt;Node10 -->
<g id="edge9_Node000009_Node000010" class="edge">
<title>Node9&#45;&gt;Node10</title>
<g id="a_edge9_Node000009_Node000010"><a xlink:title=" ">
<path fill="none" stroke="#63b8ff" d="M805.75,-128.79C813.96,-128.79 822.58,-128.79 831,-128.79"/>
<polygon fill="#63b8ff" stroke="#63b8ff" points="830.9,-132.29 840.9,-128.79 830.9,-125.29 830.9,-132.29"/>
</a>
</g>
</g>
<!-- Node11 -->
<g id="Node000011" class="node">
<title>Node11</title>
<g id="a_Node000011"><a xlink:href="class_visa_device.html#a29202c3f5e47326386d1d27972e25267" target="_top" xlink:title="Метод, позволяющий отправить команду на устройство">
<polygon fill="white" stroke="#666666" points="931.75,-100.79 841.5,-100.79 841.5,-80.79 931.75,-80.79 931.75,-100.79"/>
<text text-anchor="middle" x="886.62" y="-87.29" font-family="Helvetica,sans-Serif" font-size="10.00">VisaDevice::write</text>
</a>
</g>
</g>
<!-- Node9&#45;&gt;Node11 -->
<g id="edge11_Node000009_Node000011" class="edge">
<title>Node9&#45;&gt;Node11</title>
<g id="a_edge11_Node000009_Node000011"><a xlink:title=" ">
<path fill="none" stroke="#63b8ff" d="M794.3,-118.31C808.63,-113.99 825.43,-108.93 840.68,-104.34"/>
<polygon fill="#63b8ff" stroke="#63b8ff" points="841.38,-107.48 849.94,-101.24 839.36,-100.78 841.38,-107.48"/>
</a>
</g>
</g>
<!-- Node10&#45;&gt;Node4 -->
<g id="edge10_Node000010_Node000004" class="edge">
<title>Node10&#45;&gt;Node4</title>
<g id="a_edge10_Node000010_Node000004"><a xlink:title=" ">
<path fill="none" stroke="#63b8ff" d="M918.28,-118.31C930.55,-114.12 944.86,-109.22 957.98,-104.73"/>
<polygon fill="#63b8ff" stroke="#63b8ff" points="958.86,-107.79 967.19,-101.24 956.6,-101.17 958.86,-107.79"/>
</a>
</g>
</g>
<!-- Node11&#45;&gt;Node4 -->
<g id="edge12_Node000011_Node000004" class="edge">
<title>Node11&#45;&gt;Node4</title>
<g id="a_edge12_Node000011_Node000004"><a xlink:title=" ">
<path fill="none" stroke="#63b8ff" d="M932.18,-90.79C940.23,-90.79 948.59,-90.79 956.57,-90.79"/>
<polygon fill="#63b8ff" stroke="#63b8ff" points="956.5,-94.29 966.5,-90.79 956.5,-87.29 956.5,-94.29"/>
</a>
</g>
</g>
<!-- Node13 -->
<g id="Node000013" class="node">
<title>Node13</title>
<g id="a_Node000013"><a xlink:href="class_visa_device.html#ad659ba652605f5c983958400fde8c808" target="_top" xlink:title="Отправка данных на прибор и чтение ответа от прибора.">
<polygon fill="white" stroke="#666666" points="675.5,-119.79 584.5,-119.79 584.5,-99.79 675.5,-99.79 675.5,-119.79"/>
<text text-anchor="middle" x="630" y="-106.29" font-family="Helvetica,sans-Serif" font-size="10.00">VisaDevice::send</text>
</a>
</g>
</g>
<!-- Node12&#45;&gt;Node13 -->
<g id="edge15_Node000012_Node000013" class="edge">
<title>Node12&#45;&gt;Node13</title>
<g id="a_edge15_Node000012_Node000013"><a xlink:title=" ">
<path fill="none" stroke="#63b8ff" d="M425.49,-109.79C469.21,-109.79 529.67,-109.79 573.32,-109.79"/>
<polygon fill="#63b8ff" stroke="#63b8ff" points="573.31,-113.29 583.31,-109.79 573.31,-106.29 573.31,-113.29"/>
</a>
</g>
</g>
<!-- Node14 -->
<g id="Node000014" class="node">
<title>Node14</title>
<g id="a_Node000014"><a xlink:href="class_visa_device.html#ab1f5c0b110fca770dbd5be069453ea82" target="_top" xlink:title="Ожидание завершения выполнения команды.">
<polygon fill="white" stroke="#666666" points="548.5,-43.79 461.25,-43.79 461.25,-23.79 548.5,-23.79 548.5,-43.79"/>
<text text-anchor="middle" x="504.88" y="-30.29" font-family="Helvetica,sans-Serif" font-size="10.00">VisaDevice::wait</text>
</a>
</g>
</g>
<!-- Node12&#45;&gt;Node14 -->
<g id="edge20_Node000012_Node000014" class="edge">
<title>Node12&#45;&gt;Node14</title>
<g id="a_edge20_Node000012_Node000014"><a xlink:title=" ">
<path fill="none" stroke="#63b8ff" d="M387.9,-99.39C410.72,-86.48 449.82,-64.36 476.25,-49.42"/>
<polygon fill="#63b8ff" stroke="#63b8ff" points="477.71,-52.05 484.69,-44.08 474.27,-45.95 477.71,-52.05"/>
</a>
</g>
</g>
<!-- Node13&#45;&gt;Node4 -->
<g id="edge16_Node000013_Node000004" class="edge">
<title>Node13&#45;&gt;Node4</title>
<g id="a_edge16_Node000013_Node000004"><a xlink:title=" ">
<path fill="none" stroke="#63b8ff" d="M666.23,-99.3C722.43,-83.92 835.84,-58.46 931.75,-71.79 940.52,-73.01 949.75,-75.09 958.47,-77.43"/>
<polygon fill="#63b8ff" stroke="#63b8ff" points="957.2,-81 967.78,-80.38 959.13,-74.27 957.2,-81"/>
</a>
</g>
</g>
<!-- Node13&#45;&gt;Node9 -->
<g id="edge17_Node000013_Node000009" class="edge">
<title>Node13&#45;&gt;Node9</title>
<g id="a_edge17_Node000013_Node000009"><a xlink:title=" ">
<path fill="none" stroke="#63b8ff" d="M675.96,-116.55C683.95,-117.75 692.38,-119.01 700.66,-120.26"/>
<polygon fill="#63b8ff" stroke="#63b8ff" points="700,-123.85 710.41,-121.87 701.04,-116.93 700,-123.85"/>
</a>
</g>
</g>
<!-- Node13&#45;&gt;Node10 -->
<g id="edge18_Node000013_Node000010" class="edge">
<title>Node13&#45;&gt;Node10</title>
<g id="a_edge18_Node000013_Node000010"><a xlink:title=" ">
<path fill="none" stroke="#63b8ff" d="M647.48,-120.25C663.23,-129.56 687.97,-142.52 711.5,-147.79 754.66,-157.47 804.99,-150.02 840.4,-141.78"/>
<polygon fill="#63b8ff" stroke="#63b8ff" points="841.01,-144.99 849.89,-139.21 839.35,-138.19 841.01,-144.99"/>
</a>
</g>
</g>
<!-- Node13&#45;&gt;Node11 -->
<g id="edge19_Node000013_Node000011" class="edge">
<title>Node13&#45;&gt;Node11</title>
<g id="a_edge19_Node000013_Node000011"><a xlink:title=" ">
<path fill="none" stroke="#63b8ff" d="M675.94,-106.44C719.02,-103.23 784.17,-98.36 830.41,-94.91"/>
<polygon fill="#63b8ff" stroke="#63b8ff" points="830.43,-98.35 840.14,-94.11 829.91,-91.37 830.43,-98.35"/>
</a>
</g>
</g>
<!-- Node14&#45;&gt;Node4 -->
<g id="edge21_Node000014_Node000004" class="edge">
<title>Node14&#45;&gt;Node4</title>
<g id="a_edge21_Node000014_Node000004"><a xlink:title=" ">
<path fill="none" stroke="#63b8ff" d="M541.17,-23.38C554.6,-19.92 570.14,-16.51 584.5,-14.79 738.25,3.52 787.13,12.51 931.75,-42.79 949.78,-49.69 967.41,-62.64 980.05,-73.36"/>
<polygon fill="#63b8ff" stroke="#63b8ff" points="977.14,-75.33 986.96,-79.31 981.76,-70.08 977.14,-75.33"/>
</a>
</g>
</g>
<!-- Node15 -->
<g id="Node000015" class="node">
<title>Node15</title>
<g id="a_Node000015"><a xlink:href="class_visa_device.html#a70a6c6ace7c5841db420c1e112782a53" target="_top" xlink:title="Отправляет команду &quot;*OPC?&quot; на подключенное устройство, ожидает ответ и, в зависимости от полученного ...">
<polygon fill="white" stroke="#666666" points="672.88,-43.79 587.12,-43.79 587.12,-23.79 672.88,-23.79 672.88,-43.79"/>
<text text-anchor="middle" x="630" y="-30.29" font-family="Helvetica,sans-Serif" font-size="10.00">VisaDevice::opc</text>
</a>
</g>
</g>
<!-- Node14&#45;&gt;Node15 -->
<g id="edge22_Node000014_Node000015" class="edge">
<title>Node14&#45;&gt;Node15</title>
<g id="a_edge22_Node000014_Node000015"><a xlink:title=" ">
<path fill="none" stroke="#63b8ff" d="M548.94,-33.79C557.71,-33.79 567.04,-33.79 576.11,-33.79"/>
<polygon fill="#63b8ff" stroke="#63b8ff" points="576,-37.29 586,-33.79 576,-30.29 576,-37.29"/>
</a>
</g>
</g>
<!-- Node15&#45;&gt;Node4 -->
<g id="edge23_Node000015_Node000004" class="edge">
<title>Node15&#45;&gt;Node4</title>
<g id="a_edge23_Node000015_Node000004"><a xlink:title=" ">
<path fill="none" stroke="#63b8ff" d="M672.98,-34.25C731.7,-35.73 841.31,-41.54 931.75,-63.79 943.65,-66.72 956.24,-71.35 967.24,-75.96"/>
<polygon fill="#63b8ff" stroke="#63b8ff" points="965.68,-79.53 976.24,-80.31 968.47,-73.11 965.68,-79.53"/>
</a>
</g>
</g>
<!-- Node15&#45;&gt;Node9 -->
<g id="edge24_Node000015_Node000009" class="edge">
<title>Node15&#45;&gt;Node9</title>
<g id="a_edge24_Node000015_Node000009"><a xlink:title=" ">
<path fill="none" stroke="#63b8ff" d="M644.54,-43.96C666.2,-60.23 708.89,-92.29 735.14,-112"/>
<polygon fill="#63b8ff" stroke="#63b8ff" points="732.58,-115.21 742.68,-118.41 736.78,-109.61 732.58,-115.21"/>
</a>
</g>
</g>
</g>
</svg>
