<?xml version="1.0" encoding="UTF-8" standalone="no"?>
<!DOCTYPE svg PUBLIC "-//W3C//DTD SVG 1.1//EN"
 "http://www.w3.org/Graphics/SVG/1.1/DTD/svg11.dtd">
<!-- Generated by graphviz version 8.0.5 (20230430.1635)
 -->
<!-- Title: TaskManager::get_data_task Pages: 1 -->
<!--zoomable 616 -->

<svg id="main" version="1.1" xmlns="http://www.w3.org/2000/svg" xmlns:xlink="http://www.w3.org/1999/xlink" xml:space="preserve" onload="init(evt)">
<style type="text/css"><![CDATA[
.node, .edge {opacity: 0.7;}
.node.selected, .edge.selected {opacity: 1;}
.edge:hover path { stroke: red; }
.edge:hover polygon { stroke: red; fill: red; }
]]></style>

<defs>
  <circle id="rim" cx="0" cy="0" r="7"/>
  <circle id="rim2" cx="0" cy="0" r="3.5"/>
  <g id="zoomPlus">
    <use xlink:href="#rim" fill="#404040"><set attributeName="fill" to="#808080" begin="zoomplus.mouseover" end="zoomplus.mouseout"/></use>
    <path d="M-4,0h8M0,-4v8" fill="none" stroke="white" stroke-width="1.5" pointer-events="none"/>
  </g>
  <g id="zoomMin">
    <use xlink:href="#rim" fill="#404040"><set attributeName="fill" to="#808080" begin="zoomminus.mouseover" end="zoomminus.mouseout"/></use>
    <path d="M-4,0h8" fill="none" stroke="white" stroke-width="1.5" pointer-events="none"/>
  </g>
  <g id="arrowUp" transform="translate(30 24)">
    <use xlink:href="#rim"/>
    <path pointer-events="none" fill="none" stroke="white" stroke-width="1.5" d="M0,-3.0v7 M-2.5,-0.5L0,-3.0L2.5,-0.5"/>
  </g>
  <g id="arrowRight" transform="rotate(90) translate(36 -43)">
    <use xlink:href="#rim"/>
    <path pointer-events="none" fill="none" stroke="white" stroke-width="1.5" d="M0,-3.0v7 M-2.5,-0.5L0,-3.0L2.5,-0.5"/>
  </g>
  <g id="arrowDown" transform="rotate(180) translate(-30 -48)">
    <use xlink:href="#rim"/>
    <path pointer-events="none" fill="none" stroke="white" stroke-width="1.5" d="M0,-3.0v7 M-2.5,-0.5L0,-3.0L2.5,-0.5"/>
  </g>
  <g id="arrowLeft" transform="rotate(270) translate(-36 17)">
    <use xlink:href="#rim"/>
    <path pointer-events="none" fill="none" stroke="white" stroke-width="1.5" d="M0,-3.0v7 M-2.5,-0.5L0,-3.0L2.5,-0.5"/>
  </g>
  <g id="resetDef">
    <use xlink:href="#rim2" fill="#404040"><set attributeName="fill" to="#808080" begin="reset.mouseover" end="reset.mouseout"/></use>
  </g>
</defs>
<script type="application/ecmascript">
var viewWidth = 795;
var viewHeight = 616;
var sectionId = 'dynsection-19';
</script>
<script type="application/ecmascript" xlink:href="svg.min.js"/>
<svg id="graph" class="graph">
<g id="viewport">
<title>TaskManager::get_data_task</title>
<!-- Node1 -->
<g id="Node000001" class="node">
<title>Node1</title>
<g id="a_Node000001"><a xlink:title=" ">
<polygon fill="#999999" stroke="#666666" points="142,-305 0,-305 0,-285 142,-285 142,-305"/>
<text text-anchor="middle" x="71" y="-291.5" font-family="Helvetica,sans-Serif" font-size="10.00">TaskManager::get_data_task</text>
</a>
</g>
</g>
<!-- Node2 -->
<g id="Node000002" class="node">
<title>Node2</title>
<g id="a_Node000002"><a xlink:href="class_device_set.html#acd9efc5319ee177c97aef57f98469d0d" target="_top" xlink:title=" ">
<polygon fill="white" stroke="#666666" points="281,-305 178,-305 178,-285 281,-285 281,-305"/>
<text text-anchor="middle" x="229.5" y="-291.5" font-family="Helvetica,sans-Serif" font-size="10.00">DeviceSet::get_data</text>
</a>
</g>
</g>
<!-- Node1&#45;&gt;Node2 -->
<g id="edge1_Node000001_Node000002" class="edge">
<title>Node1&#45;&gt;Node2</title>
<g id="a_edge1_Node000001_Node000002"><a xlink:title=" ">
<path fill="none" stroke="#63b8ff" d="M142.47,-295C150.61,-295 158.87,-295 166.88,-295"/>
<polygon fill="#63b8ff" stroke="#63b8ff" points="166.62,-298.5 176.62,-295 166.62,-291.5 166.62,-298.5"/>
</a>
</g>
</g>
<!-- Node11 -->
<g id="Node000011" class="node">
<title>Node11</title>
<g id="a_Node000011"><a xlink:href="class_logger.html#af7709105c2708359b7b082218f4cc3e1" target="_top" xlink:title="Функция, осуществляющая логирование">
<polygon fill="white" stroke="#666666" points="591.62,-400 527.62,-400 527.62,-380 591.62,-380 591.62,-400"/>
<text text-anchor="middle" x="559.62" y="-386.5" font-family="Helvetica,sans-Serif" font-size="10.00">Logger::log</text>
</a>
</g>
</g>
<!-- Node1&#45;&gt;Node11 -->
<g id="edge28_Node000001_Node000011" class="edge">
<title>Node1&#45;&gt;Node11</title>
<g id="a_edge28_Node000001_Node000011"><a xlink:title=" ">
<path fill="none" stroke="#63b8ff" d="M80.41,-305.18C109.12,-338.98 207.51,-447.52 317,-485 374.82,-504.79 397.52,-507.09 454.5,-485 493.8,-469.76 527.36,-432.02 545.11,-408.95"/>
<polygon fill="#63b8ff" stroke="#63b8ff" points="548.35,-411.46 551.52,-401.35 542.73,-407.28 548.35,-411.46"/>
</a>
</g>
</g>
<!-- Node28 -->
<g id="Node000028" class="node">
<title>Node28</title>
<g id="a_Node000028"><a xlink:href="structdata__t.html#afe36ebc9e507ce50faa88f60535d1fac" target="_top" xlink:title=" ">
<polygon fill="white" stroke="#666666" points="272.75,-249 186.25,-249 186.25,-229 272.75,-229 272.75,-249"/>
<text text-anchor="middle" x="229.5" y="-235.5" font-family="Helvetica,sans-Serif" font-size="10.00">data_t::to_string</text>
</a>
</g>
</g>
<!-- Node1&#45;&gt;Node28 -->
<g id="edge29_Node000001_Node000028" class="edge">
<title>Node1&#45;&gt;Node28</title>
<g id="a_edge29_Node000001_Node000028"><a xlink:title=" ">
<path fill="none" stroke="#63b8ff" d="M101.07,-284.6C125.92,-275.71 161.89,-262.83 189.28,-253.03"/>
<polygon fill="#63b8ff" stroke="#63b8ff" points="190.08,-256.11 198.32,-249.44 187.73,-249.51 190.08,-256.11"/>
</a>
</g>
</g>
<!-- Node3 -->
<g id="Node000003" class="node">
<title>Node3</title>
<g id="a_Node000003"><a xlink:href="class_vna_device.html#a305e9719412a43677b2d660c507c20c0" target="_top" xlink:title=" ">
<polygon fill="white" stroke="#666666" points="449.25,-438 322.25,-438 322.25,-418 449.25,-418 449.25,-438"/>
<text text-anchor="middle" x="385.75" y="-424.5" font-family="Helvetica,sans-Serif" font-size="10.00">VnaDevice::create_traces</text>
</a>
</g>
</g>
<!-- Node2&#45;&gt;Node3 -->
<g id="edge2_Node000002_Node000003" class="edge">
<title>Node2&#45;&gt;Node3</title>
<g id="a_edge2_Node000002_Node000003"><a xlink:title=" ">
<path fill="none" stroke="#63b8ff" d="M235.99,-305.29C247.93,-326.7 278.27,-376.34 317,-404 322.07,-407.62 327.75,-410.75 333.6,-413.43"/>
<polygon fill="#63b8ff" stroke="#63b8ff" points="331.94,-416.95 342.52,-417.53 334.62,-410.48 331.94,-416.95"/>
</a>
</g>
</g>
<!-- Node4 -->
<g id="Node000004" class="node">
<title>Node4</title>
<g id="a_Node000004"><a xlink:href="class_device_set.html#a3d6e4e4745a60475d3ec2d778e48ff51" target="_top" xlink:title=" ">
<polygon fill="white" stroke="#666666" points="442.88,-564 328.62,-564 328.62,-532 442.88,-532 442.88,-564"/>
<text text-anchor="start" x="336.62" y="-550.5" font-family="Helvetica,sans-Serif" font-size="10.00">DeviceSet::get_current</text>
<text text-anchor="middle" x="385.75" y="-538.5" font-family="Helvetica,sans-Serif" font-size="10.00">_angles</text>
</a>
</g>
</g>
<!-- Node2&#45;&gt;Node4 -->
<g id="edge3_Node000002_Node000004" class="edge">
<title>Node2&#45;&gt;Node4</title>
<g id="a_edge3_Node000002_Node000004"><a xlink:title=" ">
<path fill="none" stroke="#63b8ff" d="M233.56,-305.22C242.8,-334.96 272.5,-423.25 317,-485 327.63,-499.75 342.11,-513.78 354.95,-524.83"/>
<polygon fill="#63b8ff" stroke="#63b8ff" points="352.18,-527.91 362.1,-531.65 356.67,-522.54 352.18,-527.91"/>
</a>
</g>
</g>
<!-- Node8 -->
<g id="Node000008" class="node">
<title>Node8</title>
<g id="a_Node000008"><a xlink:href="class_device_set.html#ae3031b84c03d467918bb40cfcfb3a8c4" target="_top" xlink:title=" ">
<polygon fill="white" stroke="#666666" points="453.38,-362 318.12,-362 318.12,-342 453.38,-342 453.38,-362"/>
<text text-anchor="middle" x="385.75" y="-348.5" font-family="Helvetica,sans-Serif" font-size="10.00">DeviceSet::get_current_freq</text>
</a>
</g>
</g>
<!-- Node2&#45;&gt;Node8 -->
<g id="edge7_Node000002_Node000008" class="edge">
<title>Node2&#45;&gt;Node8</title>
<g id="a_edge7_Node000002_Node000008"><a xlink:title=" ">
<path fill="none" stroke="#63b8ff" d="M251.84,-305.38C269.15,-313.55 294.3,-324.88 317,-333 322.39,-334.93 328.08,-336.79 333.78,-338.54"/>
<polygon fill="#63b8ff" stroke="#63b8ff" points="332.39,-342.08 342.97,-341.57 334.38,-335.37 332.39,-342.08"/>
</a>
</g>
</g>
<!-- Node2&#45;&gt;Node11 -->
<g id="edge22_Node000002_Node000011" class="edge">
<title>Node2&#45;&gt;Node11</title>
<g id="a_edge22_Node000002_Node000011"><a xlink:title=" ">
<path fill="none" stroke="#63b8ff" d="M238.46,-305.42C252.28,-322.61 282.56,-356.45 317,-371 382.59,-398.7 467.03,-398.09 516.75,-394.48"/>
<polygon fill="#63b8ff" stroke="#63b8ff" points="516.73,-397.92 526.41,-393.62 516.16,-390.94 516.73,-397.92"/>
</a>
</g>
</g>
<!-- Node16 -->
<g id="Node000016" class="node">
<title>Node16</title>
<g id="a_Node000016"><a xlink:href="class_vna_device.html#a57dfdf98bf3ce296b5d71672d98e6c2d" target="_top" xlink:title=" ">
<polygon fill="white" stroke="#666666" points="438.38,-324 333.12,-324 333.12,-304 438.38,-304 438.38,-324"/>
<text text-anchor="middle" x="385.75" y="-310.5" font-family="Helvetica,sans-Serif" font-size="10.00">VnaDevice::get_data</text>
</a>
</g>
</g>
<!-- Node2&#45;&gt;Node16 -->
<g id="edge15_Node000002_Node000016" class="edge">
<title>Node2&#45;&gt;Node16</title>
<g id="a_edge15_Node000002_Node000016"><a xlink:title=" ">
<path fill="none" stroke="#63b8ff" d="M281.43,-301.27C294.45,-302.88 308.6,-304.62 322.13,-306.29"/>
<polygon fill="#63b8ff" stroke="#63b8ff" points="321.46,-309.85 331.81,-307.6 322.32,-302.91 321.46,-309.85"/>
</a>
</g>
</g>
<!-- Node17 -->
<g id="Node000017" class="node">
<title>Node17</title>
<g id="a_Node000017"><a xlink:href="class_device_set.html#a1f38931a5bc51dd54a661412cca9959c" target="_top" xlink:title=" ">
<polygon fill="white" stroke="#666666" points="444.75,-58 326.75,-58 326.75,-38 444.75,-38 444.75,-58"/>
<text text-anchor="middle" x="385.75" y="-44.5" font-family="Helvetica,sans-Serif" font-size="10.00">DeviceSet::get_freq_list</text>
</a>
</g>
</g>
<!-- Node2&#45;&gt;Node17 -->
<g id="edge16_Node000002_Node000017" class="edge">
<title>Node2&#45;&gt;Node17</title>
<g id="a_edge16_Node000002_Node000017"><a xlink:title=" ">
<path fill="none" stroke="#63b8ff" d="M270.67,-284.62C274.57,-282.3 278.14,-279.47 281,-276 341.05,-203.35 253.86,-136.99 317,-67 317.68,-66.25 318.39,-65.52 319.12,-64.82"/>
<polygon fill="#63b8ff" stroke="#63b8ff" points="320.86,-67.15 326.8,-58.37 316.69,-61.53 320.86,-67.15"/>
</a>
</g>
</g>
<!-- Node21 -->
<g id="Node000021" class="node">
<title>Node21</title>
<g id="a_Node000021"><a xlink:href="class_vna_device.html#ae729cfabb9f5e9fc856e63351090bf8b" target="_top" xlink:title=" ">
<polygon fill="white" stroke="#666666" points="454.5,-286 317,-286 317,-266 454.5,-266 454.5,-286"/>
<text text-anchor="middle" x="385.75" y="-272.5" font-family="Helvetica,sans-Serif" font-size="10.00">VnaDevice::get_source_port</text>
</a>
</g>
</g>
<!-- Node2&#45;&gt;Node21 -->
<g id="edge20_Node000002_Node000021" class="edge">
<title>Node2&#45;&gt;Node21</title>
<g id="a_edge20_Node000002_Node000021"><a xlink:title=" ">
<path fill="none" stroke="#63b8ff" d="M281.43,-288.73C289.24,-287.76 297.46,-286.75 305.71,-285.74"/>
<polygon fill="#63b8ff" stroke="#63b8ff" points="306.04,-289.1 315.53,-284.4 305.18,-282.15 306.04,-289.1"/>
</a>
</g>
</g>
<!-- Node22 -->
<g id="Node000022" class="node">
<title>Node22</title>
<g id="a_Node000022"><a xlink:href="class_vna_device.html#ac77ad0af5fcffde75ad9e53d5b2b8189" target="_top" xlink:title=" ">
<polygon fill="white" stroke="#666666" points="426,-248 345.5,-248 345.5,-228 426,-228 426,-248"/>
<text text-anchor="middle" x="385.75" y="-234.5" font-family="Helvetica,sans-Serif" font-size="10.00">VnaDevice::init</text>
</a>
</g>
</g>
<!-- Node2&#45;&gt;Node22 -->
<g id="edge21_Node000002_Node000022" class="edge">
<title>Node2&#45;&gt;Node22</title>
<g id="a_edge21_Node000002_Node000022"><a xlink:title=" ">
<path fill="none" stroke="#63b8ff" d="M260.13,-284.56C267.05,-281.93 274.34,-279 281,-276 297.5,-268.58 300.2,-263.7 317,-257 322.74,-254.71 328.86,-252.58 334.99,-250.64"/>
<polygon fill="#63b8ff" stroke="#63b8ff" points="335.66,-253.79 344.23,-247.56 333.64,-247.09 335.66,-253.79"/>
</a>
</g>
</g>
<!-- Node23 -->
<g id="Node000023" class="node">
<title>Node23</title>
<g id="a_Node000023"><a xlink:href="class_gen_device.html#a3556133ef6b21e99831af31010de2492" target="_top" xlink:title=" ">
<polygon fill="white" stroke="#666666" points="430.12,-210 341.38,-210 341.38,-190 430.12,-190 430.12,-210"/>
<text text-anchor="middle" x="385.75" y="-196.5" font-family="Helvetica,sans-Serif" font-size="10.00">GenDevice::rf_off</text>
</a>
</g>
</g>
<!-- Node2&#45;&gt;Node23 -->
<g id="edge23_Node000002_Node000023" class="edge">
<title>Node2&#45;&gt;Node23</title>
<g id="a_edge23_Node000002_Node000023"><a xlink:title=" ">
<path fill="none" stroke="#63b8ff" d="M267.1,-284.52C272.06,-282.19 276.86,-279.37 281,-276 304.23,-257.07 292.97,-236.9 317,-219 321.19,-215.88 325.87,-213.27 330.75,-211.09"/>
<polygon fill="#63b8ff" stroke="#63b8ff" points="331.89,-214.02 339.99,-207.19 329.4,-207.48 331.89,-214.02"/>
</a>
</g>
</g>
<!-- Node24 -->
<g id="Node000024" class="node">
<title>Node24</title>
<g id="a_Node000024"><a xlink:href="class_vna_device.html#a925f4c70172ee7f9d24e19465c03b33b" target="_top" xlink:title=" ">
<polygon fill="white" stroke="#666666" points="429.75,-172 341.75,-172 341.75,-152 429.75,-152 429.75,-172"/>
<text text-anchor="middle" x="385.75" y="-158.5" font-family="Helvetica,sans-Serif" font-size="10.00">VnaDevice::rf_off</text>
</a>
</g>
</g>
<!-- Node2&#45;&gt;Node24 -->
<g id="edge24_Node000002_Node000024" class="edge">
<title>Node2&#45;&gt;Node24</title>
<g id="a_edge24_Node000002_Node000024"><a xlink:title=" ">
<path fill="none" stroke="#63b8ff" d="M269.03,-284.59C273.42,-282.27 277.55,-279.44 281,-276 312.97,-244.11 283.69,-211.48 317,-181 321.28,-177.08 326.31,-173.97 331.65,-171.49"/>
<polygon fill="#63b8ff" stroke="#63b8ff" points="332.46,-174.54 340.53,-167.68 329.94,-168.01 332.46,-174.54"/>
</a>
</g>
</g>
<!-- Node25 -->
<g id="Node000025" class="node">
<title>Node25</title>
<g id="a_Node000025"><a xlink:href="class_gen_device.html#a4f7c81bd6bb61ce8c639dfd9fdc16766" target="_top" xlink:title=" ">
<polygon fill="white" stroke="#666666" points="430.5,-134 341,-134 341,-114 430.5,-114 430.5,-134"/>
<text text-anchor="middle" x="385.75" y="-120.5" font-family="Helvetica,sans-Serif" font-size="10.00">GenDevice::rf_on</text>
</a>
</g>
</g>
<!-- Node2&#45;&gt;Node25 -->
<g id="edge25_Node000002_Node000025" class="edge">
<title>Node2&#45;&gt;Node25</title>
<g id="a_edge25_Node000002_Node000025"><a xlink:title=" ">
<path fill="none" stroke="#63b8ff" d="M269.85,-284.62C274,-282.3 277.85,-279.47 281,-276 322.19,-230.68 273.89,-186.5 317,-143 320.93,-139.03 325.62,-135.88 330.66,-133.37"/>
<polygon fill="#63b8ff" stroke="#63b8ff" points="331.75,-136.3 339.71,-129.3 329.13,-129.81 331.75,-136.3"/>
</a>
</g>
</g>
<!-- Node26 -->
<g id="Node000026" class="node">
<title>Node26</title>
<g id="a_Node000026"><a xlink:href="class_vna_device.html#a54c899426e88e979532978d36fcfa582" target="_top" xlink:title=" ">
<polygon fill="white" stroke="#666666" points="430.12,-96 341.38,-96 341.38,-76 430.12,-76 430.12,-96"/>
<text text-anchor="middle" x="385.75" y="-82.5" font-family="Helvetica,sans-Serif" font-size="10.00">VnaDevice::rf_on</text>
</a>
</g>
</g>
<!-- Node2&#45;&gt;Node26 -->
<g id="edge26_Node000002_Node000026" class="edge">
<title>Node2&#45;&gt;Node26</title>
<g id="a_edge26_Node000002_Node000026"><a xlink:title=" ">
<path fill="none" stroke="#63b8ff" d="M270.54,-284.51C274.47,-282.21 278.07,-279.41 281,-276 331.58,-217.06 263.92,-161.7 317,-105 321.02,-100.71 325.92,-97.36 331.23,-94.75"/>
<polygon fill="#63b8ff" stroke="#63b8ff" points="332.13,-97.76 340.13,-90.81 329.54,-91.25 332.13,-97.76"/>
</a>
</g>
</g>
<!-- Node27 -->
<g id="Node000027" class="node">
<title>Node27</title>
<g id="a_Node000027"><a xlink:href="class_vna_device.html#a2141273efb5e7aa19f67bf06dc323546" target="_top" xlink:title=" ">
<polygon fill="white" stroke="#666666" points="433.12,-476 338.38,-476 338.38,-456 433.12,-456 433.12,-476"/>
<text text-anchor="middle" x="385.75" y="-462.5" font-family="Helvetica,sans-Serif" font-size="10.00">VnaDevice::trigger</text>
</a>
</g>
</g>
<!-- Node2&#45;&gt;Node27 -->
<g id="edge27_Node000002_Node000027" class="edge">
<title>Node2&#45;&gt;Node27</title>
<g id="a_edge27_Node000002_Node000027"><a xlink:title=" ">
<path fill="none" stroke="#63b8ff" d="M233.35,-305.32C241.49,-332.8 267.48,-408.3 317,-447 320.37,-449.63 324.08,-451.9 327.98,-453.86"/>
<polygon fill="#63b8ff" stroke="#63b8ff" points="326.41,-457.41 336.98,-458.09 329.14,-450.97 326.41,-457.41"/>
</a>
</g>
</g>
<!-- Node5 -->
<g id="Node000005" class="node">
<title>Node5</title>
<g id="a_Node000005"><a xlink:href="class_rbd_device.html#ae5b34a03ceb0a14f39724a60fcd6ac3b" target="_top" xlink:title=" ">
<polygon fill="white" stroke="#666666" points="613.38,-608 505.88,-608 505.88,-576 613.38,-576 613.38,-608"/>
<text text-anchor="start" x="513.88" y="-594.5" font-family="Helvetica,sans-Serif" font-size="10.00">RbdDevice::get_axes</text>
<text text-anchor="middle" x="559.62" y="-582.5" font-family="Helvetica,sans-Serif" font-size="10.00">_count</text>
</a>
</g>
</g>
<!-- Node4&#45;&gt;Node5 -->
<g id="edge4_Node000004_Node000005" class="edge">
<title>Node4&#45;&gt;Node5</title>
<g id="a_edge4_Node000004_Node000005"><a xlink:title=" ">
<path fill="none" stroke="#63b8ff" d="M443.03,-562.41C459.65,-566.66 477.96,-571.35 495,-575.71"/>
<polygon fill="#63b8ff" stroke="#63b8ff" points="493.88,-579.29 504.43,-578.38 495.61,-572.51 493.88,-579.29"/>
</a>
</g>
</g>
<!-- Node6 -->
<g id="Node000006" class="node">
<title>Node6</title>
<g id="a_Node000006"><a xlink:href="class_rbd_device.html#a5ae75a0b5418270decd335a47c853cad" target="_top" xlink:title=" ">
<polygon fill="white" stroke="#666666" points="610.75,-558 508.5,-558 508.5,-538 610.75,-538 610.75,-558"/>
<text text-anchor="middle" x="559.62" y="-544.5" font-family="Helvetica,sans-Serif" font-size="10.00">RbdDevice::get_pos</text>
</a>
</g>
</g>
<!-- Node4&#45;&gt;Node6 -->
<g id="edge5_Node000004_Node000006" class="edge">
<title>Node4&#45;&gt;Node6</title>
<g id="a_edge5_Node000004_Node000006"><a xlink:title=" ">
<path fill="none" stroke="#63b8ff" d="M443.03,-548C460.38,-548 479.57,-548 497.24,-548"/>
<polygon fill="#63b8ff" stroke="#63b8ff" points="497.02,-551.5 507.02,-548 497.02,-544.5 497.02,-551.5"/>
</a>
</g>
</g>
<!-- Node7 -->
<g id="Node000007" class="node">
<title>Node7</title>
<g id="a_Node000007"><a xlink:href="class_rbd_device.html#a7f0fc01b4d9a94bae816f55828bd74e9" target="_top" xlink:title=" ">
<polygon fill="white" stroke="#666666" points="622.38,-520 496.88,-520 496.88,-500 622.38,-500 622.38,-520"/>
<text text-anchor="middle" x="559.62" y="-506.5" font-family="Helvetica,sans-Serif" font-size="10.00">RbdDevice::is_connected</text>
</a>
</g>
</g>
<!-- Node4&#45;&gt;Node7 -->
<g id="edge6_Node000004_Node000007" class="edge">
<title>Node4&#45;&gt;Node7</title>
<g id="a_edge6_Node000004_Node000007"><a xlink:title=" ">
<path fill="none" stroke="#63b8ff" d="M443.03,-535.56C461.44,-531.49 481.93,-526.96 500.48,-522.86"/>
<polygon fill="#63b8ff" stroke="#63b8ff" points="501.14,-526.07 510.14,-520.5 499.62,-519.24 501.14,-526.07"/>
</a>
</g>
</g>
<!-- Node9 -->
<g id="Node000009" class="node">
<title>Node9</title>
<g id="a_Node000009"><a xlink:href="class_gen_device.html#a497e5597ec277ac910051ee066920a8f" target="_top" xlink:title=" ">
<polygon fill="white" stroke="#666666" points="628.75,-324 490.5,-324 490.5,-304 628.75,-304 628.75,-324"/>
<text text-anchor="middle" x="559.62" y="-310.5" font-family="Helvetica,sans-Serif" font-size="10.00">GenDevice::get_current_freq</text>
</a>
</g>
</g>
<!-- Node8&#45;&gt;Node9 -->
<g id="edge8_Node000008_Node000009" class="edge">
<title>Node8&#45;&gt;Node9</title>
<g id="a_edge8_Node000008_Node000009"><a xlink:title=" ">
<path fill="none" stroke="#63b8ff" d="M434.17,-341.52C454.74,-336.97 479.02,-331.6 500.65,-326.82"/>
<polygon fill="#63b8ff" stroke="#63b8ff" points="501.35,-330.03 510.36,-324.45 499.84,-323.19 501.35,-330.03"/>
</a>
</g>
</g>
<!-- Node10 -->
<g id="Node000010" class="node">
<title>Node10</title>
<g id="a_Node000010"><a xlink:href="class_visa_device.html#aa53bc03ce9be2af514335565d585414e" target="_top" xlink:title=" ">
<polygon fill="white" stroke="#666666" points="623.5,-362 495.75,-362 495.75,-342 623.5,-342 623.5,-362"/>
<text text-anchor="middle" x="559.62" y="-348.5" font-family="Helvetica,sans-Serif" font-size="10.00">VisaDevice::is_connected</text>
</a>
</g>
</g>
<!-- Node8&#45;&gt;Node10 -->
<g id="edge9_Node000008_Node000010" class="edge">
<title>Node8&#45;&gt;Node10</title>
<g id="a_edge9_Node000008_Node000010"><a xlink:title=" ">
<path fill="none" stroke="#63b8ff" d="M453.69,-352C463.91,-352 474.5,-352 484.85,-352"/>
<polygon fill="#63b8ff" stroke="#63b8ff" points="484.52,-355.5 494.52,-352 484.52,-348.5 484.52,-355.5"/>
</a>
</g>
</g>
<!-- Node8&#45;&gt;Node11 -->
<g id="edge10_Node000008_Node000011" class="edge">
<title>Node8&#45;&gt;Node11</title>
<g id="a_edge10_Node000008_Node000011"><a xlink:title=" ">
<path fill="none" stroke="#63b8ff" d="M434.17,-362.48C460.05,-368.21 491.81,-375.23 516.76,-380.74"/>
<polygon fill="#63b8ff" stroke="#63b8ff" points="515.83,-384.34 526.35,-383.09 517.35,-377.51 515.83,-384.34"/>
</a>
</g>
</g>
<!-- Node12 -->
<g id="Node000012" class="node">
<title>Node12</title>
<g id="a_Node000012"><a xlink:href="logger_8hpp.html#a49284b7befa8e31f81e01ee8f3735dd0" target="_top" xlink:title="Функция, которая снимает значение текущего времени и конвертирует его в строку с заданным шаблоном.">
<polygon fill="white" stroke="#666666" points="770.38,-457 681.62,-457 681.62,-437 770.38,-437 770.38,-457"/>
<text text-anchor="middle" x="726" y="-443.5" font-family="Helvetica,sans-Serif" font-size="10.00">get_current_time</text>
</a>
</g>
</g>
<!-- Node11&#45;&gt;Node12 -->
<g id="edge11_Node000011_Node000012" class="edge">
<title>Node11&#45;&gt;Node12</title>
<g id="a_edge11_Node000011_Node000012"><a xlink:title=" ">
<path fill="none" stroke="#63b8ff" d="M588.35,-400.5C609.26,-408.32 638.7,-419.14 664.75,-428 669.88,-429.74 675.26,-431.52 680.62,-433.25"/>
<polygon fill="#63b8ff" stroke="#63b8ff" points="679.23,-436.8 689.82,-436.51 681.36,-430.13 679.23,-436.8"/>
</a>
</g>
</g>
<!-- Node13 -->
<g id="Node000013" class="node">
<title>Node13</title>
<g id="a_Node000013"><a xlink:href="class_logger.html#a6edb7b263f080d417b82a537ed50fee4" target="_top" xlink:title="Функция, возвращающая тег в зависимости от уровня логирования и от назначения тега.">
<polygon fill="white" stroke="#666666" points="767.75,-419 684.25,-419 684.25,-399 767.75,-399 767.75,-419"/>
<text text-anchor="middle" x="726" y="-405.5" font-family="Helvetica,sans-Serif" font-size="10.00">Logger::get_tag</text>
</a>
</g>
</g>
<!-- Node11&#45;&gt;Node13 -->
<g id="edge12_Node000011_Node000013" class="edge">
<title>Node11&#45;&gt;Node13</title>
<g id="a_edge12_Node000011_Node000013"><a xlink:title=" ">
<path fill="none" stroke="#63b8ff" d="M591.93,-393.62C614.85,-396.27 646.48,-399.92 673.15,-403.01"/>
<polygon fill="#63b8ff" stroke="#63b8ff" points="672.52,-406.57 682.86,-404.24 673.33,-399.62 672.52,-406.57"/>
</a>
</g>
</g>
<!-- Node14 -->
<g id="Node000014" class="node">
<title>Node14</title>
<g id="a_Node000014"><a xlink:href="class_logger.html#a4825613142ebb093bf8fa26f21f7f3fc" target="_top" xlink:title="Функция, которая выводит сообщение в консоль.">
<polygon fill="white" stroke="#666666" points="787.25,-381 664.75,-381 664.75,-361 787.25,-361 787.25,-381"/>
<text text-anchor="middle" x="726" y="-367.5" font-family="Helvetica,sans-Serif" font-size="10.00">Logger::print_to_console</text>
</a>
</g>
</g>
<!-- Node11&#45;&gt;Node14 -->
<g id="edge13_Node000011_Node000014" class="edge">
<title>Node11&#45;&gt;Node14</title>
<g id="a_edge13_Node000011_Node000014"><a xlink:title=" ">
<path fill="none" stroke="#63b8ff" d="M591.93,-386.38C609.46,-384.36 632.08,-381.74 653.69,-379.24"/>
<polygon fill="#63b8ff" stroke="#63b8ff" points="653.99,-382.62 663.52,-377.99 653.18,-375.66 653.99,-382.62"/>
</a>
</g>
</g>
<!-- Node15 -->
<g id="Node000015" class="node">
<title>Node15</title>
<g id="a_Node000015"><a xlink:href="class_logger.html#a999bb33f7cf079cb98f32fae6016a2f3" target="_top" xlink:title="Функция, которая записывает сообщение в файл.">
<polygon fill="white" stroke="#666666" points="776.38,-343 675.62,-343 675.62,-323 776.38,-323 776.38,-343"/>
<text text-anchor="middle" x="726" y="-329.5" font-family="Helvetica,sans-Serif" font-size="10.00">Logger::print_to_file</text>
</a>
</g>
</g>
<!-- Node11&#45;&gt;Node15 -->
<g id="edge14_Node000011_Node000015" class="edge">
<title>Node11&#45;&gt;Node15</title>
<g id="a_edge14_Node000011_Node000015"><a xlink:title=" ">
<path fill="none" stroke="#63b8ff" d="M591.95,-382.76C603.68,-379.67 617,-375.68 628.75,-371 645.56,-364.31 648.06,-358.97 664.75,-352 669.08,-350.19 673.65,-348.46 678.25,-346.82"/>
<polygon fill="#63b8ff" stroke="#63b8ff" points="678.95,-349.94 687.3,-343.41 676.7,-343.31 678.95,-349.94"/>
</a>
</g>
</g>
<!-- Node18 -->
<g id="Node000018" class="node">
<title>Node18</title>
<g id="a_Node000018"><a xlink:href="class_vna_device.html#a596313270ef036ba566dd7975008b1d5" target="_top" xlink:title=" ">
<polygon fill="white" stroke="#666666" points="622.75,-96 496.5,-96 496.5,-76 622.75,-76 622.75,-96"/>
<text text-anchor="middle" x="559.62" y="-82.5" font-family="Helvetica,sans-Serif" font-size="10.00">VnaDevice::get_freq_step</text>
</a>
</g>
</g>
<!-- Node17&#45;&gt;Node18 -->
<g id="edge17_Node000017_Node000018" class="edge">
<title>Node17&#45;&gt;Node18</title>
<g id="a_edge17_Node000017_Node000018"><a xlink:title=" ">
<path fill="none" stroke="#63b8ff" d="M434.17,-58.48C454.74,-63.03 479.02,-68.4 500.65,-73.18"/>
<polygon fill="#63b8ff" stroke="#63b8ff" points="499.84,-76.81 510.36,-75.55 501.35,-69.97 499.84,-76.81"/>
</a>
</g>
</g>
<!-- Node19 -->
<g id="Node000019" class="node">
<title>Node19</title>
<g id="a_Node000019"><a xlink:href="class_vna_device.html#afdeaa8974791094f16a034695d9f7035" target="_top" xlink:title=" ">
<polygon fill="white" stroke="#666666" points="616,-58 503.25,-58 503.25,-38 616,-38 616,-58"/>
<text text-anchor="middle" x="559.62" y="-44.5" font-family="Helvetica,sans-Serif" font-size="10.00">VnaDevice::get_points</text>
</a>
</g>
</g>
<!-- Node17&#45;&gt;Node19 -->
<g id="edge18_Node000017_Node000019" class="edge">
<title>Node17&#45;&gt;Node19</title>
<g id="a_edge18_Node000017_Node000019"><a xlink:title=" ">
<path fill="none" stroke="#63b8ff" d="M444.94,-48C460.13,-48 476.62,-48 492.2,-48"/>
<polygon fill="#63b8ff" stroke="#63b8ff" points="491.82,-51.5 501.82,-48 491.82,-44.5 491.82,-51.5"/>
</a>
</g>
</g>
<!-- Node20 -->
<g id="Node000020" class="node">
<title>Node20</title>
<g id="a_Node000020"><a xlink:href="class_vna_device.html#a8fe6434c79a0188c98fce52d152aef76" target="_top" xlink:title=" ">
<polygon fill="white" stroke="#666666" points="623.12,-20 496.12,-20 496.12,0 623.12,0 623.12,-20"/>
<text text-anchor="middle" x="559.62" y="-6.5" font-family="Helvetica,sans-Serif" font-size="10.00">VnaDevice::get_start_freq</text>
</a>
</g>
</g>
<!-- Node17&#45;&gt;Node20 -->
<g id="edge19_Node000017_Node000020" class="edge">
<title>Node17&#45;&gt;Node20</title>
<g id="a_edge19_Node000017_Node000020"><a xlink:title=" ">
<path fill="none" stroke="#63b8ff" d="M434.17,-37.52C454.74,-32.97 479.02,-27.6 500.65,-22.82"/>
<polygon fill="#63b8ff" stroke="#63b8ff" points="501.35,-26.03 510.36,-20.45 499.84,-19.19 501.35,-26.03"/>
</a>
</g>
</g>
<!-- Node28&#45;&gt;Node28 -->
<g id="edge30_Node000028_Node000028" class="edge">
<title>Node28&#45;&gt;Node28</title>
<g id="a_edge30_Node000028_Node000028"><a xlink:title=" ">
<path fill="none" stroke="#63b8ff" d="M204.67,-249.34C194.06,-257.98 202.34,-267 229.5,-267 245.2,-267 254.59,-263.98 257.67,-259.77"/>
<polygon fill="#63b8ff" stroke="#63b8ff" points="260.71,-258.79 254.33,-250.34 254.05,-260.93 260.71,-258.79"/>
</a>
</g>
</g>
</g>
</svg>

<g id="navigator" transform="translate(0 0)" fill="#404254">
  <rect fill="#f2f5e9" fill-opacity="0.5" stroke="#606060" stroke-width=".5" x="0" y="0" width="60" height="60"/>
  <use id="zoomplus" xlink:href="#zoomPlus" x="17" y="9" onmousedown="handleZoom(evt,'in')"/>
  <use id="zoomminus" xlink:href="#zoomMin" x="42" y="9" onmousedown="handleZoom(evt,'out')"/>
  <use id="reset" xlink:href="#resetDef" x="30" y="36" onmousedown="handleReset()"/>
   <use id="arrowup" xlink:href="#arrowUp" x="0" y="0" onmousedown="handlePan(0,-1)"/>
  <use id="arrowright" xlink:href="#arrowRight" x="0" y="0" onmousedown="handlePan(1,0)"/>
  <use id="arrowdown" xlink:href="#arrowDown" x="0" y="0" onmousedown="handlePan(0,1)"/>
  <use id="arrowleft" xlink:href="#arrowLeft" x="0" y="0" onmousedown="handlePan(-1,0)"/>
</g>
<svg viewBox="0 0 15 15" width="100%" height="30px" preserveAspectRatio="xMaxYMin meet">
 <g id="arrow_out" transform="scale(0.3 0.3)">
  <a xlink:href="class_task_manager_a7b3231694b87f589a6e4b9a01e67bfe9_cgraph_org.svg" target="_base">
   <rect id="button" ry="5" rx="5" y="6" x="6" height="38" width="38"
        fill="#f2f5e9" fill-opacity="0.5" stroke="#606060" stroke-width="1.0"/>
   <path id="arrow"
     d="M 11.500037,31.436501 C 11.940474,20.09759 22.043105,11.32322 32.158766,21.979434 L 37.068811,17.246167 C 37.068811,17.246167 37.088388,32 37.088388,32 L 22.160133,31.978069 C 22.160133,31.978069 26.997745,27.140456 26.997745,27.140456 C 18.528582,18.264221 13.291696,25.230495 11.500037,31.436501 z"
     style="fill:#404040;"/>
  </a>
 </g>
</svg>

<style type='text/css'>
<![CDATA[
[data-mouse-over-selected='false'] { opacity: 0.7; }
[data-mouse-over-selected='true']  { opacity: 1.0; }
]]>
</style>
<script type="application/ecmascript"><![CDATA[
document.addEventListener('DOMContentLoaded', (event) => {
  highlightEdges();
  highlightAdjacentNodes();
});
]]></script>
</svg>
