<?xml version="1.0" encoding="UTF-8" standalone="no"?>
<!DOCTYPE svg PUBLIC "-//W3C//DTD SVG 1.1//EN"
 "http://www.w3.org/Graphics/SVG/1.1/DTD/svg11.dtd">
<!-- Generated by graphviz version 8.0.5 (20230430.1635)
 -->
<!-- Title: src/devices/rbd/demo_rdb.hpp Pages: 1 -->
<svg width="435pt" height="276pt"
 viewBox="0.00 0.00 435.12 276.00" xmlns="http://www.w3.org/2000/svg" xmlns:xlink="http://www.w3.org/1999/xlink">
<g id="graph0" class="graph" transform="scale(1 1) rotate(0) translate(4 272)">
<title>src/devices/rbd/demo_rdb.hpp</title>
<!-- Node1 -->
<g id="Node000001" class="node">
<title>Node1</title>
<g id="a_Node000001"><a xlink:title=" ">
<polygon fill="#999999" stroke="#666666" points="263.75,-268 155.5,-268 155.5,-236 263.75,-236 263.75,-268"/>
<text text-anchor="start" x="163.5" y="-254.5" font-family="Helvetica,sans-Serif" font-size="10.00">src/devices/rbd/demo</text>
<text text-anchor="middle" x="209.62" y="-242.5" font-family="Helvetica,sans-Serif" font-size="10.00">_rdb.hpp</text>
</a>
</g>
</g>
<!-- Node2 -->
<g id="Node000002" class="node">
<title>Node2</title>
<g id="a_Node000002"><a xlink:title=" ">
<polygon fill="#e0e0e0" stroke="#999999" points="92.12,-194 49.12,-194 49.12,-174 92.12,-174 92.12,-194"/>
<text text-anchor="middle" x="70.62" y="-180.5" font-family="Helvetica,sans-Serif" font-size="10.00">thread</text>
</a>
</g>
</g>
<!-- Node1&#45;&gt;Node2 -->
<g id="edge1_Node000001_Node000002" class="edge">
<title>Node1&#45;&gt;Node2</title>
<g id="a_edge1_Node000001_Node000002"><a xlink:title=" ">
<path fill="none" stroke="#63b8ff" d="M176.98,-235.68C155.53,-225.6 126.88,-212.07 101.62,-200 101.04,-199.72 100.44,-199.43 99.84,-199.14"/>
<polygon fill="#63b8ff" stroke="#63b8ff" points="101.49,-195.57 90.96,-194.39 98.45,-201.88 101.49,-195.57"/>
</a>
</g>
</g>
<!-- Node3 -->
<g id="Node000003" class="node">
<title>Node3</title>
<g id="a_Node000003"><a xlink:href="rbd__device_8hpp.html" target="_top" xlink:title=" ">
<polygon fill="white" stroke="#666666" points="190.88,-194 110.38,-194 110.38,-174 190.88,-174 190.88,-194"/>
<text text-anchor="middle" x="150.62" y="-180.5" font-family="Helvetica,sans-Serif" font-size="10.00">rbd_device.hpp</text>
</a>
</g>
</g>
<!-- Node1&#45;&gt;Node3 -->
<g id="edge2_Node000001_Node000003" class="edge">
<title>Node1&#45;&gt;Node3</title>
<g id="a_edge2_Node000001_Node000003"><a xlink:title=" ">
<path fill="none" stroke="#63b8ff" d="M195.94,-235.69C187.01,-225.7 175.32,-212.63 166.05,-202.26"/>
<polygon fill="#63b8ff" stroke="#63b8ff" points="169.23,-200.44 159.95,-195.32 164.01,-205.1 169.23,-200.44"/>
</a>
</g>
</g>
<!-- Node15 -->
<g id="Node000015" class="node">
<title>Node15</title>
<g id="a_Node000015"><a xlink:href="exceptions_8hpp.html" target="_top" xlink:title="Заголовочный файл, содержащий класс antestl_exsceptions, сообщения исключений и коды исключений">
<polygon fill="white" stroke="#666666" points="330.12,-194 209.12,-194 209.12,-174 330.12,-174 330.12,-194"/>
<text text-anchor="middle" x="269.62" y="-180.5" font-family="Helvetica,sans-Serif" font-size="10.00">../../utils/exceptions.hpp</text>
</a>
</g>
</g>
<!-- Node1&#45;&gt;Node15 -->
<g id="edge15_Node000001_Node000015" class="edge">
<title>Node1&#45;&gt;Node15</title>
<g id="a_edge15_Node000001_Node000015"><a xlink:title=" ">
<path fill="none" stroke="#63b8ff" d="M223.54,-235.69C232.63,-225.7 244.51,-212.63 253.93,-202.26"/>
<polygon fill="#63b8ff" stroke="#63b8ff" points="256.02,-205.07 260.16,-195.32 250.84,-200.36 256.02,-205.07"/>
</a>
</g>
</g>
<!-- Node16 -->
<g id="Node000016" class="node">
<title>Node16</title>
<g id="a_Node000016"><a xlink:href="string__utils_8hpp.html" target="_top" xlink:title=" ">
<polygon fill="white" stroke="#666666" points="427.12,-200 348.12,-200 348.12,-168 427.12,-168 427.12,-200"/>
<text text-anchor="start" x="356.12" y="-186.5" font-family="Helvetica,sans-Serif" font-size="10.00">../../utils/string</text>
<text text-anchor="middle" x="387.62" y="-174.5" font-family="Helvetica,sans-Serif" font-size="10.00">_utils.hpp</text>
</a>
</g>
</g>
<!-- Node1&#45;&gt;Node16 -->
<g id="edge16_Node000001_Node000016" class="edge">
<title>Node1&#45;&gt;Node16</title>
<g id="a_edge16_Node000001_Node000016"><a xlink:title=" ">
<path fill="none" stroke="#63b8ff" d="M251.36,-235.53C277.14,-225.96 310.39,-213.64 337.58,-203.55"/>
<polygon fill="#63b8ff" stroke="#63b8ff" points="338.52,-206.57 346.68,-199.81 336.09,-200.01 338.52,-206.57"/>
</a>
</g>
</g>
<!-- Node4 -->
<g id="Node000004" class="node">
<title>Node4</title>
<g id="a_Node000004"><a xlink:href="visa__device_8hpp.html" target="_top" xlink:title=" ">
<polygon fill="white" stroke="#666666" points="177.88,-132 85.38,-132 85.38,-112 177.88,-112 177.88,-132"/>
<text text-anchor="middle" x="131.62" y="-118.5" font-family="Helvetica,sans-Serif" font-size="10.00">../visa_device.hpp</text>
</a>
</g>
</g>
<!-- Node3&#45;&gt;Node4 -->
<g id="edge3_Node000003_Node000004" class="edge">
<title>Node3&#45;&gt;Node4</title>
<g id="a_edge3_Node000003_Node000004"><a xlink:title=" ">
<path fill="none" stroke="#63b8ff" d="M147.66,-173.62C145.02,-165.3 141.08,-152.86 137.77,-142.4"/>
<polygon fill="#63b8ff" stroke="#63b8ff" points="140.87,-141.59 134.51,-133.11 134.19,-143.7 140.87,-141.59"/>
</a>
</g>
</g>
<!-- Node14 -->
<g id="Node000014" class="node">
<title>Node14</title>
<g id="a_Node000014"><a xlink:title=" ">
<polygon fill="#e0e0e0" stroke="#999999" points="313.38,-132 271.88,-132 271.88,-112 313.38,-112 313.38,-132"/>
<text text-anchor="middle" x="292.62" y="-118.5" font-family="Helvetica,sans-Serif" font-size="10.00">vector</text>
</a>
</g>
</g>
<!-- Node3&#45;&gt;Node14 -->
<g id="edge14_Node000003_Node000014" class="edge">
<title>Node3&#45;&gt;Node14</title>
<g id="a_edge14_Node000003_Node000014"><a xlink:title=" ">
<path fill="none" stroke="#63b8ff" d="M172.81,-173.62C196.64,-163.56 234.68,-147.48 261.49,-136.15"/>
<polygon fill="#63b8ff" stroke="#63b8ff" points="262.67,-139.03 270.52,-131.92 259.95,-132.59 262.67,-139.03"/>
</a>
</g>
</g>
<!-- Node5 -->
<g id="Node000005" class="node">
<title>Node5</title>
<g id="a_Node000005"><a xlink:title=" ">
<polygon fill="#e0e0e0" stroke="#999999" points="78.12,-20 35.12,-20 35.12,0 78.12,0 78.12,-20"/>
<text text-anchor="middle" x="56.62" y="-6.5" font-family="Helvetica,sans-Serif" font-size="10.00">format</text>
</a>
</g>
</g>
<!-- Node4&#45;&gt;Node5 -->
<g id="edge4_Node000004_Node000005" class="edge">
<title>Node4&#45;&gt;Node5</title>
<g id="a_edge4_Node000004_Node000005"><a xlink:title=" ">
<path fill="none" stroke="#63b8ff" d="M130.7,-111.87C129,-98.58 124.38,-73.59 112.62,-56 104.8,-44.29 92.98,-34.16 82.22,-26.48"/>
<polygon fill="#63b8ff" stroke="#63b8ff" points="84.41,-23.07 74.15,-20.4 80.5,-28.88 84.41,-23.07"/>
</a>
</g>
</g>
<!-- Node6 -->
<g id="Node000006" class="node">
<title>Node6</title>
<g id="a_Node000006"><a xlink:title=" ">
<polygon fill="#e0e0e0" stroke="#999999" points="45.25,-76 0,-76 0,-56 45.25,-56 45.25,-76"/>
<text text-anchor="middle" x="22.62" y="-62.5" font-family="Helvetica,sans-Serif" font-size="10.00">cstring</text>
</a>
</g>
</g>
<!-- Node4&#45;&gt;Node6 -->
<g id="edge5_Node000004_Node000006" class="edge">
<title>Node4&#45;&gt;Node6</title>
<g id="a_edge5_Node000004_Node000006"><a xlink:title=" ">
<path fill="none" stroke="#63b8ff" d="M112.64,-111.59C95.78,-103.24 70.9,-90.92 51.57,-81.34"/>
<polygon fill="#63b8ff" stroke="#63b8ff" points="53.27,-77.78 42.76,-76.48 50.17,-84.05 53.27,-77.78"/>
</a>
</g>
</g>
<!-- Node7 -->
<g id="Node000007" class="node">
<title>Node7</title>
<g id="a_Node000007"><a xlink:title=" ">
<polygon fill="#e0e0e0" stroke="#999999" points="104,-76 63.25,-76 63.25,-56 104,-56 104,-76"/>
<text text-anchor="middle" x="83.62" y="-62.5" font-family="Helvetica,sans-Serif" font-size="10.00">visa.h</text>
</a>
</g>
</g>
<!-- Node4&#45;&gt;Node7 -->
<g id="edge6_Node000004_Node000007" class="edge">
<title>Node4&#45;&gt;Node7</title>
<g id="a_edge6_Node000004_Node000007"><a xlink:title=" ">
<path fill="none" stroke="#63b8ff" d="M123.26,-111.59C116.59,-104.08 107.05,-93.35 99.01,-84.3"/>
<polygon fill="#63b8ff" stroke="#63b8ff" points="102.15,-82.45 92.89,-77.3 96.92,-87.1 102.15,-82.45"/>
</a>
</g>
</g>
<!-- Node8 -->
<g id="Node000008" class="node">
<title>Node8</title>
<g id="a_Node000008"><a xlink:href="logger_8hpp.html" target="_top" xlink:title="Библиотека, осуществляющая логирование">
<polygon fill="white" stroke="#666666" points="251.12,-76 160.12,-76 160.12,-56 251.12,-56 251.12,-76"/>
<text text-anchor="middle" x="205.62" y="-62.5" font-family="Helvetica,sans-Serif" font-size="10.00">../utils/logger.hpp</text>
</a>
</g>
</g>
<!-- Node4&#45;&gt;Node8 -->
<g id="edge7_Node000004_Node000008" class="edge">
<title>Node4&#45;&gt;Node8</title>
<g id="a_edge7_Node000004_Node000008"><a xlink:title=" ">
<path fill="none" stroke="#63b8ff" d="M144.51,-111.59C155.44,-103.62 171.34,-92.02 184.19,-82.64"/>
<polygon fill="#63b8ff" stroke="#63b8ff" points="185.87,-85.02 191.88,-76.3 181.74,-79.37 185.87,-85.02"/>
</a>
</g>
</g>
<!-- Node8&#45;&gt;Node5 -->
<g id="edge13_Node000008_Node000005" class="edge">
<title>Node8&#45;&gt;Node5</title>
<g id="a_edge13_Node000008_Node000005"><a xlink:title=" ">
<path fill="none" stroke="#63b8ff" d="M179.67,-55.59C154.35,-46.42 115.78,-32.44 88.58,-22.58"/>
<polygon fill="#63b8ff" stroke="#63b8ff" points="90,-19.01 79.41,-18.9 87.62,-25.59 90,-19.01"/>
</a>
</g>
</g>
<!-- Node9 -->
<g id="Node000009" class="node">
<title>Node9</title>
<g id="a_Node000009"><a xlink:title=" ">
<polygon fill="#e0e0e0" stroke="#999999" points="417.62,-20 377.62,-20 377.62,0 417.62,0 417.62,-20"/>
<text text-anchor="middle" x="397.62" y="-6.5" font-family="Helvetica,sans-Serif" font-size="10.00">string</text>
</a>
</g>
</g>
<!-- Node8&#45;&gt;Node9 -->
<g id="edge8_Node000008_Node000009" class="edge">
<title>Node8&#45;&gt;Node9</title>
<g id="a_edge8_Node000008_Node000009"><a xlink:title=" ">
<path fill="none" stroke="#63b8ff" d="M241.01,-55.58C271.89,-47.28 318.16,-34.66 366.93,-20.43"/>
<polygon fill="#63b8ff" stroke="#63b8ff" points="367.76,-23.55 376.37,-17.38 365.79,-16.83 367.76,-23.55"/>
</a>
</g>
</g>
<!-- Node10 -->
<g id="Node000010" class="node">
<title>Node10</title>
<g id="a_Node000010"><a xlink:title=" ">
<polygon fill="#e0e0e0" stroke="#999999" points="359.38,-20 305.88,-20 305.88,0 359.38,0 359.38,-20"/>
<text text-anchor="middle" x="332.62" y="-6.5" font-family="Helvetica,sans-Serif" font-size="10.00">iostream</text>
</a>
</g>
</g>
<!-- Node8&#45;&gt;Node10 -->
<g id="edge9_Node000008_Node000010" class="edge">
<title>Node8&#45;&gt;Node10</title>
<g id="a_edge9_Node000008_Node000010"><a xlink:title=" ">
<path fill="none" stroke="#63b8ff" d="M227.75,-55.59C247.84,-47.05 277.72,-34.35 300.45,-24.68"/>
<polygon fill="#63b8ff" stroke="#63b8ff" points="301.5,-27.61 309.33,-20.48 298.76,-21.17 301.5,-27.61"/>
</a>
</g>
</g>
<!-- Node11 -->
<g id="Node000011" class="node">
<title>Node11</title>
<g id="a_Node000011"><a xlink:title=" ">
<polygon fill="#e0e0e0" stroke="#999999" points="147.25,-20 96,-20 96,0 147.25,0 147.25,-20"/>
<text text-anchor="middle" x="121.62" y="-6.5" font-family="Helvetica,sans-Serif" font-size="10.00">sstream</text>
</a>
</g>
</g>
<!-- Node8&#45;&gt;Node11 -->
<g id="edge10_Node000008_Node000011" class="edge">
<title>Node8&#45;&gt;Node11</title>
<g id="a_edge10_Node000008_Node000011"><a xlink:title=" ">
<path fill="none" stroke="#63b8ff" d="M190.99,-55.59C178.42,-47.51 160.06,-35.71 145.38,-26.27"/>
<polygon fill="#63b8ff" stroke="#63b8ff" points="147.68,-22.94 137.37,-20.48 143.89,-28.83 147.68,-22.94"/>
</a>
</g>
</g>
<!-- Node12 -->
<g id="Node000012" class="node">
<title>Node12</title>
<g id="a_Node000012"><a xlink:title=" ">
<polygon fill="#e0e0e0" stroke="#999999" points="227.5,-20 165.75,-20 165.75,0 227.5,0 227.5,-20"/>
<text text-anchor="middle" x="196.62" y="-6.5" font-family="Helvetica,sans-Serif" font-size="10.00">sys/time.h</text>
</a>
</g>
</g>
<!-- Node8&#45;&gt;Node12 -->
<g id="edge11_Node000008_Node000012" class="edge">
<title>Node8&#45;&gt;Node12</title>
<g id="a_edge11_Node000008_Node000012"><a xlink:title=" ">
<path fill="none" stroke="#63b8ff" d="M204.06,-55.59C202.92,-48.78 201.34,-39.32 199.94,-30.86"/>
<polygon fill="#63b8ff" stroke="#63b8ff" points="203.27,-30.59 198.17,-21.3 196.37,-31.74 203.27,-30.59"/>
</a>
</g>
</g>
<!-- Node13 -->
<g id="Node000013" class="node">
<title>Node13</title>
<g id="a_Node000013"><a xlink:title=" ">
<polygon fill="#e0e0e0" stroke="#999999" points="288.12,-20 245.12,-20 245.12,0 288.12,0 288.12,-20"/>
<text text-anchor="middle" x="266.62" y="-6.5" font-family="Helvetica,sans-Serif" font-size="10.00">cmath</text>
</a>
</g>
</g>
<!-- Node8&#45;&gt;Node13 -->
<g id="edge12_Node000008_Node000013" class="edge">
<title>Node8&#45;&gt;Node13</title>
<g id="a_edge12_Node000008_Node000013"><a xlink:title=" ">
<path fill="none" stroke="#63b8ff" d="M216.25,-55.59C225,-47.85 237.61,-36.69 248.02,-27.47"/>
<polygon fill="#63b8ff" stroke="#63b8ff" points="249.95,-30.55 255.12,-21.3 245.31,-25.31 249.95,-30.55"/>
</a>
</g>
</g>
<!-- Node16&#45;&gt;Node9 -->
<g id="edge17_Node000016_Node000009" class="edge">
<title>Node16&#45;&gt;Node9</title>
<g id="a_edge17_Node000016_Node000009"><a xlink:title=" ">
<path fill="none" stroke="#63b8ff" d="M388.51,-167.74C390.33,-136.55 394.45,-65.56 396.47,-30.85"/>
<polygon fill="#63b8ff" stroke="#63b8ff" points="400,-31.4 397.09,-21.21 393.01,-30.99 400,-31.4"/>
</a>
</g>
</g>
<!-- Node16&#45;&gt;Node14 -->
<g id="edge18_Node000016_Node000014" class="edge">
<title>Node16&#45;&gt;Node14</title>
<g id="a_edge18_Node000016_Node000014"><a xlink:title=" ">
<path fill="none" stroke="#63b8ff" d="M363.16,-167.55C348.87,-158.52 330.9,-147.17 316.68,-138.19"/>
<polygon fill="#63b8ff" stroke="#63b8ff" points="318.84,-134.79 308.52,-132.41 315.11,-140.71 318.84,-134.79"/>
</a>
</g>
</g>
</g>
</svg>
