<?xml version="1.0" encoding="UTF-8" standalone="no"?>
<!DOCTYPE svg PUBLIC "-//W3C//DTD SVG 1.1//EN"
 "http://www.w3.org/Graphics/SVG/1.1/DTD/svg11.dtd">
<!-- Generated by graphviz version 8.1.0 (20230707.0739)
 -->
<!-- Title: src/devices/device_set.cpp Pages: 1 -->
<!--zoomable 388 -->

<svg id="main" version="1.1" xmlns="http://www.w3.org/2000/svg" xmlns:xlink="http://www.w3.org/1999/xlink" xml:space="preserve" onload="init(evt)">
<style type="text/css"><![CDATA[
.node, .edge {opacity: 0.7;}
.node.selected, .edge.selected {opacity: 1;}
.edge:hover path { stroke: red; }
.edge:hover polygon { stroke: red; fill: red; }
]]></style>

<defs>
  <circle id="rim" cx="0" cy="0" r="7"/>
  <circle id="rim2" cx="0" cy="0" r="3.5"/>
  <g id="zoomPlus">
    <use xlink:href="#rim" fill="#404040"><set attributeName="fill" to="#808080" begin="zoomplus.mouseover" end="zoomplus.mouseout"/></use>
    <path d="M-4,0h8M0,-4v8" fill="none" stroke="white" stroke-width="1.5" pointer-events="none"/>
  </g>
  <g id="zoomMin">
    <use xlink:href="#rim" fill="#404040"><set attributeName="fill" to="#808080" begin="zoomminus.mouseover" end="zoomminus.mouseout"/></use>
    <path d="M-4,0h8" fill="none" stroke="white" stroke-width="1.5" pointer-events="none"/>
  </g>
  <g id="arrowUp" transform="translate(30 24)">
    <use xlink:href="#rim"/>
    <path pointer-events="none" fill="none" stroke="white" stroke-width="1.5" d="M0,-3.0v7 M-2.5,-0.5L0,-3.0L2.5,-0.5"/>
  </g>
  <g id="arrowRight" transform="rotate(90) translate(36 -43)">
    <use xlink:href="#rim"/>
    <path pointer-events="none" fill="none" stroke="white" stroke-width="1.5" d="M0,-3.0v7 M-2.5,-0.5L0,-3.0L2.5,-0.5"/>
  </g>
  <g id="arrowDown" transform="rotate(180) translate(-30 -48)">
    <use xlink:href="#rim"/>
    <path pointer-events="none" fill="none" stroke="white" stroke-width="1.5" d="M0,-3.0v7 M-2.5,-0.5L0,-3.0L2.5,-0.5"/>
  </g>
  <g id="arrowLeft" transform="rotate(270) translate(-36 17)">
    <use xlink:href="#rim"/>
    <path pointer-events="none" fill="none" stroke="white" stroke-width="1.5" d="M0,-3.0v7 M-2.5,-0.5L0,-3.0L2.5,-0.5"/>
  </g>
  <g id="resetDef">
    <use xlink:href="#rim2" fill="#404040"><set attributeName="fill" to="#808080" begin="reset.mouseover" end="reset.mouseout"/></use>
  </g>
</defs>
<script type="application/ecmascript">
var viewWidth = 805;
var viewHeight = 388;
var sectionId = 'dynsection-0';
</script>
<script type="application/ecmascript" xlink:href="svg.min.js"/>
<svg id="graph" class="graph">
<g id="viewport">
<title>src/devices/device_set.cpp</title>
<!-- Node1 -->
<g id="Node000001" class="node">
<title>Node1</title>
<g id="a_Node000001"><a xlink:title="Файл исходного кода, в котором реализованы методы для класа DeviceSet.">
<polygon fill="#999999" stroke="#666666" points="391.25,-380 296.5,-380 296.5,-348 391.25,-348 391.25,-380"/>
<text text-anchor="start" x="304.5" y="-366.5" font-family="Helvetica,sans-Serif" font-size="10.00">src/devices/device</text>
<text text-anchor="middle" x="343.88" y="-354.5" font-family="Helvetica,sans-Serif" font-size="10.00">_set.cpp</text>
</a>
</g>
</g>
<!-- Node2 -->
<g id="Node000002" class="node">
<title>Node2</title>
<g id="a_Node000002"><a xlink:href="device__set_8hpp.html" target="_top" xlink:title="Заголовочный файл, содержащий в себе класс DeviceSet и набор констант, необходимых для данного класса...">
<polygon fill="white" stroke="#666666" points="384.12,-312 303.62,-312 303.62,-292 384.12,-292 384.12,-312"/>
<text text-anchor="middle" x="343.88" y="-298.5" font-family="Helvetica,sans-Serif" font-size="10.00">device_set.hpp</text>
</a>
</g>
</g>
<!-- Node1&#45;&gt;Node2 -->
<g id="edge1_Node000001_Node000002" class="edge">
<title>Node1&#45;&gt;Node2</title>
<g id="a_edge1_Node000001_Node000002"><a xlink:title=" ">
<path fill="none" stroke="#63b8ff" d="M343.88,-347.55C343.88,-340.17 343.88,-331.24 343.88,-323.32"/>
<polygon fill="#63b8ff" stroke="#63b8ff" points="347.38,-323.41 343.88,-313.41 340.38,-323.41 347.38,-323.41"/>
</a>
</g>
</g>
<!-- Node3 -->
<g id="Node000003" class="node">
<title>Node3</title>
<g id="a_Node000003"><a xlink:title=" ">
<polygon fill="#e0e0e0" stroke="#999999" points="55.75,-256 0,-256 0,-236 55.75,-236 55.75,-256"/>
<text text-anchor="middle" x="27.88" y="-242.5" font-family="Helvetica,sans-Serif" font-size="10.00">algorithm</text>
</a>
</g>
</g>
<!-- Node2&#45;&gt;Node3 -->
<g id="edge2_Node000002_Node000003" class="edge">
<title>Node2&#45;&gt;Node3</title>
<g id="a_edge2_Node000002_Node000003"><a xlink:title=" ">
<path fill="none" stroke="#63b8ff" d="M303.38,-294.97C249.81,-286.86 152.53,-271.63 69.88,-256 68.74,-255.79 67.59,-255.56 66.42,-255.34"/>
<polygon fill="#63b8ff" stroke="#63b8ff" points="67.35,-251.75 56.85,-253.19 65.96,-258.61 67.35,-251.75"/>
</a>
</g>
</g>
<!-- Node4 -->
<g id="Node000004" class="node">
<title>Node4</title>
<g id="a_Node000004"><a xlink:href="vna__device_8hpp.html" target="_top" xlink:title="Заголовочный файл, в котором реализован класс VnaDevice.">
<polygon fill="white" stroke="#666666" points="449.12,-194 350.62,-194 350.62,-174 449.12,-174 449.12,-194"/>
<text text-anchor="middle" x="399.88" y="-180.5" font-family="Helvetica,sans-Serif" font-size="10.00">vna/vna_device.hpp</text>
</a>
</g>
</g>
<!-- Node2&#45;&gt;Node4 -->
<g id="edge3_Node000002_Node000004" class="edge">
<title>Node2&#45;&gt;Node4</title>
<g id="a_edge3_Node000002_Node000004"><a xlink:title=" ">
<path fill="none" stroke="#63b8ff" d="M318.24,-291.6C291.29,-280.2 254.84,-259.58 270.88,-236 286.47,-213.07 314.13,-200.45 339.85,-193.5"/>
<polygon fill="#63b8ff" stroke="#63b8ff" points="340.45,-196.72 349.33,-190.94 338.79,-189.92 340.45,-196.72"/>
</a>
</g>
</g>
<!-- Node17 -->
<g id="Node000017" class="node">
<title>Node17</title>
<g id="a_Node000017"><a xlink:href="gen__device_8hpp.html" target="_top" xlink:title="Заголовочный файл, в котором представлен класс GenDevice и определён набор констант">
<polygon fill="white" stroke="#666666" points="260.62,-194 159.12,-194 159.12,-174 260.62,-174 260.62,-194"/>
<text text-anchor="middle" x="209.88" y="-180.5" font-family="Helvetica,sans-Serif" font-size="10.00">gen/gen_device.hpp</text>
</a>
</g>
</g>
<!-- Node2&#45;&gt;Node17 -->
<g id="edge17_Node000002_Node000017" class="edge">
<title>Node2&#45;&gt;Node17</title>
<g id="a_edge17_Node000002_Node000017"><a xlink:title=" ">
<path fill="none" stroke="#63b8ff" d="M303.34,-299.47C241.45,-296.19 127.89,-286.12 102.88,-256 81.2,-229.9 123.11,-209.74 160.67,-197.68"/>
<polygon fill="#63b8ff" stroke="#63b8ff" points="161.55,-200.77 170.09,-194.5 159.5,-194.07 161.55,-200.77"/>
</a>
</g>
</g>
<!-- Node18 -->
<g id="Node000018" class="node">
<title>Node18</title>
<g id="a_Node000018"><a xlink:href="rbd__device_8hpp.html" target="_top" xlink:title="Заголовочный файл, в котором реализован класс RbdDevice.">
<polygon fill="white" stroke="#666666" points="600.38,-194 503.38,-194 503.38,-174 600.38,-174 600.38,-194"/>
<text text-anchor="middle" x="551.88" y="-180.5" font-family="Helvetica,sans-Serif" font-size="10.00">rbd/rbd_device.hpp</text>
</a>
</g>
</g>
<!-- Node2&#45;&gt;Node18 -->
<g id="edge20_Node000002_Node000018" class="edge">
<title>Node2&#45;&gt;Node18</title>
<g id="a_edge20_Node000002_Node000018"><a xlink:title=" ">
<path fill="none" stroke="#63b8ff" d="M384.47,-296.96C435.5,-291.02 518.97,-278.16 539.88,-256 552.59,-242.52 554.6,-220.85 554.05,-204.99"/>
<polygon fill="#63b8ff" stroke="#63b8ff" points="557.48,-204.94 553.25,-195.23 550.5,-205.46 557.48,-204.94"/>
</a>
</g>
</g>
<!-- Node19 -->
<g id="Node000019" class="node">
<title>Node19</title>
<g id="a_Node000019"><a xlink:href="keysight__m9807a_8hpp.html" target="_top" xlink:title="Файл, в котором определён класс KeysightM9807A.">
<polygon fill="white" stroke="#666666" points="408.12,-256 279.62,-256 279.62,-236 408.12,-236 408.12,-256"/>
<text text-anchor="middle" x="343.88" y="-242.5" font-family="Helvetica,sans-Serif" font-size="10.00">vna/keysight_m9807a.hpp</text>
</a>
</g>
</g>
<!-- Node2&#45;&gt;Node19 -->
<g id="edge23_Node000002_Node000019" class="edge">
<title>Node2&#45;&gt;Node19</title>
<g id="a_edge23_Node000002_Node000019"><a xlink:title=" ">
<path fill="none" stroke="#63b8ff" d="M343.88,-291.59C343.88,-284.86 343.88,-275.53 343.88,-267.15"/>
<polygon fill="#63b8ff" stroke="#63b8ff" points="347.38,-267.3 343.88,-257.3 340.38,-267.3 347.38,-267.3"/>
</a>
</g>
</g>
<!-- Node20 -->
<g id="Node000020" class="node">
<title>Node20</title>
<g id="a_Node000020"><a xlink:href="planar__s50244_8h.html" target="_top" xlink:title="Файл, в котором определён класс PlanarS50244.">
<polygon fill="white" stroke="#666666" points="531.12,-256 426.62,-256 426.62,-236 531.12,-236 531.12,-256"/>
<text text-anchor="middle" x="478.88" y="-242.5" font-family="Helvetica,sans-Serif" font-size="10.00">vna/planar_s50244.h</text>
</a>
</g>
</g>
<!-- Node2&#45;&gt;Node20 -->
<g id="edge25_Node000002_Node000020" class="edge">
<title>Node2&#45;&gt;Node20</title>
<g id="a_edge25_Node000002_Node000020"><a xlink:title=" ">
<path fill="none" stroke="#63b8ff" d="M367.39,-291.59C388.84,-283.01 420.79,-270.23 445,-260.55"/>
<polygon fill="#63b8ff" stroke="#63b8ff" points="446.19,-263.44 454.18,-256.48 443.59,-256.94 446.19,-263.44"/>
</a>
</g>
</g>
<!-- Node21 -->
<g id="Node000021" class="node">
<title>Node21</title>
<g id="a_Node000021"><a xlink:href="keysight__gen_8hpp.html" target="_top" xlink:title="Заголовочный файл, в котором определён класс KeysightGen.">
<polygon fill="white" stroke="#666666" points="223.5,-256 112.25,-256 112.25,-236 223.5,-236 223.5,-256"/>
<text text-anchor="middle" x="167.88" y="-242.5" font-family="Helvetica,sans-Serif" font-size="10.00">gen/keysight_gen.hpp</text>
</a>
</g>
</g>
<!-- Node2&#45;&gt;Node21 -->
<g id="edge27_Node000002_Node000021" class="edge">
<title>Node2&#45;&gt;Node21</title>
<g id="a_edge27_Node000002_Node000021"><a xlink:title=" ">
<path fill="none" stroke="#63b8ff" d="M313.22,-291.59C284.37,-282.74 240.97,-269.43 209.1,-259.65"/>
<polygon fill="#63b8ff" stroke="#63b8ff" points="210.36,-256.07 199.77,-256.48 208.3,-262.76 210.36,-256.07"/>
</a>
</g>
</g>
<!-- Node22 -->
<g id="Node000022" class="node">
<title>Node22</title>
<g id="a_Node000022"><a xlink:href="demo__rdb_8hpp.html" target="_top" xlink:title="Заголовочный файл, в котором реализован класс DemoRbd.">
<polygon fill="white" stroke="#666666" points="792.88,-256 698.88,-256 698.88,-236 792.88,-236 792.88,-256"/>
<text text-anchor="middle" x="745.88" y="-242.5" font-family="Helvetica,sans-Serif" font-size="10.00">rbd/demo_rdb.hpp</text>
</a>
</g>
</g>
<!-- Node2&#45;&gt;Node22 -->
<g id="edge29_Node000002_Node000022" class="edge">
<title>Node2&#45;&gt;Node22</title>
<g id="a_edge29_Node000002_Node000022"><a xlink:title=" ">
<path fill="none" stroke="#63b8ff" d="M384.41,-296.13C447.13,-288.5 571.74,-273.01 687.7,-256.28"/>
<polygon fill="#63b8ff" stroke="#63b8ff" points="688.14,-259.61 697.53,-254.71 687.14,-252.68 688.14,-259.61"/>
</a>
</g>
</g>
<!-- Node25 -->
<g id="Node000025" class="node">
<title>Node25</title>
<g id="a_Node000025"><a xlink:href="tesart__rbd_8hpp.html" target="_top" xlink:title="Заголовочный файл, в котором определяется класс TesartRbd.">
<polygon fill="white" stroke="#666666" points="681.25,-256 586.5,-256 586.5,-236 681.25,-236 681.25,-256"/>
<text text-anchor="middle" x="633.88" y="-242.5" font-family="Helvetica,sans-Serif" font-size="10.00">rbd/tesart_rbd.hpp</text>
</a>
</g>
</g>
<!-- Node2&#45;&gt;Node25 -->
<g id="edge36_Node000002_Node000025" class="edge">
<title>Node2&#45;&gt;Node25</title>
<g id="a_edge36_Node000002_Node000025"><a xlink:title=" ">
<path fill="none" stroke="#63b8ff" d="M384.5,-293.43C434.29,-284.16 519.02,-268.39 575.7,-257.83"/>
<polygon fill="#63b8ff" stroke="#63b8ff" points="576.11,-261.13 585.3,-255.86 574.83,-254.25 576.11,-261.13"/>
</a>
</g>
</g>
<!-- Node5 -->
<g id="Node000005" class="node">
<title>Node5</title>
<g id="a_Node000005"><a xlink:href="visa__device_8hpp.html" target="_top" xlink:title="Заголовочный файл, в котором определены константы и класс VisaDevice.">
<polygon fill="white" stroke="#666666" points="379.12,-132 286.62,-132 286.62,-112 379.12,-112 379.12,-132"/>
<text text-anchor="middle" x="332.88" y="-118.5" font-family="Helvetica,sans-Serif" font-size="10.00">../visa_device.hpp</text>
</a>
</g>
</g>
<!-- Node4&#45;&gt;Node5 -->
<g id="edge4_Node000004_Node000005" class="edge">
<title>Node4&#45;&gt;Node5</title>
<g id="a_edge4_Node000004_Node000005"><a xlink:title=" ">
<path fill="none" stroke="#63b8ff" d="M389.41,-173.62C379.12,-164.41 363.22,-150.17 350.9,-139.14"/>
<polygon fill="#63b8ff" stroke="#63b8ff" points="353.84,-137.18 344.05,-133.11 349.17,-142.39 353.84,-137.18"/>
</a>
</g>
</g>
<!-- Node15 -->
<g id="Node000015" class="node">
<title>Node15</title>
<g id="a_Node000015"><a xlink:href="exceptions_8hpp.html" target="_top" xlink:title="Заголовочный файл, содержащий класс antestl_exsceptions, сообщения исключений и коды исключений">
<polygon fill="white" stroke="#666666" points="518.38,-132 397.38,-132 397.38,-112 518.38,-112 518.38,-132"/>
<text text-anchor="middle" x="457.88" y="-118.5" font-family="Helvetica,sans-Serif" font-size="10.00">../../utils/exceptions.hpp</text>
</a>
</g>
</g>
<!-- Node4&#45;&gt;Node15 -->
<g id="edge15_Node000004_Node000015" class="edge">
<title>Node4&#45;&gt;Node15</title>
<g id="a_edge15_Node000004_Node000015"><a xlink:title=" ">
<path fill="none" stroke="#63b8ff" d="M408.94,-173.62C417.67,-164.59 431.08,-150.72 441.66,-139.78"/>
<polygon fill="#63b8ff" stroke="#63b8ff" points="443.63,-142.74 448.07,-133.11 438.6,-137.87 443.63,-142.74"/>
</a>
</g>
</g>
<!-- Node16 -->
<g id="Node000016" class="node">
<title>Node16</title>
<g id="a_Node000016"><a xlink:title=" ">
<polygon fill="#e0e0e0" stroke="#999999" points="577.62,-132 536.12,-132 536.12,-112 577.62,-112 577.62,-132"/>
<text text-anchor="middle" x="556.88" y="-118.5" font-family="Helvetica,sans-Serif" font-size="10.00">vector</text>
</a>
</g>
</g>
<!-- Node4&#45;&gt;Node16 -->
<g id="edge16_Node000004_Node000016" class="edge">
<title>Node4&#45;&gt;Node16</title>
<g id="a_edge16_Node000004_Node000016"><a xlink:title=" ">
<path fill="none" stroke="#63b8ff" d="M424.41,-173.62C451.75,-163.17 496.03,-146.25 525.78,-134.88"/>
<polygon fill="#63b8ff" stroke="#63b8ff" points="526.93,-137.81 535.03,-130.97 524.44,-131.27 526.93,-137.81"/>
</a>
</g>
</g>
<!-- Node6 -->
<g id="Node000006" class="node">
<title>Node6</title>
<g id="a_Node000006"><a xlink:title=" ">
<polygon fill="#e0e0e0" stroke="#999999" points="402.38,-20 359.38,-20 359.38,0 402.38,0 402.38,-20"/>
<text text-anchor="middle" x="380.88" y="-6.5" font-family="Helvetica,sans-Serif" font-size="10.00">format</text>
</a>
</g>
</g>
<!-- Node5&#45;&gt;Node6 -->
<g id="edge5_Node000005_Node000006" class="edge">
<title>Node5&#45;&gt;Node6</title>
<g id="a_edge5_Node000005_Node000006"><a xlink:title=" ">
<path fill="none" stroke="#63b8ff" d="M339.94,-111.8C346.4,-103.01 355.85,-89.19 361.88,-76 368.53,-61.43 373.49,-43.95 376.66,-30.79"/>
<polygon fill="#63b8ff" stroke="#63b8ff" points="380.28,-31.65 379.08,-21.12 373.46,-30.1 380.28,-31.65"/>
</a>
</g>
</g>
<!-- Node7 -->
<g id="Node000007" class="node">
<title>Node7</title>
<g id="a_Node000007"><a xlink:title=" ">
<polygon fill="#e0e0e0" stroke="#999999" points="294.5,-76 249.25,-76 249.25,-56 294.5,-56 294.5,-76"/>
<text text-anchor="middle" x="271.88" y="-62.5" font-family="Helvetica,sans-Serif" font-size="10.00">cstring</text>
</a>
</g>
</g>
<!-- Node5&#45;&gt;Node7 -->
<g id="edge6_Node000005_Node000007" class="edge">
<title>Node5&#45;&gt;Node7</title>
<g id="a_edge6_Node000005_Node000007"><a xlink:title=" ">
<path fill="none" stroke="#63b8ff" d="M322.25,-111.59C313.5,-103.85 300.89,-92.69 290.48,-83.47"/>
<polygon fill="#63b8ff" stroke="#63b8ff" points="293.19,-81.31 283.38,-77.3 288.55,-86.55 293.19,-81.31"/>
</a>
</g>
</g>
<!-- Node8 -->
<g id="Node000008" class="node">
<title>Node8</title>
<g id="a_Node000008"><a xlink:title=" ">
<polygon fill="#e0e0e0" stroke="#999999" points="353.25,-76 312.5,-76 312.5,-56 353.25,-56 353.25,-76"/>
<text text-anchor="middle" x="332.88" y="-62.5" font-family="Helvetica,sans-Serif" font-size="10.00">visa.h</text>
</a>
</g>
</g>
<!-- Node5&#45;&gt;Node8 -->
<g id="edge7_Node000005_Node000008" class="edge">
<title>Node5&#45;&gt;Node8</title>
<g id="a_edge7_Node000005_Node000008"><a xlink:title=" ">
<path fill="none" stroke="#63b8ff" d="M332.88,-111.59C332.88,-104.86 332.88,-95.53 332.88,-87.15"/>
<polygon fill="#63b8ff" stroke="#63b8ff" points="336.38,-87.3 332.88,-77.3 329.38,-87.3 336.38,-87.3"/>
</a>
</g>
</g>
<!-- Node9 -->
<g id="Node000009" class="node">
<title>Node9</title>
<g id="a_Node000009"><a xlink:href="logger_8hpp.html" target="_top" xlink:title="Библиотека, осуществляющая логирование">
<polygon fill="white" stroke="#666666" points="562.38,-76 471.38,-76 471.38,-56 562.38,-56 562.38,-76"/>
<text text-anchor="middle" x="516.88" y="-62.5" font-family="Helvetica,sans-Serif" font-size="10.00">../utils/logger.hpp</text>
</a>
</g>
</g>
<!-- Node5&#45;&gt;Node9 -->
<g id="edge8_Node000005_Node000009" class="edge">
<title>Node5&#45;&gt;Node9</title>
<g id="a_edge8_Node000005_Node000009"><a xlink:title=" ">
<path fill="none" stroke="#63b8ff" d="M364.93,-111.59C395.21,-102.71 440.86,-89.31 474.21,-79.52"/>
<polygon fill="#63b8ff" stroke="#63b8ff" points="474.96,-82.65 483.57,-76.48 472.99,-75.94 474.96,-82.65"/>
</a>
</g>
</g>
<!-- Node9&#45;&gt;Node6 -->
<g id="edge14_Node000009_Node000006" class="edge">
<title>Node9&#45;&gt;Node6</title>
<g id="a_edge14_Node000009_Node000006"><a xlink:title=" ">
<path fill="none" stroke="#63b8ff" d="M493.19,-55.59C470.81,-46.71 437.1,-33.32 412.45,-23.54"/>
<polygon fill="#63b8ff" stroke="#63b8ff" points="414.09,-20.02 403.5,-19.59 411.5,-26.53 414.09,-20.02"/>
</a>
</g>
</g>
<!-- Node10 -->
<g id="Node000010" class="node">
<title>Node10</title>
<g id="a_Node000010"><a xlink:title=" ">
<polygon fill="#e0e0e0" stroke="#999999" points="761.88,-20 721.88,-20 721.88,0 761.88,0 761.88,-20"/>
<text text-anchor="middle" x="741.88" y="-6.5" font-family="Helvetica,sans-Serif" font-size="10.00">string</text>
</a>
</g>
</g>
<!-- Node9&#45;&gt;Node10 -->
<g id="edge9_Node000009_Node000010" class="edge">
<title>Node9&#45;&gt;Node10</title>
<g id="a_edge9_Node000009_Node000010"><a xlink:title=" ">
<path fill="none" stroke="#63b8ff" d="M556.32,-55.53C600.45,-44.94 670.98,-28.01 711.18,-18.37"/>
<polygon fill="#63b8ff" stroke="#63b8ff" points="711.76,-21.59 720.67,-15.85 710.13,-14.78 711.76,-21.59"/>
</a>
</g>
</g>
<!-- Node11 -->
<g id="Node000011" class="node">
<title>Node11</title>
<g id="a_Node000011"><a xlink:title=" ">
<polygon fill="#e0e0e0" stroke="#999999" points="473.62,-20 420.12,-20 420.12,0 473.62,0 473.62,-20"/>
<text text-anchor="middle" x="446.88" y="-6.5" font-family="Helvetica,sans-Serif" font-size="10.00">iostream</text>
</a>
</g>
</g>
<!-- Node9&#45;&gt;Node11 -->
<g id="edge10_Node000009_Node000011" class="edge">
<title>Node9&#45;&gt;Node11</title>
<g id="a_edge10_Node000009_Node000011"><a xlink:title=" ">
<path fill="none" stroke="#63b8ff" d="M504.68,-55.59C494.44,-47.7 479.59,-36.24 467.51,-26.92"/>
<polygon fill="#63b8ff" stroke="#63b8ff" points="469.98,-23.64 459.93,-20.3 465.71,-29.18 469.98,-23.64"/>
</a>
</g>
</g>
<!-- Node12 -->
<g id="Node000012" class="node">
<title>Node12</title>
<g id="a_Node000012"><a xlink:title=" ">
<polygon fill="#e0e0e0" stroke="#999999" points="542.5,-20 491.25,-20 491.25,0 542.5,0 542.5,-20"/>
<text text-anchor="middle" x="516.88" y="-6.5" font-family="Helvetica,sans-Serif" font-size="10.00">sstream</text>
</a>
</g>
</g>
<!-- Node9&#45;&gt;Node12 -->
<g id="edge11_Node000009_Node000012" class="edge">
<title>Node9&#45;&gt;Node12</title>
<g id="a_edge11_Node000009_Node000012"><a xlink:title=" ">
<path fill="none" stroke="#63b8ff" d="M516.88,-55.59C516.88,-48.86 516.88,-39.53 516.88,-31.15"/>
<polygon fill="#63b8ff" stroke="#63b8ff" points="520.38,-31.3 516.88,-21.3 513.38,-31.3 520.38,-31.3"/>
</a>
</g>
</g>
<!-- Node13 -->
<g id="Node000013" class="node">
<title>Node13</title>
<g id="a_Node000013"><a xlink:title=" ">
<polygon fill="#e0e0e0" stroke="#999999" points="622.75,-20 561,-20 561,0 622.75,0 622.75,-20"/>
<text text-anchor="middle" x="591.88" y="-6.5" font-family="Helvetica,sans-Serif" font-size="10.00">sys/time.h</text>
</a>
</g>
</g>
<!-- Node9&#45;&gt;Node13 -->
<g id="edge12_Node000009_Node000013" class="edge">
<title>Node9&#45;&gt;Node13</title>
<g id="a_edge12_Node000009_Node000013"><a xlink:title=" ">
<path fill="none" stroke="#63b8ff" d="M529.94,-55.59C540.95,-47.67 556.94,-36.16 569.91,-26.82"/>
<polygon fill="#63b8ff" stroke="#63b8ff" points="571.64,-29.16 577.71,-20.48 567.55,-23.48 571.64,-29.16"/>
</a>
</g>
</g>
<!-- Node14 -->
<g id="Node000014" class="node">
<title>Node14</title>
<g id="a_Node000014"><a xlink:title=" ">
<polygon fill="#e0e0e0" stroke="#999999" points="683.38,-20 640.38,-20 640.38,0 683.38,0 683.38,-20"/>
<text text-anchor="middle" x="661.88" y="-6.5" font-family="Helvetica,sans-Serif" font-size="10.00">cmath</text>
</a>
</g>
</g>
<!-- Node9&#45;&gt;Node14 -->
<g id="edge13_Node000009_Node000014" class="edge">
<title>Node9&#45;&gt;Node14</title>
<g id="a_edge13_Node000009_Node000014"><a xlink:title=" ">
<path fill="none" stroke="#63b8ff" d="M542.13,-55.59C566.52,-46.51 603.54,-32.72 629.96,-22.88"/>
<polygon fill="#63b8ff" stroke="#63b8ff" points="631.07,-25.84 639.22,-19.07 628.62,-19.28 631.07,-25.84"/>
</a>
</g>
</g>
<!-- Node17&#45;&gt;Node5 -->
<g id="edge18_Node000017_Node000005" class="edge">
<title>Node17&#45;&gt;Node5</title>
<g id="a_edge18_Node000017_Node000005"><a xlink:title=" ">
<path fill="none" stroke="#63b8ff" d="M229.09,-173.62C249.22,-163.81 281.06,-148.27 304.17,-137"/>
<polygon fill="#63b8ff" stroke="#63b8ff" points="305.34,-139.84 312.79,-132.31 302.27,-133.55 305.34,-139.84"/>
</a>
</g>
</g>
<!-- Node17&#45;&gt;Node15 -->
<g id="edge19_Node000017_Node000015" class="edge">
<title>Node17&#45;&gt;Node15</title>
<g id="a_edge19_Node000017_Node000015"><a xlink:title=" ">
<path fill="none" stroke="#63b8ff" d="M248.9,-173.56C291.92,-163.15 361.25,-146.38 408.14,-135.03"/>
<polygon fill="#63b8ff" stroke="#63b8ff" points="408.77,-138.24 417.67,-132.48 407.13,-131.43 408.77,-138.24"/>
</a>
</g>
</g>
<!-- Node18&#45;&gt;Node5 -->
<g id="edge21_Node000018_Node000005" class="edge">
<title>Node18&#45;&gt;Node5</title>
<g id="a_edge21_Node000018_Node000005"><a xlink:title=" ">
<path fill="none" stroke="#63b8ff" d="M517.66,-173.62C479.92,-163.29 419.06,-146.61 377.58,-135.25"/>
<polygon fill="#63b8ff" stroke="#63b8ff" points="378.78,-131.67 368.21,-132.41 376.93,-138.43 378.78,-131.67"/>
</a>
</g>
</g>
<!-- Node18&#45;&gt;Node16 -->
<g id="edge22_Node000018_Node000016" class="edge">
<title>Node18&#45;&gt;Node16</title>
<g id="a_edge22_Node000018_Node000016"><a xlink:title=" ">
<path fill="none" stroke="#63b8ff" d="M552.66,-173.62C553.34,-165.48 554.34,-153.39 555.2,-143.07"/>
<polygon fill="#63b8ff" stroke="#63b8ff" points="558.77,-143.37 556.12,-133.11 551.8,-142.79 558.77,-143.37"/>
</a>
</g>
</g>
<!-- Node19&#45;&gt;Node4 -->
<g id="edge24_Node000019_Node000004" class="edge">
<title>Node19&#45;&gt;Node4</title>
<g id="a_edge24_Node000019_Node000004"><a xlink:title=" ">
<path fill="none" stroke="#63b8ff" d="M352.62,-235.62C360.97,-226.68 373.75,-212.99 383.91,-202.1"/>
<polygon fill="#63b8ff" stroke="#63b8ff" points="386.11,-204.81 390.37,-195.11 380.99,-200.04 386.11,-204.81"/>
</a>
</g>
</g>
<!-- Node20&#45;&gt;Node4 -->
<g id="edge26_Node000020_Node000004" class="edge">
<title>Node20&#45;&gt;Node4</title>
<g id="a_edge26_Node000020_Node000004"><a xlink:title=" ">
<path fill="none" stroke="#63b8ff" d="M466.53,-235.62C454.24,-226.29 435.15,-211.79 420.55,-200.7"/>
<polygon fill="#63b8ff" stroke="#63b8ff" points="423.21,-197.57 413.13,-194.31 418.98,-203.14 423.21,-197.57"/>
</a>
</g>
</g>
<!-- Node21&#45;&gt;Node17 -->
<g id="edge28_Node000021_Node000017" class="edge">
<title>Node21&#45;&gt;Node17</title>
<g id="a_edge28_Node000021_Node000017"><a xlink:title=" ">
<path fill="none" stroke="#63b8ff" d="M174.44,-235.62C180.51,-226.94 189.72,-213.8 197.22,-203.08"/>
<polygon fill="#63b8ff" stroke="#63b8ff" points="200.63,-205.31 203.5,-195.11 194.89,-201.3 200.63,-205.31"/>
</a>
</g>
</g>
<!-- Node22&#45;&gt;Node15 -->
<g id="edge32_Node000022_Node000015" class="edge">
<title>Node22&#45;&gt;Node15</title>
<g id="a_edge32_Node000022_Node000015"><a xlink:title=" ">
<path fill="none" stroke="#63b8ff" d="M738.09,-235.75C722.35,-217.27 686.89,-176.82 670.88,-168 646.79,-154.74 581.3,-142.02 529.23,-133.5"/>
<polygon fill="#63b8ff" stroke="#63b8ff" points="530.11,-129.94 519.68,-131.81 529,-136.85 530.11,-129.94"/>
</a>
</g>
</g>
<!-- Node22&#45;&gt;Node18 -->
<g id="edge31_Node000022_Node000018" class="edge">
<title>Node22&#45;&gt;Node18</title>
<g id="a_edge31_Node000022_Node000018"><a xlink:title=" ">
<path fill="none" stroke="#63b8ff" d="M715.56,-235.62C682.49,-225.4 629.36,-208.97 592.65,-197.61"/>
<polygon fill="#63b8ff" stroke="#63b8ff" points="593.88,-194.02 583.29,-194.41 591.81,-200.71 593.88,-194.02"/>
</a>
</g>
</g>
<!-- Node23 -->
<g id="Node000023" class="node">
<title>Node23</title>
<g id="a_Node000023"><a xlink:title=" ">
<polygon fill="#e0e0e0" stroke="#999999" points="661.38,-194 618.38,-194 618.38,-174 661.38,-174 661.38,-194"/>
<text text-anchor="middle" x="639.88" y="-180.5" font-family="Helvetica,sans-Serif" font-size="10.00">thread</text>
</a>
</g>
</g>
<!-- Node22&#45;&gt;Node23 -->
<g id="edge30_Node000022_Node000023" class="edge">
<title>Node22&#45;&gt;Node23</title>
<g id="a_edge30_Node000022_Node000023"><a xlink:title=" ">
<path fill="none" stroke="#63b8ff" d="M729.31,-235.62C712.28,-225.98 685.51,-210.83 665.69,-199.61"/>
<polygon fill="#63b8ff" stroke="#63b8ff" points="667.75,-196.19 657.32,-194.31 664.3,-202.28 667.75,-196.19"/>
</a>
</g>
</g>
<!-- Node24 -->
<g id="Node000024" class="node">
<title>Node24</title>
<g id="a_Node000024"><a xlink:href="string__utils_8hpp.html" target="_top" xlink:title="Заголовочный файл, в котором определено пространство имён string_utils.">
<polygon fill="white" stroke="#666666" points="797.38,-200 718.38,-200 718.38,-168 797.38,-168 797.38,-200"/>
<text text-anchor="start" x="726.38" y="-186.5" font-family="Helvetica,sans-Serif" font-size="10.00">../../utils/string</text>
<text text-anchor="middle" x="757.88" y="-174.5" font-family="Helvetica,sans-Serif" font-size="10.00">_utils.hpp</text>
</a>
</g>
</g>
<!-- Node22&#45;&gt;Node24 -->
<g id="edge33_Node000022_Node000024" class="edge">
<title>Node22&#45;&gt;Node24</title>
<g id="a_edge33_Node000022_Node000024"><a xlink:title=" ">
<path fill="none" stroke="#63b8ff" d="M747.75,-235.62C749.08,-228.95 750.95,-219.64 752.71,-210.82"/>
<polygon fill="#63b8ff" stroke="#63b8ff" points="756.32,-211.63 754.85,-201.14 749.45,-210.26 756.32,-211.63"/>
</a>
</g>
</g>
<!-- Node24&#45;&gt;Node10 -->
<g id="edge34_Node000024_Node000010" class="edge">
<title>Node24&#45;&gt;Node10</title>
<g id="a_edge34_Node000024_Node000010"><a xlink:title=" ">
<path fill="none" stroke="#63b8ff" d="M756.46,-167.74C753.55,-136.55 746.95,-65.56 743.72,-30.85"/>
<polygon fill="#63b8ff" stroke="#63b8ff" points="747.14,-30.84 742.73,-21.21 740.17,-31.49 747.14,-30.84"/>
</a>
</g>
</g>
<!-- Node24&#45;&gt;Node16 -->
<g id="edge35_Node000024_Node000016" class="edge">
<title>Node24&#45;&gt;Node16</title>
<g id="a_edge35_Node000024_Node000016"><a xlink:title=" ">
<path fill="none" stroke="#63b8ff" d="M718.16,-171.15C680.01,-159.76 623.13,-142.78 588.1,-132.32"/>
<polygon fill="#63b8ff" stroke="#63b8ff" points="589.57,-128.81 578.98,-129.3 587.56,-135.51 589.57,-128.81"/>
</a>
</g>
</g>
<!-- Node25&#45;&gt;Node18 -->
<g id="edge38_Node000025_Node000018" class="edge">
<title>Node25&#45;&gt;Node18</title>
<g id="a_edge38_Node000025_Node000018"><a xlink:title=" ">
<path fill="none" stroke="#63b8ff" d="M621.06,-235.62C608.31,-226.29 588.49,-211.79 573.33,-200.7"/>
<polygon fill="#63b8ff" stroke="#63b8ff" points="575.73,-197.39 565.6,-194.31 571.6,-203.04 575.73,-197.39"/>
</a>
</g>
</g>
<!-- Node25&#45;&gt;Node23 -->
<g id="edge37_Node000025_Node000023" class="edge">
<title>Node25&#45;&gt;Node23</title>
<g id="a_edge37_Node000025_Node000023"><a xlink:title=" ">
<path fill="none" stroke="#63b8ff" d="M634.81,-235.62C635.64,-227.39 636.86,-215.13 637.9,-204.74"/>
<polygon fill="#63b8ff" stroke="#63b8ff" points="641.45,-205.41 638.96,-195.11 634.49,-204.71 641.45,-205.41"/>
</a>
</g>
</g>
</g>
</svg>

<g id="navigator" transform="translate(0 0)" fill="#404254">
  <rect fill="#f2f5e9" fill-opacity="0.5" stroke="#606060" stroke-width=".5" x="0" y="0" width="60" height="60"/>
  <use id="zoomplus" xlink:href="#zoomPlus" x="17" y="9" onmousedown="handleZoom(evt,'in')"/>
  <use id="zoomminus" xlink:href="#zoomMin" x="42" y="9" onmousedown="handleZoom(evt,'out')"/>
  <use id="reset" xlink:href="#resetDef" x="30" y="36" onmousedown="handleReset()"/>
   <use id="arrowup" xlink:href="#arrowUp" x="0" y="0" onmousedown="handlePan(0,-1)"/>
  <use id="arrowright" xlink:href="#arrowRight" x="0" y="0" onmousedown="handlePan(1,0)"/>
  <use id="arrowdown" xlink:href="#arrowDown" x="0" y="0" onmousedown="handlePan(0,1)"/>
  <use id="arrowleft" xlink:href="#arrowLeft" x="0" y="0" onmousedown="handlePan(-1,0)"/>
</g>
<svg viewBox="0 0 15 15" width="100%" height="30px" preserveAspectRatio="xMaxYMin meet">
 <g id="arrow_out" transform="scale(0.3 0.3)">
  <a xlink:href="device__set_8cpp__incl_org.svg" target="_base">
   <rect id="button" ry="5" rx="5" y="6" x="6" height="38" width="38"
        fill="#f2f5e9" fill-opacity="0.5" stroke="#606060" stroke-width="1.0"/>
   <path id="arrow"
     d="M 11.500037,31.436501 C 11.940474,20.09759 22.043105,11.32322 32.158766,21.979434 L 37.068811,17.246167 C 37.068811,17.246167 37.088388,32 37.088388,32 L 22.160133,31.978069 C 22.160133,31.978069 26.997745,27.140456 26.997745,27.140456 C 18.528582,18.264221 13.291696,25.230495 11.500037,31.436501 z"
     style="fill:#404040;"/>
  </a>
 </g>
</svg>

<style type='text/css'>
<![CDATA[
[data-mouse-over-selected='false'] { opacity: 0.7; }
[data-mouse-over-selected='true']  { opacity: 1.0; }
]]>
</style>
<script type="application/ecmascript"><![CDATA[
document.addEventListener('DOMContentLoaded', (event) => {
  highlightEdges();
  highlightAdjacentNodes();
});
]]></script>
</svg>
