<?xml version="1.0" encoding="UTF-8" standalone="no"?>
<!DOCTYPE svg PUBLIC "-//W3C//DTD SVG 1.1//EN"
 "http://www.w3.org/Graphics/SVG/1.1/DTD/svg11.dtd">
<!-- Generated by graphviz version 8.0.5 (20230430.1635)
 -->
<!-- Title: src/devices/device_set.cpp Pages: 1 -->
<!--zoomable 388 -->

<svg id="main" version="1.1" xmlns="http://www.w3.org/2000/svg" xmlns:xlink="http://www.w3.org/1999/xlink" xml:space="preserve" onload="init(evt)">
<style type="text/css"><![CDATA[
.node, .edge {opacity: 0.7;}
.node.selected, .edge.selected {opacity: 1;}
.edge:hover path { stroke: red; }
.edge:hover polygon { stroke: red; fill: red; }
]]></style>

<defs>
  <circle id="rim" cx="0" cy="0" r="7"/>
  <circle id="rim2" cx="0" cy="0" r="3.5"/>
  <g id="zoomPlus">
    <use xlink:href="#rim" fill="#404040"><set attributeName="fill" to="#808080" begin="zoomplus.mouseover" end="zoomplus.mouseout"/></use>
    <path d="M-4,0h8M0,-4v8" fill="none" stroke="white" stroke-width="1.5" pointer-events="none"/>
  </g>
  <g id="zoomMin">
    <use xlink:href="#rim" fill="#404040"><set attributeName="fill" to="#808080" begin="zoomminus.mouseover" end="zoomminus.mouseout"/></use>
    <path d="M-4,0h8" fill="none" stroke="white" stroke-width="1.5" pointer-events="none"/>
  </g>
  <g id="arrowUp" transform="translate(30 24)">
    <use xlink:href="#rim"/>
    <path pointer-events="none" fill="none" stroke="white" stroke-width="1.5" d="M0,-3.0v7 M-2.5,-0.5L0,-3.0L2.5,-0.5"/>
  </g>
  <g id="arrowRight" transform="rotate(90) translate(36 -43)">
    <use xlink:href="#rim"/>
    <path pointer-events="none" fill="none" stroke="white" stroke-width="1.5" d="M0,-3.0v7 M-2.5,-0.5L0,-3.0L2.5,-0.5"/>
  </g>
  <g id="arrowDown" transform="rotate(180) translate(-30 -48)">
    <use xlink:href="#rim"/>
    <path pointer-events="none" fill="none" stroke="white" stroke-width="1.5" d="M0,-3.0v7 M-2.5,-0.5L0,-3.0L2.5,-0.5"/>
  </g>
  <g id="arrowLeft" transform="rotate(270) translate(-36 17)">
    <use xlink:href="#rim"/>
    <path pointer-events="none" fill="none" stroke="white" stroke-width="1.5" d="M0,-3.0v7 M-2.5,-0.5L0,-3.0L2.5,-0.5"/>
  </g>
  <g id="resetDef">
    <use xlink:href="#rim2" fill="#404040"><set attributeName="fill" to="#808080" begin="reset.mouseover" end="reset.mouseout"/></use>
  </g>
</defs>
<script type="application/ecmascript">
var viewWidth = 682;
var viewHeight = 388;
var sectionId = 'dynsection-0';
</script>
<script type="application/ecmascript" xlink:href="svg.min.js"/>
<svg id="graph" class="graph">
<g id="viewport">
<title>src/devices/device_set.cpp</title>
<!-- Node1 -->
<g id="Node000001" class="node">
<title>Node1</title>
<g id="a_Node000001"><a xlink:title=" ">
<polygon fill="#999999" stroke="#666666" points="406,-380 311.25,-380 311.25,-348 406,-348 406,-380"/>
<text text-anchor="start" x="319.25" y="-366.5" font-family="Helvetica,sans-Serif" font-size="10.00">src/devices/device</text>
<text text-anchor="middle" x="358.62" y="-354.5" font-family="Helvetica,sans-Serif" font-size="10.00">_set.cpp</text>
</a>
</g>
</g>
<!-- Node2 -->
<g id="Node000002" class="node">
<title>Node2</title>
<g id="a_Node000002"><a xlink:href="device__set_8hpp.html" target="_top" xlink:title="Заголовочный файл, содержащий в себе класс DeviceSet и набор констант, необходимых для данного класса...">
<polygon fill="white" stroke="#666666" points="364.88,-312 284.38,-312 284.38,-292 364.88,-292 364.88,-312"/>
<text text-anchor="middle" x="324.62" y="-298.5" font-family="Helvetica,sans-Serif" font-size="10.00">device_set.hpp</text>
</a>
</g>
</g>
<!-- Node1&#45;&gt;Node2 -->
<g id="edge1_Node000001_Node000002" class="edge">
<title>Node1&#45;&gt;Node2</title>
<g id="a_edge1_Node000001_Node000002"><a xlink:title=" ">
<path fill="none" stroke="#63b8ff" d="M349.87,-347.55C345.44,-339.74 340.03,-330.19 335.36,-321.94"/>
<polygon fill="#63b8ff" stroke="#63b8ff" points="337.93,-320.38 329.96,-313.41 331.84,-323.83 337.93,-320.38"/>
</a>
</g>
</g>
<!-- Node23 -->
<g id="Node000023" class="node">
<title>Node23</title>
<g id="a_Node000023"><a xlink:href="demo__rdb_8hpp.html" target="_top" xlink:title=" ">
<polygon fill="white" stroke="#666666" points="669.62,-256 575.62,-256 575.62,-236 669.62,-236 669.62,-256"/>
<text text-anchor="middle" x="622.62" y="-242.5" font-family="Helvetica,sans-Serif" font-size="10.00">rbd/demo_rdb.hpp</text>
</a>
</g>
</g>
<!-- Node1&#45;&gt;Node23 -->
<g id="edge30_Node000001_Node000023" class="edge">
<title>Node1&#45;&gt;Node23</title>
<g id="a_edge30_Node000001_Node000023"><a xlink:title=" ">
<path fill="none" stroke="#63b8ff" d="M393.68,-347.6C445.54,-324.81 541.87,-282.48 591.42,-260.71"/>
<polygon fill="#63b8ff" stroke="#63b8ff" points="592.5,-263.62 600.25,-256.39 589.68,-257.21 592.5,-263.62"/>
</a>
</g>
</g>
<!-- Node3 -->
<g id="Node000003" class="node">
<title>Node3</title>
<g id="a_Node000003"><a xlink:title=" ">
<polygon fill="#e0e0e0" stroke="#999999" points="407.5,-256 351.75,-256 351.75,-236 407.5,-236 407.5,-256"/>
<text text-anchor="middle" x="379.62" y="-242.5" font-family="Helvetica,sans-Serif" font-size="10.00">algorithm</text>
</a>
</g>
</g>
<!-- Node2&#45;&gt;Node3 -->
<g id="edge2_Node000002_Node000003" class="edge">
<title>Node2&#45;&gt;Node3</title>
<g id="a_edge2_Node000002_Node000003"><a xlink:title=" ">
<path fill="none" stroke="#63b8ff" d="M334.21,-291.59C342.01,-283.93 353.23,-272.91 362.57,-263.75"/>
<polygon fill="#63b8ff" stroke="#63b8ff" points="364.47,-266.8 369.15,-257.3 359.57,-261.81 364.47,-266.8"/>
</a>
</g>
</g>
<!-- Node4 -->
<g id="Node000004" class="node">
<title>Node4</title>
<g id="a_Node000004"><a xlink:href="vna__device_8hpp.html" target="_top" xlink:title=" ">
<polygon fill="white" stroke="#666666" points="318.88,-194 220.38,-194 220.38,-174 318.88,-174 318.88,-194"/>
<text text-anchor="middle" x="269.62" y="-180.5" font-family="Helvetica,sans-Serif" font-size="10.00">vna/vna_device.hpp</text>
</a>
</g>
</g>
<!-- Node2&#45;&gt;Node4 -->
<g id="edge3_Node000002_Node000004" class="edge">
<title>Node2&#45;&gt;Node4</title>
<g id="a_edge3_Node000002_Node000004"><a xlink:title=" ">
<path fill="none" stroke="#63b8ff" d="M284.13,-298.63C254.55,-294.53 216.3,-283.77 196.62,-256 180.86,-233.74 210.61,-212.52 236.74,-199.18"/>
<polygon fill="#63b8ff" stroke="#63b8ff" points="238.01,-201.97 245.48,-194.46 234.95,-195.67 238.01,-201.97"/>
</a>
</g>
</g>
<!-- Node17 -->
<g id="Node000017" class="node">
<title>Node17</title>
<g id="a_Node000017"><a xlink:href="gen__device_8hpp.html" target="_top" xlink:title=" ">
<polygon fill="white" stroke="#666666" points="196.38,-194 94.88,-194 94.88,-174 196.38,-174 196.38,-194"/>
<text text-anchor="middle" x="145.62" y="-180.5" font-family="Helvetica,sans-Serif" font-size="10.00">gen/gen_device.hpp</text>
</a>
</g>
</g>
<!-- Node2&#45;&gt;Node17 -->
<g id="edge17_Node000002_Node000017" class="edge">
<title>Node2&#45;&gt;Node17</title>
<g id="a_edge17_Node000002_Node000017"><a xlink:title=" ">
<path fill="none" stroke="#63b8ff" d="M284.17,-295.27C255.07,-289.45 216.24,-278.01 188.62,-256 171.59,-242.43 159.69,-220.14 152.79,-204.15"/>
<polygon fill="#63b8ff" stroke="#63b8ff" points="155.79,-203.24 148.81,-195.28 149.3,-205.86 155.79,-203.24"/>
</a>
</g>
</g>
<!-- Node18 -->
<g id="Node000018" class="node">
<title>Node18</title>
<g id="a_Node000018"><a xlink:href="rbd__device_8hpp.html" target="_top" xlink:title=" ">
<polygon fill="white" stroke="#666666" points="477.12,-194 380.12,-194 380.12,-174 477.12,-174 477.12,-194"/>
<text text-anchor="middle" x="428.62" y="-180.5" font-family="Helvetica,sans-Serif" font-size="10.00">rbd/rbd_device.hpp</text>
</a>
</g>
</g>
<!-- Node2&#45;&gt;Node18 -->
<g id="edge20_Node000002_Node000018" class="edge">
<title>Node2&#45;&gt;Node18</title>
<g id="a_edge20_Node000002_Node000018"><a xlink:title=" ">
<path fill="none" stroke="#63b8ff" d="M362.26,-291.53C381.43,-284.77 403.43,-273.66 416.62,-256 427.49,-241.46 429.89,-220.58 429.93,-205.22"/>
<polygon fill="#63b8ff" stroke="#63b8ff" points="433.4,-205.2 429.58,-195.32 426.41,-205.43 433.4,-205.2"/>
</a>
</g>
</g>
<!-- Node19 -->
<g id="Node000019" class="node">
<title>Node19</title>
<g id="a_Node000019"><a xlink:href="keysight__m9807a_8hpp.html" target="_top" xlink:title=" ">
<polygon fill="white" stroke="#666666" points="333.88,-256 205.38,-256 205.38,-236 333.88,-236 333.88,-256"/>
<text text-anchor="middle" x="269.62" y="-242.5" font-family="Helvetica,sans-Serif" font-size="10.00">vna/keysight_m9807a.hpp</text>
</a>
</g>
</g>
<!-- Node2&#45;&gt;Node19 -->
<g id="edge23_Node000002_Node000019" class="edge">
<title>Node2&#45;&gt;Node19</title>
<g id="a_edge23_Node000002_Node000019"><a xlink:title=" ">
<path fill="none" stroke="#63b8ff" d="M315.04,-291.59C307.24,-283.93 296.02,-272.91 286.68,-263.75"/>
<polygon fill="#63b8ff" stroke="#63b8ff" points="289.68,-261.81 280.1,-257.3 284.78,-266.8 289.68,-261.81"/>
</a>
</g>
</g>
<!-- Node20 -->
<g id="Node000020" class="node">
<title>Node20</title>
<g id="a_Node000020"><a xlink:href="keysight__gen_8hpp.html" target="_top" xlink:title=" ">
<polygon fill="white" stroke="#666666" points="111.25,-256 0,-256 0,-236 111.25,-236 111.25,-256"/>
<text text-anchor="middle" x="55.62" y="-242.5" font-family="Helvetica,sans-Serif" font-size="10.00">gen/keysight_gen.hpp</text>
</a>
</g>
</g>
<!-- Node2&#45;&gt;Node20 -->
<g id="edge25_Node000002_Node000020" class="edge">
<title>Node2&#45;&gt;Node20</title>
<g id="a_edge25_Node000002_Node000020"><a xlink:title=" ">
<path fill="none" stroke="#63b8ff" d="M284.06,-292.86C238.71,-283.75 164.89,-268.93 113.48,-258.61"/>
<polygon fill="#63b8ff" stroke="#63b8ff" points="114.36,-255.02 103.87,-256.48 112.99,-261.88 114.36,-255.02"/>
</a>
</g>
</g>
<!-- Node21 -->
<g id="Node000021" class="node">
<title>Node21</title>
<g id="a_Node000021"><a xlink:href="tesart__rbd_8hpp.html" target="_top" xlink:title=" ">
<polygon fill="white" stroke="#666666" points="558,-256 463.25,-256 463.25,-236 558,-236 558,-256"/>
<text text-anchor="middle" x="510.62" y="-242.5" font-family="Helvetica,sans-Serif" font-size="10.00">rbd/tesart_rbd.hpp</text>
</a>
</g>
</g>
<!-- Node2&#45;&gt;Node21 -->
<g id="edge27_Node000002_Node000021" class="edge">
<title>Node2&#45;&gt;Node21</title>
<g id="a_edge27_Node000002_Node000021"><a xlink:title=" ">
<path fill="none" stroke="#63b8ff" d="M357.02,-291.59C387.64,-282.71 433.78,-269.31 467.5,-259.52"/>
<polygon fill="#63b8ff" stroke="#63b8ff" points="468.35,-262.63 476.97,-256.48 466.39,-255.91 468.35,-262.63"/>
</a>
</g>
</g>
<!-- Node5 -->
<g id="Node000005" class="node">
<title>Node5</title>
<g id="a_Node000005"><a xlink:href="visa__device_8hpp.html" target="_top" xlink:title="Заголовочный файл, в котором определены константы и класс VisaDevice.">
<polygon fill="white" stroke="#666666" points="255.88,-132 163.38,-132 163.38,-112 255.88,-112 255.88,-132"/>
<text text-anchor="middle" x="209.62" y="-118.5" font-family="Helvetica,sans-Serif" font-size="10.00">../visa_device.hpp</text>
</a>
</g>
</g>
<!-- Node4&#45;&gt;Node5 -->
<g id="edge4_Node000004_Node000005" class="edge">
<title>Node4&#45;&gt;Node5</title>
<g id="a_edge4_Node000004_Node000005"><a xlink:title=" ">
<path fill="none" stroke="#63b8ff" d="M260.25,-173.62C251.22,-164.59 237.34,-150.72 226.4,-139.78"/>
<polygon fill="#63b8ff" stroke="#63b8ff" points="229.28,-137.71 219.74,-133.11 224.33,-142.66 229.28,-137.71"/>
</a>
</g>
</g>
<!-- Node15 -->
<g id="Node000015" class="node">
<title>Node15</title>
<g id="a_Node000015"><a xlink:href="exceptions_8hpp.html" target="_top" xlink:title="Заголовочный файл, содержащий класс antestl_exsceptions, сообщения исключений и коды исключений">
<polygon fill="white" stroke="#666666" points="395.12,-132 274.12,-132 274.12,-112 395.12,-112 395.12,-132"/>
<text text-anchor="middle" x="334.62" y="-118.5" font-family="Helvetica,sans-Serif" font-size="10.00">../../utils/exceptions.hpp</text>
</a>
</g>
</g>
<!-- Node4&#45;&gt;Node15 -->
<g id="edge15_Node000004_Node000015" class="edge">
<title>Node4&#45;&gt;Node15</title>
<g id="a_edge15_Node000004_Node000015"><a xlink:title=" ">
<path fill="none" stroke="#63b8ff" d="M279.78,-173.62C289.66,-164.5 304.89,-150.45 316.8,-139.46"/>
<polygon fill="#63b8ff" stroke="#63b8ff" points="318.78,-142.47 323.75,-133.11 314.03,-137.32 318.78,-142.47"/>
</a>
</g>
</g>
<!-- Node16 -->
<g id="Node000016" class="node">
<title>Node16</title>
<g id="a_Node000016"><a xlink:title=" ">
<polygon fill="#e0e0e0" stroke="#999999" points="454.38,-132 412.88,-132 412.88,-112 454.38,-112 454.38,-132"/>
<text text-anchor="middle" x="433.62" y="-118.5" font-family="Helvetica,sans-Serif" font-size="10.00">vector</text>
</a>
</g>
</g>
<!-- Node4&#45;&gt;Node16 -->
<g id="edge16_Node000004_Node000016" class="edge">
<title>Node4&#45;&gt;Node16</title>
<g id="a_edge16_Node000004_Node000016"><a xlink:title=" ">
<path fill="none" stroke="#63b8ff" d="M295.25,-173.62C324.18,-163.04 371.26,-145.82 402.33,-134.45"/>
<polygon fill="#63b8ff" stroke="#63b8ff" points="403.42,-137.41 411.6,-130.69 401.01,-130.84 403.42,-137.41"/>
</a>
</g>
</g>
<!-- Node6 -->
<g id="Node000006" class="node">
<title>Node6</title>
<g id="a_Node000006"><a xlink:title=" ">
<polygon fill="#e0e0e0" stroke="#999999" points="279.12,-20 236.12,-20 236.12,0 279.12,0 279.12,-20"/>
<text text-anchor="middle" x="257.62" y="-6.5" font-family="Helvetica,sans-Serif" font-size="10.00">format</text>
</a>
</g>
</g>
<!-- Node5&#45;&gt;Node6 -->
<g id="edge5_Node000005_Node000006" class="edge">
<title>Node5&#45;&gt;Node6</title>
<g id="a_edge5_Node000005_Node000006"><a xlink:title=" ">
<path fill="none" stroke="#63b8ff" d="M216.69,-111.8C223.15,-103.01 232.6,-89.19 238.62,-76 245.28,-61.43 250.24,-43.95 253.41,-30.79"/>
<polygon fill="#63b8ff" stroke="#63b8ff" points="257.03,-31.65 255.83,-21.12 250.21,-30.1 257.03,-31.65"/>
</a>
</g>
</g>
<!-- Node7 -->
<g id="Node000007" class="node">
<title>Node7</title>
<g id="a_Node000007"><a xlink:title=" ">
<polygon fill="#e0e0e0" stroke="#999999" points="171.25,-76 126,-76 126,-56 171.25,-56 171.25,-76"/>
<text text-anchor="middle" x="148.62" y="-62.5" font-family="Helvetica,sans-Serif" font-size="10.00">cstring</text>
</a>
</g>
</g>
<!-- Node5&#45;&gt;Node7 -->
<g id="edge6_Node000005_Node000007" class="edge">
<title>Node5&#45;&gt;Node7</title>
<g id="a_edge6_Node000005_Node000007"><a xlink:title=" ">
<path fill="none" stroke="#63b8ff" d="M199,-111.59C190.25,-103.85 177.64,-92.69 167.23,-83.47"/>
<polygon fill="#63b8ff" stroke="#63b8ff" points="169.94,-81.31 160.13,-77.3 165.3,-86.55 169.94,-81.31"/>
</a>
</g>
</g>
<!-- Node8 -->
<g id="Node000008" class="node">
<title>Node8</title>
<g id="a_Node000008"><a xlink:title=" ">
<polygon fill="#e0e0e0" stroke="#999999" points="230,-76 189.25,-76 189.25,-56 230,-56 230,-76"/>
<text text-anchor="middle" x="209.62" y="-62.5" font-family="Helvetica,sans-Serif" font-size="10.00">visa.h</text>
</a>
</g>
</g>
<!-- Node5&#45;&gt;Node8 -->
<g id="edge7_Node000005_Node000008" class="edge">
<title>Node5&#45;&gt;Node8</title>
<g id="a_edge7_Node000005_Node000008"><a xlink:title=" ">
<path fill="none" stroke="#63b8ff" d="M209.62,-111.59C209.62,-104.86 209.62,-95.53 209.62,-87.15"/>
<polygon fill="#63b8ff" stroke="#63b8ff" points="213.13,-87.3 209.62,-77.3 206.13,-87.3 213.13,-87.3"/>
</a>
</g>
</g>
<!-- Node9 -->
<g id="Node000009" class="node">
<title>Node9</title>
<g id="a_Node000009"><a xlink:href="logger_8hpp.html" target="_top" xlink:title="Библиотека, осуществляющая логирование">
<polygon fill="white" stroke="#666666" points="439.12,-76 348.12,-76 348.12,-56 439.12,-56 439.12,-76"/>
<text text-anchor="middle" x="393.62" y="-62.5" font-family="Helvetica,sans-Serif" font-size="10.00">../utils/logger.hpp</text>
</a>
</g>
</g>
<!-- Node5&#45;&gt;Node9 -->
<g id="edge8_Node000005_Node000009" class="edge">
<title>Node5&#45;&gt;Node9</title>
<g id="a_edge8_Node000005_Node000009"><a xlink:title=" ">
<path fill="none" stroke="#63b8ff" d="M241.68,-111.59C271.96,-102.71 317.61,-89.31 350.96,-79.52"/>
<polygon fill="#63b8ff" stroke="#63b8ff" points="351.71,-82.65 360.32,-76.48 349.74,-75.94 351.71,-82.65"/>
</a>
</g>
</g>
<!-- Node9&#45;&gt;Node6 -->
<g id="edge14_Node000009_Node000006" class="edge">
<title>Node9&#45;&gt;Node6</title>
<g id="a_edge14_Node000009_Node000006"><a xlink:title=" ">
<path fill="none" stroke="#63b8ff" d="M369.94,-55.59C347.56,-46.71 313.85,-33.32 289.2,-23.54"/>
<polygon fill="#63b8ff" stroke="#63b8ff" points="290.84,-20.02 280.25,-19.59 288.25,-26.53 290.84,-20.02"/>
</a>
</g>
</g>
<!-- Node10 -->
<g id="Node000010" class="node">
<title>Node10</title>
<g id="a_Node000010"><a xlink:title=" ">
<polygon fill="#e0e0e0" stroke="#999999" points="638.62,-20 598.62,-20 598.62,0 638.62,0 638.62,-20"/>
<text text-anchor="middle" x="618.62" y="-6.5" font-family="Helvetica,sans-Serif" font-size="10.00">string</text>
</a>
</g>
</g>
<!-- Node9&#45;&gt;Node10 -->
<g id="edge9_Node000009_Node000010" class="edge">
<title>Node9&#45;&gt;Node10</title>
<g id="a_edge9_Node000009_Node000010"><a xlink:title=" ">
<path fill="none" stroke="#63b8ff" d="M433.07,-55.53C477.2,-44.94 547.73,-28.01 587.93,-18.37"/>
<polygon fill="#63b8ff" stroke="#63b8ff" points="588.51,-21.59 597.42,-15.85 586.88,-14.78 588.51,-21.59"/>
</a>
</g>
</g>
<!-- Node11 -->
<g id="Node000011" class="node">
<title>Node11</title>
<g id="a_Node000011"><a xlink:title=" ">
<polygon fill="#e0e0e0" stroke="#999999" points="350.38,-20 296.88,-20 296.88,0 350.38,0 350.38,-20"/>
<text text-anchor="middle" x="323.62" y="-6.5" font-family="Helvetica,sans-Serif" font-size="10.00">iostream</text>
</a>
</g>
</g>
<!-- Node9&#45;&gt;Node11 -->
<g id="edge10_Node000009_Node000011" class="edge">
<title>Node9&#45;&gt;Node11</title>
<g id="a_edge10_Node000009_Node000011"><a xlink:title=" ">
<path fill="none" stroke="#63b8ff" d="M381.43,-55.59C371.19,-47.7 356.34,-36.24 344.26,-26.92"/>
<polygon fill="#63b8ff" stroke="#63b8ff" points="346.73,-23.64 336.68,-20.3 342.46,-29.18 346.73,-23.64"/>
</a>
</g>
</g>
<!-- Node12 -->
<g id="Node000012" class="node">
<title>Node12</title>
<g id="a_Node000012"><a xlink:title=" ">
<polygon fill="#e0e0e0" stroke="#999999" points="419.25,-20 368,-20 368,0 419.25,0 419.25,-20"/>
<text text-anchor="middle" x="393.62" y="-6.5" font-family="Helvetica,sans-Serif" font-size="10.00">sstream</text>
</a>
</g>
</g>
<!-- Node9&#45;&gt;Node12 -->
<g id="edge11_Node000009_Node000012" class="edge">
<title>Node9&#45;&gt;Node12</title>
<g id="a_edge11_Node000009_Node000012"><a xlink:title=" ">
<path fill="none" stroke="#63b8ff" d="M393.62,-55.59C393.62,-48.86 393.62,-39.53 393.62,-31.15"/>
<polygon fill="#63b8ff" stroke="#63b8ff" points="397.13,-31.3 393.62,-21.3 390.13,-31.3 397.13,-31.3"/>
</a>
</g>
</g>
<!-- Node13 -->
<g id="Node000013" class="node">
<title>Node13</title>
<g id="a_Node000013"><a xlink:title=" ">
<polygon fill="#e0e0e0" stroke="#999999" points="499.5,-20 437.75,-20 437.75,0 499.5,0 499.5,-20"/>
<text text-anchor="middle" x="468.62" y="-6.5" font-family="Helvetica,sans-Serif" font-size="10.00">sys/time.h</text>
</a>
</g>
</g>
<!-- Node9&#45;&gt;Node13 -->
<g id="edge12_Node000009_Node000013" class="edge">
<title>Node9&#45;&gt;Node13</title>
<g id="a_edge12_Node000009_Node000013"><a xlink:title=" ">
<path fill="none" stroke="#63b8ff" d="M406.69,-55.59C417.7,-47.67 433.69,-36.16 446.66,-26.82"/>
<polygon fill="#63b8ff" stroke="#63b8ff" points="448.39,-29.16 454.46,-20.48 444.3,-23.48 448.39,-29.16"/>
</a>
</g>
</g>
<!-- Node14 -->
<g id="Node000014" class="node">
<title>Node14</title>
<g id="a_Node000014"><a xlink:title=" ">
<polygon fill="#e0e0e0" stroke="#999999" points="560.12,-20 517.12,-20 517.12,0 560.12,0 560.12,-20"/>
<text text-anchor="middle" x="538.62" y="-6.5" font-family="Helvetica,sans-Serif" font-size="10.00">cmath</text>
</a>
</g>
</g>
<!-- Node9&#45;&gt;Node14 -->
<g id="edge13_Node000009_Node000014" class="edge">
<title>Node9&#45;&gt;Node14</title>
<g id="a_edge13_Node000009_Node000014"><a xlink:title=" ">
<path fill="none" stroke="#63b8ff" d="M418.88,-55.59C443.27,-46.51 480.29,-32.72 506.71,-22.88"/>
<polygon fill="#63b8ff" stroke="#63b8ff" points="507.82,-25.84 515.97,-19.07 505.37,-19.28 507.82,-25.84"/>
</a>
</g>
</g>
<!-- Node17&#45;&gt;Node5 -->
<g id="edge18_Node000017_Node000005" class="edge">
<title>Node17&#45;&gt;Node5</title>
<g id="a_edge18_Node000017_Node000005"><a xlink:title=" ">
<path fill="none" stroke="#63b8ff" d="M155.62,-173.62C165.36,-164.5 180.35,-150.45 192.07,-139.46"/>
<polygon fill="#63b8ff" stroke="#63b8ff" points="194,-142.51 198.9,-133.11 189.22,-137.4 194,-142.51"/>
</a>
</g>
</g>
<!-- Node17&#45;&gt;Node15 -->
<g id="edge19_Node000017_Node000015" class="edge">
<title>Node17&#45;&gt;Node15</title>
<g id="a_edge19_Node000017_Node000015"><a xlink:title=" ">
<path fill="none" stroke="#63b8ff" d="M175.16,-173.62C207.38,-163.4 259.13,-146.97 294.9,-135.61"/>
<polygon fill="#63b8ff" stroke="#63b8ff" points="295.52,-138.77 303.99,-132.41 293.4,-132.1 295.52,-138.77"/>
</a>
</g>
</g>
<!-- Node18&#45;&gt;Node5 -->
<g id="edge21_Node000018_Node000005" class="edge">
<title>Node18&#45;&gt;Node5</title>
<g id="a_edge21_Node000018_Node000005"><a xlink:title=" ">
<path fill="none" stroke="#63b8ff" d="M394.41,-173.62C356.67,-163.29 295.81,-146.61 254.33,-135.25"/>
<polygon fill="#63b8ff" stroke="#63b8ff" points="255.53,-131.67 244.96,-132.41 253.68,-138.43 255.53,-131.67"/>
</a>
</g>
</g>
<!-- Node18&#45;&gt;Node16 -->
<g id="edge22_Node000018_Node000016" class="edge">
<title>Node18&#45;&gt;Node16</title>
<g id="a_edge22_Node000018_Node000016"><a xlink:title=" ">
<path fill="none" stroke="#63b8ff" d="M429.41,-173.62C430.09,-165.48 431.09,-153.39 431.95,-143.07"/>
<polygon fill="#63b8ff" stroke="#63b8ff" points="435.52,-143.37 432.87,-133.11 428.55,-142.79 435.52,-143.37"/>
</a>
</g>
</g>
<!-- Node19&#45;&gt;Node4 -->
<g id="edge24_Node000019_Node000004" class="edge">
<title>Node19&#45;&gt;Node4</title>
<g id="a_edge24_Node000019_Node000004"><a xlink:title=" ">
<path fill="none" stroke="#63b8ff" d="M269.62,-235.62C269.62,-227.48 269.62,-215.39 269.62,-205.07"/>
<polygon fill="#63b8ff" stroke="#63b8ff" points="273.13,-205.11 269.62,-195.11 266.13,-205.11 273.13,-205.11"/>
</a>
</g>
</g>
<!-- Node20&#45;&gt;Node17 -->
<g id="edge26_Node000020_Node000017" class="edge">
<title>Node20&#45;&gt;Node17</title>
<g id="a_edge26_Node000020_Node000017"><a xlink:title=" ">
<path fill="none" stroke="#63b8ff" d="M69.69,-235.62C83.82,-226.2 105.85,-211.52 122.55,-200.39"/>
<polygon fill="#63b8ff" stroke="#63b8ff" points="124.28,-202.77 130.66,-194.31 120.4,-196.94 124.28,-202.77"/>
</a>
</g>
</g>
<!-- Node21&#45;&gt;Node18 -->
<g id="edge29_Node000021_Node000018" class="edge">
<title>Node21&#45;&gt;Node18</title>
<g id="a_edge29_Node000021_Node000018"><a xlink:title=" ">
<path fill="none" stroke="#63b8ff" d="M497.81,-235.62C485.06,-226.29 465.24,-211.79 450.08,-200.7"/>
<polygon fill="#63b8ff" stroke="#63b8ff" points="452.48,-197.39 442.35,-194.31 448.35,-203.04 452.48,-197.39"/>
</a>
</g>
</g>
<!-- Node22 -->
<g id="Node000022" class="node">
<title>Node22</title>
<g id="a_Node000022"><a xlink:title=" ">
<polygon fill="#e0e0e0" stroke="#999999" points="538.12,-194 495.12,-194 495.12,-174 538.12,-174 538.12,-194"/>
<text text-anchor="middle" x="516.62" y="-180.5" font-family="Helvetica,sans-Serif" font-size="10.00">thread</text>
</a>
</g>
</g>
<!-- Node21&#45;&gt;Node22 -->
<g id="edge28_Node000021_Node000022" class="edge">
<title>Node21&#45;&gt;Node22</title>
<g id="a_edge28_Node000021_Node000022"><a xlink:title=" ">
<path fill="none" stroke="#63b8ff" d="M511.56,-235.62C512.39,-227.39 513.61,-215.13 514.65,-204.74"/>
<polygon fill="#63b8ff" stroke="#63b8ff" points="518.2,-205.41 515.71,-195.11 511.24,-204.71 518.2,-205.41"/>
</a>
</g>
</g>
<!-- Node23&#45;&gt;Node15 -->
<g id="edge33_Node000023_Node000015" class="edge">
<title>Node23&#45;&gt;Node15</title>
<g id="a_edge33_Node000023_Node000015"><a xlink:title=" ">
<path fill="none" stroke="#63b8ff" d="M614.84,-235.75C599.1,-217.27 563.64,-176.82 547.62,-168 523.54,-154.74 458.05,-142.02 405.98,-133.5"/>
<polygon fill="#63b8ff" stroke="#63b8ff" points="406.86,-129.94 396.43,-131.81 405.75,-136.85 406.86,-129.94"/>
</a>
</g>
</g>
<!-- Node23&#45;&gt;Node18 -->
<g id="edge32_Node000023_Node000018" class="edge">
<title>Node23&#45;&gt;Node18</title>
<g id="a_edge32_Node000023_Node000018"><a xlink:title=" ">
<path fill="none" stroke="#63b8ff" d="M592.31,-235.62C559.24,-225.4 506.11,-208.97 469.4,-197.61"/>
<polygon fill="#63b8ff" stroke="#63b8ff" points="470.63,-194.02 460.04,-194.41 468.56,-200.71 470.63,-194.02"/>
</a>
</g>
</g>
<!-- Node23&#45;&gt;Node22 -->
<g id="edge31_Node000023_Node000022" class="edge">
<title>Node23&#45;&gt;Node22</title>
<g id="a_edge31_Node000023_Node000022"><a xlink:title=" ">
<path fill="none" stroke="#63b8ff" d="M606.06,-235.62C589.03,-225.98 562.26,-210.83 542.44,-199.61"/>
<polygon fill="#63b8ff" stroke="#63b8ff" points="544.5,-196.19 534.07,-194.31 541.05,-202.28 544.5,-196.19"/>
</a>
</g>
</g>
<!-- Node24 -->
<g id="Node000024" class="node">
<title>Node24</title>
<g id="a_Node000024"><a xlink:href="string__utils_8hpp.html" target="_top" xlink:title="Заголовочный файл, в котором определено пространство имён string_utils.">
<polygon fill="white" stroke="#666666" points="674.12,-200 595.12,-200 595.12,-168 674.12,-168 674.12,-200"/>
<text text-anchor="start" x="603.12" y="-186.5" font-family="Helvetica,sans-Serif" font-size="10.00">../../utils/string</text>
<text text-anchor="middle" x="634.62" y="-174.5" font-family="Helvetica,sans-Serif" font-size="10.00">_utils.hpp</text>
</a>
</g>
</g>
<!-- Node23&#45;&gt;Node24 -->
<g id="edge34_Node000023_Node000024" class="edge">
<title>Node23&#45;&gt;Node24</title>
<g id="a_edge34_Node000023_Node000024"><a xlink:title=" ">
<path fill="none" stroke="#63b8ff" d="M624.5,-235.62C625.83,-228.95 627.7,-219.64 629.46,-210.82"/>
<polygon fill="#63b8ff" stroke="#63b8ff" points="633.07,-211.63 631.6,-201.14 626.2,-210.26 633.07,-211.63"/>
</a>
</g>
</g>
<!-- Node24&#45;&gt;Node10 -->
<g id="edge35_Node000024_Node000010" class="edge">
<title>Node24&#45;&gt;Node10</title>
<g id="a_edge35_Node000024_Node000010"><a xlink:title=" ">
<path fill="none" stroke="#63b8ff" d="M633.21,-167.74C630.3,-136.55 623.7,-65.56 620.47,-30.85"/>
<polygon fill="#63b8ff" stroke="#63b8ff" points="623.89,-30.84 619.48,-21.21 616.92,-31.49 623.89,-30.84"/>
</a>
</g>
</g>
<!-- Node24&#45;&gt;Node16 -->
<g id="edge36_Node000024_Node000016" class="edge">
<title>Node24&#45;&gt;Node16</title>
<g id="a_edge36_Node000024_Node000016"><a xlink:title=" ">
<path fill="none" stroke="#63b8ff" d="M594.91,-171.15C556.76,-159.76 499.88,-142.78 464.85,-132.32"/>
<polygon fill="#63b8ff" stroke="#63b8ff" points="466.32,-128.81 455.73,-129.3 464.31,-135.51 466.32,-128.81"/>
</a>
</g>
</g>
</g>
</svg>

<g id="navigator" transform="translate(0 0)" fill="#404254">
  <rect fill="#f2f5e9" fill-opacity="0.5" stroke="#606060" stroke-width=".5" x="0" y="0" width="60" height="60"/>
  <use id="zoomplus" xlink:href="#zoomPlus" x="17" y="9" onmousedown="handleZoom(evt,'in')"/>
  <use id="zoomminus" xlink:href="#zoomMin" x="42" y="9" onmousedown="handleZoom(evt,'out')"/>
  <use id="reset" xlink:href="#resetDef" x="30" y="36" onmousedown="handleReset()"/>
   <use id="arrowup" xlink:href="#arrowUp" x="0" y="0" onmousedown="handlePan(0,-1)"/>
  <use id="arrowright" xlink:href="#arrowRight" x="0" y="0" onmousedown="handlePan(1,0)"/>
  <use id="arrowdown" xlink:href="#arrowDown" x="0" y="0" onmousedown="handlePan(0,1)"/>
  <use id="arrowleft" xlink:href="#arrowLeft" x="0" y="0" onmousedown="handlePan(-1,0)"/>
</g>
<svg viewBox="0 0 15 15" width="100%" height="30px" preserveAspectRatio="xMaxYMin meet">
 <g id="arrow_out" transform="scale(0.3 0.3)">
  <a xlink:href="device__set_8cpp__incl_org.svg" target="_base">
   <rect id="button" ry="5" rx="5" y="6" x="6" height="38" width="38"
        fill="#f2f5e9" fill-opacity="0.5" stroke="#606060" stroke-width="1.0"/>
   <path id="arrow"
     d="M 11.500037,31.436501 C 11.940474,20.09759 22.043105,11.32322 32.158766,21.979434 L 37.068811,17.246167 C 37.068811,17.246167 37.088388,32 37.088388,32 L 22.160133,31.978069 C 22.160133,31.978069 26.997745,27.140456 26.997745,27.140456 C 18.528582,18.264221 13.291696,25.230495 11.500037,31.436501 z"
     style="fill:#404040;"/>
  </a>
 </g>
</svg>

<style type='text/css'>
<![CDATA[
[data-mouse-over-selected='false'] { opacity: 0.7; }
[data-mouse-over-selected='true']  { opacity: 1.0; }
]]>
</style>
<script type="application/ecmascript"><![CDATA[
document.addEventListener('DOMContentLoaded', (event) => {
  highlightEdges();
  highlightAdjacentNodes();
});
]]></script>
</svg>
