<?xml version="1.0" encoding="UTF-8" standalone="no"?>
<!DOCTYPE svg PUBLIC "-//W3C//DTD SVG 1.1//EN"
 "http://www.w3.org/Graphics/SVG/1.1/DTD/svg11.dtd">
<!-- Generated by graphviz version 8.0.5 (20230430.1635)
 -->
<!-- Title: src/devices/device_set.hpp Pages: 1 -->
<svg width="566pt" height="320pt"
 viewBox="0.00 0.00 566.25 320.00" xmlns="http://www.w3.org/2000/svg" xmlns:xlink="http://www.w3.org/1999/xlink">
<g id="graph0" class="graph" transform="scale(1 1) rotate(0) translate(4 316)">
<title>src/devices/device_set.hpp</title>
<!-- Node1 -->
<g id="Node000001" class="node">
<title>Node1</title>
<g id="a_Node000001"><a xlink:title=" ">
<polygon fill="#999999" stroke="#666666" points="353.25,-312 258.5,-312 258.5,-280 353.25,-280 353.25,-312"/>
<text text-anchor="start" x="266.5" y="-298.5" font-family="Helvetica,sans-Serif" font-size="10.00">src/devices/device</text>
<text text-anchor="middle" x="305.88" y="-286.5" font-family="Helvetica,sans-Serif" font-size="10.00">_set.hpp</text>
</a>
</g>
</g>
<!-- Node2 -->
<g id="Node000002" class="node">
<title>Node2</title>
<g id="a_Node000002"><a xlink:title=" ">
<polygon fill="#e0e0e0" stroke="#999999" points="55.75,-244 0,-244 0,-224 55.75,-224 55.75,-244"/>
<text text-anchor="middle" x="27.88" y="-230.5" font-family="Helvetica,sans-Serif" font-size="10.00">algorithm</text>
</a>
</g>
</g>
<!-- Node1&#45;&gt;Node2 -->
<g id="edge1_Node000001_Node000002" class="edge">
<title>Node1&#45;&gt;Node2</title>
<g id="a_edge1_Node000001_Node000002"><a xlink:title=" ">
<path fill="none" stroke="#63b8ff" d="M258.23,-285.36C211.82,-275.87 139.03,-260.72 66.79,-244.39"/>
<polygon fill="#63b8ff" stroke="#63b8ff" points="67.66,-240.77 57.14,-241.97 66.11,-247.59 67.66,-240.77"/>
</a>
</g>
</g>
<!-- Node3 -->
<g id="Node000003" class="node">
<title>Node3</title>
<g id="a_Node000003"><a xlink:href="vna__device_8hpp.html" target="_top" xlink:title=" ">
<polygon fill="white" stroke="#666666" points="369.12,-188 270.62,-188 270.62,-168 369.12,-168 369.12,-188"/>
<text text-anchor="middle" x="319.88" y="-174.5" font-family="Helvetica,sans-Serif" font-size="10.00">vna/vna_device.hpp</text>
</a>
</g>
</g>
<!-- Node1&#45;&gt;Node3 -->
<g id="edge2_Node000001_Node000003" class="edge">
<title>Node1&#45;&gt;Node3</title>
<g id="a_edge2_Node000001_Node000003"><a xlink:title=" ">
<path fill="none" stroke="#63b8ff" d="M341.2,-279.54C355.63,-271.24 370.8,-259.49 378.88,-244 389.17,-224.26 368.5,-205.88 348.85,-193.74"/>
<polygon fill="#63b8ff" stroke="#63b8ff" points="350.84,-190.27 340.43,-188.3 347.34,-196.33 350.84,-190.27"/>
</a>
</g>
</g>
<!-- Node16 -->
<g id="Node000016" class="node">
<title>Node16</title>
<g id="a_Node000016"><a xlink:href="gen__device_8hpp.html" target="_top" xlink:title=" ">
<polygon fill="white" stroke="#666666" points="252.62,-188 151.12,-188 151.12,-168 252.62,-168 252.62,-188"/>
<text text-anchor="middle" x="201.88" y="-174.5" font-family="Helvetica,sans-Serif" font-size="10.00">gen/gen_device.hpp</text>
</a>
</g>
</g>
<!-- Node1&#45;&gt;Node16 -->
<g id="edge16_Node000001_Node000016" class="edge">
<title>Node1&#45;&gt;Node16</title>
<g id="a_edge16_Node000001_Node000016"><a xlink:title=" ">
<path fill="none" stroke="#63b8ff" d="M276.83,-279.54C262.22,-270.65 245.07,-258.39 232.88,-244 221.51,-230.59 213.28,-212.3 208.16,-198.53"/>
<polygon fill="#63b8ff" stroke="#63b8ff" points="211.18,-197.55 204.6,-189.25 204.57,-199.84 211.18,-197.55"/>
</a>
</g>
</g>
<!-- Node17 -->
<g id="Node000017" class="node">
<title>Node17</title>
<g id="a_Node000017"><a xlink:href="rbd__device_8hpp.html" target="_top" xlink:title=" ">
<polygon fill="white" stroke="#666666" points="484.38,-188 387.38,-188 387.38,-168 484.38,-168 484.38,-188"/>
<text text-anchor="middle" x="435.88" y="-174.5" font-family="Helvetica,sans-Serif" font-size="10.00">rbd/rbd_device.hpp</text>
</a>
</g>
</g>
<!-- Node1&#45;&gt;Node17 -->
<g id="edge19_Node000001_Node000017" class="edge">
<title>Node1&#45;&gt;Node17</title>
<g id="a_edge19_Node000001_Node000017"><a xlink:title=" ">
<path fill="none" stroke="#63b8ff" d="M341.48,-279.63C358.93,-270.92 379.45,-258.79 394.88,-244 408.69,-230.76 419.9,-211.95 427.08,-197.97"/>
<polygon fill="#63b8ff" stroke="#63b8ff" points="430.51,-199.91 431.76,-189.39 424.23,-196.84 430.51,-199.91"/>
</a>
</g>
</g>
<!-- Node18 -->
<g id="Node000018" class="node">
<title>Node18</title>
<g id="a_Node000018"><a xlink:href="keysight__m9807a_8hpp.html" target="_top" xlink:title=" ">
<polygon fill="white" stroke="#666666" points="370.12,-244 241.62,-244 241.62,-224 370.12,-224 370.12,-244"/>
<text text-anchor="middle" x="305.88" y="-230.5" font-family="Helvetica,sans-Serif" font-size="10.00">vna/keysight_m9807a.hpp</text>
</a>
</g>
</g>
<!-- Node1&#45;&gt;Node18 -->
<g id="edge22_Node000001_Node000018" class="edge">
<title>Node1&#45;&gt;Node18</title>
<g id="a_edge22_Node000001_Node000018"><a xlink:title=" ">
<path fill="none" stroke="#63b8ff" d="M305.88,-279.55C305.88,-272.17 305.88,-263.24 305.88,-255.32"/>
<polygon fill="#63b8ff" stroke="#63b8ff" points="309.38,-255.41 305.88,-245.41 302.38,-255.41 309.38,-255.41"/>
</a>
</g>
</g>
<!-- Node19 -->
<g id="Node000019" class="node">
<title>Node19</title>
<g id="a_Node000019"><a xlink:href="keysight__gen_8hpp.html" target="_top" xlink:title=" ">
<polygon fill="white" stroke="#666666" points="185.5,-244 74.25,-244 74.25,-224 185.5,-224 185.5,-244"/>
<text text-anchor="middle" x="129.88" y="-230.5" font-family="Helvetica,sans-Serif" font-size="10.00">gen/keysight_gen.hpp</text>
</a>
</g>
</g>
<!-- Node1&#45;&gt;Node19 -->
<g id="edge24_Node000001_Node000019" class="edge">
<title>Node1&#45;&gt;Node19</title>
<g id="a_edge24_Node000001_Node000019"><a xlink:title=" ">
<path fill="none" stroke="#63b8ff" d="M260.55,-279.55C231.87,-269.77 195.2,-257.27 168.02,-248"/>
<polygon fill="#63b8ff" stroke="#63b8ff" points="169.33,-244.41 158.73,-244.5 167.07,-251.04 169.33,-244.41"/>
</a>
</g>
</g>
<!-- Node20 -->
<g id="Node000020" class="node">
<title>Node20</title>
<g id="a_Node000020"><a xlink:href="tesart__rbd_8hpp.html" target="_top" xlink:title=" ">
<polygon fill="white" stroke="#666666" points="558.25,-244 463.5,-244 463.5,-224 558.25,-224 558.25,-244"/>
<text text-anchor="middle" x="510.88" y="-230.5" font-family="Helvetica,sans-Serif" font-size="10.00">rbd/tesart_rbd.hpp</text>
</a>
</g>
</g>
<!-- Node1&#45;&gt;Node20 -->
<g id="edge26_Node000001_Node000020" class="edge">
<title>Node1&#45;&gt;Node20</title>
<g id="a_edge26_Node000001_Node000020"><a xlink:title=" ">
<path fill="none" stroke="#63b8ff" d="M353.68,-281.01C388.38,-270.85 434.9,-257.24 468.31,-247.46"/>
<polygon fill="#63b8ff" stroke="#63b8ff" points="469.06,-250.59 477.67,-244.43 467.09,-243.88 469.06,-250.59"/>
</a>
</g>
</g>
<!-- Node4 -->
<g id="Node000004" class="node">
<title>Node4</title>
<g id="a_Node000004"><a xlink:href="visa__device_8hpp.html" target="_top" xlink:title=" ">
<polygon fill="white" stroke="#666666" points="373.12,-132 280.62,-132 280.62,-112 373.12,-112 373.12,-132"/>
<text text-anchor="middle" x="326.88" y="-118.5" font-family="Helvetica,sans-Serif" font-size="10.00">../visa_device.hpp</text>
</a>
</g>
</g>
<!-- Node3&#45;&gt;Node4 -->
<g id="edge3_Node000003_Node000004" class="edge">
<title>Node3&#45;&gt;Node4</title>
<g id="a_edge3_Node000003_Node000004"><a xlink:title=" ">
<path fill="none" stroke="#63b8ff" d="M321.09,-167.59C321.97,-160.86 323.18,-151.53 324.26,-143.15"/>
<polygon fill="#63b8ff" stroke="#63b8ff" points="327.86,-143.67 325.67,-133.3 320.91,-142.77 327.86,-143.67"/>
</a>
</g>
</g>
<!-- Node14 -->
<g id="Node000014" class="node">
<title>Node14</title>
<g id="a_Node000014"><a xlink:href="exceptions_8hpp.html" target="_top" xlink:title="Заголовочный файл, содержащий класс antestl_exsceptions, сообщения исключений и коды исключений">
<polygon fill="white" stroke="#666666" points="262.38,-132 141.38,-132 141.38,-112 262.38,-112 262.38,-132"/>
<text text-anchor="middle" x="201.88" y="-118.5" font-family="Helvetica,sans-Serif" font-size="10.00">../../utils/exceptions.hpp</text>
</a>
</g>
</g>
<!-- Node3&#45;&gt;Node14 -->
<g id="edge14_Node000003_Node000014" class="edge">
<title>Node3&#45;&gt;Node14</title>
<g id="a_edge14_Node000003_Node000014"><a xlink:title=" ">
<path fill="none" stroke="#63b8ff" d="M299.32,-167.59C280.82,-159.13 253.39,-146.58 232.34,-136.94"/>
<polygon fill="#63b8ff" stroke="#63b8ff" points="234.14,-133.46 223.59,-132.48 231.23,-139.82 234.14,-133.46"/>
</a>
</g>
</g>
<!-- Node15 -->
<g id="Node000015" class="node">
<title>Node15</title>
<g id="a_Node000015"><a xlink:title=" ">
<polygon fill="#e0e0e0" stroke="#999999" points="444.62,-132 403.12,-132 403.12,-112 444.62,-112 444.62,-132"/>
<text text-anchor="middle" x="423.88" y="-118.5" font-family="Helvetica,sans-Serif" font-size="10.00">vector</text>
</a>
</g>
</g>
<!-- Node3&#45;&gt;Node15 -->
<g id="edge15_Node000003_Node000015" class="edge">
<title>Node3&#45;&gt;Node15</title>
<g id="a_edge15_Node000003_Node000015"><a xlink:title=" ">
<path fill="none" stroke="#63b8ff" d="M337.99,-167.59C354,-159.28 377.59,-147.03 396,-137.47"/>
<polygon fill="#63b8ff" stroke="#63b8ff" points="397.36,-140.19 404.62,-132.48 394.13,-133.98 397.36,-140.19"/>
</a>
</g>
</g>
<!-- Node5 -->
<g id="Node000005" class="node">
<title>Node5</title>
<g id="a_Node000005"><a xlink:title=" ">
<polygon fill="#e0e0e0" stroke="#999999" points="165.38,-20 122.38,-20 122.38,0 165.38,0 165.38,-20"/>
<text text-anchor="middle" x="143.88" y="-6.5" font-family="Helvetica,sans-Serif" font-size="10.00">format</text>
</a>
</g>
</g>
<!-- Node4&#45;&gt;Node5 -->
<g id="edge4_Node000004_Node000005" class="edge">
<title>Node4&#45;&gt;Node5</title>
<g id="a_edge4_Node000004_Node000005"><a xlink:title=" ">
<path fill="none" stroke="#63b8ff" d="M302.35,-111.52C282.05,-103.27 252.78,-90.38 228.88,-76 204.83,-61.53 179.57,-41.51 162.9,-27.53"/>
<polygon fill="#63b8ff" stroke="#63b8ff" points="165.47,-24.27 155.59,-20.45 160.93,-29.6 165.47,-24.27"/>
</a>
</g>
</g>
<!-- Node6 -->
<g id="Node000006" class="node">
<title>Node6</title>
<g id="a_Node000006"><a xlink:title=" ">
<polygon fill="#e0e0e0" stroke="#999999" points="392.5,-76 347.25,-76 347.25,-56 392.5,-56 392.5,-76"/>
<text text-anchor="middle" x="369.88" y="-62.5" font-family="Helvetica,sans-Serif" font-size="10.00">cstring</text>
</a>
</g>
</g>
<!-- Node4&#45;&gt;Node6 -->
<g id="edge5_Node000004_Node000006" class="edge">
<title>Node4&#45;&gt;Node6</title>
<g id="a_edge5_Node000004_Node000006"><a xlink:title=" ">
<path fill="none" stroke="#63b8ff" d="M334.37,-111.59C340.22,-104.24 348.54,-93.8 355.65,-84.87"/>
<polygon fill="#63b8ff" stroke="#63b8ff" points="358.98,-87.3 362.47,-77.3 353.5,-82.94 358.98,-87.3"/>
</a>
</g>
</g>
<!-- Node7 -->
<g id="Node000007" class="node">
<title>Node7</title>
<g id="a_Node000007"><a xlink:title=" ">
<polygon fill="#e0e0e0" stroke="#999999" points="451.25,-76 410.5,-76 410.5,-56 451.25,-56 451.25,-76"/>
<text text-anchor="middle" x="430.88" y="-62.5" font-family="Helvetica,sans-Serif" font-size="10.00">visa.h</text>
</a>
</g>
</g>
<!-- Node4&#45;&gt;Node7 -->
<g id="edge6_Node000004_Node000007" class="edge">
<title>Node4&#45;&gt;Node7</title>
<g id="a_edge6_Node000004_Node000007"><a xlink:title=" ">
<path fill="none" stroke="#63b8ff" d="M344.99,-111.59C361,-103.28 384.59,-91.03 403,-81.47"/>
<polygon fill="#63b8ff" stroke="#63b8ff" points="404.36,-84.19 411.62,-76.48 401.13,-77.98 404.36,-84.19"/>
</a>
</g>
</g>
<!-- Node8 -->
<g id="Node000008" class="node">
<title>Node8</title>
<g id="a_Node000008"><a xlink:href="logger_8hpp.html" target="_top" xlink:title="Библиотека, осуществляющая логирование">
<polygon fill="white" stroke="#666666" points="329.38,-76 238.38,-76 238.38,-56 329.38,-56 329.38,-76"/>
<text text-anchor="middle" x="283.88" y="-62.5" font-family="Helvetica,sans-Serif" font-size="10.00">../utils/logger.hpp</text>
</a>
</g>
</g>
<!-- Node4&#45;&gt;Node8 -->
<g id="edge7_Node000004_Node000008" class="edge">
<title>Node4&#45;&gt;Node8</title>
<g id="a_edge7_Node000004_Node000008"><a xlink:title=" ">
<path fill="none" stroke="#63b8ff" d="M319.38,-111.59C313.53,-104.24 305.21,-93.8 298.1,-84.87"/>
<polygon fill="#63b8ff" stroke="#63b8ff" points="300.25,-82.94 291.28,-77.3 294.77,-87.3 300.25,-82.94"/>
</a>
</g>
</g>
<!-- Node8&#45;&gt;Node5 -->
<g id="edge13_Node000008_Node000005" class="edge">
<title>Node8&#45;&gt;Node5</title>
<g id="a_edge13_Node000008_Node000005"><a xlink:title=" ">
<path fill="none" stroke="#63b8ff" d="M259.49,-55.59C236.32,-46.66 201.34,-33.17 175.93,-23.36"/>
<polygon fill="#63b8ff" stroke="#63b8ff" points="177.27,-19.74 166.68,-19.41 174.75,-26.28 177.27,-19.74"/>
</a>
</g>
</g>
<!-- Node9 -->
<g id="Node000009" class="node">
<title>Node9</title>
<g id="a_Node000009"><a xlink:title=" ">
<polygon fill="#e0e0e0" stroke="#999999" points="363.88,-20 323.88,-20 323.88,0 363.88,0 363.88,-20"/>
<text text-anchor="middle" x="343.88" y="-6.5" font-family="Helvetica,sans-Serif" font-size="10.00">string</text>
</a>
</g>
</g>
<!-- Node8&#45;&gt;Node9 -->
<g id="edge8_Node000008_Node000009" class="edge">
<title>Node8&#45;&gt;Node9</title>
<g id="a_edge8_Node000008_Node000009"><a xlink:title=" ">
<path fill="none" stroke="#63b8ff" d="M294.33,-55.59C302.93,-47.85 315.33,-36.69 325.58,-27.47"/>
<polygon fill="#63b8ff" stroke="#63b8ff" points="327.45,-30.59 332.54,-21.3 322.77,-25.39 327.45,-30.59"/>
</a>
</g>
</g>
<!-- Node10 -->
<g id="Node000010" class="node">
<title>Node10</title>
<g id="a_Node000010"><a xlink:title=" ">
<polygon fill="#e0e0e0" stroke="#999999" points="435.62,-20 382.12,-20 382.12,0 435.62,0 435.62,-20"/>
<text text-anchor="middle" x="408.88" y="-6.5" font-family="Helvetica,sans-Serif" font-size="10.00">iostream</text>
</a>
</g>
</g>
<!-- Node8&#45;&gt;Node10 -->
<g id="edge9_Node000008_Node000010" class="edge">
<title>Node8&#45;&gt;Node10</title>
<g id="a_edge9_Node000008_Node000010"><a xlink:title=" ">
<path fill="none" stroke="#63b8ff" d="M305.65,-55.59C325.33,-47.09 354.57,-34.46 376.9,-24.81"/>
<polygon fill="#63b8ff" stroke="#63b8ff" points="378.14,-27.66 385.93,-20.48 375.36,-21.23 378.14,-27.66"/>
</a>
</g>
</g>
<!-- Node11 -->
<g id="Node000011" class="node">
<title>Node11</title>
<g id="a_Node000011"><a xlink:title=" ">
<polygon fill="#e0e0e0" stroke="#999999" points="504.5,-20 453.25,-20 453.25,0 504.5,0 504.5,-20"/>
<text text-anchor="middle" x="478.88" y="-6.5" font-family="Helvetica,sans-Serif" font-size="10.00">sstream</text>
</a>
</g>
</g>
<!-- Node8&#45;&gt;Node11 -->
<g id="edge10_Node000008_Node000011" class="edge">
<title>Node8&#45;&gt;Node11</title>
<g id="a_edge10_Node000008_Node000011"><a xlink:title=" ">
<path fill="none" stroke="#63b8ff" d="M317.84,-55.59C352.65,-45.95 406.6,-31.02 442.32,-21.12"/>
<polygon fill="#63b8ff" stroke="#63b8ff" points="443.08,-24.27 451.78,-18.23 441.21,-17.52 443.08,-24.27"/>
</a>
</g>
</g>
<!-- Node12 -->
<g id="Node000012" class="node">
<title>Node12</title>
<g id="a_Node000012"><a xlink:title=" ">
<polygon fill="#e0e0e0" stroke="#999999" points="244.75,-20 183,-20 183,0 244.75,0 244.75,-20"/>
<text text-anchor="middle" x="213.88" y="-6.5" font-family="Helvetica,sans-Serif" font-size="10.00">sys/time.h</text>
</a>
</g>
</g>
<!-- Node8&#45;&gt;Node12 -->
<g id="edge11_Node000008_Node000012" class="edge">
<title>Node8&#45;&gt;Node12</title>
<g id="a_edge11_Node000008_Node000012"><a xlink:title=" ">
<path fill="none" stroke="#63b8ff" d="M271.68,-55.59C261.44,-47.7 246.59,-36.24 234.51,-26.92"/>
<polygon fill="#63b8ff" stroke="#63b8ff" points="236.98,-23.64 226.93,-20.3 232.71,-29.18 236.98,-23.64"/>
</a>
</g>
</g>
<!-- Node13 -->
<g id="Node000013" class="node">
<title>Node13</title>
<g id="a_Node000013"><a xlink:title=" ">
<polygon fill="#e0e0e0" stroke="#999999" points="305.38,-20 262.38,-20 262.38,0 305.38,0 305.38,-20"/>
<text text-anchor="middle" x="283.88" y="-6.5" font-family="Helvetica,sans-Serif" font-size="10.00">cmath</text>
</a>
</g>
</g>
<!-- Node8&#45;&gt;Node13 -->
<g id="edge12_Node000008_Node000013" class="edge">
<title>Node8&#45;&gt;Node13</title>
<g id="a_edge12_Node000008_Node000013"><a xlink:title=" ">
<path fill="none" stroke="#63b8ff" d="M283.88,-55.59C283.88,-48.86 283.88,-39.53 283.88,-31.15"/>
<polygon fill="#63b8ff" stroke="#63b8ff" points="287.38,-31.3 283.88,-21.3 280.38,-31.3 287.38,-31.3"/>
</a>
</g>
</g>
<!-- Node16&#45;&gt;Node4 -->
<g id="edge17_Node000016_Node000004" class="edge">
<title>Node16&#45;&gt;Node4</title>
<g id="a_edge17_Node000016_Node000004"><a xlink:title=" ">
<path fill="none" stroke="#63b8ff" d="M223.65,-167.59C243.33,-159.09 272.57,-146.46 294.9,-136.81"/>
<polygon fill="#63b8ff" stroke="#63b8ff" points="296.14,-139.66 303.93,-132.48 293.36,-133.23 296.14,-139.66"/>
</a>
</g>
</g>
<!-- Node16&#45;&gt;Node14 -->
<g id="edge18_Node000016_Node000014" class="edge">
<title>Node16&#45;&gt;Node14</title>
<g id="a_edge18_Node000016_Node000014"><a xlink:title=" ">
<path fill="none" stroke="#63b8ff" d="M201.88,-167.59C201.88,-160.86 201.88,-151.53 201.88,-143.15"/>
<polygon fill="#63b8ff" stroke="#63b8ff" points="205.38,-143.3 201.88,-133.3 198.38,-143.3 205.38,-143.3"/>
</a>
</g>
</g>
<!-- Node17&#45;&gt;Node4 -->
<g id="edge20_Node000017_Node000004" class="edge">
<title>Node17&#45;&gt;Node4</title>
<g id="a_edge20_Node000017_Node000004"><a xlink:title=" ">
<path fill="none" stroke="#63b8ff" d="M416.89,-167.59C400.03,-159.24 375.15,-146.92 355.82,-137.34"/>
<polygon fill="#63b8ff" stroke="#63b8ff" points="357.52,-133.78 347.01,-132.48 354.42,-140.05 357.52,-133.78"/>
</a>
</g>
</g>
<!-- Node17&#45;&gt;Node15 -->
<g id="edge21_Node000017_Node000015" class="edge">
<title>Node17&#45;&gt;Node15</title>
<g id="a_edge21_Node000017_Node000015"><a xlink:title=" ">
<path fill="none" stroke="#63b8ff" d="M433.78,-167.59C432.27,-160.78 430.17,-151.32 428.29,-142.86"/>
<polygon fill="#63b8ff" stroke="#63b8ff" points="431.53,-142.3 425.94,-133.3 424.69,-143.82 431.53,-142.3"/>
</a>
</g>
</g>
<!-- Node18&#45;&gt;Node3 -->
<g id="edge23_Node000018_Node000003" class="edge">
<title>Node18&#45;&gt;Node3</title>
<g id="a_edge23_Node000018_Node000003"><a xlink:title=" ">
<path fill="none" stroke="#63b8ff" d="M308.31,-223.59C310.08,-216.78 312.53,-207.32 314.73,-198.86"/>
<polygon fill="#63b8ff" stroke="#63b8ff" points="318.34,-199.86 317.46,-189.3 311.57,-198.1 318.34,-199.86"/>
</a>
</g>
</g>
<!-- Node19&#45;&gt;Node16 -->
<g id="edge25_Node000019_Node000016" class="edge">
<title>Node19&#45;&gt;Node16</title>
<g id="a_edge25_Node000019_Node000016"><a xlink:title=" ">
<path fill="none" stroke="#63b8ff" d="M142.42,-223.59C153.05,-215.62 168.52,-204.02 181.02,-194.64"/>
<polygon fill="#63b8ff" stroke="#63b8ff" points="182.58,-197.1 188.48,-188.3 178.38,-191.5 182.58,-197.1"/>
</a>
</g>
</g>
<!-- Node20&#45;&gt;Node17 -->
<g id="edge28_Node000020_Node000017" class="edge">
<title>Node20&#45;&gt;Node17</title>
<g id="a_edge28_Node000020_Node000017"><a xlink:title=" ">
<path fill="none" stroke="#63b8ff" d="M497.81,-223.59C486.8,-215.67 470.81,-204.16 457.84,-194.82"/>
<polygon fill="#63b8ff" stroke="#63b8ff" points="460.2,-191.48 450.04,-188.48 456.11,-197.16 460.2,-191.48"/>
</a>
</g>
</g>
<!-- Node21 -->
<g id="Node000021" class="node">
<title>Node21</title>
<g id="a_Node000021"><a xlink:title=" ">
<polygon fill="#e0e0e0" stroke="#999999" points="545.38,-188 502.38,-188 502.38,-168 545.38,-168 545.38,-188"/>
<text text-anchor="middle" x="523.88" y="-174.5" font-family="Helvetica,sans-Serif" font-size="10.00">thread</text>
</a>
</g>
</g>
<!-- Node20&#45;&gt;Node21 -->
<g id="edge27_Node000020_Node000021" class="edge">
<title>Node20&#45;&gt;Node21</title>
<g id="a_edge27_Node000020_Node000021"><a xlink:title=" ">
<path fill="none" stroke="#63b8ff" d="M513.14,-223.59C514.78,-216.78 517.06,-207.32 519.09,-198.86"/>
<polygon fill="#63b8ff" stroke="#63b8ff" points="522.7,-199.84 521.64,-189.3 515.89,-198.2 522.7,-199.84"/>
</a>
</g>
</g>
</g>
</svg>
