<?xml version="1.0" encoding="UTF-8" standalone="no"?>
<!DOCTYPE svg PUBLIC "-//W3C//DTD SVG 1.1//EN"
 "http://www.w3.org/Graphics/SVG/1.1/DTD/svg11.dtd">
<!-- Generated by graphviz version 8.0.5 (20230430.1635)
 -->
<!-- Title: src Pages: 1 -->
<svg width="172pt" height="172pt"
 viewBox="0.00 0.00 172.00 172.00" xmlns="http://www.w3.org/2000/svg" xmlns:xlink="http://www.w3.org/1999/xlink">
<g id="graph0" class="graph" transform="scale(1 1) rotate(0) translate(4 168)">
<title>src</title>
<g id="clust1" class="cluster">
<title>clusterdir_68267d1309a1af8e8297ef4c3efbcdba</title>
<g id="a_clust1"><a xlink:href="dir_68267d1309a1af8e8297ef4c3efbcdba.html" target="_top">
<polygon fill="#eeedf7" stroke="#404040" stroke-width="2" points="8,-8 8,-156 156,-156 156,-8 8,-8"/>
</a>
</g>
</g>
<!-- dir_68267d1309a1af8e8297ef4c3efbcdba -->
<g id="node1" class="node">
<title>dir_68267d1309a1af8e8297ef4c3efbcdba</title>
<text text-anchor="middle" x="105" y="-134.5" font-family="Helvetica,sans-Serif" font-size="10.00">src</text>
</g>
<!-- dir_6fac9273c1f4413d2ee63ba6cd0b0eb2 -->
<g id="node2" class="node">
<title>dir_6fac9273c1f4413d2ee63ba6cd0b0eb2</title>
<g id="a_node2"><a xlink:href="dir_6fac9273c1f4413d2ee63ba6cd0b0eb2.html" target="_top" xlink:title="devices">
<polygon fill="#aba3d5" stroke="#404040" points="64.12,-92 15.88,-92 15.88,-72 64.12,-72 64.12,-92"/>
<text text-anchor="middle" x="40" y="-78.5" font-family="Helvetica,sans-Serif" font-size="10.00">devices</text>
</a>
</g>
</g>
<!-- dir_68267d1309a1af8e8297ef4c3efbcdba&#45;&gt;dir_6fac9273c1f4413d2ee63ba6cd0b0eb2 -->
<g id="edge2" class="edge">
<title>dir_68267d1309a1af8e8297ef4c3efbcdba&#45;&gt;dir_6fac9273c1f4413d2ee63ba6cd0b0eb2</title>
<path fill="none" stroke="#63b8ff" d="M94.27,-128.08C84.93,-120.33 71.17,-108.9 59.84,-99.48"/>
<polygon fill="#63b8ff" stroke="#63b8ff" points="62.33,-96.17 52.41,-92.48 57.86,-101.56 62.33,-96.17"/>
<g id="a_edge2&#45;headlabel"><a xlink:href="dir_000004_000000.html" target="_top" xlink:title="8">
<text text-anchor="middle" x="65.91" y="-92.79" font-family="Helvetica,sans-Serif" font-size="10.00" fill="#63b8ff">8</text>
</a>
</g>
</g>
<!-- dir_9ad1227260954e346101f3844f0abb3d -->
<g id="node3" class="node">
<title>dir_9ad1227260954e346101f3844f0abb3d</title>
<g id="a_node3"><a xlink:href="dir_9ad1227260954e346101f3844f0abb3d.html" target="_top" xlink:title="socket">
<polygon fill="#aba3d5" stroke="#404040" points="127.62,-92 82.38,-92 82.38,-72 127.62,-72 127.62,-92"/>
<text text-anchor="middle" x="105" y="-78.5" font-family="Helvetica,sans-Serif" font-size="10.00">socket</text>
</a>
</g>
</g>
<!-- dir_68267d1309a1af8e8297ef4c3efbcdba&#45;&gt;dir_9ad1227260954e346101f3844f0abb3d -->
<g id="edge3" class="edge">
<title>dir_68267d1309a1af8e8297ef4c3efbcdba&#45;&gt;dir_9ad1227260954e346101f3844f0abb3d</title>
<path fill="none" stroke="#63b8ff" d="M105,-128.08C105,-121.33 105,-111.78 105,-103.21"/>
<polygon fill="#63b8ff" stroke="#63b8ff" points="108.5,-103.48 105,-93.48 101.5,-103.48 108.5,-103.48"/>
<g id="a_edge3&#45;headlabel"><a xlink:href="dir_000004_000003.html" target="_top" xlink:title="1">
<text text-anchor="middle" x="111.34" y="-102.57" font-family="Helvetica,sans-Serif" font-size="10.00" fill="#63b8ff">1</text>
</a>
</g>
</g>
<!-- dir_313caf1132e152dd9b58bea13a4052ca -->
<g id="node4" class="node">
<title>dir_313caf1132e152dd9b58bea13a4052ca</title>
<g id="a_node4"><a xlink:href="dir_313caf1132e152dd9b58bea13a4052ca.html" target="_top" xlink:title="utils">
<polygon fill="#aba3d5" stroke="#404040" points="122,-36 88,-36 88,-16 122,-16 122,-36"/>
<text text-anchor="middle" x="105" y="-22.5" font-family="Helvetica,sans-Serif" font-size="10.00">utils</text>
</a>
</g>
</g>
<!-- dir_68267d1309a1af8e8297ef4c3efbcdba&#45;&gt;dir_313caf1132e152dd9b58bea13a4052ca -->
<g id="edge1" class="edge">
<title>dir_68267d1309a1af8e8297ef4c3efbcdba&#45;&gt;dir_313caf1132e152dd9b58bea13a4052ca</title>
<path fill="none" stroke="#63b8ff" d="M113.75,-128.29C121.56,-119.84 132.45,-106.25 137,-92 142.41,-75.06 132.08,-57.01 121.75,-44.24"/>
<polygon fill="#63b8ff" stroke="#63b8ff" points="124.03,-42.52 114.8,-37.32 118.77,-47.14 124.03,-42.52"/>
<g id="a_edge1&#45;headlabel"><a xlink:href="dir_000004_000005.html" target="_top" xlink:title="12">
<text text-anchor="middle" x="128.53" y="-38.84" font-family="Helvetica,sans-Serif" font-size="10.00" fill="#63b8ff">12</text>
</a>
</g>
</g>
<!-- dir_6fac9273c1f4413d2ee63ba6cd0b0eb2&#45;&gt;dir_313caf1132e152dd9b58bea13a4052ca -->
<g id="edge4" class="edge">
<title>dir_6fac9273c1f4413d2ee63ba6cd0b0eb2&#45;&gt;dir_313caf1132e152dd9b58bea13a4052ca</title>
<path fill="none" stroke="#63b8ff" d="M51.32,-71.59C60.74,-63.77 74.35,-52.46 85.51,-43.19"/>
<polygon fill="#63b8ff" stroke="#63b8ff" points="87.35,-45.38 92.81,-36.3 82.88,-40 87.35,-45.38"/>
<g id="a_edge4&#45;headlabel"><a xlink:href="dir_000000_000005.html" target="_top" xlink:title="10">
<text text-anchor="middle" x="87.4" y="-46.36" font-family="Helvetica,sans-Serif" font-size="10.00" fill="#63b8ff">10</text>
</a>
</g>
</g>
<!-- dir_9ad1227260954e346101f3844f0abb3d&#45;&gt;dir_313caf1132e152dd9b58bea13a4052ca -->
<g id="edge5" class="edge">
<title>dir_9ad1227260954e346101f3844f0abb3d&#45;&gt;dir_313caf1132e152dd9b58bea13a4052ca</title>
<path fill="none" stroke="#63b8ff" d="M105,-71.59C105,-64.86 105,-55.53 105,-47.15"/>
<polygon fill="#63b8ff" stroke="#63b8ff" points="108.5,-47.3 105,-37.3 101.5,-47.3 108.5,-47.3"/>
<g id="a_edge5&#45;headlabel"><a xlink:href="dir_000003_000005.html" target="_top" xlink:title="1">
<text text-anchor="middle" x="111.34" y="-46.39" font-family="Helvetica,sans-Serif" font-size="10.00" fill="#63b8ff">1</text>
</a>
</g>
</g>
</g>
</svg>
