<?xml version="1.0" encoding="UTF-8" standalone="no"?>
<!DOCTYPE svg PUBLIC "-//W3C//DTD SVG 1.1//EN"
 "http://www.w3.org/Graphics/SVG/1.1/DTD/svg11.dtd">
<!-- Generated by graphviz version 8.1.0 (20230707.0739)
 -->
<!-- Title: src/utils/exceptions.hpp Pages: 1 -->
<!--zoomable 356 -->

<svg id="main" version="1.1" xmlns="http://www.w3.org/2000/svg" xmlns:xlink="http://www.w3.org/1999/xlink" xml:space="preserve" onload="init(evt)">
<style type="text/css"><![CDATA[
.node, .edge {opacity: 0.7;}
.node.selected, .edge.selected {opacity: 1;}
.edge:hover path { stroke: red; }
.edge:hover polygon { stroke: red; fill: red; }
]]></style>

<defs>
  <circle id="rim" cx="0" cy="0" r="7"/>
  <circle id="rim2" cx="0" cy="0" r="3.5"/>
  <g id="zoomPlus">
    <use xlink:href="#rim" fill="#404040"><set attributeName="fill" to="#808080" begin="zoomplus.mouseover" end="zoomplus.mouseout"/></use>
    <path d="M-4,0h8M0,-4v8" fill="none" stroke="white" stroke-width="1.5" pointer-events="none"/>
  </g>
  <g id="zoomMin">
    <use xlink:href="#rim" fill="#404040"><set attributeName="fill" to="#808080" begin="zoomminus.mouseover" end="zoomminus.mouseout"/></use>
    <path d="M-4,0h8" fill="none" stroke="white" stroke-width="1.5" pointer-events="none"/>
  </g>
  <g id="arrowUp" transform="translate(30 24)">
    <use xlink:href="#rim"/>
    <path pointer-events="none" fill="none" stroke="white" stroke-width="1.5" d="M0,-3.0v7 M-2.5,-0.5L0,-3.0L2.5,-0.5"/>
  </g>
  <g id="arrowRight" transform="rotate(90) translate(36 -43)">
    <use xlink:href="#rim"/>
    <path pointer-events="none" fill="none" stroke="white" stroke-width="1.5" d="M0,-3.0v7 M-2.5,-0.5L0,-3.0L2.5,-0.5"/>
  </g>
  <g id="arrowDown" transform="rotate(180) translate(-30 -48)">
    <use xlink:href="#rim"/>
    <path pointer-events="none" fill="none" stroke="white" stroke-width="1.5" d="M0,-3.0v7 M-2.5,-0.5L0,-3.0L2.5,-0.5"/>
  </g>
  <g id="arrowLeft" transform="rotate(270) translate(-36 17)">
    <use xlink:href="#rim"/>
    <path pointer-events="none" fill="none" stroke="white" stroke-width="1.5" d="M0,-3.0v7 M-2.5,-0.5L0,-3.0L2.5,-0.5"/>
  </g>
  <g id="resetDef">
    <use xlink:href="#rim2" fill="#404040"><set attributeName="fill" to="#808080" begin="reset.mouseover" end="reset.mouseout"/></use>
  </g>
</defs>
<script type="application/ecmascript">
var viewWidth = 653;
var viewHeight = 356;
var sectionId = 'dynsection-0';
</script>
<script type="application/ecmascript" xlink:href="svg.min.js"/>
<svg id="graph" class="graph">
<g id="viewport">
<title>src/utils/exceptions.hpp</title>
<!-- Node1 -->
<g id="Node000001" class="node">
<title>Node1</title>
<g id="a_Node000001"><a xlink:title="Заголовочный файл, содержащий класс antestl_exsceptions, сообщения исключений и коды исключений">
<polygon fill="#999999" stroke="#666666" points="375.38,-348 255.88,-348 255.88,-328 375.38,-328 375.38,-348"/>
<text text-anchor="middle" x="315.62" y="-334.5" font-family="Helvetica,sans-Serif" font-size="10.00">src/utils/exceptions.hpp</text>
</a>
</g>
</g>
<!-- Node2 -->
<g id="Node000002" class="node">
<title>Node2</title>
<g id="a_Node000002"><a xlink:href="gen__device_8hpp.html" target="_top" xlink:title="Заголовочный файл, в котором представлен класс GenDevice и определён набор констант">
<polygon fill="white" stroke="#666666" points="202.75,-292 100.5,-292 100.5,-260 202.75,-260 202.75,-292"/>
<text text-anchor="start" x="108.5" y="-278.5" font-family="Helvetica,sans-Serif" font-size="10.00">src/devices/gen/gen</text>
<text text-anchor="middle" x="151.62" y="-266.5" font-family="Helvetica,sans-Serif" font-size="10.00">_device.hpp</text>
</a>
</g>
</g>
<!-- Node1&#45;&gt;Node2 -->
<g id="edge1_Node000001_Node000002" class="edge">
<title>Node1&#45;&gt;Node2</title>
<g id="a_edge1_Node000001_Node000002"><a xlink:title=" ">
<path fill="none" stroke="#63b8ff" d="M279.75,-323.87C254.48,-314.63 220.56,-302.22 193.97,-292.49"/>
<polygon fill="#63b8ff" stroke="#63b8ff" points="278.41,-327.48 289,-327.62 280.81,-320.9 278.41,-327.48"/>
</a>
</g>
</g>
<!-- Node10 -->
<g id="Node000010" class="node">
<title>Node10</title>
<g id="a_Node000010"><a xlink:href="demo__rdb_8hpp.html" target="_top" xlink:title="Заголовочный файл, в котором реализован класс DemoRbd.">
<polygon fill="white" stroke="#666666" points="287.75,-224 179.5,-224 179.5,-192 287.75,-192 287.75,-224"/>
<text text-anchor="start" x="187.5" y="-210.5" font-family="Helvetica,sans-Serif" font-size="10.00">src/devices/rbd/demo</text>
<text text-anchor="middle" x="233.62" y="-198.5" font-family="Helvetica,sans-Serif" font-size="10.00">_rdb.hpp</text>
</a>
</g>
</g>
<!-- Node1&#45;&gt;Node10 -->
<g id="edge10_Node000001_Node000010" class="edge">
<title>Node1&#45;&gt;Node10</title>
<g id="a_edge10_Node000001_Node000010"><a xlink:title=" ">
<path fill="none" stroke="#63b8ff" d="M288.45,-321.75C277.12,-314.15 264.75,-304 256.62,-292 242.55,-271.19 237.04,-241.95 234.92,-224.3"/>
<polygon fill="#63b8ff" stroke="#63b8ff" points="286.27,-325.14 296.6,-327.52 290.01,-319.22 286.27,-325.14"/>
</a>
</g>
</g>
<!-- Node11 -->
<g id="Node000011" class="node">
<title>Node11</title>
<g id="a_Node000011"><a xlink:href="tesart__rbd_8cpp.html" target="_top" xlink:title="Файл исходного кода, в котором реализованы методы для класа TesartRbd.">
<polygon fill="white" stroke="#666666" points="492.12,-292 383.12,-292 383.12,-260 492.12,-260 492.12,-292"/>
<text text-anchor="start" x="391.12" y="-278.5" font-family="Helvetica,sans-Serif" font-size="10.00">src/devices/rbd/tesart</text>
<text text-anchor="middle" x="437.62" y="-266.5" font-family="Helvetica,sans-Serif" font-size="10.00">_rbd.cpp</text>
</a>
</g>
</g>
<!-- Node1&#45;&gt;Node11 -->
<g id="edge12_Node000001_Node000011" class="edge">
<title>Node1&#45;&gt;Node11</title>
<g id="a_edge12_Node000001_Node000011"><a xlink:title=" ">
<path fill="none" stroke="#63b8ff" d="M344.39,-322.85C363.01,-313.69 387.26,-301.77 406.37,-292.37"/>
<polygon fill="#63b8ff" stroke="#63b8ff" points="343.12,-320.07 335.69,-327.62 346.21,-326.35 343.12,-320.07"/>
</a>
</g>
</g>
<!-- Node12 -->
<g id="Node000012" class="node">
<title>Node12</title>
<g id="a_Node000012"><a xlink:href="visa__device_8cpp.html" target="_top" xlink:title="Файл исходного кода, в котором реализованы конструкторы и методы для класа VisaDevice.">
<polygon fill="white" stroke="#666666" points="645.25,-286 510,-286 510,-266 645.25,-266 645.25,-286"/>
<text text-anchor="middle" x="577.62" y="-272.5" font-family="Helvetica,sans-Serif" font-size="10.00">src/devices/visa_device.cpp</text>
</a>
</g>
</g>
<!-- Node1&#45;&gt;Node12 -->
<g id="edge13_Node000001_Node000012" class="edge">
<title>Node1&#45;&gt;Node12</title>
<g id="a_edge13_Node000001_Node000012"><a xlink:title=" ">
<path fill="none" stroke="#63b8ff" d="M367.33,-325.16C416.81,-313.83 490.48,-296.96 536.21,-286.48"/>
<polygon fill="#63b8ff" stroke="#63b8ff" points="366.82,-321.91 357.85,-327.56 368.38,-328.74 366.82,-321.91"/>
</a>
</g>
</g>
<!-- Node13 -->
<g id="Node000013" class="node">
<title>Node13</title>
<g id="a_Node000013"><a xlink:href="vna__device_8hpp.html" target="_top" xlink:title="Заголовочный файл, в котором реализован класс VnaDevice.">
<polygon fill="white" stroke="#666666" points="365.25,-292 266,-292 266,-260 365.25,-260 365.25,-292"/>
<text text-anchor="start" x="274" y="-278.5" font-family="Helvetica,sans-Serif" font-size="10.00">src/devices/vna/vna</text>
<text text-anchor="middle" x="315.62" y="-266.5" font-family="Helvetica,sans-Serif" font-size="10.00">_device.hpp</text>
</a>
</g>
</g>
<!-- Node1&#45;&gt;Node13 -->
<g id="edge14_Node000001_Node000013" class="edge">
<title>Node1&#45;&gt;Node13</title>
<g id="a_edge14_Node000001_Node000013"><a xlink:title=" ">
<path fill="none" stroke="#63b8ff" d="M315.62,-316.87C315.62,-308.79 315.62,-299.64 315.62,-292.14"/>
<polygon fill="#63b8ff" stroke="#63b8ff" points="312.13,-316.62 315.62,-326.62 319.13,-316.63 312.13,-316.62"/>
</a>
</g>
</g>
<!-- Node3 -->
<g id="Node000003" class="node">
<title>Node3</title>
<g id="a_Node000003"><a xlink:href="device__set_8hpp.html" target="_top" xlink:title="Заголовочный файл, содержащий в себе класс DeviceSet и набор констант, необходимых для данного класса...">
<polygon fill="white" stroke="#666666" points="303,-156 208.25,-156 208.25,-124 303,-124 303,-156"/>
<text text-anchor="start" x="216.25" y="-142.5" font-family="Helvetica,sans-Serif" font-size="10.00">src/devices/device</text>
<text text-anchor="middle" x="255.62" y="-130.5" font-family="Helvetica,sans-Serif" font-size="10.00">_set.hpp</text>
</a>
</g>
</g>
<!-- Node2&#45;&gt;Node3 -->
<g id="edge2_Node000002_Node000003" class="edge">
<title>Node2&#45;&gt;Node3</title>
<g id="a_edge2_Node000002_Node000003"><a xlink:title=" ">
<path fill="none" stroke="#63b8ff" d="M152.38,-248.87C154.06,-231.33 158.65,-208.51 170.62,-192 181.94,-176.4 199.63,-164.69 215.94,-156.45"/>
<polygon fill="#63b8ff" stroke="#63b8ff" points="148.82,-248.55 151.63,-258.76 155.81,-249.03 148.82,-248.55"/>
</a>
</g>
</g>
<!-- Node8 -->
<g id="Node000008" class="node">
<title>Node8</title>
<g id="a_Node000008"><a xlink:href="keysight__gen_8hpp.html" target="_top" xlink:title="Заголовочный файл, в котором определён класс KeysightGen.">
<polygon fill="white" stroke="#666666" points="123.25,-224 0,-224 0,-192 123.25,-192 123.25,-224"/>
<text text-anchor="start" x="8" y="-210.5" font-family="Helvetica,sans-Serif" font-size="10.00">src/devices/gen/keysight</text>
<text text-anchor="middle" x="61.62" y="-198.5" font-family="Helvetica,sans-Serif" font-size="10.00">_gen.hpp</text>
</a>
</g>
</g>
<!-- Node2&#45;&gt;Node8 -->
<g id="edge7_Node000002_Node000008" class="edge">
<title>Node2&#45;&gt;Node8</title>
<g id="a_edge7_Node000002_Node000008"><a xlink:title=" ">
<path fill="none" stroke="#63b8ff" d="M122.2,-253.42C109.3,-243.96 94.46,-233.08 82.7,-224.45"/>
<polygon fill="#63b8ff" stroke="#63b8ff" points="119.62,-256.6 129.75,-259.69 123.76,-250.96 119.62,-256.6"/>
</a>
</g>
</g>
<!-- Node4 -->
<g id="Node000004" class="node">
<title>Node4</title>
<g id="a_Node000004"><a xlink:href="device__set_8cpp.html" target="_top" xlink:title="Файл исходного кода, в котором реализованы методы для класа DeviceSet.">
<polygon fill="white" stroke="#666666" points="242,-88 147.25,-88 147.25,-56 242,-56 242,-88"/>
<text text-anchor="start" x="155.25" y="-74.5" font-family="Helvetica,sans-Serif" font-size="10.00">src/devices/device</text>
<text text-anchor="middle" x="194.62" y="-62.5" font-family="Helvetica,sans-Serif" font-size="10.00">_set.cpp</text>
</a>
</g>
</g>
<!-- Node3&#45;&gt;Node4 -->
<g id="edge3_Node000003_Node000004" class="edge">
<title>Node3&#45;&gt;Node4</title>
<g id="a_edge3_Node000003_Node000004"><a xlink:title=" ">
<path fill="none" stroke="#63b8ff" d="M234.1,-115.71C225.67,-106.59 216.23,-96.37 208.7,-88.22"/>
<polygon fill="#63b8ff" stroke="#63b8ff" points="231.12,-117.72 240.48,-122.69 236.26,-112.97 231.12,-117.72"/>
</a>
</g>
</g>
<!-- Node5 -->
<g id="Node000005" class="node">
<title>Node5</title>
<g id="a_Node000005"><a xlink:href="task__manager_8hpp.html" target="_top" xlink:title="Заголовочный файл, в котором определён класс TaskManager и набор констант для работы с ним">
<polygon fill="white" stroke="#666666" points="373,-82 260.25,-82 260.25,-62 373,-62 373,-82"/>
<text text-anchor="middle" x="316.62" y="-68.5" font-family="Helvetica,sans-Serif" font-size="10.00">src/task_manager.hpp</text>
</a>
</g>
</g>
<!-- Node3&#45;&gt;Node5 -->
<g id="edge4_Node000003_Node000005" class="edge">
<title>Node3&#45;&gt;Node5</title>
<g id="a_edge4_Node000003_Node000005"><a xlink:title=" ">
<path fill="none" stroke="#63b8ff" d="M277.15,-115.71C287.79,-104.2 300.02,-90.97 308.01,-82.32"/>
<polygon fill="#63b8ff" stroke="#63b8ff" points="274.99,-112.97 270.77,-122.69 280.13,-117.72 274.99,-112.97"/>
</a>
</g>
</g>
<!-- Node6 -->
<g id="Node000006" class="node">
<title>Node6</title>
<g id="a_Node000006"><a xlink:href="main_8cpp.html" target="_top" xlink:title="Главный файл приложения">
<polygon fill="white" stroke="#666666" points="297.75,-20 225.5,-20 225.5,0 297.75,0 297.75,-20"/>
<text text-anchor="middle" x="261.62" y="-6.5" font-family="Helvetica,sans-Serif" font-size="10.00">src/main.cpp</text>
</a>
</g>
</g>
<!-- Node5&#45;&gt;Node6 -->
<g id="edge5_Node000005_Node000006" class="edge">
<title>Node5&#45;&gt;Node6</title>
<g id="a_edge5_Node000005_Node000006"><a xlink:title=" ">
<path fill="none" stroke="#63b8ff" d="M300.65,-53.58C290.62,-42.63 278.09,-28.97 269.98,-20.11"/>
<polygon fill="#63b8ff" stroke="#63b8ff" points="297.69,-55.62 307.03,-60.62 302.85,-50.89 297.69,-55.62"/>
</a>
</g>
</g>
<!-- Node7 -->
<g id="Node000007" class="node">
<title>Node7</title>
<g id="a_Node000007"><a xlink:href="task__manager_8cpp.html" target="_top" xlink:title="Файл исходного кода, в котором реализованы методы для класа TaskManager.">
<polygon fill="white" stroke="#666666" points="429,-20 316.25,-20 316.25,0 429,0 429,-20"/>
<text text-anchor="middle" x="372.62" y="-6.5" font-family="Helvetica,sans-Serif" font-size="10.00">src/task_manager.cpp</text>
</a>
</g>
</g>
<!-- Node5&#45;&gt;Node7 -->
<g id="edge6_Node000005_Node000007" class="edge">
<title>Node5&#45;&gt;Node7</title>
<g id="a_edge6_Node000005_Node000007"><a xlink:title=" ">
<path fill="none" stroke="#63b8ff" d="M332.58,-53.9C342.85,-42.91 355.78,-29.05 364.12,-20.11"/>
<polygon fill="#63b8ff" stroke="#63b8ff" points="330.64,-50.93 326.38,-60.62 335.76,-55.7 330.64,-50.93"/>
</a>
</g>
</g>
<!-- Node8&#45;&gt;Node3 -->
<g id="edge8_Node000008_Node000003" class="edge">
<title>Node8&#45;&gt;Node3</title>
<g id="a_edge8_Node000008_Node000003"><a xlink:title=" ">
<path fill="none" stroke="#63b8ff" d="M117.23,-188.08C146.65,-178.07 182.33,-165.94 210.09,-156.49"/>
<polygon fill="#63b8ff" stroke="#63b8ff" points="116.45,-184.99 108.11,-191.53 118.7,-191.62 116.45,-184.99"/>
</a>
</g>
</g>
<!-- Node9 -->
<g id="Node000009" class="node">
<title>Node9</title>
<g id="a_Node000009"><a xlink:href="keysight__gen_8cpp.html" target="_top" xlink:title="Файл исходного кода, в котором реализованы методы для класа KeysightGen.">
<polygon fill="white" stroke="#666666" points="123.25,-156 0,-156 0,-124 123.25,-124 123.25,-156"/>
<text text-anchor="start" x="8" y="-142.5" font-family="Helvetica,sans-Serif" font-size="10.00">src/devices/gen/keysight</text>
<text text-anchor="middle" x="61.62" y="-130.5" font-family="Helvetica,sans-Serif" font-size="10.00">_gen.cpp</text>
</a>
</g>
</g>
<!-- Node8&#45;&gt;Node9 -->
<g id="edge9_Node000008_Node000009" class="edge">
<title>Node8&#45;&gt;Node9</title>
<g id="a_edge9_Node000008_Node000009"><a xlink:title=" ">
<path fill="none" stroke="#63b8ff" d="M61.62,-180.89C61.62,-172.52 61.62,-163.54 61.62,-156.22"/>
<polygon fill="#63b8ff" stroke="#63b8ff" points="58.13,-180.69 61.62,-190.69 65.13,-180.69 58.13,-180.69"/>
</a>
</g>
</g>
<!-- Node10&#45;&gt;Node3 -->
<g id="edge11_Node000010_Node000003" class="edge">
<title>Node10&#45;&gt;Node3</title>
<g id="a_edge11_Node000010_Node000003"><a xlink:title=" ">
<path fill="none" stroke="#63b8ff" d="M242.14,-181.45C244.98,-172.93 248.06,-163.71 250.55,-156.22"/>
<polygon fill="#63b8ff" stroke="#63b8ff" points="238.57,-180.1 238.73,-190.69 245.21,-182.31 238.57,-180.1"/>
</a>
</g>
</g>
<!-- Node13&#45;&gt;Node3 -->
<g id="edge15_Node000013_Node000003" class="edge">
<title>Node13&#45;&gt;Node3</title>
<g id="a_edge15_Node000013_Node000003"><a xlink:title=" ">
<path fill="none" stroke="#63b8ff" d="M312.73,-248.89C310.12,-232.02 305.32,-209.94 296.62,-192 290.19,-178.71 279.71,-165.76 270.97,-156.24"/>
<polygon fill="#63b8ff" stroke="#63b8ff" points="309.37,-249.19 314.2,-258.63 316.31,-248.24 309.37,-249.19"/>
</a>
</g>
</g>
<!-- Node14 -->
<g id="Node000014" class="node">
<title>Node14</title>
<g id="a_Node000014"><a xlink:href="keysight__m9807a_8hpp.html" target="_top" xlink:title="Файл, в котором определён класс KeysightM9807A.">
<polygon fill="white" stroke="#666666" points="465.5,-224 343.75,-224 343.75,-192 465.5,-192 465.5,-224"/>
<text text-anchor="start" x="351.75" y="-210.5" font-family="Helvetica,sans-Serif" font-size="10.00">src/devices/vna/keysight</text>
<text text-anchor="middle" x="404.62" y="-198.5" font-family="Helvetica,sans-Serif" font-size="10.00">_m9807a.hpp</text>
</a>
</g>
</g>
<!-- Node13&#45;&gt;Node14 -->
<g id="edge16_Node000013_Node000014" class="edge">
<title>Node13&#45;&gt;Node14</title>
<g id="a_edge16_Node000013_Node000014"><a xlink:title=" ">
<path fill="none" stroke="#63b8ff" d="M345.09,-253.15C357.76,-243.75 372.27,-233 383.79,-224.45"/>
<polygon fill="#63b8ff" stroke="#63b8ff" points="343.21,-250.92 337.27,-259.69 347.38,-256.55 343.21,-250.92"/>
</a>
</g>
</g>
<!-- Node16 -->
<g id="Node000016" class="node">
<title>Node16</title>
<g id="a_Node000016"><a xlink:href="planar__s50244_8h.html" target="_top" xlink:title="Файл, в котором определён класс PlanarS50244.">
<polygon fill="white" stroke="#666666" points="595.25,-224 484,-224 484,-192 595.25,-192 595.25,-224"/>
<text text-anchor="start" x="492" y="-210.5" font-family="Helvetica,sans-Serif" font-size="10.00">src/devices/vna/planar</text>
<text text-anchor="middle" x="539.62" y="-198.5" font-family="Helvetica,sans-Serif" font-size="10.00">_s50244.h</text>
</a>
</g>
</g>
<!-- Node13&#45;&gt;Node16 -->
<g id="edge19_Node000013_Node000016" class="edge">
<title>Node13&#45;&gt;Node16</title>
<g id="a_edge19_Node000013_Node000016"><a xlink:title=" ">
<path fill="none" stroke="#63b8ff" d="M376.08,-257.19C410.74,-246.98 453.82,-234.28 487.06,-224.49"/>
<polygon fill="#63b8ff" stroke="#63b8ff" points="375.22,-254.09 366.62,-260.27 377.2,-260.8 375.22,-254.09"/>
</a>
</g>
</g>
<!-- Node14&#45;&gt;Node3 -->
<g id="edge17_Node000014_Node000003" class="edge">
<title>Node14&#45;&gt;Node3</title>
<g id="a_edge17_Node000014_Node000003"><a xlink:title=" ">
<path fill="none" stroke="#63b8ff" d="M359.83,-187.16C337.65,-177.33 311.27,-165.65 290.6,-156.49"/>
<polygon fill="#63b8ff" stroke="#63b8ff" points="358.13,-190.68 368.69,-191.53 360.97,-184.28 358.13,-190.68"/>
</a>
</g>
</g>
<!-- Node15 -->
<g id="Node000015" class="node">
<title>Node15</title>
<g id="a_Node000015"><a xlink:href="keysight__m9807a_8cpp.html" target="_top" xlink:title="Файл исходного кода, в котором реализованы методы для класа KeysightM9807A.">
<polygon fill="white" stroke="#666666" points="465.5,-156 343.75,-156 343.75,-124 465.5,-124 465.5,-156"/>
<text text-anchor="start" x="351.75" y="-142.5" font-family="Helvetica,sans-Serif" font-size="10.00">src/devices/vna/keysight</text>
<text text-anchor="middle" x="404.62" y="-130.5" font-family="Helvetica,sans-Serif" font-size="10.00">_m9807a.cpp</text>
</a>
</g>
</g>
<!-- Node14&#45;&gt;Node15 -->
<g id="edge18_Node000014_Node000015" class="edge">
<title>Node14&#45;&gt;Node15</title>
<g id="a_edge18_Node000014_Node000015"><a xlink:title=" ">
<path fill="none" stroke="#63b8ff" d="M404.62,-180.89C404.62,-172.52 404.62,-163.54 404.62,-156.22"/>
<polygon fill="#63b8ff" stroke="#63b8ff" points="401.13,-180.69 404.62,-190.69 408.13,-180.69 401.13,-180.69"/>
</a>
</g>
</g>
<!-- Node16&#45;&gt;Node3 -->
<g id="edge20_Node000016_Node000003" class="edge">
<title>Node16&#45;&gt;Node3</title>
<g id="a_edge20_Node000016_Node000003"><a xlink:title=" ">
<path fill="none" stroke="#63b8ff" d="M473.03,-191.52C420.88,-179.4 349.63,-162.85 303.14,-152.04"/>
<polygon fill="#63b8ff" stroke="#63b8ff" points="471.98,-195.11 482.52,-193.96 473.57,-188.29 471.98,-195.11"/>
</a>
</g>
</g>
<!-- Node17 -->
<g id="Node000017" class="node">
<title>Node17</title>
<g id="a_Node000017"><a xlink:href="planar__s50244_8cpp.html" target="_top" xlink:title="Файл исходного кода, в котором реализованы методы для класа PlanarS50244.">
<polygon fill="white" stroke="#666666" points="595.25,-156 484,-156 484,-124 595.25,-124 595.25,-156"/>
<text text-anchor="start" x="492" y="-142.5" font-family="Helvetica,sans-Serif" font-size="10.00">src/devices/vna/planar</text>
<text text-anchor="middle" x="539.62" y="-130.5" font-family="Helvetica,sans-Serif" font-size="10.00">_s50244.cpp</text>
</a>
</g>
</g>
<!-- Node16&#45;&gt;Node17 -->
<g id="edge21_Node000016_Node000017" class="edge">
<title>Node16&#45;&gt;Node17</title>
<g id="a_edge21_Node000016_Node000017"><a xlink:title=" ">
<path fill="none" stroke="#63b8ff" d="M539.62,-180.89C539.62,-172.52 539.62,-163.54 539.62,-156.22"/>
<polygon fill="#63b8ff" stroke="#63b8ff" points="536.13,-180.69 539.62,-190.69 543.13,-180.69 536.13,-180.69"/>
</a>
</g>
</g>
</g>
</svg>

<g id="navigator" transform="translate(0 0)" fill="#404254">
  <rect fill="#f2f5e9" fill-opacity="0.5" stroke="#606060" stroke-width=".5" x="0" y="0" width="60" height="60"/>
  <use id="zoomplus" xlink:href="#zoomPlus" x="17" y="9" onmousedown="handleZoom(evt,'in')"/>
  <use id="zoomminus" xlink:href="#zoomMin" x="42" y="9" onmousedown="handleZoom(evt,'out')"/>
  <use id="reset" xlink:href="#resetDef" x="30" y="36" onmousedown="handleReset()"/>
   <use id="arrowup" xlink:href="#arrowUp" x="0" y="0" onmousedown="handlePan(0,-1)"/>
  <use id="arrowright" xlink:href="#arrowRight" x="0" y="0" onmousedown="handlePan(1,0)"/>
  <use id="arrowdown" xlink:href="#arrowDown" x="0" y="0" onmousedown="handlePan(0,1)"/>
  <use id="arrowleft" xlink:href="#arrowLeft" x="0" y="0" onmousedown="handlePan(-1,0)"/>
</g>
<svg viewBox="0 0 15 15" width="100%" height="30px" preserveAspectRatio="xMaxYMin meet">
 <g id="arrow_out" transform="scale(0.3 0.3)">
  <a xlink:href="exceptions_8hpp__dep__incl_org.svg" target="_base">
   <rect id="button" ry="5" rx="5" y="6" x="6" height="38" width="38"
        fill="#f2f5e9" fill-opacity="0.5" stroke="#606060" stroke-width="1.0"/>
   <path id="arrow"
     d="M 11.500037,31.436501 C 11.940474,20.09759 22.043105,11.32322 32.158766,21.979434 L 37.068811,17.246167 C 37.068811,17.246167 37.088388,32 37.088388,32 L 22.160133,31.978069 C 22.160133,31.978069 26.997745,27.140456 26.997745,27.140456 C 18.528582,18.264221 13.291696,25.230495 11.500037,31.436501 z"
     style="fill:#404040;"/>
  </a>
 </g>
</svg>

<style type='text/css'>
<![CDATA[
[data-mouse-over-selected='false'] { opacity: 0.7; }
[data-mouse-over-selected='true']  { opacity: 1.0; }
]]>
</style>
<script type="application/ecmascript"><![CDATA[
document.addEventListener('DOMContentLoaded', (event) => {
  highlightEdges();
  highlightAdjacentNodes();
});
]]></script>
</svg>
