<?xml version="1.0" encoding="UTF-8" standalone="no"?>
<!DOCTYPE svg PUBLIC "-//W3C//DTD SVG 1.1//EN"
 "http://www.w3.org/Graphics/SVG/1.1/DTD/svg11.dtd">
<!-- Generated by graphviz version 8.0.5 (20230430.1635)
 -->
<!-- Title: Иерархия классов. Графический вид. Pages: 1 -->
<svg width="166pt" height="66pt"
 viewBox="0.00 0.00 166.00 66.00" xmlns="http://www.w3.org/2000/svg" xmlns:xlink="http://www.w3.org/1999/xlink">
<g id="graph0" class="graph" transform="scale(1 1) rotate(0) translate(4 62)">
<title>Иерархия классов. Графический вид.</title>
<!-- Node0 -->
<g id="Node000000" class="node">
<title>Node0</title>
<g id="a_Node000000"><a xlink:href="class_rbd_device.html" target="_top" xlink:title=" ">
<polygon fill="white" stroke="#666666" points="61.75,-39 0,-39 0,-19 61.75,-19 61.75,-39"/>
<text text-anchor="middle" x="30.88" y="-25.5" font-family="Helvetica,sans-Serif" font-size="10.00">RbdDevice</text>
</a>
</g>
</g>
<!-- Node1 -->
<g id="Node000001" class="node">
<title>Node1</title>
<g id="a_Node000001"><a xlink:href="class_demo_rbd.html" target="_top" xlink:title=" ">
<polygon fill="white" stroke="#666666" points="157.25,-58 98.5,-58 98.5,-38 157.25,-38 157.25,-58"/>
<text text-anchor="middle" x="127.88" y="-44.5" font-family="Helvetica,sans-Serif" font-size="10.00">DemoRbd</text>
</a>
</g>
</g>
<!-- Node0&#45;&gt;Node1 -->
<g id="edge1_Node000000_Node000001" class="edge">
<title>Node0&#45;&gt;Node1</title>
<g id="a_edge1_Node000000_Node000001"><a xlink:title=" ">
<path fill="none" stroke="#63b8ff" d="M72.77,-37.18C81.32,-38.89 90.15,-40.65 98.14,-42.25"/>
<polygon fill="#63b8ff" stroke="#63b8ff" points="73.69,-33.59 63.19,-35.06 72.31,-40.46 73.69,-33.59"/>
</a>
</g>
</g>
<!-- Node2 -->
<g id="Node000002" class="node">
<title>Node2</title>
<g id="a_Node000002"><a xlink:href="class_tesart_rbd.html" target="_top" xlink:title=" ">
<polygon fill="white" stroke="#666666" points="158,-20 97.75,-20 97.75,0 158,0 158,-20"/>
<text text-anchor="middle" x="127.88" y="-6.5" font-family="Helvetica,sans-Serif" font-size="10.00">TesartRbd</text>
</a>
</g>
</g>
<!-- Node0&#45;&gt;Node2 -->
<g id="edge2_Node000000_Node000002" class="edge">
<title>Node0&#45;&gt;Node2</title>
<g id="a_edge2_Node000000_Node000002"><a xlink:title=" ">
<path fill="none" stroke="#63b8ff" d="M72.85,-20.81C81.14,-19.15 89.7,-17.44 97.49,-15.88"/>
<polygon fill="#63b8ff" stroke="#63b8ff" points="72.31,-17.54 63.19,-22.94 73.69,-24.41 72.31,-17.54"/>
</a>
</g>
</g>
</g>
</svg>
