<?xml version="1.0" encoding="UTF-8" standalone="no"?>
<!DOCTYPE svg PUBLIC "-//W3C//DTD SVG 1.1//EN"
 "http://www.w3.org/Graphics/SVG/1.1/DTD/svg11.dtd">
<!-- Generated by graphviz version 8.1.0 (20230707.0739)
 -->
<!-- Title: Иерархия классов. Графический вид. Pages: 1 -->
<svg width="297pt" height="104pt"
 viewBox="0.00 0.00 296.75 104.00" xmlns="http://www.w3.org/2000/svg" xmlns:xlink="http://www.w3.org/1999/xlink">
<g id="graph0" class="graph" transform="scale(1 1) rotate(0) translate(4 100)">
<title>Иерархия классов. Графический вид.</title>
<!-- Node0 -->
<g id="Node000000" class="node">
<title>Node0</title>
<g id="a_Node000000"><a xlink:href="class_visa_device.html" target="_top" xlink:title="Класс, в котором реализованы методы для управления устройством с помощью API VISA.">
<polygon fill="white" stroke="#666666" points="64,-77 0,-77 0,-57 64,-57 64,-77"/>
<text text-anchor="middle" x="32" y="-63.5" font-family="Helvetica,sans-Serif" font-size="10.00">VisaDevice</text>
</a>
</g>
</g>
<!-- Node1 -->
<g id="Node000001" class="node">
<title>Node1</title>
<g id="a_Node000001"><a xlink:href="class_gen_device.html" target="_top" xlink:title="Класс, в котором представлены методы для управления генератором">
<polygon fill="white" stroke="#666666" points="162.5,-96 100,-96 100,-76 162.5,-76 162.5,-96"/>
<text text-anchor="middle" x="131.25" y="-82.5" font-family="Helvetica,sans-Serif" font-size="10.00">GenDevice</text>
</a>
</g>
</g>
<!-- Node0&#45;&gt;Node1 -->
<g id="edge4_Node000000_Node000001" class="edge">
<title>Node0&#45;&gt;Node1</title>
<g id="a_edge4_Node000000_Node000001"><a xlink:title=" ">
<path fill="none" stroke="#63b8ff" d="M74.98,-75.2C83.27,-76.82 91.83,-78.49 99.67,-80.02"/>
<polygon fill="#63b8ff" stroke="#63b8ff" points="75.79,-71.6 65.31,-73.12 74.45,-78.47 75.79,-71.6"/>
</a>
</g>
</g>
<!-- Node3 -->
<g id="Node000003" class="node">
<title>Node3</title>
<g id="a_Node000003"><a xlink:href="class_vna_device.html" target="_top" xlink:title="Класс, в котором реализованы методы для работы с ВАЦ">
<polygon fill="white" stroke="#666666" points="162.12,-58 100.38,-58 100.38,-38 162.12,-38 162.12,-58"/>
<text text-anchor="middle" x="131.25" y="-44.5" font-family="Helvetica,sans-Serif" font-size="10.00">VnaDevice</text>
</a>
</g>
</g>
<!-- Node0&#45;&gt;Node3 -->
<g id="edge6_Node000000_Node000003" class="edge">
<title>Node0&#45;&gt;Node3</title>
<g id="a_edge6_Node000000_Node000003"><a xlink:title=" ">
<path fill="none" stroke="#63b8ff" d="M75.08,-58.78C83.47,-57.14 92.11,-55.45 100,-53.91"/>
<polygon fill="#63b8ff" stroke="#63b8ff" points="74.45,-55.53 65.31,-60.88 75.79,-62.4 74.45,-55.53"/>
</a>
</g>
</g>
<!-- Node2 -->
<g id="Node000002" class="node">
<title>Node2</title>
<g id="a_Node000002"><a xlink:href="class_keysight_gen.html" target="_top" xlink:title="Класс KeysightGen, в котором определены методы для работы с генераторами Keysight.">
<polygon fill="white" stroke="#666666" points="279.75,-96 207.5,-96 207.5,-76 279.75,-76 279.75,-96"/>
<text text-anchor="middle" x="243.62" y="-82.5" font-family="Helvetica,sans-Serif" font-size="10.00">KeysightGen</text>
</a>
</g>
</g>
<!-- Node1&#45;&gt;Node2 -->
<g id="edge5_Node000001_Node000002" class="edge">
<title>Node1&#45;&gt;Node2</title>
<g id="a_edge5_Node000001_Node000002"><a xlink:title=" ">
<path fill="none" stroke="#63b8ff" d="M173.73,-86C184.81,-86 196.67,-86 207.37,-86"/>
<polygon fill="#63b8ff" stroke="#63b8ff" points="174,-82.5 164,-86 174,-89.5 174,-82.5"/>
</a>
</g>
</g>
<!-- Node4 -->
<g id="Node000004" class="node">
<title>Node4</title>
<g id="a_Node000004"><a xlink:href="class_keysight_m9807_a.html" target="_top" xlink:title="Класс, в котором реализованы методы для работы с ВАЦ Keysight M9807A.">
<polygon fill="white" stroke="#666666" points="288.75,-58 198.5,-58 198.5,-38 288.75,-38 288.75,-58"/>
<text text-anchor="middle" x="243.62" y="-44.5" font-family="Helvetica,sans-Serif" font-size="10.00">KeysightM9807A</text>
</a>
</g>
</g>
<!-- Node3&#45;&gt;Node4 -->
<g id="edge7_Node000003_Node000004" class="edge">
<title>Node3&#45;&gt;Node4</title>
<g id="a_edge7_Node000003_Node000004"><a xlink:title=" ">
<path fill="none" stroke="#63b8ff" d="M173.4,-48C181.43,-48 189.88,-48 198.01,-48"/>
<polygon fill="#63b8ff" stroke="#63b8ff" points="173.41,-44.5 163.41,-48 173.41,-51.5 173.41,-44.5"/>
</a>
</g>
</g>
<!-- Node5 -->
<g id="Node000005" class="node">
<title>Node5</title>
<g id="a_Node000005"><a xlink:href="class_planar_s50244.html" target="_top" xlink:title="Класс, в котором реализованы методы для работы с ВАЦ Planar S50244.">
<polygon fill="white" stroke="#666666" points="282,-20 205.25,-20 205.25,0 282,0 282,-20"/>
<text text-anchor="middle" x="243.62" y="-6.5" font-family="Helvetica,sans-Serif" font-size="10.00">PlanarS50244</text>
</a>
</g>
</g>
<!-- Node3&#45;&gt;Node5 -->
<g id="edge8_Node000003_Node000005" class="edge">
<title>Node3&#45;&gt;Node5</title>
<g id="a_edge8_Node000003_Node000005"><a xlink:title=" ">
<path fill="none" stroke="#63b8ff" d="M172.65,-34.09C185.83,-29.55 200.22,-24.6 212.5,-20.37"/>
<polygon fill="#63b8ff" stroke="#63b8ff" points="171.73,-31.05 163.41,-37.62 174.01,-37.67 171.73,-31.05"/>
</a>
</g>
</g>
</g>
</svg>
