<?xml version="1.0" encoding="UTF-8" standalone="no"?>
<!DOCTYPE svg PUBLIC "-//W3C//DTD SVG 1.1//EN"
 "http://www.w3.org/Graphics/SVG/1.1/DTD/svg11.dtd">
<!-- Generated by graphviz version 8.0.5 (20230430.1635)
 -->
<!-- Title: Иерархия классов. Графический вид. Pages: 1 -->
<svg width="297pt" height="66pt"
 viewBox="0.00 0.00 296.75 66.00" xmlns="http://www.w3.org/2000/svg" xmlns:xlink="http://www.w3.org/1999/xlink">
<g id="graph0" class="graph" transform="scale(1 1) rotate(0) translate(4 62)">
<title>Иерархия классов. Графический вид.</title>
<!-- Node0 -->
<g id="Node000000" class="node">
<title>Node0</title>
<g id="a_Node000000"><a xlink:href="class_visa_device.html" target="_top" xlink:title="Класс, в котором реализованы методы для управления устройством с помощью API VISA.">
<polygon fill="white" stroke="#666666" points="64,-39 0,-39 0,-19 64,-19 64,-39"/>
<text text-anchor="middle" x="32" y="-25.5" font-family="Helvetica,sans-Serif" font-size="10.00">VisaDevice</text>
</a>
</g>
</g>
<!-- Node1 -->
<g id="Node000001" class="node">
<title>Node1</title>
<g id="a_Node000001"><a xlink:href="class_gen_device.html" target="_top" xlink:title=" ">
<polygon fill="white" stroke="#666666" points="162.5,-58 100,-58 100,-38 162.5,-38 162.5,-58"/>
<text text-anchor="middle" x="131.25" y="-44.5" font-family="Helvetica,sans-Serif" font-size="10.00">GenDevice</text>
</a>
</g>
</g>
<!-- Node0&#45;&gt;Node1 -->
<g id="edge4_Node000000_Node000001" class="edge">
<title>Node0&#45;&gt;Node1</title>
<g id="a_edge4_Node000000_Node000001"><a xlink:title=" ">
<path fill="none" stroke="#63b8ff" d="M74.98,-37.2C83.27,-38.82 91.83,-40.49 99.67,-42.02"/>
<polygon fill="#63b8ff" stroke="#63b8ff" points="75.79,-33.6 65.31,-35.12 74.45,-40.47 75.79,-33.6"/>
</a>
</g>
</g>
<!-- Node3 -->
<g id="Node000003" class="node">
<title>Node3</title>
<g id="a_Node000003"><a xlink:href="class_vna_device.html" target="_top" xlink:title="Класс, в котором реализованы методы для работы с ВАЦ">
<polygon fill="white" stroke="#666666" points="162.12,-20 100.38,-20 100.38,0 162.12,0 162.12,-20"/>
<text text-anchor="middle" x="131.25" y="-6.5" font-family="Helvetica,sans-Serif" font-size="10.00">VnaDevice</text>
</a>
</g>
</g>
<!-- Node0&#45;&gt;Node3 -->
<g id="edge6_Node000000_Node000003" class="edge">
<title>Node0&#45;&gt;Node3</title>
<g id="a_edge6_Node000000_Node000003"><a xlink:title=" ">
<path fill="none" stroke="#63b8ff" d="M75.08,-20.78C83.47,-19.14 92.11,-17.45 100,-15.91"/>
<polygon fill="#63b8ff" stroke="#63b8ff" points="74.45,-17.53 65.31,-22.88 75.79,-24.4 74.45,-17.53"/>
</a>
</g>
</g>
<!-- Node2 -->
<g id="Node000002" class="node">
<title>Node2</title>
<g id="a_Node000002"><a xlink:href="class_keysight_gen.html" target="_top" xlink:title=" ">
<polygon fill="white" stroke="#666666" points="279.75,-58 207.5,-58 207.5,-38 279.75,-38 279.75,-58"/>
<text text-anchor="middle" x="243.62" y="-44.5" font-family="Helvetica,sans-Serif" font-size="10.00">KeysightGen</text>
</a>
</g>
</g>
<!-- Node1&#45;&gt;Node2 -->
<g id="edge5_Node000001_Node000002" class="edge">
<title>Node1&#45;&gt;Node2</title>
<g id="a_edge5_Node000001_Node000002"><a xlink:title=" ">
<path fill="none" stroke="#63b8ff" d="M173.73,-48C184.81,-48 196.67,-48 207.37,-48"/>
<polygon fill="#63b8ff" stroke="#63b8ff" points="174,-44.5 164,-48 174,-51.5 174,-44.5"/>
</a>
</g>
</g>
<!-- Node4 -->
<g id="Node000004" class="node">
<title>Node4</title>
<g id="a_Node000004"><a xlink:href="class_keysight_m9807_a.html" target="_top" xlink:title=" ">
<polygon fill="white" stroke="#666666" points="288.75,-20 198.5,-20 198.5,0 288.75,0 288.75,-20"/>
<text text-anchor="middle" x="243.62" y="-6.5" font-family="Helvetica,sans-Serif" font-size="10.00">KeysightM9807A</text>
</a>
</g>
</g>
<!-- Node3&#45;&gt;Node4 -->
<g id="edge7_Node000003_Node000004" class="edge">
<title>Node3&#45;&gt;Node4</title>
<g id="a_edge7_Node000003_Node000004"><a xlink:title=" ">
<path fill="none" stroke="#63b8ff" d="M173.4,-10C181.43,-10 189.88,-10 198.01,-10"/>
<polygon fill="#63b8ff" stroke="#63b8ff" points="173.41,-6.5 163.41,-10 173.41,-13.5 173.41,-6.5"/>
</a>
</g>
</g>
</g>
</svg>
