<?xml version="1.0" encoding="UTF-8" standalone="no"?>
<!DOCTYPE svg PUBLIC "-//W3C//DTD SVG 1.1//EN"
 "http://www.w3.org/Graphics/SVG/1.1/DTD/svg11.dtd">
<!-- Generated by graphviz version 8.0.5 (20230430.1635)
 -->
<!-- Title: src/devices/vna/keysight_m9807a.hpp Pages: 1 -->
<svg width="303pt" height="232pt"
 viewBox="0.00 0.00 303.25 232.00" xmlns="http://www.w3.org/2000/svg" xmlns:xlink="http://www.w3.org/1999/xlink">
<g id="graph0" class="graph" transform="scale(1 1) rotate(0) translate(4 228)">
<title>src/devices/vna/keysight_m9807a.hpp</title>
<!-- Node1 -->
<g id="Node000001" class="node">
<title>Node1</title>
<g id="a_Node000001"><a xlink:title="Файл, в котором определён класс KeysightM9807A.">
<polygon fill="#999999" stroke="#666666" points="232.25,-224 110.5,-224 110.5,-192 232.25,-192 232.25,-224"/>
<text text-anchor="start" x="118.5" y="-210.5" font-family="Helvetica,sans-Serif" font-size="10.00">src/devices/vna/keysight</text>
<text text-anchor="middle" x="171.38" y="-198.5" font-family="Helvetica,sans-Serif" font-size="10.00">_m9807a.hpp</text>
</a>
</g>
</g>
<!-- Node2 -->
<g id="Node000002" class="node">
<title>Node2</title>
<g id="a_Node000002"><a xlink:href="device__set_8hpp.html" target="_top" xlink:title="Заголовочный файл, содержащий в себе класс DeviceSet и набор констант, необходимых для данного класса...">
<polygon fill="white" stroke="#666666" points="155.75,-156 61,-156 61,-124 155.75,-124 155.75,-156"/>
<text text-anchor="start" x="69" y="-142.5" font-family="Helvetica,sans-Serif" font-size="10.00">src/devices/device</text>
<text text-anchor="middle" x="108.38" y="-130.5" font-family="Helvetica,sans-Serif" font-size="10.00">_set.hpp</text>
</a>
</g>
</g>
<!-- Node1&#45;&gt;Node2 -->
<g id="edge1_Node000001_Node000002" class="edge">
<title>Node1&#45;&gt;Node2</title>
<g id="a_edge1_Node000001_Node000002"><a xlink:title=" ">
<path fill="none" stroke="#63b8ff" d="M149.41,-183.99C140.63,-174.79 130.77,-164.46 122.91,-156.22"/>
<polygon fill="#63b8ff" stroke="#63b8ff" points="146.33,-185.88 155.76,-190.69 151.39,-181.04 146.33,-185.88"/>
</a>
</g>
</g>
<!-- Node7 -->
<g id="Node000007" class="node">
<title>Node7</title>
<g id="a_Node000007"><a xlink:href="keysight__m9807a_8cpp.html" target="_top" xlink:title="Файл исходного кода, в котором реализованы методы для класа KeysightM9807A.">
<polygon fill="white" stroke="#666666" points="295.25,-156 173.5,-156 173.5,-124 295.25,-124 295.25,-156"/>
<text text-anchor="start" x="181.5" y="-142.5" font-family="Helvetica,sans-Serif" font-size="10.00">src/devices/vna/keysight</text>
<text text-anchor="middle" x="234.38" y="-130.5" font-family="Helvetica,sans-Serif" font-size="10.00">_m9807a.cpp</text>
</a>
</g>
</g>
<!-- Node1&#45;&gt;Node7 -->
<g id="edge6_Node000001_Node000007" class="edge">
<title>Node1&#45;&gt;Node7</title>
<g id="a_edge6_Node000001_Node000007"><a xlink:title=" ">
<path fill="none" stroke="#63b8ff" d="M193.34,-183.99C202.12,-174.79 211.98,-164.46 219.84,-156.22"/>
<polygon fill="#63b8ff" stroke="#63b8ff" points="191.36,-181.04 186.99,-190.69 196.42,-185.88 191.36,-181.04"/>
</a>
</g>
</g>
<!-- Node3 -->
<g id="Node000003" class="node">
<title>Node3</title>
<g id="a_Node000003"><a xlink:href="device__set_8cpp.html" target="_top" xlink:title="Файл исходного кода, в котором реализованы методы для класа DeviceSet.">
<polygon fill="white" stroke="#666666" points="94.75,-88 0,-88 0,-56 94.75,-56 94.75,-88"/>
<text text-anchor="start" x="8" y="-74.5" font-family="Helvetica,sans-Serif" font-size="10.00">src/devices/device</text>
<text text-anchor="middle" x="47.38" y="-62.5" font-family="Helvetica,sans-Serif" font-size="10.00">_set.cpp</text>
</a>
</g>
</g>
<!-- Node2&#45;&gt;Node3 -->
<g id="edge2_Node000002_Node000003" class="edge">
<title>Node2&#45;&gt;Node3</title>
<g id="a_edge2_Node000002_Node000003"><a xlink:title=" ">
<path fill="none" stroke="#63b8ff" d="M86.85,-115.71C78.42,-106.59 68.98,-96.37 61.45,-88.22"/>
<polygon fill="#63b8ff" stroke="#63b8ff" points="83.87,-117.72 93.23,-122.69 89.01,-112.97 83.87,-117.72"/>
</a>
</g>
</g>
<!-- Node4 -->
<g id="Node000004" class="node">
<title>Node4</title>
<g id="a_Node000004"><a xlink:href="task__manager_8hpp.html" target="_top" xlink:title="Заголовочный файл, в котором определён класс TaskManager и набор констант для работы с ним">
<polygon fill="white" stroke="#666666" points="225.75,-82 113,-82 113,-62 225.75,-62 225.75,-82"/>
<text text-anchor="middle" x="169.38" y="-68.5" font-family="Helvetica,sans-Serif" font-size="10.00">src/task_manager.hpp</text>
</a>
</g>
</g>
<!-- Node2&#45;&gt;Node4 -->
<g id="edge3_Node000002_Node000004" class="edge">
<title>Node2&#45;&gt;Node4</title>
<g id="a_edge3_Node000002_Node000004"><a xlink:title=" ">
<path fill="none" stroke="#63b8ff" d="M129.9,-115.71C140.54,-104.2 152.77,-90.97 160.76,-82.32"/>
<polygon fill="#63b8ff" stroke="#63b8ff" points="127.74,-112.97 123.52,-122.69 132.88,-117.72 127.74,-112.97"/>
</a>
</g>
</g>
<!-- Node5 -->
<g id="Node000005" class="node">
<title>Node5</title>
<g id="a_Node000005"><a xlink:href="main_8cpp.html" target="_top" xlink:title="Главный файл приложения">
<polygon fill="white" stroke="#666666" points="149.5,-20 77.25,-20 77.25,0 149.5,0 149.5,-20"/>
<text text-anchor="middle" x="113.38" y="-6.5" font-family="Helvetica,sans-Serif" font-size="10.00">src/main.cpp</text>
</a>
</g>
</g>
<!-- Node4&#45;&gt;Node5 -->
<g id="edge4_Node000004_Node000005" class="edge">
<title>Node4&#45;&gt;Node5</title>
<g id="a_edge4_Node000004_Node000005"><a xlink:title=" ">
<path fill="none" stroke="#63b8ff" d="M153.42,-53.9C143.15,-42.91 130.22,-29.05 121.88,-20.11"/>
<polygon fill="#63b8ff" stroke="#63b8ff" points="150.24,-55.7 159.62,-60.62 155.36,-50.93 150.24,-55.7"/>
</a>
</g>
</g>
<!-- Node6 -->
<g id="Node000006" class="node">
<title>Node6</title>
<g id="a_Node000006"><a xlink:href="task__manager_8cpp.html" target="_top" xlink:title="Файл исходного кода, в котором реализованы методы для класа TaskManager.">
<polygon fill="white" stroke="#666666" points="280.75,-20 168,-20 168,0 280.75,0 280.75,-20"/>
<text text-anchor="middle" x="224.38" y="-6.5" font-family="Helvetica,sans-Serif" font-size="10.00">src/task_manager.cpp</text>
</a>
</g>
</g>
<!-- Node4&#45;&gt;Node6 -->
<g id="edge5_Node000004_Node000006" class="edge">
<title>Node4&#45;&gt;Node6</title>
<g id="a_edge5_Node000004_Node000006"><a xlink:title=" ">
<path fill="none" stroke="#63b8ff" d="M185.35,-53.58C195.38,-42.63 207.91,-28.97 216.02,-20.11"/>
<polygon fill="#63b8ff" stroke="#63b8ff" points="183.15,-50.89 178.97,-60.62 188.31,-55.62 183.15,-50.89"/>
</a>
</g>
</g>
</g>
</svg>
