<?xml version="1.0" encoding="UTF-8" standalone="no"?>
<!DOCTYPE svg PUBLIC "-//W3C//DTD SVG 1.1//EN"
 "http://www.w3.org/Graphics/SVG/1.1/DTD/svg11.dtd">
<!-- Generated by graphviz version 8.1.0 (20230707.0739)
 -->
<!-- Title: src/utils/logger.hpp Pages: 1 -->
<!--zoomable 412 -->

<svg id="main" version="1.1" xmlns="http://www.w3.org/2000/svg" xmlns:xlink="http://www.w3.org/1999/xlink" xml:space="preserve" onload="init(evt)">
<style type="text/css"><![CDATA[
.node, .edge {opacity: 0.7;}
.node.selected, .edge.selected {opacity: 1;}
.edge:hover path { stroke: red; }
.edge:hover polygon { stroke: red; fill: red; }
]]></style>

<defs>
  <circle id="rim" cx="0" cy="0" r="7"/>
  <circle id="rim2" cx="0" cy="0" r="3.5"/>
  <g id="zoomPlus">
    <use xlink:href="#rim" fill="#404040"><set attributeName="fill" to="#808080" begin="zoomplus.mouseover" end="zoomplus.mouseout"/></use>
    <path d="M-4,0h8M0,-4v8" fill="none" stroke="white" stroke-width="1.5" pointer-events="none"/>
  </g>
  <g id="zoomMin">
    <use xlink:href="#rim" fill="#404040"><set attributeName="fill" to="#808080" begin="zoomminus.mouseover" end="zoomminus.mouseout"/></use>
    <path d="M-4,0h8" fill="none" stroke="white" stroke-width="1.5" pointer-events="none"/>
  </g>
  <g id="arrowUp" transform="translate(30 24)">
    <use xlink:href="#rim"/>
    <path pointer-events="none" fill="none" stroke="white" stroke-width="1.5" d="M0,-3.0v7 M-2.5,-0.5L0,-3.0L2.5,-0.5"/>
  </g>
  <g id="arrowRight" transform="rotate(90) translate(36 -43)">
    <use xlink:href="#rim"/>
    <path pointer-events="none" fill="none" stroke="white" stroke-width="1.5" d="M0,-3.0v7 M-2.5,-0.5L0,-3.0L2.5,-0.5"/>
  </g>
  <g id="arrowDown" transform="rotate(180) translate(-30 -48)">
    <use xlink:href="#rim"/>
    <path pointer-events="none" fill="none" stroke="white" stroke-width="1.5" d="M0,-3.0v7 M-2.5,-0.5L0,-3.0L2.5,-0.5"/>
  </g>
  <g id="arrowLeft" transform="rotate(270) translate(-36 17)">
    <use xlink:href="#rim"/>
    <path pointer-events="none" fill="none" stroke="white" stroke-width="1.5" d="M0,-3.0v7 M-2.5,-0.5L0,-3.0L2.5,-0.5"/>
  </g>
  <g id="resetDef">
    <use xlink:href="#rim2" fill="#404040"><set attributeName="fill" to="#808080" begin="reset.mouseover" end="reset.mouseout"/></use>
  </g>
</defs>
<script type="application/ecmascript">
var viewWidth = 970;
var viewHeight = 412;
var sectionId = 'dynsection-1';
</script>
<script type="application/ecmascript" xlink:href="svg.min.js"/>
<svg id="graph" class="graph">
<g id="viewport">
<title>src/utils/logger.hpp</title>
<!-- Node1 -->
<g id="Node000001" class="node">
<title>Node1</title>
<g id="a_Node000001"><a xlink:title="Библиотека, осуществляющая логирование">
<polygon fill="#999999" stroke="#666666" points="675.12,-404 576.62,-404 576.62,-384 675.12,-384 675.12,-404"/>
<text text-anchor="middle" x="625.88" y="-390.5" font-family="Helvetica,sans-Serif" font-size="10.00">src/utils/logger.hpp</text>
</a>
</g>
</g>
<!-- Node2 -->
<g id="Node000002" class="node">
<title>Node2</title>
<g id="a_Node000002"><a xlink:href="visa__device_8hpp.html" target="_top" xlink:title="Заголовочный файл, в котором определены константы и класс VisaDevice.">
<polygon fill="white" stroke="#666666" points="529.5,-348 394.25,-348 394.25,-328 529.5,-328 529.5,-348"/>
<text text-anchor="middle" x="461.88" y="-334.5" font-family="Helvetica,sans-Serif" font-size="10.00">src/devices/visa_device.hpp</text>
</a>
</g>
</g>
<!-- Node1&#45;&gt;Node2 -->
<g id="edge1_Node000001_Node000002" class="edge">
<title>Node1&#45;&gt;Node2</title>
<g id="a_edge1_Node000001_Node000002"><a xlink:title=" ">
<path fill="none" stroke="#63b8ff" d="M586.93,-380.18C557.37,-370.44 517.38,-357.28 490.66,-348.48"/>
<polygon fill="#63b8ff" stroke="#63b8ff" points="585.72,-383.79 596.31,-383.59 587.9,-377.14 585.72,-383.79"/>
</a>
</g>
</g>
<!-- Node21 -->
<g id="Node000021" class="node">
<title>Node21</title>
<g id="a_Node000021"><a xlink:href="socket__server_8hpp.html" target="_top" xlink:title="Заголовочный файл, в котором объявляются класс SocketServer и необходимые константы">
<polygon fill="white" stroke="#666666" points="861.62,-348 718.12,-348 718.12,-328 861.62,-328 861.62,-348"/>
<text text-anchor="middle" x="789.88" y="-334.5" font-family="Helvetica,sans-Serif" font-size="10.00">src/socket/socket_server.hpp</text>
</a>
</g>
</g>
<!-- Node1&#45;&gt;Node21 -->
<g id="edge27_Node000001_Node000021" class="edge">
<title>Node1&#45;&gt;Node21</title>
<g id="a_edge27_Node000001_Node000021"><a xlink:title=" ">
<path fill="none" stroke="#63b8ff" d="M664.82,-380.18C694.38,-370.44 734.37,-357.28 761.09,-348.48"/>
<polygon fill="#63b8ff" stroke="#63b8ff" points="663.85,-377.14 655.44,-383.59 666.03,-383.79 663.85,-377.14"/>
</a>
</g>
</g>
<!-- Node3 -->
<g id="Node000003" class="node">
<title>Node3</title>
<g id="a_Node000003"><a xlink:href="gen__device_8hpp.html" target="_top" xlink:title="Заголовочный файл, в котором представлен класс GenDevice и определён набор констант">
<polygon fill="white" stroke="#666666" points="513,-292 410.75,-292 410.75,-260 513,-260 513,-292"/>
<text text-anchor="start" x="418.75" y="-278.5" font-family="Helvetica,sans-Serif" font-size="10.00">src/devices/gen/gen</text>
<text text-anchor="middle" x="461.88" y="-266.5" font-family="Helvetica,sans-Serif" font-size="10.00">_device.hpp</text>
</a>
</g>
</g>
<!-- Node2&#45;&gt;Node3 -->
<g id="edge2_Node000002_Node000003" class="edge">
<title>Node2&#45;&gt;Node3</title>
<g id="a_edge2_Node000002_Node000003"><a xlink:title=" ">
<path fill="none" stroke="#63b8ff" d="M461.88,-316.87C461.88,-308.79 461.88,-299.64 461.88,-292.14"/>
<polygon fill="#63b8ff" stroke="#63b8ff" points="458.38,-316.62 461.88,-326.62 465.38,-316.63 458.38,-316.62"/>
</a>
</g>
</g>
<!-- Node11 -->
<g id="Node000011" class="node">
<title>Node11</title>
<g id="a_Node000011"><a xlink:href="rbd__device_8hpp.html" target="_top" xlink:title="Заголовочный файл, в котором реализован класс RbdDevice.">
<polygon fill="white" stroke="#666666" points="628.75,-292 531,-292 531,-260 628.75,-260 628.75,-292"/>
<text text-anchor="start" x="539" y="-278.5" font-family="Helvetica,sans-Serif" font-size="10.00">src/devices/rbd/rbd</text>
<text text-anchor="middle" x="579.88" y="-266.5" font-family="Helvetica,sans-Serif" font-size="10.00">_device.hpp</text>
</a>
</g>
</g>
<!-- Node2&#45;&gt;Node11 -->
<g id="edge11_Node000002_Node000011" class="edge">
<title>Node2&#45;&gt;Node11</title>
<g id="a_edge11_Node000002_Node000011"><a xlink:title=" ">
<path fill="none" stroke="#63b8ff" d="M489.95,-322.73C507.93,-313.58 531.25,-301.72 549.64,-292.37"/>
<polygon fill="#63b8ff" stroke="#63b8ff" points="488.64,-319.97 481.31,-327.62 491.81,-326.21 488.64,-319.97"/>
</a>
</g>
</g>
<!-- Node15 -->
<g id="Node000015" class="node">
<title>Node15</title>
<g id="a_Node000015"><a xlink:href="visa__device_8cpp.html" target="_top" xlink:title="Файл исходного кода, в котором реализованы конструкторы и методы для класа VisaDevice.">
<polygon fill="white" stroke="#666666" points="392.5,-286 257.25,-286 257.25,-266 392.5,-266 392.5,-286"/>
<text text-anchor="middle" x="324.88" y="-272.5" font-family="Helvetica,sans-Serif" font-size="10.00">src/devices/visa_device.cpp</text>
</a>
</g>
</g>
<!-- Node2&#45;&gt;Node15 -->
<g id="edge18_Node000002_Node000015" class="edge">
<title>Node2&#45;&gt;Node15</title>
<g id="a_edge18_Node000002_Node000015"><a xlink:title=" ">
<path fill="none" stroke="#63b8ff" d="M430.42,-323.23C404.59,-311.91 368.69,-296.19 346.13,-286.31"/>
<polygon fill="#63b8ff" stroke="#63b8ff" points="428.9,-326.82 439.47,-327.62 431.71,-320.41 428.9,-326.82"/>
</a>
</g>
</g>
<!-- Node16 -->
<g id="Node000016" class="node">
<title>Node16</title>
<g id="a_Node000016"><a xlink:href="vna__device_8hpp.html" target="_top" xlink:title="Заголовочный файл, в котором реализован класс VnaDevice.">
<polygon fill="white" stroke="#666666" points="239.5,-292 140.25,-292 140.25,-260 239.5,-260 239.5,-292"/>
<text text-anchor="start" x="148.25" y="-278.5" font-family="Helvetica,sans-Serif" font-size="10.00">src/devices/vna/vna</text>
<text text-anchor="middle" x="189.88" y="-266.5" font-family="Helvetica,sans-Serif" font-size="10.00">_device.hpp</text>
</a>
</g>
</g>
<!-- Node2&#45;&gt;Node16 -->
<g id="edge19_Node000002_Node000016" class="edge">
<title>Node2&#45;&gt;Node16</title>
<g id="a_edge19_Node000002_Node000016"><a xlink:title=" ">
<path fill="none" stroke="#63b8ff" d="M403.14,-325.4C360.05,-316.71 300.18,-304.26 247.88,-292 245.24,-291.38 242.55,-290.74 239.83,-290.07"/>
<polygon fill="#63b8ff" stroke="#63b8ff" points="402.22,-328.99 412.71,-327.53 403.6,-322.13 402.22,-328.99"/>
</a>
</g>
</g>
<!-- Node4 -->
<g id="Node000004" class="node">
<title>Node4</title>
<g id="a_Node000004"><a xlink:href="device__set_8hpp.html" target="_top" xlink:title="Заголовочный файл, содержащий в себе класс DeviceSet и набор констант, необходимых для данного класса...">
<polygon fill="white" stroke="#666666" points="385.25,-156 290.5,-156 290.5,-124 385.25,-124 385.25,-156"/>
<text text-anchor="start" x="298.5" y="-142.5" font-family="Helvetica,sans-Serif" font-size="10.00">src/devices/device</text>
<text text-anchor="middle" x="337.88" y="-130.5" font-family="Helvetica,sans-Serif" font-size="10.00">_set.hpp</text>
</a>
</g>
</g>
<!-- Node3&#45;&gt;Node4 -->
<g id="edge3_Node000003_Node000004" class="edge">
<title>Node3&#45;&gt;Node4</title>
<g id="a_edge3_Node000003_Node000004"><a xlink:title=" ">
<path fill="none" stroke="#63b8ff" d="M401.13,-255.93C375.34,-246.53 349.47,-234.9 341.88,-224 327.94,-204 330.66,-174.23 334.12,-156.31"/>
<polygon fill="#63b8ff" stroke="#63b8ff" points="399.75,-259.51 410.35,-259.55 402.09,-252.91 399.75,-259.51"/>
</a>
</g>
</g>
<!-- Node9 -->
<g id="Node000009" class="node">
<title>Node9</title>
<g id="a_Node000009"><a xlink:href="keysight__gen_8hpp.html" target="_top" xlink:title="Заголовочный файл, в котором определён класс KeysightGen.">
<polygon fill="white" stroke="#666666" points="507.5,-224 384.25,-224 384.25,-192 507.5,-192 507.5,-224"/>
<text text-anchor="start" x="392.25" y="-210.5" font-family="Helvetica,sans-Serif" font-size="10.00">src/devices/gen/keysight</text>
<text text-anchor="middle" x="445.88" y="-198.5" font-family="Helvetica,sans-Serif" font-size="10.00">_gen.hpp</text>
</a>
</g>
</g>
<!-- Node3&#45;&gt;Node9 -->
<g id="edge8_Node000003_Node000009" class="edge">
<title>Node3&#45;&gt;Node9</title>
<g id="a_edge8_Node000003_Node000009"><a xlink:title=" ">
<path fill="none" stroke="#63b8ff" d="M455.61,-249.17C453.57,-240.73 451.36,-231.63 449.57,-224.22"/>
<polygon fill="#63b8ff" stroke="#63b8ff" points="452.41,-249.8 458.16,-258.69 459.21,-248.15 452.41,-249.8"/>
</a>
</g>
</g>
<!-- Node5 -->
<g id="Node000005" class="node">
<title>Node5</title>
<g id="a_Node000005"><a xlink:href="device__set_8cpp.html" target="_top" xlink:title="Файл исходного кода, в котором реализованы методы для класа DeviceSet.">
<polygon fill="white" stroke="#666666" points="507.25,-88 412.5,-88 412.5,-56 507.25,-56 507.25,-88"/>
<text text-anchor="start" x="420.5" y="-74.5" font-family="Helvetica,sans-Serif" font-size="10.00">src/devices/device</text>
<text text-anchor="middle" x="459.88" y="-62.5" font-family="Helvetica,sans-Serif" font-size="10.00">_set.cpp</text>
</a>
</g>
</g>
<!-- Node4&#45;&gt;Node5 -->
<g id="edge4_Node000004_Node000005" class="edge">
<title>Node4&#45;&gt;Node5</title>
<g id="a_edge4_Node000004_Node000005"><a xlink:title=" ">
<path fill="none" stroke="#63b8ff" d="M376.07,-118.34C393.98,-108.65 414.96,-97.3 431.45,-88.38"/>
<polygon fill="#63b8ff" stroke="#63b8ff" points="374.61,-115.69 367.48,-123.53 377.94,-121.85 374.61,-115.69"/>
</a>
</g>
</g>
<!-- Node6 -->
<g id="Node000006" class="node">
<title>Node6</title>
<g id="a_Node000006"><a xlink:href="task__manager_8hpp.html" target="_top" xlink:title="Заголовочный файл, в котором определён класс TaskManager и набор констант для работы с ним">
<polygon fill="white" stroke="#666666" points="394.25,-82 281.5,-82 281.5,-62 394.25,-62 394.25,-82"/>
<text text-anchor="middle" x="337.88" y="-68.5" font-family="Helvetica,sans-Serif" font-size="10.00">src/task_manager.hpp</text>
</a>
</g>
</g>
<!-- Node4&#45;&gt;Node6 -->
<g id="edge5_Node000004_Node000006" class="edge">
<title>Node4&#45;&gt;Node6</title>
<g id="a_edge5_Node000004_Node000006"><a xlink:title=" ">
<path fill="none" stroke="#63b8ff" d="M337.88,-113C337.88,-102.17 337.88,-90.29 337.88,-82.32"/>
<polygon fill="#63b8ff" stroke="#63b8ff" points="334.38,-112.69 337.88,-122.69 341.38,-112.69 334.38,-112.69"/>
</a>
</g>
</g>
<!-- Node7 -->
<g id="Node000007" class="node">
<title>Node7</title>
<g id="a_Node000007"><a xlink:href="main_8cpp.html" target="_top" xlink:title="Главный файл приложения">
<polygon fill="white" stroke="#666666" points="646,-20 573.75,-20 573.75,0 646,0 646,-20"/>
<text text-anchor="middle" x="609.88" y="-6.5" font-family="Helvetica,sans-Serif" font-size="10.00">src/main.cpp</text>
</a>
</g>
</g>
<!-- Node6&#45;&gt;Node7 -->
<g id="edge6_Node000006_Node000007" class="edge">
<title>Node6&#45;&gt;Node7</title>
<g id="a_edge6_Node000006_Node000007"><a xlink:title=" ">
<path fill="none" stroke="#63b8ff" d="M389.79,-59.16C394.55,-58.09 399.3,-57.02 403.88,-56 463.19,-42.78 532.2,-27.78 573.39,-18.87"/>
<polygon fill="#63b8ff" stroke="#63b8ff" points="389.39,-55.89 380.41,-61.5 390.93,-62.71 389.39,-55.89"/>
</a>
</g>
</g>
<!-- Node8 -->
<g id="Node000008" class="node">
<title>Node8</title>
<g id="a_Node000008"><a xlink:href="task__manager_8cpp.html" target="_top" xlink:title="Файл исходного кода, в котором реализованы методы для класа TaskManager.">
<polygon fill="white" stroke="#666666" points="394.25,-20 281.5,-20 281.5,0 394.25,0 394.25,-20"/>
<text text-anchor="middle" x="337.88" y="-6.5" font-family="Helvetica,sans-Serif" font-size="10.00">src/task_manager.cpp</text>
</a>
</g>
</g>
<!-- Node6&#45;&gt;Node8 -->
<g id="edge7_Node000006_Node000008" class="edge">
<title>Node6&#45;&gt;Node8</title>
<g id="a_edge7_Node000006_Node000008"><a xlink:title=" ">
<path fill="none" stroke="#63b8ff" d="M337.88,-50.93C337.88,-40.5 337.88,-28.26 337.88,-20.11"/>
<polygon fill="#63b8ff" stroke="#63b8ff" points="334.38,-50.62 337.88,-60.62 341.38,-50.63 334.38,-50.62"/>
</a>
</g>
</g>
<!-- Node9&#45;&gt;Node4 -->
<g id="edge9_Node000009_Node000004" class="edge">
<title>Node9&#45;&gt;Node4</title>
<g id="a_edge9_Node000009_Node000004"><a xlink:title=" ">
<path fill="none" stroke="#63b8ff" d="M411.18,-185.8C395.52,-176.23 377.36,-165.13 363.04,-156.38"/>
<polygon fill="#63b8ff" stroke="#63b8ff" points="409.2,-189.3 419.55,-191.53 412.85,-183.32 409.2,-189.3"/>
</a>
</g>
</g>
<!-- Node10 -->
<g id="Node000010" class="node">
<title>Node10</title>
<g id="a_Node000010"><a xlink:href="keysight__gen_8cpp.html" target="_top" xlink:title="Файл исходного кода, в котором реализованы методы для класа KeysightGen.">
<polygon fill="white" stroke="#666666" points="526.5,-156 403.25,-156 403.25,-124 526.5,-124 526.5,-156"/>
<text text-anchor="start" x="411.25" y="-142.5" font-family="Helvetica,sans-Serif" font-size="10.00">src/devices/gen/keysight</text>
<text text-anchor="middle" x="464.88" y="-130.5" font-family="Helvetica,sans-Serif" font-size="10.00">_gen.cpp</text>
</a>
</g>
</g>
<!-- Node9&#45;&gt;Node10 -->
<g id="edge10_Node000009_Node000010" class="edge">
<title>Node9&#45;&gt;Node10</title>
<g id="a_edge10_Node000009_Node000010"><a xlink:title=" ">
<path fill="none" stroke="#63b8ff" d="M453.31,-181.17C455.74,-172.73 458.36,-163.63 460.49,-156.22"/>
<polygon fill="#63b8ff" stroke="#63b8ff" points="449.68,-180.11 450.28,-190.69 456.41,-182.05 449.68,-180.11"/>
</a>
</g>
</g>
<!-- Node11&#45;&gt;Node4 -->
<g id="edge12_Node000011_Node000004" class="edge">
<title>Node11&#45;&gt;Node4</title>
<g id="a_edge12_Node000011_Node000004"><a xlink:title=" ">
<path fill="none" stroke="#63b8ff" d="M520.01,-259.75C453.65,-245.72 423.98,-265.01 374.88,-224 354.05,-206.61 344.5,-175.12 340.48,-156.33"/>
<polygon fill="#63b8ff" stroke="#63b8ff" points="518.99,-263.34 529.53,-262.19 520.57,-256.52 518.99,-263.34"/>
</a>
</g>
</g>
<!-- Node12 -->
<g id="Node000012" class="node">
<title>Node12</title>
<g id="a_Node000012"><a xlink:href="demo__rdb_8hpp.html" target="_top" xlink:title="Заголовочный файл, в котором реализован класс DemoRbd.">
<polygon fill="white" stroke="#666666" points="634,-224 525.75,-224 525.75,-192 634,-192 634,-224"/>
<text text-anchor="start" x="533.75" y="-210.5" font-family="Helvetica,sans-Serif" font-size="10.00">src/devices/rbd/demo</text>
<text text-anchor="middle" x="579.88" y="-198.5" font-family="Helvetica,sans-Serif" font-size="10.00">_rdb.hpp</text>
</a>
</g>
</g>
<!-- Node11&#45;&gt;Node12 -->
<g id="edge13_Node000011_Node000012" class="edge">
<title>Node11&#45;&gt;Node12</title>
<g id="a_edge13_Node000011_Node000012"><a xlink:title=" ">
<path fill="none" stroke="#63b8ff" d="M579.88,-248.89C579.88,-240.52 579.88,-231.54 579.88,-224.22"/>
<polygon fill="#63b8ff" stroke="#63b8ff" points="576.38,-248.69 579.88,-258.69 583.38,-248.69 576.38,-248.69"/>
</a>
</g>
</g>
<!-- Node13 -->
<g id="Node000013" class="node">
<title>Node13</title>
<g id="a_Node000013"><a xlink:href="tesart__rbd_8hpp.html" target="_top" xlink:title="Заголовочный файл, в котором определяется класс TesartRbd.">
<polygon fill="white" stroke="#666666" points="761.38,-224 652.38,-224 652.38,-192 761.38,-192 761.38,-224"/>
<text text-anchor="start" x="660.38" y="-210.5" font-family="Helvetica,sans-Serif" font-size="10.00">src/devices/rbd/tesart</text>
<text text-anchor="middle" x="706.88" y="-198.5" font-family="Helvetica,sans-Serif" font-size="10.00">_rbd.hpp</text>
</a>
</g>
</g>
<!-- Node11&#45;&gt;Node13 -->
<g id="edge15_Node000011_Node000013" class="edge">
<title>Node11&#45;&gt;Node13</title>
<g id="a_edge15_Node000011_Node000013"><a xlink:title=" ">
<path fill="none" stroke="#63b8ff" d="M619.37,-254.47C638.08,-244.75 660.04,-233.34 677.29,-224.38"/>
<polygon fill="#63b8ff" stroke="#63b8ff" points="617.91,-251.81 610.65,-259.53 621.14,-258.02 617.91,-251.81"/>
</a>
</g>
</g>
<!-- Node12&#45;&gt;Node4 -->
<g id="edge14_Node000012_Node000004" class="edge">
<title>Node12&#45;&gt;Node4</title>
<g id="a_edge14_Node000012_Node000004"><a xlink:title=" ">
<path fill="none" stroke="#63b8ff" d="M514.9,-189.28C474.22,-178.19 422.7,-164.13 385.74,-154.05"/>
<polygon fill="#63b8ff" stroke="#63b8ff" points="513.7,-192.85 524.26,-192.11 515.54,-186.1 513.7,-192.85"/>
</a>
</g>
</g>
<!-- Node13&#45;&gt;Node4 -->
<g id="edge16_Node000013_Node000004" class="edge">
<title>Node13&#45;&gt;Node4</title>
<g id="a_edge16_Node000013_Node000004"><a xlink:title=" ">
<path fill="none" stroke="#63b8ff" d="M641.55,-191.87C531.14,-171.64 500.09,-177.82 393.88,-156 391.21,-155.45 388.49,-154.85 385.75,-154.22"/>
<polygon fill="#63b8ff" stroke="#63b8ff" points="640.66,-195.45 651.13,-193.84 641.94,-188.56 640.66,-195.45"/>
</a>
</g>
</g>
<!-- Node14 -->
<g id="Node000014" class="node">
<title>Node14</title>
<g id="a_Node000014"><a xlink:href="tesart__rbd_8cpp.html" target="_top" xlink:title="Файл исходного кода, в котором реализованы методы для класа TesartRbd.">
<polygon fill="white" stroke="#666666" points="761.38,-156 652.38,-156 652.38,-124 761.38,-124 761.38,-156"/>
<text text-anchor="start" x="660.38" y="-142.5" font-family="Helvetica,sans-Serif" font-size="10.00">src/devices/rbd/tesart</text>
<text text-anchor="middle" x="706.88" y="-130.5" font-family="Helvetica,sans-Serif" font-size="10.00">_rbd.cpp</text>
</a>
</g>
</g>
<!-- Node13&#45;&gt;Node14 -->
<g id="edge17_Node000013_Node000014" class="edge">
<title>Node13&#45;&gt;Node14</title>
<g id="a_edge17_Node000013_Node000014"><a xlink:title=" ">
<path fill="none" stroke="#63b8ff" d="M706.88,-180.89C706.88,-172.52 706.88,-163.54 706.88,-156.22"/>
<polygon fill="#63b8ff" stroke="#63b8ff" points="703.38,-180.69 706.88,-190.69 710.38,-180.69 703.38,-180.69"/>
</a>
</g>
</g>
<!-- Node16&#45;&gt;Node4 -->
<g id="edge20_Node000016_Node000004" class="edge">
<title>Node16&#45;&gt;Node4</title>
<g id="a_edge20_Node000016_Node000004"><a xlink:title=" ">
<path fill="none" stroke="#63b8ff" d="M222.51,-253.61C234.94,-244.94 248.97,-234.5 260.88,-224 285.49,-202.28 310.76,-173.58 325.35,-156.25"/>
<polygon fill="#63b8ff" stroke="#63b8ff" points="221.06,-251.04 214.79,-259.58 225.02,-256.82 221.06,-251.04"/>
</a>
</g>
</g>
<!-- Node17 -->
<g id="Node000017" class="node">
<title>Node17</title>
<g id="a_Node000017"><a xlink:href="keysight__m9807a_8hpp.html" target="_top" xlink:title="Файл, в котором определён класс KeysightM9807A.">
<polygon fill="white" stroke="#666666" points="121.75,-224 0,-224 0,-192 121.75,-192 121.75,-224"/>
<text text-anchor="start" x="8" y="-210.5" font-family="Helvetica,sans-Serif" font-size="10.00">src/devices/vna/keysight</text>
<text text-anchor="middle" x="60.88" y="-198.5" font-family="Helvetica,sans-Serif" font-size="10.00">_m9807a.hpp</text>
</a>
</g>
</g>
<!-- Node16&#45;&gt;Node17 -->
<g id="edge21_Node000016_Node000017" class="edge">
<title>Node16&#45;&gt;Node17</title>
<g id="a_edge21_Node000016_Node000017"><a xlink:title=" ">
<path fill="none" stroke="#63b8ff" d="M150.02,-254.61C130.96,-244.86 108.53,-233.38 90.93,-224.38"/>
<polygon fill="#63b8ff" stroke="#63b8ff" points="148.13,-258.09 158.63,-259.53 151.32,-251.86 148.13,-258.09"/>
</a>
</g>
</g>
<!-- Node19 -->
<g id="Node000019" class="node">
<title>Node19</title>
<g id="a_Node000019"><a xlink:href="planar__s50244_8h.html" target="_top" xlink:title="Файл, в котором определён класс PlanarS50244.">
<polygon fill="white" stroke="#666666" points="251.5,-224 140.25,-224 140.25,-192 251.5,-192 251.5,-224"/>
<text text-anchor="start" x="148.25" y="-210.5" font-family="Helvetica,sans-Serif" font-size="10.00">src/devices/vna/planar</text>
<text text-anchor="middle" x="195.88" y="-198.5" font-family="Helvetica,sans-Serif" font-size="10.00">_s50244.h</text>
</a>
</g>
</g>
<!-- Node16&#45;&gt;Node19 -->
<g id="edge24_Node000016_Node000019" class="edge">
<title>Node16&#45;&gt;Node19</title>
<g id="a_edge24_Node000016_Node000019"><a xlink:title=" ">
<path fill="none" stroke="#63b8ff" d="M192.25,-248.89C193.01,-240.52 193.83,-231.54 194.49,-224.22"/>
<polygon fill="#63b8ff" stroke="#63b8ff" points="188.69,-248.42 191.27,-258.69 195.66,-249.05 188.69,-248.42"/>
</a>
</g>
</g>
<!-- Node17&#45;&gt;Node4 -->
<g id="edge22_Node000017_Node000004" class="edge">
<title>Node17&#45;&gt;Node4</title>
<g id="a_edge22_Node000017_Node000004"><a xlink:title=" ">
<path fill="none" stroke="#63b8ff" d="M132.67,-189.89C182.26,-178.08 246.85,-162.69 290.21,-152.36"/>
<polygon fill="#63b8ff" stroke="#63b8ff" points="131.92,-186.71 123.01,-192.43 133.55,-193.52 131.92,-186.71"/>
</a>
</g>
</g>
<!-- Node18 -->
<g id="Node000018" class="node">
<title>Node18</title>
<g id="a_Node000018"><a xlink:href="keysight__m9807a_8cpp.html" target="_top" xlink:title="Файл исходного кода, в котором реализованы методы для класа KeysightM9807A.">
<polygon fill="white" stroke="#666666" points="121.75,-156 0,-156 0,-124 121.75,-124 121.75,-156"/>
<text text-anchor="start" x="8" y="-142.5" font-family="Helvetica,sans-Serif" font-size="10.00">src/devices/vna/keysight</text>
<text text-anchor="middle" x="60.88" y="-130.5" font-family="Helvetica,sans-Serif" font-size="10.00">_m9807a.cpp</text>
</a>
</g>
</g>
<!-- Node17&#45;&gt;Node18 -->
<g id="edge23_Node000017_Node000018" class="edge">
<title>Node17&#45;&gt;Node18</title>
<g id="a_edge23_Node000017_Node000018"><a xlink:title=" ">
<path fill="none" stroke="#63b8ff" d="M60.88,-180.89C60.88,-172.52 60.88,-163.54 60.88,-156.22"/>
<polygon fill="#63b8ff" stroke="#63b8ff" points="57.38,-180.69 60.88,-190.69 64.38,-180.69 57.38,-180.69"/>
</a>
</g>
</g>
<!-- Node19&#45;&gt;Node4 -->
<g id="edge25_Node000019_Node000004" class="edge">
<title>Node19&#45;&gt;Node4</title>
<g id="a_edge25_Node000019_Node000004"><a xlink:title=" ">
<path fill="none" stroke="#63b8ff" d="M238.89,-187.01C260.05,-177.17 285.16,-165.5 304.79,-156.38"/>
<polygon fill="#63b8ff" stroke="#63b8ff" points="237.76,-184.14 230.17,-191.53 240.71,-190.48 237.76,-184.14"/>
</a>
</g>
</g>
<!-- Node20 -->
<g id="Node000020" class="node">
<title>Node20</title>
<g id="a_Node000020"><a xlink:href="planar__s50244_8cpp.html" target="_top" xlink:title="Файл исходного кода, в котором реализованы методы для класа PlanarS50244.">
<polygon fill="white" stroke="#666666" points="251.5,-156 140.25,-156 140.25,-124 251.5,-124 251.5,-156"/>
<text text-anchor="start" x="148.25" y="-142.5" font-family="Helvetica,sans-Serif" font-size="10.00">src/devices/vna/planar</text>
<text text-anchor="middle" x="195.88" y="-130.5" font-family="Helvetica,sans-Serif" font-size="10.00">_s50244.cpp</text>
</a>
</g>
</g>
<!-- Node19&#45;&gt;Node20 -->
<g id="edge26_Node000019_Node000020" class="edge">
<title>Node19&#45;&gt;Node20</title>
<g id="a_edge26_Node000019_Node000020"><a xlink:title=" ">
<path fill="none" stroke="#63b8ff" d="M195.88,-180.89C195.88,-172.52 195.88,-163.54 195.88,-156.22"/>
<polygon fill="#63b8ff" stroke="#63b8ff" points="192.38,-180.69 195.88,-190.69 199.38,-180.69 192.38,-180.69"/>
</a>
</g>
</g>
<!-- Node21&#45;&gt;Node7 -->
<g id="edge28_Node000021_Node000007" class="edge">
<title>Node21&#45;&gt;Node7</title>
<g id="a_edge28_Node000021_Node000007"><a xlink:title=" ">
<path fill="none" stroke="#63b8ff" d="M789.88,-316.99C789.88,-291.8 789.88,-247.19 789.88,-209 789.88,-209 789.88,-209 789.88,-139 789.88,-69.21 698.9,-33.96 646.3,-19.41"/>
<polygon fill="#63b8ff" stroke="#63b8ff" points="786.38,-316.68 789.88,-326.68 793.38,-316.68 786.38,-316.68"/>
</a>
</g>
</g>
<!-- Node22 -->
<g id="Node000022" class="node">
<title>Node22</title>
<g id="a_Node000022"><a xlink:href="socket__server_8cpp.html" target="_top" xlink:title="Файл исходного кода, в котором реализованы конструкторы и методы для класа SocketServer.">
<polygon fill="white" stroke="#666666" points="961.62,-286 818.12,-286 818.12,-266 961.62,-266 961.62,-286"/>
<text text-anchor="middle" x="889.88" y="-272.5" font-family="Helvetica,sans-Serif" font-size="10.00">src/socket/socket_server.cpp</text>
</a>
</g>
</g>
<!-- Node21&#45;&gt;Node22 -->
<g id="edge29_Node000021_Node000022" class="edge">
<title>Node21&#45;&gt;Node22</title>
<g id="a_edge29_Node000021_Node000022"><a xlink:title=" ">
<path fill="none" stroke="#63b8ff" d="M814.87,-322C833.54,-310.8 858.48,-295.84 874.36,-286.31"/>
<polygon fill="#63b8ff" stroke="#63b8ff" points="813.27,-319.48 806.5,-327.62 816.88,-325.48 813.27,-319.48"/>
</a>
</g>
</g>
</g>
</svg>

<g id="navigator" transform="translate(0 0)" fill="#404254">
  <rect fill="#f2f5e9" fill-opacity="0.5" stroke="#606060" stroke-width=".5" x="0" y="0" width="60" height="60"/>
  <use id="zoomplus" xlink:href="#zoomPlus" x="17" y="9" onmousedown="handleZoom(evt,'in')"/>
  <use id="zoomminus" xlink:href="#zoomMin" x="42" y="9" onmousedown="handleZoom(evt,'out')"/>
  <use id="reset" xlink:href="#resetDef" x="30" y="36" onmousedown="handleReset()"/>
   <use id="arrowup" xlink:href="#arrowUp" x="0" y="0" onmousedown="handlePan(0,-1)"/>
  <use id="arrowright" xlink:href="#arrowRight" x="0" y="0" onmousedown="handlePan(1,0)"/>
  <use id="arrowdown" xlink:href="#arrowDown" x="0" y="0" onmousedown="handlePan(0,1)"/>
  <use id="arrowleft" xlink:href="#arrowLeft" x="0" y="0" onmousedown="handlePan(-1,0)"/>
</g>
<svg viewBox="0 0 15 15" width="100%" height="30px" preserveAspectRatio="xMaxYMin meet">
 <g id="arrow_out" transform="scale(0.3 0.3)">
  <a xlink:href="logger_8hpp__dep__incl_org.svg" target="_base">
   <rect id="button" ry="5" rx="5" y="6" x="6" height="38" width="38"
        fill="#f2f5e9" fill-opacity="0.5" stroke="#606060" stroke-width="1.0"/>
   <path id="arrow"
     d="M 11.500037,31.436501 C 11.940474,20.09759 22.043105,11.32322 32.158766,21.979434 L 37.068811,17.246167 C 37.068811,17.246167 37.088388,32 37.088388,32 L 22.160133,31.978069 C 22.160133,31.978069 26.997745,27.140456 26.997745,27.140456 C 18.528582,18.264221 13.291696,25.230495 11.500037,31.436501 z"
     style="fill:#404040;"/>
  </a>
 </g>
</svg>

<style type='text/css'>
<![CDATA[
[data-mouse-over-selected='false'] { opacity: 0.7; }
[data-mouse-over-selected='true']  { opacity: 1.0; }
]]>
</style>
<script type="application/ecmascript"><![CDATA[
document.addEventListener('DOMContentLoaded', (event) => {
  highlightEdges();
  highlightAdjacentNodes();
});
]]></script>
</svg>
