<?xml version="1.0" encoding="UTF-8" standalone="no"?>
<!DOCTYPE svg PUBLIC "-//W3C//DTD SVG 1.1//EN"
 "http://www.w3.org/Graphics/SVG/1.1/DTD/svg11.dtd">
<!-- Generated by graphviz version 8.0.5 (20230430.1635)
 -->
<!-- Title: src/utils/logger.hpp Pages: 1 -->
<svg width="840pt" height="412pt"
 viewBox="0.00 0.00 839.88 412.00" xmlns="http://www.w3.org/2000/svg" xmlns:xlink="http://www.w3.org/1999/xlink">
<g id="graph0" class="graph" transform="scale(1 1) rotate(0) translate(4 408)">
<title>src/utils/logger.hpp</title>
<!-- Node1 -->
<g id="Node000001" class="node">
<title>Node1</title>
<g id="a_Node000001"><a xlink:title="Библиотека, осуществляющая логирование">
<polygon fill="#999999" stroke="#666666" points="601.38,-404 502.88,-404 502.88,-384 601.38,-384 601.38,-404"/>
<text text-anchor="middle" x="552.12" y="-390.5" font-family="Helvetica,sans-Serif" font-size="10.00">src/utils/logger.hpp</text>
</a>
</g>
</g>
<!-- Node2 -->
<g id="Node000002" class="node">
<title>Node2</title>
<g id="a_Node000002"><a xlink:href="visa__device_8hpp.html" target="_top" xlink:title="Заголовочный файл, в котором определены константы и класс VisaDevice.">
<polygon fill="white" stroke="#666666" points="515.75,-348 380.5,-348 380.5,-328 515.75,-328 515.75,-348"/>
<text text-anchor="middle" x="448.12" y="-334.5" font-family="Helvetica,sans-Serif" font-size="10.00">src/devices/visa_device.hpp</text>
</a>
</g>
</g>
<!-- Node1&#45;&gt;Node2 -->
<g id="edge1_Node000001_Node000002" class="edge">
<title>Node1&#45;&gt;Node2</title>
<g id="a_edge1_Node000001_Node000002"><a xlink:title=" ">
<path fill="none" stroke="#63b8ff" d="M524.42,-378.61C506.04,-369.07 482.43,-356.81 466.38,-348.48"/>
<polygon fill="#63b8ff" stroke="#63b8ff" points="522.52,-382.09 533.01,-383.59 525.75,-375.88 522.52,-382.09"/>
</a>
</g>
</g>
<!-- Node19 -->
<g id="Node000019" class="node">
<title>Node19</title>
<g id="a_Node000019"><a xlink:href="socket__server_8hpp.html" target="_top" xlink:title="Заголовочный файл, в котором объявляются класс SocketServer и необходимые константы">
<polygon fill="white" stroke="#666666" points="731.88,-348 588.38,-348 588.38,-328 731.88,-328 731.88,-348"/>
<text text-anchor="middle" x="660.12" y="-334.5" font-family="Helvetica,sans-Serif" font-size="10.00">src/socket/socket_server.hpp</text>
</a>
</g>
</g>
<!-- Node1&#45;&gt;Node19 -->
<g id="edge24_Node000001_Node000019" class="edge">
<title>Node1&#45;&gt;Node19</title>
<g id="a_edge24_Node000001_Node000019"><a xlink:title=" ">
<path fill="none" stroke="#63b8ff" d="M580.63,-378.75C599.76,-369.18 624.42,-356.85 641.17,-348.48"/>
<polygon fill="#63b8ff" stroke="#63b8ff" points="579.32,-375.99 571.94,-383.59 582.45,-382.25 579.32,-375.99"/>
</a>
</g>
</g>
<!-- Node3 -->
<g id="Node000003" class="node">
<title>Node3</title>
<g id="a_Node000003"><a xlink:href="gen__device_8hpp.html" target="_top" xlink:title=" ">
<polygon fill="white" stroke="#666666" points="499.25,-292 397,-292 397,-260 499.25,-260 499.25,-292"/>
<text text-anchor="start" x="405" y="-278.5" font-family="Helvetica,sans-Serif" font-size="10.00">src/devices/gen/gen</text>
<text text-anchor="middle" x="448.12" y="-266.5" font-family="Helvetica,sans-Serif" font-size="10.00">_device.hpp</text>
</a>
</g>
</g>
<!-- Node2&#45;&gt;Node3 -->
<g id="edge2_Node000002_Node000003" class="edge">
<title>Node2&#45;&gt;Node3</title>
<g id="a_edge2_Node000002_Node000003"><a xlink:title=" ">
<path fill="none" stroke="#63b8ff" d="M448.12,-316.87C448.12,-308.79 448.12,-299.64 448.12,-292.14"/>
<polygon fill="#63b8ff" stroke="#63b8ff" points="444.63,-316.62 448.12,-326.62 451.63,-316.63 444.63,-316.62"/>
</a>
</g>
</g>
<!-- Node11 -->
<g id="Node000011" class="node">
<title>Node11</title>
<g id="a_Node000011"><a xlink:href="rbd__device_8hpp.html" target="_top" xlink:title=" ">
<polygon fill="white" stroke="#666666" points="225,-292 127.25,-292 127.25,-260 225,-260 225,-292"/>
<text text-anchor="start" x="135.25" y="-278.5" font-family="Helvetica,sans-Serif" font-size="10.00">src/devices/rbd/rbd</text>
<text text-anchor="middle" x="176.12" y="-266.5" font-family="Helvetica,sans-Serif" font-size="10.00">_device.hpp</text>
</a>
</g>
</g>
<!-- Node2&#45;&gt;Node11 -->
<g id="edge11_Node000002_Node000011" class="edge">
<title>Node2&#45;&gt;Node11</title>
<g id="a_edge11_Node000002_Node000011"><a xlink:title=" ">
<path fill="none" stroke="#63b8ff" d="M389.39,-325.4C346.3,-316.71 286.43,-304.26 234.12,-292 231.29,-291.34 228.38,-290.64 225.45,-289.92"/>
<polygon fill="#63b8ff" stroke="#63b8ff" points="388.47,-328.99 398.96,-327.53 389.85,-322.13 388.47,-328.99"/>
</a>
</g>
</g>
<!-- Node15 -->
<g id="Node000015" class="node">
<title>Node15</title>
<g id="a_Node000015"><a xlink:href="visa__device_8cpp.html" target="_top" xlink:title="Файл исходного кода, в котором реализованы конструкторы и методы для класа VisaDevice.">
<polygon fill="white" stroke="#666666" points="378.75,-286 243.5,-286 243.5,-266 378.75,-266 378.75,-286"/>
<text text-anchor="middle" x="311.12" y="-272.5" font-family="Helvetica,sans-Serif" font-size="10.00">src/devices/visa_device.cpp</text>
</a>
</g>
</g>
<!-- Node2&#45;&gt;Node15 -->
<g id="edge18_Node000002_Node000015" class="edge">
<title>Node2&#45;&gt;Node15</title>
<g id="a_edge18_Node000002_Node000015"><a xlink:title=" ">
<path fill="none" stroke="#63b8ff" d="M416.67,-323.23C390.84,-311.91 354.94,-296.19 332.38,-286.31"/>
<polygon fill="#63b8ff" stroke="#63b8ff" points="415.15,-326.82 425.72,-327.62 417.96,-320.41 415.15,-326.82"/>
</a>
</g>
</g>
<!-- Node16 -->
<g id="Node000016" class="node">
<title>Node16</title>
<g id="a_Node000016"><a xlink:href="vna__device_8hpp.html" target="_top" xlink:title=" ">
<polygon fill="white" stroke="#666666" points="616.75,-292 517.5,-292 517.5,-260 616.75,-260 616.75,-292"/>
<text text-anchor="start" x="525.5" y="-278.5" font-family="Helvetica,sans-Serif" font-size="10.00">src/devices/vna/vna</text>
<text text-anchor="middle" x="567.12" y="-266.5" font-family="Helvetica,sans-Serif" font-size="10.00">_device.hpp</text>
</a>
</g>
</g>
<!-- Node2&#45;&gt;Node16 -->
<g id="edge19_Node000002_Node000016" class="edge">
<title>Node2&#45;&gt;Node16</title>
<g id="a_edge19_Node000002_Node000016"><a xlink:title=" ">
<path fill="none" stroke="#63b8ff" d="M476.43,-322.73C494.57,-313.58 518.09,-301.72 536.63,-292.37"/>
<polygon fill="#63b8ff" stroke="#63b8ff" points="475.07,-320 467.72,-327.62 478.22,-326.25 475.07,-320"/>
</a>
</g>
</g>
<!-- Node4 -->
<g id="Node000004" class="node">
<title>Node4</title>
<g id="a_Node000004"><a xlink:href="device__set_8hpp.html" target="_top" xlink:title="Заголовочный файл, содержащий в себе класс DeviceSet и набор констант, необходимых для данного класса...">
<polygon fill="white" stroke="#666666" points="491.5,-156 396.75,-156 396.75,-124 491.5,-124 491.5,-156"/>
<text text-anchor="start" x="404.75" y="-142.5" font-family="Helvetica,sans-Serif" font-size="10.00">src/devices/device</text>
<text text-anchor="middle" x="444.12" y="-130.5" font-family="Helvetica,sans-Serif" font-size="10.00">_set.hpp</text>
</a>
</g>
</g>
<!-- Node3&#45;&gt;Node4 -->
<g id="edge3_Node000003_Node000004" class="edge">
<title>Node3&#45;&gt;Node4</title>
<g id="a_edge3_Node000003_Node000004"><a xlink:title=" ">
<path fill="none" stroke="#63b8ff" d="M447.34,-248.82C446.52,-221.22 445.25,-178.7 444.58,-156.19"/>
<polygon fill="#63b8ff" stroke="#63b8ff" points="443.87,-248.74 447.67,-258.63 450.87,-248.53 443.87,-248.74"/>
</a>
</g>
</g>
<!-- Node9 -->
<g id="Node000009" class="node">
<title>Node9</title>
<g id="a_Node000009"><a xlink:href="keysight__gen_8hpp.html" target="_top" xlink:title=" ">
<polygon fill="white" stroke="#666666" points="415.75,-224 292.5,-224 292.5,-192 415.75,-192 415.75,-224"/>
<text text-anchor="start" x="300.5" y="-210.5" font-family="Helvetica,sans-Serif" font-size="10.00">src/devices/gen/keysight</text>
<text text-anchor="middle" x="354.12" y="-198.5" font-family="Helvetica,sans-Serif" font-size="10.00">_gen.hpp</text>
</a>
</g>
</g>
<!-- Node3&#45;&gt;Node9 -->
<g id="edge8_Node000003_Node000009" class="edge">
<title>Node3&#45;&gt;Node9</title>
<g id="a_edge8_Node000003_Node000009"><a xlink:title=" ">
<path fill="none" stroke="#63b8ff" d="M417.39,-253.42C403.92,-243.96 388.42,-233.08 376.13,-224.45"/>
<polygon fill="#63b8ff" stroke="#63b8ff" points="415.13,-256.81 425.32,-259.69 419.15,-251.08 415.13,-256.81"/>
</a>
</g>
</g>
<!-- Node5 -->
<g id="Node000005" class="node">
<title>Node5</title>
<g id="a_Node000005"><a xlink:href="device__set_8cpp.html" target="_top" xlink:title=" ">
<polygon fill="white" stroke="#666666" points="309.5,-88 214.75,-88 214.75,-56 309.5,-56 309.5,-88"/>
<text text-anchor="start" x="222.75" y="-74.5" font-family="Helvetica,sans-Serif" font-size="10.00">src/devices/device</text>
<text text-anchor="middle" x="262.12" y="-62.5" font-family="Helvetica,sans-Serif" font-size="10.00">_set.cpp</text>
</a>
</g>
</g>
<!-- Node4&#45;&gt;Node5 -->
<g id="edge4_Node000004_Node000005" class="edge">
<title>Node4&#45;&gt;Node5</title>
<g id="a_edge4_Node000004_Node000005"><a xlink:title=" ">
<path fill="none" stroke="#63b8ff" d="M391.23,-119.82C363.77,-109.86 330.66,-97.85 304.84,-88.49"/>
<polygon fill="#63b8ff" stroke="#63b8ff" points="389.86,-123.41 400.45,-123.53 392.25,-116.83 389.86,-123.41"/>
</a>
</g>
</g>
<!-- Node6 -->
<g id="Node000006" class="node">
<title>Node6</title>
<g id="a_Node000006"><a xlink:href="task__manager_8hpp.html" target="_top" xlink:title=" ">
<polygon fill="white" stroke="#666666" points="552.5,-82 439.75,-82 439.75,-62 552.5,-62 552.5,-82"/>
<text text-anchor="middle" x="496.12" y="-68.5" font-family="Helvetica,sans-Serif" font-size="10.00">src/task_manager.hpp</text>
</a>
</g>
</g>
<!-- Node4&#45;&gt;Node6 -->
<g id="edge5_Node000004_Node000006" class="edge">
<title>Node4&#45;&gt;Node6</title>
<g id="a_edge5_Node000004_Node000006"><a xlink:title=" ">
<path fill="none" stroke="#63b8ff" d="M462.74,-115.37C471.74,-103.95 482.04,-90.88 488.78,-82.32"/>
<polygon fill="#63b8ff" stroke="#63b8ff" points="459.63,-112.67 456.19,-122.69 465.12,-117 459.63,-112.67"/>
</a>
</g>
</g>
<!-- Node7 -->
<g id="Node000007" class="node">
<title>Node7</title>
<g id="a_Node000007"><a xlink:href="main_8cpp.html" target="_top" xlink:title=" ">
<polygon fill="white" stroke="#666666" points="670.25,-20 598,-20 598,0 670.25,0 670.25,-20"/>
<text text-anchor="middle" x="634.12" y="-6.5" font-family="Helvetica,sans-Serif" font-size="10.00">src/main.cpp</text>
</a>
</g>
</g>
<!-- Node6&#45;&gt;Node7 -->
<g id="edge6_Node000006_Node000007" class="edge">
<title>Node6&#45;&gt;Node7</title>
<g id="a_edge6_Node000006_Node000007"><a xlink:title=" ">
<path fill="none" stroke="#63b8ff" d="M527.46,-57.38C553.51,-46.05 589.89,-30.23 612.71,-20.31"/>
<polygon fill="#63b8ff" stroke="#63b8ff" points="526.46,-54.43 518.69,-61.62 529.25,-60.85 526.46,-54.43"/>
</a>
</g>
</g>
<!-- Node8 -->
<g id="Node000008" class="node">
<title>Node8</title>
<g id="a_Node000008"><a xlink:href="task__manager_8cpp.html" target="_top" xlink:title=" ">
<polygon fill="white" stroke="#666666" points="552.5,-20 439.75,-20 439.75,0 552.5,0 552.5,-20"/>
<text text-anchor="middle" x="496.12" y="-6.5" font-family="Helvetica,sans-Serif" font-size="10.00">src/task_manager.cpp</text>
</a>
</g>
</g>
<!-- Node6&#45;&gt;Node8 -->
<g id="edge7_Node000006_Node000008" class="edge">
<title>Node6&#45;&gt;Node8</title>
<g id="a_edge7_Node000006_Node000008"><a xlink:title=" ">
<path fill="none" stroke="#63b8ff" d="M496.12,-50.93C496.12,-40.5 496.12,-28.26 496.12,-20.11"/>
<polygon fill="#63b8ff" stroke="#63b8ff" points="492.63,-50.62 496.12,-60.62 499.63,-50.63 492.63,-50.62"/>
</a>
</g>
</g>
<!-- Node9&#45;&gt;Node4 -->
<g id="edge9_Node000009_Node000004" class="edge">
<title>Node9&#45;&gt;Node4</title>
<g id="a_edge9_Node000009_Node000004"><a xlink:title=" ">
<path fill="none" stroke="#63b8ff" d="M383.55,-185.42C396.45,-175.96 411.29,-165.08 423.05,-156.45"/>
<polygon fill="#63b8ff" stroke="#63b8ff" points="381.99,-182.96 376,-191.69 386.13,-188.6 381.99,-182.96"/>
</a>
</g>
</g>
<!-- Node10 -->
<g id="Node000010" class="node">
<title>Node10</title>
<g id="a_Node000010"><a xlink:href="keysight__gen_8cpp.html" target="_top" xlink:title=" ">
<polygon fill="white" stroke="#666666" points="378.75,-156 255.5,-156 255.5,-124 378.75,-124 378.75,-156"/>
<text text-anchor="start" x="263.5" y="-142.5" font-family="Helvetica,sans-Serif" font-size="10.00">src/devices/gen/keysight</text>
<text text-anchor="middle" x="317.12" y="-130.5" font-family="Helvetica,sans-Serif" font-size="10.00">_gen.cpp</text>
</a>
</g>
</g>
<!-- Node9&#45;&gt;Node10 -->
<g id="edge10_Node000009_Node000010" class="edge">
<title>Node9&#45;&gt;Node10</title>
<g id="a_edge10_Node000009_Node000010"><a xlink:title=" ">
<path fill="none" stroke="#63b8ff" d="M340.28,-182.3C335.37,-173.55 330,-163.96 325.66,-156.22"/>
<polygon fill="#63b8ff" stroke="#63b8ff" points="337.6,-183.68 345.54,-190.69 343.71,-180.26 337.6,-183.68"/>
</a>
</g>
</g>
<!-- Node11&#45;&gt;Node4 -->
<g id="edge12_Node000011_Node000004" class="edge">
<title>Node11&#45;&gt;Node4</title>
<g id="a_edge12_Node000011_Node000004"><a xlink:title=" ">
<path fill="none" stroke="#63b8ff" d="M205.87,-253.13C217.84,-244.21 231.73,-233.73 244.12,-224 261.76,-210.16 263.42,-202.69 283.12,-192 302.84,-181.31 356.5,-165.18 396.48,-153.93"/>
<polygon fill="#63b8ff" stroke="#63b8ff" points="204.08,-250.84 198.14,-259.61 208.25,-256.46 204.08,-250.84"/>
</a>
</g>
</g>
<!-- Node12 -->
<g id="Node000012" class="node">
<title>Node12</title>
<g id="a_Node000012"><a xlink:href="demo__rdb_8hpp.html" target="_top" xlink:title=" ">
<polygon fill="white" stroke="#666666" points="108.25,-224 0,-224 0,-192 108.25,-192 108.25,-224"/>
<text text-anchor="start" x="8" y="-210.5" font-family="Helvetica,sans-Serif" font-size="10.00">src/devices/rbd/demo</text>
<text text-anchor="middle" x="54.12" y="-198.5" font-family="Helvetica,sans-Serif" font-size="10.00">_rdb.hpp</text>
</a>
</g>
</g>
<!-- Node11&#45;&gt;Node12 -->
<g id="edge13_Node000011_Node000012" class="edge">
<title>Node11&#45;&gt;Node12</title>
<g id="a_edge13_Node000011_Node000012"><a xlink:title=" ">
<path fill="none" stroke="#63b8ff" d="M137.93,-254.34C120.02,-244.65 99.04,-233.3 82.55,-224.38"/>
<polygon fill="#63b8ff" stroke="#63b8ff" points="136.06,-257.85 146.52,-259.53 139.39,-251.69 136.06,-257.85"/>
</a>
</g>
</g>
<!-- Node13 -->
<g id="Node000013" class="node">
<title>Node13</title>
<g id="a_Node000013"><a xlink:href="tesart__rbd_8hpp.html" target="_top" xlink:title=" ">
<polygon fill="white" stroke="#666666" points="235.62,-224 126.62,-224 126.62,-192 235.62,-192 235.62,-224"/>
<text text-anchor="start" x="134.62" y="-210.5" font-family="Helvetica,sans-Serif" font-size="10.00">src/devices/rbd/tesart</text>
<text text-anchor="middle" x="181.12" y="-198.5" font-family="Helvetica,sans-Serif" font-size="10.00">_rbd.hpp</text>
</a>
</g>
</g>
<!-- Node11&#45;&gt;Node13 -->
<g id="edge15_Node000011_Node000013" class="edge">
<title>Node11&#45;&gt;Node13</title>
<g id="a_edge15_Node000011_Node000013"><a xlink:title=" ">
<path fill="none" stroke="#63b8ff" d="M178.1,-248.89C178.74,-240.52 179.42,-231.54 179.97,-224.22"/>
<polygon fill="#63b8ff" stroke="#63b8ff" points="174.55,-248.46 177.28,-258.69 181.53,-248.99 174.55,-248.46"/>
</a>
</g>
</g>
<!-- Node12&#45;&gt;Node5 -->
<g id="edge14_Node000012_Node000005" class="edge">
<title>Node12&#45;&gt;Node5</title>
<g id="a_edge14_Node000012_Node000005"><a xlink:title=" ">
<path fill="none" stroke="#63b8ff" d="M67.6,-182.16C78.7,-163.78 96.03,-139.37 117.12,-124 146.02,-102.94 184.39,-89.95 214.41,-82.36"/>
<polygon fill="#63b8ff" stroke="#63b8ff" points="64.08,-180.25 62.08,-190.65 70.13,-183.76 64.08,-180.25"/>
</a>
</g>
</g>
<!-- Node13&#45;&gt;Node4 -->
<g id="edge16_Node000013_Node000004" class="edge">
<title>Node13&#45;&gt;Node4</title>
<g id="a_edge16_Node000013_Node000004"><a xlink:title=" ">
<path fill="none" stroke="#63b8ff" d="M246.72,-191.2C287.47,-181.29 340.9,-168.14 388.12,-156 390.85,-155.3 393.66,-154.57 396.48,-153.83"/>
<polygon fill="#63b8ff" stroke="#63b8ff" points="246.01,-188.01 237.12,-193.77 247.66,-194.81 246.01,-188.01"/>
</a>
</g>
</g>
<!-- Node14 -->
<g id="Node000014" class="node">
<title>Node14</title>
<g id="a_Node000014"><a xlink:href="tesart__rbd_8cpp.html" target="_top" xlink:title=" ">
<polygon fill="white" stroke="#666666" points="235.62,-156 126.62,-156 126.62,-124 235.62,-124 235.62,-156"/>
<text text-anchor="start" x="134.62" y="-142.5" font-family="Helvetica,sans-Serif" font-size="10.00">src/devices/rbd/tesart</text>
<text text-anchor="middle" x="181.12" y="-130.5" font-family="Helvetica,sans-Serif" font-size="10.00">_rbd.cpp</text>
</a>
</g>
</g>
<!-- Node13&#45;&gt;Node14 -->
<g id="edge17_Node000013_Node000014" class="edge">
<title>Node13&#45;&gt;Node14</title>
<g id="a_edge17_Node000013_Node000014"><a xlink:title=" ">
<path fill="none" stroke="#63b8ff" d="M181.12,-180.89C181.12,-172.52 181.12,-163.54 181.12,-156.22"/>
<polygon fill="#63b8ff" stroke="#63b8ff" points="177.63,-180.69 181.12,-190.69 184.63,-180.69 177.63,-180.69"/>
</a>
</g>
</g>
<!-- Node16&#45;&gt;Node4 -->
<g id="edge20_Node000016_Node000004" class="edge">
<title>Node16&#45;&gt;Node4</title>
<g id="a_edge20_Node000016_Node000004"><a xlink:title=" ">
<path fill="none" stroke="#63b8ff" d="M534.89,-253.24C523.57,-244.81 511.17,-234.63 501.12,-224 481.07,-202.79 462.92,-173.93 452.73,-156.43"/>
<polygon fill="#63b8ff" stroke="#63b8ff" points="532.52,-256.57 542.68,-259.6 536.63,-250.9 532.52,-256.57"/>
</a>
</g>
</g>
<!-- Node17 -->
<g id="Node000017" class="node">
<title>Node17</title>
<g id="a_Node000017"><a xlink:href="keysight__m9807a_8hpp.html" target="_top" xlink:title=" ">
<polygon fill="white" stroke="#666666" points="632,-224 510.25,-224 510.25,-192 632,-192 632,-224"/>
<text text-anchor="start" x="518.25" y="-210.5" font-family="Helvetica,sans-Serif" font-size="10.00">src/devices/vna/keysight</text>
<text text-anchor="middle" x="571.12" y="-198.5" font-family="Helvetica,sans-Serif" font-size="10.00">_m9807a.hpp</text>
</a>
</g>
</g>
<!-- Node16&#45;&gt;Node17 -->
<g id="edge21_Node000016_Node000017" class="edge">
<title>Node16&#45;&gt;Node17</title>
<g id="a_edge21_Node000016_Node000017"><a xlink:title=" ">
<path fill="none" stroke="#63b8ff" d="M568.71,-248.89C569.21,-240.52 569.76,-231.54 570.2,-224.22"/>
<polygon fill="#63b8ff" stroke="#63b8ff" points="565.16,-248.5 568.05,-258.69 572.15,-248.92 565.16,-248.5"/>
</a>
</g>
</g>
<!-- Node17&#45;&gt;Node4 -->
<g id="edge22_Node000017_Node000004" class="edge">
<title>Node17&#45;&gt;Node4</title>
<g id="a_edge22_Node000017_Node000004"><a xlink:title=" ">
<path fill="none" stroke="#63b8ff" d="M531.63,-186.47C512.92,-176.75 490.96,-165.34 473.71,-156.38"/>
<polygon fill="#63b8ff" stroke="#63b8ff" points="529.86,-190.02 540.35,-191.53 533.09,-183.81 529.86,-190.02"/>
</a>
</g>
</g>
<!-- Node18 -->
<g id="Node000018" class="node">
<title>Node18</title>
<g id="a_Node000018"><a xlink:href="keysight__m9807a_8cpp.html" target="_top" xlink:title=" ">
<polygon fill="white" stroke="#666666" points="632,-156 510.25,-156 510.25,-124 632,-124 632,-156"/>
<text text-anchor="start" x="518.25" y="-142.5" font-family="Helvetica,sans-Serif" font-size="10.00">src/devices/vna/keysight</text>
<text text-anchor="middle" x="571.12" y="-130.5" font-family="Helvetica,sans-Serif" font-size="10.00">_m9807a.cpp</text>
</a>
</g>
</g>
<!-- Node17&#45;&gt;Node18 -->
<g id="edge23_Node000017_Node000018" class="edge">
<title>Node17&#45;&gt;Node18</title>
<g id="a_edge23_Node000017_Node000018"><a xlink:title=" ">
<path fill="none" stroke="#63b8ff" d="M571.12,-180.89C571.12,-172.52 571.12,-163.54 571.12,-156.22"/>
<polygon fill="#63b8ff" stroke="#63b8ff" points="567.63,-180.69 571.12,-190.69 574.63,-180.69 567.63,-180.69"/>
</a>
</g>
</g>
<!-- Node19&#45;&gt;Node7 -->
<g id="edge25_Node000019_Node000007" class="edge">
<title>Node19&#45;&gt;Node7</title>
<g id="a_edge25_Node000019_Node000007"><a xlink:title=" ">
<path fill="none" stroke="#63b8ff" d="M660.12,-316.99C660.12,-291.8 660.12,-247.19 660.12,-209 660.12,-209 660.12,-209 660.12,-139 660.12,-93.87 644.41,-41.56 637.42,-20.5"/>
<polygon fill="#63b8ff" stroke="#63b8ff" points="656.63,-316.68 660.12,-326.68 663.63,-316.68 656.63,-316.68"/>
</a>
</g>
</g>
<!-- Node20 -->
<g id="Node000020" class="node">
<title>Node20</title>
<g id="a_Node000020"><a xlink:href="socket__server_8cpp.html" target="_top" xlink:title="Файл исходного кода, в котором реализованы конструкторы и методы для класа SocketServer.">
<polygon fill="white" stroke="#666666" points="831.88,-286 688.38,-286 688.38,-266 831.88,-266 831.88,-286"/>
<text text-anchor="middle" x="760.12" y="-272.5" font-family="Helvetica,sans-Serif" font-size="10.00">src/socket/socket_server.cpp</text>
</a>
</g>
</g>
<!-- Node19&#45;&gt;Node20 -->
<g id="edge26_Node000019_Node000020" class="edge">
<title>Node19&#45;&gt;Node20</title>
<g id="a_edge26_Node000019_Node000020"><a xlink:title=" ">
<path fill="none" stroke="#63b8ff" d="M685.12,-322C703.79,-310.8 728.73,-295.84 744.61,-286.31"/>
<polygon fill="#63b8ff" stroke="#63b8ff" points="683.52,-319.48 676.75,-327.62 687.13,-325.48 683.52,-319.48"/>
</a>
</g>
</g>
</g>
</svg>
