<?xml version="1.0" encoding="UTF-8" standalone="no"?>
<!DOCTYPE svg PUBLIC "-//W3C//DTD SVG 1.1//EN"
 "http://www.w3.org/Graphics/SVG/1.1/DTD/svg11.dtd">
<!-- Generated by graphviz version 8.1.0 (20230707.0739)
 -->
<!-- Title: src/main.cpp Pages: 1 -->
<svg width="1002pt" height="432pt"
 viewBox="0.00 0.00 1001.88 432.00" xmlns="http://www.w3.org/2000/svg" xmlns:xlink="http://www.w3.org/1999/xlink">
<g id="graph0" class="graph" transform="scale(1 1) rotate(0) translate(4 428)">
<title>src/main.cpp</title>
<!-- Node1 -->
<g id="Node000001" class="node">
<title>Node1</title>
<g id="a_Node000001"><a xlink:title="Главный файл приложения">
<polygon fill="#999999" stroke="#666666" points="210.38,-424 138.12,-424 138.12,-404 210.38,-404 210.38,-424"/>
<text text-anchor="middle" x="174.25" y="-410.5" font-family="Helvetica,sans-Serif" font-size="10.00">src/main.cpp</text>
</a>
</g>
</g>
<!-- Node2 -->
<g id="Node000002" class="node">
<title>Node2</title>
<g id="a_Node000002"><a xlink:title=" ">
<polygon fill="#e0e0e0" stroke="#999999" points="92.5,-368 0,-368 0,-348 92.5,-348 92.5,-368"/>
<text text-anchor="middle" x="46.25" y="-354.5" font-family="Helvetica,sans-Serif" font-size="10.00">condition_variable</text>
</a>
</g>
</g>
<!-- Node1&#45;&gt;Node2 -->
<g id="edge1_Node000001_Node000002" class="edge">
<title>Node1&#45;&gt;Node2</title>
<g id="a_edge1_Node000001_Node000002"><a xlink:title=" ">
<path fill="none" stroke="#63b8ff" d="M151.95,-403.59C131.71,-395.05 101.59,-382.35 78.68,-372.68"/>
<polygon fill="#63b8ff" stroke="#63b8ff" points="80.29,-369.14 69.72,-368.48 77.57,-375.59 80.29,-369.14"/>
</a>
</g>
</g>
<!-- Node3 -->
<g id="Node000003" class="node">
<title>Node3</title>
<g id="a_Node000003"><a xlink:href="socket__server_8hpp.html" target="_top" xlink:title="Заголовочный файл, в котором объявляются класс SocketServer и необходимые константы">
<polygon fill="white" stroke="#666666" points="237.75,-368 110.75,-368 110.75,-348 237.75,-348 237.75,-368"/>
<text text-anchor="middle" x="174.25" y="-354.5" font-family="Helvetica,sans-Serif" font-size="10.00">socket/socket_server.hpp</text>
</a>
</g>
</g>
<!-- Node1&#45;&gt;Node3 -->
<g id="edge2_Node000001_Node000003" class="edge">
<title>Node1&#45;&gt;Node3</title>
<g id="a_edge2_Node000001_Node000003"><a xlink:title=" ">
<path fill="none" stroke="#63b8ff" d="M174.25,-403.59C174.25,-396.86 174.25,-387.53 174.25,-379.15"/>
<polygon fill="#63b8ff" stroke="#63b8ff" points="177.75,-379.3 174.25,-369.3 170.75,-379.3 177.75,-379.3"/>
</a>
</g>
</g>
<!-- Node12 -->
<g id="Node000012" class="node">
<title>Node12</title>
<g id="a_Node000012"><a xlink:href="task__manager_8hpp.html" target="_top" xlink:title="Заголовочный файл, в котором определён класс TaskManager и набор констант для работы с ним">
<polygon fill="white" stroke="#666666" points="631.38,-368 535.12,-368 535.12,-348 631.38,-348 631.38,-368"/>
<text text-anchor="middle" x="583.25" y="-354.5" font-family="Helvetica,sans-Serif" font-size="10.00">task_manager.hpp</text>
</a>
</g>
</g>
<!-- Node1&#45;&gt;Node12 -->
<g id="edge11_Node000001_Node000012" class="edge">
<title>Node1&#45;&gt;Node12</title>
<g id="a_edge11_Node000001_Node000012"><a xlink:title=" ">
<path fill="none" stroke="#63b8ff" d="M210.55,-408.21C281.25,-398.87 438.02,-378.17 524,-366.82"/>
<polygon fill="#63b8ff" stroke="#63b8ff" points="524.43,-370.16 533.88,-365.39 523.51,-363.23 524.43,-370.16"/>
</a>
</g>
</g>
<!-- Node4 -->
<g id="Node000004" class="node">
<title>Node4</title>
<g id="a_Node000004"><a xlink:title=" ">
<polygon fill="#e0e0e0" stroke="#999999" points="146.62,-312 81.88,-312 81.88,-292 146.62,-292 146.62,-312"/>
<text text-anchor="middle" x="114.25" y="-298.5" font-family="Helvetica,sans-Serif" font-size="10.00">winsock2.h</text>
</a>
</g>
</g>
<!-- Node3&#45;&gt;Node4 -->
<g id="edge3_Node000003_Node000004" class="edge">
<title>Node3&#45;&gt;Node4</title>
<g id="a_edge3_Node000003_Node000004"><a xlink:title=" ">
<path fill="none" stroke="#63b8ff" d="M163.8,-347.59C155.2,-339.85 142.79,-328.69 132.55,-319.47"/>
<polygon fill="#63b8ff" stroke="#63b8ff" points="135.36,-317.39 125.58,-313.3 130.67,-322.59 135.36,-317.39"/>
</a>
</g>
</g>
<!-- Node5 -->
<g id="Node000005" class="node">
<title>Node5</title>
<g id="a_Node000005"><a xlink:href="logger_8hpp.html" target="_top" xlink:title="Библиотека, осуществляющая логирование">
<polygon fill="white" stroke="#666666" points="455.75,-76 364.75,-76 364.75,-56 455.75,-56 455.75,-76"/>
<text text-anchor="middle" x="410.25" y="-62.5" font-family="Helvetica,sans-Serif" font-size="10.00">../utils/logger.hpp</text>
</a>
</g>
</g>
<!-- Node3&#45;&gt;Node5 -->
<g id="edge4_Node000003_Node000005" class="edge">
<title>Node3&#45;&gt;Node5</title>
<g id="a_edge4_Node000003_Node000005"><a xlink:title=" ">
<path fill="none" stroke="#63b8ff" d="M174.25,-347.58C174.25,-328.57 174.25,-284.24 174.25,-247 174.25,-247 174.25,-247 174.25,-183 174.25,-103.37 283.8,-78.4 353.62,-70.57"/>
<polygon fill="#63b8ff" stroke="#63b8ff" points="353.88,-73.96 363.47,-69.46 353.16,-67 353.88,-73.96"/>
</a>
</g>
</g>
<!-- Node6 -->
<g id="Node000006" class="node">
<title>Node6</title>
<g id="a_Node000006"><a xlink:title=" ">
<polygon fill="#e0e0e0" stroke="#999999" points="279.25,-20 239.25,-20 239.25,0 279.25,0 279.25,-20"/>
<text text-anchor="middle" x="259.25" y="-6.5" font-family="Helvetica,sans-Serif" font-size="10.00">string</text>
</a>
</g>
</g>
<!-- Node5&#45;&gt;Node6 -->
<g id="edge5_Node000005_Node000006" class="edge">
<title>Node5&#45;&gt;Node6</title>
<g id="a_edge5_Node000005_Node000006"><a xlink:title=" ">
<path fill="none" stroke="#63b8ff" d="M383.95,-55.59C357.69,-46.2 317.37,-31.79 289.73,-21.9"/>
<polygon fill="#63b8ff" stroke="#63b8ff" points="291.05,-18.3 280.46,-18.23 288.7,-24.89 291.05,-18.3"/>
</a>
</g>
</g>
<!-- Node7 -->
<g id="Node000007" class="node">
<title>Node7</title>
<g id="a_Node000007"><a xlink:title=" ">
<polygon fill="#e0e0e0" stroke="#999999" points="498,-20 444.5,-20 444.5,0 498,0 498,-20"/>
<text text-anchor="middle" x="471.25" y="-6.5" font-family="Helvetica,sans-Serif" font-size="10.00">iostream</text>
</a>
</g>
</g>
<!-- Node5&#45;&gt;Node7 -->
<g id="edge6_Node000005_Node000007" class="edge">
<title>Node5&#45;&gt;Node7</title>
<g id="a_edge6_Node000005_Node000007"><a xlink:title=" ">
<path fill="none" stroke="#63b8ff" d="M420.88,-55.59C429.62,-47.85 442.23,-36.69 452.65,-27.47"/>
<polygon fill="#63b8ff" stroke="#63b8ff" points="454.58,-30.55 459.75,-21.3 449.94,-25.31 454.58,-30.55"/>
</a>
</g>
</g>
<!-- Node8 -->
<g id="Node000008" class="node">
<title>Node8</title>
<g id="a_Node000008"><a xlink:title=" ">
<polygon fill="#e0e0e0" stroke="#999999" points="566.88,-20 515.62,-20 515.62,0 566.88,0 566.88,-20"/>
<text text-anchor="middle" x="541.25" y="-6.5" font-family="Helvetica,sans-Serif" font-size="10.00">sstream</text>
</a>
</g>
</g>
<!-- Node5&#45;&gt;Node8 -->
<g id="edge7_Node000005_Node000008" class="edge">
<title>Node5&#45;&gt;Node8</title>
<g id="a_edge7_Node000005_Node000008"><a xlink:title=" ">
<path fill="none" stroke="#63b8ff" d="M433.07,-55.59C453.89,-47.01 484.89,-34.23 508.38,-24.55"/>
<polygon fill="#63b8ff" stroke="#63b8ff" points="509.34,-27.53 517.25,-20.48 506.67,-21.05 509.34,-27.53"/>
</a>
</g>
</g>
<!-- Node9 -->
<g id="Node000009" class="node">
<title>Node9</title>
<g id="a_Node000009"><a xlink:title=" ">
<polygon fill="#e0e0e0" stroke="#999999" points="366.12,-20 304.38,-20 304.38,0 366.12,0 366.12,-20"/>
<text text-anchor="middle" x="335.25" y="-6.5" font-family="Helvetica,sans-Serif" font-size="10.00">sys/time.h</text>
</a>
</g>
</g>
<!-- Node5&#45;&gt;Node9 -->
<g id="edge8_Node000005_Node000009" class="edge">
<title>Node5&#45;&gt;Node9</title>
<g id="a_edge8_Node000005_Node000009"><a xlink:title=" ">
<path fill="none" stroke="#63b8ff" d="M397.19,-55.59C386.18,-47.67 370.19,-36.16 357.22,-26.82"/>
<polygon fill="#63b8ff" stroke="#63b8ff" points="359.58,-23.48 349.42,-20.48 355.49,-29.16 359.58,-23.48"/>
</a>
</g>
</g>
<!-- Node10 -->
<g id="Node000010" class="node">
<title>Node10</title>
<g id="a_Node000010"><a xlink:title=" ">
<polygon fill="#e0e0e0" stroke="#999999" points="426.75,-20 383.75,-20 383.75,0 426.75,0 426.75,-20"/>
<text text-anchor="middle" x="405.25" y="-6.5" font-family="Helvetica,sans-Serif" font-size="10.00">cmath</text>
</a>
</g>
</g>
<!-- Node5&#45;&gt;Node10 -->
<g id="edge9_Node000005_Node000010" class="edge">
<title>Node5&#45;&gt;Node10</title>
<g id="a_edge9_Node000005_Node000010"><a xlink:title=" ">
<path fill="none" stroke="#63b8ff" d="M409.38,-55.59C408.76,-48.86 407.89,-39.53 407.12,-31.15"/>
<polygon fill="#63b8ff" stroke="#63b8ff" points="410.52,-30.93 406.11,-21.3 403.55,-31.58 410.52,-30.93"/>
</a>
</g>
</g>
<!-- Node11 -->
<g id="Node000011" class="node">
<title>Node11</title>
<g id="a_Node000011"><a xlink:title=" ">
<polygon fill="#e0e0e0" stroke="#999999" points="631.75,-20 588.75,-20 588.75,0 631.75,0 631.75,-20"/>
<text text-anchor="middle" x="610.25" y="-6.5" font-family="Helvetica,sans-Serif" font-size="10.00">format</text>
</a>
</g>
</g>
<!-- Node5&#45;&gt;Node11 -->
<g id="edge10_Node000005_Node000011" class="edge">
<title>Node5&#45;&gt;Node11</title>
<g id="a_edge10_Node000005_Node000011"><a xlink:title=" ">
<path fill="none" stroke="#63b8ff" d="M445.09,-55.59C482.51,-45.49 541.51,-29.56 577.93,-19.73"/>
<polygon fill="#63b8ff" stroke="#63b8ff" points="578.72,-22.87 587.46,-16.88 576.89,-16.11 578.72,-22.87"/>
</a>
</g>
</g>
<!-- Node13 -->
<g id="Node000013" class="node">
<title>Node13</title>
<g id="a_Node000013"><a xlink:title=" ">
<polygon fill="#e0e0e0" stroke="#999999" points="711.62,-312 658.88,-312 658.88,-292 711.62,-292 711.62,-312"/>
<text text-anchor="middle" x="685.25" y="-298.5" font-family="Helvetica,sans-Serif" font-size="10.00">json.hpp</text>
</a>
</g>
</g>
<!-- Node12&#45;&gt;Node13 -->
<g id="edge12_Node000012_Node000013" class="edge">
<title>Node12&#45;&gt;Node13</title>
<g id="a_edge12_Node000012_Node000013"><a xlink:title=" ">
<path fill="none" stroke="#63b8ff" d="M601.02,-347.59C616.64,-339.32 639.64,-327.14 657.66,-317.6"/>
<polygon fill="#63b8ff" stroke="#63b8ff" points="659.14,-320.25 666.34,-312.48 655.87,-314.07 659.14,-320.25"/>
</a>
</g>
</g>
<!-- Node14 -->
<g id="Node000014" class="node">
<title>Node14</title>
<g id="a_Node000014"><a xlink:href="device__set_8hpp.html" target="_top" xlink:title="Заголовочный файл, содержащий в себе класс DeviceSet и набор констант, необходимых для данного класса...">
<polygon fill="white" stroke="#666666" points="641.12,-312 525.38,-312 525.38,-292 641.12,-292 641.12,-312"/>
<text text-anchor="middle" x="583.25" y="-298.5" font-family="Helvetica,sans-Serif" font-size="10.00">devices/device_set.hpp</text>
</a>
</g>
</g>
<!-- Node12&#45;&gt;Node14 -->
<g id="edge13_Node000012_Node000014" class="edge">
<title>Node12&#45;&gt;Node14</title>
<g id="a_edge13_Node000012_Node000014"><a xlink:title=" ">
<path fill="none" stroke="#63b8ff" d="M583.25,-347.59C583.25,-340.86 583.25,-331.53 583.25,-323.15"/>
<polygon fill="#63b8ff" stroke="#63b8ff" points="586.75,-323.3 583.25,-313.3 579.75,-323.3 586.75,-323.3"/>
</a>
</g>
</g>
<!-- Node15 -->
<g id="Node000015" class="node">
<title>Node15</title>
<g id="a_Node000015"><a xlink:title=" ">
<polygon fill="#e0e0e0" stroke="#999999" points="666.12,-256 610.38,-256 610.38,-236 666.12,-236 666.12,-256"/>
<text text-anchor="middle" x="638.25" y="-242.5" font-family="Helvetica,sans-Serif" font-size="10.00">algorithm</text>
</a>
</g>
</g>
<!-- Node14&#45;&gt;Node15 -->
<g id="edge14_Node000014_Node000015" class="edge">
<title>Node14&#45;&gt;Node15</title>
<g id="a_edge14_Node000014_Node000015"><a xlink:title=" ">
<path fill="none" stroke="#63b8ff" d="M592.83,-291.59C600.64,-283.93 611.86,-272.91 621.19,-263.75"/>
<polygon fill="#63b8ff" stroke="#63b8ff" points="623.1,-266.8 627.78,-257.3 618.19,-261.81 623.1,-266.8"/>
</a>
</g>
</g>
<!-- Node16 -->
<g id="Node000016" class="node">
<title>Node16</title>
<g id="a_Node000016"><a xlink:href="vna__device_8hpp.html" target="_top" xlink:title="Заголовочный файл, в котором реализован класс VnaDevice.">
<polygon fill="white" stroke="#666666" points="613.5,-194 515,-194 515,-174 613.5,-174 613.5,-194"/>
<text text-anchor="middle" x="564.25" y="-180.5" font-family="Helvetica,sans-Serif" font-size="10.00">vna/vna_device.hpp</text>
</a>
</g>
</g>
<!-- Node14&#45;&gt;Node16 -->
<g id="edge15_Node000014_Node000016" class="edge">
<title>Node14&#45;&gt;Node16</title>
<g id="a_edge15_Node000014_Node000016"><a xlink:title=" ">
<path fill="none" stroke="#63b8ff" d="M619.48,-291.55C651.98,-281.15 692.14,-262.34 675.25,-236 663.35,-217.44 642.82,-205.55 622.62,-197.96"/>
<polygon fill="#63b8ff" stroke="#63b8ff" points="624.05,-194.41 613.46,-194.48 621.78,-201.03 624.05,-194.41"/>
</a>
</g>
</g>
<!-- Node22 -->
<g id="Node000022" class="node">
<title>Node22</title>
<g id="a_Node000022"><a xlink:href="gen__device_8hpp.html" target="_top" xlink:title="Заголовочный файл, в котором представлен класс GenDevice и определён набор констант">
<polygon fill="white" stroke="#666666" points="819,-194 717.5,-194 717.5,-174 819,-174 819,-194"/>
<text text-anchor="middle" x="768.25" y="-180.5" font-family="Helvetica,sans-Serif" font-size="10.00">gen/gen_device.hpp</text>
</a>
</g>
</g>
<!-- Node14&#45;&gt;Node22 -->
<g id="edge23_Node000014_Node000022" class="edge">
<title>Node14&#45;&gt;Node22</title>
<g id="a_edge23_Node000014_Node000022"><a xlink:title=" ">
<path fill="none" stroke="#63b8ff" d="M641.41,-292.53C713.87,-281.69 829.02,-263.44 835.25,-256 852.35,-235.58 823.21,-213.48 798.16,-199.45"/>
<polygon fill="#63b8ff" stroke="#63b8ff" points="799.98,-195.93 789.51,-194.32 796.69,-202.1 799.98,-195.93"/>
</a>
</g>
</g>
<!-- Node23 -->
<g id="Node000023" class="node">
<title>Node23</title>
<g id="a_Node000023"><a xlink:href="rbd__device_8hpp.html" target="_top" xlink:title="Заголовочный файл, в котором реализован класс RbdDevice.">
<polygon fill="white" stroke="#666666" points="496.75,-194 399.75,-194 399.75,-174 496.75,-174 496.75,-194"/>
<text text-anchor="middle" x="448.25" y="-180.5" font-family="Helvetica,sans-Serif" font-size="10.00">rbd/rbd_device.hpp</text>
</a>
</g>
</g>
<!-- Node14&#45;&gt;Node23 -->
<g id="edge26_Node000014_Node000023" class="edge">
<title>Node14&#45;&gt;Node23</title>
<g id="a_edge26_Node000014_Node000023"><a xlink:title=" ">
<path fill="none" stroke="#63b8ff" d="M525.08,-294.55C499.74,-288.65 472.05,-277.4 455.25,-256 444.04,-241.71 443.37,-220.5 444.85,-204.98"/>
<polygon fill="#63b8ff" stroke="#63b8ff" points="448.4,-205.81 446.26,-195.44 441.47,-204.88 448.4,-205.81"/>
</a>
</g>
</g>
<!-- Node24 -->
<g id="Node000024" class="node">
<title>Node24</title>
<g id="a_Node000024"><a xlink:href="keysight__m9807a_8hpp.html" target="_top" xlink:title="Файл, в котором определён класс KeysightM9807A.">
<polygon fill="white" stroke="#666666" points="592.5,-256 464,-256 464,-236 592.5,-236 592.5,-256"/>
<text text-anchor="middle" x="528.25" y="-242.5" font-family="Helvetica,sans-Serif" font-size="10.00">vna/keysight_m9807a.hpp</text>
</a>
</g>
</g>
<!-- Node14&#45;&gt;Node24 -->
<g id="edge29_Node000014_Node000024" class="edge">
<title>Node14&#45;&gt;Node24</title>
<g id="a_edge29_Node000014_Node000024"><a xlink:title=" ">
<path fill="none" stroke="#63b8ff" d="M573.67,-291.59C565.86,-283.93 554.64,-272.91 545.31,-263.75"/>
<polygon fill="#63b8ff" stroke="#63b8ff" points="548.31,-261.81 538.72,-257.3 543.4,-266.8 548.31,-261.81"/>
</a>
</g>
</g>
<!-- Node25 -->
<g id="Node000025" class="node">
<title>Node25</title>
<g id="a_Node000025"><a xlink:href="planar__s50244_8h.html" target="_top" xlink:title="Файл, в котором определён класс PlanarS50244.">
<polygon fill="white" stroke="#666666" points="826.5,-256 722,-256 722,-236 826.5,-236 826.5,-256"/>
<text text-anchor="middle" x="774.25" y="-242.5" font-family="Helvetica,sans-Serif" font-size="10.00">vna/planar_s50244.h</text>
</a>
</g>
</g>
<!-- Node14&#45;&gt;Node25 -->
<g id="edge31_Node000014_Node000025" class="edge">
<title>Node14&#45;&gt;Node25</title>
<g id="a_edge31_Node000014_Node000025"><a xlink:title=" ">
<path fill="none" stroke="#63b8ff" d="M616.52,-291.59C648.1,-282.67 695.75,-269.19 730.41,-259.39"/>
<polygon fill="#63b8ff" stroke="#63b8ff" points="731.05,-262.57 739.72,-256.48 729.15,-255.83 731.05,-262.57"/>
</a>
</g>
</g>
<!-- Node26 -->
<g id="Node000026" class="node">
<title>Node26</title>
<g id="a_Node000026"><a xlink:href="keysight__gen_8hpp.html" target="_top" xlink:title="Заголовочный файл, в котором определён класс KeysightGen.">
<polygon fill="white" stroke="#666666" points="993.88,-256 882.62,-256 882.62,-236 993.88,-236 993.88,-256"/>
<text text-anchor="middle" x="938.25" y="-242.5" font-family="Helvetica,sans-Serif" font-size="10.00">gen/keysight_gen.hpp</text>
</a>
</g>
</g>
<!-- Node14&#45;&gt;Node26 -->
<g id="edge33_Node000014_Node000026" class="edge">
<title>Node14&#45;&gt;Node26</title>
<g id="a_edge33_Node000014_Node000026"><a xlink:title=" ">
<path fill="none" stroke="#63b8ff" d="M641.47,-292.14C704.64,-282.54 805.31,-267.22 871.6,-257.14"/>
<polygon fill="#63b8ff" stroke="#63b8ff" points="871.98,-260.47 881.34,-255.5 870.93,-253.55 871.98,-260.47"/>
</a>
</g>
</g>
<!-- Node27 -->
<g id="Node000027" class="node">
<title>Node27</title>
<g id="a_Node000027"><a xlink:href="demo__rdb_8hpp.html" target="_top" xlink:title="Заголовочный файл, в котором реализован класс DemoRbd.">
<polygon fill="white" stroke="#666666" points="296.25,-256 202.25,-256 202.25,-236 296.25,-236 296.25,-256"/>
<text text-anchor="middle" x="249.25" y="-242.5" font-family="Helvetica,sans-Serif" font-size="10.00">rbd/demo_rdb.hpp</text>
</a>
</g>
</g>
<!-- Node14&#45;&gt;Node27 -->
<g id="edge35_Node000014_Node000027" class="edge">
<title>Node14&#45;&gt;Node27</title>
<g id="a_edge35_Node000014_Node000027"><a xlink:title=" ">
<path fill="none" stroke="#63b8ff" d="M525.07,-291.59C463.89,-281.7 368.2,-266.23 307.13,-256.36"/>
<polygon fill="#63b8ff" stroke="#63b8ff" points="307.95,-252.78 297.52,-254.64 306.83,-259.69 307.95,-252.78"/>
</a>
</g>
</g>
<!-- Node30 -->
<g id="Node000030" class="node">
<title>Node30</title>
<g id="a_Node000030"><a xlink:href="tesart__rbd_8hpp.html" target="_top" xlink:title="Заголовочный файл, в котором определяется класс TesartRbd.">
<polygon fill="white" stroke="#666666" points="408.62,-256 313.88,-256 313.88,-236 408.62,-236 408.62,-256"/>
<text text-anchor="middle" x="361.25" y="-242.5" font-family="Helvetica,sans-Serif" font-size="10.00">rbd/tesart_rbd.hpp</text>
</a>
</g>
</g>
<!-- Node14&#45;&gt;Node30 -->
<g id="edge42_Node000014_Node000030" class="edge">
<title>Node14&#45;&gt;Node30</title>
<g id="a_edge42_Node000014_Node000030"><a xlink:title=" ">
<path fill="none" stroke="#63b8ff" d="M544.33,-291.53C507.19,-282.5 451.1,-268.85 410.79,-259.05"/>
<polygon fill="#63b8ff" stroke="#63b8ff" points="411.67,-255.42 401.13,-256.46 410.02,-262.22 411.67,-255.42"/>
</a>
</g>
</g>
<!-- Node17 -->
<g id="Node000017" class="node">
<title>Node17</title>
<g id="a_Node000017"><a xlink:href="visa__device_8hpp.html" target="_top" xlink:title="Заголовочный файл, в котором определены константы и класс VisaDevice.">
<polygon fill="white" stroke="#666666" points="610.5,-132 518,-132 518,-112 610.5,-112 610.5,-132"/>
<text text-anchor="middle" x="564.25" y="-118.5" font-family="Helvetica,sans-Serif" font-size="10.00">../visa_device.hpp</text>
</a>
</g>
</g>
<!-- Node16&#45;&gt;Node17 -->
<g id="edge16_Node000016_Node000017" class="edge">
<title>Node16&#45;&gt;Node17</title>
<g id="a_edge16_Node000016_Node000017"><a xlink:title=" ">
<path fill="none" stroke="#63b8ff" d="M564.25,-173.62C564.25,-165.48 564.25,-153.39 564.25,-143.07"/>
<polygon fill="#63b8ff" stroke="#63b8ff" points="567.75,-143.11 564.25,-133.11 560.75,-143.11 567.75,-143.11"/>
</a>
</g>
</g>
<!-- Node20 -->
<g id="Node000020" class="node">
<title>Node20</title>
<g id="a_Node000020"><a xlink:href="exceptions_8hpp.html" target="_top" xlink:title="Заголовочный файл, содержащий класс antestl_exsceptions, сообщения исключений и коды исключений">
<polygon fill="white" stroke="#666666" points="499.75,-132 378.75,-132 378.75,-112 499.75,-112 499.75,-132"/>
<text text-anchor="middle" x="439.25" y="-118.5" font-family="Helvetica,sans-Serif" font-size="10.00">../../utils/exceptions.hpp</text>
</a>
</g>
</g>
<!-- Node16&#45;&gt;Node20 -->
<g id="edge21_Node000016_Node000020" class="edge">
<title>Node16&#45;&gt;Node20</title>
<g id="a_edge21_Node000016_Node000020"><a xlink:title=" ">
<path fill="none" stroke="#63b8ff" d="M544.72,-173.62C524.26,-163.81 491.9,-148.27 468.42,-137"/>
<polygon fill="#63b8ff" stroke="#63b8ff" points="470.17,-133.48 459.64,-132.31 467.14,-139.79 470.17,-133.48"/>
</a>
</g>
</g>
<!-- Node21 -->
<g id="Node000021" class="node">
<title>Node21</title>
<g id="a_Node000021"><a xlink:title=" ">
<polygon fill="#e0e0e0" stroke="#999999" points="361,-132 319.5,-132 319.5,-112 361,-112 361,-132"/>
<text text-anchor="middle" x="340.25" y="-118.5" font-family="Helvetica,sans-Serif" font-size="10.00">vector</text>
</a>
</g>
</g>
<!-- Node16&#45;&gt;Node21 -->
<g id="edge22_Node000016_Node000021" class="edge">
<title>Node16&#45;&gt;Node21</title>
<g id="a_edge22_Node000016_Node000021"><a xlink:title=" ">
<path fill="none" stroke="#63b8ff" d="M527.29,-173.55C483.57,-162.33 412.4,-143.96 371.98,-132.68"/>
<polygon fill="#63b8ff" stroke="#63b8ff" points="373.02,-129.05 362.44,-129.7 371.11,-135.79 373.02,-129.05"/>
</a>
</g>
</g>
<!-- Node17&#45;&gt;Node5 -->
<g id="edge20_Node000017_Node000005" class="edge">
<title>Node17&#45;&gt;Node5</title>
<g id="a_edge20_Node000017_Node000005"><a xlink:title=" ">
<path fill="none" stroke="#63b8ff" d="M537.43,-111.59C512.51,-102.86 475.19,-89.77 447.42,-80.03"/>
<polygon fill="#63b8ff" stroke="#63b8ff" points="448.88,-76.49 438.28,-76.48 446.56,-83.09 448.88,-76.49"/>
</a>
</g>
</g>
<!-- Node17&#45;&gt;Node11 -->
<g id="edge17_Node000017_Node000011" class="edge">
<title>Node17&#45;&gt;Node11</title>
<g id="a_edge17_Node000017_Node000011"><a xlink:title=" ">
<path fill="none" stroke="#63b8ff" d="M571.09,-111.78C577.35,-102.98 586.48,-89.15 592.25,-76 598.66,-61.39 603.35,-43.91 606.33,-30.76"/>
<polygon fill="#63b8ff" stroke="#63b8ff" points="609.94,-31.62 608.59,-21.11 603.09,-30.17 609.94,-31.62"/>
</a>
</g>
</g>
<!-- Node18 -->
<g id="Node000018" class="node">
<title>Node18</title>
<g id="a_Node000018"><a xlink:title=" ">
<polygon fill="#e0e0e0" stroke="#999999" points="524.88,-76 479.62,-76 479.62,-56 524.88,-56 524.88,-76"/>
<text text-anchor="middle" x="502.25" y="-62.5" font-family="Helvetica,sans-Serif" font-size="10.00">cstring</text>
</a>
</g>
</g>
<!-- Node17&#45;&gt;Node18 -->
<g id="edge18_Node000017_Node000018" class="edge">
<title>Node17&#45;&gt;Node18</title>
<g id="a_edge18_Node000017_Node000018"><a xlink:title=" ">
<path fill="none" stroke="#63b8ff" d="M553.45,-111.59C544.56,-103.85 531.74,-92.69 521.16,-83.47"/>
<polygon fill="#63b8ff" stroke="#63b8ff" points="523.77,-80.23 513.93,-76.3 519.17,-85.51 523.77,-80.23"/>
</a>
</g>
</g>
<!-- Node19 -->
<g id="Node000019" class="node">
<title>Node19</title>
<g id="a_Node000019"><a xlink:title=" ">
<polygon fill="#e0e0e0" stroke="#999999" points="583.62,-76 542.88,-76 542.88,-56 583.62,-56 583.62,-76"/>
<text text-anchor="middle" x="563.25" y="-62.5" font-family="Helvetica,sans-Serif" font-size="10.00">visa.h</text>
</a>
</g>
</g>
<!-- Node17&#45;&gt;Node19 -->
<g id="edge19_Node000017_Node000019" class="edge">
<title>Node17&#45;&gt;Node19</title>
<g id="a_edge19_Node000017_Node000019"><a xlink:title=" ">
<path fill="none" stroke="#63b8ff" d="M564.08,-111.59C563.95,-104.86 563.78,-95.53 563.62,-87.15"/>
<polygon fill="#63b8ff" stroke="#63b8ff" points="567.11,-87.23 563.42,-77.3 560.11,-87.36 567.11,-87.23"/>
</a>
</g>
</g>
<!-- Node22&#45;&gt;Node17 -->
<g id="edge24_Node000022_Node000017" class="edge">
<title>Node22&#45;&gt;Node17</title>
<g id="a_edge24_Node000022_Node000017"><a xlink:title=" ">
<path fill="none" stroke="#63b8ff" d="M736.38,-173.62C701.45,-163.35 645.25,-146.82 606.63,-135.47"/>
<polygon fill="#63b8ff" stroke="#63b8ff" points="607.82,-131.87 597.24,-132.41 605.84,-138.59 607.82,-131.87"/>
</a>
</g>
</g>
<!-- Node22&#45;&gt;Node20 -->
<g id="edge25_Node000022_Node000020" class="edge">
<title>Node22&#45;&gt;Node20</title>
<g id="a_edge25_Node000022_Node000020"><a xlink:title=" ">
<path fill="none" stroke="#63b8ff" d="M717.2,-173.69C659.11,-163.1 564.2,-145.79 501.73,-134.4"/>
<polygon fill="#63b8ff" stroke="#63b8ff" points="502.7,-130.83 492.23,-132.48 501.44,-137.72 502.7,-130.83"/>
</a>
</g>
</g>
<!-- Node23&#45;&gt;Node17 -->
<g id="edge27_Node000023_Node000017" class="edge">
<title>Node23&#45;&gt;Node17</title>
<g id="a_edge27_Node000023_Node000017"><a xlink:title=" ">
<path fill="none" stroke="#63b8ff" d="M466.38,-173.62C485.19,-163.89 514.85,-148.55 536.59,-137.31"/>
<polygon fill="#63b8ff" stroke="#63b8ff" points="537.98,-140.01 545.25,-132.31 534.76,-133.79 537.98,-140.01"/>
</a>
</g>
</g>
<!-- Node23&#45;&gt;Node21 -->
<g id="edge28_Node000023_Node000021" class="edge">
<title>Node23&#45;&gt;Node21</title>
<g id="a_edge28_Node000023_Node000021"><a xlink:title=" ">
<path fill="none" stroke="#63b8ff" d="M431.38,-173.62C414.02,-163.98 386.74,-148.83 366.55,-137.61"/>
<polygon fill="#63b8ff" stroke="#63b8ff" points="368.45,-134.11 358.01,-132.31 365.05,-140.23 368.45,-134.11"/>
</a>
</g>
</g>
<!-- Node24&#45;&gt;Node16 -->
<g id="edge30_Node000024_Node000016" class="edge">
<title>Node24&#45;&gt;Node16</title>
<g id="a_edge30_Node000024_Node000016"><a xlink:title=" ">
<path fill="none" stroke="#63b8ff" d="M533.88,-235.62C539.03,-227.03 546.81,-214.07 553.21,-203.41"/>
<polygon fill="#63b8ff" stroke="#63b8ff" points="556.64,-205.49 558.78,-195.11 550.64,-201.89 556.64,-205.49"/>
</a>
</g>
</g>
<!-- Node25&#45;&gt;Node16 -->
<g id="edge32_Node000025_Node000016" class="edge">
<title>Node25&#45;&gt;Node16</title>
<g id="a_edge32_Node000025_Node000016"><a xlink:title=" ">
<path fill="none" stroke="#63b8ff" d="M741.44,-235.62C705.4,-225.33 647.39,-208.75 607.62,-197.39"/>
<polygon fill="#63b8ff" stroke="#63b8ff" points="608.75,-193.79 598.18,-194.41 606.83,-200.52 608.75,-193.79"/>
</a>
</g>
</g>
<!-- Node26&#45;&gt;Node22 -->
<g id="edge34_Node000026_Node000022" class="edge">
<title>Node26&#45;&gt;Node22</title>
<g id="a_edge34_Node000026_Node000022"><a xlink:title=" ">
<path fill="none" stroke="#63b8ff" d="M911.69,-235.62C883.08,-225.53 837.35,-209.39 805.23,-198.05"/>
<polygon fill="#63b8ff" stroke="#63b8ff" points="806.5,-194.44 795.91,-194.41 804.17,-201.04 806.5,-194.44"/>
</a>
</g>
</g>
<!-- Node27&#45;&gt;Node20 -->
<g id="edge38_Node000027_Node000020" class="edge">
<title>Node27&#45;&gt;Node20</title>
<g id="a_edge38_Node000027_Node000020"><a xlink:title=" ">
<path fill="none" stroke="#63b8ff" d="M258.03,-235.72C275.33,-217.57 313.5,-178.26 329.25,-168 350.1,-154.42 375.73,-143.64 397,-136.05"/>
<polygon fill="#63b8ff" stroke="#63b8ff" points="398.05,-139.04 406.36,-132.47 395.76,-132.43 398.05,-139.04"/>
</a>
</g>
</g>
<!-- Node27&#45;&gt;Node23 -->
<g id="edge37_Node000027_Node000023" class="edge">
<title>Node27&#45;&gt;Node23</title>
<g id="a_edge37_Node000027_Node000023"><a xlink:title=" ">
<path fill="none" stroke="#63b8ff" d="M280.34,-235.62C314.42,-225.35 369.23,-208.82 406.91,-197.47"/>
<polygon fill="#63b8ff" stroke="#63b8ff" points="407.48,-200.65 416.05,-194.41 405.46,-193.94 407.48,-200.65"/>
</a>
</g>
</g>
<!-- Node28 -->
<g id="Node000028" class="node">
<title>Node28</title>
<g id="a_Node000028"><a xlink:title=" ">
<polygon fill="#e0e0e0" stroke="#999999" points="381.75,-194 338.75,-194 338.75,-174 381.75,-174 381.75,-194"/>
<text text-anchor="middle" x="360.25" y="-180.5" font-family="Helvetica,sans-Serif" font-size="10.00">thread</text>
</a>
</g>
</g>
<!-- Node27&#45;&gt;Node28 -->
<g id="edge36_Node000027_Node000028" class="edge">
<title>Node27&#45;&gt;Node28</title>
<g id="a_edge36_Node000027_Node000028"><a xlink:title=" ">
<path fill="none" stroke="#63b8ff" d="M266.59,-235.62C284.51,-225.94 312.72,-210.69 333.5,-199.46"/>
<polygon fill="#63b8ff" stroke="#63b8ff" points="334.9,-202.14 342.03,-194.31 331.57,-195.99 334.9,-202.14"/>
</a>
</g>
</g>
<!-- Node29 -->
<g id="Node000029" class="node">
<title>Node29</title>
<g id="a_Node000029"><a xlink:href="string__utils_8hpp.html" target="_top" xlink:title="Заголовочный файл, в котором определено пространство имён string_utils.">
<polygon fill="white" stroke="#666666" points="281.75,-200 202.75,-200 202.75,-168 281.75,-168 281.75,-200"/>
<text text-anchor="start" x="210.75" y="-186.5" font-family="Helvetica,sans-Serif" font-size="10.00">../../utils/string</text>
<text text-anchor="middle" x="242.25" y="-174.5" font-family="Helvetica,sans-Serif" font-size="10.00">_utils.hpp</text>
</a>
</g>
</g>
<!-- Node27&#45;&gt;Node29 -->
<g id="edge39_Node000027_Node000029" class="edge">
<title>Node27&#45;&gt;Node29</title>
<g id="a_edge39_Node000027_Node000029"><a xlink:title=" ">
<path fill="none" stroke="#63b8ff" d="M248.16,-235.62C247.38,-228.95 246.29,-219.64 245.26,-210.82"/>
<polygon fill="#63b8ff" stroke="#63b8ff" points="248.65,-210.67 244.02,-201.14 241.7,-211.48 248.65,-210.67"/>
</a>
</g>
</g>
<!-- Node29&#45;&gt;Node6 -->
<g id="edge40_Node000029_Node000006" class="edge">
<title>Node29&#45;&gt;Node6</title>
<g id="a_edge40_Node000029_Node000006"><a xlink:title=" ">
<path fill="none" stroke="#63b8ff" d="M243.76,-167.74C246.84,-136.55 253.86,-65.56 257.29,-30.85"/>
<polygon fill="#63b8ff" stroke="#63b8ff" points="260.84,-31.51 258.34,-21.21 253.87,-30.82 260.84,-31.51"/>
</a>
</g>
</g>
<!-- Node29&#45;&gt;Node21 -->
<g id="edge41_Node000029_Node000021" class="edge">
<title>Node29&#45;&gt;Node21</title>
<g id="a_edge41_Node000029_Node000021"><a xlink:title=" ">
<path fill="none" stroke="#63b8ff" d="M267.49,-167.55C282.37,-158.43 301.12,-146.96 315.86,-137.93"/>
<polygon fill="#63b8ff" stroke="#63b8ff" points="317.18,-140.61 323.88,-132.41 313.53,-134.64 317.18,-140.61"/>
</a>
</g>
</g>
<!-- Node30&#45;&gt;Node23 -->
<g id="edge44_Node000030_Node000023" class="edge">
<title>Node30&#45;&gt;Node23</title>
<g id="a_edge44_Node000030_Node000023"><a xlink:title=" ">
<path fill="none" stroke="#63b8ff" d="M374.84,-235.62C388.51,-226.2 409.8,-211.52 425.94,-200.39"/>
<polygon fill="#63b8ff" stroke="#63b8ff" points="427.51,-202.87 433.75,-194.31 423.53,-197.11 427.51,-202.87"/>
</a>
</g>
</g>
<!-- Node30&#45;&gt;Node28 -->
<g id="edge43_Node000030_Node000028" class="edge">
<title>Node30&#45;&gt;Node28</title>
<g id="a_edge43_Node000030_Node000028"><a xlink:title=" ">
<path fill="none" stroke="#63b8ff" d="M361.09,-235.62C360.96,-227.48 360.76,-215.39 360.58,-205.07"/>
<polygon fill="#63b8ff" stroke="#63b8ff" points="364.07,-205.05 360.4,-195.11 357.07,-205.17 364.07,-205.05"/>
</a>
</g>
</g>
</g>
</svg>
