<?xml version="1.0" encoding="UTF-8" standalone="no"?>
<!DOCTYPE svg PUBLIC "-//W3C//DTD SVG 1.1//EN"
 "http://www.w3.org/Graphics/SVG/1.1/DTD/svg11.dtd">
<!-- Generated by graphviz version 8.0.5 (20230430.1635)
 -->
<!-- Title: task_server_thread_f Pages: 1 -->
<!--zoomable 292 -->

<svg id="main" version="1.1" xmlns="http://www.w3.org/2000/svg" xmlns:xlink="http://www.w3.org/1999/xlink" xml:space="preserve" onload="init(evt)">
<style type="text/css"><![CDATA[
.node, .edge {opacity: 0.7;}
.node.selected, .edge.selected {opacity: 1;}
.edge:hover path { stroke: red; }
.edge:hover polygon { stroke: red; fill: red; }
]]></style>

<defs>
  <circle id="rim" cx="0" cy="0" r="7"/>
  <circle id="rim2" cx="0" cy="0" r="3.5"/>
  <g id="zoomPlus">
    <use xlink:href="#rim" fill="#404040"><set attributeName="fill" to="#808080" begin="zoomplus.mouseover" end="zoomplus.mouseout"/></use>
    <path d="M-4,0h8M0,-4v8" fill="none" stroke="white" stroke-width="1.5" pointer-events="none"/>
  </g>
  <g id="zoomMin">
    <use xlink:href="#rim" fill="#404040"><set attributeName="fill" to="#808080" begin="zoomminus.mouseover" end="zoomminus.mouseout"/></use>
    <path d="M-4,0h8" fill="none" stroke="white" stroke-width="1.5" pointer-events="none"/>
  </g>
  <g id="arrowUp" transform="translate(30 24)">
    <use xlink:href="#rim"/>
    <path pointer-events="none" fill="none" stroke="white" stroke-width="1.5" d="M0,-3.0v7 M-2.5,-0.5L0,-3.0L2.5,-0.5"/>
  </g>
  <g id="arrowRight" transform="rotate(90) translate(36 -43)">
    <use xlink:href="#rim"/>
    <path pointer-events="none" fill="none" stroke="white" stroke-width="1.5" d="M0,-3.0v7 M-2.5,-0.5L0,-3.0L2.5,-0.5"/>
  </g>
  <g id="arrowDown" transform="rotate(180) translate(-30 -48)">
    <use xlink:href="#rim"/>
    <path pointer-events="none" fill="none" stroke="white" stroke-width="1.5" d="M0,-3.0v7 M-2.5,-0.5L0,-3.0L2.5,-0.5"/>
  </g>
  <g id="arrowLeft" transform="rotate(270) translate(-36 17)">
    <use xlink:href="#rim"/>
    <path pointer-events="none" fill="none" stroke="white" stroke-width="1.5" d="M0,-3.0v7 M-2.5,-0.5L0,-3.0L2.5,-0.5"/>
  </g>
  <g id="resetDef">
    <use xlink:href="#rim2" fill="#404040"><set attributeName="fill" to="#808080" begin="reset.mouseover" end="reset.mouseout"/></use>
  </g>
</defs>
<script type="application/ecmascript">
var viewWidth = 602;
var viewHeight = 292;
var sectionId = 'dynsection-1';
</script>
<script type="application/ecmascript" xlink:href="svg.min.js"/>
<svg id="graph" class="graph">
<g id="viewport">
<title>task_server_thread_f</title>
<!-- Node1 -->
<g id="Node000001" class="node">
<title>Node1</title>
<g id="a_Node000001"><a xlink:title="Приём данных от клиента и передача их потоку обработки">
<polygon fill="#999999" stroke="#666666" points="105.25,-164 0,-164 0,-144 105.25,-144 105.25,-164"/>
<text text-anchor="middle" x="52.62" y="-150.5" font-family="Helvetica,sans-Serif" font-size="10.00">task_server_thread_f</text>
</a>
</g>
</g>
<!-- Node2 -->
<g id="Node000002" class="node">
<title>Node2</title>
<g id="a_Node000002"><a xlink:href="class_socket_server.html#a44e1cd686d7580a28e3c840f726b4f80" target="_top" xlink:title="Метод, инициализирующий сокет">
<polygon fill="white" stroke="#666666" points="263,-284 156.25,-284 156.25,-264 263,-264 263,-284"/>
<text text-anchor="middle" x="209.62" y="-270.5" font-family="Helvetica,sans-Serif" font-size="10.00">SocketServer::create</text>
</a>
</g>
</g>
<!-- Node1&#45;&gt;Node2 -->
<g id="edge1_Node000001_Node000002" class="edge">
<title>Node1&#45;&gt;Node2</title>
<g id="a_edge1_Node000001_Node000002"><a xlink:title=" ">
<path fill="none" stroke="#63b8ff" d="M60.34,-164.2C73.59,-183.57 104.98,-225.89 141.25,-250 146.81,-253.7 153.02,-256.9 159.34,-259.66"/>
<polygon fill="#63b8ff" stroke="#63b8ff" points="157.73,-263.18 168.31,-263.62 160.31,-256.67 157.73,-263.18"/>
</a>
</g>
</g>
<!-- Node3 -->
<g id="Node000003" class="node">
<title>Node3</title>
<g id="a_Node000003"><a xlink:href="class_logger.html#af7709105c2708359b7b082218f4cc3e1" target="_top" xlink:title="Метод, осуществляющий логирование">
<polygon fill="white" stroke="#666666" points="406.88,-227 342.88,-227 342.88,-207 406.88,-207 406.88,-227"/>
<text text-anchor="middle" x="374.88" y="-213.5" font-family="Helvetica,sans-Serif" font-size="10.00">Logger::log</text>
</a>
</g>
</g>
<!-- Node1&#45;&gt;Node3 -->
<g id="edge7_Node000001_Node000003" class="edge">
<title>Node1&#45;&gt;Node3</title>
<g id="a_edge7_Node000001_Node000003"><a xlink:title=" ">
<path fill="none" stroke="#63b8ff" d="M63.22,-164.13C78.2,-179.11 108.79,-206.54 141.25,-217 205.13,-237.58 284.1,-231.44 331.65,-224.6"/>
<polygon fill="#63b8ff" stroke="#63b8ff" points="332.1,-227.92 341.46,-222.96 331.04,-221 332.1,-227.92"/>
</a>
</g>
</g>
<!-- Node8 -->
<g id="Node000008" class="node">
<title>Node8</title>
<g id="a_Node000008"><a xlink:href="class_socket_server.html#ac27110c965c4ba07f68ad3422506651c" target="_top" xlink:title="Чтение данных от клиента">
<polygon fill="white" stroke="#666666" points="270.88,-208 148.38,-208 148.38,-188 270.88,-188 270.88,-208"/>
<text text-anchor="middle" x="209.62" y="-194.5" font-family="Helvetica,sans-Serif" font-size="10.00">SocketServer::read_data</text>
</a>
</g>
</g>
<!-- Node1&#45;&gt;Node8 -->
<g id="edge8_Node000001_Node000008" class="edge">
<title>Node1&#45;&gt;Node8</title>
<g id="a_edge8_Node000001_Node000008"><a xlink:title=" ">
<path fill="none" stroke="#63b8ff" d="M90.28,-164.49C105.98,-168.97 124.51,-174.25 141.25,-179 147.7,-180.83 154.49,-182.75 161.18,-184.64"/>
<polygon fill="#63b8ff" stroke="#63b8ff" points="159.98,-188.22 170.55,-187.57 161.88,-181.48 159.98,-188.22"/>
</a>
</g>
</g>
<!-- Node9 -->
<g id="Node000009" class="node">
<title>Node9</title>
<g id="a_Node000009"><a xlink:href="class_task_manager.html#a738932cb7a94791e04e37c283c8a0a50" target="_top" xlink:title="Метод, проверяющий, принадлежит тип принятого задания типу TASK_TYPE_DISCONNECT.">
<polygon fill="white" stroke="#666666" points="267.5,-170 151.75,-170 151.75,-138 267.5,-138 267.5,-170"/>
<text text-anchor="start" x="159.75" y="-156.5" font-family="Helvetica,sans-Serif" font-size="10.00">TaskManager::received</text>
<text text-anchor="middle" x="209.62" y="-144.5" font-family="Helvetica,sans-Serif" font-size="10.00">_disconnect_task</text>
</a>
</g>
</g>
<!-- Node1&#45;&gt;Node9 -->
<g id="edge10_Node000001_Node000009" class="edge">
<title>Node1&#45;&gt;Node9</title>
<g id="a_edge10_Node000001_Node000009"><a xlink:title=" ">
<path fill="none" stroke="#63b8ff" d="M105.67,-154C116.91,-154 128.96,-154 140.71,-154"/>
<polygon fill="#63b8ff" stroke="#63b8ff" points="140.39,-157.5 150.39,-154 140.39,-150.5 140.39,-157.5"/>
</a>
</g>
</g>
<!-- Node10 -->
<g id="Node000010" class="node">
<title>Node10</title>
<g id="a_Node000010"><a xlink:href="class_task_manager.html#a55032bf51c0426d8df0477991e46d9f7" target="_top" xlink:title="Метод, проверяющий, принадлежит тип принятого задания типу TASK_TYPE_STOP.">
<polygon fill="white" stroke="#666666" points="267.5,-120 151.75,-120 151.75,-88 267.5,-88 267.5,-120"/>
<text text-anchor="start" x="159.75" y="-106.5" font-family="Helvetica,sans-Serif" font-size="10.00">TaskManager::received</text>
<text text-anchor="middle" x="209.62" y="-94.5" font-family="Helvetica,sans-Serif" font-size="10.00">_stop_task</text>
</a>
</g>
</g>
<!-- Node1&#45;&gt;Node10 -->
<g id="edge11_Node000001_Node000010" class="edge">
<title>Node1&#45;&gt;Node10</title>
<g id="a_edge11_Node000001_Node000010"><a xlink:title=" ">
<path fill="none" stroke="#63b8ff" d="M86.12,-143.52C103.81,-137.81 126.3,-130.56 147.16,-123.83"/>
<polygon fill="#63b8ff" stroke="#63b8ff" points="148.12,-126.87 156.56,-120.47 145.97,-120.21 148.12,-126.87"/>
</a>
</g>
</g>
<!-- Node11 -->
<g id="Node000011" class="node">
<title>Node11</title>
<g id="a_Node000011"><a xlink:href="class_task_manager.html#a601272b5c895a310aec3d430b19c6258" target="_top" xlink:title="Присваивает флагу stop_request значение true, тем самым, останавливая процес измерения">
<polygon fill="white" stroke="#666666" points="278,-20 141.25,-20 141.25,0 278,0 278,-20"/>
<text text-anchor="middle" x="209.62" y="-6.5" font-family="Helvetica,sans-Serif" font-size="10.00">TaskManager::request_stop</text>
</a>
</g>
</g>
<!-- Node1&#45;&gt;Node11 -->
<g id="edge12_Node000001_Node000011" class="edge">
<title>Node1&#45;&gt;Node11</title>
<g id="a_edge12_Node000001_Node000011"><a xlink:title=" ">
<path fill="none" stroke="#63b8ff" d="M57.85,-143.8C68.27,-119.9 97.59,-59.98 141.25,-29 143.22,-27.6 145.3,-26.3 147.44,-25.1"/>
<polygon fill="#63b8ff" stroke="#63b8ff" points="148.72,-27.89 156.24,-20.42 145.7,-21.57 148.72,-27.89"/>
</a>
</g>
</g>
<!-- Node13 -->
<g id="Node000013" class="node">
<title>Node13</title>
<g id="a_Node000013"><a xlink:href="class_socket_server.html#a47b8a318ef73faa660aa0f2b99225197" target="_top" xlink:title="Метод, ожидающий подключение клиента">
<polygon fill="white" stroke="#666666" points="258.12,-70 161.12,-70 161.12,-38 258.12,-38 258.12,-70"/>
<text text-anchor="start" x="169.12" y="-56.5" font-family="Helvetica,sans-Serif" font-size="10.00">SocketServer::wait</text>
<text text-anchor="middle" x="209.62" y="-44.5" font-family="Helvetica,sans-Serif" font-size="10.00">_client</text>
</a>
</g>
</g>
<!-- Node1&#45;&gt;Node13 -->
<g id="edge14_Node000001_Node000013" class="edge">
<title>Node1&#45;&gt;Node13</title>
<g id="a_edge14_Node000001_Node000013"><a xlink:title=" ">
<path fill="none" stroke="#63b8ff" d="M63.23,-143.71C78.46,-127.92 109.66,-97.58 141.25,-79 144.41,-77.14 147.73,-75.38 151.14,-73.72"/>
<polygon fill="#63b8ff" stroke="#63b8ff" points="152.23,-76.61 159.9,-69.3 149.34,-70.24 152.23,-76.61"/>
</a>
</g>
</g>
<!-- Node2&#45;&gt;Node3 -->
<g id="edge2_Node000002_Node000003" class="edge">
<title>Node2&#45;&gt;Node3</title>
<g id="a_edge2_Node000002_Node000003"><a xlink:title=" ">
<path fill="none" stroke="#63b8ff" d="M240.57,-263.55C266.72,-254.41 304.9,-241.08 333.7,-231.03"/>
<polygon fill="#63b8ff" stroke="#63b8ff" points="334.56,-234.09 342.85,-227.48 332.25,-227.48 334.56,-234.09"/>
</a>
</g>
</g>
<!-- Node4 -->
<g id="Node000004" class="node">
<title>Node4</title>
<g id="a_Node000004"><a xlink:href="logger_8hpp.html#a49284b7befa8e31f81e01ee8f3735dd0" target="_top" xlink:title="Функция, которая снимает значение текущего времени и конвертирует его в строку с заданным шаблоном.">
<polygon fill="white" stroke="#666666" points="577.38,-284 488.62,-284 488.62,-264 577.38,-264 577.38,-284"/>
<text text-anchor="middle" x="533" y="-270.5" font-family="Helvetica,sans-Serif" font-size="10.00">get_current_time</text>
</a>
</g>
</g>
<!-- Node3&#45;&gt;Node4 -->
<g id="edge3_Node000003_Node000004" class="edge">
<title>Node3&#45;&gt;Node4</title>
<g id="a_edge3_Node000003_Node000004"><a xlink:title=" ">
<path fill="none" stroke="#63b8ff" d="M400.92,-227.5C420.16,-235.42 447.46,-246.37 471.75,-255 476.79,-256.79 482.09,-258.59 487.38,-260.32"/>
<polygon fill="#63b8ff" stroke="#63b8ff" points="485.86,-263.83 496.45,-263.57 488,-257.17 485.86,-263.83"/>
</a>
</g>
</g>
<!-- Node5 -->
<g id="Node000005" class="node">
<title>Node5</title>
<g id="a_Node000005"><a xlink:href="class_logger.html#a6edb7b263f080d417b82a537ed50fee4" target="_top" xlink:title="Возвращает тег в зависимости от уровня логирования и от назначения тега.">
<polygon fill="white" stroke="#666666" points="574.75,-246 491.25,-246 491.25,-226 574.75,-226 574.75,-246"/>
<text text-anchor="middle" x="533" y="-232.5" font-family="Helvetica,sans-Serif" font-size="10.00">Logger::get_tag</text>
</a>
</g>
</g>
<!-- Node3&#45;&gt;Node5 -->
<g id="edge4_Node000003_Node000005" class="edge">
<title>Node3&#45;&gt;Node5</title>
<g id="a_edge4_Node000003_Node000005"><a xlink:title=" ">
<path fill="none" stroke="#63b8ff" d="M407.09,-220.8C427.93,-223.33 455.83,-226.73 479.98,-229.67"/>
<polygon fill="#63b8ff" stroke="#63b8ff" points="479.42,-233.25 489.77,-230.98 480.26,-226.3 479.42,-233.25"/>
</a>
</g>
</g>
<!-- Node6 -->
<g id="Node000006" class="node">
<title>Node6</title>
<g id="a_Node000006"><a xlink:href="class_logger.html#a4825613142ebb093bf8fa26f21f7f3fc" target="_top" xlink:title="Метод, который выводит сообщение в консоль.">
<polygon fill="white" stroke="#666666" points="594.25,-208 471.75,-208 471.75,-188 594.25,-188 594.25,-208"/>
<text text-anchor="middle" x="533" y="-194.5" font-family="Helvetica,sans-Serif" font-size="10.00">Logger::print_to_console</text>
</a>
</g>
</g>
<!-- Node3&#45;&gt;Node6 -->
<g id="edge5_Node000003_Node000006" class="edge">
<title>Node3&#45;&gt;Node6</title>
<g id="a_edge5_Node000003_Node000006"><a xlink:title=" ">
<path fill="none" stroke="#63b8ff" d="M407.09,-213.2C422.56,-211.32 441.93,-208.96 460.76,-206.67"/>
<polygon fill="#63b8ff" stroke="#63b8ff" points="460.94,-210.05 470.45,-205.37 460.1,-203.1 460.94,-210.05"/>
</a>
</g>
</g>
<!-- Node7 -->
<g id="Node000007" class="node">
<title>Node7</title>
<g id="a_Node000007"><a xlink:href="class_logger.html#a999bb33f7cf079cb98f32fae6016a2f3" target="_top" xlink:title="Метод, который записывает сообщение в файл.">
<polygon fill="white" stroke="#666666" points="583.38,-170 482.62,-170 482.62,-150 583.38,-150 583.38,-170"/>
<text text-anchor="middle" x="533" y="-156.5" font-family="Helvetica,sans-Serif" font-size="10.00">Logger::print_to_file</text>
</a>
</g>
</g>
<!-- Node3&#45;&gt;Node7 -->
<g id="edge6_Node000003_Node000007" class="edge">
<title>Node3&#45;&gt;Node7</title>
<g id="a_edge6_Node000003_Node000007"><a xlink:title=" ">
<path fill="none" stroke="#63b8ff" d="M400.92,-206.5C420.16,-198.58 447.46,-187.63 471.75,-179 476.79,-177.21 482.09,-175.41 487.38,-173.68"/>
<polygon fill="#63b8ff" stroke="#63b8ff" points="488,-176.83 496.45,-170.43 485.86,-170.17 488,-176.83"/>
</a>
</g>
</g>
<!-- Node8&#45;&gt;Node3 -->
<g id="edge9_Node000008_Node000003" class="edge">
<title>Node8&#45;&gt;Node3</title>
<g id="a_edge9_Node000008_Node000003"><a xlink:title=" ">
<path fill="none" stroke="#63b8ff" d="M270.95,-205.02C291.2,-207.38 313.34,-209.95 331.87,-212.11"/>
<polygon fill="#63b8ff" stroke="#63b8ff" points="331.28,-215.68 341.61,-213.36 332.08,-208.73 331.28,-215.68"/>
</a>
</g>
</g>
<!-- Node12 -->
<g id="Node000012" class="node">
<title>Node12</title>
<g id="a_Node000012"><a xlink:href="class_device_set.html#a9b806652a49bcc00d4fe635235c9596d" target="_top" xlink:title="Присваивает флагу stop_request значение true, тем самым, останавливая процес измерения">
<polygon fill="white" stroke="#666666" points="435.75,-20 314,-20 314,0 435.75,0 435.75,-20"/>
<text text-anchor="middle" x="374.88" y="-6.5" font-family="Helvetica,sans-Serif" font-size="10.00">DeviceSet::request_stop</text>
</a>
</g>
</g>
<!-- Node11&#45;&gt;Node12 -->
<g id="edge13_Node000011_Node000012" class="edge">
<title>Node11&#45;&gt;Node12</title>
<g id="a_edge13_Node000011_Node000012"><a xlink:title=" ">
<path fill="none" stroke="#63b8ff" d="M278.44,-10C286.45,-10 294.64,-10 302.7,-10"/>
<polygon fill="#63b8ff" stroke="#63b8ff" points="302.57,-13.5 312.57,-10 302.57,-6.5 302.57,-13.5"/>
</a>
</g>
</g>
<!-- Node13&#45;&gt;Node3 -->
<g id="edge15_Node000013_Node000003" class="edge">
<title>Node13&#45;&gt;Node3</title>
<g id="a_edge15_Node000013_Node000003"><a xlink:title=" ">
<path fill="none" stroke="#63b8ff" d="M258.58,-67.62C265.47,-70.73 272.18,-74.49 278,-79 319.89,-111.47 350.61,-167.36 364.92,-197.08"/>
<polygon fill="#63b8ff" stroke="#63b8ff" points="362.03,-198.17 369.44,-205.74 368.37,-195.2 362.03,-198.17"/>
</a>
</g>
</g>
</g>
</svg>

<g id="navigator" transform="translate(0 0)" fill="#404254">
  <rect fill="#f2f5e9" fill-opacity="0.5" stroke="#606060" stroke-width=".5" x="0" y="0" width="60" height="60"/>
  <use id="zoomplus" xlink:href="#zoomPlus" x="17" y="9" onmousedown="handleZoom(evt,'in')"/>
  <use id="zoomminus" xlink:href="#zoomMin" x="42" y="9" onmousedown="handleZoom(evt,'out')"/>
  <use id="reset" xlink:href="#resetDef" x="30" y="36" onmousedown="handleReset()"/>
   <use id="arrowup" xlink:href="#arrowUp" x="0" y="0" onmousedown="handlePan(0,-1)"/>
  <use id="arrowright" xlink:href="#arrowRight" x="0" y="0" onmousedown="handlePan(1,0)"/>
  <use id="arrowdown" xlink:href="#arrowDown" x="0" y="0" onmousedown="handlePan(0,1)"/>
  <use id="arrowleft" xlink:href="#arrowLeft" x="0" y="0" onmousedown="handlePan(-1,0)"/>
</g>
<svg viewBox="0 0 15 15" width="100%" height="30px" preserveAspectRatio="xMaxYMin meet">
 <g id="arrow_out" transform="scale(0.3 0.3)">
  <a xlink:href="main_8cpp_aef72d10ff26fe620d5f0a0f8412d7a2b_cgraph_org.svg" target="_base">
   <rect id="button" ry="5" rx="5" y="6" x="6" height="38" width="38"
        fill="#f2f5e9" fill-opacity="0.5" stroke="#606060" stroke-width="1.0"/>
   <path id="arrow"
     d="M 11.500037,31.436501 C 11.940474,20.09759 22.043105,11.32322 32.158766,21.979434 L 37.068811,17.246167 C 37.068811,17.246167 37.088388,32 37.088388,32 L 22.160133,31.978069 C 22.160133,31.978069 26.997745,27.140456 26.997745,27.140456 C 18.528582,18.264221 13.291696,25.230495 11.500037,31.436501 z"
     style="fill:#404040;"/>
  </a>
 </g>
</svg>

<style type='text/css'>
<![CDATA[
[data-mouse-over-selected='false'] { opacity: 0.7; }
[data-mouse-over-selected='true']  { opacity: 1.0; }
]]>
</style>
<script type="application/ecmascript"><![CDATA[
document.addEventListener('DOMContentLoaded', (event) => {
  highlightEdges();
  highlightAdjacentNodes();
});
]]></script>
</svg>
