<?xml version="1.0" encoding="UTF-8" standalone="no"?>
<!DOCTYPE svg PUBLIC "-//W3C//DTD SVG 1.1//EN"
 "http://www.w3.org/Graphics/SVG/1.1/DTD/svg11.dtd">
<!-- Generated by graphviz version 8.0.5 (20230430.1635)
 -->
<!-- Title: src/main.cpp Pages: 1 -->
<!--zoomable 420 -->

<svg id="main" version="1.1" xmlns="http://www.w3.org/2000/svg" xmlns:xlink="http://www.w3.org/1999/xlink" xml:space="preserve" onload="init(evt)">
<style type="text/css"><![CDATA[
.node, .edge {opacity: 0.7;}
.node.selected, .edge.selected {opacity: 1;}
.edge:hover path { stroke: red; }
.edge:hover polygon { stroke: red; fill: red; }
]]></style>

<defs>
  <circle id="rim" cx="0" cy="0" r="7"/>
  <circle id="rim2" cx="0" cy="0" r="3.5"/>
  <g id="zoomPlus">
    <use xlink:href="#rim" fill="#404040"><set attributeName="fill" to="#808080" begin="zoomplus.mouseover" end="zoomplus.mouseout"/></use>
    <path d="M-4,0h8M0,-4v8" fill="none" stroke="white" stroke-width="1.5" pointer-events="none"/>
  </g>
  <g id="zoomMin">
    <use xlink:href="#rim" fill="#404040"><set attributeName="fill" to="#808080" begin="zoomminus.mouseover" end="zoomminus.mouseout"/></use>
    <path d="M-4,0h8" fill="none" stroke="white" stroke-width="1.5" pointer-events="none"/>
  </g>
  <g id="arrowUp" transform="translate(30 24)">
    <use xlink:href="#rim"/>
    <path pointer-events="none" fill="none" stroke="white" stroke-width="1.5" d="M0,-3.0v7 M-2.5,-0.5L0,-3.0L2.5,-0.5"/>
  </g>
  <g id="arrowRight" transform="rotate(90) translate(36 -43)">
    <use xlink:href="#rim"/>
    <path pointer-events="none" fill="none" stroke="white" stroke-width="1.5" d="M0,-3.0v7 M-2.5,-0.5L0,-3.0L2.5,-0.5"/>
  </g>
  <g id="arrowDown" transform="rotate(180) translate(-30 -48)">
    <use xlink:href="#rim"/>
    <path pointer-events="none" fill="none" stroke="white" stroke-width="1.5" d="M0,-3.0v7 M-2.5,-0.5L0,-3.0L2.5,-0.5"/>
  </g>
  <g id="arrowLeft" transform="rotate(270) translate(-36 17)">
    <use xlink:href="#rim"/>
    <path pointer-events="none" fill="none" stroke="white" stroke-width="1.5" d="M0,-3.0v7 M-2.5,-0.5L0,-3.0L2.5,-0.5"/>
  </g>
  <g id="resetDef">
    <use xlink:href="#rim2" fill="#404040"><set attributeName="fill" to="#808080" begin="reset.mouseover" end="reset.mouseout"/></use>
  </g>
</defs>
<script type="application/ecmascript">
var viewWidth = 769;
var viewHeight = 420;
var sectionId = 'dynsection-0';
</script>
<script type="application/ecmascript" xlink:href="svg.min.js"/>
<svg id="graph" class="graph">
<g id="viewport">
<title>src/main.cpp</title>
<!-- Node1 -->
<g id="Node000001" class="node">
<title>Node1</title>
<g id="a_Node000001"><a xlink:title=" ">
<polygon fill="#999999" stroke="#666666" points="210.38,-412 138.12,-412 138.12,-392 210.38,-392 210.38,-412"/>
<text text-anchor="middle" x="174.25" y="-398.5" font-family="Helvetica,sans-Serif" font-size="10.00">src/main.cpp</text>
</a>
</g>
</g>
<!-- Node2 -->
<g id="Node000002" class="node">
<title>Node2</title>
<g id="a_Node000002"><a xlink:title=" ">
<polygon fill="#e0e0e0" stroke="#999999" points="92.5,-356 0,-356 0,-336 92.5,-336 92.5,-356"/>
<text text-anchor="middle" x="46.25" y="-342.5" font-family="Helvetica,sans-Serif" font-size="10.00">condition_variable</text>
</a>
</g>
</g>
<!-- Node1&#45;&gt;Node2 -->
<g id="edge1_Node000001_Node000002" class="edge">
<title>Node1&#45;&gt;Node2</title>
<g id="a_edge1_Node000001_Node000002"><a xlink:title=" ">
<path fill="none" stroke="#63b8ff" d="M151.95,-391.59C131.71,-383.05 101.59,-370.35 78.68,-360.68"/>
<polygon fill="#63b8ff" stroke="#63b8ff" points="80.29,-357.14 69.72,-356.48 77.57,-363.59 80.29,-357.14"/>
</a>
</g>
</g>
<!-- Node3 -->
<g id="Node000003" class="node">
<title>Node3</title>
<g id="a_Node000003"><a xlink:href="socket__server_8hpp.html" target="_top" xlink:title="Заголовочный файл, в котором объявляются класс SocketServer и необходимые константы">
<polygon fill="white" stroke="#666666" points="237.75,-356 110.75,-356 110.75,-336 237.75,-336 237.75,-356"/>
<text text-anchor="middle" x="174.25" y="-342.5" font-family="Helvetica,sans-Serif" font-size="10.00">socket/socket_server.hpp</text>
</a>
</g>
</g>
<!-- Node1&#45;&gt;Node3 -->
<g id="edge2_Node000001_Node000003" class="edge">
<title>Node1&#45;&gt;Node3</title>
<g id="a_edge2_Node000001_Node000003"><a xlink:title=" ">
<path fill="none" stroke="#63b8ff" d="M174.25,-391.59C174.25,-384.86 174.25,-375.53 174.25,-367.15"/>
<polygon fill="#63b8ff" stroke="#63b8ff" points="177.75,-367.3 174.25,-357.3 170.75,-367.3 177.75,-367.3"/>
</a>
</g>
</g>
<!-- Node12 -->
<g id="Node000012" class="node">
<title>Node12</title>
<g id="a_Node000012"><a xlink:href="task__manager_8hpp.html" target="_top" xlink:title=" ">
<polygon fill="white" stroke="#666666" points="537.38,-356 441.12,-356 441.12,-336 537.38,-336 537.38,-356"/>
<text text-anchor="middle" x="489.25" y="-342.5" font-family="Helvetica,sans-Serif" font-size="10.00">task_manager.hpp</text>
</a>
</g>
</g>
<!-- Node1&#45;&gt;Node12 -->
<g id="edge11_Node000001_Node000012" class="edge">
<title>Node1&#45;&gt;Node12</title>
<g id="a_edge11_Node000001_Node000012"><a xlink:title=" ">
<path fill="none" stroke="#63b8ff" d="M210.69,-394.75C264.43,-385.54 365.5,-368.21 429.99,-357.16"/>
<polygon fill="#63b8ff" stroke="#63b8ff" points="430.54,-360.44 439.8,-355.31 429.36,-353.55 430.54,-360.44"/>
</a>
</g>
</g>
<!-- Node4 -->
<g id="Node000004" class="node">
<title>Node4</title>
<g id="a_Node000004"><a xlink:title=" ">
<polygon fill="#e0e0e0" stroke="#999999" points="146.62,-300 81.88,-300 81.88,-280 146.62,-280 146.62,-300"/>
<text text-anchor="middle" x="114.25" y="-286.5" font-family="Helvetica,sans-Serif" font-size="10.00">winsock2.h</text>
</a>
</g>
</g>
<!-- Node3&#45;&gt;Node4 -->
<g id="edge3_Node000003_Node000004" class="edge">
<title>Node3&#45;&gt;Node4</title>
<g id="a_edge3_Node000003_Node000004"><a xlink:title=" ">
<path fill="none" stroke="#63b8ff" d="M163.8,-335.59C155.2,-327.85 142.79,-316.69 132.55,-307.47"/>
<polygon fill="#63b8ff" stroke="#63b8ff" points="135.36,-305.39 125.58,-301.3 130.67,-310.59 135.36,-305.39"/>
</a>
</g>
</g>
<!-- Node5 -->
<g id="Node000005" class="node">
<title>Node5</title>
<g id="a_Node000005"><a xlink:href="logger_8hpp.html" target="_top" xlink:title="Библиотека, осуществляющая логирование">
<polygon fill="white" stroke="#666666" points="293.75,-76 202.75,-76 202.75,-56 293.75,-56 293.75,-76"/>
<text text-anchor="middle" x="248.25" y="-62.5" font-family="Helvetica,sans-Serif" font-size="10.00">../utils/logger.hpp</text>
</a>
</g>
</g>
<!-- Node3&#45;&gt;Node5 -->
<g id="edge4_Node000003_Node000005" class="edge">
<title>Node3&#45;&gt;Node5</title>
<g id="a_edge4_Node000003_Node000005"><a xlink:title=" ">
<path fill="none" stroke="#63b8ff" d="M174.25,-335.58C174.25,-316.57 174.25,-272.24 174.25,-235 174.25,-235 174.25,-235 174.25,-177 174.25,-138.39 206.02,-103.15 227.93,-83.44"/>
<polygon fill="#63b8ff" stroke="#63b8ff" points="229.75,-85.63 235.03,-76.44 225.17,-80.33 229.75,-85.63"/>
</a>
</g>
</g>
<!-- Node6 -->
<g id="Node000006" class="node">
<title>Node6</title>
<g id="a_Node000006"><a xlink:title=" ">
<polygon fill="#e0e0e0" stroke="#999999" points="236.25,-20 196.25,-20 196.25,0 236.25,0 236.25,-20"/>
<text text-anchor="middle" x="216.25" y="-6.5" font-family="Helvetica,sans-Serif" font-size="10.00">string</text>
</a>
</g>
</g>
<!-- Node5&#45;&gt;Node6 -->
<g id="edge5_Node000005_Node000006" class="edge">
<title>Node5&#45;&gt;Node6</title>
<g id="a_edge5_Node000005_Node000006"><a xlink:title=" ">
<path fill="none" stroke="#63b8ff" d="M242.68,-55.59C238.45,-48.47 232.52,-38.45 227.34,-29.72"/>
<polygon fill="#63b8ff" stroke="#63b8ff" points="229.87,-28.12 221.76,-21.3 223.85,-31.69 229.87,-28.12"/>
</a>
</g>
</g>
<!-- Node7 -->
<g id="Node000007" class="node">
<title>Node7</title>
<g id="a_Node000007"><a xlink:title=" ">
<polygon fill="#e0e0e0" stroke="#999999" points="308,-20 254.5,-20 254.5,0 308,0 308,-20"/>
<text text-anchor="middle" x="281.25" y="-6.5" font-family="Helvetica,sans-Serif" font-size="10.00">iostream</text>
</a>
</g>
</g>
<!-- Node5&#45;&gt;Node7 -->
<g id="edge6_Node000005_Node000007" class="edge">
<title>Node5&#45;&gt;Node7</title>
<g id="a_edge6_Node000005_Node000007"><a xlink:title=" ">
<path fill="none" stroke="#63b8ff" d="M254,-55.59C258.4,-48.39 264.61,-38.23 269.99,-29.43"/>
<polygon fill="#63b8ff" stroke="#63b8ff" points="273.34,-31.66 275.57,-21.3 267.37,-28.01 273.34,-31.66"/>
</a>
</g>
</g>
<!-- Node8 -->
<g id="Node000008" class="node">
<title>Node8</title>
<g id="a_Node000008"><a xlink:title=" ">
<polygon fill="#e0e0e0" stroke="#999999" points="376.88,-20 325.62,-20 325.62,0 376.88,0 376.88,-20"/>
<text text-anchor="middle" x="351.25" y="-6.5" font-family="Helvetica,sans-Serif" font-size="10.00">sstream</text>
</a>
</g>
</g>
<!-- Node5&#45;&gt;Node8 -->
<g id="edge7_Node000005_Node000008" class="edge">
<title>Node5&#45;&gt;Node8</title>
<g id="a_edge7_Node000005_Node000008"><a xlink:title=" ">
<path fill="none" stroke="#63b8ff" d="M266.19,-55.59C282.05,-47.28 305.41,-35.03 323.65,-25.47"/>
<polygon fill="#63b8ff" stroke="#63b8ff" points="324.94,-28.22 332.17,-20.48 321.69,-22.02 324.94,-28.22"/>
</a>
</g>
</g>
<!-- Node9 -->
<g id="Node000009" class="node">
<title>Node9</title>
<g id="a_Node000009"><a xlink:title=" ">
<polygon fill="#e0e0e0" stroke="#999999" points="117.12,-20 55.38,-20 55.38,0 117.12,0 117.12,-20"/>
<text text-anchor="middle" x="86.25" y="-6.5" font-family="Helvetica,sans-Serif" font-size="10.00">sys/time.h</text>
</a>
</g>
</g>
<!-- Node5&#45;&gt;Node9 -->
<g id="edge8_Node000005_Node000009" class="edge">
<title>Node5&#45;&gt;Node9</title>
<g id="a_edge8_Node000005_Node000009"><a xlink:title=" ">
<path fill="none" stroke="#63b8ff" d="M220.03,-55.59C193.71,-46.82 154.22,-33.66 124.96,-23.9"/>
<polygon fill="#63b8ff" stroke="#63b8ff" points="126.28,-20.32 115.69,-20.48 124.07,-26.96 126.28,-20.32"/>
</a>
</g>
</g>
<!-- Node10 -->
<g id="Node000010" class="node">
<title>Node10</title>
<g id="a_Node000010"><a xlink:title=" ">
<polygon fill="#e0e0e0" stroke="#999999" points="177.75,-20 134.75,-20 134.75,0 177.75,0 177.75,-20"/>
<text text-anchor="middle" x="156.25" y="-6.5" font-family="Helvetica,sans-Serif" font-size="10.00">cmath</text>
</a>
</g>
</g>
<!-- Node5&#45;&gt;Node10 -->
<g id="edge9_Node000005_Node000010" class="edge">
<title>Node5&#45;&gt;Node10</title>
<g id="a_edge9_Node000005_Node000010"><a xlink:title=" ">
<path fill="none" stroke="#63b8ff" d="M232.22,-55.59C218.33,-47.44 197.96,-35.48 181.81,-26"/>
<polygon fill="#63b8ff" stroke="#63b8ff" points="183.8,-22.52 173.4,-20.48 180.25,-28.56 183.8,-22.52"/>
</a>
</g>
</g>
<!-- Node11 -->
<g id="Node000011" class="node">
<title>Node11</title>
<g id="a_Node000011"><a xlink:title=" ">
<polygon fill="#e0e0e0" stroke="#999999" points="437.75,-20 394.75,-20 394.75,0 437.75,0 437.75,-20"/>
<text text-anchor="middle" x="416.25" y="-6.5" font-family="Helvetica,sans-Serif" font-size="10.00">format</text>
</a>
</g>
</g>
<!-- Node5&#45;&gt;Node11 -->
<g id="edge10_Node000005_Node000011" class="edge">
<title>Node5&#45;&gt;Node11</title>
<g id="a_edge10_Node000005_Node000011"><a xlink:title=" ">
<path fill="none" stroke="#63b8ff" d="M277.51,-55.59C307.28,-46.03 353.3,-31.23 384.08,-21.34"/>
<polygon fill="#63b8ff" stroke="#63b8ff" points="384.83,-24.46 393.28,-18.06 382.68,-17.79 384.83,-24.46"/>
</a>
</g>
</g>
<!-- Node13 -->
<g id="Node000013" class="node">
<title>Node13</title>
<g id="a_Node000013"><a xlink:title=" ">
<polygon fill="#e0e0e0" stroke="#999999" points="617.62,-300 564.88,-300 564.88,-280 617.62,-280 617.62,-300"/>
<text text-anchor="middle" x="591.25" y="-286.5" font-family="Helvetica,sans-Serif" font-size="10.00">json.hpp</text>
</a>
</g>
</g>
<!-- Node12&#45;&gt;Node13 -->
<g id="edge12_Node000012_Node000013" class="edge">
<title>Node12&#45;&gt;Node13</title>
<g id="a_edge12_Node000012_Node000013"><a xlink:title=" ">
<path fill="none" stroke="#63b8ff" d="M507.02,-335.59C522.64,-327.32 545.64,-315.14 563.66,-305.6"/>
<polygon fill="#63b8ff" stroke="#63b8ff" points="565.14,-308.25 572.34,-300.48 561.87,-302.07 565.14,-308.25"/>
</a>
</g>
</g>
<!-- Node14 -->
<g id="Node000014" class="node">
<title>Node14</title>
<g id="a_Node000014"><a xlink:href="device__set_8hpp.html" target="_top" xlink:title=" ">
<polygon fill="white" stroke="#666666" points="547.12,-300 431.38,-300 431.38,-280 547.12,-280 547.12,-300"/>
<text text-anchor="middle" x="489.25" y="-286.5" font-family="Helvetica,sans-Serif" font-size="10.00">devices/device_set.hpp</text>
</a>
</g>
</g>
<!-- Node12&#45;&gt;Node14 -->
<g id="edge13_Node000012_Node000014" class="edge">
<title>Node12&#45;&gt;Node14</title>
<g id="a_edge13_Node000012_Node000014"><a xlink:title=" ">
<path fill="none" stroke="#63b8ff" d="M489.25,-335.59C489.25,-328.86 489.25,-319.53 489.25,-311.15"/>
<polygon fill="#63b8ff" stroke="#63b8ff" points="492.75,-311.3 489.25,-301.3 485.75,-311.3 492.75,-311.3"/>
</a>
</g>
</g>
<!-- Node15 -->
<g id="Node000015" class="node">
<title>Node15</title>
<g id="a_Node000015"><a xlink:title=" ">
<polygon fill="#e0e0e0" stroke="#999999" points="572.12,-244 516.38,-244 516.38,-224 572.12,-224 572.12,-244"/>
<text text-anchor="middle" x="544.25" y="-230.5" font-family="Helvetica,sans-Serif" font-size="10.00">algorithm</text>
</a>
</g>
</g>
<!-- Node14&#45;&gt;Node15 -->
<g id="edge14_Node000014_Node000015" class="edge">
<title>Node14&#45;&gt;Node15</title>
<g id="a_edge14_Node000014_Node000015"><a xlink:title=" ">
<path fill="none" stroke="#63b8ff" d="M498.83,-279.59C506.64,-271.93 517.86,-260.91 527.19,-251.75"/>
<polygon fill="#63b8ff" stroke="#63b8ff" points="529.1,-254.8 533.78,-245.3 524.19,-249.81 529.1,-254.8"/>
</a>
</g>
</g>
<!-- Node16 -->
<g id="Node000016" class="node">
<title>Node16</title>
<g id="a_Node000016"><a xlink:href="vna__device_8hpp.html" target="_top" xlink:title=" ">
<polygon fill="white" stroke="#666666" points="516.5,-188 418,-188 418,-168 516.5,-168 516.5,-188"/>
<text text-anchor="middle" x="467.25" y="-174.5" font-family="Helvetica,sans-Serif" font-size="10.00">vna/vna_device.hpp</text>
</a>
</g>
</g>
<!-- Node14&#45;&gt;Node16 -->
<g id="edge15_Node000014_Node000016" class="edge">
<title>Node14&#45;&gt;Node16</title>
<g id="a_edge15_Node000014_Node000016"><a xlink:title=" ">
<path fill="none" stroke="#63b8ff" d="M525.17,-279.54C558.01,-269.03 598.96,-250.03 581.25,-224 568.86,-205.79 547.85,-194.95 527.22,-188.49"/>
<polygon fill="#63b8ff" stroke="#63b8ff" points="528.41,-184.91 517.84,-185.58 526.52,-191.65 528.41,-184.91"/>
</a>
</g>
</g>
<!-- Node22 -->
<g id="Node000022" class="node">
<title>Node22</title>
<g id="a_Node000022"><a xlink:href="gen__device_8hpp.html" target="_top" xlink:title=" ">
<polygon fill="white" stroke="#666666" points="393,-188 291.5,-188 291.5,-168 393,-168 393,-188"/>
<text text-anchor="middle" x="342.25" y="-174.5" font-family="Helvetica,sans-Serif" font-size="10.00">gen/gen_device.hpp</text>
</a>
</g>
</g>
<!-- Node14&#45;&gt;Node22 -->
<g id="edge23_Node000014_Node000022" class="edge">
<title>Node14&#45;&gt;Node22</title>
<g id="a_edge23_Node000014_Node000022"><a xlink:title=" ">
<path fill="none" stroke="#63b8ff" d="M431.19,-280.65C406.64,-274.35 379.56,-263.32 361.25,-244 349.75,-231.87 345.16,-213.16 343.36,-198.92"/>
<polygon fill="#63b8ff" stroke="#63b8ff" points="346.78,-198.91 342.41,-189.26 339.81,-199.53 346.78,-198.91"/>
</a>
</g>
</g>
<!-- Node23 -->
<g id="Node000023" class="node">
<title>Node23</title>
<g id="a_Node000023"><a xlink:href="rbd__device_8hpp.html" target="_top" xlink:title=" ">
<polygon fill="white" stroke="#666666" points="652.75,-188 555.75,-188 555.75,-168 652.75,-168 652.75,-188"/>
<text text-anchor="middle" x="604.25" y="-174.5" font-family="Helvetica,sans-Serif" font-size="10.00">rbd/rbd_device.hpp</text>
</a>
</g>
</g>
<!-- Node14&#45;&gt;Node23 -->
<g id="edge26_Node000014_Node000023" class="edge">
<title>Node14&#45;&gt;Node23</title>
<g id="a_edge26_Node000014_Node000023"><a xlink:title=" ">
<path fill="none" stroke="#63b8ff" d="M540.68,-279.52C561.46,-273.02 583.69,-262.14 597.25,-244 606.71,-231.34 607.95,-213.23 607.11,-199.34"/>
<polygon fill="#63b8ff" stroke="#63b8ff" points="610.5,-199.05 606,-189.46 603.54,-199.76 610.5,-199.05"/>
</a>
</g>
</g>
<!-- Node24 -->
<g id="Node000024" class="node">
<title>Node24</title>
<g id="a_Node000024"><a xlink:href="keysight__m9807a_8hpp.html" target="_top" xlink:title=" ">
<polygon fill="white" stroke="#666666" points="498.5,-244 370,-244 370,-224 498.5,-224 498.5,-244"/>
<text text-anchor="middle" x="434.25" y="-230.5" font-family="Helvetica,sans-Serif" font-size="10.00">vna/keysight_m9807a.hpp</text>
</a>
</g>
</g>
<!-- Node14&#45;&gt;Node24 -->
<g id="edge29_Node000014_Node000024" class="edge">
<title>Node14&#45;&gt;Node24</title>
<g id="a_edge29_Node000014_Node000024"><a xlink:title=" ">
<path fill="none" stroke="#63b8ff" d="M479.67,-279.59C471.86,-271.93 460.64,-260.91 451.31,-251.75"/>
<polygon fill="#63b8ff" stroke="#63b8ff" points="454.31,-249.81 444.72,-245.3 449.4,-254.8 454.31,-249.81"/>
</a>
</g>
</g>
<!-- Node25 -->
<g id="Node000025" class="node">
<title>Node25</title>
<g id="a_Node000025"><a xlink:href="keysight__gen_8hpp.html" target="_top" xlink:title=" ">
<polygon fill="white" stroke="#666666" points="313.88,-244 202.62,-244 202.62,-224 313.88,-224 313.88,-244"/>
<text text-anchor="middle" x="258.25" y="-230.5" font-family="Helvetica,sans-Serif" font-size="10.00">gen/keysight_gen.hpp</text>
</a>
</g>
</g>
<!-- Node14&#45;&gt;Node25 -->
<g id="edge31_Node000014_Node000025" class="edge">
<title>Node14&#45;&gt;Node25</title>
<g id="a_edge31_Node000014_Node000025"><a xlink:title=" ">
<path fill="none" stroke="#63b8ff" d="M448.75,-279.53C409.94,-270.46 351.24,-256.74 309.26,-246.93"/>
<polygon fill="#63b8ff" stroke="#63b8ff" points="310.24,-243.33 299.7,-244.46 308.65,-250.14 310.24,-243.33"/>
</a>
</g>
</g>
<!-- Node26 -->
<g id="Node000026" class="node">
<title>Node26</title>
<g id="a_Node000026"><a xlink:href="tesart__rbd_8hpp.html" target="_top" xlink:title=" ">
<polygon fill="white" stroke="#666666" points="760.62,-244 665.88,-244 665.88,-224 760.62,-224 760.62,-244"/>
<text text-anchor="middle" x="713.25" y="-230.5" font-family="Helvetica,sans-Serif" font-size="10.00">rbd/tesart_rbd.hpp</text>
</a>
</g>
</g>
<!-- Node14&#45;&gt;Node26 -->
<g id="edge33_Node000014_Node000026" class="edge">
<title>Node14&#45;&gt;Node26</title>
<g id="a_edge33_Node000014_Node000026"><a xlink:title=" ">
<path fill="none" stroke="#63b8ff" d="M528.52,-279.53C566.07,-270.48 622.84,-256.8 663.52,-246.99"/>
<polygon fill="#63b8ff" stroke="#63b8ff" points="664.12,-250.2 673.02,-244.46 662.48,-243.4 664.12,-250.2"/>
</a>
</g>
</g>
<!-- Node17 -->
<g id="Node000017" class="node">
<title>Node17</title>
<g id="a_Node000017"><a xlink:href="visa__device_8hpp.html" target="_top" xlink:title="Заголовочный файл, в котором определены константы и класс VisaDevice.">
<polygon fill="white" stroke="#666666" points="513.5,-132 421,-132 421,-112 513.5,-112 513.5,-132"/>
<text text-anchor="middle" x="467.25" y="-118.5" font-family="Helvetica,sans-Serif" font-size="10.00">../visa_device.hpp</text>
</a>
</g>
</g>
<!-- Node16&#45;&gt;Node17 -->
<g id="edge16_Node000016_Node000017" class="edge">
<title>Node16&#45;&gt;Node17</title>
<g id="a_edge16_Node000016_Node000017"><a xlink:title=" ">
<path fill="none" stroke="#63b8ff" d="M467.25,-167.59C467.25,-160.86 467.25,-151.53 467.25,-143.15"/>
<polygon fill="#63b8ff" stroke="#63b8ff" points="470.75,-143.3 467.25,-133.3 463.75,-143.3 470.75,-143.3"/>
</a>
</g>
</g>
<!-- Node20 -->
<g id="Node000020" class="node">
<title>Node20</title>
<g id="a_Node000020"><a xlink:href="exceptions_8hpp.html" target="_top" xlink:title="Заголовочный файл, содержащий класс antestl_exsceptions, сообщения исключений и коды исключений">
<polygon fill="white" stroke="#666666" points="402.75,-132 281.75,-132 281.75,-112 402.75,-112 402.75,-132"/>
<text text-anchor="middle" x="342.25" y="-118.5" font-family="Helvetica,sans-Serif" font-size="10.00">../../utils/exceptions.hpp</text>
</a>
</g>
</g>
<!-- Node16&#45;&gt;Node20 -->
<g id="edge21_Node000016_Node000020" class="edge">
<title>Node16&#45;&gt;Node20</title>
<g id="a_edge21_Node000016_Node000020"><a xlink:title=" ">
<path fill="none" stroke="#63b8ff" d="M445.48,-167.59C425.79,-159.09 396.56,-146.46 374.22,-136.81"/>
<polygon fill="#63b8ff" stroke="#63b8ff" points="375.76,-133.23 365.19,-132.48 372.99,-139.66 375.76,-133.23"/>
</a>
</g>
</g>
<!-- Node21 -->
<g id="Node000021" class="node">
<title>Node21</title>
<g id="a_Node000021"><a xlink:title=" ">
<polygon fill="#e0e0e0" stroke="#999999" points="599,-132 557.5,-132 557.5,-112 599,-112 599,-132"/>
<text text-anchor="middle" x="578.25" y="-118.5" font-family="Helvetica,sans-Serif" font-size="10.00">vector</text>
</a>
</g>
</g>
<!-- Node16&#45;&gt;Node21 -->
<g id="edge22_Node000016_Node000021" class="edge">
<title>Node16&#45;&gt;Node21</title>
<g id="a_edge22_Node000016_Node000021"><a xlink:title=" ">
<path fill="none" stroke="#63b8ff" d="M486.58,-167.59C503.83,-159.21 529.32,-146.8 549.05,-137.21"/>
<polygon fill="#63b8ff" stroke="#63b8ff" points="550.3,-140 557.76,-132.48 547.24,-133.71 550.3,-140"/>
</a>
</g>
</g>
<!-- Node17&#45;&gt;Node5 -->
<g id="edge20_Node000017_Node000005" class="edge">
<title>Node17&#45;&gt;Node5</title>
<g id="a_edge20_Node000017_Node000005"><a xlink:title=" ">
<path fill="none" stroke="#63b8ff" d="M428.85,-111.53C392.22,-102.5 336.88,-88.85 297.12,-79.05"/>
<polygon fill="#63b8ff" stroke="#63b8ff" points="298.15,-75.45 287.6,-76.46 296.47,-82.25 298.15,-75.45"/>
</a>
</g>
</g>
<!-- Node17&#45;&gt;Node11 -->
<g id="edge17_Node000017_Node000011" class="edge">
<title>Node17&#45;&gt;Node11</title>
<g id="a_edge17_Node000017_Node000011"><a xlink:title=" ">
<path fill="none" stroke="#63b8ff" d="M459.12,-111.59C451.96,-102.87 441.69,-89.29 435.25,-76 428.26,-61.58 423.33,-44.09 420.24,-30.89"/>
<polygon fill="#63b8ff" stroke="#63b8ff" points="423.46,-30.21 417.92,-21.18 416.62,-31.7 423.46,-30.21"/>
</a>
</g>
</g>
<!-- Node18 -->
<g id="Node000018" class="node">
<title>Node18</title>
<g id="a_Node000018"><a xlink:title=" ">
<polygon fill="#e0e0e0" stroke="#999999" points="489.88,-76 444.62,-76 444.62,-56 489.88,-56 489.88,-76"/>
<text text-anchor="middle" x="467.25" y="-62.5" font-family="Helvetica,sans-Serif" font-size="10.00">cstring</text>
</a>
</g>
</g>
<!-- Node17&#45;&gt;Node18 -->
<g id="edge18_Node000017_Node000018" class="edge">
<title>Node17&#45;&gt;Node18</title>
<g id="a_edge18_Node000017_Node000018"><a xlink:title=" ">
<path fill="none" stroke="#63b8ff" d="M467.25,-111.59C467.25,-104.86 467.25,-95.53 467.25,-87.15"/>
<polygon fill="#63b8ff" stroke="#63b8ff" points="470.75,-87.3 467.25,-77.3 463.75,-87.3 470.75,-87.3"/>
</a>
</g>
</g>
<!-- Node19 -->
<g id="Node000019" class="node">
<title>Node19</title>
<g id="a_Node000019"><a xlink:title=" ">
<polygon fill="#e0e0e0" stroke="#999999" points="548.62,-76 507.88,-76 507.88,-56 548.62,-56 548.62,-76"/>
<text text-anchor="middle" x="528.25" y="-62.5" font-family="Helvetica,sans-Serif" font-size="10.00">visa.h</text>
</a>
</g>
</g>
<!-- Node17&#45;&gt;Node19 -->
<g id="edge19_Node000017_Node000019" class="edge">
<title>Node17&#45;&gt;Node19</title>
<g id="a_edge19_Node000017_Node000019"><a xlink:title=" ">
<path fill="none" stroke="#63b8ff" d="M477.88,-111.59C486.62,-103.85 499.23,-92.69 509.65,-83.47"/>
<polygon fill="#63b8ff" stroke="#63b8ff" points="511.58,-86.55 516.75,-77.3 506.94,-81.31 511.58,-86.55"/>
</a>
</g>
</g>
<!-- Node22&#45;&gt;Node17 -->
<g id="edge24_Node000022_Node000017" class="edge">
<title>Node22&#45;&gt;Node17</title>
<g id="a_edge24_Node000022_Node000017"><a xlink:title=" ">
<path fill="none" stroke="#63b8ff" d="M364.02,-167.59C383.71,-159.09 412.94,-146.46 435.28,-136.81"/>
<polygon fill="#63b8ff" stroke="#63b8ff" points="436.51,-139.66 444.31,-132.48 433.74,-133.23 436.51,-139.66"/>
</a>
</g>
</g>
<!-- Node22&#45;&gt;Node20 -->
<g id="edge25_Node000022_Node000020" class="edge">
<title>Node22&#45;&gt;Node20</title>
<g id="a_edge25_Node000022_Node000020"><a xlink:title=" ">
<path fill="none" stroke="#63b8ff" d="M342.25,-167.59C342.25,-160.86 342.25,-151.53 342.25,-143.15"/>
<polygon fill="#63b8ff" stroke="#63b8ff" points="345.75,-143.3 342.25,-133.3 338.75,-143.3 345.75,-143.3"/>
</a>
</g>
</g>
<!-- Node23&#45;&gt;Node17 -->
<g id="edge27_Node000023_Node000017" class="edge">
<title>Node23&#45;&gt;Node17</title>
<g id="a_edge27_Node000023_Node000017"><a xlink:title=" ">
<path fill="none" stroke="#63b8ff" d="M580.39,-167.59C558.52,-158.97 525.9,-146.12 501.3,-136.42"/>
<polygon fill="#63b8ff" stroke="#63b8ff" points="502.89,-132.89 492.3,-132.48 500.32,-139.4 502.89,-132.89"/>
</a>
</g>
</g>
<!-- Node23&#45;&gt;Node21 -->
<g id="edge28_Node000023_Node000021" class="edge">
<title>Node23&#45;&gt;Node21</title>
<g id="a_edge28_Node000023_Node000021"><a xlink:title=" ">
<path fill="none" stroke="#63b8ff" d="M599.72,-167.59C596.33,-160.55 591.57,-150.67 587.4,-142"/>
<polygon fill="#63b8ff" stroke="#63b8ff" points="590.22,-140.79 582.73,-133.3 583.91,-143.83 590.22,-140.79"/>
</a>
</g>
</g>
<!-- Node24&#45;&gt;Node16 -->
<g id="edge30_Node000024_Node000016" class="edge">
<title>Node24&#45;&gt;Node16</title>
<g id="a_edge30_Node000024_Node000016"><a xlink:title=" ">
<path fill="none" stroke="#63b8ff" d="M440,-223.59C444.4,-216.39 450.61,-206.23 455.99,-197.43"/>
<polygon fill="#63b8ff" stroke="#63b8ff" points="459.34,-199.66 461.57,-189.3 453.37,-196.01 459.34,-199.66"/>
</a>
</g>
</g>
<!-- Node25&#45;&gt;Node22 -->
<g id="edge32_Node000025_Node000022" class="edge">
<title>Node25&#45;&gt;Node22</title>
<g id="a_edge32_Node000025_Node000022"><a xlink:title=" ">
<path fill="none" stroke="#63b8ff" d="M272.88,-223.59C285.45,-215.51 303.82,-203.71 318.49,-194.27"/>
<polygon fill="#63b8ff" stroke="#63b8ff" points="319.99,-196.83 326.5,-188.48 316.2,-190.94 319.99,-196.83"/>
</a>
</g>
</g>
<!-- Node26&#45;&gt;Node23 -->
<g id="edge35_Node000026_Node000023" class="edge">
<title>Node26&#45;&gt;Node23</title>
<g id="a_edge35_Node000026_Node000023"><a xlink:title=" ">
<path fill="none" stroke="#63b8ff" d="M694.26,-223.59C677.41,-215.24 652.53,-202.92 633.19,-193.34"/>
<polygon fill="#63b8ff" stroke="#63b8ff" points="634.9,-189.78 624.38,-188.48 631.79,-196.05 634.9,-189.78"/>
</a>
</g>
</g>
<!-- Node27 -->
<g id="Node000027" class="node">
<title>Node27</title>
<g id="a_Node000027"><a xlink:title=" ">
<polygon fill="#e0e0e0" stroke="#999999" points="734.75,-188 691.75,-188 691.75,-168 734.75,-168 734.75,-188"/>
<text text-anchor="middle" x="713.25" y="-174.5" font-family="Helvetica,sans-Serif" font-size="10.00">thread</text>
</a>
</g>
</g>
<!-- Node26&#45;&gt;Node27 -->
<g id="edge34_Node000026_Node000027" class="edge">
<title>Node26&#45;&gt;Node27</title>
<g id="a_edge34_Node000026_Node000027"><a xlink:title=" ">
<path fill="none" stroke="#63b8ff" d="M713.25,-223.59C713.25,-216.86 713.25,-207.53 713.25,-199.15"/>
<polygon fill="#63b8ff" stroke="#63b8ff" points="716.75,-199.3 713.25,-189.3 709.75,-199.3 716.75,-199.3"/>
</a>
</g>
</g>
</g>
</svg>

<g id="navigator" transform="translate(0 0)" fill="#404254">
  <rect fill="#f2f5e9" fill-opacity="0.5" stroke="#606060" stroke-width=".5" x="0" y="0" width="60" height="60"/>
  <use id="zoomplus" xlink:href="#zoomPlus" x="17" y="9" onmousedown="handleZoom(evt,'in')"/>
  <use id="zoomminus" xlink:href="#zoomMin" x="42" y="9" onmousedown="handleZoom(evt,'out')"/>
  <use id="reset" xlink:href="#resetDef" x="30" y="36" onmousedown="handleReset()"/>
   <use id="arrowup" xlink:href="#arrowUp" x="0" y="0" onmousedown="handlePan(0,-1)"/>
  <use id="arrowright" xlink:href="#arrowRight" x="0" y="0" onmousedown="handlePan(1,0)"/>
  <use id="arrowdown" xlink:href="#arrowDown" x="0" y="0" onmousedown="handlePan(0,1)"/>
  <use id="arrowleft" xlink:href="#arrowLeft" x="0" y="0" onmousedown="handlePan(-1,0)"/>
</g>
<svg viewBox="0 0 15 15" width="100%" height="30px" preserveAspectRatio="xMaxYMin meet">
 <g id="arrow_out" transform="scale(0.3 0.3)">
  <a xlink:href="main_8cpp__incl_org.svg" target="_base">
   <rect id="button" ry="5" rx="5" y="6" x="6" height="38" width="38"
        fill="#f2f5e9" fill-opacity="0.5" stroke="#606060" stroke-width="1.0"/>
   <path id="arrow"
     d="M 11.500037,31.436501 C 11.940474,20.09759 22.043105,11.32322 32.158766,21.979434 L 37.068811,17.246167 C 37.068811,17.246167 37.088388,32 37.088388,32 L 22.160133,31.978069 C 22.160133,31.978069 26.997745,27.140456 26.997745,27.140456 C 18.528582,18.264221 13.291696,25.230495 11.500037,31.436501 z"
     style="fill:#404040;"/>
  </a>
 </g>
</svg>

<style type='text/css'>
<![CDATA[
[data-mouse-over-selected='false'] { opacity: 0.7; }
[data-mouse-over-selected='true']  { opacity: 1.0; }
]]>
</style>
<script type="application/ecmascript"><![CDATA[
document.addEventListener('DOMContentLoaded', (event) => {
  highlightEdges();
  highlightAdjacentNodes();
});
]]></script>
</svg>
