<?xml version="1.0" encoding="UTF-8" standalone="no"?>
<!DOCTYPE svg PUBLIC "-//W3C//DTD SVG 1.1//EN"
 "http://www.w3.org/Graphics/SVG/1.1/DTD/svg11.dtd">
<!-- Generated by graphviz version 8.0.5 (20230430.1635)
 -->
<!-- Title: exit_event_handler Pages: 1 -->
<svg width="593pt" height="142pt"
 viewBox="0.00 0.00 593.25 142.00" xmlns="http://www.w3.org/2000/svg" xmlns:xlink="http://www.w3.org/1999/xlink">
<g id="graph0" class="graph" transform="scale(1 1) rotate(0) translate(4 138)">
<title>exit_event_handler</title>
<!-- Node1 -->
<g id="Node000001" class="node">
<title>Node1</title>
<g id="a_Node000001"><a xlink:title=" ">
<polygon fill="#999999" stroke="#666666" points="96.25,-58 0,-58 0,-38 96.25,-38 96.25,-58"/>
<text text-anchor="middle" x="48.12" y="-44.5" font-family="Helvetica,sans-Serif" font-size="10.00">exit_event_handler</text>
</a>
</g>
</g>
<!-- Node2 -->
<g id="Node000002" class="node">
<title>Node2</title>
<g id="a_Node000002"><a xlink:href="class_socket_server.html#a1e673e526a459bdb3ca92e103ec212ae" target="_top" xlink:title=" ">
<polygon fill="white" stroke="#666666" points="252.12,-96 149.12,-96 149.12,-76 252.12,-76 252.12,-96"/>
<text text-anchor="middle" x="200.62" y="-82.5" font-family="Helvetica,sans-Serif" font-size="10.00">SocketServer::close</text>
</a>
</g>
</g>
<!-- Node1&#45;&gt;Node2 -->
<g id="edge1_Node000001_Node000002" class="edge">
<title>Node1&#45;&gt;Node2</title>
<g id="a_edge1_Node000001_Node000002"><a xlink:title=" ">
<path fill="none" stroke="#63b8ff" d="M90.65,-58.48C108.33,-62.95 129.15,-68.21 147.82,-72.92"/>
<polygon fill="#63b8ff" stroke="#63b8ff" points="146.68,-76.5 157.24,-75.55 148.4,-69.71 146.68,-76.5"/>
</a>
</g>
</g>
<!-- Node3 -->
<g id="Node000003" class="node">
<title>Node3</title>
<g id="a_Node000003"><a xlink:href="class_logger.html#af7709105c2708359b7b082218f4cc3e1" target="_top" xlink:title="Функция, осуществляющая логирование">
<polygon fill="white" stroke="#666666" points="397.88,-77 333.88,-77 333.88,-57 397.88,-57 397.88,-77"/>
<text text-anchor="middle" x="365.88" y="-63.5" font-family="Helvetica,sans-Serif" font-size="10.00">Logger::log</text>
</a>
</g>
</g>
<!-- Node1&#45;&gt;Node3 -->
<g id="edge7_Node000001_Node000003" class="edge">
<title>Node1&#45;&gt;Node3</title>
<g id="a_edge7_Node000001_Node000003"><a xlink:title=" ">
<path fill="none" stroke="#63b8ff" d="M96.74,-50.87C158.24,-54.57 264.33,-60.95 322.94,-64.48"/>
<polygon fill="#63b8ff" stroke="#63b8ff" points="322.46,-68.01 332.65,-65.12 322.88,-61.03 322.46,-68.01"/>
</a>
</g>
</g>
<!-- Node8 -->
<g id="Node000008" class="node">
<title>Node8</title>
<g id="a_Node000008"><a xlink:href="class_task_manager.html#a601272b5c895a310aec3d430b19c6258" target="_top" xlink:title=" ">
<polygon fill="white" stroke="#666666" points="269,-20 132.25,-20 132.25,0 269,0 269,-20"/>
<text text-anchor="middle" x="200.62" y="-6.5" font-family="Helvetica,sans-Serif" font-size="10.00">TaskManager::request_stop</text>
</a>
</g>
</g>
<!-- Node1&#45;&gt;Node8 -->
<g id="edge8_Node000001_Node000008" class="edge">
<title>Node1&#45;&gt;Node8</title>
<g id="a_edge8_Node000001_Node000008"><a xlink:title=" ">
<path fill="none" stroke="#63b8ff" d="M90.65,-37.52C108.33,-33.05 129.15,-27.79 147.82,-23.08"/>
<polygon fill="#63b8ff" stroke="#63b8ff" points="148.4,-26.29 157.24,-20.45 146.68,-19.5 148.4,-26.29"/>
</a>
</g>
</g>
<!-- Node2&#45;&gt;Node3 -->
<g id="edge2_Node000002_Node000003" class="edge">
<title>Node2&#45;&gt;Node3</title>
<g id="a_edge2_Node000002_Node000003"><a xlink:title=" ">
<path fill="none" stroke="#63b8ff" d="M252.38,-80.09C275.02,-77.46 301.37,-74.39 322.88,-71.89"/>
<polygon fill="#63b8ff" stroke="#63b8ff" points="323.11,-75.27 332.63,-70.64 322.3,-68.32 323.11,-75.27"/>
</a>
</g>
</g>
<!-- Node4 -->
<g id="Node000004" class="node">
<title>Node4</title>
<g id="a_Node000004"><a xlink:href="logger_8hpp.html#a49284b7befa8e31f81e01ee8f3735dd0" target="_top" xlink:title="Функция, которая снимает значение текущего времени и конвертирует его в строку с заданным шаблоном.">
<polygon fill="white" stroke="#666666" points="568.38,-134 479.62,-134 479.62,-114 568.38,-114 568.38,-134"/>
<text text-anchor="middle" x="524" y="-120.5" font-family="Helvetica,sans-Serif" font-size="10.00">get_current_time</text>
</a>
</g>
</g>
<!-- Node3&#45;&gt;Node4 -->
<g id="edge3_Node000003_Node000004" class="edge">
<title>Node3&#45;&gt;Node4</title>
<g id="a_edge3_Node000003_Node000004"><a xlink:title=" ">
<path fill="none" stroke="#63b8ff" d="M391.92,-77.5C411.16,-85.42 438.46,-96.37 462.75,-105 467.79,-106.79 473.09,-108.59 478.38,-110.32"/>
<polygon fill="#63b8ff" stroke="#63b8ff" points="476.86,-113.83 487.45,-113.57 479,-107.17 476.86,-113.83"/>
</a>
</g>
</g>
<!-- Node5 -->
<g id="Node000005" class="node">
<title>Node5</title>
<g id="a_Node000005"><a xlink:href="class_logger.html#a6edb7b263f080d417b82a537ed50fee4" target="_top" xlink:title="Функция, возвращающая тег в зависимости от уровня логирования и от назначения тега.">
<polygon fill="white" stroke="#666666" points="565.75,-96 482.25,-96 482.25,-76 565.75,-76 565.75,-96"/>
<text text-anchor="middle" x="524" y="-82.5" font-family="Helvetica,sans-Serif" font-size="10.00">Logger::get_tag</text>
</a>
</g>
</g>
<!-- Node3&#45;&gt;Node5 -->
<g id="edge4_Node000003_Node000005" class="edge">
<title>Node3&#45;&gt;Node5</title>
<g id="a_edge4_Node000003_Node000005"><a xlink:title=" ">
<path fill="none" stroke="#63b8ff" d="M398.09,-70.8C418.93,-73.33 446.83,-76.73 470.98,-79.67"/>
<polygon fill="#63b8ff" stroke="#63b8ff" points="470.42,-83.25 480.77,-80.98 471.26,-76.3 470.42,-83.25"/>
</a>
</g>
</g>
<!-- Node6 -->
<g id="Node000006" class="node">
<title>Node6</title>
<g id="a_Node000006"><a xlink:href="class_logger.html#a4825613142ebb093bf8fa26f21f7f3fc" target="_top" xlink:title="Функция, которая выводит сообщение в консоль.">
<polygon fill="white" stroke="#666666" points="585.25,-58 462.75,-58 462.75,-38 585.25,-38 585.25,-58"/>
<text text-anchor="middle" x="524" y="-44.5" font-family="Helvetica,sans-Serif" font-size="10.00">Logger::print_to_console</text>
</a>
</g>
</g>
<!-- Node3&#45;&gt;Node6 -->
<g id="edge5_Node000003_Node000006" class="edge">
<title>Node3&#45;&gt;Node6</title>
<g id="a_edge5_Node000003_Node000006"><a xlink:title=" ">
<path fill="none" stroke="#63b8ff" d="M398.09,-63.2C413.56,-61.32 432.93,-58.96 451.76,-56.67"/>
<polygon fill="#63b8ff" stroke="#63b8ff" points="451.94,-60.05 461.45,-55.37 451.1,-53.1 451.94,-60.05"/>
</a>
</g>
</g>
<!-- Node7 -->
<g id="Node000007" class="node">
<title>Node7</title>
<g id="a_Node000007"><a xlink:href="class_logger.html#a999bb33f7cf079cb98f32fae6016a2f3" target="_top" xlink:title="Функция, которая записывает сообщение в файл.">
<polygon fill="white" stroke="#666666" points="574.38,-20 473.62,-20 473.62,0 574.38,0 574.38,-20"/>
<text text-anchor="middle" x="524" y="-6.5" font-family="Helvetica,sans-Serif" font-size="10.00">Logger::print_to_file</text>
</a>
</g>
</g>
<!-- Node3&#45;&gt;Node7 -->
<g id="edge6_Node000003_Node000007" class="edge">
<title>Node3&#45;&gt;Node7</title>
<g id="a_edge6_Node000003_Node000007"><a xlink:title=" ">
<path fill="none" stroke="#63b8ff" d="M391.92,-56.5C411.16,-48.58 438.46,-37.63 462.75,-29 467.79,-27.21 473.09,-25.41 478.38,-23.68"/>
<polygon fill="#63b8ff" stroke="#63b8ff" points="479,-26.83 487.45,-20.43 476.86,-20.17 479,-26.83"/>
</a>
</g>
</g>
<!-- Node9 -->
<g id="Node000009" class="node">
<title>Node9</title>
<g id="a_Node000009"><a xlink:href="class_device_set.html#a9b806652a49bcc00d4fe635235c9596d" target="_top" xlink:title=" ">
<polygon fill="white" stroke="#666666" points="426.75,-20 305,-20 305,0 426.75,0 426.75,-20"/>
<text text-anchor="middle" x="365.88" y="-6.5" font-family="Helvetica,sans-Serif" font-size="10.00">DeviceSet::request_stop</text>
</a>
</g>
</g>
<!-- Node8&#45;&gt;Node9 -->
<g id="edge9_Node000008_Node000009" class="edge">
<title>Node8&#45;&gt;Node9</title>
<g id="a_edge9_Node000008_Node000009"><a xlink:title=" ">
<path fill="none" stroke="#63b8ff" d="M269.44,-10C277.45,-10 285.64,-10 293.7,-10"/>
<polygon fill="#63b8ff" stroke="#63b8ff" points="293.57,-13.5 303.57,-10 293.57,-6.5 293.57,-13.5"/>
</a>
</g>
</g>
</g>
</svg>
