<?xml version="1.0" encoding="UTF-8" standalone="no"?>
<!DOCTYPE svg PUBLIC "-//W3C//DTD SVG 1.1//EN"
 "http://www.w3.org/Graphics/SVG/1.1/DTD/svg11.dtd">
<!-- Generated by graphviz version 8.1.0 (20230707.0739)
 -->
<!-- Title: task_server_thread_f Pages: 1 -->
<!--zoomable 368 -->

<svg id="main" version="1.1" xmlns="http://www.w3.org/2000/svg" xmlns:xlink="http://www.w3.org/1999/xlink" xml:space="preserve" onload="init(evt)">
<style type="text/css"><![CDATA[
.node, .edge {opacity: 0.7;}
.node.selected, .edge.selected {opacity: 1;}
.edge:hover path { stroke: red; }
.edge:hover polygon { stroke: red; fill: red; }
]]></style>

<defs>
  <circle id="rim" cx="0" cy="0" r="7"/>
  <circle id="rim2" cx="0" cy="0" r="3.5"/>
  <g id="zoomPlus">
    <use xlink:href="#rim" fill="#404040"><set attributeName="fill" to="#808080" begin="zoomplus.mouseover" end="zoomplus.mouseout"/></use>
    <path d="M-4,0h8M0,-4v8" fill="none" stroke="white" stroke-width="1.5" pointer-events="none"/>
  </g>
  <g id="zoomMin">
    <use xlink:href="#rim" fill="#404040"><set attributeName="fill" to="#808080" begin="zoomminus.mouseover" end="zoomminus.mouseout"/></use>
    <path d="M-4,0h8" fill="none" stroke="white" stroke-width="1.5" pointer-events="none"/>
  </g>
  <g id="arrowUp" transform="translate(30 24)">
    <use xlink:href="#rim"/>
    <path pointer-events="none" fill="none" stroke="white" stroke-width="1.5" d="M0,-3.0v7 M-2.5,-0.5L0,-3.0L2.5,-0.5"/>
  </g>
  <g id="arrowRight" transform="rotate(90) translate(36 -43)">
    <use xlink:href="#rim"/>
    <path pointer-events="none" fill="none" stroke="white" stroke-width="1.5" d="M0,-3.0v7 M-2.5,-0.5L0,-3.0L2.5,-0.5"/>
  </g>
  <g id="arrowDown" transform="rotate(180) translate(-30 -48)">
    <use xlink:href="#rim"/>
    <path pointer-events="none" fill="none" stroke="white" stroke-width="1.5" d="M0,-3.0v7 M-2.5,-0.5L0,-3.0L2.5,-0.5"/>
  </g>
  <g id="arrowLeft" transform="rotate(270) translate(-36 17)">
    <use xlink:href="#rim"/>
    <path pointer-events="none" fill="none" stroke="white" stroke-width="1.5" d="M0,-3.0v7 M-2.5,-0.5L0,-3.0L2.5,-0.5"/>
  </g>
  <g id="resetDef">
    <use xlink:href="#rim2" fill="#404040"><set attributeName="fill" to="#808080" begin="reset.mouseover" end="reset.mouseout"/></use>
  </g>
</defs>
<script type="application/ecmascript">
var viewWidth = 603;
var viewHeight = 368;
var sectionId = 'dynsection-1';
</script>
<script type="application/ecmascript" xlink:href="svg.min.js"/>
<svg id="graph" class="graph">
<g id="viewport">
<title>task_server_thread_f</title>
<!-- Node1 -->
<g id="Node000001" class="node">
<title>Node1</title>
<g id="a_Node000001"><a xlink:title="Приём данных от клиента и передача их потоку обработки">
<polygon fill="#999999" stroke="#666666" points="105.25,-208 0,-208 0,-188 105.25,-188 105.25,-208"/>
<text text-anchor="middle" x="52.62" y="-194.5" font-family="Helvetica,sans-Serif" font-size="10.00">task_server_thread_f</text>
</a>
</g>
</g>
<!-- Node2 -->
<g id="Node000002" class="node">
<title>Node2</title>
<g id="a_Node000002"><a xlink:href="class_socket_server.html#a1e673e526a459bdb3ca92e103ec212ae" target="_top" xlink:title="Закрытие сокета">
<polygon fill="white" stroke="#666666" points="261.5,-360 158.5,-360 158.5,-340 261.5,-340 261.5,-360"/>
<text text-anchor="middle" x="210" y="-346.5" font-family="Helvetica,sans-Serif" font-size="10.00">SocketServer::close</text>
</a>
</g>
</g>
<!-- Node1&#45;&gt;Node2 -->
<g id="edge1_Node000001_Node000002" class="edge">
<title>Node1&#45;&gt;Node2</title>
<g id="a_edge1_Node000001_Node000002"><a xlink:title=" ">
<path fill="none" stroke="#63b8ff" d="M57.92,-208.26C68.5,-232.32 98.12,-292.84 141.25,-326 145.89,-329.57 151.1,-332.63 156.52,-335.26"/>
<polygon fill="#63b8ff" stroke="#63b8ff" points="154.85,-338.78 165.41,-339.53 157.62,-332.35 154.85,-338.78"/>
</a>
</g>
</g>
<!-- Node3 -->
<g id="Node000003" class="node">
<title>Node3</title>
<g id="a_Node000003"><a xlink:href="class_logger.html#af7709105c2708359b7b082218f4cc3e1" target="_top" xlink:title="Метод, осуществляющий логирование">
<polygon fill="white" stroke="#666666" points="407.62,-284 343.62,-284 343.62,-264 407.62,-264 407.62,-284"/>
<text text-anchor="middle" x="375.62" y="-270.5" font-family="Helvetica,sans-Serif" font-size="10.00">Logger::log</text>
</a>
</g>
</g>
<!-- Node1&#45;&gt;Node3 -->
<g id="edge10_Node000001_Node000003" class="edge">
<title>Node1&#45;&gt;Node3</title>
<g id="a_edge10_Node000001_Node000003"><a xlink:title=" ">
<path fill="none" stroke="#63b8ff" d="M59.17,-208.3C71,-229.04 100.97,-275.35 141.25,-293 205.46,-321.13 289.07,-302.74 336.8,-287.74"/>
<polygon fill="#63b8ff" stroke="#63b8ff" points="337.57,-290.84 345.99,-284.41 335.4,-284.19 337.57,-290.84"/>
</a>
</g>
</g>
<!-- Node8 -->
<g id="Node000008" class="node">
<title>Node8</title>
<g id="a_Node000008"><a xlink:href="class_socket_server.html#a44e1cd686d7580a28e3c840f726b4f80" target="_top" xlink:title="Метод, инициализирующий сокет">
<polygon fill="white" stroke="#666666" points="263.38,-284 156.62,-284 156.62,-264 263.38,-264 263.38,-284"/>
<text text-anchor="middle" x="210" y="-270.5" font-family="Helvetica,sans-Serif" font-size="10.00">SocketServer::create</text>
</a>
</g>
</g>
<!-- Node1&#45;&gt;Node8 -->
<g id="edge7_Node000001_Node000008" class="edge">
<title>Node1&#45;&gt;Node8</title>
<g id="a_edge7_Node000001_Node000008"><a xlink:title=" ">
<path fill="none" stroke="#63b8ff" d="M66.84,-208.45C83.38,-221.07 112.98,-242.2 141.25,-255 145.32,-256.84 149.61,-258.55 153.97,-260.11"/>
<polygon fill="#63b8ff" stroke="#63b8ff" points="152.62,-263.68 163.22,-263.52 154.83,-257.04 152.62,-263.68"/>
</a>
</g>
</g>
<!-- Node9 -->
<g id="Node000009" class="node">
<title>Node9</title>
<g id="a_Node000009"><a xlink:href="class_socket_server.html#aa7bacfc3a50bcbc8f9911f73b6ae8c92" target="_top" xlink:title="Проверка, подключен ли клиент">
<polygon fill="white" stroke="#666666" points="278.75,-246 141.25,-246 141.25,-226 278.75,-226 278.75,-246"/>
<text text-anchor="middle" x="210" y="-232.5" font-family="Helvetica,sans-Serif" font-size="10.00">SocketServer::is_connected</text>
</a>
</g>
</g>
<!-- Node1&#45;&gt;Node9 -->
<g id="edge9_Node000001_Node000009" class="edge">
<title>Node1&#45;&gt;Node9</title>
<g id="a_edge9_Node000001_Node000009"><a xlink:title=" ">
<path fill="none" stroke="#63b8ff" d="M96.49,-208.48C114.83,-212.97 136.44,-218.25 155.79,-222.99"/>
<polygon fill="#63b8ff" stroke="#63b8ff" points="154.73,-226.57 165.27,-225.55 156.39,-219.77 154.73,-226.57"/>
</a>
</g>
</g>
<!-- Node10 -->
<g id="Node000010" class="node">
<title>Node10</title>
<g id="a_Node000010"><a xlink:href="class_socket_server.html#ac27110c965c4ba07f68ad3422506651c" target="_top" xlink:title="Чтение данных от клиента">
<polygon fill="white" stroke="#666666" points="271.25,-208 148.75,-208 148.75,-188 271.25,-188 271.25,-208"/>
<text text-anchor="middle" x="210" y="-194.5" font-family="Helvetica,sans-Serif" font-size="10.00">SocketServer::read_data</text>
</a>
</g>
</g>
<!-- Node1&#45;&gt;Node10 -->
<g id="edge11_Node000001_Node000010" class="edge">
<title>Node1&#45;&gt;Node10</title>
<g id="a_edge11_Node000001_Node000010"><a xlink:title=" ">
<path fill="none" stroke="#63b8ff" d="M105.36,-198C115.69,-198 126.71,-198 137.57,-198"/>
<polygon fill="#63b8ff" stroke="#63b8ff" points="137.34,-201.5 147.34,-198 137.34,-194.5 137.34,-201.5"/>
</a>
</g>
</g>
<!-- Node11 -->
<g id="Node000011" class="node">
<title>Node11</title>
<g id="a_Node000011"><a xlink:href="class_task_manager.html#a738932cb7a94791e04e37c283c8a0a50" target="_top" xlink:title="Метод, проверяющий, принадлежит тип принятого задания типу TASK_TYPE_DISCONNECT.">
<polygon fill="white" stroke="#666666" points="267.88,-170 152.12,-170 152.12,-138 267.88,-138 267.88,-170"/>
<text text-anchor="start" x="160.12" y="-156.5" font-family="Helvetica,sans-Serif" font-size="10.00">TaskManager::received</text>
<text text-anchor="middle" x="210" y="-144.5" font-family="Helvetica,sans-Serif" font-size="10.00">_disconnect_task</text>
</a>
</g>
</g>
<!-- Node1&#45;&gt;Node11 -->
<g id="edge13_Node000001_Node000011" class="edge">
<title>Node1&#45;&gt;Node11</title>
<g id="a_edge13_Node000001_Node000011"><a xlink:title=" ">
<path fill="none" stroke="#63b8ff" d="M90.45,-187.57C105.75,-183.24 124.01,-178.07 141.56,-173.1"/>
<polygon fill="#63b8ff" stroke="#63b8ff" points="142.12,-176.29 150.79,-170.2 140.21,-169.56 142.12,-176.29"/>
</a>
</g>
</g>
<!-- Node12 -->
<g id="Node000012" class="node">
<title>Node12</title>
<g id="a_Node000012"><a xlink:href="class_task_manager.html#a55032bf51c0426d8df0477991e46d9f7" target="_top" xlink:title="Метод, проверяющий, принадлежит тип принятого задания типу TASK_TYPE_STOP.">
<polygon fill="white" stroke="#666666" points="267.88,-120 152.12,-120 152.12,-88 267.88,-88 267.88,-120"/>
<text text-anchor="start" x="160.12" y="-106.5" font-family="Helvetica,sans-Serif" font-size="10.00">TaskManager::received</text>
<text text-anchor="middle" x="210" y="-94.5" font-family="Helvetica,sans-Serif" font-size="10.00">_stop_task</text>
</a>
</g>
</g>
<!-- Node1&#45;&gt;Node12 -->
<g id="edge14_Node000001_Node000012" class="edge">
<title>Node1&#45;&gt;Node12</title>
<g id="a_edge14_Node000001_Node000012"><a xlink:title=" ">
<path fill="none" stroke="#63b8ff" d="M64.43,-187.62C80.22,-172.92 111.01,-145.93 141.25,-129 143.78,-127.58 146.4,-126.22 149.08,-124.91"/>
<polygon fill="#63b8ff" stroke="#63b8ff" points="150.33,-127.74 157.98,-120.41 147.43,-121.37 150.33,-127.74"/>
</a>
</g>
</g>
<!-- Node13 -->
<g id="Node000013" class="node">
<title>Node13</title>
<g id="a_Node000013"><a xlink:href="class_task_manager.html#a601272b5c895a310aec3d430b19c6258" target="_top" xlink:title="Присваивает флагу stop_request значение true, тем самым, останавливая процес измерения">
<polygon fill="white" stroke="#666666" points="278.38,-20 141.62,-20 141.62,0 278.38,0 278.38,-20"/>
<text text-anchor="middle" x="210" y="-6.5" font-family="Helvetica,sans-Serif" font-size="10.00">TaskManager::request_stop</text>
</a>
</g>
</g>
<!-- Node1&#45;&gt;Node13 -->
<g id="edge15_Node000001_Node000013" class="edge">
<title>Node1&#45;&gt;Node13</title>
<g id="a_edge15_Node000001_Node000013"><a xlink:title=" ">
<path fill="none" stroke="#63b8ff" d="M55.88,-187.83C62.94,-158.46 87.41,-72.8 141.25,-29 142.72,-27.81 144.25,-26.69 145.84,-25.64"/>
<polygon fill="#63b8ff" stroke="#63b8ff" points="147.39,-28.24 154.48,-20.37 144.03,-22.1 147.39,-28.24"/>
</a>
</g>
</g>
<!-- Node15 -->
<g id="Node000015" class="node">
<title>Node15</title>
<g id="a_Node000015"><a xlink:href="class_socket_server.html#a47b8a318ef73faa660aa0f2b99225197" target="_top" xlink:title="Метод, ожидающий подключение клиента">
<polygon fill="white" stroke="#666666" points="258.5,-70 161.5,-70 161.5,-38 258.5,-38 258.5,-70"/>
<text text-anchor="start" x="169.5" y="-56.5" font-family="Helvetica,sans-Serif" font-size="10.00">SocketServer::wait</text>
<text text-anchor="middle" x="210" y="-44.5" font-family="Helvetica,sans-Serif" font-size="10.00">_client</text>
</a>
</g>
</g>
<!-- Node1&#45;&gt;Node15 -->
<g id="edge17_Node000001_Node000015" class="edge">
<title>Node1&#45;&gt;Node15</title>
<g id="a_edge17_Node000001_Node000015"><a xlink:title=" ">
<path fill="none" stroke="#63b8ff" d="M58.48,-187.84C69.83,-165.12 100.24,-109.84 141.25,-79 144.44,-76.6 147.89,-74.41 151.48,-72.41"/>
<polygon fill="#63b8ff" stroke="#63b8ff" points="152.84,-75.15 160.24,-67.57 149.73,-68.88 152.84,-75.15"/>
</a>
</g>
</g>
<!-- Node2&#45;&gt;Node3 -->
<g id="edge2_Node000002_Node000003" class="edge">
<title>Node2&#45;&gt;Node3</title>
<g id="a_edge2_Node000002_Node000003"><a xlink:title=" ">
<path fill="none" stroke="#63b8ff" d="M243.8,-339.54C255.03,-335.65 267.58,-330.97 278.75,-326 302.8,-315.3 329,-300.88 347.93,-289.95"/>
<polygon fill="#63b8ff" stroke="#63b8ff" points="349.5,-292.5 356.37,-284.43 345.97,-286.45 349.5,-292.5"/>
</a>
</g>
</g>
<!-- Node4 -->
<g id="Node000004" class="node">
<title>Node4</title>
<g id="a_Node000004"><a xlink:href="logger_8hpp.html#a49284b7befa8e31f81e01ee8f3735dd0" target="_top" xlink:title="Функция, которая снимает значение текущего времени и конвертирует его в строку с заданным шаблоном.">
<polygon fill="white" stroke="#666666" points="578.12,-341 489.38,-341 489.38,-321 578.12,-321 578.12,-341"/>
<text text-anchor="middle" x="533.75" y="-327.5" font-family="Helvetica,sans-Serif" font-size="10.00">get_current_time</text>
</a>
</g>
</g>
<!-- Node3&#45;&gt;Node4 -->
<g id="edge3_Node000003_Node000004" class="edge">
<title>Node3&#45;&gt;Node4</title>
<g id="a_edge3_Node000003_Node000004"><a xlink:title=" ">
<path fill="none" stroke="#63b8ff" d="M401.67,-284.5C420.91,-292.42 448.21,-303.37 472.5,-312 477.54,-313.79 482.84,-315.59 488.13,-317.32"/>
<polygon fill="#63b8ff" stroke="#63b8ff" points="486.61,-320.83 497.2,-320.57 488.75,-314.17 486.61,-320.83"/>
</a>
</g>
</g>
<!-- Node5 -->
<g id="Node000005" class="node">
<title>Node5</title>
<g id="a_Node000005"><a xlink:href="class_logger.html#a6edb7b263f080d417b82a537ed50fee4" target="_top" xlink:title="Возвращает тег в зависимости от уровня логирования и от назначения тега.">
<polygon fill="white" stroke="#666666" points="575.5,-303 492,-303 492,-283 575.5,-283 575.5,-303"/>
<text text-anchor="middle" x="533.75" y="-289.5" font-family="Helvetica,sans-Serif" font-size="10.00">Logger::get_tag</text>
</a>
</g>
</g>
<!-- Node3&#45;&gt;Node5 -->
<g id="edge4_Node000003_Node000005" class="edge">
<title>Node3&#45;&gt;Node5</title>
<g id="a_edge4_Node000003_Node000005"><a xlink:title=" ">
<path fill="none" stroke="#63b8ff" d="M407.84,-277.8C428.68,-280.33 456.58,-283.73 480.73,-286.67"/>
<polygon fill="#63b8ff" stroke="#63b8ff" points="480.17,-290.25 490.52,-287.98 481.01,-283.3 480.17,-290.25"/>
</a>
</g>
</g>
<!-- Node6 -->
<g id="Node000006" class="node">
<title>Node6</title>
<g id="a_Node000006"><a xlink:href="class_logger.html#a4825613142ebb093bf8fa26f21f7f3fc" target="_top" xlink:title="Метод, который выводит сообщение в консоль.">
<polygon fill="white" stroke="#666666" points="595,-265 472.5,-265 472.5,-245 595,-245 595,-265"/>
<text text-anchor="middle" x="533.75" y="-251.5" font-family="Helvetica,sans-Serif" font-size="10.00">Logger::print_to_console</text>
</a>
</g>
</g>
<!-- Node3&#45;&gt;Node6 -->
<g id="edge5_Node000003_Node000006" class="edge">
<title>Node3&#45;&gt;Node6</title>
<g id="a_edge5_Node000003_Node000006"><a xlink:title=" ">
<path fill="none" stroke="#63b8ff" d="M407.84,-270.2C423.31,-268.32 442.68,-265.96 461.51,-263.67"/>
<polygon fill="#63b8ff" stroke="#63b8ff" points="461.69,-267.05 471.2,-262.37 460.85,-260.1 461.69,-267.05"/>
</a>
</g>
</g>
<!-- Node7 -->
<g id="Node000007" class="node">
<title>Node7</title>
<g id="a_Node000007"><a xlink:href="class_logger.html#a999bb33f7cf079cb98f32fae6016a2f3" target="_top" xlink:title="Метод, который записывает сообщение в файл.">
<polygon fill="white" stroke="#666666" points="584.12,-227 483.38,-227 483.38,-207 584.12,-207 584.12,-227"/>
<text text-anchor="middle" x="533.75" y="-213.5" font-family="Helvetica,sans-Serif" font-size="10.00">Logger::print_to_file</text>
</a>
</g>
</g>
<!-- Node3&#45;&gt;Node7 -->
<g id="edge6_Node000003_Node000007" class="edge">
<title>Node3&#45;&gt;Node7</title>
<g id="a_edge6_Node000003_Node000007"><a xlink:title=" ">
<path fill="none" stroke="#63b8ff" d="M401.67,-263.5C420.91,-255.58 448.21,-244.63 472.5,-236 477.54,-234.21 482.84,-232.41 488.13,-230.68"/>
<polygon fill="#63b8ff" stroke="#63b8ff" points="488.75,-233.83 497.2,-227.43 486.61,-227.17 488.75,-233.83"/>
</a>
</g>
</g>
<!-- Node8&#45;&gt;Node3 -->
<g id="edge8_Node000008_Node000003" class="edge">
<title>Node8&#45;&gt;Node3</title>
<g id="a_edge8_Node000008_Node000003"><a xlink:title=" ">
<path fill="none" stroke="#63b8ff" d="M263.67,-274C286,-274 311.67,-274 332.69,-274"/>
<polygon fill="#63b8ff" stroke="#63b8ff" points="332.52,-277.5 342.52,-274 332.52,-270.5 332.52,-277.5"/>
</a>
</g>
</g>
<!-- Node10&#45;&gt;Node3 -->
<g id="edge12_Node000010_Node000003" class="edge">
<title>Node10&#45;&gt;Node3</title>
<g id="a_edge12_Node000010_Node000003"><a xlink:title=" ">
<path fill="none" stroke="#63b8ff" d="M254.6,-208.4C262.76,-210.85 271.11,-213.73 278.75,-217 304.67,-228.11 332.12,-245.02 350.98,-257.54"/>
<polygon fill="#63b8ff" stroke="#63b8ff" points="348.75,-260.94 359,-263.64 352.67,-255.14 348.75,-260.94"/>
</a>
</g>
</g>
<!-- Node14 -->
<g id="Node000014" class="node">
<title>Node14</title>
<g id="a_Node000014"><a xlink:href="class_device_set.html#a9b806652a49bcc00d4fe635235c9596d" target="_top" xlink:title="Присваивает флагу stop_request значение true, тем самым, останавливая процес измерения">
<polygon fill="white" stroke="#666666" points="436.5,-20 314.75,-20 314.75,0 436.5,0 436.5,-20"/>
<text text-anchor="middle" x="375.62" y="-6.5" font-family="Helvetica,sans-Serif" font-size="10.00">DeviceSet::request_stop</text>
</a>
</g>
</g>
<!-- Node13&#45;&gt;Node14 -->
<g id="edge16_Node000013_Node000014" class="edge">
<title>Node13&#45;&gt;Node14</title>
<g id="a_edge16_Node000013_Node000014"><a xlink:title=" ">
<path fill="none" stroke="#63b8ff" d="M278.5,-10C286.76,-10 295.22,-10 303.54,-10"/>
<polygon fill="#63b8ff" stroke="#63b8ff" points="303.35,-13.5 313.35,-10 303.35,-6.5 303.35,-13.5"/>
</a>
</g>
</g>
<!-- Node15&#45;&gt;Node3 -->
<g id="edge18_Node000015_Node000003" class="edge">
<title>Node15&#45;&gt;Node3</title>
<g id="a_edge18_Node000015_Node000003"><a xlink:title=" ">
<path fill="none" stroke="#63b8ff" d="M258.81,-66.34C266.03,-69.64 272.98,-73.8 278.75,-79 332.84,-127.76 359.87,-213.86 369.89,-253.26"/>
<polygon fill="#63b8ff" stroke="#63b8ff" points="366.71,-254 372.47,-262.9 373.52,-252.35 366.71,-254"/>
</a>
</g>
</g>
</g>
</svg>

<g id="navigator" transform="translate(0 0)" fill="#404254">
  <rect fill="#f2f5e9" fill-opacity="0.5" stroke="#606060" stroke-width=".5" x="0" y="0" width="60" height="60"/>
  <use id="zoomplus" xlink:href="#zoomPlus" x="17" y="9" onmousedown="handleZoom(evt,'in')"/>
  <use id="zoomminus" xlink:href="#zoomMin" x="42" y="9" onmousedown="handleZoom(evt,'out')"/>
  <use id="reset" xlink:href="#resetDef" x="30" y="36" onmousedown="handleReset()"/>
   <use id="arrowup" xlink:href="#arrowUp" x="0" y="0" onmousedown="handlePan(0,-1)"/>
  <use id="arrowright" xlink:href="#arrowRight" x="0" y="0" onmousedown="handlePan(1,0)"/>
  <use id="arrowdown" xlink:href="#arrowDown" x="0" y="0" onmousedown="handlePan(0,1)"/>
  <use id="arrowleft" xlink:href="#arrowLeft" x="0" y="0" onmousedown="handlePan(-1,0)"/>
</g>
<svg viewBox="0 0 15 15" width="100%" height="30px" preserveAspectRatio="xMaxYMin meet">
 <g id="arrow_out" transform="scale(0.3 0.3)">
  <a xlink:href="main_8cpp_aef72d10ff26fe620d5f0a0f8412d7a2b_cgraph_org.svg" target="_base">
   <rect id="button" ry="5" rx="5" y="6" x="6" height="38" width="38"
        fill="#f2f5e9" fill-opacity="0.5" stroke="#606060" stroke-width="1.0"/>
   <path id="arrow"
     d="M 11.500037,31.436501 C 11.940474,20.09759 22.043105,11.32322 32.158766,21.979434 L 37.068811,17.246167 C 37.068811,17.246167 37.088388,32 37.088388,32 L 22.160133,31.978069 C 22.160133,31.978069 26.997745,27.140456 26.997745,27.140456 C 18.528582,18.264221 13.291696,25.230495 11.500037,31.436501 z"
     style="fill:#404040;"/>
  </a>
 </g>
</svg>

<style type='text/css'>
<![CDATA[
[data-mouse-over-selected='false'] { opacity: 0.7; }
[data-mouse-over-selected='true']  { opacity: 1.0; }
]]>
</style>
<script type="application/ecmascript"><![CDATA[
document.addEventListener('DOMContentLoaded', (event) => {
  highlightEdges();
  highlightAdjacentNodes();
});
]]></script>
</svg>
