<?xml version="1.0" encoding="UTF-8" standalone="no"?>
<!DOCTYPE svg PUBLIC "-//W3C//DTD SVG 1.1//EN"
 "http://www.w3.org/Graphics/SVG/1.1/DTD/svg11.dtd">
<!-- Generated by graphviz version 8.0.5 (20230430.1635)
 -->
<!-- Title: string_utils::lstrip Pages: 1 -->
<svg width="498pt" height="85pt"
 viewBox="0.00 0.00 498.00 85.00" xmlns="http://www.w3.org/2000/svg" xmlns:xlink="http://www.w3.org/1999/xlink">
<g id="graph0" class="graph" transform="scale(1 1) rotate(0) translate(4 81)">
<title>string_utils::lstrip</title>
<!-- Node1 -->
<g id="Node000001" class="node">
<title>Node1</title>
<g id="a_Node000001"><a xlink:title=" ">
<polygon fill="#999999" stroke="#666666" points="490,-39 399.75,-39 399.75,-19 490,-19 490,-39"/>
<text text-anchor="middle" x="444.88" y="-25.5" font-family="Helvetica,sans-Serif" font-size="10.00">string_utils::lstrip</text>
</a>
</g>
</g>
<!-- Node2 -->
<g id="Node000002" class="node">
<title>Node2</title>
<g id="a_Node000002"><a xlink:href="class_tesart_rbd.html#a650fde87d6af5531ac225689e1f912f1" target="_top" xlink:title=" ">
<polygon fill="white" stroke="#666666" points="363.75,-58 270.5,-58 270.5,-38 363.75,-38 363.75,-58"/>
<text text-anchor="middle" x="317.12" y="-44.5" font-family="Helvetica,sans-Serif" font-size="10.00">TesartRbd::status</text>
</a>
</g>
</g>
<!-- Node1&#45;&gt;Node2 -->
<g id="edge1_Node000001_Node000002" class="edge">
<title>Node1&#45;&gt;Node2</title>
<g id="a_edge1_Node000001_Node000002"><a xlink:title=" ">
<path fill="none" stroke="#63b8ff" d="M388.87,-37.31C380.63,-38.56 372.21,-39.83 364.19,-41.04"/>
<polygon fill="#63b8ff" stroke="#63b8ff" points="389.18,-40.65 398.54,-35.7 388.13,-33.73 389.18,-40.65"/>
</a>
</g>
</g>
<!-- Node6 -->
<g id="Node000006" class="node">
<title>Node6</title>
<g id="a_Node000006"><a xlink:href="class_tesart_rbd.html#a149160a31d947bef5d67b8bec64c52b2" target="_top" xlink:title=" ">
<polygon fill="white" stroke="#666666" points="363.75,-20 270.5,-20 270.5,0 363.75,0 363.75,-20"/>
<text text-anchor="middle" x="317.12" y="-6.5" font-family="Helvetica,sans-Serif" font-size="10.00">TesartRbd::status</text>
</a>
</g>
</g>
<!-- Node1&#45;&gt;Node6 -->
<g id="edge5_Node000001_Node000006" class="edge">
<title>Node1&#45;&gt;Node6</title>
<g id="a_edge5_Node000001_Node000006"><a xlink:title=" ">
<path fill="none" stroke="#63b8ff" d="M388.87,-20.69C380.63,-19.44 372.21,-18.17 364.19,-16.96"/>
<polygon fill="#63b8ff" stroke="#63b8ff" points="388.13,-24.27 398.54,-22.3 389.18,-17.35 388.13,-24.27"/>
</a>
</g>
</g>
<!-- Node3 -->
<g id="Node000003" class="node">
<title>Node3</title>
<g id="a_Node000003"><a xlink:href="class_tesart_rbd.html#a9a7da6f896259d62e9f1b1850371fa5e" target="_top" xlink:title=" ">
<polygon fill="white" stroke="#666666" points="234.5,-77 121,-77 121,-57 234.5,-57 234.5,-77"/>
<text text-anchor="middle" x="177.75" y="-63.5" font-family="Helvetica,sans-Serif" font-size="10.00">TesartRbd::is_stopped</text>
</a>
</g>
</g>
<!-- Node2&#45;&gt;Node3 -->
<g id="edge2_Node000002_Node000003" class="edge">
<title>Node2&#45;&gt;Node3</title>
<g id="a_edge2_Node000002_Node000003"><a xlink:title=" ">
<path fill="none" stroke="#63b8ff" d="M259.74,-55.8C251.51,-56.94 243.03,-58.11 234.81,-59.25"/>
<polygon fill="#63b8ff" stroke="#63b8ff" points="259.95,-59.16 269.38,-54.33 259,-52.23 259.95,-59.16"/>
</a>
</g>
</g>
<!-- Node5 -->
<g id="Node000005" class="node">
<title>Node5</title>
<g id="a_Node000005"><a xlink:href="class_tesart_rbd.html#a592c41abaa2f8d44ffecb17434644d51" target="_top" xlink:title=" ">
<polygon fill="white" stroke="#666666" points="233,-39 122.5,-39 122.5,-19 233,-19 233,-39"/>
<text text-anchor="middle" x="177.75" y="-25.5" font-family="Helvetica,sans-Serif" font-size="10.00">TesartRbd::TesartRbd</text>
</a>
</g>
</g>
<!-- Node2&#45;&gt;Node5 -->
<g id="edge4_Node000002_Node000005" class="edge">
<title>Node2&#45;&gt;Node5</title>
<g id="a_edge4_Node000002_Node000005"><a xlink:title=" ">
<path fill="none" stroke="#63b8ff" d="M259.59,-40.18C250.92,-38.98 241.98,-37.75 233.35,-36.55"/>
<polygon fill="#63b8ff" stroke="#63b8ff" points="259,-43.77 269.38,-41.67 259.95,-36.84 259,-43.77"/>
</a>
</g>
</g>
<!-- Node4 -->
<g id="Node000004" class="node">
<title>Node4</title>
<g id="a_Node000004"><a xlink:href="class_tesart_rbd.html#abd28c6d7c0d3ccbc76cae094ab825317" target="_top" xlink:title=" ">
<polygon fill="white" stroke="#666666" points="85,-77 0,-77 0,-57 85,-57 85,-77"/>
<text text-anchor="middle" x="42.5" y="-63.5" font-family="Helvetica,sans-Serif" font-size="10.00">TesartRbd::stop</text>
</a>
</g>
</g>
<!-- Node3&#45;&gt;Node4 -->
<g id="edge3_Node000003_Node000004" class="edge">
<title>Node3&#45;&gt;Node4</title>
<g id="a_edge3_Node000003_Node000004"><a xlink:title=" ">
<path fill="none" stroke="#63b8ff" d="M109.75,-67C101.45,-67 93.16,-67 85.39,-67"/>
<polygon fill="#63b8ff" stroke="#63b8ff" points="109.63,-70.5 119.63,-67 109.63,-63.5 109.63,-70.5"/>
</a>
</g>
</g>
</g>
</svg>
