<?xml version="1.0" encoding="UTF-8" standalone="no"?>
<!DOCTYPE svg PUBLIC "-//W3C//DTD SVG 1.1//EN"
 "http://www.w3.org/Graphics/SVG/1.1/DTD/svg11.dtd">
<!-- Generated by graphviz version 8.1.0 (20230707.0739)
 -->
<!-- Title: string_utils::lstrip Pages: 1 -->
<svg width="651pt" height="204pt"
 viewBox="0.00 0.00 651.25 204.00" xmlns="http://www.w3.org/2000/svg" xmlns:xlink="http://www.w3.org/1999/xlink">
<g id="graph0" class="graph" transform="scale(1 1) rotate(0) translate(4 200)">
<title>string_utils::lstrip</title>
<!-- Node1 -->
<g id="Node000001" class="node">
<title>Node1</title>
<g id="a_Node000001"><a xlink:title="Делит строку на две части по требуемому символу и возвращает содержимое правой части">
<polygon fill="#999999" stroke="#666666" points="643.25,-39 553,-39 553,-19 643.25,-19 643.25,-39"/>
<text text-anchor="middle" x="598.12" y="-25.5" font-family="Helvetica,sans-Serif" font-size="10.00">string_utils::lstrip</text>
</a>
</g>
</g>
<!-- Node2 -->
<g id="Node000002" class="node">
<title>Node2</title>
<g id="a_Node000002"><a xlink:href="class_tesart_rbd.html#affbded46e17aa303601ba7ef885107b8" target="_top" xlink:title="Запрос статуса оси ОПУ по номеру оси">
<polygon fill="white" stroke="#666666" points="517,-58 423.75,-58 423.75,-38 517,-38 517,-58"/>
<text text-anchor="middle" x="470.38" y="-44.5" font-family="Helvetica,sans-Serif" font-size="10.00">TesartRbd::status</text>
</a>
</g>
</g>
<!-- Node1&#45;&gt;Node2 -->
<g id="edge1_Node000001_Node000002" class="edge">
<title>Node1&#45;&gt;Node2</title>
<g id="a_edge1_Node000001_Node000002"><a xlink:title=" ">
<path fill="none" stroke="#63b8ff" d="M542.12,-37.31C533.88,-38.56 525.46,-39.83 517.44,-41.04"/>
<polygon fill="#63b8ff" stroke="#63b8ff" points="542.43,-40.65 551.79,-35.7 541.38,-33.73 542.43,-40.65"/>
</a>
</g>
</g>
<!-- Node12 -->
<g id="Node000012" class="node">
<title>Node12</title>
<g id="a_Node000012"><a xlink:href="class_tesart_rbd.html#a8868208a84be63fde36300b16e315423" target="_top" xlink:title="Запрос статуса оси ОПУ по номеру оси по указателю на нужную ось">
<polygon fill="white" stroke="#666666" points="517,-20 423.75,-20 423.75,0 517,0 517,-20"/>
<text text-anchor="middle" x="470.38" y="-6.5" font-family="Helvetica,sans-Serif" font-size="10.00">TesartRbd::status</text>
</a>
</g>
</g>
<!-- Node1&#45;&gt;Node12 -->
<g id="edge11_Node000001_Node000012" class="edge">
<title>Node1&#45;&gt;Node12</title>
<g id="a_edge11_Node000001_Node000012"><a xlink:title=" ">
<path fill="none" stroke="#63b8ff" d="M542.12,-20.69C533.88,-19.44 525.46,-18.17 517.44,-16.96"/>
<polygon fill="#63b8ff" stroke="#63b8ff" points="541.38,-24.27 551.79,-22.3 542.43,-17.35 541.38,-24.27"/>
</a>
</g>
</g>
<!-- Node3 -->
<g id="Node000003" class="node">
<title>Node3</title>
<g id="a_Node000003"><a xlink:href="class_tesart_rbd.html#a9a7da6f896259d62e9f1b1850371fa5e" target="_top" xlink:title="Метод позволяет проверить, остановлена ли ось">
<polygon fill="white" stroke="#666666" points="387.75,-77 274.25,-77 274.25,-57 387.75,-57 387.75,-77"/>
<text text-anchor="middle" x="331" y="-63.5" font-family="Helvetica,sans-Serif" font-size="10.00">TesartRbd::is_stopped</text>
</a>
</g>
</g>
<!-- Node2&#45;&gt;Node3 -->
<g id="edge2_Node000002_Node000003" class="edge">
<title>Node2&#45;&gt;Node3</title>
<g id="a_edge2_Node000002_Node000003"><a xlink:title=" ">
<path fill="none" stroke="#63b8ff" d="M412.99,-55.8C404.76,-56.94 396.28,-58.11 388.06,-59.25"/>
<polygon fill="#63b8ff" stroke="#63b8ff" points="413.2,-59.16 422.63,-54.33 412.25,-52.23 413.2,-59.16"/>
</a>
</g>
</g>
<!-- Node11 -->
<g id="Node000011" class="node">
<title>Node11</title>
<g id="a_Node000011"><a xlink:href="class_tesart_rbd.html#a592c41abaa2f8d44ffecb17434644d51" target="_top" xlink:title="Конструктор, в который передаётся адрес (или список одресов, разделённых символом &#39;;&#39;)">
<polygon fill="white" stroke="#666666" points="386.25,-39 275.75,-39 275.75,-19 386.25,-19 386.25,-39"/>
<text text-anchor="middle" x="331" y="-25.5" font-family="Helvetica,sans-Serif" font-size="10.00">TesartRbd::TesartRbd</text>
</a>
</g>
</g>
<!-- Node2&#45;&gt;Node11 -->
<g id="edge10_Node000002_Node000011" class="edge">
<title>Node2&#45;&gt;Node11</title>
<g id="a_edge10_Node000002_Node000011"><a xlink:title=" ">
<path fill="none" stroke="#63b8ff" d="M412.84,-40.18C404.17,-38.98 395.23,-37.75 386.6,-36.55"/>
<polygon fill="#63b8ff" stroke="#63b8ff" points="412.25,-43.77 422.63,-41.67 413.2,-36.84 412.25,-43.77"/>
</a>
</g>
</g>
<!-- Node4 -->
<g id="Node000004" class="node">
<title>Node4</title>
<g id="a_Node000004"><a xlink:href="class_tesart_rbd.html#a1317670f51c7e529ca5960e69b7563a7" target="_top" xlink:title="Поворачивает ось до тех пор, пока она не достигнет требуемого угла">
<polygon fill="white" stroke="#666666" points="238.25,-96 149.5,-96 149.5,-76 238.25,-76 238.25,-96"/>
<text text-anchor="middle" x="193.88" y="-82.5" font-family="Helvetica,sans-Serif" font-size="10.00">TesartRbd::move</text>
</a>
</g>
</g>
<!-- Node3&#45;&gt;Node4 -->
<g id="edge3_Node000003_Node000004" class="edge">
<title>Node3&#45;&gt;Node4</title>
<g id="a_edge3_Node000003_Node000004"><a xlink:title=" ">
<path fill="none" stroke="#63b8ff" d="M263.04,-76.42C254.77,-77.58 246.48,-78.74 238.68,-79.84"/>
<polygon fill="#63b8ff" stroke="#63b8ff" points="263.45,-79.75 272.87,-74.89 262.48,-72.82 263.45,-79.75"/>
</a>
</g>
</g>
<!-- Node10 -->
<g id="Node000010" class="node">
<title>Node10</title>
<g id="a_Node000010"><a xlink:href="class_tesart_rbd.html#abd28c6d7c0d3ccbc76cae094ab825317" target="_top" xlink:title="Остановка всех осей">
<polygon fill="white" stroke="#666666" points="236.38,-58 151.38,-58 151.38,-38 236.38,-38 236.38,-58"/>
<text text-anchor="middle" x="193.88" y="-44.5" font-family="Helvetica,sans-Serif" font-size="10.00">TesartRbd::stop</text>
</a>
</g>
</g>
<!-- Node3&#45;&gt;Node10 -->
<g id="edge9_Node000003_Node000010" class="edge">
<title>Node3&#45;&gt;Node10</title>
<g id="a_edge9_Node000003_Node000010"><a xlink:title=" ">
<path fill="none" stroke="#63b8ff" d="M263.26,-57.62C254.18,-56.34 245.08,-55.06 236.61,-53.87"/>
<polygon fill="#63b8ff" stroke="#63b8ff" points="262.48,-61.18 272.87,-59.11 263.45,-54.25 262.48,-61.18"/>
</a>
</g>
</g>
<!-- Node5 -->
<g id="Node000005" class="node">
<title>Node5</title>
<g id="a_Node000005"><a xlink:href="class_tesart_rbd.html#a3d5ce486456ebdac4128023e4c307903" target="_top" xlink:title="Устанавливает угловую точку, соответствующую началу диапазона.">
<polygon fill="white" stroke="#666666" points="107.88,-196 5.62,-196 5.62,-164 107.88,-164 107.88,-196"/>
<text text-anchor="start" x="13.62" y="-182.5" font-family="Helvetica,sans-Serif" font-size="10.00">TesartRbd::move_to</text>
<text text-anchor="middle" x="56.75" y="-170.5" font-family="Helvetica,sans-Serif" font-size="10.00">_start_angle</text>
</a>
</g>
</g>
<!-- Node4&#45;&gt;Node5 -->
<g id="edge4_Node000004_Node000005" class="edge">
<title>Node4&#45;&gt;Node5</title>
<g id="a_edge4_Node000004_Node000005"><a xlink:title=" ">
<path fill="none" stroke="#63b8ff" d="M175.25,-104.05C159.92,-119.05 136.61,-140.23 113.5,-155 108.67,-158.08 103.4,-160.98 98.09,-163.63"/>
<polygon fill="#63b8ff" stroke="#63b8ff" points="177.27,-106.98 181.89,-97.44 172.33,-102.02 177.27,-106.98"/>
</a>
</g>
</g>
<!-- Node6 -->
<g id="Node000006" class="node">
<title>Node6</title>
<g id="a_Node000006"><a xlink:href="class_tesart_rbd.html#a55d5b271d03db8d05abea14ea52be540" target="_top" xlink:title="Устанавливает угловую точку, соответствующую концу диапазона.">
<polygon fill="white" stroke="#666666" points="107.88,-146 5.62,-146 5.62,-114 107.88,-114 107.88,-146"/>
<text text-anchor="start" x="13.62" y="-132.5" font-family="Helvetica,sans-Serif" font-size="10.00">TesartRbd::move_to</text>
<text text-anchor="middle" x="56.75" y="-120.5" font-family="Helvetica,sans-Serif" font-size="10.00">_stop_angle</text>
</a>
</g>
</g>
<!-- Node4&#45;&gt;Node6 -->
<g id="edge5_Node000004_Node000006" class="edge">
<title>Node4&#45;&gt;Node6</title>
<g id="a_edge5_Node000004_Node000006"><a xlink:title=" ">
<path fill="none" stroke="#63b8ff" d="M150.5,-99.8C137.11,-104.16 122.19,-109.02 108.3,-113.54"/>
<polygon fill="#63b8ff" stroke="#63b8ff" points="151.43,-102.85 159.85,-96.43 149.26,-96.2 151.43,-102.85"/>
</a>
</g>
</g>
<!-- Node7 -->
<g id="Node000007" class="node">
<title>Node7</title>
<g id="a_Node000007"><a xlink:href="class_tesart_rbd.html#aa064f5779459c676b41d3c22f8202bc8" target="_top" xlink:title="Переход к следующей угловой точке">
<polygon fill="white" stroke="#666666" points="113.5,-96 0,-96 0,-76 113.5,-76 113.5,-96"/>
<text text-anchor="middle" x="56.75" y="-82.5" font-family="Helvetica,sans-Serif" font-size="10.00">TesartRbd::next_angle</text>
</a>
</g>
</g>
<!-- Node4&#45;&gt;Node7 -->
<g id="edge6_Node000004_Node000007" class="edge">
<title>Node4&#45;&gt;Node7</title>
<g id="a_edge6_Node000004_Node000007"><a xlink:title=" ">
<path fill="none" stroke="#63b8ff" d="M138.21,-86C130.14,-86 121.82,-86 113.73,-86"/>
<polygon fill="#63b8ff" stroke="#63b8ff" points="138,-89.5 148,-86 138,-82.5 138,-89.5"/>
</a>
</g>
</g>
<!-- Node8 -->
<g id="Node000008" class="node">
<title>Node8</title>
<g id="a_Node000008"><a xlink:href="class_tesart_rbd.html#a33a877f951cb3096020d9cb8ab406c63" target="_top" xlink:title="Переход к предыдущей угловой точке">
<polygon fill="white" stroke="#666666" points="112.75,-58 0.75,-58 0.75,-38 112.75,-38 112.75,-58"/>
<text text-anchor="middle" x="56.75" y="-44.5" font-family="Helvetica,sans-Serif" font-size="10.00">TesartRbd::prev_angle</text>
</a>
</g>
</g>
<!-- Node4&#45;&gt;Node8 -->
<g id="edge7_Node000004_Node000008" class="edge">
<title>Node4&#45;&gt;Node8</title>
<g id="a_edge7_Node000004_Node000008"><a xlink:title=" ">
<path fill="none" stroke="#63b8ff" d="M145.06,-72.55C128.59,-67.92 110.4,-62.81 94.91,-58.45"/>
<polygon fill="#63b8ff" stroke="#63b8ff" points="144.02,-76.18 154.59,-75.52 145.91,-69.44 144.02,-76.18"/>
</a>
</g>
</g>
<!-- Node9 -->
<g id="Node000009" class="node">
<title>Node9</title>
<g id="a_Node000009"><a xlink:href="class_tesart_rbd.html#a0d830bf286416fb259ca84edd583bce3" target="_top" xlink:title="Поворачивает ось ОПУ на требуемый угол">
<polygon fill="white" stroke="#666666" points="110.88,-20 2.62,-20 2.62,0 110.88,0 110.88,-20"/>
<text text-anchor="middle" x="56.75" y="-6.5" font-family="Helvetica,sans-Serif" font-size="10.00">TesartRbd::set_angle</text>
</a>
</g>
</g>
<!-- Node4&#45;&gt;Node9 -->
<g id="edge8_Node000004_Node000009" class="edge">
<title>Node4&#45;&gt;Node9</title>
<g id="a_edge8_Node000004_Node000009"><a xlink:title=" ">
<path fill="none" stroke="#63b8ff" d="M154.88,-70.46C153.02,-69.36 151.22,-68.21 149.5,-67 130.47,-53.62 133.08,-41.56 113.5,-29 108.25,-25.63 102.34,-22.79 96.37,-20.41"/>
<polygon fill="#63b8ff" stroke="#63b8ff" points="152.98,-73.94 163.46,-75.51 156.24,-67.75 152.98,-73.94"/>
</a>
</g>
</g>
</g>
</svg>
