<?xml version="1.0" encoding="UTF-8" standalone="no"?>
<!DOCTYPE svg PUBLIC "-//W3C//DTD SVG 1.1//EN"
 "http://www.w3.org/Graphics/SVG/1.1/DTD/svg11.dtd">
<!-- Generated by graphviz version 8.1.0 (20230707.0739)
 -->
<!-- Title: string_utils::split Pages: 1 -->
<svg width="265pt" height="104pt"
 viewBox="0.00 0.00 265.00 104.00" xmlns="http://www.w3.org/2000/svg" xmlns:xlink="http://www.w3.org/1999/xlink">
<g id="graph0" class="graph" transform="scale(1 1) rotate(0) translate(4 100)">
<title>string_utils::split</title>
<!-- Node1 -->
<g id="Node000001" class="node">
<title>Node1</title>
<g id="a_Node000001"><a xlink:title="Деление строки на вектор строк по заданному делителю">
<polygon fill="#999999" stroke="#666666" points="257,-58 169.75,-58 169.75,-38 257,-38 257,-58"/>
<text text-anchor="middle" x="213.38" y="-44.5" font-family="Helvetica,sans-Serif" font-size="10.00">string_utils::split</text>
</a>
</g>
</g>
<!-- Node2 -->
<g id="Node000002" class="node">
<title>Node2</title>
<g id="a_Node000002"><a xlink:href="class_keysight_m9807_a.html#a9a23e8c51407edd1aba3cf734d9ea71b" target="_top" xlink:title="Сбор данных, полученных в результате измерения, для одного порта">
<polygon fill="white" stroke="#666666" points="133.75,-96 0,-96 0,-76 133.75,-76 133.75,-96"/>
<text text-anchor="middle" x="66.88" y="-82.5" font-family="Helvetica,sans-Serif" font-size="10.00">KeysightM9807A::get_data</text>
</a>
</g>
</g>
<!-- Node1&#45;&gt;Node2 -->
<g id="edge1_Node000001_Node000002" class="edge">
<title>Node1&#45;&gt;Node2</title>
<g id="a_edge1_Node000001_Node000002"><a xlink:title=" ">
<path fill="none" stroke="#63b8ff" d="M162,-61.25C144.19,-65.93 124.42,-71.13 107.61,-75.55"/>
<polygon fill="#63b8ff" stroke="#63b8ff" points="162.73,-64.41 171.51,-58.48 160.95,-57.64 162.73,-64.41"/>
</a>
</g>
</g>
<!-- Node3 -->
<g id="Node000003" class="node">
<title>Node3</title>
<g id="a_Node000003"><a xlink:href="class_planar_s50244.html#af8e278b134bfe73329fee623c7c62ad2" target="_top" xlink:title="Сбор данных, полученных в результате измерения, для одного порта">
<polygon fill="white" stroke="#666666" points="127,-58 6.75,-58 6.75,-38 127,-38 127,-58"/>
<text text-anchor="middle" x="66.88" y="-44.5" font-family="Helvetica,sans-Serif" font-size="10.00">PlanarS50244::get_data</text>
</a>
</g>
</g>
<!-- Node1&#45;&gt;Node3 -->
<g id="edge2_Node000001_Node000003" class="edge">
<title>Node1&#45;&gt;Node3</title>
<g id="a_edge2_Node000001_Node000003"><a xlink:title=" ">
<path fill="none" stroke="#63b8ff" d="M158.58,-48C148.37,-48 137.63,-48 127.25,-48"/>
<polygon fill="#63b8ff" stroke="#63b8ff" points="158.41,-51.5 168.41,-48 158.41,-44.5 158.41,-51.5"/>
</a>
</g>
</g>
<!-- Node4 -->
<g id="Node000004" class="node">
<title>Node4</title>
<g id="a_Node000004"><a xlink:href="class_tesart_rbd.html#a592c41abaa2f8d44ffecb17434644d51" target="_top" xlink:title="Конструктор, в который передаётся адрес (или список одресов, разделённых символом &#39;;&#39;)">
<polygon fill="white" stroke="#666666" points="122.12,-20 11.62,-20 11.62,0 122.12,0 122.12,-20"/>
<text text-anchor="middle" x="66.88" y="-6.5" font-family="Helvetica,sans-Serif" font-size="10.00">TesartRbd::TesartRbd</text>
</a>
</g>
</g>
<!-- Node1&#45;&gt;Node4 -->
<g id="edge3_Node000001_Node000004" class="edge">
<title>Node1&#45;&gt;Node4</title>
<g id="a_edge3_Node000001_Node000004"><a xlink:title=" ">
<path fill="none" stroke="#63b8ff" d="M162,-34.75C144.19,-30.07 124.42,-24.87 107.61,-20.45"/>
<polygon fill="#63b8ff" stroke="#63b8ff" points="160.95,-38.36 171.51,-37.52 162.73,-31.59 160.95,-38.36"/>
</a>
</g>
</g>
</g>
</svg>
