<?xml version="1.0" encoding="UTF-8" standalone="no"?>
<!DOCTYPE svg PUBLIC "-//W3C//DTD SVG 1.1//EN"
 "http://www.w3.org/Graphics/SVG/1.1/DTD/svg11.dtd">
<!-- Generated by graphviz version 8.0.5 (20230430.1635)
 -->
<!-- Title: src/socket/socket_server.hpp Pages: 1 -->
<svg width="242pt" height="84pt"
 viewBox="0.00 0.00 241.88 84.00" xmlns="http://www.w3.org/2000/svg" xmlns:xlink="http://www.w3.org/1999/xlink">
<g id="graph0" class="graph" transform="scale(1 1) rotate(0) translate(4 80)">
<title>src/socket/socket_server.hpp</title>
<!-- Node1 -->
<g id="Node000001" class="node">
<title>Node1</title>
<g id="a_Node000001"><a xlink:title="Заголовочный файл, в котором объявляются класс SocketServer и необходимые константы">
<polygon fill="#999999" stroke="#666666" points="170.88,-76 27.38,-76 27.38,-56 170.88,-56 170.88,-76"/>
<text text-anchor="middle" x="99.12" y="-62.5" font-family="Helvetica,sans-Serif" font-size="10.00">src/socket/socket_server.hpp</text>
</a>
</g>
</g>
<!-- Node2 -->
<g id="Node000002" class="node">
<title>Node2</title>
<g id="a_Node000002"><a xlink:href="main_8cpp.html" target="_top" xlink:title=" ">
<polygon fill="white" stroke="#666666" points="72.25,-20 0,-20 0,0 72.25,0 72.25,-20"/>
<text text-anchor="middle" x="36.12" y="-6.5" font-family="Helvetica,sans-Serif" font-size="10.00">src/main.cpp</text>
</a>
</g>
</g>
<!-- Node1&#45;&gt;Node2 -->
<g id="edge1_Node000001_Node000002" class="edge">
<title>Node1&#45;&gt;Node2</title>
<g id="a_edge1_Node000001_Node000002"><a xlink:title=" ">
<path fill="none" stroke="#63b8ff" d="M80.08,-48.68C69.25,-39.39 56.06,-28.09 46.97,-20.3"/>
<polygon fill="#63b8ff" stroke="#63b8ff" points="77.28,-51.74 87.15,-55.59 81.84,-46.43 77.28,-51.74"/>
</a>
</g>
</g>
<!-- Node3 -->
<g id="Node000003" class="node">
<title>Node3</title>
<g id="a_Node000003"><a xlink:href="socket__server_8cpp.html" target="_top" xlink:title="Файл исходного кода, в котором реализованы конструкторы и методы для класа SocketServer.">
<polygon fill="white" stroke="#666666" points="233.88,-20 90.38,-20 90.38,0 233.88,0 233.88,-20"/>
<text text-anchor="middle" x="162.12" y="-6.5" font-family="Helvetica,sans-Serif" font-size="10.00">src/socket/socket_server.cpp</text>
</a>
</g>
</g>
<!-- Node1&#45;&gt;Node3 -->
<g id="edge2_Node000001_Node000003" class="edge">
<title>Node1&#45;&gt;Node3</title>
<g id="a_edge2_Node000001_Node000003"><a xlink:title=" ">
<path fill="none" stroke="#63b8ff" d="M118.17,-48.68C129,-39.39 142.19,-28.09 151.28,-20.3"/>
<polygon fill="#63b8ff" stroke="#63b8ff" points="116.41,-46.43 111.1,-55.59 120.97,-51.74 116.41,-46.43"/>
</a>
</g>
</g>
</g>
</svg>
