<?xml version="1.0" encoding="UTF-8" standalone="no"?>
<!DOCTYPE svg PUBLIC "-//W3C//DTD SVG 1.1//EN"
 "http://www.w3.org/Graphics/SVG/1.1/DTD/svg11.dtd">
<!-- Generated by graphviz version 8.0.5 (20230430.1635)
 -->
<!-- Title: src/utils/string_utils.hpp Pages: 1 -->
<svg width="383pt" height="164pt"
 viewBox="0.00 0.00 383.00 164.00" xmlns="http://www.w3.org/2000/svg" xmlns:xlink="http://www.w3.org/1999/xlink">
<g id="graph0" class="graph" transform="scale(1 1) rotate(0) translate(4 160)">
<title>src/utils/string_utils.hpp</title>
<!-- Node1 -->
<g id="Node000001" class="node">
<title>Node1</title>
<g id="a_Node000001"><a xlink:title="Заголовочный файл, в котором определено пространство имён string_utils.">
<polygon fill="#999999" stroke="#666666" points="240.88,-156 121.38,-156 121.38,-136 240.88,-136 240.88,-156"/>
<text text-anchor="middle" x="181.12" y="-142.5" font-family="Helvetica,sans-Serif" font-size="10.00">src/utils/string_utils.hpp</text>
</a>
</g>
</g>
<!-- Node2 -->
<g id="Node000002" class="node">
<title>Node2</title>
<g id="a_Node000002"><a xlink:href="demo__rdb_8hpp.html" target="_top" xlink:title=" ">
<polygon fill="white" stroke="#666666" points="108.25,-100 0,-100 0,-68 108.25,-68 108.25,-100"/>
<text text-anchor="start" x="8" y="-86.5" font-family="Helvetica,sans-Serif" font-size="10.00">src/devices/rbd/demo</text>
<text text-anchor="middle" x="54.12" y="-74.5" font-family="Helvetica,sans-Serif" font-size="10.00">_rdb.hpp</text>
</a>
</g>
</g>
<!-- Node1&#45;&gt;Node2 -->
<g id="edge1_Node000001_Node000002" class="edge">
<title>Node1&#45;&gt;Node2</title>
<g id="a_edge1_Node000001_Node000002"><a xlink:title=" ">
<path fill="none" stroke="#63b8ff" d="M151.45,-130.98C132.03,-121.8 106.64,-109.81 86.67,-100.37"/>
<polygon fill="#63b8ff" stroke="#63b8ff" points="149.74,-134.52 160.28,-135.62 152.73,-128.19 149.74,-134.52"/>
</a>
</g>
</g>
<!-- Node4 -->
<g id="Node000004" class="node">
<title>Node4</title>
<g id="a_Node000004"><a xlink:href="tesart__rbd_8cpp.html" target="_top" xlink:title=" ">
<polygon fill="white" stroke="#666666" points="235.62,-100 126.62,-100 126.62,-68 235.62,-68 235.62,-100"/>
<text text-anchor="start" x="134.62" y="-86.5" font-family="Helvetica,sans-Serif" font-size="10.00">src/devices/rbd/tesart</text>
<text text-anchor="middle" x="181.12" y="-74.5" font-family="Helvetica,sans-Serif" font-size="10.00">_rbd.cpp</text>
</a>
</g>
</g>
<!-- Node1&#45;&gt;Node4 -->
<g id="edge3_Node000001_Node000004" class="edge">
<title>Node1&#45;&gt;Node4</title>
<g id="a_edge3_Node000001_Node000004"><a xlink:title=" ">
<path fill="none" stroke="#63b8ff" d="M181.12,-124.87C181.12,-116.79 181.12,-107.64 181.12,-100.14"/>
<polygon fill="#63b8ff" stroke="#63b8ff" points="177.63,-124.62 181.12,-134.62 184.63,-124.63 177.63,-124.62"/>
</a>
</g>
</g>
<!-- Node5 -->
<g id="Node000005" class="node">
<title>Node5</title>
<g id="a_Node000005"><a xlink:href="keysight__m9807a_8cpp.html" target="_top" xlink:title=" ">
<polygon fill="white" stroke="#666666" points="375,-100 253.25,-100 253.25,-68 375,-68 375,-100"/>
<text text-anchor="start" x="261.25" y="-86.5" font-family="Helvetica,sans-Serif" font-size="10.00">src/devices/vna/keysight</text>
<text text-anchor="middle" x="314.12" y="-74.5" font-family="Helvetica,sans-Serif" font-size="10.00">_m9807a.cpp</text>
</a>
</g>
</g>
<!-- Node1&#45;&gt;Node5 -->
<g id="edge4_Node000001_Node000005" class="edge">
<title>Node1&#45;&gt;Node5</title>
<g id="a_edge4_Node000001_Node000005"><a xlink:title=" ">
<path fill="none" stroke="#63b8ff" d="M211.88,-131.12C232.18,-121.97 258.8,-109.96 279.79,-100.49"/>
<polygon fill="#63b8ff" stroke="#63b8ff" points="210.58,-128.32 202.91,-135.62 213.46,-134.7 210.58,-128.32"/>
</a>
</g>
</g>
<!-- Node3 -->
<g id="Node000003" class="node">
<title>Node3</title>
<g id="a_Node000003"><a xlink:href="device__set_8cpp.html" target="_top" xlink:title="Файл исходного кода, в котором реализованы методы для класа DeviceSet.">
<polygon fill="white" stroke="#666666" points="101.5,-32 6.75,-32 6.75,0 101.5,0 101.5,-32"/>
<text text-anchor="start" x="14.75" y="-18.5" font-family="Helvetica,sans-Serif" font-size="10.00">src/devices/device</text>
<text text-anchor="middle" x="54.12" y="-6.5" font-family="Helvetica,sans-Serif" font-size="10.00">_set.cpp</text>
</a>
</g>
</g>
<!-- Node2&#45;&gt;Node3 -->
<g id="edge2_Node000002_Node000003" class="edge">
<title>Node2&#45;&gt;Node3</title>
<g id="a_edge2_Node000002_Node000003"><a xlink:title=" ">
<path fill="none" stroke="#63b8ff" d="M54.12,-56.89C54.12,-48.52 54.12,-39.54 54.12,-32.22"/>
<polygon fill="#63b8ff" stroke="#63b8ff" points="50.63,-56.69 54.12,-66.69 57.63,-56.69 50.63,-56.69"/>
</a>
</g>
</g>
</g>
</svg>
