<?xml version="1.0" encoding="UTF-8" standalone="no"?>
<!DOCTYPE svg PUBLIC "-//W3C//DTD SVG 1.1//EN"
 "http://www.w3.org/Graphics/SVG/1.1/DTD/svg11.dtd">
<!-- Generated by graphviz version 8.1.0 (20230707.0739)
 -->
<!-- Title: src/task_manager.cpp Pages: 1 -->
<svg width="805pt" height="432pt"
 viewBox="0.00 0.00 805.38 432.00" xmlns="http://www.w3.org/2000/svg" xmlns:xlink="http://www.w3.org/1999/xlink">
<g id="graph0" class="graph" transform="scale(1 1) rotate(0) translate(4 428)">
<title>src/task_manager.cpp</title>
<!-- Node1 -->
<g id="Node000001" class="node">
<title>Node1</title>
<g id="a_Node000001"><a xlink:title="Файл исходного кода, в котором реализованы методы для класа TaskManager.">
<polygon fill="#999999" stroke="#666666" points="341.25,-424 228.5,-424 228.5,-404 341.25,-404 341.25,-424"/>
<text text-anchor="middle" x="284.88" y="-410.5" font-family="Helvetica,sans-Serif" font-size="10.00">src/task_manager.cpp</text>
</a>
</g>
</g>
<!-- Node2 -->
<g id="Node000002" class="node">
<title>Node2</title>
<g id="a_Node000002"><a xlink:href="task__manager_8hpp.html" target="_top" xlink:title="Заголовочный файл, в котором определён класс TaskManager и набор констант для работы с ним">
<polygon fill="white" stroke="#666666" points="392,-368 295.75,-368 295.75,-348 392,-348 392,-368"/>
<text text-anchor="middle" x="343.88" y="-354.5" font-family="Helvetica,sans-Serif" font-size="10.00">task_manager.hpp</text>
</a>
</g>
</g>
<!-- Node1&#45;&gt;Node2 -->
<g id="edge1_Node000001_Node000002" class="edge">
<title>Node1&#45;&gt;Node2</title>
<g id="a_edge1_Node000001_Node000002"><a xlink:title=" ">
<path fill="none" stroke="#63b8ff" d="M295.15,-403.59C303.61,-395.85 315.81,-384.69 325.88,-375.47"/>
<polygon fill="#63b8ff" stroke="#63b8ff" points="327.7,-378.63 332.72,-369.3 322.98,-373.47 327.7,-378.63"/>
</a>
</g>
</g>
<!-- Node28 -->
<g id="Node000028" class="node">
<title>Node28</title>
<g id="a_Node000028"><a xlink:href="array__utils_8hpp.html" target="_top" xlink:title="Файл, в котором определено пространство имён array_utils.">
<polygon fill="white" stroke="#666666" points="277.25,-368 176.5,-368 176.5,-348 277.25,-348 277.25,-368"/>
<text text-anchor="middle" x="226.88" y="-354.5" font-family="Helvetica,sans-Serif" font-size="10.00">utils/array_utils.hpp</text>
</a>
</g>
</g>
<!-- Node1&#45;&gt;Node28 -->
<g id="edge41_Node000001_Node000028" class="edge">
<title>Node1&#45;&gt;Node28</title>
<g id="a_edge41_Node000001_Node000028"><a xlink:title=" ">
<path fill="none" stroke="#63b8ff" d="M274.77,-403.59C266.54,-395.93 254.71,-384.91 244.86,-375.75"/>
<polygon fill="#63b8ff" stroke="#63b8ff" points="247.57,-373.55 237.86,-369.3 242.8,-378.67 247.57,-373.55"/>
</a>
</g>
</g>
<!-- Node3 -->
<g id="Node000003" class="node">
<title>Node3</title>
<g id="a_Node000003"><a xlink:title=" ">
<polygon fill="#e0e0e0" stroke="#999999" points="261.25,-312 208.5,-312 208.5,-292 261.25,-292 261.25,-312"/>
<text text-anchor="middle" x="234.88" y="-298.5" font-family="Helvetica,sans-Serif" font-size="10.00">json.hpp</text>
</a>
</g>
</g>
<!-- Node2&#45;&gt;Node3 -->
<g id="edge2_Node000002_Node000003" class="edge">
<title>Node2&#45;&gt;Node3</title>
<g id="a_edge2_Node000002_Node000003"><a xlink:title=" ">
<path fill="none" stroke="#63b8ff" d="M324.89,-347.59C308.03,-339.24 283.15,-326.92 263.82,-317.34"/>
<polygon fill="#63b8ff" stroke="#63b8ff" points="265.52,-313.78 255.01,-312.48 262.42,-320.05 265.52,-313.78"/>
</a>
</g>
</g>
<!-- Node4 -->
<g id="Node000004" class="node">
<title>Node4</title>
<g id="a_Node000004"><a xlink:href="device__set_8hpp.html" target="_top" xlink:title="Заголовочный файл, содержащий в себе класс DeviceSet и набор констант, необходимых для данного класса...">
<polygon fill="white" stroke="#666666" points="401.75,-312 286,-312 286,-292 401.75,-292 401.75,-312"/>
<text text-anchor="middle" x="343.88" y="-298.5" font-family="Helvetica,sans-Serif" font-size="10.00">devices/device_set.hpp</text>
</a>
</g>
</g>
<!-- Node2&#45;&gt;Node4 -->
<g id="edge3_Node000002_Node000004" class="edge">
<title>Node2&#45;&gt;Node4</title>
<g id="a_edge3_Node000002_Node000004"><a xlink:title=" ">
<path fill="none" stroke="#63b8ff" d="M343.88,-347.59C343.88,-340.86 343.88,-331.53 343.88,-323.15"/>
<polygon fill="#63b8ff" stroke="#63b8ff" points="347.38,-323.3 343.88,-313.3 340.38,-323.3 347.38,-323.3"/>
</a>
</g>
</g>
<!-- Node5 -->
<g id="Node000005" class="node">
<title>Node5</title>
<g id="a_Node000005"><a xlink:title=" ">
<polygon fill="#e0e0e0" stroke="#999999" points="55.75,-256 0,-256 0,-236 55.75,-236 55.75,-256"/>
<text text-anchor="middle" x="27.88" y="-242.5" font-family="Helvetica,sans-Serif" font-size="10.00">algorithm</text>
</a>
</g>
</g>
<!-- Node4&#45;&gt;Node5 -->
<g id="edge4_Node000004_Node000005" class="edge">
<title>Node4&#45;&gt;Node5</title>
<g id="a_edge4_Node000004_Node000005"><a xlink:title=" ">
<path fill="none" stroke="#63b8ff" d="M285.74,-292.29C230.17,-283.76 144.12,-270.04 69.88,-256 68.74,-255.79 67.59,-255.56 66.42,-255.34"/>
<polygon fill="#63b8ff" stroke="#63b8ff" points="67.35,-251.75 56.85,-253.19 65.96,-258.61 67.35,-251.75"/>
</a>
</g>
</g>
<!-- Node6 -->
<g id="Node000006" class="node">
<title>Node6</title>
<g id="a_Node000006"><a xlink:href="vna__device_8hpp.html" target="_top" xlink:title="Заголовочный файл, в котором реализован класс VnaDevice.">
<polygon fill="white" stroke="#666666" points="449.12,-194 350.62,-194 350.62,-174 449.12,-174 449.12,-194"/>
<text text-anchor="middle" x="399.88" y="-180.5" font-family="Helvetica,sans-Serif" font-size="10.00">vna/vna_device.hpp</text>
</a>
</g>
</g>
<!-- Node4&#45;&gt;Node6 -->
<g id="edge5_Node000004_Node000006" class="edge">
<title>Node4&#45;&gt;Node6</title>
<g id="a_edge5_Node000004_Node000006"><a xlink:title=" ">
<path fill="none" stroke="#63b8ff" d="M318.24,-291.6C291.29,-280.2 254.84,-259.58 270.88,-236 286.47,-213.07 314.13,-200.45 339.85,-193.5"/>
<polygon fill="#63b8ff" stroke="#63b8ff" points="340.45,-196.72 349.33,-190.94 338.79,-189.92 340.45,-196.72"/>
</a>
</g>
</g>
<!-- Node19 -->
<g id="Node000019" class="node">
<title>Node19</title>
<g id="a_Node000019"><a xlink:href="gen__device_8hpp.html" target="_top" xlink:title="Заголовочный файл, в котором представлен класс GenDevice и определён набор констант">
<polygon fill="white" stroke="#666666" points="260.62,-194 159.12,-194 159.12,-174 260.62,-174 260.62,-194"/>
<text text-anchor="middle" x="209.88" y="-180.5" font-family="Helvetica,sans-Serif" font-size="10.00">gen/gen_device.hpp</text>
</a>
</g>
</g>
<!-- Node4&#45;&gt;Node19 -->
<g id="edge19_Node000004_Node000019" class="edge">
<title>Node4&#45;&gt;Node19</title>
<g id="a_edge19_Node000004_Node000019"><a xlink:title=" ">
<path fill="none" stroke="#63b8ff" d="M285.66,-294.04C218.13,-285.37 114.5,-270 102.88,-256 81.2,-229.9 123.11,-209.74 160.67,-197.68"/>
<polygon fill="#63b8ff" stroke="#63b8ff" points="161.55,-200.77 170.09,-194.5 159.5,-194.07 161.55,-200.77"/>
</a>
</g>
</g>
<!-- Node20 -->
<g id="Node000020" class="node">
<title>Node20</title>
<g id="a_Node000020"><a xlink:href="rbd__device_8hpp.html" target="_top" xlink:title="Заголовочный файл, в котором реализован класс RbdDevice.">
<polygon fill="white" stroke="#666666" points="600.38,-194 503.38,-194 503.38,-174 600.38,-174 600.38,-194"/>
<text text-anchor="middle" x="551.88" y="-180.5" font-family="Helvetica,sans-Serif" font-size="10.00">rbd/rbd_device.hpp</text>
</a>
</g>
</g>
<!-- Node4&#45;&gt;Node20 -->
<g id="edge22_Node000004_Node000020" class="edge">
<title>Node4&#45;&gt;Node20</title>
<g id="a_edge22_Node000004_Node000020"><a xlink:title=" ">
<path fill="none" stroke="#63b8ff" d="M402.17,-294.77C452.93,-288.11 521.25,-275.75 539.88,-256 552.59,-242.52 554.6,-220.85 554.05,-204.99"/>
<polygon fill="#63b8ff" stroke="#63b8ff" points="557.48,-204.94 553.25,-195.23 550.5,-205.46 557.48,-204.94"/>
</a>
</g>
</g>
<!-- Node21 -->
<g id="Node000021" class="node">
<title>Node21</title>
<g id="a_Node000021"><a xlink:href="keysight__m9807a_8hpp.html" target="_top" xlink:title="Файл, в котором определён класс KeysightM9807A.">
<polygon fill="white" stroke="#666666" points="408.12,-256 279.62,-256 279.62,-236 408.12,-236 408.12,-256"/>
<text text-anchor="middle" x="343.88" y="-242.5" font-family="Helvetica,sans-Serif" font-size="10.00">vna/keysight_m9807a.hpp</text>
</a>
</g>
</g>
<!-- Node4&#45;&gt;Node21 -->
<g id="edge25_Node000004_Node000021" class="edge">
<title>Node4&#45;&gt;Node21</title>
<g id="a_edge25_Node000004_Node000021"><a xlink:title=" ">
<path fill="none" stroke="#63b8ff" d="M343.88,-291.59C343.88,-284.86 343.88,-275.53 343.88,-267.15"/>
<polygon fill="#63b8ff" stroke="#63b8ff" points="347.38,-267.3 343.88,-257.3 340.38,-267.3 347.38,-267.3"/>
</a>
</g>
</g>
<!-- Node22 -->
<g id="Node000022" class="node">
<title>Node22</title>
<g id="a_Node000022"><a xlink:href="planar__s50244_8h.html" target="_top" xlink:title="Файл, в котором определён класс PlanarS50244.">
<polygon fill="white" stroke="#666666" points="531.12,-256 426.62,-256 426.62,-236 531.12,-236 531.12,-256"/>
<text text-anchor="middle" x="478.88" y="-242.5" font-family="Helvetica,sans-Serif" font-size="10.00">vna/planar_s50244.h</text>
</a>
</g>
</g>
<!-- Node4&#45;&gt;Node22 -->
<g id="edge27_Node000004_Node000022" class="edge">
<title>Node4&#45;&gt;Node22</title>
<g id="a_edge27_Node000004_Node000022"><a xlink:title=" ">
<path fill="none" stroke="#63b8ff" d="M367.39,-291.59C388.84,-283.01 420.79,-270.23 445,-260.55"/>
<polygon fill="#63b8ff" stroke="#63b8ff" points="446.19,-263.44 454.18,-256.48 443.59,-256.94 446.19,-263.44"/>
</a>
</g>
</g>
<!-- Node23 -->
<g id="Node000023" class="node">
<title>Node23</title>
<g id="a_Node000023"><a xlink:href="keysight__gen_8hpp.html" target="_top" xlink:title="Заголовочный файл, в котором определён класс KeysightGen.">
<polygon fill="white" stroke="#666666" points="223.5,-256 112.25,-256 112.25,-236 223.5,-236 223.5,-256"/>
<text text-anchor="middle" x="167.88" y="-242.5" font-family="Helvetica,sans-Serif" font-size="10.00">gen/keysight_gen.hpp</text>
</a>
</g>
</g>
<!-- Node4&#45;&gt;Node23 -->
<g id="edge29_Node000004_Node000023" class="edge">
<title>Node4&#45;&gt;Node23</title>
<g id="a_edge29_Node000004_Node000023"><a xlink:title=" ">
<path fill="none" stroke="#63b8ff" d="M313.22,-291.59C284.37,-282.74 240.97,-269.43 209.1,-259.65"/>
<polygon fill="#63b8ff" stroke="#63b8ff" points="210.36,-256.07 199.77,-256.48 208.3,-262.76 210.36,-256.07"/>
</a>
</g>
</g>
<!-- Node24 -->
<g id="Node000024" class="node">
<title>Node24</title>
<g id="a_Node000024"><a xlink:href="demo__rdb_8hpp.html" target="_top" xlink:title="Заголовочный файл, в котором реализован класс DemoRbd.">
<polygon fill="white" stroke="#666666" points="792.88,-256 698.88,-256 698.88,-236 792.88,-236 792.88,-256"/>
<text text-anchor="middle" x="745.88" y="-242.5" font-family="Helvetica,sans-Serif" font-size="10.00">rbd/demo_rdb.hpp</text>
</a>
</g>
</g>
<!-- Node4&#45;&gt;Node24 -->
<g id="edge31_Node000004_Node000024" class="edge">
<title>Node4&#45;&gt;Node24</title>
<g id="a_edge31_Node000004_Node000024"><a xlink:title=" ">
<path fill="none" stroke="#63b8ff" d="M402.11,-293.97C468.71,-285.8 581.32,-271.63 687.91,-256.25"/>
<polygon fill="#63b8ff" stroke="#63b8ff" points="688.14,-259.61 697.53,-254.71 687.14,-252.68 688.14,-259.61"/>
</a>
</g>
</g>
<!-- Node27 -->
<g id="Node000027" class="node">
<title>Node27</title>
<g id="a_Node000027"><a xlink:href="tesart__rbd_8hpp.html" target="_top" xlink:title="Заголовочный файл, в котором определяется класс TesartRbd.">
<polygon fill="white" stroke="#666666" points="681.25,-256 586.5,-256 586.5,-236 681.25,-236 681.25,-256"/>
<text text-anchor="middle" x="633.88" y="-242.5" font-family="Helvetica,sans-Serif" font-size="10.00">rbd/tesart_rbd.hpp</text>
</a>
</g>
</g>
<!-- Node4&#45;&gt;Node27 -->
<g id="edge38_Node000004_Node000027" class="edge">
<title>Node4&#45;&gt;Node27</title>
<g id="a_edge38_Node000004_Node000027"><a xlink:title=" ">
<path fill="none" stroke="#63b8ff" d="M394.72,-291.53C445.33,-282.11 522.89,-267.67 575.87,-257.8"/>
<polygon fill="#63b8ff" stroke="#63b8ff" points="576.27,-261.1 585.46,-255.83 574.98,-254.22 576.27,-261.1"/>
</a>
</g>
</g>
<!-- Node7 -->
<g id="Node000007" class="node">
<title>Node7</title>
<g id="a_Node000007"><a xlink:href="visa__device_8hpp.html" target="_top" xlink:title="Заголовочный файл, в котором определены константы и класс VisaDevice.">
<polygon fill="white" stroke="#666666" points="379.12,-132 286.62,-132 286.62,-112 379.12,-112 379.12,-132"/>
<text text-anchor="middle" x="332.88" y="-118.5" font-family="Helvetica,sans-Serif" font-size="10.00">../visa_device.hpp</text>
</a>
</g>
</g>
<!-- Node6&#45;&gt;Node7 -->
<g id="edge6_Node000006_Node000007" class="edge">
<title>Node6&#45;&gt;Node7</title>
<g id="a_edge6_Node000006_Node000007"><a xlink:title=" ">
<path fill="none" stroke="#63b8ff" d="M389.41,-173.62C379.12,-164.41 363.22,-150.17 350.9,-139.14"/>
<polygon fill="#63b8ff" stroke="#63b8ff" points="353.84,-137.18 344.05,-133.11 349.17,-142.39 353.84,-137.18"/>
</a>
</g>
</g>
<!-- Node17 -->
<g id="Node000017" class="node">
<title>Node17</title>
<g id="a_Node000017"><a xlink:href="exceptions_8hpp.html" target="_top" xlink:title="Заголовочный файл, содержащий класс antestl_exsceptions, сообщения исключений и коды исключений">
<polygon fill="white" stroke="#666666" points="518.38,-132 397.38,-132 397.38,-112 518.38,-112 518.38,-132"/>
<text text-anchor="middle" x="457.88" y="-118.5" font-family="Helvetica,sans-Serif" font-size="10.00">../../utils/exceptions.hpp</text>
</a>
</g>
</g>
<!-- Node6&#45;&gt;Node17 -->
<g id="edge17_Node000006_Node000017" class="edge">
<title>Node6&#45;&gt;Node17</title>
<g id="a_edge17_Node000006_Node000017"><a xlink:title=" ">
<path fill="none" stroke="#63b8ff" d="M408.94,-173.62C417.67,-164.59 431.08,-150.72 441.66,-139.78"/>
<polygon fill="#63b8ff" stroke="#63b8ff" points="443.63,-142.74 448.07,-133.11 438.6,-137.87 443.63,-142.74"/>
</a>
</g>
</g>
<!-- Node18 -->
<g id="Node000018" class="node">
<title>Node18</title>
<g id="a_Node000018"><a xlink:title=" ">
<polygon fill="#e0e0e0" stroke="#999999" points="577.62,-132 536.12,-132 536.12,-112 577.62,-112 577.62,-132"/>
<text text-anchor="middle" x="556.88" y="-118.5" font-family="Helvetica,sans-Serif" font-size="10.00">vector</text>
</a>
</g>
</g>
<!-- Node6&#45;&gt;Node18 -->
<g id="edge18_Node000006_Node000018" class="edge">
<title>Node6&#45;&gt;Node18</title>
<g id="a_edge18_Node000006_Node000018"><a xlink:title=" ">
<path fill="none" stroke="#63b8ff" d="M424.41,-173.62C451.75,-163.17 496.03,-146.25 525.78,-134.88"/>
<polygon fill="#63b8ff" stroke="#63b8ff" points="526.93,-137.81 535.03,-130.97 524.44,-131.27 526.93,-137.81"/>
</a>
</g>
</g>
<!-- Node8 -->
<g id="Node000008" class="node">
<title>Node8</title>
<g id="a_Node000008"><a xlink:title=" ">
<polygon fill="#e0e0e0" stroke="#999999" points="402.38,-20 359.38,-20 359.38,0 402.38,0 402.38,-20"/>
<text text-anchor="middle" x="380.88" y="-6.5" font-family="Helvetica,sans-Serif" font-size="10.00">format</text>
</a>
</g>
</g>
<!-- Node7&#45;&gt;Node8 -->
<g id="edge7_Node000007_Node000008" class="edge">
<title>Node7&#45;&gt;Node8</title>
<g id="a_edge7_Node000007_Node000008"><a xlink:title=" ">
<path fill="none" stroke="#63b8ff" d="M339.94,-111.8C346.4,-103.01 355.85,-89.19 361.88,-76 368.53,-61.43 373.49,-43.95 376.66,-30.79"/>
<polygon fill="#63b8ff" stroke="#63b8ff" points="380.28,-31.65 379.08,-21.12 373.46,-30.1 380.28,-31.65"/>
</a>
</g>
</g>
<!-- Node9 -->
<g id="Node000009" class="node">
<title>Node9</title>
<g id="a_Node000009"><a xlink:title=" ">
<polygon fill="#e0e0e0" stroke="#999999" points="294.5,-76 249.25,-76 249.25,-56 294.5,-56 294.5,-76"/>
<text text-anchor="middle" x="271.88" y="-62.5" font-family="Helvetica,sans-Serif" font-size="10.00">cstring</text>
</a>
</g>
</g>
<!-- Node7&#45;&gt;Node9 -->
<g id="edge8_Node000007_Node000009" class="edge">
<title>Node7&#45;&gt;Node9</title>
<g id="a_edge8_Node000007_Node000009"><a xlink:title=" ">
<path fill="none" stroke="#63b8ff" d="M322.25,-111.59C313.5,-103.85 300.89,-92.69 290.48,-83.47"/>
<polygon fill="#63b8ff" stroke="#63b8ff" points="293.19,-81.31 283.38,-77.3 288.55,-86.55 293.19,-81.31"/>
</a>
</g>
</g>
<!-- Node10 -->
<g id="Node000010" class="node">
<title>Node10</title>
<g id="a_Node000010"><a xlink:title=" ">
<polygon fill="#e0e0e0" stroke="#999999" points="353.25,-76 312.5,-76 312.5,-56 353.25,-56 353.25,-76"/>
<text text-anchor="middle" x="332.88" y="-62.5" font-family="Helvetica,sans-Serif" font-size="10.00">visa.h</text>
</a>
</g>
</g>
<!-- Node7&#45;&gt;Node10 -->
<g id="edge9_Node000007_Node000010" class="edge">
<title>Node7&#45;&gt;Node10</title>
<g id="a_edge9_Node000007_Node000010"><a xlink:title=" ">
<path fill="none" stroke="#63b8ff" d="M332.88,-111.59C332.88,-104.86 332.88,-95.53 332.88,-87.15"/>
<polygon fill="#63b8ff" stroke="#63b8ff" points="336.38,-87.3 332.88,-77.3 329.38,-87.3 336.38,-87.3"/>
</a>
</g>
</g>
<!-- Node11 -->
<g id="Node000011" class="node">
<title>Node11</title>
<g id="a_Node000011"><a xlink:href="logger_8hpp.html" target="_top" xlink:title="Библиотека, осуществляющая логирование">
<polygon fill="white" stroke="#666666" points="562.38,-76 471.38,-76 471.38,-56 562.38,-56 562.38,-76"/>
<text text-anchor="middle" x="516.88" y="-62.5" font-family="Helvetica,sans-Serif" font-size="10.00">../utils/logger.hpp</text>
</a>
</g>
</g>
<!-- Node7&#45;&gt;Node11 -->
<g id="edge10_Node000007_Node000011" class="edge">
<title>Node7&#45;&gt;Node11</title>
<g id="a_edge10_Node000007_Node000011"><a xlink:title=" ">
<path fill="none" stroke="#63b8ff" d="M364.93,-111.59C395.21,-102.71 440.86,-89.31 474.21,-79.52"/>
<polygon fill="#63b8ff" stroke="#63b8ff" points="474.96,-82.65 483.57,-76.48 472.99,-75.94 474.96,-82.65"/>
</a>
</g>
</g>
<!-- Node11&#45;&gt;Node8 -->
<g id="edge16_Node000011_Node000008" class="edge">
<title>Node11&#45;&gt;Node8</title>
<g id="a_edge16_Node000011_Node000008"><a xlink:title=" ">
<path fill="none" stroke="#63b8ff" d="M493.19,-55.59C470.81,-46.71 437.1,-33.32 412.45,-23.54"/>
<polygon fill="#63b8ff" stroke="#63b8ff" points="414.09,-20.02 403.5,-19.59 411.5,-26.53 414.09,-20.02"/>
</a>
</g>
</g>
<!-- Node12 -->
<g id="Node000012" class="node">
<title>Node12</title>
<g id="a_Node000012"><a xlink:title=" ">
<polygon fill="#e0e0e0" stroke="#999999" points="761.88,-20 721.88,-20 721.88,0 761.88,0 761.88,-20"/>
<text text-anchor="middle" x="741.88" y="-6.5" font-family="Helvetica,sans-Serif" font-size="10.00">string</text>
</a>
</g>
</g>
<!-- Node11&#45;&gt;Node12 -->
<g id="edge11_Node000011_Node000012" class="edge">
<title>Node11&#45;&gt;Node12</title>
<g id="a_edge11_Node000011_Node000012"><a xlink:title=" ">
<path fill="none" stroke="#63b8ff" d="M556.32,-55.53C600.45,-44.94 670.98,-28.01 711.18,-18.37"/>
<polygon fill="#63b8ff" stroke="#63b8ff" points="711.76,-21.59 720.67,-15.85 710.13,-14.78 711.76,-21.59"/>
</a>
</g>
</g>
<!-- Node13 -->
<g id="Node000013" class="node">
<title>Node13</title>
<g id="a_Node000013"><a xlink:title=" ">
<polygon fill="#e0e0e0" stroke="#999999" points="473.62,-20 420.12,-20 420.12,0 473.62,0 473.62,-20"/>
<text text-anchor="middle" x="446.88" y="-6.5" font-family="Helvetica,sans-Serif" font-size="10.00">iostream</text>
</a>
</g>
</g>
<!-- Node11&#45;&gt;Node13 -->
<g id="edge12_Node000011_Node000013" class="edge">
<title>Node11&#45;&gt;Node13</title>
<g id="a_edge12_Node000011_Node000013"><a xlink:title=" ">
<path fill="none" stroke="#63b8ff" d="M504.68,-55.59C494.44,-47.7 479.59,-36.24 467.51,-26.92"/>
<polygon fill="#63b8ff" stroke="#63b8ff" points="469.98,-23.64 459.93,-20.3 465.71,-29.18 469.98,-23.64"/>
</a>
</g>
</g>
<!-- Node14 -->
<g id="Node000014" class="node">
<title>Node14</title>
<g id="a_Node000014"><a xlink:title=" ">
<polygon fill="#e0e0e0" stroke="#999999" points="542.5,-20 491.25,-20 491.25,0 542.5,0 542.5,-20"/>
<text text-anchor="middle" x="516.88" y="-6.5" font-family="Helvetica,sans-Serif" font-size="10.00">sstream</text>
</a>
</g>
</g>
<!-- Node11&#45;&gt;Node14 -->
<g id="edge13_Node000011_Node000014" class="edge">
<title>Node11&#45;&gt;Node14</title>
<g id="a_edge13_Node000011_Node000014"><a xlink:title=" ">
<path fill="none" stroke="#63b8ff" d="M516.88,-55.59C516.88,-48.86 516.88,-39.53 516.88,-31.15"/>
<polygon fill="#63b8ff" stroke="#63b8ff" points="520.38,-31.3 516.88,-21.3 513.38,-31.3 520.38,-31.3"/>
</a>
</g>
</g>
<!-- Node15 -->
<g id="Node000015" class="node">
<title>Node15</title>
<g id="a_Node000015"><a xlink:title=" ">
<polygon fill="#e0e0e0" stroke="#999999" points="622.75,-20 561,-20 561,0 622.75,0 622.75,-20"/>
<text text-anchor="middle" x="591.88" y="-6.5" font-family="Helvetica,sans-Serif" font-size="10.00">sys/time.h</text>
</a>
</g>
</g>
<!-- Node11&#45;&gt;Node15 -->
<g id="edge14_Node000011_Node000015" class="edge">
<title>Node11&#45;&gt;Node15</title>
<g id="a_edge14_Node000011_Node000015"><a xlink:title=" ">
<path fill="none" stroke="#63b8ff" d="M529.94,-55.59C540.95,-47.67 556.94,-36.16 569.91,-26.82"/>
<polygon fill="#63b8ff" stroke="#63b8ff" points="571.64,-29.16 577.71,-20.48 567.55,-23.48 571.64,-29.16"/>
</a>
</g>
</g>
<!-- Node16 -->
<g id="Node000016" class="node">
<title>Node16</title>
<g id="a_Node000016"><a xlink:title=" ">
<polygon fill="#e0e0e0" stroke="#999999" points="683.38,-20 640.38,-20 640.38,0 683.38,0 683.38,-20"/>
<text text-anchor="middle" x="661.88" y="-6.5" font-family="Helvetica,sans-Serif" font-size="10.00">cmath</text>
</a>
</g>
</g>
<!-- Node11&#45;&gt;Node16 -->
<g id="edge15_Node000011_Node000016" class="edge">
<title>Node11&#45;&gt;Node16</title>
<g id="a_edge15_Node000011_Node000016"><a xlink:title=" ">
<path fill="none" stroke="#63b8ff" d="M542.13,-55.59C566.52,-46.51 603.54,-32.72 629.96,-22.88"/>
<polygon fill="#63b8ff" stroke="#63b8ff" points="631.07,-25.84 639.22,-19.07 628.62,-19.28 631.07,-25.84"/>
</a>
</g>
</g>
<!-- Node19&#45;&gt;Node7 -->
<g id="edge20_Node000019_Node000007" class="edge">
<title>Node19&#45;&gt;Node7</title>
<g id="a_edge20_Node000019_Node000007"><a xlink:title=" ">
<path fill="none" stroke="#63b8ff" d="M229.09,-173.62C249.22,-163.81 281.06,-148.27 304.17,-137"/>
<polygon fill="#63b8ff" stroke="#63b8ff" points="305.34,-139.84 312.79,-132.31 302.27,-133.55 305.34,-139.84"/>
</a>
</g>
</g>
<!-- Node19&#45;&gt;Node17 -->
<g id="edge21_Node000019_Node000017" class="edge">
<title>Node19&#45;&gt;Node17</title>
<g id="a_edge21_Node000019_Node000017"><a xlink:title=" ">
<path fill="none" stroke="#63b8ff" d="M248.9,-173.56C291.92,-163.15 361.25,-146.38 408.14,-135.03"/>
<polygon fill="#63b8ff" stroke="#63b8ff" points="408.77,-138.24 417.67,-132.48 407.13,-131.43 408.77,-138.24"/>
</a>
</g>
</g>
<!-- Node20&#45;&gt;Node7 -->
<g id="edge23_Node000020_Node000007" class="edge">
<title>Node20&#45;&gt;Node7</title>
<g id="a_edge23_Node000020_Node000007"><a xlink:title=" ">
<path fill="none" stroke="#63b8ff" d="M517.66,-173.62C479.92,-163.29 419.06,-146.61 377.58,-135.25"/>
<polygon fill="#63b8ff" stroke="#63b8ff" points="378.78,-131.67 368.21,-132.41 376.93,-138.43 378.78,-131.67"/>
</a>
</g>
</g>
<!-- Node20&#45;&gt;Node18 -->
<g id="edge24_Node000020_Node000018" class="edge">
<title>Node20&#45;&gt;Node18</title>
<g id="a_edge24_Node000020_Node000018"><a xlink:title=" ">
<path fill="none" stroke="#63b8ff" d="M552.66,-173.62C553.34,-165.48 554.34,-153.39 555.2,-143.07"/>
<polygon fill="#63b8ff" stroke="#63b8ff" points="558.77,-143.37 556.12,-133.11 551.8,-142.79 558.77,-143.37"/>
</a>
</g>
</g>
<!-- Node21&#45;&gt;Node6 -->
<g id="edge26_Node000021_Node000006" class="edge">
<title>Node21&#45;&gt;Node6</title>
<g id="a_edge26_Node000021_Node000006"><a xlink:title=" ">
<path fill="none" stroke="#63b8ff" d="M352.62,-235.62C360.97,-226.68 373.75,-212.99 383.91,-202.1"/>
<polygon fill="#63b8ff" stroke="#63b8ff" points="386.11,-204.81 390.37,-195.11 380.99,-200.04 386.11,-204.81"/>
</a>
</g>
</g>
<!-- Node22&#45;&gt;Node6 -->
<g id="edge28_Node000022_Node000006" class="edge">
<title>Node22&#45;&gt;Node6</title>
<g id="a_edge28_Node000022_Node000006"><a xlink:title=" ">
<path fill="none" stroke="#63b8ff" d="M466.53,-235.62C454.24,-226.29 435.15,-211.79 420.55,-200.7"/>
<polygon fill="#63b8ff" stroke="#63b8ff" points="423.21,-197.57 413.13,-194.31 418.98,-203.14 423.21,-197.57"/>
</a>
</g>
</g>
<!-- Node23&#45;&gt;Node19 -->
<g id="edge30_Node000023_Node000019" class="edge">
<title>Node23&#45;&gt;Node19</title>
<g id="a_edge30_Node000023_Node000019"><a xlink:title=" ">
<path fill="none" stroke="#63b8ff" d="M174.44,-235.62C180.51,-226.94 189.72,-213.8 197.22,-203.08"/>
<polygon fill="#63b8ff" stroke="#63b8ff" points="200.63,-205.31 203.5,-195.11 194.89,-201.3 200.63,-205.31"/>
</a>
</g>
</g>
<!-- Node24&#45;&gt;Node17 -->
<g id="edge34_Node000024_Node000017" class="edge">
<title>Node24&#45;&gt;Node17</title>
<g id="a_edge34_Node000024_Node000017"><a xlink:title=" ">
<path fill="none" stroke="#63b8ff" d="M738.09,-235.75C722.35,-217.27 686.89,-176.82 670.88,-168 646.79,-154.74 581.3,-142.02 529.23,-133.5"/>
<polygon fill="#63b8ff" stroke="#63b8ff" points="530.11,-129.94 519.68,-131.81 529,-136.85 530.11,-129.94"/>
</a>
</g>
</g>
<!-- Node24&#45;&gt;Node20 -->
<g id="edge33_Node000024_Node000020" class="edge">
<title>Node24&#45;&gt;Node20</title>
<g id="a_edge33_Node000024_Node000020"><a xlink:title=" ">
<path fill="none" stroke="#63b8ff" d="M715.56,-235.62C682.49,-225.4 629.36,-208.97 592.65,-197.61"/>
<polygon fill="#63b8ff" stroke="#63b8ff" points="593.88,-194.02 583.29,-194.41 591.81,-200.71 593.88,-194.02"/>
</a>
</g>
</g>
<!-- Node25 -->
<g id="Node000025" class="node">
<title>Node25</title>
<g id="a_Node000025"><a xlink:title=" ">
<polygon fill="#e0e0e0" stroke="#999999" points="661.38,-194 618.38,-194 618.38,-174 661.38,-174 661.38,-194"/>
<text text-anchor="middle" x="639.88" y="-180.5" font-family="Helvetica,sans-Serif" font-size="10.00">thread</text>
</a>
</g>
</g>
<!-- Node24&#45;&gt;Node25 -->
<g id="edge32_Node000024_Node000025" class="edge">
<title>Node24&#45;&gt;Node25</title>
<g id="a_edge32_Node000024_Node000025"><a xlink:title=" ">
<path fill="none" stroke="#63b8ff" d="M729.31,-235.62C712.28,-225.98 685.51,-210.83 665.69,-199.61"/>
<polygon fill="#63b8ff" stroke="#63b8ff" points="667.75,-196.19 657.32,-194.31 664.3,-202.28 667.75,-196.19"/>
</a>
</g>
</g>
<!-- Node26 -->
<g id="Node000026" class="node">
<title>Node26</title>
<g id="a_Node000026"><a xlink:href="string__utils_8hpp.html" target="_top" xlink:title="Заголовочный файл, в котором определено пространство имён string_utils.">
<polygon fill="white" stroke="#666666" points="797.38,-200 718.38,-200 718.38,-168 797.38,-168 797.38,-200"/>
<text text-anchor="start" x="726.38" y="-186.5" font-family="Helvetica,sans-Serif" font-size="10.00">../../utils/string</text>
<text text-anchor="middle" x="757.88" y="-174.5" font-family="Helvetica,sans-Serif" font-size="10.00">_utils.hpp</text>
</a>
</g>
</g>
<!-- Node24&#45;&gt;Node26 -->
<g id="edge35_Node000024_Node000026" class="edge">
<title>Node24&#45;&gt;Node26</title>
<g id="a_edge35_Node000024_Node000026"><a xlink:title=" ">
<path fill="none" stroke="#63b8ff" d="M747.75,-235.62C749.08,-228.95 750.95,-219.64 752.71,-210.82"/>
<polygon fill="#63b8ff" stroke="#63b8ff" points="756.32,-211.63 754.85,-201.14 749.45,-210.26 756.32,-211.63"/>
</a>
</g>
</g>
<!-- Node26&#45;&gt;Node12 -->
<g id="edge36_Node000026_Node000012" class="edge">
<title>Node26&#45;&gt;Node12</title>
<g id="a_edge36_Node000026_Node000012"><a xlink:title=" ">
<path fill="none" stroke="#63b8ff" d="M756.46,-167.74C753.55,-136.55 746.95,-65.56 743.72,-30.85"/>
<polygon fill="#63b8ff" stroke="#63b8ff" points="747.14,-30.84 742.73,-21.21 740.17,-31.49 747.14,-30.84"/>
</a>
</g>
</g>
<!-- Node26&#45;&gt;Node18 -->
<g id="edge37_Node000026_Node000018" class="edge">
<title>Node26&#45;&gt;Node18</title>
<g id="a_edge37_Node000026_Node000018"><a xlink:title=" ">
<path fill="none" stroke="#63b8ff" d="M718.16,-171.15C680.01,-159.76 623.13,-142.78 588.1,-132.32"/>
<polygon fill="#63b8ff" stroke="#63b8ff" points="589.57,-128.81 578.98,-129.3 587.56,-135.51 589.57,-128.81"/>
</a>
</g>
</g>
<!-- Node27&#45;&gt;Node20 -->
<g id="edge40_Node000027_Node000020" class="edge">
<title>Node27&#45;&gt;Node20</title>
<g id="a_edge40_Node000027_Node000020"><a xlink:title=" ">
<path fill="none" stroke="#63b8ff" d="M621.06,-235.62C608.31,-226.29 588.49,-211.79 573.33,-200.7"/>
<polygon fill="#63b8ff" stroke="#63b8ff" points="575.73,-197.39 565.6,-194.31 571.6,-203.04 575.73,-197.39"/>
</a>
</g>
</g>
<!-- Node27&#45;&gt;Node25 -->
<g id="edge39_Node000027_Node000025" class="edge">
<title>Node27&#45;&gt;Node25</title>
<g id="a_edge39_Node000027_Node000025"><a xlink:title=" ">
<path fill="none" stroke="#63b8ff" d="M634.81,-235.62C635.64,-227.39 636.86,-215.13 637.9,-204.74"/>
<polygon fill="#63b8ff" stroke="#63b8ff" points="641.45,-205.41 638.96,-195.11 634.49,-204.71 641.45,-205.41"/>
</a>
</g>
</g>
<!-- Node28&#45;&gt;Node3 -->
<g id="edge42_Node000028_Node000003" class="edge">
<title>Node28&#45;&gt;Node3</title>
<g id="a_edge42_Node000028_Node000003"><a xlink:title=" ">
<path fill="none" stroke="#63b8ff" d="M228.27,-347.59C229.27,-340.86 230.65,-331.53 231.89,-323.15"/>
<polygon fill="#63b8ff" stroke="#63b8ff" points="235.49,-323.7 233.5,-313.3 228.57,-322.68 235.49,-323.7"/>
</a>
</g>
</g>
</g>
</svg>
