<?xml version="1.0" encoding="UTF-8" standalone="no"?>
<!DOCTYPE svg PUBLIC "-//W3C//DTD SVG 1.1//EN"
 "http://www.w3.org/Graphics/SVG/1.1/DTD/svg11.dtd">
<!-- Generated by graphviz version 8.0.5 (20230430.1635)
 -->
<!-- Title: src/task_manager.cpp Pages: 1 -->
<!--zoomable 420 -->

<svg id="main" version="1.1" xmlns="http://www.w3.org/2000/svg" xmlns:xlink="http://www.w3.org/1999/xlink" xml:space="preserve" onload="init(evt)">
<style type="text/css"><![CDATA[
.node, .edge {opacity: 0.7;}
.node.selected, .edge.selected {opacity: 1;}
.edge:hover path { stroke: red; }
.edge:hover polygon { stroke: red; fill: red; }
]]></style>

<defs>
  <circle id="rim" cx="0" cy="0" r="7"/>
  <circle id="rim2" cx="0" cy="0" r="3.5"/>
  <g id="zoomPlus">
    <use xlink:href="#rim" fill="#404040"><set attributeName="fill" to="#808080" begin="zoomplus.mouseover" end="zoomplus.mouseout"/></use>
    <path d="M-4,0h8M0,-4v8" fill="none" stroke="white" stroke-width="1.5" pointer-events="none"/>
  </g>
  <g id="zoomMin">
    <use xlink:href="#rim" fill="#404040"><set attributeName="fill" to="#808080" begin="zoomminus.mouseover" end="zoomminus.mouseout"/></use>
    <path d="M-4,0h8" fill="none" stroke="white" stroke-width="1.5" pointer-events="none"/>
  </g>
  <g id="arrowUp" transform="translate(30 24)">
    <use xlink:href="#rim"/>
    <path pointer-events="none" fill="none" stroke="white" stroke-width="1.5" d="M0,-3.0v7 M-2.5,-0.5L0,-3.0L2.5,-0.5"/>
  </g>
  <g id="arrowRight" transform="rotate(90) translate(36 -43)">
    <use xlink:href="#rim"/>
    <path pointer-events="none" fill="none" stroke="white" stroke-width="1.5" d="M0,-3.0v7 M-2.5,-0.5L0,-3.0L2.5,-0.5"/>
  </g>
  <g id="arrowDown" transform="rotate(180) translate(-30 -48)">
    <use xlink:href="#rim"/>
    <path pointer-events="none" fill="none" stroke="white" stroke-width="1.5" d="M0,-3.0v7 M-2.5,-0.5L0,-3.0L2.5,-0.5"/>
  </g>
  <g id="arrowLeft" transform="rotate(270) translate(-36 17)">
    <use xlink:href="#rim"/>
    <path pointer-events="none" fill="none" stroke="white" stroke-width="1.5" d="M0,-3.0v7 M-2.5,-0.5L0,-3.0L2.5,-0.5"/>
  </g>
  <g id="resetDef">
    <use xlink:href="#rim2" fill="#404040"><set attributeName="fill" to="#808080" begin="reset.mouseover" end="reset.mouseout"/></use>
  </g>
</defs>
<script type="application/ecmascript">
var viewWidth = 566;
var viewHeight = 420;
var sectionId = 'dynsection-0';
</script>
<script type="application/ecmascript" xlink:href="svg.min.js"/>
<svg id="graph" class="graph">
<g id="viewport">
<title>src/task_manager.cpp</title>
<!-- Node1 -->
<g id="Node000001" class="node">
<title>Node1</title>
<g id="a_Node000001"><a xlink:title=" ">
<polygon fill="#999999" stroke="#666666" points="303.25,-412 190.5,-412 190.5,-392 303.25,-392 303.25,-412"/>
<text text-anchor="middle" x="246.88" y="-398.5" font-family="Helvetica,sans-Serif" font-size="10.00">src/task_manager.cpp</text>
</a>
</g>
</g>
<!-- Node2 -->
<g id="Node000002" class="node">
<title>Node2</title>
<g id="a_Node000002"><a xlink:href="task__manager_8hpp.html" target="_top" xlink:title=" ">
<polygon fill="white" stroke="#666666" points="354,-356 257.75,-356 257.75,-336 354,-336 354,-356"/>
<text text-anchor="middle" x="305.88" y="-342.5" font-family="Helvetica,sans-Serif" font-size="10.00">task_manager.hpp</text>
</a>
</g>
</g>
<!-- Node1&#45;&gt;Node2 -->
<g id="edge1_Node000001_Node000002" class="edge">
<title>Node1&#45;&gt;Node2</title>
<g id="a_edge1_Node000001_Node000002"><a xlink:title=" ">
<path fill="none" stroke="#63b8ff" d="M257.15,-391.59C265.61,-383.85 277.81,-372.69 287.88,-363.47"/>
<polygon fill="#63b8ff" stroke="#63b8ff" points="289.7,-366.63 294.72,-357.3 284.98,-361.47 289.7,-366.63"/>
</a>
</g>
</g>
<!-- Node25 -->
<g id="Node000025" class="node">
<title>Node25</title>
<g id="a_Node000025"><a xlink:href="array__utils_8hpp.html" target="_top" xlink:title="Файл, в котором определено пространство имён array_utils.">
<polygon fill="white" stroke="#666666" points="239.25,-356 138.5,-356 138.5,-336 239.25,-336 239.25,-356"/>
<text text-anchor="middle" x="188.88" y="-342.5" font-family="Helvetica,sans-Serif" font-size="10.00">utils/array_utils.hpp</text>
</a>
</g>
</g>
<!-- Node1&#45;&gt;Node25 -->
<g id="edge32_Node000001_Node000025" class="edge">
<title>Node1&#45;&gt;Node25</title>
<g id="a_edge32_Node000001_Node000025"><a xlink:title=" ">
<path fill="none" stroke="#63b8ff" d="M236.77,-391.59C228.54,-383.93 216.71,-372.91 206.86,-363.75"/>
<polygon fill="#63b8ff" stroke="#63b8ff" points="209.57,-361.55 199.86,-357.3 204.8,-366.67 209.57,-361.55"/>
</a>
</g>
</g>
<!-- Node3 -->
<g id="Node000003" class="node">
<title>Node3</title>
<g id="a_Node000003"><a xlink:title=" ">
<polygon fill="#e0e0e0" stroke="#999999" points="223.25,-300 170.5,-300 170.5,-280 223.25,-280 223.25,-300"/>
<text text-anchor="middle" x="196.88" y="-286.5" font-family="Helvetica,sans-Serif" font-size="10.00">json.hpp</text>
</a>
</g>
</g>
<!-- Node2&#45;&gt;Node3 -->
<g id="edge2_Node000002_Node000003" class="edge">
<title>Node2&#45;&gt;Node3</title>
<g id="a_edge2_Node000002_Node000003"><a xlink:title=" ">
<path fill="none" stroke="#63b8ff" d="M286.89,-335.59C270.03,-327.24 245.15,-314.92 225.82,-305.34"/>
<polygon fill="#63b8ff" stroke="#63b8ff" points="227.52,-301.78 217.01,-300.48 224.42,-308.05 227.52,-301.78"/>
</a>
</g>
</g>
<!-- Node4 -->
<g id="Node000004" class="node">
<title>Node4</title>
<g id="a_Node000004"><a xlink:href="device__set_8hpp.html" target="_top" xlink:title="Заголовочный файл, содержащий в себе класс DeviceSet и набор констант, необходимых для данного класса...">
<polygon fill="white" stroke="#666666" points="363.75,-300 248,-300 248,-280 363.75,-280 363.75,-300"/>
<text text-anchor="middle" x="305.88" y="-286.5" font-family="Helvetica,sans-Serif" font-size="10.00">devices/device_set.hpp</text>
</a>
</g>
</g>
<!-- Node2&#45;&gt;Node4 -->
<g id="edge3_Node000002_Node000004" class="edge">
<title>Node2&#45;&gt;Node4</title>
<g id="a_edge3_Node000002_Node000004"><a xlink:title=" ">
<path fill="none" stroke="#63b8ff" d="M305.88,-335.59C305.88,-328.86 305.88,-319.53 305.88,-311.15"/>
<polygon fill="#63b8ff" stroke="#63b8ff" points="309.38,-311.3 305.88,-301.3 302.38,-311.3 309.38,-311.3"/>
</a>
</g>
</g>
<!-- Node5 -->
<g id="Node000005" class="node">
<title>Node5</title>
<g id="a_Node000005"><a xlink:title=" ">
<polygon fill="#e0e0e0" stroke="#999999" points="55.75,-244 0,-244 0,-224 55.75,-224 55.75,-244"/>
<text text-anchor="middle" x="27.88" y="-230.5" font-family="Helvetica,sans-Serif" font-size="10.00">algorithm</text>
</a>
</g>
</g>
<!-- Node4&#45;&gt;Node5 -->
<g id="edge4_Node000004_Node000005" class="edge">
<title>Node4&#45;&gt;Node5</title>
<g id="a_edge4_Node000004_Node000005"><a xlink:title=" ">
<path fill="none" stroke="#63b8ff" d="M250.67,-279.57C204.1,-271.41 135.44,-258.93 66.7,-244.31"/>
<polygon fill="#63b8ff" stroke="#63b8ff" points="67.63,-240.71 57.12,-242.04 66.17,-247.55 67.63,-240.71"/>
</a>
</g>
</g>
<!-- Node6 -->
<g id="Node000006" class="node">
<title>Node6</title>
<g id="a_Node000006"><a xlink:href="vna__device_8hpp.html" target="_top" xlink:title=" ">
<polygon fill="white" stroke="#666666" points="369.12,-188 270.62,-188 270.62,-168 369.12,-168 369.12,-188"/>
<text text-anchor="middle" x="319.88" y="-174.5" font-family="Helvetica,sans-Serif" font-size="10.00">vna/vna_device.hpp</text>
</a>
</g>
</g>
<!-- Node4&#45;&gt;Node6 -->
<g id="edge5_Node000004_Node000006" class="edge">
<title>Node4&#45;&gt;Node6</title>
<g id="a_edge5_Node000004_Node000006"><a xlink:title=" ">
<path fill="none" stroke="#63b8ff" d="M333.92,-279.63C350.19,-272.59 369.3,-261.16 378.88,-244 389.73,-224.56 368.98,-206.14 349.16,-193.91"/>
<polygon fill="#63b8ff" stroke="#63b8ff" points="351.06,-190.38 340.65,-188.42 347.57,-196.45 351.06,-190.38"/>
</a>
</g>
</g>
<!-- Node19 -->
<g id="Node000019" class="node">
<title>Node19</title>
<g id="a_Node000019"><a xlink:href="gen__device_8hpp.html" target="_top" xlink:title=" ">
<polygon fill="white" stroke="#666666" points="252.62,-188 151.12,-188 151.12,-168 252.62,-168 252.62,-188"/>
<text text-anchor="middle" x="201.88" y="-174.5" font-family="Helvetica,sans-Serif" font-size="10.00">gen/gen_device.hpp</text>
</a>
</g>
</g>
<!-- Node4&#45;&gt;Node19 -->
<g id="edge19_Node000004_Node000019" class="edge">
<title>Node4&#45;&gt;Node19</title>
<g id="a_edge19_Node000004_Node000019"><a xlink:title=" ">
<path fill="none" stroke="#63b8ff" d="M283.74,-279.53C267.92,-271.85 247,-259.73 232.88,-244 221.13,-230.92 212.93,-212.6 207.93,-198.74"/>
<polygon fill="#63b8ff" stroke="#63b8ff" points="210.96,-197.74 204.47,-189.36 204.31,-199.95 210.96,-197.74"/>
</a>
</g>
</g>
<!-- Node20 -->
<g id="Node000020" class="node">
<title>Node20</title>
<g id="a_Node000020"><a xlink:href="rbd__device_8hpp.html" target="_top" xlink:title=" ">
<polygon fill="white" stroke="#666666" points="484.38,-188 387.38,-188 387.38,-168 484.38,-168 484.38,-188"/>
<text text-anchor="middle" x="435.88" y="-174.5" font-family="Helvetica,sans-Serif" font-size="10.00">rbd/rbd_device.hpp</text>
</a>
</g>
</g>
<!-- Node4&#45;&gt;Node20 -->
<g id="edge22_Node000004_Node000020" class="edge">
<title>Node4&#45;&gt;Node20</title>
<g id="a_edge22_Node000004_Node000020"><a xlink:title=" ">
<path fill="none" stroke="#63b8ff" d="M333.5,-279.54C352.36,-272.07 377.07,-260.19 394.88,-244 409.19,-230.98 420.44,-211.85 427.51,-197.71"/>
<polygon fill="#63b8ff" stroke="#63b8ff" points="430.97,-199.59 432.08,-189.06 424.64,-196.6 430.97,-199.59"/>
</a>
</g>
</g>
<!-- Node21 -->
<g id="Node000021" class="node">
<title>Node21</title>
<g id="a_Node000021"><a xlink:href="keysight__m9807a_8hpp.html" target="_top" xlink:title=" ">
<polygon fill="white" stroke="#666666" points="370.12,-244 241.62,-244 241.62,-224 370.12,-224 370.12,-244"/>
<text text-anchor="middle" x="305.88" y="-230.5" font-family="Helvetica,sans-Serif" font-size="10.00">vna/keysight_m9807a.hpp</text>
</a>
</g>
</g>
<!-- Node4&#45;&gt;Node21 -->
<g id="edge25_Node000004_Node000021" class="edge">
<title>Node4&#45;&gt;Node21</title>
<g id="a_edge25_Node000004_Node000021"><a xlink:title=" ">
<path fill="none" stroke="#63b8ff" d="M305.88,-279.59C305.88,-272.86 305.88,-263.53 305.88,-255.15"/>
<polygon fill="#63b8ff" stroke="#63b8ff" points="309.38,-255.3 305.88,-245.3 302.38,-255.3 309.38,-255.3"/>
</a>
</g>
</g>
<!-- Node22 -->
<g id="Node000022" class="node">
<title>Node22</title>
<g id="a_Node000022"><a xlink:href="keysight__gen_8hpp.html" target="_top" xlink:title=" ">
<polygon fill="white" stroke="#666666" points="185.5,-244 74.25,-244 74.25,-224 185.5,-224 185.5,-244"/>
<text text-anchor="middle" x="129.88" y="-230.5" font-family="Helvetica,sans-Serif" font-size="10.00">gen/keysight_gen.hpp</text>
</a>
</g>
</g>
<!-- Node4&#45;&gt;Node22 -->
<g id="edge27_Node000004_Node000022" class="edge">
<title>Node4&#45;&gt;Node22</title>
<g id="a_edge27_Node000004_Node000022"><a xlink:title=" ">
<path fill="none" stroke="#63b8ff" d="M275.22,-279.59C246.37,-270.74 202.97,-257.43 171.1,-247.65"/>
<polygon fill="#63b8ff" stroke="#63b8ff" points="172.36,-244.07 161.77,-244.48 170.3,-250.76 172.36,-244.07"/>
</a>
</g>
</g>
<!-- Node23 -->
<g id="Node000023" class="node">
<title>Node23</title>
<g id="a_Node000023"><a xlink:href="tesart__rbd_8hpp.html" target="_top" xlink:title=" ">
<polygon fill="white" stroke="#666666" points="558.25,-244 463.5,-244 463.5,-224 558.25,-224 558.25,-244"/>
<text text-anchor="middle" x="510.88" y="-230.5" font-family="Helvetica,sans-Serif" font-size="10.00">rbd/tesart_rbd.hpp</text>
</a>
</g>
</g>
<!-- Node4&#45;&gt;Node23 -->
<g id="edge29_Node000004_Node000023" class="edge">
<title>Node4&#45;&gt;Node23</title>
<g id="a_edge29_Node000004_Node000023"><a xlink:title=" ">
<path fill="none" stroke="#63b8ff" d="M341.58,-279.59C375.62,-270.63 427.06,-257.08 464.3,-247.27"/>
<polygon fill="#63b8ff" stroke="#63b8ff" points="465.11,-250.41 473.89,-244.48 463.33,-243.64 465.11,-250.41"/>
</a>
</g>
</g>
<!-- Node7 -->
<g id="Node000007" class="node">
<title>Node7</title>
<g id="a_Node000007"><a xlink:href="visa__device_8hpp.html" target="_top" xlink:title="Заголовочный файл, в котором определены константы и класс VisaDevice.">
<polygon fill="white" stroke="#666666" points="373.12,-132 280.62,-132 280.62,-112 373.12,-112 373.12,-132"/>
<text text-anchor="middle" x="326.88" y="-118.5" font-family="Helvetica,sans-Serif" font-size="10.00">../visa_device.hpp</text>
</a>
</g>
</g>
<!-- Node6&#45;&gt;Node7 -->
<g id="edge6_Node000006_Node000007" class="edge">
<title>Node6&#45;&gt;Node7</title>
<g id="a_edge6_Node000006_Node000007"><a xlink:title=" ">
<path fill="none" stroke="#63b8ff" d="M321.09,-167.59C321.97,-160.86 323.18,-151.53 324.26,-143.15"/>
<polygon fill="#63b8ff" stroke="#63b8ff" points="327.86,-143.67 325.67,-133.3 320.91,-142.77 327.86,-143.67"/>
</a>
</g>
</g>
<!-- Node17 -->
<g id="Node000017" class="node">
<title>Node17</title>
<g id="a_Node000017"><a xlink:href="exceptions_8hpp.html" target="_top" xlink:title="Заголовочный файл, содержащий класс antestl_exsceptions, сообщения исключений и коды исключений">
<polygon fill="white" stroke="#666666" points="262.38,-132 141.38,-132 141.38,-112 262.38,-112 262.38,-132"/>
<text text-anchor="middle" x="201.88" y="-118.5" font-family="Helvetica,sans-Serif" font-size="10.00">../../utils/exceptions.hpp</text>
</a>
</g>
</g>
<!-- Node6&#45;&gt;Node17 -->
<g id="edge17_Node000006_Node000017" class="edge">
<title>Node6&#45;&gt;Node17</title>
<g id="a_edge17_Node000006_Node000017"><a xlink:title=" ">
<path fill="none" stroke="#63b8ff" d="M299.32,-167.59C280.82,-159.13 253.39,-146.58 232.34,-136.94"/>
<polygon fill="#63b8ff" stroke="#63b8ff" points="234.14,-133.46 223.59,-132.48 231.23,-139.82 234.14,-133.46"/>
</a>
</g>
</g>
<!-- Node18 -->
<g id="Node000018" class="node">
<title>Node18</title>
<g id="a_Node000018"><a xlink:title=" ">
<polygon fill="#e0e0e0" stroke="#999999" points="444.62,-132 403.12,-132 403.12,-112 444.62,-112 444.62,-132"/>
<text text-anchor="middle" x="423.88" y="-118.5" font-family="Helvetica,sans-Serif" font-size="10.00">vector</text>
</a>
</g>
</g>
<!-- Node6&#45;&gt;Node18 -->
<g id="edge18_Node000006_Node000018" class="edge">
<title>Node6&#45;&gt;Node18</title>
<g id="a_edge18_Node000006_Node000018"><a xlink:title=" ">
<path fill="none" stroke="#63b8ff" d="M337.99,-167.59C354,-159.28 377.59,-147.03 396,-137.47"/>
<polygon fill="#63b8ff" stroke="#63b8ff" points="397.36,-140.19 404.62,-132.48 394.13,-133.98 397.36,-140.19"/>
</a>
</g>
</g>
<!-- Node8 -->
<g id="Node000008" class="node">
<title>Node8</title>
<g id="a_Node000008"><a xlink:title=" ">
<polygon fill="#e0e0e0" stroke="#999999" points="165.38,-20 122.38,-20 122.38,0 165.38,0 165.38,-20"/>
<text text-anchor="middle" x="143.88" y="-6.5" font-family="Helvetica,sans-Serif" font-size="10.00">format</text>
</a>
</g>
</g>
<!-- Node7&#45;&gt;Node8 -->
<g id="edge7_Node000007_Node000008" class="edge">
<title>Node7&#45;&gt;Node8</title>
<g id="a_edge7_Node000007_Node000008"><a xlink:title=" ">
<path fill="none" stroke="#63b8ff" d="M302.35,-111.52C282.05,-103.27 252.78,-90.38 228.88,-76 204.83,-61.53 179.57,-41.51 162.9,-27.53"/>
<polygon fill="#63b8ff" stroke="#63b8ff" points="165.47,-24.27 155.59,-20.45 160.93,-29.6 165.47,-24.27"/>
</a>
</g>
</g>
<!-- Node9 -->
<g id="Node000009" class="node">
<title>Node9</title>
<g id="a_Node000009"><a xlink:title=" ">
<polygon fill="#e0e0e0" stroke="#999999" points="392.5,-76 347.25,-76 347.25,-56 392.5,-56 392.5,-76"/>
<text text-anchor="middle" x="369.88" y="-62.5" font-family="Helvetica,sans-Serif" font-size="10.00">cstring</text>
</a>
</g>
</g>
<!-- Node7&#45;&gt;Node9 -->
<g id="edge8_Node000007_Node000009" class="edge">
<title>Node7&#45;&gt;Node9</title>
<g id="a_edge8_Node000007_Node000009"><a xlink:title=" ">
<path fill="none" stroke="#63b8ff" d="M334.37,-111.59C340.22,-104.24 348.54,-93.8 355.65,-84.87"/>
<polygon fill="#63b8ff" stroke="#63b8ff" points="358.98,-87.3 362.47,-77.3 353.5,-82.94 358.98,-87.3"/>
</a>
</g>
</g>
<!-- Node10 -->
<g id="Node000010" class="node">
<title>Node10</title>
<g id="a_Node000010"><a xlink:title=" ">
<polygon fill="#e0e0e0" stroke="#999999" points="451.25,-76 410.5,-76 410.5,-56 451.25,-56 451.25,-76"/>
<text text-anchor="middle" x="430.88" y="-62.5" font-family="Helvetica,sans-Serif" font-size="10.00">visa.h</text>
</a>
</g>
</g>
<!-- Node7&#45;&gt;Node10 -->
<g id="edge9_Node000007_Node000010" class="edge">
<title>Node7&#45;&gt;Node10</title>
<g id="a_edge9_Node000007_Node000010"><a xlink:title=" ">
<path fill="none" stroke="#63b8ff" d="M344.99,-111.59C361,-103.28 384.59,-91.03 403,-81.47"/>
<polygon fill="#63b8ff" stroke="#63b8ff" points="404.36,-84.19 411.62,-76.48 401.13,-77.98 404.36,-84.19"/>
</a>
</g>
</g>
<!-- Node11 -->
<g id="Node000011" class="node">
<title>Node11</title>
<g id="a_Node000011"><a xlink:href="logger_8hpp.html" target="_top" xlink:title="Библиотека, осуществляющая логирование">
<polygon fill="white" stroke="#666666" points="329.38,-76 238.38,-76 238.38,-56 329.38,-56 329.38,-76"/>
<text text-anchor="middle" x="283.88" y="-62.5" font-family="Helvetica,sans-Serif" font-size="10.00">../utils/logger.hpp</text>
</a>
</g>
</g>
<!-- Node7&#45;&gt;Node11 -->
<g id="edge10_Node000007_Node000011" class="edge">
<title>Node7&#45;&gt;Node11</title>
<g id="a_edge10_Node000007_Node000011"><a xlink:title=" ">
<path fill="none" stroke="#63b8ff" d="M319.38,-111.59C313.53,-104.24 305.21,-93.8 298.1,-84.87"/>
<polygon fill="#63b8ff" stroke="#63b8ff" points="300.25,-82.94 291.28,-77.3 294.77,-87.3 300.25,-82.94"/>
</a>
</g>
</g>
<!-- Node11&#45;&gt;Node8 -->
<g id="edge16_Node000011_Node000008" class="edge">
<title>Node11&#45;&gt;Node8</title>
<g id="a_edge16_Node000011_Node000008"><a xlink:title=" ">
<path fill="none" stroke="#63b8ff" d="M259.49,-55.59C236.32,-46.66 201.34,-33.17 175.93,-23.36"/>
<polygon fill="#63b8ff" stroke="#63b8ff" points="177.27,-19.74 166.68,-19.41 174.75,-26.28 177.27,-19.74"/>
</a>
</g>
</g>
<!-- Node12 -->
<g id="Node000012" class="node">
<title>Node12</title>
<g id="a_Node000012"><a xlink:title=" ">
<polygon fill="#e0e0e0" stroke="#999999" points="363.88,-20 323.88,-20 323.88,0 363.88,0 363.88,-20"/>
<text text-anchor="middle" x="343.88" y="-6.5" font-family="Helvetica,sans-Serif" font-size="10.00">string</text>
</a>
</g>
</g>
<!-- Node11&#45;&gt;Node12 -->
<g id="edge11_Node000011_Node000012" class="edge">
<title>Node11&#45;&gt;Node12</title>
<g id="a_edge11_Node000011_Node000012"><a xlink:title=" ">
<path fill="none" stroke="#63b8ff" d="M294.33,-55.59C302.93,-47.85 315.33,-36.69 325.58,-27.47"/>
<polygon fill="#63b8ff" stroke="#63b8ff" points="327.45,-30.59 332.54,-21.3 322.77,-25.39 327.45,-30.59"/>
</a>
</g>
</g>
<!-- Node13 -->
<g id="Node000013" class="node">
<title>Node13</title>
<g id="a_Node000013"><a xlink:title=" ">
<polygon fill="#e0e0e0" stroke="#999999" points="435.62,-20 382.12,-20 382.12,0 435.62,0 435.62,-20"/>
<text text-anchor="middle" x="408.88" y="-6.5" font-family="Helvetica,sans-Serif" font-size="10.00">iostream</text>
</a>
</g>
</g>
<!-- Node11&#45;&gt;Node13 -->
<g id="edge12_Node000011_Node000013" class="edge">
<title>Node11&#45;&gt;Node13</title>
<g id="a_edge12_Node000011_Node000013"><a xlink:title=" ">
<path fill="none" stroke="#63b8ff" d="M305.65,-55.59C325.33,-47.09 354.57,-34.46 376.9,-24.81"/>
<polygon fill="#63b8ff" stroke="#63b8ff" points="378.14,-27.66 385.93,-20.48 375.36,-21.23 378.14,-27.66"/>
</a>
</g>
</g>
<!-- Node14 -->
<g id="Node000014" class="node">
<title>Node14</title>
<g id="a_Node000014"><a xlink:title=" ">
<polygon fill="#e0e0e0" stroke="#999999" points="504.5,-20 453.25,-20 453.25,0 504.5,0 504.5,-20"/>
<text text-anchor="middle" x="478.88" y="-6.5" font-family="Helvetica,sans-Serif" font-size="10.00">sstream</text>
</a>
</g>
</g>
<!-- Node11&#45;&gt;Node14 -->
<g id="edge13_Node000011_Node000014" class="edge">
<title>Node11&#45;&gt;Node14</title>
<g id="a_edge13_Node000011_Node000014"><a xlink:title=" ">
<path fill="none" stroke="#63b8ff" d="M317.84,-55.59C352.65,-45.95 406.6,-31.02 442.32,-21.12"/>
<polygon fill="#63b8ff" stroke="#63b8ff" points="443.08,-24.27 451.78,-18.23 441.21,-17.52 443.08,-24.27"/>
</a>
</g>
</g>
<!-- Node15 -->
<g id="Node000015" class="node">
<title>Node15</title>
<g id="a_Node000015"><a xlink:title=" ">
<polygon fill="#e0e0e0" stroke="#999999" points="244.75,-20 183,-20 183,0 244.75,0 244.75,-20"/>
<text text-anchor="middle" x="213.88" y="-6.5" font-family="Helvetica,sans-Serif" font-size="10.00">sys/time.h</text>
</a>
</g>
</g>
<!-- Node11&#45;&gt;Node15 -->
<g id="edge14_Node000011_Node000015" class="edge">
<title>Node11&#45;&gt;Node15</title>
<g id="a_edge14_Node000011_Node000015"><a xlink:title=" ">
<path fill="none" stroke="#63b8ff" d="M271.68,-55.59C261.44,-47.7 246.59,-36.24 234.51,-26.92"/>
<polygon fill="#63b8ff" stroke="#63b8ff" points="236.98,-23.64 226.93,-20.3 232.71,-29.18 236.98,-23.64"/>
</a>
</g>
</g>
<!-- Node16 -->
<g id="Node000016" class="node">
<title>Node16</title>
<g id="a_Node000016"><a xlink:title=" ">
<polygon fill="#e0e0e0" stroke="#999999" points="305.38,-20 262.38,-20 262.38,0 305.38,0 305.38,-20"/>
<text text-anchor="middle" x="283.88" y="-6.5" font-family="Helvetica,sans-Serif" font-size="10.00">cmath</text>
</a>
</g>
</g>
<!-- Node11&#45;&gt;Node16 -->
<g id="edge15_Node000011_Node000016" class="edge">
<title>Node11&#45;&gt;Node16</title>
<g id="a_edge15_Node000011_Node000016"><a xlink:title=" ">
<path fill="none" stroke="#63b8ff" d="M283.88,-55.59C283.88,-48.86 283.88,-39.53 283.88,-31.15"/>
<polygon fill="#63b8ff" stroke="#63b8ff" points="287.38,-31.3 283.88,-21.3 280.38,-31.3 287.38,-31.3"/>
</a>
</g>
</g>
<!-- Node19&#45;&gt;Node7 -->
<g id="edge20_Node000019_Node000007" class="edge">
<title>Node19&#45;&gt;Node7</title>
<g id="a_edge20_Node000019_Node000007"><a xlink:title=" ">
<path fill="none" stroke="#63b8ff" d="M223.65,-167.59C243.33,-159.09 272.57,-146.46 294.9,-136.81"/>
<polygon fill="#63b8ff" stroke="#63b8ff" points="296.14,-139.66 303.93,-132.48 293.36,-133.23 296.14,-139.66"/>
</a>
</g>
</g>
<!-- Node19&#45;&gt;Node17 -->
<g id="edge21_Node000019_Node000017" class="edge">
<title>Node19&#45;&gt;Node17</title>
<g id="a_edge21_Node000019_Node000017"><a xlink:title=" ">
<path fill="none" stroke="#63b8ff" d="M201.88,-167.59C201.88,-160.86 201.88,-151.53 201.88,-143.15"/>
<polygon fill="#63b8ff" stroke="#63b8ff" points="205.38,-143.3 201.88,-133.3 198.38,-143.3 205.38,-143.3"/>
</a>
</g>
</g>
<!-- Node20&#45;&gt;Node7 -->
<g id="edge23_Node000020_Node000007" class="edge">
<title>Node20&#45;&gt;Node7</title>
<g id="a_edge23_Node000020_Node000007"><a xlink:title=" ">
<path fill="none" stroke="#63b8ff" d="M416.89,-167.59C400.03,-159.24 375.15,-146.92 355.82,-137.34"/>
<polygon fill="#63b8ff" stroke="#63b8ff" points="357.52,-133.78 347.01,-132.48 354.42,-140.05 357.52,-133.78"/>
</a>
</g>
</g>
<!-- Node20&#45;&gt;Node18 -->
<g id="edge24_Node000020_Node000018" class="edge">
<title>Node20&#45;&gt;Node18</title>
<g id="a_edge24_Node000020_Node000018"><a xlink:title=" ">
<path fill="none" stroke="#63b8ff" d="M433.78,-167.59C432.27,-160.78 430.17,-151.32 428.29,-142.86"/>
<polygon fill="#63b8ff" stroke="#63b8ff" points="431.53,-142.3 425.94,-133.3 424.69,-143.82 431.53,-142.3"/>
</a>
</g>
</g>
<!-- Node21&#45;&gt;Node6 -->
<g id="edge26_Node000021_Node000006" class="edge">
<title>Node21&#45;&gt;Node6</title>
<g id="a_edge26_Node000021_Node000006"><a xlink:title=" ">
<path fill="none" stroke="#63b8ff" d="M308.31,-223.59C310.08,-216.78 312.53,-207.32 314.73,-198.86"/>
<polygon fill="#63b8ff" stroke="#63b8ff" points="318.34,-199.86 317.46,-189.3 311.57,-198.1 318.34,-199.86"/>
</a>
</g>
</g>
<!-- Node22&#45;&gt;Node19 -->
<g id="edge28_Node000022_Node000019" class="edge">
<title>Node22&#45;&gt;Node19</title>
<g id="a_edge28_Node000022_Node000019"><a xlink:title=" ">
<path fill="none" stroke="#63b8ff" d="M142.42,-223.59C153.05,-215.62 168.52,-204.02 181.02,-194.64"/>
<polygon fill="#63b8ff" stroke="#63b8ff" points="182.58,-197.1 188.48,-188.3 178.38,-191.5 182.58,-197.1"/>
</a>
</g>
</g>
<!-- Node23&#45;&gt;Node20 -->
<g id="edge31_Node000023_Node000020" class="edge">
<title>Node23&#45;&gt;Node20</title>
<g id="a_edge31_Node000023_Node000020"><a xlink:title=" ">
<path fill="none" stroke="#63b8ff" d="M497.81,-223.59C486.8,-215.67 470.81,-204.16 457.84,-194.82"/>
<polygon fill="#63b8ff" stroke="#63b8ff" points="460.2,-191.48 450.04,-188.48 456.11,-197.16 460.2,-191.48"/>
</a>
</g>
</g>
<!-- Node24 -->
<g id="Node000024" class="node">
<title>Node24</title>
<g id="a_Node000024"><a xlink:title=" ">
<polygon fill="#e0e0e0" stroke="#999999" points="545.38,-188 502.38,-188 502.38,-168 545.38,-168 545.38,-188"/>
<text text-anchor="middle" x="523.88" y="-174.5" font-family="Helvetica,sans-Serif" font-size="10.00">thread</text>
</a>
</g>
</g>
<!-- Node23&#45;&gt;Node24 -->
<g id="edge30_Node000023_Node000024" class="edge">
<title>Node23&#45;&gt;Node24</title>
<g id="a_edge30_Node000023_Node000024"><a xlink:title=" ">
<path fill="none" stroke="#63b8ff" d="M513.14,-223.59C514.78,-216.78 517.06,-207.32 519.09,-198.86"/>
<polygon fill="#63b8ff" stroke="#63b8ff" points="522.7,-199.84 521.64,-189.3 515.89,-198.2 522.7,-199.84"/>
</a>
</g>
</g>
<!-- Node25&#45;&gt;Node3 -->
<g id="edge33_Node000025_Node000003" class="edge">
<title>Node25&#45;&gt;Node3</title>
<g id="a_edge33_Node000025_Node000003"><a xlink:title=" ">
<path fill="none" stroke="#63b8ff" d="M190.27,-335.59C191.27,-328.86 192.65,-319.53 193.89,-311.15"/>
<polygon fill="#63b8ff" stroke="#63b8ff" points="197.49,-311.7 195.5,-301.3 190.57,-310.68 197.49,-311.7"/>
</a>
</g>
</g>
</g>
</svg>

<g id="navigator" transform="translate(0 0)" fill="#404254">
  <rect fill="#f2f5e9" fill-opacity="0.5" stroke="#606060" stroke-width=".5" x="0" y="0" width="60" height="60"/>
  <use id="zoomplus" xlink:href="#zoomPlus" x="17" y="9" onmousedown="handleZoom(evt,'in')"/>
  <use id="zoomminus" xlink:href="#zoomMin" x="42" y="9" onmousedown="handleZoom(evt,'out')"/>
  <use id="reset" xlink:href="#resetDef" x="30" y="36" onmousedown="handleReset()"/>
   <use id="arrowup" xlink:href="#arrowUp" x="0" y="0" onmousedown="handlePan(0,-1)"/>
  <use id="arrowright" xlink:href="#arrowRight" x="0" y="0" onmousedown="handlePan(1,0)"/>
  <use id="arrowdown" xlink:href="#arrowDown" x="0" y="0" onmousedown="handlePan(0,1)"/>
  <use id="arrowleft" xlink:href="#arrowLeft" x="0" y="0" onmousedown="handlePan(-1,0)"/>
</g>
<svg viewBox="0 0 15 15" width="100%" height="30px" preserveAspectRatio="xMaxYMin meet">
 <g id="arrow_out" transform="scale(0.3 0.3)">
  <a xlink:href="task__manager_8cpp__incl_org.svg" target="_base">
   <rect id="button" ry="5" rx="5" y="6" x="6" height="38" width="38"
        fill="#f2f5e9" fill-opacity="0.5" stroke="#606060" stroke-width="1.0"/>
   <path id="arrow"
     d="M 11.500037,31.436501 C 11.940474,20.09759 22.043105,11.32322 32.158766,21.979434 L 37.068811,17.246167 C 37.068811,17.246167 37.088388,32 37.088388,32 L 22.160133,31.978069 C 22.160133,31.978069 26.997745,27.140456 26.997745,27.140456 C 18.528582,18.264221 13.291696,25.230495 11.500037,31.436501 z"
     style="fill:#404040;"/>
  </a>
 </g>
</svg>

<style type='text/css'>
<![CDATA[
[data-mouse-over-selected='false'] { opacity: 0.7; }
[data-mouse-over-selected='true']  { opacity: 1.0; }
]]>
</style>
<script type="application/ecmascript"><![CDATA[
document.addEventListener('DOMContentLoaded', (event) => {
  highlightEdges();
  highlightAdjacentNodes();
});
]]></script>
</svg>
