<?xml version="1.0" encoding="UTF-8" standalone="no"?>
<!DOCTYPE svg PUBLIC "-//W3C//DTD SVG 1.1//EN"
 "http://www.w3.org/Graphics/SVG/1.1/DTD/svg11.dtd">
<!-- Generated by graphviz version 8.0.5 (20230430.1635)
 -->
<!-- Title: src/devices/rbd/tesart_rbd.cpp Pages: 1 -->
<svg width="437pt" height="332pt"
 viewBox="0.00 0.00 437.12 332.00" xmlns="http://www.w3.org/2000/svg" xmlns:xlink="http://www.w3.org/1999/xlink">

<svg id="main" version="1.1" xmlns="http://www.w3.org/2000/svg" xmlns:xlink="http://www.w3.org/1999/xlink" xml:space="preserve" onload="init(evt)">
<style type="text/css"><![CDATA[
.node, .edge {opacity: 0.7;}
.node.selected, .edge.selected {opacity: 1;}
.edge:hover path { stroke: red; }
.edge:hover polygon { stroke: red; fill: red; }
]]></style>
<script type="application/ecmascript" xlink:href="svg.min.js"/>
<svg id="graph" class="graph">
<g id="graph0" class="graph" transform="scale(1 1) rotate(0) translate(4 328)">
<title>src/devices/rbd/tesart_rbd.cpp</title>
<!-- Node1 -->
<g id="Node000001" class="node">
<title>Node1</title>
<g id="a_Node000001"><a xlink:title=" ">
<polygon fill="#999999" stroke="#666666" points="355.12,-324 246.12,-324 246.12,-292 355.12,-292 355.12,-324"/>
<text text-anchor="start" x="254.12" y="-310.5" font-family="Helvetica,sans-Serif" font-size="10.00">src/devices/rbd/tesart</text>
<text text-anchor="middle" x="300.62" y="-298.5" font-family="Helvetica,sans-Serif" font-size="10.00">_rbd.cpp</text>
</a>
</g>
</g>
<!-- Node2 -->
<g id="Node000002" class="node">
<title>Node2</title>
<g id="a_Node000002"><a xlink:href="tesart__rbd_8hpp.html" target="_top" xlink:title=" ">
<polygon fill="white" stroke="#666666" points="221.75,-256 143.5,-256 143.5,-236 221.75,-236 221.75,-256"/>
<text text-anchor="middle" x="182.62" y="-242.5" font-family="Helvetica,sans-Serif" font-size="10.00">tesart_rbd.hpp</text>
</a>
</g>
</g>
<!-- Node1&#45;&gt;Node2 -->
<g id="edge1_Node000001_Node000002" class="edge">
<title>Node1&#45;&gt;Node2</title>
<g id="a_edge1_Node000001_Node000002"><a xlink:title=" ">
<path fill="none" stroke="#63b8ff" d="M270.24,-291.55C251.89,-282.22 228.66,-270.41 210.73,-261.29"/>
<polygon fill="#63b8ff" stroke="#63b8ff" points="212.63,-257.82 202.13,-256.41 209.45,-264.06 212.63,-257.82"/>
</a>
</g>
</g>
<!-- Node16 -->
<g id="Node000016" class="node">
<title>Node16</title>
<g id="a_Node000016"><a xlink:href="exceptions_8hpp.html" target="_top" xlink:title="Заголовочный файл, содержащий класс antestl_exsceptions, сообщения исключений и коды исключений">
<polygon fill="white" stroke="#666666" points="361.12,-256 240.12,-256 240.12,-236 361.12,-236 361.12,-256"/>
<text text-anchor="middle" x="300.62" y="-242.5" font-family="Helvetica,sans-Serif" font-size="10.00">../../utils/exceptions.hpp</text>
</a>
</g>
</g>
<!-- Node1&#45;&gt;Node16 -->
<g id="edge16_Node000001_Node000016" class="edge">
<title>Node1&#45;&gt;Node16</title>
<g id="a_edge16_Node000001_Node000016"><a xlink:title=" ">
<path fill="none" stroke="#63b8ff" d="M300.62,-291.55C300.62,-284.17 300.62,-275.24 300.62,-267.32"/>
<polygon fill="#63b8ff" stroke="#63b8ff" points="304.13,-267.41 300.62,-257.41 297.13,-267.41 304.13,-267.41"/>
</a>
</g>
</g>
<!-- Node17 -->
<g id="Node000017" class="node">
<title>Node17</title>
<g id="a_Node000017"><a xlink:href="string__utils_8hpp.html" target="_top" xlink:title="Заголовочный файл, в котором определено пространство имён string_utils.">
<polygon fill="white" stroke="#666666" points="429.12,-200 350.12,-200 350.12,-168 429.12,-168 429.12,-200"/>
<text text-anchor="start" x="358.12" y="-186.5" font-family="Helvetica,sans-Serif" font-size="10.00">../../utils/string</text>
<text text-anchor="middle" x="389.62" y="-174.5" font-family="Helvetica,sans-Serif" font-size="10.00">_utils.hpp</text>
</a>
</g>
</g>
<!-- Node1&#45;&gt;Node17 -->
<g id="edge17_Node000001_Node000017" class="edge">
<title>Node1&#45;&gt;Node17</title>
<g id="a_edge17_Node000001_Node000017"><a xlink:title=" ">
<path fill="none" stroke="#63b8ff" d="M330.26,-291.71C344.4,-283.01 360.42,-270.88 370.62,-256 379.74,-242.72 384.48,-225.27 386.95,-210.99"/>
<polygon fill="#63b8ff" stroke="#63b8ff" points="390.52,-211.76 388.49,-201.36 383.59,-210.76 390.52,-211.76"/>
</a>
</g>
</g>
<!-- Node3 -->
<g id="Node000003" class="node">
<title>Node3</title>
<g id="a_Node000003"><a xlink:title=" ">
<polygon fill="#e0e0e0" stroke="#999999" points="267.12,-194 224.12,-194 224.12,-174 267.12,-174 267.12,-194"/>
<text text-anchor="middle" x="245.62" y="-180.5" font-family="Helvetica,sans-Serif" font-size="10.00">thread</text>
</a>
</g>
</g>
<!-- Node2&#45;&gt;Node3 -->
<g id="edge2_Node000002_Node000003" class="edge">
<title>Node2&#45;&gt;Node3</title>
<g id="a_edge2_Node000002_Node000003"><a xlink:title=" ">
<path fill="none" stroke="#63b8ff" d="M192.47,-235.62C202.05,-226.5 216.81,-212.45 228.34,-201.46"/>
<polygon fill="#63b8ff" stroke="#63b8ff" points="230.23,-204.54 235.06,-195.11 225.4,-199.47 230.23,-204.54"/>
</a>
</g>
</g>
<!-- Node4 -->
<g id="Node000004" class="node">
<title>Node4</title>
<g id="a_Node000004"><a xlink:href="rbd__device_8hpp.html" target="_top" xlink:title=" ">
<polygon fill="white" stroke="#666666" points="205.88,-194 125.38,-194 125.38,-174 205.88,-174 205.88,-194"/>
<text text-anchor="middle" x="165.62" y="-180.5" font-family="Helvetica,sans-Serif" font-size="10.00">rbd_device.hpp</text>
</a>
</g>
</g>
<!-- Node2&#45;&gt;Node4 -->
<g id="edge3_Node000002_Node000004" class="edge">
<title>Node2&#45;&gt;Node4</title>
<g id="a_edge3_Node000002_Node000004"><a xlink:title=" ">
<path fill="none" stroke="#63b8ff" d="M179.97,-235.62C177.61,-227.3 174.09,-214.86 171.12,-204.4"/>
<polygon fill="#63b8ff" stroke="#63b8ff" points="174.3,-203.78 168.21,-195.11 167.57,-205.69 174.3,-203.78"/>
</a>
</g>
</g>
<!-- Node5 -->
<g id="Node000005" class="node">
<title>Node5</title>
<g id="a_Node000005"><a xlink:href="visa__device_8hpp.html" target="_top" xlink:title="Заголовочный файл, в котором определены константы и класс VisaDevice.">
<polygon fill="white" stroke="#666666" points="177.88,-132 85.38,-132 85.38,-112 177.88,-112 177.88,-132"/>
<text text-anchor="middle" x="131.62" y="-118.5" font-family="Helvetica,sans-Serif" font-size="10.00">../visa_device.hpp</text>
</a>
</g>
</g>
<!-- Node4&#45;&gt;Node5 -->
<g id="edge4_Node000004_Node000005" class="edge">
<title>Node4&#45;&gt;Node5</title>
<g id="a_edge4_Node000004_Node000005"><a xlink:title=" ">
<path fill="none" stroke="#63b8ff" d="M160.31,-173.62C155.44,-165.03 148.1,-152.07 142.06,-141.41"/>
<polygon fill="#63b8ff" stroke="#63b8ff" points="144.76,-140.09 136.79,-133.11 138.67,-143.54 144.76,-140.09"/>
</a>
</g>
</g>
<!-- Node15 -->
<g id="Node000015" class="node">
<title>Node15</title>
<g id="a_Node000015"><a xlink:title=" ">
<polygon fill="#e0e0e0" stroke="#999999" points="303.38,-132 261.88,-132 261.88,-112 303.38,-112 303.38,-132"/>
<text text-anchor="middle" x="282.62" y="-118.5" font-family="Helvetica,sans-Serif" font-size="10.00">vector</text>
</a>
</g>
</g>
<!-- Node4&#45;&gt;Node15 -->
<g id="edge15_Node000004_Node000015" class="edge">
<title>Node4&#45;&gt;Node15</title>
<g id="a_edge15_Node000004_Node000015"><a xlink:title=" ">
<path fill="none" stroke="#63b8ff" d="M183.91,-173.62C202.88,-163.89 232.8,-148.55 254.73,-137.31"/>
<polygon fill="#63b8ff" stroke="#63b8ff" points="256.17,-139.99 263.47,-132.31 252.98,-133.76 256.17,-139.99"/>
</a>
</g>
</g>
<!-- Node6 -->
<g id="Node000006" class="node">
<title>Node6</title>
<g id="a_Node000006"><a xlink:title=" ">
<polygon fill="#e0e0e0" stroke="#999999" points="79.12,-20 36.12,-20 36.12,0 79.12,0 79.12,-20"/>
<text text-anchor="middle" x="57.62" y="-6.5" font-family="Helvetica,sans-Serif" font-size="10.00">format</text>
</a>
</g>
</g>
<!-- Node5&#45;&gt;Node6 -->
<g id="edge5_Node000005_Node000006" class="edge">
<title>Node5&#45;&gt;Node6</title>
<g id="a_edge5_Node000005_Node000006"><a xlink:title=" ">
<path fill="none" stroke="#63b8ff" d="M130.68,-111.88C128.95,-98.61 124.31,-73.65 112.62,-56 104.94,-44.38 93.33,-34.26 82.76,-26.57"/>
<polygon fill="#63b8ff" stroke="#63b8ff" points="85.08,-23.24 74.86,-20.47 81.12,-29.01 85.08,-23.24"/>
</a>
</g>
</g>
<!-- Node7 -->
<g id="Node000007" class="node">
<title>Node7</title>
<g id="a_Node000007"><a xlink:title=" ">
<polygon fill="#e0e0e0" stroke="#999999" points="45.25,-76 0,-76 0,-56 45.25,-56 45.25,-76"/>
<text text-anchor="middle" x="22.62" y="-62.5" font-family="Helvetica,sans-Serif" font-size="10.00">cstring</text>
</a>
</g>
</g>
<!-- Node5&#45;&gt;Node7 -->
<g id="edge6_Node000005_Node000007" class="edge">
<title>Node5&#45;&gt;Node7</title>
<g id="a_edge6_Node000005_Node000007"><a xlink:title=" ">
<path fill="none" stroke="#63b8ff" d="M112.64,-111.59C95.78,-103.24 70.9,-90.92 51.57,-81.34"/>
<polygon fill="#63b8ff" stroke="#63b8ff" points="53.27,-77.78 42.76,-76.48 50.17,-84.05 53.27,-77.78"/>
</a>
</g>
</g>
<!-- Node8 -->
<g id="Node000008" class="node">
<title>Node8</title>
<g id="a_Node000008"><a xlink:title=" ">
<polygon fill="#e0e0e0" stroke="#999999" points="104,-76 63.25,-76 63.25,-56 104,-56 104,-76"/>
<text text-anchor="middle" x="83.62" y="-62.5" font-family="Helvetica,sans-Serif" font-size="10.00">visa.h</text>
</a>
</g>
</g>
<!-- Node5&#45;&gt;Node8 -->
<g id="edge7_Node000005_Node000008" class="edge">
<title>Node5&#45;&gt;Node8</title>
<g id="a_edge7_Node000005_Node000008"><a xlink:title=" ">
<path fill="none" stroke="#63b8ff" d="M123.26,-111.59C116.59,-104.08 107.05,-93.35 99.01,-84.3"/>
<polygon fill="#63b8ff" stroke="#63b8ff" points="102.15,-82.45 92.89,-77.3 96.92,-87.1 102.15,-82.45"/>
</a>
</g>
</g>
<!-- Node9 -->
<g id="Node000009" class="node">
<title>Node9</title>
<g id="a_Node000009"><a xlink:href="logger_8hpp.html" target="_top" xlink:title="Библиотека, осуществляющая логирование">
<polygon fill="white" stroke="#666666" points="251.12,-76 160.12,-76 160.12,-56 251.12,-56 251.12,-76"/>
<text text-anchor="middle" x="205.62" y="-62.5" font-family="Helvetica,sans-Serif" font-size="10.00">../utils/logger.hpp</text>
</a>
</g>
</g>
<!-- Node5&#45;&gt;Node9 -->
<g id="edge8_Node000005_Node000009" class="edge">
<title>Node5&#45;&gt;Node9</title>
<g id="a_edge8_Node000005_Node000009"><a xlink:title=" ">
<path fill="none" stroke="#63b8ff" d="M144.51,-111.59C155.44,-103.62 171.34,-92.02 184.19,-82.64"/>
<polygon fill="#63b8ff" stroke="#63b8ff" points="185.87,-85.02 191.88,-76.3 181.74,-79.37 185.87,-85.02"/>
</a>
</g>
</g>
<!-- Node9&#45;&gt;Node6 -->
<g id="edge14_Node000009_Node000006" class="edge">
<title>Node9&#45;&gt;Node6</title>
<g id="a_edge14_Node000009_Node000006"><a xlink:title=" ">
<path fill="none" stroke="#63b8ff" d="M179.85,-55.59C154.69,-46.42 116.38,-32.44 89.37,-22.58"/>
<polygon fill="#63b8ff" stroke="#63b8ff" points="90.86,-19.04 80.26,-18.9 88.46,-25.61 90.86,-19.04"/>
</a>
</g>
</g>
<!-- Node10 -->
<g id="Node000010" class="node">
<title>Node10</title>
<g id="a_Node000010"><a xlink:title=" ">
<polygon fill="#e0e0e0" stroke="#999999" points="418.62,-20 378.62,-20 378.62,0 418.62,0 418.62,-20"/>
<text text-anchor="middle" x="398.62" y="-6.5" font-family="Helvetica,sans-Serif" font-size="10.00">string</text>
</a>
</g>
</g>
<!-- Node9&#45;&gt;Node10 -->
<g id="edge9_Node000009_Node000010" class="edge">
<title>Node9&#45;&gt;Node10</title>
<g id="a_edge9_Node000009_Node000010"><a xlink:title=" ">
<path fill="none" stroke="#63b8ff" d="M241.55,-55.51C272.63,-47.22 319.02,-34.65 367.91,-20.44"/>
<polygon fill="#63b8ff" stroke="#63b8ff" points="368.75,-23.54 377.37,-17.38 366.79,-16.82 368.75,-23.54"/>
</a>
</g>
</g>
<!-- Node11 -->
<g id="Node000011" class="node">
<title>Node11</title>
<g id="a_Node000011"><a xlink:title=" ">
<polygon fill="#e0e0e0" stroke="#999999" points="360.38,-20 306.88,-20 306.88,0 360.38,0 360.38,-20"/>
<text text-anchor="middle" x="333.62" y="-6.5" font-family="Helvetica,sans-Serif" font-size="10.00">iostream</text>
</a>
</g>
</g>
<!-- Node9&#45;&gt;Node11 -->
<g id="edge10_Node000009_Node000011" class="edge">
<title>Node9&#45;&gt;Node11</title>
<g id="a_edge10_Node000009_Node000011"><a xlink:title=" ">
<path fill="none" stroke="#63b8ff" d="M227.92,-55.59C248.17,-47.05 278.28,-34.35 301.2,-24.68"/>
<polygon fill="#63b8ff" stroke="#63b8ff" points="302.3,-27.59 310.16,-20.48 299.58,-21.14 302.3,-27.59"/>
</a>
</g>
</g>
<!-- Node12 -->
<g id="Node000012" class="node">
<title>Node12</title>
<g id="a_Node000012"><a xlink:title=" ">
<polygon fill="#e0e0e0" stroke="#999999" points="148.25,-20 97,-20 97,0 148.25,0 148.25,-20"/>
<text text-anchor="middle" x="122.62" y="-6.5" font-family="Helvetica,sans-Serif" font-size="10.00">sstream</text>
</a>
</g>
</g>
<!-- Node9&#45;&gt;Node12 -->
<g id="edge11_Node000009_Node000012" class="edge">
<title>Node9&#45;&gt;Node12</title>
<g id="a_edge11_Node000009_Node000012"><a xlink:title=" ">
<path fill="none" stroke="#63b8ff" d="M191.17,-55.59C178.75,-47.51 160.6,-35.71 146.1,-26.27"/>
<polygon fill="#63b8ff" stroke="#63b8ff" points="148.49,-23 138.2,-20.48 144.67,-28.87 148.49,-23"/>
</a>
</g>
</g>
<!-- Node13 -->
<g id="Node000013" class="node">
<title>Node13</title>
<g id="a_Node000013"><a xlink:title=" ">
<polygon fill="#e0e0e0" stroke="#999999" points="228.5,-20 166.75,-20 166.75,0 228.5,0 228.5,-20"/>
<text text-anchor="middle" x="197.62" y="-6.5" font-family="Helvetica,sans-Serif" font-size="10.00">sys/time.h</text>
</a>
</g>
</g>
<!-- Node9&#45;&gt;Node13 -->
<g id="edge12_Node000009_Node000013" class="edge">
<title>Node9&#45;&gt;Node13</title>
<g id="a_edge12_Node000009_Node000013"><a xlink:title=" ">
<path fill="none" stroke="#63b8ff" d="M204.23,-55.59C203.23,-48.86 201.85,-39.53 200.61,-31.15"/>
<polygon fill="#63b8ff" stroke="#63b8ff" points="203.93,-30.68 199,-21.3 197.01,-31.7 203.93,-30.68"/>
</a>
</g>
</g>
<!-- Node14 -->
<g id="Node000014" class="node">
<title>Node14</title>
<g id="a_Node000014"><a xlink:title=" ">
<polygon fill="#e0e0e0" stroke="#999999" points="289.12,-20 246.12,-20 246.12,0 289.12,0 289.12,-20"/>
<text text-anchor="middle" x="267.62" y="-6.5" font-family="Helvetica,sans-Serif" font-size="10.00">cmath</text>
</a>
</g>
</g>
<!-- Node9&#45;&gt;Node14 -->
<g id="edge13_Node000009_Node000014" class="edge">
<title>Node9&#45;&gt;Node14</title>
<g id="a_edge13_Node000009_Node000014"><a xlink:title=" ">
<path fill="none" stroke="#63b8ff" d="M216.42,-55.59C225.31,-47.85 238.13,-36.69 248.72,-27.47"/>
<polygon fill="#63b8ff" stroke="#63b8ff" points="250.71,-29.51 255.95,-20.3 246.11,-24.23 250.71,-29.51"/>
</a>
</g>
</g>
<!-- Node17&#45;&gt;Node10 -->
<g id="edge18_Node000017_Node000010" class="edge">
<title>Node17&#45;&gt;Node10</title>
<g id="a_edge18_Node000017_Node000010"><a xlink:title=" ">
<path fill="none" stroke="#63b8ff" d="M390.42,-167.74C392.06,-136.55 395.77,-65.56 397.59,-30.85"/>
<polygon fill="#63b8ff" stroke="#63b8ff" points="401.12,-31.38 398.14,-21.21 394.13,-31.01 401.12,-31.38"/>
</a>
</g>
</g>
<!-- Node17&#45;&gt;Node15 -->
<g id="edge19_Node000017_Node000015" class="edge">
<title>Node17&#45;&gt;Node15</title>
<g id="a_edge19_Node000017_Node000015"><a xlink:title=" ">
<path fill="none" stroke="#63b8ff" d="M362.07,-167.55C345.66,-158.35 324.96,-146.74 308.8,-137.68"/>
<polygon fill="#63b8ff" stroke="#63b8ff" points="310.84,-134.25 300.4,-132.41 307.41,-140.35 310.84,-134.25"/>
</a>
</g>
</g>
</g>
</svg>
</svg>

<style type='text/css'>
<![CDATA[
[data-mouse-over-selected='false'] { opacity: 0.7; }
[data-mouse-over-selected='true']  { opacity: 1.0; }
]]>
</style>
<script type="application/ecmascript"><![CDATA[
document.addEventListener('DOMContentLoaded', (event) => {
  highlightEdges();
  highlightAdjacentNodes();
});
]]></script>
</svg>
