<?xml version="1.0" encoding="UTF-8" standalone="no"?>
<!DOCTYPE svg PUBLIC "-//W3C//DTD SVG 1.1//EN"
 "http://www.w3.org/Graphics/SVG/1.1/DTD/svg11.dtd">
<!-- Generated by graphviz version 8.0.5 (20230430.1635)
 -->
<!-- Title: src/devices/rbd/tesart_rbd.hpp Pages: 1 -->
<svg width="391pt" height="264pt"
 viewBox="0.00 0.00 391.00 264.00" xmlns="http://www.w3.org/2000/svg" xmlns:xlink="http://www.w3.org/1999/xlink">

<svg id="main" version="1.1" xmlns="http://www.w3.org/2000/svg" xmlns:xlink="http://www.w3.org/1999/xlink" xml:space="preserve" onload="init(evt)">
<style type="text/css"><![CDATA[
.node, .edge {opacity: 0.7;}
.node.selected, .edge.selected {opacity: 1;}
.edge:hover path { stroke: red; }
.edge:hover polygon { stroke: red; fill: red; }
]]></style>
<script type="application/ecmascript" xlink:href="svg.min.js"/>
<svg id="graph" class="graph">
<g id="graph0" class="graph" transform="scale(1 1) rotate(0) translate(4 260)">
<title>src/devices/rbd/tesart_rbd.hpp</title>
<!-- Node1 -->
<g id="Node000001" class="node">
<title>Node1</title>
<g id="a_Node000001"><a xlink:title=" ">
<polygon fill="#999999" stroke="#666666" points="158,-256 49,-256 49,-224 158,-224 158,-256"/>
<text text-anchor="start" x="57" y="-242.5" font-family="Helvetica,sans-Serif" font-size="10.00">src/devices/rbd/tesart</text>
<text text-anchor="middle" x="103.5" y="-230.5" font-family="Helvetica,sans-Serif" font-size="10.00">_rbd.hpp</text>
</a>
</g>
</g>
<!-- Node2 -->
<g id="Node000002" class="node">
<title>Node2</title>
<g id="a_Node000002"><a xlink:title=" ">
<polygon fill="#e0e0e0" stroke="#999999" points="85,-188 42,-188 42,-168 85,-168 85,-188"/>
<text text-anchor="middle" x="63.5" y="-174.5" font-family="Helvetica,sans-Serif" font-size="10.00">thread</text>
</a>
</g>
</g>
<!-- Node1&#45;&gt;Node2 -->
<g id="edge1_Node000001_Node000002" class="edge">
<title>Node1&#45;&gt;Node2</title>
<g id="a_edge1_Node000001_Node000002"><a xlink:title=" ">
<path fill="none" stroke="#63b8ff" d="M93.2,-223.55C87.87,-215.56 81.34,-205.76 75.76,-197.39"/>
<polygon fill="#63b8ff" stroke="#63b8ff" points="78.23,-195.79 69.77,-189.41 72.41,-199.67 78.23,-195.79"/>
</a>
</g>
</g>
<!-- Node3 -->
<g id="Node000003" class="node">
<title>Node3</title>
<g id="a_Node000003"><a xlink:href="rbd__device_8hpp.html" target="_top" xlink:title=" ">
<polygon fill="white" stroke="#666666" points="183.75,-188 103.25,-188 103.25,-168 183.75,-168 183.75,-188"/>
<text text-anchor="middle" x="143.5" y="-174.5" font-family="Helvetica,sans-Serif" font-size="10.00">rbd_device.hpp</text>
</a>
</g>
</g>
<!-- Node1&#45;&gt;Node3 -->
<g id="edge2_Node000001_Node000003" class="edge">
<title>Node1&#45;&gt;Node3</title>
<g id="a_edge2_Node000001_Node000003"><a xlink:title=" ">
<path fill="none" stroke="#63b8ff" d="M113.8,-223.55C119.13,-215.56 125.66,-205.76 131.24,-197.39"/>
<polygon fill="#63b8ff" stroke="#63b8ff" points="134.59,-199.67 137.23,-189.41 128.77,-195.79 134.59,-199.67"/>
</a>
</g>
</g>
<!-- Node4 -->
<g id="Node000004" class="node">
<title>Node4</title>
<g id="a_Node000004"><a xlink:href="visa__device_8hpp.html" target="_top" xlink:title="Заголовочный файл, в котором определены константы и класс VisaDevice.">
<polygon fill="white" stroke="#666666" points="147.75,-132 55.25,-132 55.25,-112 147.75,-112 147.75,-132"/>
<text text-anchor="middle" x="101.5" y="-118.5" font-family="Helvetica,sans-Serif" font-size="10.00">../visa_device.hpp</text>
</a>
</g>
</g>
<!-- Node3&#45;&gt;Node4 -->
<g id="edge3_Node000003_Node000004" class="edge">
<title>Node3&#45;&gt;Node4</title>
<g id="a_edge3_Node000003_Node000004"><a xlink:title=" ">
<path fill="none" stroke="#63b8ff" d="M136.18,-167.59C130.46,-160.24 122.34,-149.8 115.4,-140.87"/>
<polygon fill="#63b8ff" stroke="#63b8ff" points="117.63,-139.04 108.73,-133.3 112.11,-143.34 117.63,-139.04"/>
</a>
</g>
</g>
<!-- Node14 -->
<g id="Node000014" class="node">
<title>Node14</title>
<g id="a_Node000014"><a xlink:title=" ">
<polygon fill="#e0e0e0" stroke="#999999" points="207.25,-132 165.75,-132 165.75,-112 207.25,-112 207.25,-132"/>
<text text-anchor="middle" x="186.5" y="-118.5" font-family="Helvetica,sans-Serif" font-size="10.00">vector</text>
</a>
</g>
</g>
<!-- Node3&#45;&gt;Node14 -->
<g id="edge14_Node000003_Node000014" class="edge">
<title>Node3&#45;&gt;Node14</title>
<g id="a_edge14_Node000003_Node000014"><a xlink:title=" ">
<path fill="none" stroke="#63b8ff" d="M150.99,-167.59C156.85,-160.24 165.16,-149.8 172.27,-140.87"/>
<polygon fill="#63b8ff" stroke="#63b8ff" points="175.6,-143.3 179.1,-133.3 170.13,-138.94 175.6,-143.3"/>
</a>
</g>
</g>
<!-- Node5 -->
<g id="Node000005" class="node">
<title>Node5</title>
<g id="a_Node000005"><a xlink:title=" ">
<polygon fill="#e0e0e0" stroke="#999999" points="43,-20 0,-20 0,0 43,0 43,-20"/>
<text text-anchor="middle" x="21.5" y="-6.5" font-family="Helvetica,sans-Serif" font-size="10.00">format</text>
</a>
</g>
</g>
<!-- Node4&#45;&gt;Node5 -->
<g id="edge4_Node000004_Node000005" class="edge">
<title>Node4&#45;&gt;Node5</title>
<g id="a_edge4_Node000004_Node000005"><a xlink:title=" ">
<path fill="none" stroke="#63b8ff" d="M82.26,-111.57C68.42,-103.84 50.34,-91.63 39.5,-76 30.21,-62.61 25.7,-44.56 23.52,-30.88"/>
<polygon fill="#63b8ff" stroke="#63b8ff" points="26.89,-30.68 22.14,-21.21 19.95,-31.57 26.89,-30.68"/>
</a>
</g>
</g>
<!-- Node6 -->
<g id="Node000006" class="node">
<title>Node6</title>
<g id="a_Node000006"><a xlink:title=" ">
<polygon fill="#e0e0e0" stroke="#999999" points="94.12,-76 48.88,-76 48.88,-56 94.12,-56 94.12,-76"/>
<text text-anchor="middle" x="71.5" y="-62.5" font-family="Helvetica,sans-Serif" font-size="10.00">cstring</text>
</a>
</g>
</g>
<!-- Node4&#45;&gt;Node6 -->
<g id="edge5_Node000004_Node000006" class="edge">
<title>Node4&#45;&gt;Node6</title>
<g id="a_edge5_Node000004_Node000006"><a xlink:title=" ">
<path fill="none" stroke="#63b8ff" d="M96.27,-111.59C92.32,-104.47 86.75,-94.45 81.9,-85.72"/>
<polygon fill="#63b8ff" stroke="#63b8ff" points="84.58,-84.34 76.67,-77.3 78.46,-87.74 84.58,-84.34"/>
</a>
</g>
</g>
<!-- Node7 -->
<g id="Node000007" class="node">
<title>Node7</title>
<g id="a_Node000007"><a xlink:title=" ">
<polygon fill="#e0e0e0" stroke="#999999" points="152.88,-76 112.12,-76 112.12,-56 152.88,-56 152.88,-76"/>
<text text-anchor="middle" x="132.5" y="-62.5" font-family="Helvetica,sans-Serif" font-size="10.00">visa.h</text>
</a>
</g>
</g>
<!-- Node4&#45;&gt;Node7 -->
<g id="edge6_Node000004_Node000007" class="edge">
<title>Node4&#45;&gt;Node7</title>
<g id="a_edge6_Node000004_Node000007"><a xlink:title=" ">
<path fill="none" stroke="#63b8ff" d="M106.9,-111.59C110.99,-104.47 116.74,-94.45 121.76,-85.72"/>
<polygon fill="#63b8ff" stroke="#63b8ff" points="125.22,-87.71 127.16,-77.3 119.15,-84.23 125.22,-87.71"/>
</a>
</g>
</g>
<!-- Node8 -->
<g id="Node000008" class="node">
<title>Node8</title>
<g id="a_Node000008"><a xlink:href="logger_8hpp.html" target="_top" xlink:title="Библиотека, осуществляющая логирование">
<polygon fill="white" stroke="#666666" points="262,-76 171,-76 171,-56 262,-56 262,-76"/>
<text text-anchor="middle" x="216.5" y="-62.5" font-family="Helvetica,sans-Serif" font-size="10.00">../utils/logger.hpp</text>
</a>
</g>
</g>
<!-- Node4&#45;&gt;Node8 -->
<g id="edge7_Node000004_Node000008" class="edge">
<title>Node4&#45;&gt;Node8</title>
<g id="a_edge7_Node000004_Node000008"><a xlink:title=" ">
<path fill="none" stroke="#63b8ff" d="M121.53,-111.59C139.48,-103.17 166.05,-90.69 186.53,-81.07"/>
<polygon fill="#63b8ff" stroke="#63b8ff" points="187.75,-83.9 195.31,-76.48 184.77,-77.56 187.75,-83.9"/>
</a>
</g>
</g>
<!-- Node8&#45;&gt;Node5 -->
<g id="edge13_Node000008_Node000005" class="edge">
<title>Node8&#45;&gt;Node5</title>
<g id="a_edge13_Node000008_Node000005"><a xlink:title=" ">
<path fill="none" stroke="#63b8ff" d="M181.59,-55.58C150.5,-47.16 103.52,-34.34 53.54,-20.26"/>
<polygon fill="#63b8ff" stroke="#63b8ff" points="54.74,-16.68 44.17,-17.34 52.84,-23.42 54.74,-16.68"/>
</a>
</g>
</g>
<!-- Node9 -->
<g id="Node000009" class="node">
<title>Node9</title>
<g id="a_Node000009"><a xlink:title=" ">
<polygon fill="#e0e0e0" stroke="#999999" points="101.5,-20 61.5,-20 61.5,0 101.5,0 101.5,-20"/>
<text text-anchor="middle" x="81.5" y="-6.5" font-family="Helvetica,sans-Serif" font-size="10.00">string</text>
</a>
</g>
</g>
<!-- Node8&#45;&gt;Node9 -->
<g id="edge8_Node000008_Node000009" class="edge">
<title>Node8&#45;&gt;Node9</title>
<g id="a_edge8_Node000008_Node000009"><a xlink:title=" ">
<path fill="none" stroke="#63b8ff" d="M192.98,-55.59C170.48,-46.59 136.42,-32.97 111.87,-23.15"/>
<polygon fill="#63b8ff" stroke="#63b8ff" points="113.25,-19.53 102.67,-19.07 110.65,-26.03 113.25,-19.53"/>
</a>
</g>
</g>
<!-- Node10 -->
<g id="Node000010" class="node">
<title>Node10</title>
<g id="a_Node000010"><a xlink:title=" ">
<polygon fill="#e0e0e0" stroke="#999999" points="173.25,-20 119.75,-20 119.75,0 173.25,0 173.25,-20"/>
<text text-anchor="middle" x="146.5" y="-6.5" font-family="Helvetica,sans-Serif" font-size="10.00">iostream</text>
</a>
</g>
</g>
<!-- Node8&#45;&gt;Node10 -->
<g id="edge9_Node000008_Node000010" class="edge">
<title>Node8&#45;&gt;Node10</title>
<g id="a_edge9_Node000008_Node000010"><a xlink:title=" ">
<path fill="none" stroke="#63b8ff" d="M204.31,-55.59C194.07,-47.7 179.22,-36.24 167.13,-26.92"/>
<polygon fill="#63b8ff" stroke="#63b8ff" points="169.61,-23.64 159.55,-20.3 165.33,-29.18 169.61,-23.64"/>
</a>
</g>
</g>
<!-- Node11 -->
<g id="Node000011" class="node">
<title>Node11</title>
<g id="a_Node000011"><a xlink:title=" ">
<polygon fill="#e0e0e0" stroke="#999999" points="242.12,-20 190.88,-20 190.88,0 242.12,0 242.12,-20"/>
<text text-anchor="middle" x="216.5" y="-6.5" font-family="Helvetica,sans-Serif" font-size="10.00">sstream</text>
</a>
</g>
</g>
<!-- Node8&#45;&gt;Node11 -->
<g id="edge10_Node000008_Node000011" class="edge">
<title>Node8&#45;&gt;Node11</title>
<g id="a_edge10_Node000008_Node000011"><a xlink:title=" ">
<path fill="none" stroke="#63b8ff" d="M216.5,-55.59C216.5,-48.86 216.5,-39.53 216.5,-31.15"/>
<polygon fill="#63b8ff" stroke="#63b8ff" points="220,-31.3 216.5,-21.3 213,-31.3 220,-31.3"/>
</a>
</g>
</g>
<!-- Node12 -->
<g id="Node000012" class="node">
<title>Node12</title>
<g id="a_Node000012"><a xlink:title=" ">
<polygon fill="#e0e0e0" stroke="#999999" points="322.38,-20 260.62,-20 260.62,0 322.38,0 322.38,-20"/>
<text text-anchor="middle" x="291.5" y="-6.5" font-family="Helvetica,sans-Serif" font-size="10.00">sys/time.h</text>
</a>
</g>
</g>
<!-- Node8&#45;&gt;Node12 -->
<g id="edge11_Node000008_Node000012" class="edge">
<title>Node8&#45;&gt;Node12</title>
<g id="a_edge11_Node000008_Node000012"><a xlink:title=" ">
<path fill="none" stroke="#63b8ff" d="M229.56,-55.59C240.57,-47.67 256.56,-36.16 269.53,-26.82"/>
<polygon fill="#63b8ff" stroke="#63b8ff" points="271.26,-29.16 277.33,-20.48 267.17,-23.48 271.26,-29.16"/>
</a>
</g>
</g>
<!-- Node13 -->
<g id="Node000013" class="node">
<title>Node13</title>
<g id="a_Node000013"><a xlink:title=" ">
<polygon fill="#e0e0e0" stroke="#999999" points="383,-20 340,-20 340,0 383,0 383,-20"/>
<text text-anchor="middle" x="361.5" y="-6.5" font-family="Helvetica,sans-Serif" font-size="10.00">cmath</text>
</a>
</g>
</g>
<!-- Node8&#45;&gt;Node13 -->
<g id="edge12_Node000008_Node000013" class="edge">
<title>Node8&#45;&gt;Node13</title>
<g id="a_edge12_Node000008_Node000013"><a xlink:title=" ">
<path fill="none" stroke="#63b8ff" d="M241.76,-55.59C266.15,-46.51 303.17,-32.72 329.59,-22.88"/>
<polygon fill="#63b8ff" stroke="#63b8ff" points="330.69,-25.84 338.84,-19.07 328.25,-19.28 330.69,-25.84"/>
</a>
</g>
</g>
</g>
</svg>
</svg>

<style type='text/css'>
<![CDATA[
[data-mouse-over-selected='false'] { opacity: 0.7; }
[data-mouse-over-selected='true']  { opacity: 1.0; }
]]>
</style>
<script type="application/ecmascript"><![CDATA[
document.addEventListener('DOMContentLoaded', (event) => {
  highlightEdges();
  highlightAdjacentNodes();
});
]]></script>
</svg>
