<?xml version="1.0" encoding="UTF-8" standalone="no"?>
<!DOCTYPE svg PUBLIC "-//W3C//DTD SVG 1.1//EN"
 "http://www.w3.org/Graphics/SVG/1.1/DTD/svg11.dtd">
<!-- Generated by graphviz version 8.1.0 (20230707.0739)
 -->
<!-- Title: src/devices/visa_device.hpp Pages: 1 -->
<svg width="770pt" height="356pt"
 viewBox="0.00 0.00 769.50 356.00" xmlns="http://www.w3.org/2000/svg" xmlns:xlink="http://www.w3.org/1999/xlink">
<g id="graph0" class="graph" transform="scale(1 1) rotate(0) translate(4 352)">
<title>src/devices/visa_device.hpp</title>
<!-- Node1 -->
<g id="Node000001" class="node">
<title>Node1</title>
<g id="a_Node000001"><a xlink:title="Заголовочный файл, в котором определены константы и класс VisaDevice.">
<polygon fill="#999999" stroke="#666666" points="490.25,-348 355,-348 355,-328 490.25,-328 490.25,-348"/>
<text text-anchor="middle" x="422.62" y="-334.5" font-family="Helvetica,sans-Serif" font-size="10.00">src/devices/visa_device.hpp</text>
</a>
</g>
</g>
<!-- Node2 -->
<g id="Node000002" class="node">
<title>Node2</title>
<g id="a_Node000002"><a xlink:href="gen__device_8hpp.html" target="_top" xlink:title="Заголовочный файл, в котором представлен класс GenDevice и определён набор констант">
<polygon fill="white" stroke="#666666" points="202.75,-292 100.5,-292 100.5,-260 202.75,-260 202.75,-292"/>
<text text-anchor="start" x="108.5" y="-278.5" font-family="Helvetica,sans-Serif" font-size="10.00">src/devices/gen/gen</text>
<text text-anchor="middle" x="151.62" y="-266.5" font-family="Helvetica,sans-Serif" font-size="10.00">_device.hpp</text>
</a>
</g>
</g>
<!-- Node1&#45;&gt;Node2 -->
<g id="edge1_Node000001_Node000002" class="edge">
<title>Node1&#45;&gt;Node2</title>
<g id="a_edge1_Node000001_Node000002"><a xlink:title=" ">
<path fill="none" stroke="#63b8ff" d="M369.43,-325.22C321.16,-314.53 250.44,-298.88 202.8,-288.33"/>
<polygon fill="#63b8ff" stroke="#63b8ff" points="368.46,-328.81 378.98,-327.56 369.98,-321.98 368.46,-328.81"/>
</a>
</g>
</g>
<!-- Node10 -->
<g id="Node000010" class="node">
<title>Node10</title>
<g id="a_Node000010"><a xlink:href="rbd__device_8hpp.html" target="_top" xlink:title="Заголовочный файл, в котором реализован класс RbdDevice.">
<polygon fill="white" stroke="#666666" points="389.5,-292 291.75,-292 291.75,-260 389.5,-260 389.5,-292"/>
<text text-anchor="start" x="299.75" y="-278.5" font-family="Helvetica,sans-Serif" font-size="10.00">src/devices/rbd/rbd</text>
<text text-anchor="middle" x="340.62" y="-266.5" font-family="Helvetica,sans-Serif" font-size="10.00">_device.hpp</text>
</a>
</g>
</g>
<!-- Node1&#45;&gt;Node10 -->
<g id="edge10_Node000001_Node000010" class="edge">
<title>Node1&#45;&gt;Node10</title>
<g id="a_edge10_Node000001_Node000010"><a xlink:title=" ">
<path fill="none" stroke="#63b8ff" d="M401.17,-321.3C388.97,-312.38 373.76,-301.25 361.64,-292.37"/>
<polygon fill="#63b8ff" stroke="#63b8ff" points="398.68,-324.54 408.81,-327.62 402.81,-318.9 398.68,-324.54"/>
</a>
</g>
</g>
<!-- Node14 -->
<g id="Node000014" class="node">
<title>Node14</title>
<g id="a_Node000014"><a xlink:href="visa__device_8cpp.html" target="_top" xlink:title="Файл исходного кода, в котором реализованы конструкторы и методы для класа VisaDevice.">
<polygon fill="white" stroke="#666666" points="684.25,-286 549,-286 549,-266 684.25,-266 684.25,-286"/>
<text text-anchor="middle" x="616.62" y="-272.5" font-family="Helvetica,sans-Serif" font-size="10.00">src/devices/visa_device.cpp</text>
</a>
</g>
</g>
<!-- Node1&#45;&gt;Node14 -->
<g id="edge17_Node000001_Node000014" class="edge">
<title>Node1&#45;&gt;Node14</title>
<g id="a_edge17_Node000001_Node000014"><a xlink:title=" ">
<path fill="none" stroke="#63b8ff" d="M463.28,-324.43C499.96,-313.08 553.09,-296.65 586.21,-286.41"/>
<polygon fill="#63b8ff" stroke="#63b8ff" points="462.46,-321.33 453.94,-327.62 464.53,-328.01 462.46,-321.33"/>
</a>
</g>
</g>
<!-- Node15 -->
<g id="Node000015" class="node">
<title>Node15</title>
<g id="a_Node000015"><a xlink:href="vna__device_8hpp.html" target="_top" xlink:title="Заголовочный файл, в котором реализован класс VnaDevice.">
<polygon fill="white" stroke="#666666" points="531.25,-292 432,-292 432,-260 531.25,-260 531.25,-292"/>
<text text-anchor="start" x="440" y="-278.5" font-family="Helvetica,sans-Serif" font-size="10.00">src/devices/vna/vna</text>
<text text-anchor="middle" x="481.62" y="-266.5" font-family="Helvetica,sans-Serif" font-size="10.00">_device.hpp</text>
</a>
</g>
</g>
<!-- Node1&#45;&gt;Node15 -->
<g id="edge18_Node000001_Node000015" class="edge">
<title>Node1&#45;&gt;Node15</title>
<g id="a_edge18_Node000001_Node000015"><a xlink:title=" ">
<path fill="none" stroke="#63b8ff" d="M439.42,-319.92C448.03,-311.16 458.42,-300.6 466.74,-292.14"/>
<polygon fill="#63b8ff" stroke="#63b8ff" points="437.36,-317.04 432.84,-326.62 442.35,-321.95 437.36,-317.04"/>
</a>
</g>
</g>
<!-- Node3 -->
<g id="Node000003" class="node">
<title>Node3</title>
<g id="a_Node000003"><a xlink:href="device__set_8hpp.html" target="_top" xlink:title="Заголовочный файл, содержащий в себе класс DeviceSet и набор констант, необходимых для данного класса...">
<polygon fill="white" stroke="#666666" points="425,-156 330.25,-156 330.25,-124 425,-124 425,-156"/>
<text text-anchor="start" x="338.25" y="-142.5" font-family="Helvetica,sans-Serif" font-size="10.00">src/devices/device</text>
<text text-anchor="middle" x="377.62" y="-130.5" font-family="Helvetica,sans-Serif" font-size="10.00">_set.hpp</text>
</a>
</g>
</g>
<!-- Node2&#45;&gt;Node3 -->
<g id="edge2_Node000002_Node000003" class="edge">
<title>Node2&#45;&gt;Node3</title>
<g id="a_edge2_Node000002_Node000003"><a xlink:title=" ">
<path fill="none" stroke="#63b8ff" d="M150.84,-248.77C151.73,-230.51 156.01,-206.85 170.62,-192 181.85,-180.59 272.44,-161.31 330,-150.01"/>
<polygon fill="#63b8ff" stroke="#63b8ff" points="147.32,-248.53 150.66,-258.59 154.32,-248.65 147.32,-248.53"/>
</a>
</g>
</g>
<!-- Node8 -->
<g id="Node000008" class="node">
<title>Node8</title>
<g id="a_Node000008"><a xlink:href="keysight__gen_8hpp.html" target="_top" xlink:title="Заголовочный файл, в котором определён класс KeysightGen.">
<polygon fill="white" stroke="#666666" points="123.25,-224 0,-224 0,-192 123.25,-192 123.25,-224"/>
<text text-anchor="start" x="8" y="-210.5" font-family="Helvetica,sans-Serif" font-size="10.00">src/devices/gen/keysight</text>
<text text-anchor="middle" x="61.62" y="-198.5" font-family="Helvetica,sans-Serif" font-size="10.00">_gen.hpp</text>
</a>
</g>
</g>
<!-- Node2&#45;&gt;Node8 -->
<g id="edge7_Node000002_Node000008" class="edge">
<title>Node2&#45;&gt;Node8</title>
<g id="a_edge7_Node000002_Node000008"><a xlink:title=" ">
<path fill="none" stroke="#63b8ff" d="M122.2,-253.42C109.3,-243.96 94.46,-233.08 82.7,-224.45"/>
<polygon fill="#63b8ff" stroke="#63b8ff" points="119.62,-256.6 129.75,-259.69 123.76,-250.96 119.62,-256.6"/>
</a>
</g>
</g>
<!-- Node4 -->
<g id="Node000004" class="node">
<title>Node4</title>
<g id="a_Node000004"><a xlink:href="device__set_8cpp.html" target="_top" xlink:title="Файл исходного кода, в котором реализованы методы для класа DeviceSet.">
<polygon fill="white" stroke="#666666" points="364,-88 269.25,-88 269.25,-56 364,-56 364,-88"/>
<text text-anchor="start" x="277.25" y="-74.5" font-family="Helvetica,sans-Serif" font-size="10.00">src/devices/device</text>
<text text-anchor="middle" x="316.62" y="-62.5" font-family="Helvetica,sans-Serif" font-size="10.00">_set.cpp</text>
</a>
</g>
</g>
<!-- Node3&#45;&gt;Node4 -->
<g id="edge3_Node000003_Node000004" class="edge">
<title>Node3&#45;&gt;Node4</title>
<g id="a_edge3_Node000003_Node000004"><a xlink:title=" ">
<path fill="none" stroke="#63b8ff" d="M356.1,-115.71C347.67,-106.59 338.23,-96.37 330.7,-88.22"/>
<polygon fill="#63b8ff" stroke="#63b8ff" points="353.12,-117.72 362.48,-122.69 358.26,-112.97 353.12,-117.72"/>
</a>
</g>
</g>
<!-- Node5 -->
<g id="Node000005" class="node">
<title>Node5</title>
<g id="a_Node000005"><a xlink:href="task__manager_8hpp.html" target="_top" xlink:title="Заголовочный файл, в котором определён класс TaskManager и набор констант для работы с ним">
<polygon fill="white" stroke="#666666" points="495,-82 382.25,-82 382.25,-62 495,-62 495,-82"/>
<text text-anchor="middle" x="438.62" y="-68.5" font-family="Helvetica,sans-Serif" font-size="10.00">src/task_manager.hpp</text>
</a>
</g>
</g>
<!-- Node3&#45;&gt;Node5 -->
<g id="edge4_Node000003_Node000005" class="edge">
<title>Node3&#45;&gt;Node5</title>
<g id="a_edge4_Node000003_Node000005"><a xlink:title=" ">
<path fill="none" stroke="#63b8ff" d="M399.15,-115.71C409.79,-104.2 422.02,-90.97 430.01,-82.32"/>
<polygon fill="#63b8ff" stroke="#63b8ff" points="396.99,-112.97 392.77,-122.69 402.13,-117.72 396.99,-112.97"/>
</a>
</g>
</g>
<!-- Node6 -->
<g id="Node000006" class="node">
<title>Node6</title>
<g id="a_Node000006"><a xlink:href="main_8cpp.html" target="_top" xlink:title="Главный файл приложения">
<polygon fill="white" stroke="#666666" points="419.75,-20 347.5,-20 347.5,0 419.75,0 419.75,-20"/>
<text text-anchor="middle" x="383.62" y="-6.5" font-family="Helvetica,sans-Serif" font-size="10.00">src/main.cpp</text>
</a>
</g>
</g>
<!-- Node5&#45;&gt;Node6 -->
<g id="edge5_Node000005_Node000006" class="edge">
<title>Node5&#45;&gt;Node6</title>
<g id="a_edge5_Node000005_Node000006"><a xlink:title=" ">
<path fill="none" stroke="#63b8ff" d="M422.65,-53.58C412.62,-42.63 400.09,-28.97 391.98,-20.11"/>
<polygon fill="#63b8ff" stroke="#63b8ff" points="419.69,-55.62 429.03,-60.62 424.85,-50.89 419.69,-55.62"/>
</a>
</g>
</g>
<!-- Node7 -->
<g id="Node000007" class="node">
<title>Node7</title>
<g id="a_Node000007"><a xlink:href="task__manager_8cpp.html" target="_top" xlink:title="Файл исходного кода, в котором реализованы методы для класа TaskManager.">
<polygon fill="white" stroke="#666666" points="551,-20 438.25,-20 438.25,0 551,0 551,-20"/>
<text text-anchor="middle" x="494.62" y="-6.5" font-family="Helvetica,sans-Serif" font-size="10.00">src/task_manager.cpp</text>
</a>
</g>
</g>
<!-- Node5&#45;&gt;Node7 -->
<g id="edge6_Node000005_Node000007" class="edge">
<title>Node5&#45;&gt;Node7</title>
<g id="a_edge6_Node000005_Node000007"><a xlink:title=" ">
<path fill="none" stroke="#63b8ff" d="M454.58,-53.9C464.85,-42.91 477.78,-29.05 486.12,-20.11"/>
<polygon fill="#63b8ff" stroke="#63b8ff" points="452.64,-50.93 448.38,-60.62 457.76,-55.7 452.64,-50.93"/>
</a>
</g>
</g>
<!-- Node8&#45;&gt;Node3 -->
<g id="edge8_Node000008_Node000003" class="edge">
<title>Node8&#45;&gt;Node3</title>
<g id="a_edge8_Node000008_Node000003"><a xlink:title=" ">
<path fill="none" stroke="#63b8ff" d="M134.25,-191.83C194.43,-179.26 278.22,-161.76 330.13,-150.92"/>
<polygon fill="#63b8ff" stroke="#63b8ff" points="133.75,-188.57 124.68,-194.04 135.18,-195.42 133.75,-188.57"/>
</a>
</g>
</g>
<!-- Node9 -->
<g id="Node000009" class="node">
<title>Node9</title>
<g id="a_Node000009"><a xlink:href="keysight__gen_8cpp.html" target="_top" xlink:title="Файл исходного кода, в котором реализованы методы для класа KeysightGen.">
<polygon fill="white" stroke="#666666" points="123.25,-156 0,-156 0,-124 123.25,-124 123.25,-156"/>
<text text-anchor="start" x="8" y="-142.5" font-family="Helvetica,sans-Serif" font-size="10.00">src/devices/gen/keysight</text>
<text text-anchor="middle" x="61.62" y="-130.5" font-family="Helvetica,sans-Serif" font-size="10.00">_gen.cpp</text>
</a>
</g>
</g>
<!-- Node8&#45;&gt;Node9 -->
<g id="edge9_Node000008_Node000009" class="edge">
<title>Node8&#45;&gt;Node9</title>
<g id="a_edge9_Node000008_Node000009"><a xlink:title=" ">
<path fill="none" stroke="#63b8ff" d="M61.62,-180.89C61.62,-172.52 61.62,-163.54 61.62,-156.22"/>
<polygon fill="#63b8ff" stroke="#63b8ff" points="58.13,-180.69 61.62,-190.69 65.13,-180.69 58.13,-180.69"/>
</a>
</g>
</g>
<!-- Node10&#45;&gt;Node3 -->
<g id="edge11_Node000010_Node000003" class="edge">
<title>Node10&#45;&gt;Node3</title>
<g id="a_edge11_Node000010_Node000003"><a xlink:title=" ">
<path fill="none" stroke="#63b8ff" d="M334.39,-248.86C331.6,-232.14 330.2,-210.24 336.62,-192 341.45,-178.28 351.7,-165.53 360.75,-156.21"/>
<polygon fill="#63b8ff" stroke="#63b8ff" points="331.12,-249.36 336.47,-258.5 337.99,-248.02 331.12,-249.36"/>
</a>
</g>
</g>
<!-- Node11 -->
<g id="Node000011" class="node">
<title>Node11</title>
<g id="a_Node000011"><a xlink:href="demo__rdb_8hpp.html" target="_top" xlink:title="Заголовочный файл, в котором реализован класс DemoRbd.">
<polygon fill="white" stroke="#666666" points="453.75,-224 345.5,-224 345.5,-192 453.75,-192 453.75,-224"/>
<text text-anchor="start" x="353.5" y="-210.5" font-family="Helvetica,sans-Serif" font-size="10.00">src/devices/rbd/demo</text>
<text text-anchor="middle" x="399.62" y="-198.5" font-family="Helvetica,sans-Serif" font-size="10.00">_rdb.hpp</text>
</a>
</g>
</g>
<!-- Node10&#45;&gt;Node11 -->
<g id="edge12_Node000010_Node000011" class="edge">
<title>Node10&#45;&gt;Node11</title>
<g id="a_edge12_Node000010_Node000011"><a xlink:title=" ">
<path fill="none" stroke="#63b8ff" d="M361.45,-251.71C369.6,-242.59 378.73,-232.37 386.02,-224.22"/>
<polygon fill="#63b8ff" stroke="#63b8ff" points="359.36,-248.9 355.31,-258.69 364.58,-253.57 359.36,-248.9"/>
</a>
</g>
</g>
<!-- Node12 -->
<g id="Node000012" class="node">
<title>Node12</title>
<g id="a_Node000012"><a xlink:href="tesart__rbd_8hpp.html" target="_top" xlink:title="Заголовочный файл, в котором определяется класс TesartRbd.">
<polygon fill="white" stroke="#666666" points="289.12,-224 180.12,-224 180.12,-192 289.12,-192 289.12,-224"/>
<text text-anchor="start" x="188.12" y="-210.5" font-family="Helvetica,sans-Serif" font-size="10.00">src/devices/rbd/tesart</text>
<text text-anchor="middle" x="234.62" y="-198.5" font-family="Helvetica,sans-Serif" font-size="10.00">_rbd.hpp</text>
</a>
</g>
</g>
<!-- Node10&#45;&gt;Node12 -->
<g id="edge14_Node000010_Node000012" class="edge">
<title>Node10&#45;&gt;Node12</title>
<g id="a_edge14_Node000010_Node000012"><a xlink:title=" ">
<path fill="none" stroke="#63b8ff" d="M306.57,-253.8C291.2,-244.23 273.38,-233.13 259.32,-224.38"/>
<polygon fill="#63b8ff" stroke="#63b8ff" points="304.43,-257.21 314.77,-259.53 308.13,-251.27 304.43,-257.21"/>
</a>
</g>
</g>
<!-- Node11&#45;&gt;Node3 -->
<g id="edge13_Node000011_Node000003" class="edge">
<title>Node11&#45;&gt;Node3</title>
<g id="a_edge13_Node000011_Node000003"><a xlink:title=" ">
<path fill="none" stroke="#63b8ff" d="M391.11,-181.45C388.27,-172.93 385.19,-163.71 382.7,-156.22"/>
<polygon fill="#63b8ff" stroke="#63b8ff" points="388.04,-182.31 394.52,-190.69 394.68,-180.1 388.04,-182.31"/>
</a>
</g>
</g>
<!-- Node12&#45;&gt;Node3 -->
<g id="edge15_Node000012_Node000003" class="edge">
<title>Node12&#45;&gt;Node3</title>
<g id="a_edge15_Node000012_Node000003"><a xlink:title=" ">
<path fill="none" stroke="#63b8ff" d="M277.94,-187.01C299.25,-177.17 324.54,-165.5 344.31,-156.38"/>
<polygon fill="#63b8ff" stroke="#63b8ff" points="276.77,-184.16 269.15,-191.53 279.7,-190.51 276.77,-184.16"/>
</a>
</g>
</g>
<!-- Node13 -->
<g id="Node000013" class="node">
<title>Node13</title>
<g id="a_Node000013"><a xlink:href="tesart__rbd_8cpp.html" target="_top" xlink:title="Файл исходного кода, в котором реализованы методы для класа TesartRbd.">
<polygon fill="white" stroke="#666666" points="289.12,-156 180.12,-156 180.12,-124 289.12,-124 289.12,-156"/>
<text text-anchor="start" x="188.12" y="-142.5" font-family="Helvetica,sans-Serif" font-size="10.00">src/devices/rbd/tesart</text>
<text text-anchor="middle" x="234.62" y="-130.5" font-family="Helvetica,sans-Serif" font-size="10.00">_rbd.cpp</text>
</a>
</g>
</g>
<!-- Node12&#45;&gt;Node13 -->
<g id="edge16_Node000012_Node000013" class="edge">
<title>Node12&#45;&gt;Node13</title>
<g id="a_edge16_Node000012_Node000013"><a xlink:title=" ">
<path fill="none" stroke="#63b8ff" d="M234.62,-180.89C234.62,-172.52 234.62,-163.54 234.62,-156.22"/>
<polygon fill="#63b8ff" stroke="#63b8ff" points="231.13,-180.69 234.62,-190.69 238.13,-180.69 231.13,-180.69"/>
</a>
</g>
</g>
<!-- Node15&#45;&gt;Node3 -->
<g id="edge19_Node000015_Node000003" class="edge">
<title>Node15&#45;&gt;Node3</title>
<g id="a_edge19_Node000015_Node000003"><a xlink:title=" ">
<path fill="none" stroke="#63b8ff" d="M480.87,-248.87C479.19,-231.33 474.6,-208.51 462.62,-192 451.31,-176.4 433.62,-164.69 417.31,-156.45"/>
<polygon fill="#63b8ff" stroke="#63b8ff" points="477.44,-249.03 481.62,-258.76 484.43,-248.55 477.44,-249.03"/>
</a>
</g>
</g>
<!-- Node16 -->
<g id="Node000016" class="node">
<title>Node16</title>
<g id="a_Node000016"><a xlink:href="keysight__m9807a_8hpp.html" target="_top" xlink:title="Файл, в котором определён класс KeysightM9807A.">
<polygon fill="white" stroke="#666666" points="761.5,-224 639.75,-224 639.75,-192 761.5,-192 761.5,-224"/>
<text text-anchor="start" x="647.75" y="-210.5" font-family="Helvetica,sans-Serif" font-size="10.00">src/devices/vna/keysight</text>
<text text-anchor="middle" x="700.62" y="-198.5" font-family="Helvetica,sans-Serif" font-size="10.00">_m9807a.hpp</text>
</a>
</g>
</g>
<!-- Node15&#45;&gt;Node16 -->
<g id="edge20_Node000015_Node000016" class="edge">
<title>Node15&#45;&gt;Node16</title>
<g id="a_edge20_Node000015_Node000016"><a xlink:title=" ">
<path fill="none" stroke="#63b8ff" d="M541.79,-256.87C575.53,-246.7 617.17,-234.15 649.35,-224.45"/>
<polygon fill="#63b8ff" stroke="#63b8ff" points="541.16,-253.7 532.59,-259.94 543.18,-260.41 541.16,-253.7"/>
</a>
</g>
</g>
<!-- Node18 -->
<g id="Node000018" class="node">
<title>Node18</title>
<g id="a_Node000018"><a xlink:href="planar__s50244_8h.html" target="_top" xlink:title="Файл, в котором определён класс PlanarS50244.">
<polygon fill="white" stroke="#666666" points="621.25,-224 510,-224 510,-192 621.25,-192 621.25,-224"/>
<text text-anchor="start" x="518" y="-210.5" font-family="Helvetica,sans-Serif" font-size="10.00">src/devices/vna/planar</text>
<text text-anchor="middle" x="565.62" y="-198.5" font-family="Helvetica,sans-Serif" font-size="10.00">_s50244.h</text>
</a>
</g>
</g>
<!-- Node15&#45;&gt;Node18 -->
<g id="edge23_Node000015_Node000018" class="edge">
<title>Node15&#45;&gt;Node18</title>
<g id="a_edge23_Node000015_Node000018"><a xlink:title=" ">
<path fill="none" stroke="#63b8ff" d="M509.44,-253.15C521.39,-243.75 535.08,-233 545.96,-224.45"/>
<polygon fill="#63b8ff" stroke="#63b8ff" points="507.81,-250.76 502.11,-259.69 512.13,-256.27 507.81,-250.76"/>
</a>
</g>
</g>
<!-- Node16&#45;&gt;Node3 -->
<g id="edge21_Node000016_Node000003" class="edge">
<title>Node16&#45;&gt;Node3</title>
<g id="a_edge21_Node000016_Node000003"><a xlink:title=" ">
<path fill="none" stroke="#63b8ff" d="M629.17,-191.71C552.04,-175.72 473.92,-160.09 425.22,-150.42"/>
<polygon fill="#63b8ff" stroke="#63b8ff" points="628.05,-195.26 638.55,-193.87 629.47,-188.41 628.05,-195.26"/>
</a>
</g>
</g>
<!-- Node17 -->
<g id="Node000017" class="node">
<title>Node17</title>
<g id="a_Node000017"><a xlink:href="keysight__m9807a_8cpp.html" target="_top" xlink:title="Файл исходного кода, в котором реализованы методы для класа KeysightM9807A.">
<polygon fill="white" stroke="#666666" points="761.5,-156 639.75,-156 639.75,-124 761.5,-124 761.5,-156"/>
<text text-anchor="start" x="647.75" y="-142.5" font-family="Helvetica,sans-Serif" font-size="10.00">src/devices/vna/keysight</text>
<text text-anchor="middle" x="700.62" y="-130.5" font-family="Helvetica,sans-Serif" font-size="10.00">_m9807a.cpp</text>
</a>
</g>
</g>
<!-- Node16&#45;&gt;Node17 -->
<g id="edge22_Node000016_Node000017" class="edge">
<title>Node16&#45;&gt;Node17</title>
<g id="a_edge22_Node000016_Node000017"><a xlink:title=" ">
<path fill="none" stroke="#63b8ff" d="M700.62,-180.89C700.62,-172.52 700.62,-163.54 700.62,-156.22"/>
<polygon fill="#63b8ff" stroke="#63b8ff" points="697.13,-180.69 700.62,-190.69 704.13,-180.69 697.13,-180.69"/>
</a>
</g>
</g>
<!-- Node18&#45;&gt;Node3 -->
<g id="edge24_Node000018_Node000003" class="edge">
<title>Node18&#45;&gt;Node3</title>
<g id="a_edge24_Node000018_Node000003"><a xlink:title=" ">
<path fill="none" stroke="#63b8ff" d="M511.36,-187.95C482.92,-177.97 448.54,-165.89 421.75,-156.49"/>
<polygon fill="#63b8ff" stroke="#63b8ff" points="509.95,-191.52 520.55,-191.53 512.27,-184.91 509.95,-191.52"/>
</a>
</g>
</g>
<!-- Node19 -->
<g id="Node000019" class="node">
<title>Node19</title>
<g id="a_Node000019"><a xlink:href="planar__s50244_8cpp.html" target="_top" xlink:title="Файл исходного кода, в котором реализованы методы для класа PlanarS50244.">
<polygon fill="white" stroke="#666666" points="621.25,-156 510,-156 510,-124 621.25,-124 621.25,-156"/>
<text text-anchor="start" x="518" y="-142.5" font-family="Helvetica,sans-Serif" font-size="10.00">src/devices/vna/planar</text>
<text text-anchor="middle" x="565.62" y="-130.5" font-family="Helvetica,sans-Serif" font-size="10.00">_s50244.cpp</text>
</a>
</g>
</g>
<!-- Node18&#45;&gt;Node19 -->
<g id="edge25_Node000018_Node000019" class="edge">
<title>Node18&#45;&gt;Node19</title>
<g id="a_edge25_Node000018_Node000019"><a xlink:title=" ">
<path fill="none" stroke="#63b8ff" d="M565.62,-180.89C565.62,-172.52 565.62,-163.54 565.62,-156.22"/>
<polygon fill="#63b8ff" stroke="#63b8ff" points="562.13,-180.69 565.62,-190.69 569.13,-180.69 562.13,-180.69"/>
</a>
</g>
</g>
</g>
</svg>
