<?xml version="1.0" encoding="UTF-8" standalone="no"?>
<!DOCTYPE svg PUBLIC "-//W3C//DTD SVG 1.1//EN"
 "http://www.w3.org/Graphics/SVG/1.1/DTD/svg11.dtd">
<!-- Generated by graphviz version 8.0.5 (20230430.1635)
 -->
<!-- Title: src/devices/visa_device.hpp Pages: 1 -->
<svg width="391pt" height="140pt"
 viewBox="0.00 0.00 391.00 140.00" xmlns="http://www.w3.org/2000/svg" xmlns:xlink="http://www.w3.org/1999/xlink">
<g id="graph0" class="graph" transform="scale(1 1) rotate(0) translate(4 136)">
<title>src/devices/visa_device.hpp</title>
<!-- Node1 -->
<g id="Node000001" class="node">
<title>Node1</title>
<g id="a_Node000001"><a xlink:title="Заголовочный файл, в котором определены константы и класс VisaDevice.">
<polygon fill="#999999" stroke="#666666" points="169.12,-132 33.88,-132 33.88,-112 169.12,-112 169.12,-132"/>
<text text-anchor="middle" x="101.5" y="-118.5" font-family="Helvetica,sans-Serif" font-size="10.00">src/devices/visa_device.hpp</text>
</a>
</g>
</g>
<!-- Node2 -->
<g id="Node000002" class="node">
<title>Node2</title>
<g id="a_Node000002"><a xlink:title=" ">
<polygon fill="#e0e0e0" stroke="#999999" points="43,-20 0,-20 0,0 43,0 43,-20"/>
<text text-anchor="middle" x="21.5" y="-6.5" font-family="Helvetica,sans-Serif" font-size="10.00">format</text>
</a>
</g>
</g>
<!-- Node1&#45;&gt;Node2 -->
<g id="edge1_Node000001_Node000002" class="edge">
<title>Node1&#45;&gt;Node2</title>
<g id="a_edge1_Node000001_Node000002"><a xlink:title=" ">
<path fill="none" stroke="#63b8ff" d="M82.26,-111.57C68.42,-103.84 50.34,-91.63 39.5,-76 30.21,-62.61 25.7,-44.56 23.52,-30.88"/>
<polygon fill="#63b8ff" stroke="#63b8ff" points="26.89,-30.68 22.14,-21.21 19.95,-31.57 26.89,-30.68"/>
</a>
</g>
</g>
<!-- Node3 -->
<g id="Node000003" class="node">
<title>Node3</title>
<g id="a_Node000003"><a xlink:title=" ">
<polygon fill="#e0e0e0" stroke="#999999" points="94.12,-76 48.88,-76 48.88,-56 94.12,-56 94.12,-76"/>
<text text-anchor="middle" x="71.5" y="-62.5" font-family="Helvetica,sans-Serif" font-size="10.00">cstring</text>
</a>
</g>
</g>
<!-- Node1&#45;&gt;Node3 -->
<g id="edge2_Node000001_Node000003" class="edge">
<title>Node1&#45;&gt;Node3</title>
<g id="a_edge2_Node000001_Node000003"><a xlink:title=" ">
<path fill="none" stroke="#63b8ff" d="M96.27,-111.59C92.32,-104.47 86.75,-94.45 81.9,-85.72"/>
<polygon fill="#63b8ff" stroke="#63b8ff" points="84.58,-84.34 76.67,-77.3 78.46,-87.74 84.58,-84.34"/>
</a>
</g>
</g>
<!-- Node4 -->
<g id="Node000004" class="node">
<title>Node4</title>
<g id="a_Node000004"><a xlink:title=" ">
<polygon fill="#e0e0e0" stroke="#999999" points="152.88,-76 112.12,-76 112.12,-56 152.88,-56 152.88,-76"/>
<text text-anchor="middle" x="132.5" y="-62.5" font-family="Helvetica,sans-Serif" font-size="10.00">visa.h</text>
</a>
</g>
</g>
<!-- Node1&#45;&gt;Node4 -->
<g id="edge3_Node000001_Node000004" class="edge">
<title>Node1&#45;&gt;Node4</title>
<g id="a_edge3_Node000001_Node000004"><a xlink:title=" ">
<path fill="none" stroke="#63b8ff" d="M106.9,-111.59C110.99,-104.47 116.74,-94.45 121.76,-85.72"/>
<polygon fill="#63b8ff" stroke="#63b8ff" points="125.22,-87.71 127.16,-77.3 119.15,-84.23 125.22,-87.71"/>
</a>
</g>
</g>
<!-- Node5 -->
<g id="Node000005" class="node">
<title>Node5</title>
<g id="a_Node000005"><a xlink:href="logger_8hpp.html" target="_top" xlink:title="Библиотека, осуществляющая логирование">
<polygon fill="white" stroke="#666666" points="262,-76 171,-76 171,-56 262,-56 262,-76"/>
<text text-anchor="middle" x="216.5" y="-62.5" font-family="Helvetica,sans-Serif" font-size="10.00">../utils/logger.hpp</text>
</a>
</g>
</g>
<!-- Node1&#45;&gt;Node5 -->
<g id="edge4_Node000001_Node000005" class="edge">
<title>Node1&#45;&gt;Node5</title>
<g id="a_edge4_Node000001_Node000005"><a xlink:title=" ">
<path fill="none" stroke="#63b8ff" d="M121.53,-111.59C139.48,-103.17 166.05,-90.69 186.53,-81.07"/>
<polygon fill="#63b8ff" stroke="#63b8ff" points="187.75,-83.9 195.31,-76.48 184.77,-77.56 187.75,-83.9"/>
</a>
</g>
</g>
<!-- Node5&#45;&gt;Node2 -->
<g id="edge10_Node000005_Node000002" class="edge">
<title>Node5&#45;&gt;Node2</title>
<g id="a_edge10_Node000005_Node000002"><a xlink:title=" ">
<path fill="none" stroke="#63b8ff" d="M181.59,-55.58C150.5,-47.16 103.52,-34.34 53.54,-20.26"/>
<polygon fill="#63b8ff" stroke="#63b8ff" points="54.74,-16.68 44.17,-17.34 52.84,-23.42 54.74,-16.68"/>
</a>
</g>
</g>
<!-- Node6 -->
<g id="Node000006" class="node">
<title>Node6</title>
<g id="a_Node000006"><a xlink:title=" ">
<polygon fill="#e0e0e0" stroke="#999999" points="101.5,-20 61.5,-20 61.5,0 101.5,0 101.5,-20"/>
<text text-anchor="middle" x="81.5" y="-6.5" font-family="Helvetica,sans-Serif" font-size="10.00">string</text>
</a>
</g>
</g>
<!-- Node5&#45;&gt;Node6 -->
<g id="edge5_Node000005_Node000006" class="edge">
<title>Node5&#45;&gt;Node6</title>
<g id="a_edge5_Node000005_Node000006"><a xlink:title=" ">
<path fill="none" stroke="#63b8ff" d="M192.98,-55.59C170.48,-46.59 136.42,-32.97 111.87,-23.15"/>
<polygon fill="#63b8ff" stroke="#63b8ff" points="113.25,-19.53 102.67,-19.07 110.65,-26.03 113.25,-19.53"/>
</a>
</g>
</g>
<!-- Node7 -->
<g id="Node000007" class="node">
<title>Node7</title>
<g id="a_Node000007"><a xlink:title=" ">
<polygon fill="#e0e0e0" stroke="#999999" points="173.25,-20 119.75,-20 119.75,0 173.25,0 173.25,-20"/>
<text text-anchor="middle" x="146.5" y="-6.5" font-family="Helvetica,sans-Serif" font-size="10.00">iostream</text>
</a>
</g>
</g>
<!-- Node5&#45;&gt;Node7 -->
<g id="edge6_Node000005_Node000007" class="edge">
<title>Node5&#45;&gt;Node7</title>
<g id="a_edge6_Node000005_Node000007"><a xlink:title=" ">
<path fill="none" stroke="#63b8ff" d="M204.31,-55.59C194.07,-47.7 179.22,-36.24 167.13,-26.92"/>
<polygon fill="#63b8ff" stroke="#63b8ff" points="169.61,-23.64 159.55,-20.3 165.33,-29.18 169.61,-23.64"/>
</a>
</g>
</g>
<!-- Node8 -->
<g id="Node000008" class="node">
<title>Node8</title>
<g id="a_Node000008"><a xlink:title=" ">
<polygon fill="#e0e0e0" stroke="#999999" points="242.12,-20 190.88,-20 190.88,0 242.12,0 242.12,-20"/>
<text text-anchor="middle" x="216.5" y="-6.5" font-family="Helvetica,sans-Serif" font-size="10.00">sstream</text>
</a>
</g>
</g>
<!-- Node5&#45;&gt;Node8 -->
<g id="edge7_Node000005_Node000008" class="edge">
<title>Node5&#45;&gt;Node8</title>
<g id="a_edge7_Node000005_Node000008"><a xlink:title=" ">
<path fill="none" stroke="#63b8ff" d="M216.5,-55.59C216.5,-48.86 216.5,-39.53 216.5,-31.15"/>
<polygon fill="#63b8ff" stroke="#63b8ff" points="220,-31.3 216.5,-21.3 213,-31.3 220,-31.3"/>
</a>
</g>
</g>
<!-- Node9 -->
<g id="Node000009" class="node">
<title>Node9</title>
<g id="a_Node000009"><a xlink:title=" ">
<polygon fill="#e0e0e0" stroke="#999999" points="322.38,-20 260.62,-20 260.62,0 322.38,0 322.38,-20"/>
<text text-anchor="middle" x="291.5" y="-6.5" font-family="Helvetica,sans-Serif" font-size="10.00">sys/time.h</text>
</a>
</g>
</g>
<!-- Node5&#45;&gt;Node9 -->
<g id="edge8_Node000005_Node000009" class="edge">
<title>Node5&#45;&gt;Node9</title>
<g id="a_edge8_Node000005_Node000009"><a xlink:title=" ">
<path fill="none" stroke="#63b8ff" d="M229.56,-55.59C240.57,-47.67 256.56,-36.16 269.53,-26.82"/>
<polygon fill="#63b8ff" stroke="#63b8ff" points="271.26,-29.16 277.33,-20.48 267.17,-23.48 271.26,-29.16"/>
</a>
</g>
</g>
<!-- Node10 -->
<g id="Node000010" class="node">
<title>Node10</title>
<g id="a_Node000010"><a xlink:title=" ">
<polygon fill="#e0e0e0" stroke="#999999" points="383,-20 340,-20 340,0 383,0 383,-20"/>
<text text-anchor="middle" x="361.5" y="-6.5" font-family="Helvetica,sans-Serif" font-size="10.00">cmath</text>
</a>
</g>
</g>
<!-- Node5&#45;&gt;Node10 -->
<g id="edge9_Node000005_Node000010" class="edge">
<title>Node5&#45;&gt;Node10</title>
<g id="a_edge9_Node000005_Node000010"><a xlink:title=" ">
<path fill="none" stroke="#63b8ff" d="M241.76,-55.59C266.15,-46.51 303.17,-32.72 329.59,-22.88"/>
<polygon fill="#63b8ff" stroke="#63b8ff" points="330.69,-25.84 338.84,-19.07 328.25,-19.28 330.69,-25.84"/>
</a>
</g>
</g>
</g>
</svg>
