<?xml version="1.0" encoding="UTF-8" standalone="no"?>
<!DOCTYPE svg PUBLIC "-//W3C//DTD SVG 1.1//EN"
 "http://www.w3.org/Graphics/SVG/1.1/DTD/svg11.dtd">
<!-- Generated by graphviz version 8.0.5 (20230430.1635)
 -->
<!-- Title: src/devices/visa_device.hpp Pages: 1 -->
<!--zoomable 356 -->

<svg id="main" version="1.1" xmlns="http://www.w3.org/2000/svg" xmlns:xlink="http://www.w3.org/1999/xlink" xml:space="preserve" onload="init(evt)">
<style type="text/css"><![CDATA[
.node, .edge {opacity: 0.7;}
.node.selected, .edge.selected {opacity: 1;}
.edge:hover path { stroke: red; }
.edge:hover polygon { stroke: red; fill: red; }
]]></style>

<defs>
  <circle id="rim" cx="0" cy="0" r="7"/>
  <circle id="rim2" cx="0" cy="0" r="3.5"/>
  <g id="zoomPlus">
    <use xlink:href="#rim" fill="#404040"><set attributeName="fill" to="#808080" begin="zoomplus.mouseover" end="zoomplus.mouseout"/></use>
    <path d="M-4,0h8M0,-4v8" fill="none" stroke="white" stroke-width="1.5" pointer-events="none"/>
  </g>
  <g id="zoomMin">
    <use xlink:href="#rim" fill="#404040"><set attributeName="fill" to="#808080" begin="zoomminus.mouseover" end="zoomminus.mouseout"/></use>
    <path d="M-4,0h8" fill="none" stroke="white" stroke-width="1.5" pointer-events="none"/>
  </g>
  <g id="arrowUp" transform="translate(30 24)">
    <use xlink:href="#rim"/>
    <path pointer-events="none" fill="none" stroke="white" stroke-width="1.5" d="M0,-3.0v7 M-2.5,-0.5L0,-3.0L2.5,-0.5"/>
  </g>
  <g id="arrowRight" transform="rotate(90) translate(36 -43)">
    <use xlink:href="#rim"/>
    <path pointer-events="none" fill="none" stroke="white" stroke-width="1.5" d="M0,-3.0v7 M-2.5,-0.5L0,-3.0L2.5,-0.5"/>
  </g>
  <g id="arrowDown" transform="rotate(180) translate(-30 -48)">
    <use xlink:href="#rim"/>
    <path pointer-events="none" fill="none" stroke="white" stroke-width="1.5" d="M0,-3.0v7 M-2.5,-0.5L0,-3.0L2.5,-0.5"/>
  </g>
  <g id="arrowLeft" transform="rotate(270) translate(-36 17)">
    <use xlink:href="#rim"/>
    <path pointer-events="none" fill="none" stroke="white" stroke-width="1.5" d="M0,-3.0v7 M-2.5,-0.5L0,-3.0L2.5,-0.5"/>
  </g>
  <g id="resetDef">
    <use xlink:href="#rim2" fill="#404040"><set attributeName="fill" to="#808080" begin="reset.mouseover" end="reset.mouseout"/></use>
  </g>
</defs>
<script type="application/ecmascript">
var viewWidth = 640;
var viewHeight = 356;
var sectionId = 'dynsection-1';
</script>
<script type="application/ecmascript" xlink:href="svg.min.js"/>
<svg id="graph" class="graph">
<g id="viewport">
<title>src/devices/visa_device.hpp</title>
<!-- Node1 -->
<g id="Node000001" class="node">
<title>Node1</title>
<g id="a_Node000001"><a xlink:title="Заголовочный файл, в котором определены константы и класс VisaDevice.">
<polygon fill="#999999" stroke="#666666" points="323.5,-348 188.25,-348 188.25,-328 323.5,-328 323.5,-348"/>
<text text-anchor="middle" x="255.88" y="-334.5" font-family="Helvetica,sans-Serif" font-size="10.00">src/devices/visa_device.hpp</text>
</a>
</g>
</g>
<!-- Node2 -->
<g id="Node000002" class="node">
<title>Node2</title>
<g id="a_Node000002"><a xlink:href="gen__device_8hpp.html" target="_top" xlink:title=" ">
<polygon fill="white" stroke="#666666" points="239,-292 136.75,-292 136.75,-260 239,-260 239,-292"/>
<text text-anchor="start" x="144.75" y="-278.5" font-family="Helvetica,sans-Serif" font-size="10.00">src/devices/gen/gen</text>
<text text-anchor="middle" x="187.88" y="-266.5" font-family="Helvetica,sans-Serif" font-size="10.00">_device.hpp</text>
</a>
</g>
</g>
<!-- Node1&#45;&gt;Node2 -->
<g id="edge1_Node000001_Node000002" class="edge">
<title>Node1&#45;&gt;Node2</title>
<g id="a_edge1_Node000001_Node000002"><a xlink:title=" ">
<path fill="none" stroke="#63b8ff" d="M237.19,-320.51C227.23,-311.72 215.06,-300.98 205.3,-292.37"/>
<polygon fill="#63b8ff" stroke="#63b8ff" points="234.44,-322.63 244.25,-326.62 239.07,-317.38 234.44,-322.63"/>
</a>
</g>
</g>
<!-- Node10 -->
<g id="Node000010" class="node">
<title>Node10</title>
<g id="a_Node000010"><a xlink:href="rbd__device_8hpp.html" target="_top" xlink:title=" ">
<polygon fill="white" stroke="#666666" points="508.75,-292 411,-292 411,-260 508.75,-260 508.75,-292"/>
<text text-anchor="start" x="419" y="-278.5" font-family="Helvetica,sans-Serif" font-size="10.00">src/devices/rbd/rbd</text>
<text text-anchor="middle" x="459.88" y="-266.5" font-family="Helvetica,sans-Serif" font-size="10.00">_device.hpp</text>
</a>
</g>
</g>
<!-- Node1&#45;&gt;Node10 -->
<g id="edge10_Node000001_Node000010" class="edge">
<title>Node1&#45;&gt;Node10</title>
<g id="a_edge10_Node000001_Node000010"><a xlink:title=" ">
<path fill="none" stroke="#63b8ff" d="M297.91,-324.64C330.7,-314.99 376.29,-301.58 410.75,-291.45"/>
<polygon fill="#63b8ff" stroke="#63b8ff" points="297.36,-321.45 288.75,-327.62 299.33,-328.16 297.36,-321.45"/>
</a>
</g>
</g>
<!-- Node14 -->
<g id="Node000014" class="node">
<title>Node14</title>
<g id="a_Node000014"><a xlink:href="visa__device_8cpp.html" target="_top" xlink:title="Файл исходного кода, в котором реализованы конструкторы и методы для класа VisaDevice.">
<polygon fill="white" stroke="#666666" points="392.5,-286 257.25,-286 257.25,-266 392.5,-266 392.5,-286"/>
<text text-anchor="middle" x="324.88" y="-272.5" font-family="Helvetica,sans-Serif" font-size="10.00">src/devices/visa_device.cpp</text>
</a>
</g>
</g>
<!-- Node1&#45;&gt;Node14 -->
<g id="edge17_Node000001_Node000014" class="edge">
<title>Node1&#45;&gt;Node14</title>
<g id="a_edge17_Node000001_Node000014"><a xlink:title=" ">
<path fill="none" stroke="#63b8ff" d="M274.8,-320.55C287.56,-309.45 303.91,-295.23 314.4,-286.11"/>
<polygon fill="#63b8ff" stroke="#63b8ff" points="272.91,-318.42 267.66,-327.62 277.5,-323.7 272.91,-318.42"/>
</a>
</g>
</g>
<!-- Node15 -->
<g id="Node000015" class="node">
<title>Node15</title>
<g id="a_Node000015"><a xlink:href="vna__device_8hpp.html" target="_top" xlink:title="Заголовочный файл, в котором реализован класс VnaDevice.">
<polygon fill="white" stroke="#666666" points="118.5,-292 19.25,-292 19.25,-260 118.5,-260 118.5,-292"/>
<text text-anchor="start" x="27.25" y="-278.5" font-family="Helvetica,sans-Serif" font-size="10.00">src/devices/vna/vna</text>
<text text-anchor="middle" x="68.88" y="-266.5" font-family="Helvetica,sans-Serif" font-size="10.00">_device.hpp</text>
</a>
</g>
</g>
<!-- Node1&#45;&gt;Node15 -->
<g id="edge18_Node000001_Node000015" class="edge">
<title>Node1&#45;&gt;Node15</title>
<g id="a_edge18_Node000001_Node000015"><a xlink:title=" ">
<path fill="none" stroke="#63b8ff" d="M216.5,-324.37C187.54,-315.08 148.02,-302.39 117.15,-292.49"/>
<polygon fill="#63b8ff" stroke="#63b8ff" points="215.07,-327.9 225.66,-327.62 217.2,-321.24 215.07,-327.9"/>
</a>
</g>
</g>
<!-- Node3 -->
<g id="Node000003" class="node">
<title>Node3</title>
<g id="a_Node000003"><a xlink:href="device__set_8hpp.html" target="_top" xlink:title="Заголовочный файл, содержащий в себе класс DeviceSet и набор констант, необходимых для данного класса...">
<polygon fill="white" stroke="#666666" points="236.25,-156 141.5,-156 141.5,-124 236.25,-124 236.25,-156"/>
<text text-anchor="start" x="149.5" y="-142.5" font-family="Helvetica,sans-Serif" font-size="10.00">src/devices/device</text>
<text text-anchor="middle" x="188.88" y="-130.5" font-family="Helvetica,sans-Serif" font-size="10.00">_set.hpp</text>
</a>
</g>
</g>
<!-- Node2&#45;&gt;Node3 -->
<g id="edge2_Node000002_Node000003" class="edge">
<title>Node2&#45;&gt;Node3</title>
<g id="a_edge2_Node000002_Node000003"><a xlink:title=" ">
<path fill="none" stroke="#63b8ff" d="M188.07,-248.82C188.28,-221.22 188.59,-178.7 188.76,-156.19"/>
<polygon fill="#63b8ff" stroke="#63b8ff" points="184.56,-248.6 187.99,-258.63 191.56,-248.65 184.56,-248.6"/>
</a>
</g>
</g>
<!-- Node8 -->
<g id="Node000008" class="node">
<title>Node8</title>
<g id="a_Node000008"><a xlink:href="keysight__gen_8hpp.html" target="_top" xlink:title=" ">
<polygon fill="white" stroke="#666666" points="339.5,-224 216.25,-224 216.25,-192 339.5,-192 339.5,-224"/>
<text text-anchor="start" x="224.25" y="-210.5" font-family="Helvetica,sans-Serif" font-size="10.00">src/devices/gen/keysight</text>
<text text-anchor="middle" x="277.88" y="-198.5" font-family="Helvetica,sans-Serif" font-size="10.00">_gen.hpp</text>
</a>
</g>
</g>
<!-- Node2&#45;&gt;Node8 -->
<g id="edge7_Node000002_Node000008" class="edge">
<title>Node2&#45;&gt;Node8</title>
<g id="a_edge7_Node000002_Node000008"><a xlink:title=" ">
<path fill="none" stroke="#63b8ff" d="M217.3,-253.42C230.2,-243.96 245.04,-233.08 256.8,-224.45"/>
<polygon fill="#63b8ff" stroke="#63b8ff" points="215.74,-250.96 209.75,-259.69 219.88,-256.6 215.74,-250.96"/>
</a>
</g>
</g>
<!-- Node4 -->
<g id="Node000004" class="node">
<title>Node4</title>
<g id="a_Node000004"><a xlink:href="device__set_8cpp.html" target="_top" xlink:title="Файл исходного кода, в котором реализованы методы для класа DeviceSet.">
<polygon fill="white" stroke="#666666" points="481.25,-88 386.5,-88 386.5,-56 481.25,-56 481.25,-88"/>
<text text-anchor="start" x="394.5" y="-74.5" font-family="Helvetica,sans-Serif" font-size="10.00">src/devices/device</text>
<text text-anchor="middle" x="433.88" y="-62.5" font-family="Helvetica,sans-Serif" font-size="10.00">_set.cpp</text>
</a>
</g>
</g>
<!-- Node3&#45;&gt;Node4 -->
<g id="edge3_Node000003_Node000004" class="edge">
<title>Node3&#45;&gt;Node4</title>
<g id="a_edge3_Node000003_Node000004"><a xlink:title=" ">
<path fill="none" stroke="#63b8ff" d="M247.16,-123.3C289.61,-111.86 346.41,-96.56 386.18,-85.85"/>
<polygon fill="#63b8ff" stroke="#63b8ff" points="246.44,-120.14 237.7,-126.12 248.26,-126.9 246.44,-120.14"/>
</a>
</g>
</g>
<!-- Node5 -->
<g id="Node000005" class="node">
<title>Node5</title>
<g id="a_Node000005"><a xlink:href="task__manager_8hpp.html" target="_top" xlink:title=" ">
<polygon fill="white" stroke="#666666" points="245.25,-82 132.5,-82 132.5,-62 245.25,-62 245.25,-82"/>
<text text-anchor="middle" x="188.88" y="-68.5" font-family="Helvetica,sans-Serif" font-size="10.00">src/task_manager.hpp</text>
</a>
</g>
</g>
<!-- Node3&#45;&gt;Node5 -->
<g id="edge4_Node000003_Node000005" class="edge">
<title>Node3&#45;&gt;Node5</title>
<g id="a_edge4_Node000003_Node000005"><a xlink:title=" ">
<path fill="none" stroke="#63b8ff" d="M188.88,-113C188.88,-102.17 188.88,-90.29 188.88,-82.32"/>
<polygon fill="#63b8ff" stroke="#63b8ff" points="185.38,-112.69 188.88,-122.69 192.38,-112.69 185.38,-112.69"/>
</a>
</g>
</g>
<!-- Node6 -->
<g id="Node000006" class="node">
<title>Node6</title>
<g id="a_Node000006"><a xlink:href="main_8cpp.html" target="_top" xlink:title=" ">
<polygon fill="white" stroke="#666666" points="170,-20 97.75,-20 97.75,0 170,0 170,-20"/>
<text text-anchor="middle" x="133.88" y="-6.5" font-family="Helvetica,sans-Serif" font-size="10.00">src/main.cpp</text>
</a>
</g>
</g>
<!-- Node5&#45;&gt;Node6 -->
<g id="edge5_Node000005_Node000006" class="edge">
<title>Node5&#45;&gt;Node6</title>
<g id="a_edge5_Node000005_Node000006"><a xlink:title=" ">
<path fill="none" stroke="#63b8ff" d="M172.9,-53.58C162.87,-42.63 150.34,-28.97 142.23,-20.11"/>
<polygon fill="#63b8ff" stroke="#63b8ff" points="169.94,-55.62 179.28,-60.62 175.1,-50.89 169.94,-55.62"/>
</a>
</g>
</g>
<!-- Node7 -->
<g id="Node000007" class="node">
<title>Node7</title>
<g id="a_Node000007"><a xlink:href="task__manager_8cpp.html" target="_top" xlink:title=" ">
<polygon fill="white" stroke="#666666" points="301.25,-20 188.5,-20 188.5,0 301.25,0 301.25,-20"/>
<text text-anchor="middle" x="244.88" y="-6.5" font-family="Helvetica,sans-Serif" font-size="10.00">src/task_manager.cpp</text>
</a>
</g>
</g>
<!-- Node5&#45;&gt;Node7 -->
<g id="edge6_Node000005_Node000007" class="edge">
<title>Node5&#45;&gt;Node7</title>
<g id="a_edge6_Node000005_Node000007"><a xlink:title=" ">
<path fill="none" stroke="#63b8ff" d="M204.83,-53.9C215.1,-42.91 228.03,-29.05 236.37,-20.11"/>
<polygon fill="#63b8ff" stroke="#63b8ff" points="202.89,-50.93 198.62,-60.62 208.01,-55.7 202.89,-50.93"/>
</a>
</g>
</g>
<!-- Node8&#45;&gt;Node3 -->
<g id="edge8_Node000008_Node000003" class="edge">
<title>Node8&#45;&gt;Node3</title>
<g id="a_edge8_Node000008_Node000003"><a xlink:title=" ">
<path fill="none" stroke="#63b8ff" d="M248.41,-185.15C235.74,-175.75 221.23,-165 209.71,-156.45"/>
<polygon fill="#63b8ff" stroke="#63b8ff" points="246.12,-188.55 256.23,-191.69 250.29,-182.92 246.12,-188.55"/>
</a>
</g>
</g>
<!-- Node9 -->
<g id="Node000009" class="node">
<title>Node9</title>
<g id="a_Node000009"><a xlink:href="keysight__gen_8cpp.html" target="_top" xlink:title=" ">
<polygon fill="white" stroke="#666666" points="377.5,-156 254.25,-156 254.25,-124 377.5,-124 377.5,-156"/>
<text text-anchor="start" x="262.25" y="-142.5" font-family="Helvetica,sans-Serif" font-size="10.00">src/devices/gen/keysight</text>
<text text-anchor="middle" x="315.88" y="-130.5" font-family="Helvetica,sans-Serif" font-size="10.00">_gen.cpp</text>
</a>
</g>
</g>
<!-- Node8&#45;&gt;Node9 -->
<g id="edge9_Node000008_Node000009" class="edge">
<title>Node8&#45;&gt;Node9</title>
<g id="a_edge9_Node000008_Node000009"><a xlink:title=" ">
<path fill="none" stroke="#63b8ff" d="M292.09,-182.3C297.13,-173.55 302.66,-163.96 307.11,-156.22"/>
<polygon fill="#63b8ff" stroke="#63b8ff" points="288.64,-180.28 286.69,-190.69 294.71,-183.77 288.64,-180.28"/>
</a>
</g>
</g>
<!-- Node10&#45;&gt;Node3 -->
<g id="edge11_Node000010_Node000003" class="edge">
<title>Node10&#45;&gt;Node3</title>
<g id="a_edge11_Node000010_Node000003"><a xlink:title=" ">
<path fill="none" stroke="#63b8ff" d="M428.35,-253.39C415.63,-244.49 400.91,-233.94 387.88,-224 370.05,-210.4 368.57,-202.71 348.88,-192 329.34,-181.38 276.3,-165.32 236.61,-154.06"/>
<polygon fill="#63b8ff" stroke="#63b8ff" points="425.99,-256.71 436.2,-259.55 429.99,-250.97 425.99,-256.71"/>
</a>
</g>
</g>
<!-- Node11 -->
<g id="Node000011" class="node">
<title>Node11</title>
<g id="a_Node000011"><a xlink:href="demo__rdb_8hpp.html" target="_top" xlink:title=" ">
<polygon fill="white" stroke="#666666" points="632,-224 523.75,-224 523.75,-192 632,-192 632,-224"/>
<text text-anchor="start" x="531.75" y="-210.5" font-family="Helvetica,sans-Serif" font-size="10.00">src/devices/rbd/demo</text>
<text text-anchor="middle" x="577.88" y="-198.5" font-family="Helvetica,sans-Serif" font-size="10.00">_rdb.hpp</text>
</a>
</g>
</g>
<!-- Node10&#45;&gt;Node11 -->
<g id="edge12_Node000010_Node000011" class="edge">
<title>Node10&#45;&gt;Node11</title>
<g id="a_edge12_Node000010_Node000011"><a xlink:title=" ">
<path fill="none" stroke="#63b8ff" d="M496.82,-254.34C514.14,-244.65 534.44,-233.3 550.38,-224.38"/>
<polygon fill="#63b8ff" stroke="#63b8ff" points="495.56,-251.59 488.54,-259.53 498.98,-257.7 495.56,-251.59"/>
</a>
</g>
</g>
<!-- Node12 -->
<g id="Node000012" class="node">
<title>Node12</title>
<g id="a_Node000012"><a xlink:href="tesart__rbd_8hpp.html" target="_top" xlink:title=" ">
<polygon fill="white" stroke="#666666" points="505.38,-224 396.38,-224 396.38,-192 505.38,-192 505.38,-224"/>
<text text-anchor="start" x="404.38" y="-210.5" font-family="Helvetica,sans-Serif" font-size="10.00">src/devices/rbd/tesart</text>
<text text-anchor="middle" x="450.88" y="-198.5" font-family="Helvetica,sans-Serif" font-size="10.00">_rbd.hpp</text>
</a>
</g>
</g>
<!-- Node10&#45;&gt;Node12 -->
<g id="edge14_Node000010_Node000012" class="edge">
<title>Node10&#45;&gt;Node12</title>
<g id="a_edge14_Node000010_Node000012"><a xlink:title=" ">
<path fill="none" stroke="#63b8ff" d="M456.31,-248.89C455.17,-240.52 453.95,-231.54 452.95,-224.22"/>
<polygon fill="#63b8ff" stroke="#63b8ff" points="452.97,-249.26 457.79,-258.69 459.9,-248.31 452.97,-249.26"/>
</a>
</g>
</g>
<!-- Node11&#45;&gt;Node4 -->
<g id="edge13_Node000011_Node000004" class="edge">
<title>Node11&#45;&gt;Node4</title>
<g id="a_edge13_Node000011_Node000004"><a xlink:title=" ">
<path fill="none" stroke="#63b8ff" d="M562.73,-182.51C551.07,-164.91 533.78,-141.32 514.88,-124 499.56,-109.97 479.89,-97.48 463.77,-88.37"/>
<polygon fill="#63b8ff" stroke="#63b8ff" points="560.23,-184.1 568.6,-190.6 566.11,-180.3 560.23,-184.1"/>
</a>
</g>
</g>
<!-- Node12&#45;&gt;Node3 -->
<g id="edge15_Node000012_Node000003" class="edge">
<title>Node12&#45;&gt;Node3</title>
<g id="a_edge15_Node000012_Node000003"><a xlink:title=" ">
<path fill="none" stroke="#63b8ff" d="M385.6,-191.18C345.05,-181.26 291.87,-168.11 244.88,-156 242.15,-155.3 239.34,-154.57 236.52,-153.83"/>
<polygon fill="#63b8ff" stroke="#63b8ff" points="384.61,-194.78 395.15,-193.75 386.27,-187.98 384.61,-194.78"/>
</a>
</g>
</g>
<!-- Node13 -->
<g id="Node000013" class="node">
<title>Node13</title>
<g id="a_Node000013"><a xlink:href="tesart__rbd_8cpp.html" target="_top" xlink:title=" ">
<polygon fill="white" stroke="#666666" points="505.38,-156 396.38,-156 396.38,-124 505.38,-124 505.38,-156"/>
<text text-anchor="start" x="404.38" y="-142.5" font-family="Helvetica,sans-Serif" font-size="10.00">src/devices/rbd/tesart</text>
<text text-anchor="middle" x="450.88" y="-130.5" font-family="Helvetica,sans-Serif" font-size="10.00">_rbd.cpp</text>
</a>
</g>
</g>
<!-- Node12&#45;&gt;Node13 -->
<g id="edge16_Node000012_Node000013" class="edge">
<title>Node12&#45;&gt;Node13</title>
<g id="a_edge16_Node000012_Node000013"><a xlink:title=" ">
<path fill="none" stroke="#63b8ff" d="M450.88,-180.89C450.88,-172.52 450.88,-163.54 450.88,-156.22"/>
<polygon fill="#63b8ff" stroke="#63b8ff" points="447.38,-180.69 450.88,-190.69 454.38,-180.69 447.38,-180.69"/>
</a>
</g>
</g>
<!-- Node15&#45;&gt;Node3 -->
<g id="edge19_Node000015_Node000003" class="edge">
<title>Node15&#45;&gt;Node3</title>
<g id="a_edge19_Node000015_Node000003"><a xlink:title=" ">
<path fill="none" stroke="#63b8ff" d="M99.1,-252.86C109.7,-244.41 121.34,-234.31 130.88,-224 150.8,-202.44 169.41,-173.69 179.94,-156.3"/>
<polygon fill="#63b8ff" stroke="#63b8ff" points="97.25,-250.65 91.5,-259.55 101.54,-256.17 97.25,-250.65"/>
</a>
</g>
</g>
<!-- Node16 -->
<g id="Node000016" class="node">
<title>Node16</title>
<g id="a_Node000016"><a xlink:href="keysight__m9807a_8hpp.html" target="_top" xlink:title="Файл, в котором реализован класс KeysightM9807A.">
<polygon fill="white" stroke="#666666" points="121.75,-224 0,-224 0,-192 121.75,-192 121.75,-224"/>
<text text-anchor="start" x="8" y="-210.5" font-family="Helvetica,sans-Serif" font-size="10.00">src/devices/vna/keysight</text>
<text text-anchor="middle" x="60.88" y="-198.5" font-family="Helvetica,sans-Serif" font-size="10.00">_m9807a.hpp</text>
</a>
</g>
</g>
<!-- Node15&#45;&gt;Node16 -->
<g id="edge20_Node000015_Node000016" class="edge">
<title>Node15&#45;&gt;Node16</title>
<g id="a_edge20_Node000015_Node000016"><a xlink:title=" ">
<path fill="none" stroke="#63b8ff" d="M65.71,-248.89C64.7,-240.52 63.61,-231.54 62.72,-224.22"/>
<polygon fill="#63b8ff" stroke="#63b8ff" points="62.34,-249.19 67.02,-258.69 69.29,-248.34 62.34,-249.19"/>
</a>
</g>
</g>
<!-- Node16&#45;&gt;Node3 -->
<g id="edge21_Node000016_Node000003" class="edge">
<title>Node16&#45;&gt;Node3</title>
<g id="a_edge21_Node000016_Node000003"><a xlink:title=" ">
<path fill="none" stroke="#63b8ff" d="M100.42,-186.61C119.33,-176.86 141.59,-165.38 159.05,-156.38"/>
<polygon fill="#63b8ff" stroke="#63b8ff" points="99.17,-183.83 91.89,-191.53 102.38,-190.05 99.17,-183.83"/>
</a>
</g>
</g>
<!-- Node17 -->
<g id="Node000017" class="node">
<title>Node17</title>
<g id="a_Node000017"><a xlink:href="keysight__m9807a_8cpp.html" target="_top" xlink:title=" ">
<polygon fill="white" stroke="#666666" points="121.75,-156 0,-156 0,-124 121.75,-124 121.75,-156"/>
<text text-anchor="start" x="8" y="-142.5" font-family="Helvetica,sans-Serif" font-size="10.00">src/devices/vna/keysight</text>
<text text-anchor="middle" x="60.88" y="-130.5" font-family="Helvetica,sans-Serif" font-size="10.00">_m9807a.cpp</text>
</a>
</g>
</g>
<!-- Node16&#45;&gt;Node17 -->
<g id="edge22_Node000016_Node000017" class="edge">
<title>Node16&#45;&gt;Node17</title>
<g id="a_edge22_Node000016_Node000017"><a xlink:title=" ">
<path fill="none" stroke="#63b8ff" d="M60.88,-180.89C60.88,-172.52 60.88,-163.54 60.88,-156.22"/>
<polygon fill="#63b8ff" stroke="#63b8ff" points="57.38,-180.69 60.88,-190.69 64.38,-180.69 57.38,-180.69"/>
</a>
</g>
</g>
</g>
</svg>

<g id="navigator" transform="translate(0 0)" fill="#404254">
  <rect fill="#f2f5e9" fill-opacity="0.5" stroke="#606060" stroke-width=".5" x="0" y="0" width="60" height="60"/>
  <use id="zoomplus" xlink:href="#zoomPlus" x="17" y="9" onmousedown="handleZoom(evt,'in')"/>
  <use id="zoomminus" xlink:href="#zoomMin" x="42" y="9" onmousedown="handleZoom(evt,'out')"/>
  <use id="reset" xlink:href="#resetDef" x="30" y="36" onmousedown="handleReset()"/>
   <use id="arrowup" xlink:href="#arrowUp" x="0" y="0" onmousedown="handlePan(0,-1)"/>
  <use id="arrowright" xlink:href="#arrowRight" x="0" y="0" onmousedown="handlePan(1,0)"/>
  <use id="arrowdown" xlink:href="#arrowDown" x="0" y="0" onmousedown="handlePan(0,1)"/>
  <use id="arrowleft" xlink:href="#arrowLeft" x="0" y="0" onmousedown="handlePan(-1,0)"/>
</g>
<svg viewBox="0 0 15 15" width="100%" height="30px" preserveAspectRatio="xMaxYMin meet">
 <g id="arrow_out" transform="scale(0.3 0.3)">
  <a xlink:href="visa__device_8hpp__dep__incl_org.svg" target="_base">
   <rect id="button" ry="5" rx="5" y="6" x="6" height="38" width="38"
        fill="#f2f5e9" fill-opacity="0.5" stroke="#606060" stroke-width="1.0"/>
   <path id="arrow"
     d="M 11.500037,31.436501 C 11.940474,20.09759 22.043105,11.32322 32.158766,21.979434 L 37.068811,17.246167 C 37.068811,17.246167 37.088388,32 37.088388,32 L 22.160133,31.978069 C 22.160133,31.978069 26.997745,27.140456 26.997745,27.140456 C 18.528582,18.264221 13.291696,25.230495 11.500037,31.436501 z"
     style="fill:#404040;"/>
  </a>
 </g>
</svg>

<style type='text/css'>
<![CDATA[
[data-mouse-over-selected='false'] { opacity: 0.7; }
[data-mouse-over-selected='true']  { opacity: 1.0; }
]]>
</style>
<script type="application/ecmascript"><![CDATA[
document.addEventListener('DOMContentLoaded', (event) => {
  highlightEdges();
  highlightAdjacentNodes();
});
]]></script>
</svg>
