<?xml version="1.0" encoding="UTF-8" standalone="no"?>
<!DOCTYPE svg PUBLIC "-//W3C//DTD SVG 1.1//EN"
 "http://www.w3.org/Graphics/SVG/1.1/DTD/svg11.dtd">
<!-- Generated by graphviz version 8.0.5 (20230430.1635)
 -->
<!-- Title: src/devices/vna/vna_device.hpp Pages: 1 -->
<svg width="303pt" height="300pt"
 viewBox="0.00 0.00 303.25 300.00" xmlns="http://www.w3.org/2000/svg" xmlns:xlink="http://www.w3.org/1999/xlink">

<svg id="main" version="1.1" xmlns="http://www.w3.org/2000/svg" xmlns:xlink="http://www.w3.org/1999/xlink" xml:space="preserve" onload="init(evt)">
<style type="text/css"><![CDATA[
.node, .edge {opacity: 0.7;}
.node.selected, .edge.selected {opacity: 1;}
.edge:hover path { stroke: red; }
.edge:hover polygon { stroke: red; fill: red; }
]]></style>
<script type="application/ecmascript" xlink:href="svg.min.js"/>
<svg id="graph" class="graph">
<g id="graph0" class="graph" transform="scale(1 1) rotate(0) translate(4 296)">
<title>src/devices/vna/vna_device.hpp</title>
<!-- Node1 -->
<g id="Node000001" class="node">
<title>Node1</title>
<g id="a_Node000001"><a xlink:title="Заголовочный файл, в котором реализован класс VnaDevice.">
<polygon fill="#999999" stroke="#666666" points="202,-292 102.75,-292 102.75,-260 202,-260 202,-292"/>
<text text-anchor="start" x="110.75" y="-278.5" font-family="Helvetica,sans-Serif" font-size="10.00">src/devices/vna/vna</text>
<text text-anchor="middle" x="152.38" y="-266.5" font-family="Helvetica,sans-Serif" font-size="10.00">_device.hpp</text>
</a>
</g>
</g>
<!-- Node2 -->
<g id="Node000002" class="node">
<title>Node2</title>
<g id="a_Node000002"><a xlink:href="device__set_8hpp.html" target="_top" xlink:title="Заголовочный файл, содержащий в себе класс DeviceSet и набор констант, необходимых для данного класса...">
<polygon fill="white" stroke="#666666" points="155.75,-156 61,-156 61,-124 155.75,-124 155.75,-156"/>
<text text-anchor="start" x="69" y="-142.5" font-family="Helvetica,sans-Serif" font-size="10.00">src/devices/device</text>
<text text-anchor="middle" x="108.38" y="-130.5" font-family="Helvetica,sans-Serif" font-size="10.00">_set.hpp</text>
</a>
</g>
</g>
<!-- Node1&#45;&gt;Node2 -->
<g id="edge1_Node000001_Node000002" class="edge">
<title>Node1&#45;&gt;Node2</title>
<g id="a_edge1_Node000001_Node000002"><a xlink:title=" ">
<path fill="none" stroke="#63b8ff" d="M138.76,-250.13C134.68,-241.98 130.48,-232.76 127.38,-224 119.23,-201.01 113.69,-173.17 110.78,-156.29"/>
<polygon fill="#63b8ff" stroke="#63b8ff" points="136.05,-251.51 143.76,-258.78 142.26,-248.29 136.05,-251.51"/>
</a>
</g>
</g>
<!-- Node7 -->
<g id="Node000007" class="node">
<title>Node7</title>
<g id="a_Node000007"><a xlink:href="keysight__m9807a_8hpp.html" target="_top" xlink:title=" ">
<polygon fill="white" stroke="#666666" points="258.25,-224 136.5,-224 136.5,-192 258.25,-192 258.25,-224"/>
<text text-anchor="start" x="144.5" y="-210.5" font-family="Helvetica,sans-Serif" font-size="10.00">src/devices/vna/keysight</text>
<text text-anchor="middle" x="197.38" y="-198.5" font-family="Helvetica,sans-Serif" font-size="10.00">_m9807a.hpp</text>
</a>
</g>
</g>
<!-- Node1&#45;&gt;Node7 -->
<g id="edge6_Node000001_Node000007" class="edge">
<title>Node1&#45;&gt;Node7</title>
<g id="a_edge6_Node000001_Node000007"><a xlink:title=" ">
<path fill="none" stroke="#63b8ff" d="M168.83,-250.87C174.9,-241.96 181.61,-232.12 186.99,-224.22"/>
<polygon fill="#63b8ff" stroke="#63b8ff" points="165.55,-248.46 162.81,-258.69 171.34,-252.4 165.55,-248.46"/>
</a>
</g>
</g>
<!-- Node3 -->
<g id="Node000003" class="node">
<title>Node3</title>
<g id="a_Node000003"><a xlink:href="device__set_8cpp.html" target="_top" xlink:title="Файл исходного кода, в котором реализованы методы для класа DeviceSet.">
<polygon fill="white" stroke="#666666" points="94.75,-88 0,-88 0,-56 94.75,-56 94.75,-88"/>
<text text-anchor="start" x="8" y="-74.5" font-family="Helvetica,sans-Serif" font-size="10.00">src/devices/device</text>
<text text-anchor="middle" x="47.38" y="-62.5" font-family="Helvetica,sans-Serif" font-size="10.00">_set.cpp</text>
</a>
</g>
</g>
<!-- Node2&#45;&gt;Node3 -->
<g id="edge2_Node000002_Node000003" class="edge">
<title>Node2&#45;&gt;Node3</title>
<g id="a_edge2_Node000002_Node000003"><a xlink:title=" ">
<path fill="none" stroke="#63b8ff" d="M86.85,-115.71C78.42,-106.59 68.98,-96.37 61.45,-88.22"/>
<polygon fill="#63b8ff" stroke="#63b8ff" points="83.87,-117.72 93.23,-122.69 89.01,-112.97 83.87,-117.72"/>
</a>
</g>
</g>
<!-- Node4 -->
<g id="Node000004" class="node">
<title>Node4</title>
<g id="a_Node000004"><a xlink:href="task__manager_8hpp.html" target="_top" xlink:title=" ">
<polygon fill="white" stroke="#666666" points="225.75,-82 113,-82 113,-62 225.75,-62 225.75,-82"/>
<text text-anchor="middle" x="169.38" y="-68.5" font-family="Helvetica,sans-Serif" font-size="10.00">src/task_manager.hpp</text>
</a>
</g>
</g>
<!-- Node2&#45;&gt;Node4 -->
<g id="edge3_Node000002_Node000004" class="edge">
<title>Node2&#45;&gt;Node4</title>
<g id="a_edge3_Node000002_Node000004"><a xlink:title=" ">
<path fill="none" stroke="#63b8ff" d="M129.9,-115.71C140.54,-104.2 152.77,-90.97 160.76,-82.32"/>
<polygon fill="#63b8ff" stroke="#63b8ff" points="127.74,-112.97 123.52,-122.69 132.88,-117.72 127.74,-112.97"/>
</a>
</g>
</g>
<!-- Node5 -->
<g id="Node000005" class="node">
<title>Node5</title>
<g id="a_Node000005"><a xlink:href="main_8cpp.html" target="_top" xlink:title=" ">
<polygon fill="white" stroke="#666666" points="149.5,-20 77.25,-20 77.25,0 149.5,0 149.5,-20"/>
<text text-anchor="middle" x="113.38" y="-6.5" font-family="Helvetica,sans-Serif" font-size="10.00">src/main.cpp</text>
</a>
</g>
</g>
<!-- Node4&#45;&gt;Node5 -->
<g id="edge4_Node000004_Node000005" class="edge">
<title>Node4&#45;&gt;Node5</title>
<g id="a_edge4_Node000004_Node000005"><a xlink:title=" ">
<path fill="none" stroke="#63b8ff" d="M153.42,-53.9C143.15,-42.91 130.22,-29.05 121.88,-20.11"/>
<polygon fill="#63b8ff" stroke="#63b8ff" points="150.24,-55.7 159.62,-60.62 155.36,-50.93 150.24,-55.7"/>
</a>
</g>
</g>
<!-- Node6 -->
<g id="Node000006" class="node">
<title>Node6</title>
<g id="a_Node000006"><a xlink:href="task__manager_8cpp.html" target="_top" xlink:title=" ">
<polygon fill="white" stroke="#666666" points="280.75,-20 168,-20 168,0 280.75,0 280.75,-20"/>
<text text-anchor="middle" x="224.38" y="-6.5" font-family="Helvetica,sans-Serif" font-size="10.00">src/task_manager.cpp</text>
</a>
</g>
</g>
<!-- Node4&#45;&gt;Node6 -->
<g id="edge5_Node000004_Node000006" class="edge">
<title>Node4&#45;&gt;Node6</title>
<g id="a_edge5_Node000004_Node000006"><a xlink:title=" ">
<path fill="none" stroke="#63b8ff" d="M185.35,-53.58C195.38,-42.63 207.91,-28.97 216.02,-20.11"/>
<polygon fill="#63b8ff" stroke="#63b8ff" points="183.15,-50.89 178.97,-60.62 188.31,-55.62 183.15,-50.89"/>
</a>
</g>
</g>
<!-- Node7&#45;&gt;Node2 -->
<g id="edge7_Node000007_Node000002" class="edge">
<title>Node7&#45;&gt;Node2</title>
<g id="a_edge7_Node000007_Node000002"><a xlink:title=" ">
<path fill="none" stroke="#63b8ff" d="M167.91,-185.15C155.24,-175.75 140.73,-165 129.21,-156.45"/>
<polygon fill="#63b8ff" stroke="#63b8ff" points="165.62,-188.55 175.73,-191.69 169.79,-182.92 165.62,-188.55"/>
</a>
</g>
</g>
<!-- Node8 -->
<g id="Node000008" class="node">
<title>Node8</title>
<g id="a_Node000008"><a xlink:href="keysight__m9807a_8cpp.html" target="_top" xlink:title=" ">
<polygon fill="white" stroke="#666666" points="295.25,-156 173.5,-156 173.5,-124 295.25,-124 295.25,-156"/>
<text text-anchor="start" x="181.5" y="-142.5" font-family="Helvetica,sans-Serif" font-size="10.00">src/devices/vna/keysight</text>
<text text-anchor="middle" x="234.38" y="-130.5" font-family="Helvetica,sans-Serif" font-size="10.00">_m9807a.cpp</text>
</a>
</g>
</g>
<!-- Node7&#45;&gt;Node8 -->
<g id="edge8_Node000007_Node000008" class="edge">
<title>Node7&#45;&gt;Node8</title>
<g id="a_edge8_Node000007_Node000008"><a xlink:title=" ">
<path fill="none" stroke="#63b8ff" d="M211.22,-182.3C216.13,-173.55 221.5,-163.96 225.84,-156.22"/>
<polygon fill="#63b8ff" stroke="#63b8ff" points="207.79,-180.26 205.96,-190.69 213.9,-183.68 207.79,-180.26"/>
</a>
</g>
</g>
</g>
</svg>
</svg>

<style type='text/css'>
<![CDATA[
[data-mouse-over-selected='false'] { opacity: 0.7; }
[data-mouse-over-selected='true']  { opacity: 1.0; }
]]>
</style>
<script type="application/ecmascript"><![CDATA[
document.addEventListener('DOMContentLoaded', (event) => {
  highlightEdges();
  highlightAdjacentNodes();
});
]]></script>
</svg>
