<?xml version="1.0" encoding="UTF-8" standalone="no"?>
<!DOCTYPE svg PUBLIC "-//W3C//DTD SVG 1.1//EN"
 "http://www.w3.org/Graphics/SVG/1.1/DTD/svg11.dtd">
<!-- Generated by graphviz version 8.1.0 (20230707.0739)
 -->
<!-- Title: src/devices/vna/vna_device.hpp Pages: 1 -->
<svg width="372pt" height="300pt"
 viewBox="0.00 0.00 371.50 300.00" xmlns="http://www.w3.org/2000/svg" xmlns:xlink="http://www.w3.org/1999/xlink">
<g id="graph0" class="graph" transform="scale(1 1) rotate(0) translate(4 296)">
<title>src/devices/vna/vna_device.hpp</title>
<!-- Node1 -->
<g id="Node000001" class="node">
<title>Node1</title>
<g id="a_Node000001"><a xlink:title="Заголовочный файл, в котором реализован класс VnaDevice.">
<polygon fill="#999999" stroke="#666666" points="236.5,-292 137.25,-292 137.25,-260 236.5,-260 236.5,-292"/>
<text text-anchor="start" x="145.25" y="-278.5" font-family="Helvetica,sans-Serif" font-size="10.00">src/devices/vna/vna</text>
<text text-anchor="middle" x="186.88" y="-266.5" font-family="Helvetica,sans-Serif" font-size="10.00">_device.hpp</text>
</a>
</g>
</g>
<!-- Node2 -->
<g id="Node000002" class="node">
<title>Node2</title>
<g id="a_Node000002"><a xlink:href="device__set_8hpp.html" target="_top" xlink:title="Заголовочный файл, содержащий в себе класс DeviceSet и набор констант, необходимых для данного класса...">
<polygon fill="white" stroke="#666666" points="234.25,-156 139.5,-156 139.5,-124 234.25,-124 234.25,-156"/>
<text text-anchor="start" x="147.5" y="-142.5" font-family="Helvetica,sans-Serif" font-size="10.00">src/devices/device</text>
<text text-anchor="middle" x="186.88" y="-130.5" font-family="Helvetica,sans-Serif" font-size="10.00">_set.hpp</text>
</a>
</g>
</g>
<!-- Node1&#45;&gt;Node2 -->
<g id="edge1_Node000001_Node000002" class="edge">
<title>Node1&#45;&gt;Node2</title>
<g id="a_edge1_Node000001_Node000002"><a xlink:title=" ">
<path fill="none" stroke="#63b8ff" d="M186.88,-248.82C186.88,-221.22 186.88,-178.7 186.88,-156.19"/>
<polygon fill="#63b8ff" stroke="#63b8ff" points="183.38,-248.63 186.88,-258.63 190.38,-248.63 183.38,-248.63"/>
</a>
</g>
</g>
<!-- Node7 -->
<g id="Node000007" class="node">
<title>Node7</title>
<g id="a_Node000007"><a xlink:href="keysight__m9807a_8hpp.html" target="_top" xlink:title="Файл, в котором определён класс KeysightM9807A.">
<polygon fill="white" stroke="#666666" points="158.75,-224 37,-224 37,-192 158.75,-192 158.75,-224"/>
<text text-anchor="start" x="45" y="-210.5" font-family="Helvetica,sans-Serif" font-size="10.00">src/devices/vna/keysight</text>
<text text-anchor="middle" x="97.88" y="-198.5" font-family="Helvetica,sans-Serif" font-size="10.00">_m9807a.hpp</text>
</a>
</g>
</g>
<!-- Node1&#45;&gt;Node7 -->
<g id="edge6_Node000001_Node000007" class="edge">
<title>Node1&#45;&gt;Node7</title>
<g id="a_edge6_Node000001_Node000007"><a xlink:title=" ">
<path fill="none" stroke="#63b8ff" d="M157.41,-253.15C144.74,-243.75 130.23,-233 118.71,-224.45"/>
<polygon fill="#63b8ff" stroke="#63b8ff" points="155.12,-256.55 165.23,-259.69 159.29,-250.92 155.12,-256.55"/>
</a>
</g>
</g>
<!-- Node9 -->
<g id="Node000009" class="node">
<title>Node9</title>
<g id="a_Node000009"><a xlink:href="planar__s50244_8h.html" target="_top" xlink:title="Файл, в котором определён класс PlanarS50244.">
<polygon fill="white" stroke="#666666" points="326.5,-224 215.25,-224 215.25,-192 326.5,-192 326.5,-224"/>
<text text-anchor="start" x="223.25" y="-210.5" font-family="Helvetica,sans-Serif" font-size="10.00">src/devices/vna/planar</text>
<text text-anchor="middle" x="270.88" y="-198.5" font-family="Helvetica,sans-Serif" font-size="10.00">_s50244.h</text>
</a>
</g>
</g>
<!-- Node1&#45;&gt;Node9 -->
<g id="edge9_Node000001_Node000009" class="edge">
<title>Node1&#45;&gt;Node9</title>
<g id="a_edge9_Node000001_Node000009"><a xlink:title=" ">
<path fill="none" stroke="#63b8ff" d="M214.69,-253.15C226.64,-243.75 240.33,-233 251.21,-224.45"/>
<polygon fill="#63b8ff" stroke="#63b8ff" points="213.06,-250.76 207.36,-259.69 217.38,-256.27 213.06,-250.76"/>
</a>
</g>
</g>
<!-- Node3 -->
<g id="Node000003" class="node">
<title>Node3</title>
<g id="a_Node000003"><a xlink:href="device__set_8cpp.html" target="_top" xlink:title="Файл исходного кода, в котором реализованы методы для класа DeviceSet.">
<polygon fill="white" stroke="#666666" points="173.25,-88 78.5,-88 78.5,-56 173.25,-56 173.25,-88"/>
<text text-anchor="start" x="86.5" y="-74.5" font-family="Helvetica,sans-Serif" font-size="10.00">src/devices/device</text>
<text text-anchor="middle" x="125.88" y="-62.5" font-family="Helvetica,sans-Serif" font-size="10.00">_set.cpp</text>
</a>
</g>
</g>
<!-- Node2&#45;&gt;Node3 -->
<g id="edge2_Node000002_Node000003" class="edge">
<title>Node2&#45;&gt;Node3</title>
<g id="a_edge2_Node000002_Node000003"><a xlink:title=" ">
<path fill="none" stroke="#63b8ff" d="M165.35,-115.71C156.92,-106.59 147.48,-96.37 139.95,-88.22"/>
<polygon fill="#63b8ff" stroke="#63b8ff" points="162.37,-117.72 171.73,-122.69 167.51,-112.97 162.37,-117.72"/>
</a>
</g>
</g>
<!-- Node4 -->
<g id="Node000004" class="node">
<title>Node4</title>
<g id="a_Node000004"><a xlink:href="task__manager_8hpp.html" target="_top" xlink:title="Заголовочный файл, в котором определён класс TaskManager и набор констант для работы с ним">
<polygon fill="white" stroke="#666666" points="304.25,-82 191.5,-82 191.5,-62 304.25,-62 304.25,-82"/>
<text text-anchor="middle" x="247.88" y="-68.5" font-family="Helvetica,sans-Serif" font-size="10.00">src/task_manager.hpp</text>
</a>
</g>
</g>
<!-- Node2&#45;&gt;Node4 -->
<g id="edge3_Node000002_Node000004" class="edge">
<title>Node2&#45;&gt;Node4</title>
<g id="a_edge3_Node000002_Node000004"><a xlink:title=" ">
<path fill="none" stroke="#63b8ff" d="M208.4,-115.71C219.04,-104.2 231.27,-90.97 239.26,-82.32"/>
<polygon fill="#63b8ff" stroke="#63b8ff" points="206.24,-112.97 202.02,-122.69 211.38,-117.72 206.24,-112.97"/>
</a>
</g>
</g>
<!-- Node5 -->
<g id="Node000005" class="node">
<title>Node5</title>
<g id="a_Node000005"><a xlink:href="main_8cpp.html" target="_top" xlink:title="Главный файл приложения">
<polygon fill="white" stroke="#666666" points="229,-20 156.75,-20 156.75,0 229,0 229,-20"/>
<text text-anchor="middle" x="192.88" y="-6.5" font-family="Helvetica,sans-Serif" font-size="10.00">src/main.cpp</text>
</a>
</g>
</g>
<!-- Node4&#45;&gt;Node5 -->
<g id="edge4_Node000004_Node000005" class="edge">
<title>Node4&#45;&gt;Node5</title>
<g id="a_edge4_Node000004_Node000005"><a xlink:title=" ">
<path fill="none" stroke="#63b8ff" d="M231.9,-53.58C221.87,-42.63 209.34,-28.97 201.23,-20.11"/>
<polygon fill="#63b8ff" stroke="#63b8ff" points="228.94,-55.62 238.28,-60.62 234.1,-50.89 228.94,-55.62"/>
</a>
</g>
</g>
<!-- Node6 -->
<g id="Node000006" class="node">
<title>Node6</title>
<g id="a_Node000006"><a xlink:href="task__manager_8cpp.html" target="_top" xlink:title="Файл исходного кода, в котором реализованы методы для класа TaskManager.">
<polygon fill="white" stroke="#666666" points="360.25,-20 247.5,-20 247.5,0 360.25,0 360.25,-20"/>
<text text-anchor="middle" x="303.88" y="-6.5" font-family="Helvetica,sans-Serif" font-size="10.00">src/task_manager.cpp</text>
</a>
</g>
</g>
<!-- Node4&#45;&gt;Node6 -->
<g id="edge5_Node000004_Node000006" class="edge">
<title>Node4&#45;&gt;Node6</title>
<g id="a_edge5_Node000004_Node000006"><a xlink:title=" ">
<path fill="none" stroke="#63b8ff" d="M263.83,-53.9C274.1,-42.91 287.03,-29.05 295.37,-20.11"/>
<polygon fill="#63b8ff" stroke="#63b8ff" points="261.89,-50.93 257.62,-60.62 267.01,-55.7 261.89,-50.93"/>
</a>
</g>
</g>
<!-- Node7&#45;&gt;Node2 -->
<g id="edge7_Node000007_Node000002" class="edge">
<title>Node7&#45;&gt;Node2</title>
<g id="a_edge7_Node000007_Node000002"><a xlink:title=" ">
<path fill="none" stroke="#63b8ff" d="M127.34,-185.15C140.01,-175.75 154.52,-165 166.04,-156.45"/>
<polygon fill="#63b8ff" stroke="#63b8ff" points="125.46,-182.92 119.52,-191.69 129.63,-188.55 125.46,-182.92"/>
</a>
</g>
</g>
<!-- Node8 -->
<g id="Node000008" class="node">
<title>Node8</title>
<g id="a_Node000008"><a xlink:href="keysight__m9807a_8cpp.html" target="_top" xlink:title="Файл исходного кода, в котором реализованы методы для класа KeysightM9807A.">
<polygon fill="white" stroke="#666666" points="121.75,-156 0,-156 0,-124 121.75,-124 121.75,-156"/>
<text text-anchor="start" x="8" y="-142.5" font-family="Helvetica,sans-Serif" font-size="10.00">src/devices/vna/keysight</text>
<text text-anchor="middle" x="60.88" y="-130.5" font-family="Helvetica,sans-Serif" font-size="10.00">_m9807a.cpp</text>
</a>
</g>
</g>
<!-- Node7&#45;&gt;Node8 -->
<g id="edge8_Node000007_Node000008" class="edge">
<title>Node7&#45;&gt;Node8</title>
<g id="a_edge8_Node000007_Node000008"><a xlink:title=" ">
<path fill="none" stroke="#63b8ff" d="M84.03,-182.3C79.12,-173.55 73.75,-163.96 69.41,-156.22"/>
<polygon fill="#63b8ff" stroke="#63b8ff" points="81.35,-183.68 89.29,-190.69 87.46,-180.26 81.35,-183.68"/>
</a>
</g>
</g>
<!-- Node9&#45;&gt;Node2 -->
<g id="edge10_Node000009_Node000002" class="edge">
<title>Node9&#45;&gt;Node2</title>
<g id="a_edge10_Node000009_Node000002"><a xlink:title=" ">
<path fill="none" stroke="#63b8ff" d="M243.06,-185.15C231.11,-175.75 217.42,-165 206.54,-156.45"/>
<polygon fill="#63b8ff" stroke="#63b8ff" points="240.37,-188.27 250.39,-191.69 244.69,-182.76 240.37,-188.27"/>
</a>
</g>
</g>
<!-- Node10 -->
<g id="Node000010" class="node">
<title>Node10</title>
<g id="a_Node000010"><a xlink:href="planar__s50244_8cpp.html" target="_top" xlink:title="Файл исходного кода, в котором реализованы методы для класа PlanarS50244.">
<polygon fill="white" stroke="#666666" points="363.5,-156 252.25,-156 252.25,-124 363.5,-124 363.5,-156"/>
<text text-anchor="start" x="260.25" y="-142.5" font-family="Helvetica,sans-Serif" font-size="10.00">src/devices/vna/planar</text>
<text text-anchor="middle" x="307.88" y="-130.5" font-family="Helvetica,sans-Serif" font-size="10.00">_s50244.cpp</text>
</a>
</g>
</g>
<!-- Node9&#45;&gt;Node10 -->
<g id="edge11_Node000009_Node000010" class="edge">
<title>Node9&#45;&gt;Node10</title>
<g id="a_edge11_Node000009_Node000010"><a xlink:title=" ">
<path fill="none" stroke="#63b8ff" d="M284.72,-182.3C289.63,-173.55 295,-163.96 299.34,-156.22"/>
<polygon fill="#63b8ff" stroke="#63b8ff" points="281.29,-180.26 279.46,-190.69 287.4,-183.68 281.29,-180.26"/>
</a>
</g>
</g>
</g>
</svg>
